<svg width="146px" height="183px" viewBox="0 0 146 183" version="1.1" xmlns="http://www.w3.org/2000/svg">
    <g id="Home" stroke="none" stroke-width="1" fill="none" fill-rule="evenodd" opacity="0.709007626">
        <g id="Home-Version-02---Desktops---12-col" transform="translate(-1050.000000, -996.000000)" fill="#FFFFFF">
            <g id="Featured-Products" transform="translate(270.000000, 864.000000)">
                <g id="Item-2_Ads" transform="translate(780.000000, 132.000000)">
                    <g id="Group-3"
                       transform="translate(154.735666, 105.710583) rotate(-46.000000) translate(-154.735666, -105.710583) translate(-70.264334, -79.789417)">
                        <g id="Group-27"
                           transform="translate(156.507590, 86.219040) rotate(51.000000) translate(-156.507590, -86.219040) translate(43.007590, -13.280960)">
                            <path
                                d="M74.9883971,43.5360486 C72.9643971,43.5360486 71.3217304,41.8933819 71.3217304,39.8693819 C71.3217304,37.8453819 72.9643971,36.2027153 74.9883971,36.2027153 C77.0123971,36.2027153 78.6550637,37.8453819 78.6550637,39.8693819 C78.6550637,41.8933819 77.0123971,43.5360486 74.9883971,43.5360486 M74.9883971,28.8693819 C68.9237304,28.8693819 63.9883971,33.8047153 63.9883971,39.8693819 C63.9883971,45.9340486 68.9237304,50.8693819 74.9883971,50.8693819 C81.0530637,50.8693819 85.9883971,45.9340486 85.9883971,39.8693819 C85.9883971,33.8047153 81.0530637,28.8693819 74.9883971,28.8693819"
                                id="Fill-1"></path>
                            <path
                                d="M132.375106,33.5114234 C130.729057,32.6537018 128.729808,33.3468809 127.903452,35.0763277 L124.571371,42.0781366 C123.748347,43.8075834 124.414763,45.911627 126.060811,46.7763504 C126.540631,47.0249146 127.047107,47.1439453 127.54692,47.1439453 C128.769793,47.1439453 129.946018,46.4367626 130.532465,45.2079452 L133.864546,38.2061363 C134.690902,36.4766895 134.021154,34.3761468 132.375106,33.5114234"
                                id="Fill-3"></path>
                            <path
                                d="M147.405182,33.200282 C145.759134,32.3425604 143.759885,33.0357395 142.933528,34.7651863 L139.601447,41.7669952 C138.778423,43.496442 139.444839,45.6004855 141.090887,46.4652089 C141.570707,46.7137731 142.077184,46.8328039 142.576996,46.8328039 C143.79987,46.8328039 144.976094,46.1256212 145.562541,44.8968037 L148.894622,37.8949948 C149.720979,36.165548 149.05123,34.0650054 147.405182,33.200282"
                                id="Fill-5"></path>
                            <path
                                d="M160.442869,33.063452 C158.793488,32.2057304 156.797572,32.8989095 155.971215,34.6283563 L152.639134,41.6301652 C151.81611,43.359612 152.482526,45.4636556 154.128574,46.328379 C154.608394,46.5769432 155.11487,46.6959739 155.614683,46.6959739 C156.837556,46.6959739 158.013781,45.9887912 158.600228,44.7599738 L161.932309,37.7581649 C162.758665,36.0287181 162.088917,33.9281754 160.442869,33.063452"
                                id="Fill-7"></path>
                            <path
                                d="M74.6641595,85.7248489 C72.6401595,85.7248489 70.9974928,84.0821822 70.9974928,82.0581822 C70.9974928,80.0341822 72.6401595,78.3915156 74.6641595,78.3915156 C76.6881595,78.3915156 78.3308261,80.0341822 78.3308261,82.0581822 C78.3308261,84.0821822 76.6881595,85.7248489 74.6641595,85.7248489 M74.6641595,71.0581822 C68.5994928,71.0581822 63.6641595,75.9939739 63.6641595,82.0581822 C63.6641595,88.1228489 68.5994928,93.0581822 74.6641595,93.0581822 C80.7288261,93.0581822 85.6641595,88.1228489 85.6641595,82.0581822 C85.6641595,75.9939739 80.7288261,71.0581822 74.6641595,71.0581822"
                                id="Fill-9"></path>
                            <path
                                d="M133.047063,75.6130899 C131.401015,74.7553422 129.401766,75.4485424 128.575409,77.1776043 L125.243328,84.1796267 C124.420304,85.9091262 125.08672,88.0136716 126.732768,88.8784213 C127.212588,89.1269931 127.719064,89.2455899 128.218877,89.2455899 C129.441751,89.2455899 130.617975,88.5383856 131.204422,87.3099683 L134.536503,80.3079459 C135.36286,78.5780088 134.693111,76.4778397 133.047063,75.6130899"
                                id="Fill-11"></path>
                            <path
                                d="M147.080944,75.3891042 C145.434896,74.5313565 143.435647,75.2245567 142.609291,76.9536186 L139.277209,83.955641 C138.454185,85.6851405 139.120601,87.7896859 140.76665,88.6544356 C141.24647,88.9030074 141.752946,89.0216042 142.252758,89.0216042 C143.475632,89.0216042 144.651857,88.3143999 145.238303,87.0859826 L148.570385,80.0839602 C149.396741,78.3540231 148.726993,76.253854 147.080944,75.3891042"
                                id="Fill-13"></path>
                            <path
                                d="M161.114826,75.1651185 C159.465445,74.3073708 157.469529,75.000571 156.643172,76.7296329 L153.311091,83.7316553 C152.488067,85.4611548 153.154483,87.5657002 154.800531,88.4304499 C155.280351,88.6790217 155.786827,88.7976185 156.28664,88.7976185 C157.509514,88.7976185 158.685738,88.0904142 159.272185,86.8619969 L162.604266,79.8599745 C163.430623,78.1300374 162.760874,76.0298683 161.114826,75.1651185"
                                id="Fill-15"></path>
                            <path
                                d="M74.4270776,128.909844 C72.4030776,128.909844 70.760411,127.267177 70.760411,125.243177 C70.760411,123.219177 72.4030776,121.576511 74.4270776,121.576511 C76.4510776,121.576511 78.0937443,123.219177 78.0937443,125.243177 C78.0937443,127.267177 76.4510776,128.909844 74.4270776,128.909844 M74.4270776,114.243177 C68.362411,114.243177 63.4270776,119.178969 63.4270776,125.243177 C63.4270776,131.307844 68.362411,136.243177 74.4270776,136.243177 C80.4917443,136.243177 85.4270776,131.307844 85.4270776,125.243177 C85.4270776,119.178969 80.4917443,114.243177 74.4270776,114.243177"
                                id="Fill-17"></path>
                            <path
                                d="M132.809981,118.798085 C131.163933,117.940337 129.164684,118.633537 128.338328,120.362599 L125.006246,127.364622 C124.183222,129.094121 124.849638,131.198667 126.495686,132.063416 C126.975506,132.311988 127.481983,132.430585 127.981795,132.430585 C129.204669,132.430585 130.380894,131.723381 130.96734,130.494963 L134.299421,123.492941 C135.125778,121.763004 134.456029,119.662835 132.809981,118.798085"
                                id="Fill-19"></path>
                            <path
                                d="M146.843863,118.574099 C145.197814,117.716351 143.198565,118.409552 142.372209,120.138614 L139.040127,127.140636 C138.217103,128.870135 138.88352,130.974681 140.529568,131.839431 C141.009388,132.088002 141.515864,132.206599 142.015676,132.206599 C143.23855,132.206599 144.414775,131.499395 145.001221,130.270978 L148.333303,123.268955 C149.159659,121.539018 148.489911,119.438849 146.843863,118.574099"
                                id="Fill-21"></path>
                            <path
                                d="M160.877744,118.350114 C159.228364,117.492366 157.232447,118.185566 156.406091,119.914628 L153.074009,126.91665 C152.250985,128.64615 152.917401,130.750695 154.563449,131.615445 C155.043269,131.864017 155.549746,131.982613 156.049558,131.982613 C157.272432,131.982613 158.448657,131.275409 159.035103,130.046992 L162.367184,123.04497 C163.193541,121.315032 162.523792,119.214863 160.877744,118.350114"
                                id="Fill-23"></path>
                            <path
                                d="M173.384884,177.526991 L42.7286339,177.526991 C23.2573214,177.526991 7.4161339,161.666432 7.4161339,142.172294 C7.4161339,122.674179 23.2573214,106.81362 42.7286339,106.81362 L49.7911339,106.81362 L49.7911339,142.17583 L46.2598839,142.17583 C44.3071027,142.17583 42.7286339,143.756185 42.7286339,145.711299 C42.7286339,147.666414 44.3071027,149.246769 46.2598839,149.246769 L180.447384,149.246769 C182.400165,149.246769 183.978634,147.666414 183.978634,145.711299 C183.978634,143.756185 182.400165,142.17583 180.447384,142.17583 L176.916134,142.17583 L176.916134,103.282128 L176.916134,103.278151 L176.916134,85.7811114 C200.57904,87.5987847 219.291134,107.415092 219.291134,131.561908 C219.291134,156.908132 198.696884,177.526991 173.384884,177.526991 L173.384884,177.526991 Z M173.384884,191.682569 L42.7286339,191.682569 C27.5972277,191.682569 14.6940402,182.080676 9.67966515,168.656497 C17.4519464,178.357826 29.3663839,184.59793 42.7286339,184.59793 L173.384884,184.59793 C190.772759,184.59793 206.179603,176.13048 215.841103,163.140723 C208.96929,179.867472 192.538384,191.682569 173.384884,191.682569 L173.384884,191.682569 Z M56.8536339,99.743123 L169.853634,99.743123 L169.853634,64.3884265 L56.8536339,64.3884265 L56.8536339,99.743123 Z M56.8536339,142.172294 L169.853634,142.172294 L169.853634,106.817598 L56.8536339,106.817598 L56.8536339,142.172294 Z M56.8536339,57.3135098 L169.853634,57.3135098 L169.853634,21.9588134 L56.8536339,21.9588134 L56.8536339,57.3135098 Z M68.9057902,7.8244477 L157.801478,7.8244477 L164.860446,14.8878741 L61.8468214,14.8878741 L68.9057902,7.8244477 Z M176.916134,78.7101721 L176.916134,60.8529569 L176.916134,60.8489795 L176.916134,18.4233438 C176.916134,17.9641746 176.824321,17.5045636 176.644228,17.0732363 C176.464134,16.6383735 176.206353,16.2459364 175.877946,15.9206732 L161.76354,1.79293649 C161.438665,1.46369588 161.046696,1.2056066 160.612353,1.02573958 C160.18154,0.845430627 159.722478,0.753508416 159.263415,0.753508416 L67.4438527,0.753508416 C66.9847902,0.753508416 66.5257277,0.845430627 66.0949152,1.02573958 C65.6605714,1.2056066 65.2686027,1.46369588 64.9437277,1.79293649 L50.8293214,15.9206732 C50.5009152,16.2459364 50.2431339,16.6383735 50.0630402,17.0732363 C49.8829464,17.5045636 49.7911339,17.9641746 49.7911339,18.4233438 L49.7911339,60.8489795 L49.7911339,60.8529569 L49.7911339,99.742681 L42.7286339,99.742681 C19.3623527,99.742681 0.353633901,118.77765 0.353633901,142.172294 L0.353633901,156.321244 C0.353633901,179.718982 19.3623527,198.753508 42.7286339,198.753508 L173.384884,198.753508 C202.591853,198.753508 226.353634,174.959798 226.353634,145.711299 L226.353634,131.561908 C226.353634,103.511934 204.47754,80.5419873 176.916134,78.7101721 L176.916134,78.7101721 Z"
                                id="Fill-25"></path>
                        </g>
                    </g>
                </g>
            </g>
        </g>
    </g>
</svg>
