<svg xmlns="http://www.w3.org/2000/svg" id="Layer_1" x="0" y="0" version="1.1" viewBox="0 0 80 80" xml:space="preserve" style="enable-background:new 0 0 80 80"><style type="text/css">.st0{fill:#b6ddf5}.st1{fill:#0589d8}.st2{fill:#fff}.st3{fill:#b1d565}.st4{fill:#009d3d}.st5{fill:#e5f1cc}.st6{fill:#e3f2fb}.st7{fill:none;stroke:#fff;stroke-width:1.2;stroke-linecap:round;stroke-linejoin:round;stroke-miterlimit:10}</style><g><g><path d="M13.97,27.92h-0.2c-0.96,0-1.8,0.56-2,1.34L8.04,43.3h63.51l-3.73-14.05c-0.21-0.78-1.04-1.34-2-1.34h-0.35" class="st0"/><path d="M71.55,43.64H8.04c-0.11,0-0.21-0.05-0.27-0.13c-0.06-0.08-0.09-0.19-0.06-0.3l3.73-14.05 c0.25-0.94,1.21-1.59,2.33-1.59h0.2c0.19,0,0.34,0.15,0.34,0.34s-0.15,0.34-0.34,0.34h-0.2c-0.8,0-1.51,0.46-1.67,1.08L8.48,42.96 h62.62l-3.61-13.62c-0.17-0.63-0.87-1.08-1.67-1.08h-0.35c-0.19,0-0.34-0.15-0.34-0.34s0.15-0.34,0.34-0.34h0.35 c1.13,0,2.08,0.65,2.33,1.59l3.73,14.05c0.03,0.1,0.01,0.21-0.06,0.3C71.75,43.6,71.65,43.64,71.55,43.64z" class="st1"/></g><g><g><rect width="24.47" height="34.63" x="17.14" y="12.42" class="st0"/><path d="M41.61,47.39H17.14c-0.19,0-0.34-0.15-0.34-0.34V12.42c0-0.19,0.15-0.34,0.34-0.34h24.47 c0.19,0,0.34,0.15,0.34,0.34v34.63C41.95,47.24,41.8,47.39,41.61,47.39z M17.48,46.71h23.79V12.76H17.48V46.71z" class="st1"/></g><g><g><path d="M43.16,39.91v5.25c0,0.27-0.22,0.49-0.49,0.49h-8.16c0-0.27-0.22-0.48-0.49-0.48h-9.3 c-0.27,0-0.48,0.22-0.49,0.48h-8.16c-0.27,0-0.49-0.22-0.49-0.49v-5.25c0-0.27,0.22-0.49,0.49-0.49h26.59 C42.94,39.42,43.16,39.64,43.16,39.91z" class="st2"/><path d="M42.67,46h-8.49l-0.01-0.33c0-0.08-0.07-0.15-0.15-0.15h-9.3c-0.08,0-0.15,0.07-0.15,0.15L24.58,46h-8.49 c-0.46,0-0.83-0.37-0.83-0.83v-5.25c0-0.46,0.37-0.83,0.83-0.83h26.59c0.46,0,0.83,0.37,0.83,0.83v5.25 C43.5,45.63,43.13,46,42.67,46z M34.78,45.32h7.9c0.08,0,0.15-0.07,0.15-0.15v-5.25c0-0.08-0.07-0.15-0.15-0.15H16.08 c-0.08,0-0.15,0.07-0.15,0.15v5.25c0,0.08,0.07,0.15,0.15,0.15h7.9c0.13-0.28,0.42-0.48,0.75-0.48h9.3 C34.36,44.83,34.65,45.03,34.78,45.32z" class="st1"/></g><g><g><g><circle cx="40.94" cy="42.3" r=".83" class="st3"/></g></g><g><g><circle cx="40.94" cy="42.3" r=".56" class="st4"/></g></g></g><g><g><g><circle cx="38.25" cy="42.3" r=".83" class="st3"/></g></g><g><g><circle cx="38.25" cy="42.3" r=".56" class="st4"/></g></g></g><g><path d="M18.18,41.53c0,0.27-0.22,0.49-0.49,0.49c-0.27,0-0.49-0.22-0.49-0.49c0-0.27,0.22-0.49,0.49-0.49 C17.96,41.05,18.18,41.26,18.18,41.53z M17.69,42.51c-0.27,0-0.49,0.22-0.49,0.49s0.22,0.49,0.49,0.49 c0.27,0,0.49-0.22,0.49-0.49S17.96,42.51,17.69,42.51z" class="st1"/></g><g><path d="M20.22,41.53c0,0.27-0.22,0.49-0.49,0.49s-0.49-0.22-0.49-0.49c0-0.27,0.22-0.49,0.49-0.49 S20.22,41.26,20.22,41.53z M19.73,42.51c-0.27,0-0.49,0.22-0.49,0.49s0.22,0.49,0.49,0.49s0.49-0.22,0.49-0.49 S20,42.51,19.73,42.51z" class="st1"/></g><g><path d="M22.26,41.53c0,0.27-0.22,0.49-0.49,0.49s-0.49-0.22-0.49-0.49c0-0.27,0.22-0.49,0.49-0.49 S22.26,41.26,22.26,41.53z M21.77,42.51c-0.27,0-0.49,0.22-0.49,0.49s0.22,0.49,0.49,0.49s0.49-0.22,0.49-0.49 S22.04,42.51,21.77,42.51z" class="st1"/></g><g><path d="M24.3,41.53c0,0.27-0.22,0.49-0.49,0.49c-0.27,0-0.49-0.22-0.49-0.49c0-0.27,0.22-0.49,0.49-0.49 C24.09,41.05,24.3,41.26,24.3,41.53z M23.81,42.51c-0.27,0-0.49,0.22-0.49,0.49s0.22,0.49,0.49,0.49c0.27,0,0.49-0.22,0.49-0.49 S24.09,42.51,23.81,42.51z" class="st1"/></g><g><path d="M26.34,41.53c0,0.27-0.22,0.49-0.49,0.49c-0.27,0-0.49-0.22-0.49-0.49c0-0.27,0.22-0.49,0.49-0.49 C26.13,41.05,26.34,41.26,26.34,41.53z M25.86,42.51c-0.27,0-0.49,0.22-0.49,0.49s0.22,0.49,0.49,0.49 c0.27,0,0.49-0.22,0.49-0.49S26.13,42.51,25.86,42.51z" class="st1"/></g><g><path d="M28.38,41.53c0,0.27-0.22,0.49-0.49,0.49s-0.49-0.22-0.49-0.49c0-0.27,0.22-0.49,0.49-0.49 S28.38,41.26,28.38,41.53z M27.9,42.51c-0.27,0-0.49,0.22-0.49,0.49s0.22,0.49,0.49,0.49s0.49-0.22,0.49-0.49 S28.17,42.51,27.9,42.51z" class="st1"/></g><g><path d="M30.43,41.53c0,0.27-0.22,0.49-0.49,0.49s-0.49-0.22-0.49-0.49c0-0.27,0.22-0.49,0.49-0.49 S30.43,41.26,30.43,41.53z M29.94,42.51c-0.27,0-0.49,0.22-0.49,0.49s0.22,0.49,0.49,0.49s0.49-0.22,0.49-0.49 S30.21,42.51,29.94,42.51z" class="st1"/></g></g><g><g><path d="M43.16,32.29v5.25c0,0.27-0.22,0.49-0.49,0.49h-8.16c0-0.27-0.22-0.48-0.49-0.48h-9.3 c-0.27,0-0.48,0.22-0.49,0.48h-8.16c-0.27,0-0.49-0.22-0.49-0.49v-5.25c0-0.27,0.22-0.49,0.49-0.49h26.59 C42.94,31.8,43.16,32.02,43.16,32.29z" class="st2"/><path d="M42.67,38.37h-8.49l-0.01-0.33c0-0.08-0.07-0.15-0.15-0.15h-9.3c-0.08,0-0.15,0.07-0.15,0.15l-0.01,0.33 h-8.49c-0.46,0-0.83-0.37-0.83-0.83v-5.25c0-0.46,0.37-0.83,0.83-0.83h26.59c0.46,0,0.83,0.37,0.83,0.83v5.25 C43.5,38,43.13,38.37,42.67,38.37z M34.78,37.69h7.9c0.08,0,0.15-0.07,0.15-0.15v-5.25c0-0.08-0.07-0.15-0.15-0.15H16.08 c-0.08,0-0.15,0.07-0.15,0.15v5.25c0,0.08,0.07,0.15,0.15,0.15h7.9c0.13-0.28,0.42-0.48,0.75-0.48h9.3 C34.36,37.21,34.65,37.41,34.78,37.69z" class="st1"/></g><g><g><g><circle cx="40.94" cy="34.67" r=".83" class="st3"/></g></g><g><g><circle cx="40.94" cy="34.67" r=".56" class="st4"/></g></g></g><g><g><g><circle cx="38.25" cy="34.67" r=".83" class="st3"/></g></g><g><g><circle cx="38.25" cy="34.67" r=".56" class="st4"/></g></g></g><g><path d="M18.18,33.91c0,0.27-0.22,0.49-0.49,0.49c-0.27,0-0.49-0.22-0.49-0.49s0.22-0.49,0.49-0.49 C17.96,33.42,18.18,33.64,18.18,33.91z M17.69,34.89c-0.27,0-0.49,0.22-0.49,0.49s0.22,0.49,0.49,0.49 c0.27,0,0.49-0.22,0.49-0.49S17.96,34.89,17.69,34.89z" class="st1"/></g><g><path d="M20.22,33.91c0,0.27-0.22,0.49-0.49,0.49s-0.49-0.22-0.49-0.49s0.22-0.49,0.49-0.49 S20.22,33.64,20.22,33.91z M19.73,34.89c-0.27,0-0.49,0.22-0.49,0.49s0.22,0.49,0.49,0.49s0.49-0.22,0.49-0.49 S20,34.89,19.73,34.89z" class="st1"/></g><g><path d="M22.26,33.91c0,0.27-0.22,0.49-0.49,0.49s-0.49-0.22-0.49-0.49s0.22-0.49,0.49-0.49 S22.26,33.64,22.26,33.91z M21.77,34.89c-0.27,0-0.49,0.22-0.49,0.49s0.22,0.49,0.49,0.49s0.49-0.22,0.49-0.49 S22.04,34.89,21.77,34.89z" class="st1"/></g><g><path d="M24.3,33.91c0,0.27-0.22,0.49-0.49,0.49c-0.27,0-0.49-0.22-0.49-0.49s0.22-0.49,0.49-0.49 C24.09,33.42,24.3,33.64,24.3,33.91z M23.81,34.89c-0.27,0-0.49,0.22-0.49,0.49s0.22,0.49,0.49,0.49c0.27,0,0.49-0.22,0.49-0.49 S24.09,34.89,23.81,34.89z" class="st1"/></g><g><path d="M26.34,33.91c0,0.27-0.22,0.49-0.49,0.49c-0.27,0-0.49-0.22-0.49-0.49s0.22-0.49,0.49-0.49 C26.13,33.42,26.34,33.64,26.34,33.91z M25.86,34.89c-0.27,0-0.49,0.22-0.49,0.49s0.22,0.49,0.49,0.49 c0.27,0,0.49-0.22,0.49-0.49S26.13,34.89,25.86,34.89z" class="st1"/></g><g><path d="M28.38,33.91c0,0.27-0.22,0.49-0.49,0.49s-0.49-0.22-0.49-0.49s0.22-0.49,0.49-0.49 S28.38,33.64,28.38,33.91z M27.9,34.89c-0.27,0-0.49,0.22-0.49,0.49s0.22,0.49,0.49,0.49s0.49-0.22,0.49-0.49 S28.17,34.89,27.9,34.89z" class="st1"/></g><g><path d="M30.43,33.91c0,0.27-0.22,0.49-0.49,0.49s-0.49-0.22-0.49-0.49s0.22-0.49,0.49-0.49 S30.43,33.64,30.43,33.91z M29.94,34.89c-0.27,0-0.49,0.22-0.49,0.49s0.22,0.49,0.49,0.49s0.49-0.22,0.49-0.49 S30.21,34.89,29.94,34.89z" class="st1"/></g></g><g><g><path d="M43.16,24.66v5.25c0,0.27-0.22,0.49-0.49,0.49h-8.16c0-0.27-0.22-0.48-0.49-0.48h-9.3 c-0.27,0-0.48,0.22-0.49,0.48h-8.16c-0.27,0-0.49-0.22-0.49-0.49v-5.25c0-0.27,0.22-0.49,0.49-0.49h26.59 C42.94,24.17,43.16,24.39,43.16,24.66z" class="st2"/><path d="M42.67,30.74h-8.49l-0.01-0.33c0-0.08-0.07-0.15-0.15-0.15h-9.3c-0.08,0-0.15,0.07-0.15,0.15l-0.01,0.33 h-8.49c-0.46,0-0.83-0.37-0.83-0.83v-5.25c0-0.46,0.37-0.83,0.83-0.83h26.59c0.46,0,0.83,0.37,0.83,0.83v5.25 C43.5,30.37,43.13,30.74,42.67,30.74z M34.78,30.06h7.9c0.08,0,0.15-0.07,0.15-0.15v-5.25c0-0.08-0.07-0.15-0.15-0.15H16.08 c-0.08,0-0.15,0.07-0.15,0.15v5.25c0,0.08,0.07,0.15,0.15,0.15h7.9c0.13-0.28,0.42-0.48,0.75-0.48h9.3 C34.36,29.58,34.65,29.78,34.78,30.06z" class="st1"/></g><g><g><g><circle cx="40.94" cy="27.04" r=".83" class="st3"/></g></g><g><g><circle cx="40.94" cy="27.04" r=".56" class="st4"/></g></g></g><g><g><g><circle cx="38.25" cy="27.04" r=".83" class="st3"/></g></g><g><g><circle cx="38.25" cy="27.04" r=".56" class="st4"/></g></g></g><g><path d="M18.18,26.28c0,0.27-0.22,0.49-0.49,0.49c-0.27,0-0.49-0.22-0.49-0.49s0.22-0.49,0.49-0.49 C17.96,25.79,18.18,26.01,18.18,26.28z M17.69,27.26c-0.27,0-0.49,0.22-0.49,0.49c0,0.27,0.22,0.49,0.49,0.49 c0.27,0,0.49-0.22,0.49-0.49C18.18,27.48,17.96,27.26,17.69,27.26z" class="st1"/></g><g><path d="M20.22,26.28c0,0.27-0.22,0.49-0.49,0.49s-0.49-0.22-0.49-0.49s0.22-0.49,0.49-0.49 S20.22,26.01,20.22,26.28z M19.73,27.26c-0.27,0-0.49,0.22-0.49,0.49c0,0.27,0.22,0.49,0.49,0.49s0.49-0.22,0.49-0.49 C20.22,27.48,20,27.26,19.73,27.26z" class="st1"/></g><g><path d="M22.26,26.28c0,0.27-0.22,0.49-0.49,0.49s-0.49-0.22-0.49-0.49s0.22-0.49,0.49-0.49 S22.26,26.01,22.26,26.28z M21.77,27.26c-0.27,0-0.49,0.22-0.49,0.49c0,0.27,0.22,0.49,0.49,0.49s0.49-0.22,0.49-0.49 C22.26,27.48,22.04,27.26,21.77,27.26z" class="st1"/></g><g><path d="M24.3,26.28c0,0.27-0.22,0.49-0.49,0.49c-0.27,0-0.49-0.22-0.49-0.49s0.22-0.49,0.49-0.49 C24.09,25.79,24.3,26.01,24.3,26.28z M23.81,27.26c-0.27,0-0.49,0.22-0.49,0.49c0,0.27,0.22,0.49,0.49,0.49 c0.27,0,0.49-0.22,0.49-0.49C24.3,27.48,24.09,27.26,23.81,27.26z" class="st1"/></g><g><path d="M26.34,26.28c0,0.27-0.22,0.49-0.49,0.49c-0.27,0-0.49-0.22-0.49-0.49s0.22-0.49,0.49-0.49 C26.13,25.79,26.34,26.01,26.34,26.28z M25.86,27.26c-0.27,0-0.49,0.22-0.49,0.49c0,0.27,0.22,0.49,0.49,0.49 c0.27,0,0.49-0.22,0.49-0.49C26.34,27.48,26.13,27.26,25.86,27.26z" class="st1"/></g><g><path d="M28.38,26.28c0,0.27-0.22,0.49-0.49,0.49s-0.49-0.22-0.49-0.49s0.22-0.49,0.49-0.49 S28.38,26.01,28.38,26.28z M27.9,27.26c-0.27,0-0.49,0.22-0.49,0.49c0,0.27,0.22,0.49,0.49,0.49s0.49-0.22,0.49-0.49 C28.38,27.48,28.17,27.26,27.9,27.26z" class="st1"/></g><g><path d="M30.43,26.28c0,0.27-0.22,0.49-0.49,0.49s-0.49-0.22-0.49-0.49s0.22-0.49,0.49-0.49 S30.43,26.01,30.43,26.28z M29.94,27.26c-0.27,0-0.49,0.22-0.49,0.49c0,0.27,0.22,0.49,0.49,0.49s0.49-0.22,0.49-0.49 C30.43,27.48,30.21,27.26,29.94,27.26z" class="st1"/></g></g><g><g><path d="M43.16,17.03v5.25c0,0.27-0.22,0.49-0.49,0.49h-8.16c0-0.27-0.22-0.48-0.49-0.48h-9.3 c-0.27,0-0.48,0.22-0.49,0.48h-8.16c-0.27,0-0.49-0.22-0.49-0.49v-5.25c0-0.27,0.22-0.49,0.49-0.49h26.59 C42.94,16.54,43.16,16.77,43.16,17.03z" class="st2"/><path d="M42.67,23.12h-8.49l-0.01-0.33c0-0.08-0.07-0.15-0.15-0.15h-9.3c-0.08,0-0.15,0.07-0.15,0.15l-0.01,0.33 h-8.49c-0.46,0-0.83-0.37-0.83-0.83v-5.25c0-0.46,0.37-0.83,0.83-0.83h26.59c0.46,0,0.83,0.37,0.83,0.83v5.25 C43.5,22.75,43.13,23.12,42.67,23.12z M34.78,22.44h7.89c0.08,0,0.15-0.07,0.15-0.15v-5.25c0-0.08-0.07-0.15-0.15-0.15H16.08 c-0.08,0-0.15,0.07-0.15,0.15v5.25c0,0.08,0.07,0.15,0.15,0.15h7.89c0.13-0.29,0.42-0.48,0.75-0.48h9.3 C34.36,21.96,34.65,22.15,34.78,22.44z" class="st1"/></g><g><g><g><circle cx="40.94" cy="19.42" r=".83" class="st3"/></g></g><g><g><circle cx="40.94" cy="19.42" r=".56" class="st4"/></g></g></g><g><g><g><circle cx="38.25" cy="19.42" r=".83" class="st3"/></g></g><g><g><circle cx="38.25" cy="19.42" r=".56" class="st4"/></g></g></g><g><path d="M18.18,18.66c0,0.27-0.22,0.49-0.49,0.49c-0.27,0-0.49-0.22-0.49-0.49c0-0.27,0.22-0.49,0.49-0.49 C17.96,18.17,18.18,18.39,18.18,18.66z M17.69,19.64c-0.27,0-0.49,0.22-0.49,0.49c0,0.27,0.22,0.49,0.49,0.49 c0.27,0,0.49-0.22,0.49-0.49C18.18,19.85,17.96,19.64,17.69,19.64z" class="st1"/></g><g><path d="M20.22,18.66c0,0.27-0.22,0.49-0.49,0.49s-0.49-0.22-0.49-0.49c0-0.27,0.22-0.49,0.49-0.49 S20.22,18.39,20.22,18.66z M19.73,19.64c-0.27,0-0.49,0.22-0.49,0.49c0,0.27,0.22,0.49,0.49,0.49s0.49-0.22,0.49-0.49 C20.22,19.85,20,19.64,19.73,19.64z" class="st1"/></g><g><path d="M22.26,18.66c0,0.27-0.22,0.49-0.49,0.49s-0.49-0.22-0.49-0.49c0-0.27,0.22-0.49,0.49-0.49 S22.26,18.39,22.26,18.66z M21.77,19.64c-0.27,0-0.49,0.22-0.49,0.49c0,0.27,0.22,0.49,0.49,0.49s0.49-0.22,0.49-0.49 C22.26,19.85,22.04,19.64,21.77,19.64z" class="st1"/></g><g><path d="M24.3,18.66c0,0.27-0.22,0.49-0.49,0.49c-0.27,0-0.49-0.22-0.49-0.49c0-0.27,0.22-0.49,0.49-0.49 C24.09,18.17,24.3,18.39,24.3,18.66z M23.81,19.64c-0.27,0-0.49,0.22-0.49,0.49c0,0.27,0.22,0.49,0.49,0.49 c0.27,0,0.49-0.22,0.49-0.49C24.3,19.85,24.09,19.64,23.81,19.64z" class="st1"/></g><g><path d="M26.34,18.66c0,0.27-0.22,0.49-0.49,0.49c-0.27,0-0.49-0.22-0.49-0.49c0-0.27,0.22-0.49,0.49-0.49 C26.13,18.17,26.34,18.39,26.34,18.66z M25.86,19.64c-0.27,0-0.49,0.22-0.49,0.49c0,0.27,0.22,0.49,0.49,0.49 c0.27,0,0.49-0.22,0.49-0.49C26.34,19.85,26.13,19.64,25.86,19.64z" class="st1"/></g><g><path d="M28.38,18.66c0,0.27-0.22,0.49-0.49,0.49s-0.49-0.22-0.49-0.49c0-0.27,0.22-0.49,0.49-0.49 S28.38,18.39,28.38,18.66z M27.9,19.64c-0.27,0-0.49,0.22-0.49,0.49c0,0.27,0.22,0.49,0.49,0.49s0.49-0.22,0.49-0.49 C28.38,19.85,28.17,19.64,27.9,19.64z" class="st1"/></g><g><path d="M30.43,18.66c0,0.27-0.22,0.49-0.49,0.49s-0.49-0.22-0.49-0.49c0-0.27,0.22-0.49,0.49-0.49 S30.43,18.39,30.43,18.66z M29.94,19.64c-0.27,0-0.49,0.22-0.49,0.49c0,0.27,0.22,0.49,0.49,0.49s0.49-0.22,0.49-0.49 C30.43,19.85,30.21,19.64,29.94,19.64z" class="st1"/></g></g><g><path d="M41.75,15.15H17.01c-0.78,0-1.42-0.63-1.42-1.42v-2.72c0-0.78,0.63-1.42,1.42-1.42h24.74 c0.78,0,1.42,0.63,1.42,1.42v2.72C43.16,14.52,42.53,15.15,41.75,15.15z" class="st2"/><path d="M42.36,15.49H16.4c-0.63,0-1.14-0.51-1.14-1.14V10.4c0-0.63,0.51-1.14,1.14-1.14h25.96 c0.63,0,1.14,0.51,1.14,1.14v3.95C43.5,14.98,42.99,15.49,42.36,15.49z M16.4,9.94c-0.26,0-0.46,0.21-0.46,0.46v3.95 c0,0.26,0.21,0.46,0.46,0.46h25.96c0.26,0,0.46-0.21,0.46-0.46V10.4c0-0.26-0.21-0.46-0.46-0.46H16.4z" class="st1"/></g><g><g><g><path d="M23.79,13.97h-5.44c-0.52,0-0.95-0.43-0.95-0.95v-1.18c0-0.52,0.43-0.95,0.95-0.95h5.44 c0.52,0,0.95,0.43,0.95,0.95v1.18C24.74,13.54,24.31,13.97,23.79,13.97z" class="st5"/></g><g><path d="M24.24,14.09h-6.36c-0.34,0-0.62-0.28-0.62-0.62v-2.1c0-0.34,0.28-0.62,0.62-0.62h6.36 c0.34,0,0.62,0.28,0.62,0.62v2.1C24.86,13.81,24.59,14.09,24.24,14.09z M17.89,11.01c-0.2,0-0.37,0.17-0.37,0.37v2.1 c0,0.2,0.17,0.37,0.37,0.37h6.36c0.2,0,0.37-0.17,0.37-0.37v-2.1c0-0.2-0.17-0.37-0.37-0.37H17.89z" class="st1"/></g></g><g><g><path d="M18.48,13.26L18.48,13.26c-0.15,0-0.27-0.12-0.27-0.27v0c0-0.15,0.12-0.27,0.27-0.27h0 c0.15,0,0.27,0.12,0.27,0.27v0C18.75,13.14,18.62,13.26,18.48,13.26z" class="st4"/></g></g><g><g><path d="M19.83,13.26L19.83,13.26c-0.15,0-0.27-0.12-0.27-0.27v-1.14c0-0.15,0.12-0.27,0.27-0.27h0 c0.15,0,0.27,0.12,0.27,0.27v1.14C20.1,13.14,19.98,13.26,19.83,13.26z" class="st4"/></g></g><g><g><path d="M21.18,13.26L21.18,13.26c-0.15,0-0.27-0.12-0.27-0.27v-0.33c0-0.15,0.12-0.27,0.27-0.27l0,0 c0.15,0,0.27,0.12,0.27,0.27v0.33C21.45,13.14,21.33,13.26,21.18,13.26z" class="st4"/></g></g><g><g><path d="M23.89,13.26L23.89,13.26c-0.15,0-0.27-0.12-0.27-0.27v-1.14c0-0.15,0.12-0.27,0.27-0.27l0,0 c0.15,0,0.27,0.12,0.27,0.27v1.14C24.16,13.14,24.04,13.26,23.89,13.26z" class="st4"/></g></g><g><g><path d="M22.54,13.26L22.54,13.26c-0.15,0-0.27-0.12-0.27-0.27v-1.14c0-0.15,0.12-0.27,0.27-0.27l0,0 c0.15,0,0.27,0.12,0.27,0.27v1.14C22.81,13.14,22.69,13.26,22.54,13.26z" class="st4"/></g></g></g><g><g><g><circle cx="29.61" cy="12.42" r=".83" class="st3"/></g></g><g><g><circle cx="29.61" cy="12.42" r=".56" class="st4"/></g></g></g><g><g><g><circle cx="26.92" cy="12.42" r=".83" class="st3"/></g></g><g><g><circle cx="26.92" cy="12.42" r=".56" class="st4"/></g></g></g><g><g><path d="M36.91,13.45L36.91,13.45c-0.15,0-0.27-0.12-0.27-0.27v-1.61c0-0.15,0.12-0.27,0.27-0.27l0,0 c0.15,0,0.27,0.12,0.27,0.27v1.61C37.18,13.33,37.06,13.45,36.91,13.45z" class="st1"/></g></g><g><g><path d="M38.94,13.45L38.94,13.45c-0.15,0-0.27-0.12-0.27-0.27v-1.61c0-0.15,0.12-0.27,0.27-0.27l0,0 c0.15,0,0.27,0.12,0.27,0.27v1.61C39.21,13.33,39.09,13.45,38.94,13.45z" class="st1"/></g></g><g><g><path d="M40.97,13.45L40.97,13.45c-0.15,0-0.27-0.12-0.27-0.27v-1.61c0-0.15,0.12-0.27,0.27-0.27l0,0 c0.15,0,0.27,0.12,0.27,0.27v1.61C41.24,13.33,41.12,13.45,40.97,13.45z" class="st1"/></g></g></g><g><g><g><g><path d="M43.3,29.44l-0.49-2.16l-0.49,2.16h-1.21l-1.09-3.8h1.29l0.49,2.33l0.58-2.33h0.87l0.58,2.33l0.48-2.33 h1.29l-1.09,3.8H43.3z" class="st2"/><path d="M48.94,29.44l-0.49-2.16l-0.49,2.16h-1.21l-1.09-3.8h1.29l0.49,2.33l0.58-2.33h0.87l0.58,2.33l0.48-2.33 h1.29l-1.09,3.8H48.94z" class="st2"/><path d="M54.59,29.44l-0.49-2.16l-0.49,2.16H52.4l-1.09-3.8h1.29l0.49,2.33l0.58-2.33h0.87l0.58,2.33l0.48-2.33 h1.29l-1.09,3.8H54.59z" class="st2"/></g><g><path d="M43.3,29.44l-0.49-2.16l-0.49,2.16h-1.21l-1.09-3.8h1.29l0.49,2.33l0.58-2.33h0.87l0.58,2.33l0.48-2.33 h1.29l-1.09,3.8H43.3z" class="st2"/><path d="M48.94,29.44l-0.49-2.16l-0.49,2.16h-1.21l-1.09-3.8h1.29l0.49,2.33l0.58-2.33h0.87l0.58,2.33l0.48-2.33 h1.29l-1.09,3.8H48.94z" class="st2"/><path d="M54.59,29.44l-0.49-2.16l-0.49,2.16H52.4l-1.09-3.8h1.29l0.49,2.33l0.58-2.33h0.87l0.58,2.33l0.48-2.33 h1.29l-1.09,3.8H54.59z" class="st2"/></g></g><g><line x1="44.1" x2="52.7" y1="33.32" y2="33.32" class="st2"/></g><g><line x1="54.11" x2="56.29" y1="33.32" y2="33.32" class="st2"/></g><g><line x1="44.1" x2="52.7" y1="37.65" y2="37.65" class="st2"/></g><g><line x1="54.11" x2="56.29" y1="37.65" y2="37.65" class="st2"/></g></g><g><path d="M62.53,19.53v22.22c0,0.67-0.53,1.22-1.19,1.22H36.02c-0.65,0-1.19-0.54-1.19-1.22V19.53 c0-0.94,0.76-1.7,1.7-1.7h24.29C61.77,17.83,62.53,18.59,62.53,19.53z" class="st2"/></g></g><g><g><path d="M63.97,23.4h-27.7v-1.41c0-1.66,1.34-3,3-3h21.7c1.66,0,3,1.34,3,3V23.4z" class="st6"/><path d="M63.97,23.74h-27.7c-0.19,0-0.34-0.15-0.34-0.34v-2.71c0-1.13,0.92-2.04,2.04-2.04h24.29 c1.13,0,2.04,0.92,2.04,2.04v2.71C64.31,23.59,64.16,23.74,63.97,23.74z M36.62,23.06h27.01v-2.37c0-0.75-0.61-1.36-1.36-1.36 H37.98c-0.75,0-1.36,0.61-1.36,1.36V23.06z" class="st1"/></g><g><path d="M63.97,22.88h-9.98v-3.89h6.98c1.66,0,3,1.34,3,3V22.88z" class="st0"/><path d="M63.97,23.22h-9.98c-0.19,0-0.34-0.15-0.34-0.34v-3.89c0-0.19,0.15-0.34,0.34-0.34h8.28 c1.13,0,2.04,0.92,2.04,2.04v2.19C64.31,23.07,64.16,23.22,63.97,23.22z M54.33,22.54h9.3v-1.85c0-0.75-0.61-1.36-1.36-1.36 h-7.94V22.54z" class="st1"/></g><g><g><path d="M63.97,34.85V22.88h-27.7v20.04c0,0.67,0.53,1.22,1.19,1.22h25.32c0.66,0,1.19-0.55,1.19-1.22v-3.06" class="st2"/><path d="M62.78,44.47H37.47c-0.84,0-1.53-0.7-1.53-1.56V22.88c0-0.19,0.15-0.34,0.34-0.34h27.7 c0.19,0,0.34,0.15,0.34,0.34v11.97c0,0.19-0.15,0.34-0.34,0.34s-0.34-0.15-0.34-0.34V23.22H36.62v19.7 c0,0.48,0.38,0.88,0.85,0.88h25.32c0.47,0,0.85-0.39,0.85-0.88v-3.06c0-0.19,0.15-0.34,0.34-0.34s0.34,0.15,0.34,0.34v3.06 C64.31,43.77,63.63,44.47,62.78,44.47z" class="st1"/></g><g><line x1="63.97" x2="63.97" y1="38.22" y2="36.36" class="st2"/><path d="M63.97,38.56c-0.19,0-0.34-0.15-0.34-0.34v-1.86c0-0.19,0.15-0.34,0.34-0.34s0.34,0.15,0.34,0.34v1.86 C64.31,38.41,64.16,38.56,63.97,38.56z" class="st1"/></g></g><g><g><g><path d="M45,31.15l-0.49-2.16l-0.49,2.16h-1.21l-1.09-3.8h1.29l0.49,2.33l0.58-2.33h0.87l0.58,2.33L46,27.34h1.29 l-1.09,3.8H45z" class="st7"/><path d="M50.65,31.15l-0.49-2.16l-0.49,2.16h-1.21l-1.09-3.8h1.29l0.49,2.33l0.58-2.33h0.87l0.58,2.33l0.48-2.33 h1.29l-1.09,3.8H50.65z" class="st7"/><path d="M56.29,31.15l-0.49-2.16l-0.49,2.16H54.1l-1.09-3.8h1.29l0.49,2.33l0.58-2.33h0.87l0.58,2.33l0.48-2.33 h1.29l-1.09,3.8H56.29z" class="st7"/></g><g><path d="M45,31.15l-0.49-2.16l-0.49,2.16h-1.21l-1.09-3.8h1.29l0.49,2.33l0.58-2.33h0.87l0.58,2.33L46,27.34h1.29 l-1.09,3.8H45z" class="st1"/><path d="M50.65,31.15l-0.49-2.16l-0.49,2.16h-1.21l-1.09-3.8h1.29l0.49,2.33l0.58-2.33h0.87l0.58,2.33l0.48-2.33 h1.29l-1.09,3.8H50.65z" class="st1"/><path d="M56.29,31.15l-0.49-2.16l-0.49,2.16H54.1l-1.09-3.8h1.29l0.49,2.33l0.58-2.33h0.87l0.58,2.33l0.48-2.33 h1.29l-1.09,3.8H56.29z" class="st1"/></g></g><g><rect width="2.63" height="2.63" x="41.79" y="33.66" class="st2"/><path d="M44.41,36.62h-2.63c-0.19,0-0.34-0.15-0.34-0.34v-2.63c0-0.19,0.15-0.34,0.34-0.34h2.63 c0.19,0,0.34,0.15,0.34,0.34v2.63C44.75,36.47,44.6,36.62,44.41,36.62z M42.13,35.94h1.95V34h-1.95V35.94z" class="st1"/></g><g><path d="M54.4,35.36h-8.6c-0.19,0-0.34-0.15-0.34-0.34c0-0.19,0.15-0.34,0.34-0.34h8.6c0.19,0,0.34,0.15,0.34,0.34 C54.74,35.21,54.59,35.36,54.4,35.36z" class="st1"/></g><g><path d="M58,35.36h-2.18c-0.19,0-0.34-0.15-0.34-0.34c0-0.19,0.15-0.34,0.34-0.34H58c0.19,0,0.34,0.15,0.34,0.34 C58.34,35.21,58.19,35.36,58,35.36z" class="st1"/></g><g><rect width="2.63" height="2.63" x="41.79" y="37.99" class="st2"/><path d="M44.41,40.96h-2.63c-0.19,0-0.34-0.15-0.34-0.34v-2.63c0-0.19,0.15-0.34,0.34-0.34h2.63 c0.19,0,0.34,0.15,0.34,0.34v2.63C44.75,40.81,44.6,40.96,44.41,40.96z M42.13,40.28h1.95v-1.95h-1.95V40.28z" class="st1"/></g><g><path d="M54.4,39.7h-8.6c-0.19,0-0.34-0.15-0.34-0.34s0.15-0.34,0.34-0.34h8.6c0.19,0,0.34,0.15,0.34,0.34 S54.59,39.7,54.4,39.7z" class="st1"/></g><g><path d="M58,39.7h-2.18c-0.19,0-0.34-0.15-0.34-0.34s0.15-0.34,0.34-0.34H58c0.19,0,0.34,0.15,0.34,0.34 S58.19,39.7,58,39.7z" class="st1"/></g></g><g><circle cx="56.17" cy="20.93" r=".5" class="st1"/></g><g><circle cx="58.98" cy="20.93" r=".5" class="st1"/></g><g><circle cx="61.8" cy="20.93" r=".5" class="st1"/></g></g><g><g><path d="M69.12,66.77H10.48c-1.44,0-2.6-1.16-2.6-2.6V45.34c0-1.44,1.16-2.6,2.6-2.6h58.64c1.44,0,2.6,1.16,2.6,2.6 v18.83C71.72,65.6,70.56,66.77,69.12,66.77z" class="st6"/><path d="M70.25,67.11H9.35c-1,0-1.81-0.81-1.81-1.81V44.21c0-1,0.81-1.81,1.81-1.81h60.89c1,0,1.81,0.81,1.81,1.81 v21.08C72.06,66.29,71.25,67.11,70.25,67.11z M9.35,43.08c-0.63,0-1.13,0.51-1.13,1.13v21.08c0,0.63,0.51,1.13,1.13,1.13h60.89 c0.63,0,1.13-0.51,1.13-1.13V44.21c0-0.63-0.51-1.13-1.13-1.13H9.35z" class="st1"/></g><g><g><path d="M57.83,46.16H9.65c-0.98,0-1.78,0.66-1.78,1.47v17.66c0,0.81,0.8,1.47,1.78,1.47h60.29 c0.98,0,1.78-0.66,1.78-1.47V47.63c0-0.81-0.8-1.47-1.78-1.47h-2.7" class="st6"/><path d="M69.95,67.11H9.65c-1.17,0-2.12-0.81-2.12-1.81V47.63c0-1,0.95-1.81,2.12-1.81h48.17 c0.19,0,0.34,0.15,0.34,0.34s-0.15,0.34-0.34,0.34H9.65c-0.79,0-1.44,0.51-1.44,1.13v17.66c0,0.63,0.64,1.13,1.44,1.13h60.29 c0.79,0,1.44-0.51,1.44-1.13V47.63c0-0.63-0.64-1.13-1.44-1.13h-2.7c-0.19,0-0.34-0.15-0.34-0.34s0.15-0.34,0.34-0.34h2.7 c1.17,0,2.12,0.81,2.12,1.81v17.66C72.06,66.29,71.11,67.11,69.95,67.11z" class="st1"/></g><g><line x1="64.4" x2="60.67" y1="46.16" y2="46.16" class="st6"/><path d="M64.4,46.5h-3.74c-0.19,0-0.34-0.15-0.34-0.34s0.15-0.34,0.34-0.34h3.74c0.19,0,0.34,0.15,0.34,0.34 S64.59,46.5,64.4,46.5z" class="st1"/></g></g><g><path d="M50.6,58.99H29.01c-1.4,0-2.53-1.13-2.53-2.53v0c0-1.4,1.13-2.53,2.53-2.53H50.6c1.4,0,2.53,1.13,2.53,2.53 v0C53.12,57.86,51.99,58.99,50.6,58.99z" class="st5"/><path d="M50.6,59.33H29.01c-1.58,0-2.87-1.29-2.87-2.87c0-1.58,1.29-2.87,2.87-2.87H50.6c1.58,0,2.87,1.29,2.87,2.87 C53.46,58.04,52.18,59.33,50.6,59.33z M29.01,54.27c-1.21,0-2.19,0.98-2.19,2.19c0,1.21,0.98,2.19,2.19,2.19H50.6 c1.21,0,2.19-0.98,2.19-2.19c0-1.21-0.98-2.19-2.19-2.19H29.01z" class="st4"/></g></g><g><g><circle cx="39.8" cy="56.46" r="7.18" class="st2"/><path d="M39.8,63.98c-4.15,0-7.52-3.37-7.52-7.52s3.37-7.52,7.52-7.52c4.15,0,7.52,3.37,7.52,7.52 S43.95,63.98,39.8,63.98z M39.8,49.62c-3.77,0-6.84,3.07-6.84,6.84c0,3.77,3.07,6.84,6.84,6.84c3.77,0,6.84-3.07,6.84-6.84 C46.64,52.69,43.57,49.62,39.8,49.62z" class="st4"/></g><g><circle cx="39.8" cy="56.46" r="5.45" class="st5"/></g><g><path d="M38.89,58.1l-0.63-1.05l-0.63,1.05H36.4l1.15-1.77l-1.07-1.68h1.22l0.56,0.98l0.55-0.98h1.23l-1.07,1.67 l1.15,1.77H38.89z" class="st4"/><path d="M40.24,58.1v-0.81c1.58-1.11,1.73-1.24,1.73-1.5c0-0.17-0.18-0.27-0.4-0.27c-0.37,0-0.65,0.13-0.91,0.36 l-0.57-0.69c0.4-0.42,0.98-0.58,1.46-0.58c0.89,0,1.48,0.5,1.48,1.19c0,0.47-0.27,0.86-1.09,1.4h1.12v0.91H40.24z" class="st4"/></g></g></g></svg>