<svg id="Layer_1" data-name="Layer 1" xmlns="http://www.w3.org/2000/svg" viewBox="0 0 771.47 184.21">
    <defs>
        <style>.cls-1,.cls-2{fill:#fff;}.cls-2{font-size:93px;font-family:NokiaLarge-Bold, Nokia
            Large;font-weight:700;letter-spacing:0.1em;}
        </style>
    </defs>
    <title>logo-hostvn-white</title>
    <path class="cls-1"
          d="M54.6,188.7c3-4.9,19.7-15.8,25.2-7.5,8.9,13.6,35.6,10.3,48.7,10.1-14.7,7.9-31.3,8.5-48,8.7C68.4,200.2,56.3,197,54.6,188.7Z"
          transform="translate(-0.05 -15.9)"/>
    <path class="cls-1"
          d="M153.2,63.7c20.5,11.8-61.9,31.3-133,40.2-23.3,2.9-29.8,43.9-1.1,53.9-32.4-19.7,116.6-21.7,147-44C179.9,103.6,190.8,77.7,153.2,63.7Z"
          transform="translate(-0.05 -15.9)"/>
    <path class="cls-1"
          d="M173.5,138.1c-1.9,24.3-107.1,1.5-128.8,34.9-4.1,6.2-2.2,13.5,1,16.4,4.8,4.4,16.1,10.1,26.7,10.1-14.7-6,48.2-16.6,66-20.2C157.8,175.4,175.6,148.8,173.5,138.1Z"
          transform="translate(-0.05 -15.9)"/>
    <path class="cls-1"
          d="M105.4,32.6a2.47,2.47,0,0,1-2.1,1.6H88.6c-.9,0-1.3-.7-1-1.6l5.1-15.1a2.47,2.47,0,0,1,2.1-1.6h14.7c.9,0,1.3.7,1,1.6Z"
          transform="translate(-0.05 -15.9)"/>
    <path class="cls-1"
          d="M92.5,61.9a2.69,2.69,0,0,1-2.4,1.8H73.4a1.26,1.26,0,0,1-1.2-1.8L78,44.7a2.69,2.69,0,0,1,2.4-1.8H97.1a1.26,1.26,0,0,1,1.2,1.8Z"
          transform="translate(-0.05 -15.9)"/>
    <path class="cls-1"
          d="M117.1,56.9a1.71,1.71,0,0,1-1.6,1.2H104.6a.85.85,0,0,1-.8-1.2l3.8-11.2a1.71,1.71,0,0,1,1.6-1.2h10.9a.85.85,0,0,1,.8,1.2Z"
          transform="translate(-0.05 -15.9)"/>
    <path class="cls-1"
          d="M138.3,51.1a1.85,1.85,0,0,1-1.5,1.2H126.3c-.6,0-.9-.5-.7-1.2l3.7-10.7a1.85,1.85,0,0,1,1.5-1.2h10.5c.6,0,.9.5.7,1.2Z"
          transform="translate(-0.05 -15.9)"/>
    <path class="cls-1"
          d="M146.4,34.8a1.74,1.74,0,0,1-1.5,1.1H134.6c-.6,0-.9-.5-.7-1.1l3.6-10.6a1.74,1.74,0,0,1,1.5-1.1h10.3c.6,0,.9.5.7,1.1Z"
          transform="translate(-0.05 -15.9)"/>
    <path class="cls-1"
          d="M157.2,43.3a1.4,1.4,0,0,1-1.2.9h-8.1c-.5,0-.7-.4-.6-.9l2.8-8.3a1.4,1.4,0,0,1,1.2-.9h8.1c.5,0,.7.4.6.9Z"
          transform="translate(-0.05 -15.9)"/>
    <path class="cls-1" d="M173.4,23.4a1,1,0,0,1-.9.7h-6.3c-.4,0-.6-.3-.4-.7L168,17a1,1,0,0,1,.9-.7h6.3c.4,0,.6.3.4.7Z"
          transform="translate(-0.05 -15.9)"/>
    <path class="cls-1"
          d="M160.3,30.9a1.4,1.4,0,0,1-1.2.9H151c-.5,0-.7-.4-.6-.9l2.8-8.4a1.4,1.4,0,0,1,1.2-.9h8.1c.5,0,.7.4.6.9Z"
          transform="translate(-0.05 -15.9)"/>
    <path class="cls-1"
          d="M128.1,34.3a2.15,2.15,0,0,1-1.9,1.4H113.4c-.8,0-1.2-.6-.9-1.4L117,21.1a2.15,2.15,0,0,1,1.9-1.4h12.8c.8,0,1.2.6.9,1.4Z"
          transform="translate(-0.05 -15.9)"/>
    <path class="cls-1"
          d="M72.3,20.5C34.7,29,8.8,51.3,2.7,84.2,6.6,72.8,36.5,66.4,60.5,63.7c3.9-12.6,9.9-32.6,13.4-43.5Z"
          transform="translate(-0.05 -15.9)"/>
    <path class="cls-1"
          d="M69.3,61.6c.1-.4.5-1.7.9-3l4.3-12.5a13.23,13.23,0,0,1,2.3-4.2c.8-1,4.8-1.9,6.2-1.9H94.8a26.26,26.26,0,0,1,4.8.6s.3.1,1,1.1a3.34,3.34,0,0,1,.8,1.6,27.34,27.34,0,0,1-1,4.8L96.9,58c-.4,1.3.3,2,1.6,1.7l.5-.1c1.3-.4,2.3-1.1,2.1-1.6a19.38,19.38,0,0,1,.9-4.3l2.2-6.5a14.31,14.31,0,0,1,2-3.9c.7-.9,4.2-1.6,5.6-1.6h5.6c1.3,0,2.5-.7,2.5-1.5s-1-1.5-2.4-1.5h-1.6a26.26,26.26,0,0,1-4.8-.6s-.1,0-.8-1-.7-1.2-.7-1.2a27.34,27.34,0,0,1,1-4.8l1.3-3.8c.4-1.3.5-2.5.2-2.8s-1,.6-1.4,1.9L109,31.3a14.69,14.69,0,0,1-2.2,4.1c-.8,1-4.6,1.8-6,1.8H91a26.26,26.26,0,0,1-4.8-.6s-.2,0-.9-1.1-.7-1.4-.7-1.4a27.34,27.34,0,0,1,1-4.8l2.9-8.6c.4-1.3-.3-2.2-1.6-2L75.8,20a15,15,0,0,0-3,.6,10.6,10.6,0,0,0-1.5,3.2L59.6,60.5a20.83,20.83,0,0,0-.7,2.8c0,.3,1.8.3,3.1.2l4.8-.5,2.4-.2A6.25,6.25,0,0,1,69.3,61.6Z"
          transform="translate(-0.05 -15.9)"/>
    <path class="cls-1"
          d="M221.6,161.1h5.8v13.4h.1c.5-1.2,1-2.6,1.5-3.9l4-9.6h6.4l-6.7,13,6.8,16.9h-6.3l-4.3-12.4-1.3,2.4v9.9h-5.8V161.1Z"
          transform="translate(-0.05 -15.9)"/>
    <path class="cls-1"
          d="M257.9,177.8h-6.8v8.1h7.7V191H245.3V161.1h13v5.1h-7.2v6.9h6.8Zm-4-23.2,3.3,4.9h-3.8l-1.5-2.4h-.1l-1.5,2.4h-3.7l3.2-4.9Zm9.3-3.7-4.9,5.1h-2.9l2.7-5.1Z"
          transform="translate(-0.05 -15.9)"/>
    <path class="cls-1" d="M269.3,166.4H264V161h16.4v5.4h-5.3V191h-5.8V166.4Z" transform="translate(-0.05 -15.9)"/>
    <path class="cls-1"
          d="M297.2,191V161.1h5.3l4.6,11.7c.9,2.3,2.4,6.2,3.2,8.7h.1c-.2-3.1-.6-8.3-.6-13.8v-6.6h5.1V191h-5.3L305,179.6a67.84,67.84,0,0,1-3-9h0c.1,3,.4,7.6.4,13.6v6.7h-5.2Z"
          transform="translate(-0.05 -15.9)"/>
    <path class="cls-1"
          d="M341.1,175.5c0,11.3-4,15.8-9.7,15.8-6.8,0-9.5-7.2-9.5-15.4s3.2-15.2,9.9-15.2C339.1,160.7,341.1,168.6,341.1,175.5ZM334,154.6l3.3,4.9h-3.9L332,157h-.1l-1.5,2.4h-3.7l3.1-4.9H334ZM328,176c0,6.8,1.3,10.2,3.6,10.2s3.4-4.4,3.4-10.5c0-5.2-.8-10-3.4-10C329.3,165.8,328,169.6,328,176Zm15.3-25.1-4.9,5.1h-2.9l2.7-5.1Z"
          transform="translate(-0.05 -15.9)"/>
    <path class="cls-1" d="M354,161.1V191h-5.8V161.1Z" transform="translate(-0.05 -15.9)"/>
    <path class="cls-1"
          d="M387.2,190.5a11.63,11.63,0,0,1-4.5.7c-7.6,0-11.3-6.3-11.3-14.8,0-11.3,6.3-15.7,12.1-15.7a7.7,7.7,0,0,1,4,.8l-1,4.9a6,6,0,0,0-2.7-.6c-3.3,0-6.3,2.8-6.3,10.2,0,7.1,2.7,9.9,6.3,9.9a11.08,11.08,0,0,0,2.8-.4Z"
          transform="translate(-0.05 -15.9)"/>
    <path class="cls-1"
          d="M410.8,175.5c0,11.3-4,15.8-9.7,15.8-6.8,0-9.5-7.2-9.5-15.4s3.2-15.2,9.9-15.2C408.8,160.7,410.8,168.6,410.8,175.5Zm-7.3-20.9,3.8,4.9H403l-1.7-2.3h-.1l-1.7,2.3h-4.1l3.6-4.9ZM397.8,176c0,6.8,1.3,10.2,3.6,10.2s3.4-4.4,3.4-10.5c0-5.2-.8-10-3.4-10C399,165.8,397.8,169.6,397.8,176Z"
          transform="translate(-0.05 -15.9)"/>
    <path class="cls-1"
          d="M417.9,191V161.1h5.3l4.6,11.7c.9,2.3,2.4,6.2,3.2,8.7h.1c-.2-3.1-.6-8.3-.6-13.8v-6.6h5.1V191h-5.3l-4.6-11.4a67.84,67.84,0,0,1-3-9h-.1c.1,3,.4,7.6.4,13.6v6.7h-5.1Z"
          transform="translate(-0.05 -15.9)"/>
    <path class="cls-1"
          d="M460.7,190.2a20.29,20.29,0,0,1-6.2,1.1,10.71,10.71,0,0,1-8-3c-2.6-2.5-3.9-6.9-3.9-12.1.1-10.9,6.3-15.4,12.7-15.4a11.17,11.17,0,0,1,4.9.9l-1,5a7.84,7.84,0,0,0-3.4-.7c-3.9,0-7.1,2.7-7.1,10.5,0,7.2,2.8,9.8,5.5,9.8a4.12,4.12,0,0,0,1.2-.1V179h-2.7v-4.7h8Z"
          transform="translate(-0.05 -15.9)"/>
    <path class="cls-1"
          d="M478.7,191V161.1H484l4.6,11.7c.9,2.3,2.4,6.2,3.2,8.7h.1c-.2-3.1-.6-8.3-.6-13.8v-6.6h5.1V191h-5.3l-4.6-11.4a67.84,67.84,0,0,1-3-9h-.1c.1,3,.4,7.6.4,13.6v6.7h-5.1Z"
          transform="translate(-0.05 -15.9)"/>
    <path class="cls-1"
          d="M521.6,190.2a20.29,20.29,0,0,1-6.2,1.1,10.71,10.71,0,0,1-8-3c-2.6-2.5-3.9-6.9-3.9-12.1.1-10.9,6.3-15.4,12.7-15.4a11.17,11.17,0,0,1,4.9.9l-1,5a7.84,7.84,0,0,0-3.4-.7c-3.9,0-7.1,2.7-7.1,10.5,0,7.2,2.8,9.8,5.5,9.8a4.12,4.12,0,0,0,1.2-.1V179h-2.7v-4.7h8Z"
          transform="translate(-0.05 -15.9)"/>
    <path class="cls-1" d="M535,161.1v12h6.1v-12h5.8V191h-5.8V178.5H535V191h-5.8V161.1Z"
          transform="translate(-0.05 -15.9)"/>
    <path class="cls-1"
          d="M568.1,177.8h-6.8v8.1H569V191H555.5V161.1h13v5.1h-7.2v6.9h6.8ZM564,154.6l3.7,4.9h-4.3l-1.7-2.3h-.1l-1.7,2.3h-4.1l3.6-4.9Zm-5,42.7a2.8,2.8,0,1,1,2.8,2.8A2.68,2.68,0,0,1,559,197.3Z"
          transform="translate(-0.05 -15.9)"/>
    <path class="cls-1" d="M589.4,166.4h-5.3V161h16.4v5.4h-5.3V191h-5.8V166.4Z" transform="translate(-0.05 -15.9)"/>
    <path class="cls-1"
          d="M627.2,156.5a9.24,9.24,0,0,1,.9,3.8,3.81,3.81,0,0,1-3.5,4.1h-.5v15c0,7.7-2.9,11.8-8.7,11.8-6.3,0-8.7-4.3-8.7-11.8V160.9h5.8v19.4c0,4.4,1.3,5.7,2.8,5.7,1.7,0,2.9-1.2,2.9-5.7V160.9h4.2c1,0,1.5-.2,1.5-1.2a5.66,5.66,0,0,0-.8-2.8Z"
          transform="translate(-0.05 -15.9)"/>
    <path class="cls-1"
          d="M652.2,158.2a8.19,8.19,0,0,1,.9,3.8c0,2.4-1.2,3.9-3.4,4.3a23,23,0,0,1,1.6,9.2c0,11.3-4,15.8-9.7,15.8-6.8,0-9.5-7.2-9.5-15.4s3.2-15.2,9.9-15.2a7.45,7.45,0,0,1,3.5.8c1.5.8,2.1,1.4,2.6,1.4s.8-.4.8-1.1a7.5,7.5,0,0,0-.9-3Zm-6.9,17.5c0-5.2-.8-10-3.4-10s-3.6,4.7-3.6,10.1c0,5.9,1,10.4,3.6,10.4C644.3,186.3,645.3,181.8,645.3,175.7Z"
          transform="translate(-0.05 -15.9)"/>
    <path class="cls-1"
          d="M658.4,191V161.1h5.3l4.6,11.7c.9,2.3,2.4,6.2,3.2,8.7h.1c-.2-3.1-.6-8.3-.6-13.8v-6.6h5.1V191h-5.3l-4.6-11.4a67.84,67.84,0,0,1-3-9h-.1c.1,3,.4,7.6.4,13.6v6.7h-5.1Z"
          transform="translate(-0.05 -15.9)"/>
    <path class="cls-1"
          d="M701.2,190.2a20.29,20.29,0,0,1-6.2,1.1,10.71,10.71,0,0,1-8-3c-2.6-2.5-3.9-6.9-3.9-12.1.1-10.9,6.3-15.4,12.7-15.4a11.17,11.17,0,0,1,4.9.9l-1,5a7.84,7.84,0,0,0-3.4-.7c-3.9,0-7.1,2.7-7.1,10.5,0,7.2,2.8,9.8,5.5,9.8a4.12,4.12,0,0,0,1.2-.1V179h-2.7v-4.7h8Z"
          transform="translate(-0.05 -15.9)"/>
    <path class="cls-1" d="M719.3,161.1h5.8v25h7.7V191H719.3Z" transform="translate(-0.05 -15.9)"/>
    <path class="cls-1"
          d="M744.5,184.1l-1.3,6.8h-5.6l6.5-29.9h7l5.8,29.9h-5.6l-1.3-6.8Zm4.9-4.5-1-6.3c-.3-1.8-.7-4.8-1-6.8h-.1c-.3,2-.8,5.1-1.1,6.8l-1.1,6.2h4.3Z"
          transform="translate(-0.05 -15.9)"/>
    <path class="cls-1" d="M769.3,161.1V191h-5.8V161.1Z" transform="translate(-0.05 -15.9)"/>
    <path class="cls-1"
          d="M26,139.42,23.2,105.33l8.53-.69,1,12.08,9-.73-1-12.08,8.43-.68,2.75,34.1-8.43.68-1.11-13.75-9,.73,1.11,13.77-8.53.69Z"
          transform="translate(-0.05 -15.9)"/>
    <path class="cls-1" d="M76.73,106.8l2.12,26.39-8.54.69-2.13-26.39-7.39.59-.65-8,23.3-1.88.65,8Z"
          transform="translate(-0.05 -15.9)"/>
    <path class="cls-1"
          d="M125.3,89.36l-4.92,28.29a15.36,15.36,0,0,1-1.87,5.73,6.15,6.15,0,0,1-5,2.93,6.3,6.3,0,0,1-5.43-2.09,15.46,15.46,0,0,1-2.8-5.35L95.9,91.72l8.76-.7,6.17,18.28q.73,2.22,1.81,6.14c.12-1.39.39-3.51.74-6.34l3.16-19Z"
          transform="translate(-0.05 -15.9)"/>
    <path class="cls-1"
          d="M143,116l-6.26-30.22a7,7,0,0,1,.41-4.67,5,5,0,0,1,3.71-2.69,5.87,5.87,0,0,1,4.53.87,21.47,21.47,0,0,1,3.42,3.31l6.44,7.53a50.13,50.13,0,0,1,5.27,7.08c-1.35-4.48-2.25-7.78-2.7-9.93l-2.3-11.12,8.59-1.78,6.52,31.41a5.25,5.25,0,0,1-.47,3.73,4.25,4.25,0,0,1-3,2,4.92,4.92,0,0,1-3.64-.6,13.88,13.88,0,0,1-2.82-2.61L151.1,97.22q-2.19-2.53-2.93-3.45a34.38,34.38,0,0,1-2.58-3.7,90,90,0,0,1,3.42,11.5l2.62,12.62L143,116Z"
          transform="translate(-0.05 -15.9)"/>
    <text class="cls-2" transform="translate(229.03 101.73)">HTVIETNAM</text>
</svg>
