<?xml version="1.0" encoding="utf-8"?>
<!-- Generator: Adobe Illustrator 16.0.0, SVG Export Plug-In . SVG Version: 6.00 Build 0)  -->
<!DOCTYPE svg PUBLIC "-//W3C//DTD SVG 1.0//EN" "http://www.w3.org/TR/2001/REC-SVG-20010904/DTD/svg10.dtd">
<svg version="1.0" id="Layer_1" xmlns="http://www.w3.org/2000/svg" x="0px" y="0px"
     width="800px" height="800px" viewBox="0 0 800 800" enable-background="new 0 0 800 800" xml:space="preserve">
<g>
	<path fill="#E4F2FC" d="M713.793,385.781c0,173.813-140.904,314.71-314.714,314.71c-173.806,0-314.71-140.897-314.71-314.71
		c0-173.809,140.905-314.714,314.71-314.714C572.889,71.067,713.793,211.972,713.793,385.781"/>
</g>
    <g>
	<path fill="#FFFFFF" d="M612.352,385.781c0,117.783-95.486,213.272-213.27,213.272c-117.79,0-213.275-95.489-213.275-213.272
		c0-117.787,95.485-213.266,213.275-213.266C516.865,172.516,612.352,267.994,612.352,385.781"/>
</g>
    <g>
	<path fill="#2887C8" d="M704.755,311.416c-0.337,0-0.644-0.229-0.728-0.571c-12.776-51.935-38.957-100.167-75.71-139.482
		c-0.283-0.303-0.267-0.777,0.036-1.06c0.302-0.283,0.776-0.267,1.06,0.036c36.928,39.502,63.233,87.965,76.071,140.148
		c0.099,0.402-0.147,0.809-0.55,0.908C704.875,311.409,704.814,311.416,704.755,311.416z"/>
</g>
    <g>
	<path fill="#2887C8" d="M663.972,555.524c-0.138,0-0.276-0.038-0.401-0.117c-0.35-0.222-0.453-0.686-0.23-1.035
		c36.565-57.519,53.89-126.001,48.781-192.833c-0.031-0.413,0.278-0.773,0.69-0.805c0.413-0.029,0.773,0.277,0.806,0.691
		c5.133,67.152-12.273,135.961-49.012,193.751C664.463,555.401,664.22,555.524,663.972,555.524z"/>
</g>
    <g>
	<path fill="#2887C8" d="M402.159,700.024c-9.141,0-18.289-0.402-27.442-1.209c-0.413-0.036-0.718-0.4-0.681-0.813
		c0.036-0.413,0.398-0.715,0.813-0.682c73.847,6.51,147.145-13.334,206.379-55.867c0.338-0.24,0.806-0.164,1.047,0.172
		c0.241,0.337,0.164,0.805-0.172,1.047c-29.587,21.245-62.783,36.912-98.668,46.565
		C456.758,696.416,429.519,700.024,402.159,700.024z"/>
</g>
    <g>
	<path fill="#2887C8" d="M320.846,689.282c-0.065,0-0.13-0.008-0.196-0.026c-8.354-2.255-16.685-4.878-24.761-7.796
		c-0.39-0.141-0.591-0.57-0.451-0.96s0.57-0.591,0.96-0.45c8.037,2.903,16.328,5.514,24.642,7.759c0.4,0.107,0.637,0.52,0.529,0.919
		C321.479,689.063,321.177,689.282,320.846,689.282z"/>
</g>
    <g>
	<path fill="#2887C8" d="M265.598,668.601c-0.11,0-0.222-0.024-0.328-0.075c-71.791-34.953-129.496-97.178-158.321-170.718
		c-0.151-0.386,0.039-0.82,0.424-0.972c0.385-0.15,0.821,0.038,0.972,0.425c28.689,73.193,86.125,135.125,157.581,169.915
		c0.373,0.182,0.527,0.631,0.346,1.003C266.143,668.445,265.876,668.601,265.598,668.601z"/>
</g>
    <g>
	<path fill="#2887C8" d="M89.237,426.715c-0.371,0-0.693-0.275-0.743-0.652c-6.061-46.308-1.538-94.26,13.081-138.671
		c20.087-61.017,59.996-113.843,115.413-152.766C270.33,97.16,335.127,75.633,399.442,74.01c0.406-0.007,0.758,0.317,0.769,0.731
		c0.01,0.414-0.317,0.758-0.731,0.769C264.959,78.903,143.042,166.225,103,287.86c-14.549,44.199-19.051,91.921-13.019,138.007
		c0.054,0.411-0.236,0.787-0.646,0.841C89.302,426.713,89.269,426.715,89.237,426.715z"/>
</g>
    <g>
	<path fill="#2887C8" d="M577.608,127.396c-0.146,0-0.294-0.042-0.424-0.132c-37.178-25.534-80.993-42.426-126.709-48.852
		c-0.41-0.058-0.696-0.437-0.639-0.847s0.446-0.694,0.848-0.638c45.944,6.458,89.98,23.437,127.35,49.101
		c0.341,0.234,0.428,0.701,0.193,1.043C578.082,127.283,577.848,127.396,577.608,127.396z"/>
</g>
    <g>
	<path fill="#2887C8" d="M659.311,112.973c-0.186,0-0.371-0.068-0.517-0.206c-9.393-8.914-19.313-17.427-29.483-25.306
		c-0.328-0.253-0.388-0.725-0.134-1.052c0.253-0.326,0.724-0.388,1.052-0.133c10.211,7.909,20.169,16.456,29.599,25.403
		c0.3,0.285,0.313,0.76,0.027,1.06C659.707,112.895,659.509,112.973,659.311,112.973z"/>
</g>
    <g>
	<path fill="#2887C8" d="M744.967,236.117c-0.29,0-0.566-0.169-0.688-0.454c-8.748-20.315-19.307-39.908-31.383-58.234
		c-0.229-0.346-0.133-0.811,0.213-1.039c0.348-0.228,0.813-0.132,1.039,0.214c12.125,18.399,22.726,38.07,31.508,58.467
		c0.164,0.38-0.012,0.821-0.392,0.985C745.167,236.098,745.066,236.117,744.967,236.117z"/>
</g>
    <g>
	<path fill="#2887C8" d="M747.082,531.896c-0.097,0-0.194-0.019-0.289-0.058c-0.382-0.16-0.563-0.6-0.403-0.981
		c28.688-68.676,36.231-143.963,21.815-217.723c-0.079-0.407,0.186-0.801,0.593-0.88c0.399-0.083,0.8,0.185,0.88,0.592
		c7.138,36.521,8.887,73.839,5.2,110.918c-3.705,37.261-12.824,73.486-27.104,107.671
		C747.654,531.724,747.375,531.896,747.082,531.896z"/>
</g>
    <g>
	<path fill="#2887C8" d="M411.024,761.589c-0.401,0-0.733-0.318-0.748-0.723c-0.016-0.414,0.308-0.762,0.722-0.777
		c114.945-4.189,223.707-60.64,290.938-151.005c0.247-0.332,0.717-0.404,1.049-0.154c0.333,0.247,0.401,0.717,0.154,1.049
		c-33.148,44.557-77.754,82.076-128.992,108.503c-50.721,26.16-107.118,41.066-163.094,43.106
		C411.043,761.589,411.034,761.589,411.024,761.589z"/>
</g>
    <g>
	<path fill="#2887C8" d="M311.79,751.849c-0.057,0-0.114-0.006-0.172-0.02c-62.216-14.629-119.987-44.896-167.068-87.531
		c-42.296-38.302-74.126-85.253-94.604-139.549C30.708,473.746,22.463,417.301,26.1,361.514
		c3.664-56.19,19.358-111.575,45.387-160.167c27.662-51.639,65.65-94.416,112.911-127.144c0.339-0.235,0.807-0.151,1.043,0.189
		c0.236,0.341,0.151,0.808-0.19,1.044C92.741,139.501,35.278,243.808,27.597,361.611c-7.62,116.868,35.375,226.788,117.96,301.575
		c46.893,42.465,104.435,72.612,166.404,87.182c0.403,0.095,0.653,0.499,0.559,0.902C312.438,751.616,312.13,751.849,311.79,751.849
		z"/>
</g>
    <g>
	<path fill="#2887C8" d="M236.492,438.049V419.93c44.164-32.678,57.106-43.678,57.106-56.944c0-9.544-8.574-14.074-17.472-14.074
		c-12.294,0-21.678,4.853-28.958,12.457l-13.104-15.207c10.515-12.133,26.531-17.633,41.576-17.633
		c23.134,0,41.252,12.942,41.252,34.458c0,18.442-15.207,34.458-43.193,54.841h44.002v20.222H236.492z"/>
        <path fill="#2887C8" d="M381.605,438.049v-22.324H330v-18.119l42.87-67.459h31.708v65.356h13.913v20.222h-13.913v22.324H381.605z
		 M381.605,350.529l-29.119,44.973h29.119V350.529z"/>
</g>
    <g>
	<path fill="#2887C8" d="M422.541,441.284l38.34-114.374h20.222l-38.341,114.374H422.541z"/>
</g>
    <g>
	<path fill="#2887C8" d="M500.682,438.049l38.664-87.681H484.99v-20.222h81.048v16.015l-40.12,91.888H500.682z"/>
</g>
    <g>
	<path fill="#2887C8" d="M153.903,346.017l-35.974-6.308l1.249-6.792l35.903,6.305C154.665,341.509,154.249,343.729,153.903,346.017
		 M438.758,140.586c2.289,0.345,4.576,0.761,6.863,1.178l6.309-35.903l-6.795-1.245L438.758,140.586z M532.674,168.238
		l22.799-39.504l3.537-6.102c1.732-3.117,0.9-6.999-1.939-9.009c-0.211-0.207-0.416-0.346-0.627-0.484
		c-0.277-0.139-0.482-0.277-0.762-0.277c0,0,0-0.071-0.066-0.071c-3.121-1.316-6.863-0.135-8.596,2.911l-3.533,6.169l-22.803,39.368
		l-6.932,12.062c4.088,2.146,8.037,4.501,11.99,6.931L532.674,168.238z M669.141,533.705l-6.168-3.537l-39.369-22.731v-0.071
		l-12.059-6.931c-2.148,4.088-4.504,8.041-6.93,11.99l11.99,6.931l39.506,22.803l6.1,3.533c1.109,0.626,2.287,0.903,3.465,0.903
		c2.217,0,4.434-1.109,5.682-3.12c0.139-0.139,0.211-0.206,0.277-0.345c0.072-0.139,0.139-0.21,0.139-0.349
		C673.506,539.525,672.328,535.505,669.141,533.705 M555.473,642.794l-22.799-39.507l-6.932-11.99
		c-3.953,2.427-7.902,4.785-11.99,6.931l6.932,12.062h0.066l22.736,39.365l3.533,6.169c1.248,2.217,3.604,3.466,5.959,3.466
		c0.904,0,1.732-0.139,2.637-0.555c0.277-0.068,0.551-0.274,0.828-0.417c0.139-0.067,0.277-0.135,0.416-0.277
		c2.982-1.939,3.953-5.96,2.15-9.147L555.473,642.794z M604.615,259.104c2.426,3.878,4.781,7.899,6.93,11.99l12.059-7.001
		l39.369-22.732l6.168-3.536c3.188-1.801,4.365-5.821,2.633-9.077c0-0.142-0.066-0.21-0.139-0.349
		c-0.066-0.139-0.139-0.207-0.277-0.349c-1.871-3.045-6.031-4.017-9.146-2.216l-6.1,3.536l-39.506,22.803L604.615,259.104z
		 M665.537,285.095l-34.309,12.474c0.832,2.149,1.664,4.298,2.357,6.515l34.377-12.474L665.537,285.095z M555.961,193.396
		c1.799,1.458,3.531,2.914,5.266,4.437l23.566-28.069l-5.27-4.437L555.961,193.396z M555.961,578.129l23.563,28.072l5.27-4.437
		l-23.566-28.072C559.492,575.219,557.76,576.674,555.961,578.129 M254.674,121.871l-3.533-6.169
		c-1.733-3.046-5.547-4.227-8.664-2.911c-0.071,0-0.139,0.071-0.139,0.071c-0.21,0.068-0.417,0.139-0.623,0.277
		c-0.139,0.068-0.277,0.207-0.416,0.346c-2.981,1.939-4.021,5.959-2.149,9.147l3.533,6.102l22.803,39.436l6.931,12.061
		c3.882-2.43,7.902-4.785,11.99-6.931l-6.931-12.062L254.674,121.871z M178.645,205.319l28.069,23.564
		c1.455-1.8,2.981-3.601,4.437-5.333l-28.068-23.567L178.645,205.319z M157.643,392.658c-0.068-2.285-0.068-4.644-0.068-6.931
		c0-2.284,0-4.643,0.068-6.931H91.248c-3.814,0-6.931,3.12-6.931,6.931c0,3.885,3.117,6.931,6.931,6.931H157.643z M298.409,652.22
		l6.515,2.426l12.478-34.306c-2.22-0.765-4.366-1.526-6.515-2.43L298.409,652.22z M587.01,547.979l28.068,23.567l4.438-5.341
		l-28.068-23.563C589.992,544.446,588.465,546.246,587.01,547.979 M193.546,512.425c-2.426-3.949-4.782-7.902-6.931-11.99
		l-12.061,6.931l-39.365,22.803l-6.169,3.537c-3.188,1.8-4.365,5.749-2.704,9.008c0,0.14,0.071,0.278,0.139,0.417
		c0.071,0.139,0.139,0.206,0.277,0.345c1.316,2.011,3.537,3.12,5.753,3.12c1.178,0,2.358-0.277,3.465-0.903l6.098-3.533
		l39.507-22.803L193.546,512.425z M619.516,205.319l-4.438-5.337l-28.068,23.567c1.455,1.733,2.982,3.533,4.438,5.333
		L619.516,205.319z M392.114,627.2v66.397c0,3.811,3.12,6.931,6.931,6.931c3.881,0,6.931-3.12,6.931-6.931V627.2
		c-2.288,0.07-4.644,0.07-6.931,0.07S394.401,627.271,392.114,627.2 M643.08,432.304l35.902,6.308l1.248-6.791l-35.971-6.376
		C643.912,427.732,643.496,430.016,643.08,432.304 M665.537,486.434l2.426-6.514l-34.377-12.479
		c-0.693,2.221-1.525,4.369-2.357,6.519L665.537,486.434z M130.197,479.92l2.359,6.514l34.377-12.474
		c-0.833-2.149-1.665-4.298-2.359-6.519L130.197,479.92z M129.019,237.824l6.169,3.536l39.365,22.732l12.061,7.001
		c2.149-4.091,4.505-8.112,6.931-11.99l-12.062-6.931l-39.436-22.803l-6.098-3.536c-3.188-1.801-7.276-0.829-9.219,2.216
		c-0.139,0.142-0.207,0.21-0.277,0.349c-0.068,0.139-0.139,0.278-0.139,0.417C124.654,232.071,125.832,236.023,129.019,237.824
		 M236.864,573.692l-23.564,28.072l5.337,4.437l23.564-28.072C240.397,576.674,238.596,575.219,236.864,573.692 M644.26,346.017
		l35.971-6.308l-1.248-6.792l-35.902,6.305C643.496,341.509,643.912,343.729,644.26,346.017 M298.409,119.31l12.478,34.305
		c2.149-0.9,4.294-1.662,6.515-2.426l-12.478-34.306L298.409,119.31z M178.645,566.206l4.437,5.341l28.068-23.567
		c-1.455-1.733-2.981-3.533-4.437-5.337L178.645,566.206z M242.201,193.396l-23.564-28.069l-5.337,4.437l23.564,28.069
		C238.596,196.31,240.397,194.854,242.201,193.396 M399.044,71c-3.811,0-6.931,3.117-6.931,6.931v66.398
		c2.288-0.071,4.643-0.071,6.931-0.071s4.643,0,6.931,0.071V77.931C405.976,74.117,402.926,71,399.044,71 M346.234,105.86
		l6.305,35.903c2.288-0.417,4.504-0.833,6.792-1.178l-6.308-35.971L346.234,105.86z M480.76,620.27l12.477,34.376l6.516-2.426
		l-12.479-34.31C485.125,618.743,482.977,619.575,480.76,620.27 M480.76,151.26c2.217,0.693,4.365,1.522,6.514,2.355l12.479-34.305
		l-6.516-2.427L480.76,151.26z M132.556,285.095l-2.359,6.514l34.377,12.474c0.694-2.216,1.526-4.365,2.359-6.515L132.556,285.095z
		 M438.758,630.942l6.377,35.971l6.795-1.248l-6.309-35.9C443.334,630.182,441.047,630.595,438.758,630.942 M265.487,603.287
		l-22.803,39.507l-3.533,6.099c-1.943,3.259-0.833,7.415,2.426,9.29c0,0,0.068,0.135,0.139,0.135
		c0.278,0.143,0.555,0.349,0.829,0.417c0.833,0.416,1.733,0.555,2.637,0.555c2.355,0,4.71-1.249,5.959-3.466l3.533-6.169
		l22.735-39.365h0.067l6.931-12.062c-4.088-2.146-8.108-4.504-11.99-6.931L265.487,603.287z M706.912,378.796h-66.395
		c0.068,2.288,0.068,4.646,0.068,6.931c0,2.288,0,4.646-0.068,6.931h66.395c3.814,0,6.932-3.046,6.932-6.931
		C713.844,381.917,710.727,378.796,706.912,378.796 M346.234,665.665l6.789,1.248l6.308-35.971
		c-2.288-0.348-4.504-0.761-6.792-1.178L346.234,665.665z M153.903,425.444l-35.974,6.376l1.249,6.791l35.903-6.308
		C154.665,430.016,154.249,427.732,153.903,425.444"/>
</g>
    <g>
	<path fill="#2887C8" d="M187.397,128.137c-0.414,0-0.75-0.336-0.75-0.75v-54.93h-54.934c-0.414,0-0.75-0.336-0.75-0.75
		s0.336-0.75,0.75-0.75h55.684c0.414,0,0.75,0.336,0.75,0.75v55.68C188.147,127.801,187.811,128.137,187.397,128.137z"/>
</g>
</svg>
