<svg xmlns="http://www.w3.org/2000/svg" id="Layer_1" width="800" height="800" x="0" y="0" enable-background="new 0 0 800 800" version="1.0" viewBox="0 0 800 800" xml:space="preserve"><path fill="#B6DDF5" d="M126.202,105.411h-29.64C57.598,105.411,26,137.009,26,175.973v75.086c0,38.963,31.598,70.562,70.562,70.562	h414.684v40.467c0,25.28,28.721,39.854,49.121,24.931L763.35,238.436c16.854-12.337,16.854-37.503,0-49.833L560.367,40.02	c-20.416-14.937-49.121-0.363-49.121,24.917v40.474H426.18"/><path fill="none" stroke="#2887C8" stroke-linecap="round" stroke-linejoin="round" stroke-miterlimit="10" stroke-width="1.5" d="M126.202,105.411h-29.64C57.598,105.411,26,137.009,26,175.973v75.086c0,38.963,31.598,70.562,70.562,70.562h414.684v40.467	c0,25.28,28.721,39.854,49.121,24.931L763.35,238.436c16.854-12.337,16.854-37.503,0-49.833L560.367,40.02	c-20.416-14.937-49.121-0.363-49.121,24.917v40.474H426.18"/><line x1="201.779" x2="165.571" y1="105.411" y2="105.411" fill="#B6DDF5"/><line x1="201.779" x2="165.571" y1="105.411" y2="105.411" fill="none" stroke="#2887C8" stroke-linecap="round" stroke-linejoin="round" stroke-miterlimit="10" stroke-width="1.5"/><line x1="386.312" x2="241.59" y1="105.411" y2="105.411" fill="#B6DDF5"/><line x1="386.312" x2="241.59" y1="105.411" y2="105.411" fill="none" stroke="#2887C8" stroke-linecap="round" stroke-linejoin="round" stroke-miterlimit="10" stroke-width="1.5"/><path fill="#E4F0CC" d="M675.791,475.802h29.646c38.965,0,70.563,31.599,70.563,70.563v75.086c0,38.963-31.598,70.562-70.563,70.562	h-414.69v40.467c0,25.28-28.728,39.854-49.122,24.917L38.644,608.827c-16.846-12.337-16.846-37.504,0-49.848l202.982-148.568	c20.408-14.938,49.122-0.363,49.122,24.917v40.474h85.058"/><path fill="none" stroke="#0B9D49" stroke-linecap="round" stroke-linejoin="round" stroke-miterlimit="10" stroke-width="1.5" d="M675.791,475.802h29.646c38.965,0,70.563,31.599,70.563,70.563v75.086c0,38.963-31.598,70.562-70.563,70.562h-414.69v40.467	c0,25.28-28.728,39.854-49.122,24.917L38.644,608.827c-16.846-12.337-16.846-37.504,0-49.848l202.982-148.568	c20.408-14.938,49.122-0.363,49.122,24.917v40.474h85.058"/><line x1="600.215" x2="636.428" y1="475.802" y2="475.802" fill="#E4F0CC"/><line x1="600.215" x2="636.428" y1="475.802" y2="475.802" fill="none" stroke="#0B9D49" stroke-linecap="round" stroke-linejoin="round" stroke-miterlimit="10" stroke-width="1.5"/><line x1="415.681" x2="560.381" y1="475.802" y2="475.802" fill="#E4F0CC"/><line x1="415.681" x2="560.381" y1="475.802" y2="475.802" fill="none" stroke="#0B9D49" stroke-linecap="round" stroke-linejoin="round" stroke-miterlimit="10" stroke-width="1.5"/></svg>