<svg xmlns="http://www.w3.org/2000/svg" id="Layer_1" width="800" height="800" x="0" y="0" enable-background="new 0 0 800 800" version="1.0" viewBox="0 0 800 800" xml:space="preserve"><path fill="#E4F2FC" d="M767.324,445.122c0,138.202-112.036,250.233-250.238,250.233c-138.207,0-250.238-112.031-250.238-250.233	c0-138.197,112.031-250.239,250.238-250.239C655.288,194.883,767.324,306.925,767.324,445.122"/><path fill="none" stroke="#2887C8" stroke-linecap="round" stroke-linejoin="round" stroke-miterlimit="10" stroke-width="2" d="M474.468,198.883c-63.022,11.274-120.872,46.774-158.804,98.436"/><path fill="none" stroke="#2887C8" stroke-linecap="round" stroke-linejoin="round" stroke-miterlimit="10" stroke-width="2" d="M558.538,198.226c-15.642-2.574-31.521-3.629-47.36-3.157"/><path fill="none" stroke="#2887C8" stroke-linecap="round" stroke-linejoin="round" stroke-miterlimit="10" stroke-width="2" d="M763.459,398.918c-16.493-88.078-81.133-162.44-166.071-191.021"/><path fill="none" stroke="#2887C8" stroke-linecap="round" stroke-linejoin="round" stroke-miterlimit="10" stroke-width="2" d="M440.567,682.879c105.95,33.291,226.938-8.663,287.369-102.329c22.098-34.25,35.548-73.968,38.921-114.573"/><path fill="none" stroke="#2887C8" stroke-linecap="round" stroke-linejoin="round" stroke-miterlimit="10" stroke-width="2" d="M364.637,643.222c12.665,9.794,26.297,18.335,40.646,25.456"/><path fill="none" stroke="#2887C8" stroke-linecap="round" stroke-linejoin="round" stroke-miterlimit="10" stroke-width="2" d="M277.483,374.416c-24.451,83.29-3.322,175.094,55.085,239.233"/><path fill="#B6DDF5" d="M714.354,445.122c0,108.952-88.326,197.269-197.269,197.269c-108.953,0-197.273-88.316-197.273-197.269	c0-108.948,88.32-197.264,197.273-197.264C626.028,247.858,714.354,336.174,714.354,445.122"/><path fill="#E4F2FC" d="M678.912,445.122c0,89.375-72.456,161.831-161.831,161.831c-89.376,0-161.827-72.456-161.827-161.831	c0-89.376,72.451-161.832,161.827-161.832C606.456,283.29,678.912,355.746,678.912,445.122"/><path fill="none" stroke="#2887C8" stroke-linecap="round" stroke-linejoin="round" stroke-miterlimit="10" stroke-width="2" d="M671.665,322.06c-36.147-45.21-91.734-74.206-154.123-74.206c-66.618,0-125.481,33.063-161.197,83.64"/><path fill="none" stroke="#2887C8" stroke-linecap="round" stroke-linejoin="round" stroke-miterlimit="10" stroke-width="2" d="M355.254,557.229c35.599,51.438,94.99,85.161,162.292,85.161c66.721,0,125.665-33.165,161.365-83.863"/><path fill="#E4F0CC" d="M687.108,526.271H347.063c-14.546,0-26.333-11.786-26.333-26.327V390.306	c0-14.546,11.787-26.333,26.333-26.333h340.045c14.541,0,26.333,11.787,26.333,26.333v109.638	C713.441,514.484,701.649,526.271,687.108,526.271"/><path fill="none" stroke="#0B9D49" stroke-linecap="round" stroke-linejoin="round" stroke-miterlimit="10" stroke-width="2" d="M625.445,363.973h-279.66c-13.836,0-25.055,11.787-25.055,26.333v109.638c0,14.541,11.219,26.332,25.055,26.332h342.602	c13.836,0,25.055-11.791,25.055-26.332V390.306c0-14.546-11.219-26.333-25.055-26.333h-16.575"/><path fill="none" stroke="#0B9D49" stroke-linecap="round" stroke-linejoin="round" stroke-miterlimit="10" stroke-width="2" d="M555.246,445.122c0,21.078-17.087,38.16-38.165,38.16c-21.073,0-38.161-17.082-38.161-38.16c0-21.073,17.088-38.161,38.161-38.161	C538.159,406.961,555.246,424.049,555.246,445.122z"/><path fill="none" stroke="#0B9D49" stroke-linecap="round" stroke-linejoin="round" stroke-miterlimit="10" stroke-width="2" d="M646.458,406.961c-21.073,0-38.166,17.088-38.166,38.161c0,21.078,17.093,38.16,38.166,38.16"/><path fill="none" stroke="#0B9D49" stroke-linecap="round" stroke-linejoin="round" stroke-miterlimit="10" stroke-width="2" d="M387.709,483.282c21.078,0,38.16-17.082,38.16-38.16c0-21.079-17.082-38.161-38.16-38.161"/><polygon fill="#B6DDF5" points="204.145 198.355 214.182 274.272 144.333 305.505 17.324 234.383 86.844 202.676 77.126 127.19"/><polygon fill="none" stroke="#2887C8" stroke-linecap="round" stroke-linejoin="round" stroke-miterlimit="10" stroke-width="2" points="204.145 198.355 214.182 274.272 144.333 305.505 17.324 234.383 86.844 202.676 77.126 127.19"/><line x1="517.086" x2="86.991" y1="445.122" y2="202.56" fill="none" stroke="#2887C8" stroke-linecap="round" stroke-linejoin="round" stroke-miterlimit="10" stroke-width="2"/></svg>