<svg xmlns="http://www.w3.org/2000/svg" id="Layer_1" width="800" height="800" x="0" y="0" enable-background="new 0 0 800 800" version="1.0" viewBox="0 0 800 800" xml:space="preserve"><path fill="#E4F2FC" d="M794.311,193.052V746.19c0,14.297-11.152,25.832-24.969,25.832H64.536	c-13.733,0-24.968-11.535-24.968-25.832V193.052c0-14.297,11.235-25.833,24.968-25.833h704.806	C783.158,167.219,794.311,178.754,794.311,193.052"/><line x1="7" x2="7" y1="241.318" y2="245.303" fill="none" stroke="#2887C8" stroke-linecap="round" stroke-linejoin="round" stroke-miterlimit="10" stroke-width="1.5"/><line x1="7" x2="7" y1="274.622" y2="320.237" fill="none" stroke="#2887C8" stroke-linecap="round" stroke-linejoin="round" stroke-miterlimit="10" stroke-width="1.5"/><path fill="none" stroke="#2887C8" stroke-linecap="round" stroke-linejoin="round" stroke-miterlimit="10" stroke-width="1.5" d="M7,348.846v105.396h754.746V186.965c0-13.817-11.154-24.968-24.969-24.968H31.968C18.236,161.997,7,173.147,7,186.965v23.683"/><rect width="155.625" height="65.105" x="305.702" y="274.431" fill="#E4F0CC"/><rect width="155.625" height="65.105" x="305.702" y="274.431" fill="none" stroke="#0B9D49" stroke-linecap="round" stroke-linejoin="round" stroke-miterlimit="10" stroke-width="1.5"/><line x1="761.742" x2="761.742" y1="616.8" y2="575.682" fill="none" stroke="#2887C8" stroke-linecap="round" stroke-linejoin="round" stroke-miterlimit="10" stroke-width="1.5"/><line x1="761.742" x2="761.742" y1="670.472" y2="653.194" fill="none" stroke="#2887C8" stroke-linecap="round" stroke-linejoin="round" stroke-miterlimit="10" stroke-width="1.5"/><path fill="none" stroke="#2887C8" stroke-linecap="round" stroke-linejoin="round" stroke-miterlimit="10" stroke-width="1.5" d="M761.742,523.617v-69.391H7v267.281c0,13.813,11.236,24.961,24.965,24.961h704.809c13.818,0,24.969-11.147,24.969-24.961v-20.377"/><line x1="761.742" x2="761.742" y1="547.615" y2="551.512" fill="none" stroke="#2887C8" stroke-linecap="round" stroke-linejoin="round" stroke-miterlimit="10" stroke-width="1.5"/><line x1="384.372" x2="384.372" y1="683.406" y2="746.469" fill="none" stroke="#2887C8" stroke-linecap="round" stroke-linejoin="round" stroke-miterlimit="10" stroke-width="1.5"/><line x1="384.372" x2="384.372" y1="591.678" y2="654.739" fill="none" stroke="#2887C8" stroke-linecap="round" stroke-linejoin="round" stroke-miterlimit="10" stroke-width="1.5"/><line x1="384.372" x2="384.372" y1="534.344" y2="563.003" fill="none" stroke="#2887C8" stroke-linecap="round" stroke-linejoin="round" stroke-miterlimit="10" stroke-width="1.5"/><line x1="384.372" x2="384.372" y1="454.242" y2="507.174" fill="none" stroke="#2887C8" stroke-linecap="round" stroke-linejoin="round" stroke-miterlimit="10" stroke-width="1.5"/><path fill="#B6DDF5" d="M143.107,584.368h-8.423c-21.226,0-38.438-17.197-38.438-38.438V156.459	c0-21.233,17.212-38.438,38.438-38.438h8.423c21.222,0,38.438,17.205,38.438,38.438v389.471	C181.544,567.171,164.329,584.368,143.107,584.368"/><path fill="none" stroke="#2887C8" stroke-miterlimit="10" stroke-width="1.5" d="M143.107,584.368h-8.423	c-21.226,0-38.438-17.197-38.438-38.438V156.459c0-21.233,17.212-38.438,38.438-38.438h8.423c21.222,0,38.438,17.205,38.438,38.438	v389.471C181.544,567.171,164.329,584.368,143.107,584.368z"/><path fill="#2887C8" d="M150.691,332.029c0,7.332-5.94,13.271-13.261,13.271c-7.328,0-13.268-5.94-13.268-13.271	c0-7.324,5.94-13.257,13.268-13.257C144.751,318.772,150.691,324.705,150.691,332.029"/><path fill="#2887C8" d="M150.691,530.695c0,7.34-5.94,13.272-13.261,13.272c-7.328,0-13.268-5.933-13.268-13.272	c0-7.32,5.94-13.253,13.268-13.253C144.751,517.442,150.691,523.375,150.691,530.695"/><path fill="#B6DDF5" d="M631.762,584.368h-8.414c-21.234,0-38.438-17.197-38.438-38.438V156.459	c0-21.233,17.203-38.438,38.438-38.438h8.414c21.227,0,38.439,17.205,38.439,38.438v389.471	C670.201,567.171,652.988,584.368,631.762,584.368"/><path fill="none" stroke="#2887C8" stroke-miterlimit="10" stroke-width="1.5" d="M631.762,584.368h-8.414	c-21.234,0-38.438-17.197-38.438-38.438V156.459c0-21.233,17.203-38.438,38.438-38.438h8.414c21.227,0,38.439,17.205,38.439,38.438	v389.471C670.201,567.171,652.988,584.368,631.762,584.368z"/><path fill="#2887C8" d="M639.348,332.029c0,7.332-5.945,13.271-13.262,13.271c-7.328,0-13.26-5.94-13.26-13.271	c0-7.324,5.932-13.257,13.26-13.257C633.402,318.772,639.348,324.705,639.348,332.029"/><path fill="#2887C8" d="M639.348,530.695c0,7.34-5.945,13.272-13.262,13.272c-7.328,0-13.26-5.933-13.26-13.272	c0-7.32,5.932-13.253,13.26-13.253C633.402,517.442,639.348,523.375,639.348,530.695"/><path fill="#E4F2FC" d="M556.652,132.355h-56.836c0-52.684-24.299-53.064-24.957-53.064H337.218c0,0-24.961,0.864-24.961,53.064	H255.42c0,0,4.164-110.333,80.388-110.333H476.27C552.492,22.022,556.652,132.355,556.652,132.355"/><path fill="none" stroke="#2887C8" stroke-linecap="round" stroke-linejoin="round" stroke-miterlimit="10" stroke-width="1.5" d="M358.125,22.022H454.6c76.23,0,80.385,96.021,80.385,96.021h-56.826c0-45.847-24.303-46.176-24.969-46.176H315.556	c0,0-24.968,0.75-24.968,46.176h-56.836c0,0,1.322-30.425,16.073-57.023 M290.767,25.502c-11.407,3.666-20.541,9.954-27.854,17.578 M327.465,22.022l-5.504,0.022c-0.352,0,0.344-0.008,0,0"/><path fill="#B6DDF5" d="M761.742,648.03v73.478c0,13.813-11.15,24.961-24.969,24.961h-73.469	C663.305,692.13,707.404,648.03,761.742,648.03"/><path fill="none" stroke="#2887C8" stroke-linecap="round" stroke-linejoin="round" stroke-miterlimit="10" stroke-width="1.5" d="M761.742,648.03v73.478c0,13.813-11.15,24.961-24.969,24.961h-73.469C663.305,692.13,707.404,648.03,761.742,648.03z"/><path fill="#B6DDF5" d="M105.442,746.469H31.965c-13.726,0-24.961-11.147-24.961-24.961V648.03	C61.342,648.03,105.442,692.137,105.442,746.469"/><path fill="none" stroke="#2887C8" stroke-miterlimit="10" stroke-width="1.5" d="M105.442,746.469H31.965	c-13.726,0-24.961-11.147-24.961-24.961V648.03C61.342,648.03,105.442,692.137,105.442,746.469z"/><rect width="142.372" height="89.953" x="67.997" y="402.126" fill="#E4F0CC"/><rect width="142.372" height="89.953" x="67.997" y="402.126" fill="none" stroke="#0B9D49" stroke-linecap="round" stroke-linejoin="round" stroke-miterlimit="10" stroke-width="1.5"/><path fill="#E4F0CC" d="M139.88,454.242h-2.82c-7.126,0-12.894-5.775-12.894-12.895v-56.115c0-7.119,5.768-12.891,12.894-12.891	h2.82c7.115,0,12.891,5.771,12.891,12.891v56.115C152.771,448.467,146.996,454.242,139.88,454.242"/><path fill="none" stroke="#0B9D49" stroke-linecap="round" stroke-linejoin="round" stroke-miterlimit="10" stroke-width="1.5" d="M139.88,454.242h-2.82c-7.126,0-12.894-5.775-12.894-12.895v-56.115c0-7.119,5.768-12.891,12.894-12.891h2.82	c7.115,0,12.891,5.771,12.891,12.891v56.115C152.771,448.467,146.996,454.242,139.88,454.242z"/><rect width="142.377" height="89.953" x="556.652" y="402.126" fill="#E4F0CC"/><rect width="142.377" height="89.953" x="556.652" y="402.126" fill="none" stroke="#0B9D49" stroke-linecap="round" stroke-linejoin="round" stroke-miterlimit="10" stroke-width="1.5"/><path fill="#E4F0CC" d="M628.537,454.242h-2.824c-7.115,0-12.891-5.775-12.891-12.895v-56.115c0-7.119,5.775-12.891,12.891-12.891	h2.824c7.115,0,12.891,5.771,12.891,12.891v56.115C641.428,448.467,635.652,454.242,628.537,454.242"/><path fill="none" stroke="#0B9D49" stroke-linecap="round" stroke-linejoin="round" stroke-miterlimit="10" stroke-width="1.5" d="M628.537,454.242h-2.824c-7.115,0-12.891-5.775-12.891-12.895v-56.115c0-7.119,5.775-12.891,12.891-12.891h2.824	c7.115,0,12.891,5.771,12.891,12.891v56.115C641.428,448.467,635.652,454.242,628.537,454.242z"/><rect width="111.677" height="43.982" x="210.369" y="118.015" fill="#FFF"/><rect width="111.677" height="43.982" x="210.369" y="118.015" fill="none" stroke="#2887C8" stroke-miterlimit="10" stroke-width="1.5"/><rect width="111.666" height="43.982" x="444.986" y="118.015" fill="#FFF"/><rect width="111.666" height="43.982" x="444.986" y="118.015" fill="none" stroke="#2887C8" stroke-miterlimit="10" stroke-width="1.5"/></svg>