<svg xmlns="http://www.w3.org/2000/svg" id="Layer_1" width="570" height="412.5" x="0" y="0" enable-background="new 0 0 570 412.5" version="1.1" viewBox="0 0 570 412.5" xml:space="preserve"><path fill="#E4F2FC" d="M525.196,204.095c0,89.124-72.248,161.373-161.372,161.373c-89.121,0-161.369-72.249-161.369-161.373	c0-89.125,72.248-161.373,161.369-161.373C452.948,42.722,525.196,114.97,525.196,204.095"/><path fill="#B1D465" d="M195.146,131.531c0.731-1.694,1.466-3.384,2.288-5.034c-0.047,0-0.047-0.042-0.093-0.042	c-4.756-3.612-7.818-9.328-7.818-15.728c0-10.933,8.823-19.757,19.751-19.757c3.021,0,5.854,0.646,8.417,1.877	c0.043,0,0.043,0.043,0.088,0.043c2.104,1.008,3.979,2.333,5.58,4.027l0.047,0.045c3.52,3.52,5.668,8.367,5.668,13.764	c0,10.878-8.871,19.8-19.8,19.8c-1.964,0-3.884-0.323-5.715-0.917h-0.046c-0.774,1.644-1.508,3.292-2.239,4.938	c-1.784,4.159-3.43,8.416-4.892,12.759c-2.062,6.172-3.839,12.481-5.26,18.977c0,0-1.323,1.323-3.386,1.097	c-2.146-0.229-3.427-1.878-3.427-1.878c1.465-7.175,3.477-14.219,5.76-21.031C191.577,140.081,193.271,135.737,195.146,131.531"/><path fill="#B1D465" d="M363.825,43.645c-1.19,0-2.378-0.091-3.477-0.365v62.918h-37.631c-2.516,0-4.571,2.055-4.571,4.568	c0,2.516,2.056,4.574,4.571,4.574h37.631v69.045c-7.727,1.328-13.946,7.271-15.727,14.863h-47.465c-2.516,0-4.571,2.057-4.571,4.573	c0,2.512,2.056,4.572,4.571,4.572h47.465c1.78,7.636,8,13.531,15.727,14.901v69.001h-37.631c-2.516,0-4.571,2.061-4.571,4.572	c0,2.517,2.056,4.57,4.571,4.57h37.631v63.423c1.099-0.182,2.286-0.322,3.477-0.322c1.188,0,2.378,0.141,3.521,0.322V216.121	c-1.143,0.32-2.287,0.458-3.521,0.458c-1.235,0-2.378-0.138-3.477-0.458c-3.886-1.1-7.042-4.023-8.457-7.818	c-0.551-1.374-0.825-2.88-0.825-4.48c0-1.603,0.274-3.107,0.825-4.483c1.415-3.791,4.571-6.723,8.457-7.816	c1.099-0.276,2.241-0.459,3.477-0.459c1.233,0,2.378,0.183,3.521,0.459V43.326C366.158,43.554,365.013,43.645,363.825,43.645 M409.963,106.199h-23.961c-2.516,0-4.572,2.055-4.572,4.568c0,2.516,2.057,4.574,4.572,4.574h23.961	c-0.369-1.459-0.554-3.016-0.554-4.574C409.409,109.214,409.594,107.662,409.963,106.199 M367.346,184.387v7.135	c-1.143-0.275-2.287-0.46-3.521-0.46c-1.235,0-2.378,0.185-3.477,0.46c-3.886,1.095-7.042,4.024-8.457,7.817	c-0.551,1.376-0.825,2.879-0.825,4.483c0,1.601,0.274,3.106,0.825,4.48c1.415,3.795,4.571,6.719,8.457,7.816	c1.099,0.322,2.241,0.458,3.477,0.458c1.233,0,2.378-0.138,3.521-0.458v7.177c9.236-1.643,16.278-9.739,16.278-19.475	C383.622,194.129,376.582,185.985,367.346,184.387 M546.544,184.754c-2.836-26.797-11.433-51.896-24.512-73.985	c-0.046-0.092-0.088-0.136-0.138-0.183l-2.695-4.387C489.934,59.925,440.552,27.55,383.444,21.47v-0.045	c-1.194-9.787-9.558-17.332-19.619-17.332c-10.059,0-18.383,7.545-19.571,17.332v0.045c-1.278,0.134-2.604,0.275-3.932,0.455	c-3.612,0.461-7.18,1.009-10.699,1.696c-3.522,0.637-6.997,1.418-10.474,2.285c-3.427,0.867-6.854,1.828-10.239,2.924	c-3.384,1.052-6.677,2.195-9.969,3.432c-3.292,1.232-6.54,2.609-9.738,4.023c-3.202,1.418-6.358,2.929-9.421,4.525	c-3.109,1.603-6.129,3.295-9.145,5.077c-2.974,1.738-5.9,3.611-8.78,5.535c-2.881,1.919-5.717,3.931-8.461,6.035	c-2.787,2.056-5.484,4.254-8.09,6.492c-2.653,2.193-5.215,4.526-7.73,6.904c-2.515,2.377-4.934,4.801-7.267,7.317	c0,0-0.185,2.104,1.096,3.336c1.237,1.237,4.209,0.916,4.209,0.916h0.044c1.235-1.279,2.469-2.607,3.748-3.84	c2.472-2.469,5.033-4.801,7.591-7.133c2.609-2.287,5.305-4.482,8.05-6.631c2.695-2.148,5.487-4.209,8.367-6.172	c2.831-1.969,5.759-3.889,8.731-5.672c2.973-1.828,6.035-3.569,9.1-5.168c3.109-1.645,6.222-3.201,9.42-4.664	c3.201-1.461,6.45-2.832,9.74-4.069c3.293-1.281,6.63-2.469,9.969-3.52c3.429-1.098,6.813-2.06,10.288-2.926	c3.472-0.871,6.949-1.646,10.516-2.332c3.521-0.643,7.089-1.191,10.701-1.646c0.912-0.092,1.778-0.229,2.695-0.275v0.047	c0.595,2.511,1.692,4.843,3.201,6.904c-13.306,14.584-33.931,39.641-50.573,70.874H247.5c-2.516,0-4.572,2.055-4.572,4.571	c0,2.514,2.057,4.572,4.572,4.572h45.086c-12.257,25.148-21.444,53.82-22.269,83.909h-49.748c-2.516,0-4.572,2.056-4.572,4.571	c0,2.513,2.057,4.572,4.572,4.572h49.748c0.824,30.317,10.104,59.168,22.496,84.498H247.5c-2.516,0-4.572,2.058-4.572,4.576	c0,2.511,2.057,4.573,4.572,4.573h49.978c16.553,31.18,37.084,56.195,50.345,70.777c-1.556,2.058-2.653,4.435-3.248,6.95v0.047	c-75.673-8.189-137.129-64.384-153.359-137.401c-0.963-4.437-1.786-8.966-2.469-13.536c-0.234-1.784-0.46-3.521-0.64-5.305h0.088	c8.688-2.057,15.185-9.875,15.185-19.203c0-9.376-6.543-17.242-15.272-19.255h-0.048c-1.466-0.363-2.925-0.547-4.481-0.547	c-0.825,0-1.6,0.047-2.424,0.184h-0.043c-9.741,1.188-17.286,9.514-17.286,19.618c0,10.104,7.589,18.427,17.373,19.567h0.047	c0.185,1.832,0.366,3.659,0.641,5.488c0.685,4.663,1.508,9.234,2.469,13.763c16.6,76.36,80.845,135.117,159.9,143.486v0.094	c1.188,9.737,9.513,17.328,19.571,17.328c10.062,0,18.425-7.591,19.617-17.328v-0.047c57.612-6.125,107.402-39.051,136.531-86.009	c0.733-1.148,1.418-2.242,2.057-3.388c13.033-21.943,21.586-46.821,24.42-73.388h0.044c9.74-1.143,17.331-9.464,17.331-19.569	C563.827,194.267,556.283,185.985,546.544,184.754 M409.963,106.199h-23.961c-2.516,0-4.572,2.055-4.572,4.568	c0,2.516,2.057,4.574,4.572,4.574h23.961c2.056,8.736,9.922,15.184,19.248,15.184c1.692,0,3.341-0.185,4.891-0.597	c8.919,20.989,15.506,44.581,16.232,69.321H401.96c-2.512,0-4.572,2.057-4.572,4.573c0,2.512,2.061,4.572,4.572,4.572h48.374	c-0.683,24.644-7.175,48.282-16.411,69.819c-1.512-0.32-3.063-0.548-4.711-0.548c-9.1,0-16.824,6.216-19.069,14.631h-24.141	c-2.516,0-4.572,2.061-4.572,4.572c0,2.517,2.057,4.57,4.572,4.57h23.87c0.867,4.344,3.198,8.187,6.446,10.976	c-14.495,24.099-30.499,43.484-41.476,55.557c-2.192-1.557-4.753-2.604-7.497-3.109V223.298c9.236-1.643,16.278-9.739,16.278-19.476	c0-9.693-7.042-17.837-16.278-19.436V43.326c2.789-0.504,5.396-1.6,7.636-3.156c8.369,9.193,19.709,22.587,31.002,39.048	c3.476,5.032,7.043,10.52,10.563,16.372C413.346,98.289,410.967,101.99,409.963,106.199 M304.657,300.714	c-1.42-2.563-2.791-5.165-4.115-7.823c-12.805-25.469-22.544-54.732-23.229-85.457v-7.224c0.685-30.956,10.653-60.268,22.953-84.868	c1.326-2.741,2.744-5.394,4.162-8.001c5.577-10.38,11.523-19.799,17.146-27.985c11.341-16.55,22.729-29.993,31.142-39.187	c2.283,1.556,4.799,2.652,7.635,3.111v62.918H322.72c-2.516,0-4.573,2.055-4.573,4.568c0,2.516,2.058,4.574,4.573,4.574h37.631	v69.045c-7.727,1.328-13.947,7.271-15.727,14.863h-47.465c-2.516,0-4.573,2.057-4.573,4.573c0,2.512,2.058,4.572,4.573,4.572h47.465	c1.779,7.636,8,13.531,15.727,14.901v69.001H322.72c-2.516,0-4.573,2.061-4.573,4.572c0,2.517,2.058,4.57,4.573,4.57h37.631v63.423	c-2.787,0.506-5.352,1.553-7.592,3.109C340.095,353.983,320.615,330.251,304.657,300.714 M517.051,292.297h-48.88	c-2.517,0-4.576,2.061-4.576,4.572c0,2.517,2.06,4.57,4.576,4.57h43.21c-28.349,42.806-74.806,72.616-128.35,78.422v-0.094	c-0.597-2.516-1.648-4.938-3.201-6.992c11.248-12.301,27.661-32.149,42.478-56.837c2.148,0.869,4.479,1.328,6.904,1.328	c10.927,0,19.799-8.922,19.799-19.851c0-6.766-3.475-12.8-8.729-16.366c9.782-22.816,16.688-48.057,17.142-74.396	c0.049-0.96,0.049-1.874,0.049-2.833c0-0.96,0-1.924-0.049-2.836c-0.454-26.201-7.313-51.261-16.962-73.938	c5.167-3.565,8.55-9.508,8.55-16.278c0-10.883-8.872-19.799-19.799-19.799c-2.332,0-4.617,0.458-6.722,1.191	c-14.858-24.649-31.323-44.448-42.615-56.836c1.508-2.061,2.56-4.393,3.156-6.905v-0.091c53.177,5.759,99.402,35.209,127.752,77.548	h-42.612c-2.515,0-4.576,2.06-4.576,4.571c0,2.517,2.062,4.572,4.576,4.572h48.378c12.299,20.989,20.438,44.767,23.135,70.095	h-0.135c-7.087,1.649-12.714,7.091-14.589,14.134h-40.969c-2.516,0-4.571,2.057-4.571,4.572c0,2.513,2.056,4.571,4.571,4.571h40.698	c1.55,7.497,7.359,13.444,14.81,15.182h0.094C536.846,248.402,528.983,271.679,517.051,292.297 M322.718,106.199	c-2.516,0-4.571,2.055-4.571,4.568c0,2.516,2.056,4.574,4.571,4.574h37.633v-9.143L322.718,106.199L322.718,106.199z M360.349,191.521v-7.135c-7.727,1.328-13.946,7.271-15.727,14.864h-47.465c-2.516,0-4.571,2.056-4.571,4.571	c0,2.513,2.056,4.572,4.571,4.572h47.465c1.78,7.638,8,13.531,15.727,14.903v-7.177c-3.886-1.1-7.042-4.023-8.457-7.818	c-0.551-1.374-0.825-2.88-0.825-4.48c0-1.603,0.274-3.107,0.825-4.483C353.307,195.546,356.463,192.616,360.349,191.521 M322.718,292.297c-2.516,0-4.571,2.061-4.571,4.572c0,2.517,2.056,4.57,4.571,4.57h37.633v-9.143H322.718z"/><path fill="#2887C8" d="M223.403,96.96l-0.045-0.043c-1.601-1.691-3.477-3.021-5.58-4.023c-0.044,0-0.044-0.049-0.092-0.049	c-2.56-1.233-5.397-1.874-8.413-1.874c-10.928,0-19.751,8.824-19.751,19.755c0,6.397,3.063,12.114,7.815,15.727	c0.05,0,0.05,0.044,0.092,0.044c1.833,1.42,3.89,2.47,6.085,3.111h0.045c1.828,0.597,3.747,0.916,5.714,0.916	c10.929,0,19.8-8.92,19.8-19.8C229.075,105.33,226.924,100.48,223.403,96.96 M209.273,123.479c-0.865,0-1.735-0.086-2.56-0.227	c-0.047,0-0.047,0-0.092-0.045c-2.333-0.503-4.436-1.604-6.079-3.155l-0.047-0.048c-2.424-2.332-3.977-5.619-3.977-9.278	c0-7.046,5.717-12.759,12.754-12.759c1.466,0,2.882,0.229,4.161,0.686c0.049,0,0.049,0,0.092,0.047	c2.197,0.776,4.16,2.149,5.625,3.885l0.043,0.047c1.785,2.241,2.886,5.029,2.886,8.094	C222.08,117.764,216.315,123.479,209.273,123.479"/><path fill="#2887C8" d="M416.545,95.589c-3.199,2.698-5.576,6.402-6.584,10.609h3.839c1.19,0,2.291,0.456,3.109,1.232	c0.552-2.148,1.692-4.113,3.249-5.667C418.969,99.66,417.781,97.603,416.545,95.589 M429.214,90.97c-2.333,0-4.62,0.456-6.724,1.194	c-2.196,0.776-4.209,1.962-5.945,3.426c-3.199,2.698-5.576,6.402-6.584,10.609c-0.364,1.465-0.547,3.016-0.547,4.572	s0.185,3.108,0.547,4.572c2.057,8.736,9.927,15.181,19.253,15.181c1.689,0,3.336-0.18,4.893-0.599	c2.332-0.589,4.431-1.55,6.355-2.878c5.164-3.564,8.549-9.508,8.549-16.276C449.011,99.886,440.142,90.97,429.214,90.97 M437.532,120.511c-1.735,1.463-3.931,2.511-6.309,2.832c-0.641,0.139-1.325,0.184-2.01,0.184c-5.899,0-10.841-3.977-12.305-9.42	c-0.315-1.048-0.456-2.194-0.456-3.336c0-1.144,0.141-2.289,0.456-3.34c0.552-2.148,1.692-4.113,3.249-5.668	c1.6-1.6,3.66-2.838,5.943-3.385c1.009-0.229,2.013-0.367,3.112-0.367c7.083,0,12.8,5.72,12.8,12.76	C442.014,114.659,440.278,118.13,437.532,120.511"/><path fill="#2887C8" d="M429.211,277.664c-9.1,0-16.828,6.221-19.067,14.633h3.661c1.231,0,2.375,0.505,3.198,1.284	c1.692-5.123,6.494-8.922,12.208-8.922c0.599,0,1.237,0.051,1.786,0.143c1.004-2.153,2.011-4.346,2.923-6.589	C432.412,277.897,430.856,277.664,429.211,277.664 M440.276,281.049c-1.92-1.28-4.025-2.283-6.356-2.836	c-1.508-0.315-3.063-0.549-4.709-0.549c-9.1,0-16.828,6.221-19.067,14.633c-0.503,1.648-0.731,3.338-0.731,5.128	c0,1.367,0.14,2.742,0.458,4.015c0.87,4.345,3.202,8.188,6.445,10.978c1.784,1.553,3.796,2.742,5.994,3.521	c2.145,0.869,4.478,1.328,6.901,1.328c10.93,0,19.8-8.922,19.8-19.843C449.013,290.653,445.536,284.617,440.276,281.049 M429.211,310.267c-1.143,0-2.288-0.141-3.336-0.459c-2.287-0.591-4.347-1.869-5.947-3.563c-1.508-1.603-2.603-3.656-3.151-5.899	c-0.232-0.961-0.321-1.922-0.321-2.922c0-1.328,0.183-2.611,0.548-3.799v-0.045c1.692-5.124,6.494-8.921,12.208-8.921	c0.599,0,1.237,0.049,1.786,0.141c2.423,0.316,4.571,1.325,6.355,2.789c2.832,2.375,4.664,5.898,4.664,9.833	C442.016,304.511,436.298,310.267,429.211,310.267"/><path fill="#2887C8" d="M188.105,185.116h-0.046c-1.465-0.362-2.928-0.547-4.484-0.547c-0.82,0-1.6,0.047-2.42,0.185h-0.047	c-9.74,1.187-17.286,9.513-17.286,19.615c0,10.104,7.593,18.429,17.378,19.569h0.043c0.781,0.141,1.556,0.183,2.332,0.183	c1.559,0,3.114-0.183,4.53-0.547h0.091c8.687-2.057,15.181-9.877,15.181-19.205C203.377,194.995,196.835,187.132,188.105,185.116 M187.556,216.485h-0.091c-1.237,0.412-2.562,0.641-3.89,0.641c-1.047,0-2.012-0.136-2.97-0.364h-0.046	c-5.623-1.37-9.74-6.448-9.74-12.393c0-5.987,4.117-11.065,9.695-12.394h0.045c1.004-0.271,1.969-0.406,3.016-0.406	c1.328,0,2.652,0.227,3.844,0.544c0.046,0.049,0.046,0.049,0.093,0.049c5.121,1.692,8.868,6.539,8.868,12.207	C196.38,210.041,192.676,214.842,187.556,216.485"/><path fill="#2887C8" d="M539.546,185.116c-7.088,1.65-12.711,7.091-14.584,14.135h3.609c0.23,0,0.503,0,0.729,0.088	c0.142,0,0.232,0,0.325,0.048c0.407,0.092,0.776,0.227,1.141,0.456c0.136,0.046,0.32,0.136,0.459,0.275	c0.136,0.089,0.273,0.181,0.408,0.32l0.184,0.18h0.049c1.232-4.021,4.297-7.131,8.276-8.455	C540.002,189.782,539.82,187.449,539.546,185.116 M539.546,185.116c-7.088,1.65-12.711,7.091-14.584,14.135h3.609	c0.23,0,0.503,0,0.729,0.088c0.142,0,0.232,0,0.325,0.048c0.407,0.092,0.776,0.227,1.141,0.456c0.136,0.046,0.32,0.136,0.459,0.275	c0.136,0.089,0.273,0.181,0.408,0.32l0.184,0.18h0.049c1.232-4.021,4.297-7.131,8.276-8.455	C540.002,189.782,539.82,187.449,539.546,185.116 M539.546,185.116c-7.088,1.65-12.711,7.091-14.584,14.135h3.609	c0.23,0,0.503,0,0.729,0.088c0.142,0,0.232,0,0.325,0.048c0.407,0.092,0.776,0.227,1.141,0.456c0.136,0.046,0.32,0.136,0.459,0.275	c0.136,0.089,0.273,0.181,0.408,0.32l0.184,0.18h0.049c1.232-4.021,4.297-7.131,8.276-8.455	C540.002,189.782,539.82,187.449,539.546,185.116 M539.546,185.116c-7.088,1.65-12.711,7.091-14.584,14.135h3.609	c0.23,0,0.503,0,0.729,0.088c0.142,0,0.232,0,0.325,0.048c0.407,0.092,0.776,0.227,1.141,0.456c0.136,0.046,0.32,0.136,0.459,0.275	c0.136,0.089,0.273,0.181,0.408,0.32l0.184,0.18h0.049c1.232-4.021,4.297-7.131,8.276-8.455	C540.002,189.782,539.82,187.449,539.546,185.116 M539.546,185.116c-7.088,1.65-12.711,7.091-14.584,14.135h3.609	c0.23,0,0.503,0,0.729,0.088c0.142,0,0.232,0,0.325,0.048c0.407,0.092,0.776,0.227,1.141,0.456c0.136,0.046,0.32,0.136,0.459,0.275	c0.136,0.089,0.273,0.181,0.408,0.32l0.184,0.18h0.049c1.232-4.021,4.297-7.131,8.276-8.455	C540.002,189.782,539.82,187.449,539.546,185.116 M539.546,185.116c-7.088,1.65-12.711,7.091-14.584,14.135h3.609	c0.23,0,0.503,0,0.729,0.088c0.142,0,0.232,0,0.325,0.048c0.407,0.092,0.776,0.227,1.141,0.456c0.136,0.046,0.32,0.136,0.459,0.275	c0.136,0.089,0.273,0.181,0.408,0.32l0.184,0.18h0.049c1.232-4.021,4.297-7.131,8.276-8.455	C540.002,189.782,539.82,187.449,539.546,185.116 M539.546,185.116c-7.088,1.65-12.711,7.091-14.584,14.135h3.609	c0.23,0,0.503,0,0.729,0.088c0.142,0,0.232,0,0.325,0.048c0.407,0.092,0.776,0.227,1.141,0.456c0.136,0.046,0.32,0.136,0.459,0.275	c0.136,0.089,0.273,0.181,0.408,0.32l0.184,0.18h0.049c1.232-4.021,4.297-7.131,8.276-8.455	C540.002,189.782,539.82,187.449,539.546,185.116 M539.684,185.116h-0.138c-7.089,1.65-12.713,7.091-14.584,14.135h3.609	c0.229,0,0.503,0,0.729,0.088c0.141,0,0.232,0,0.325,0.048c0.407,0.092,0.774,0.227,1.141,0.456c0.134,0.046,0.32,0.136,0.457,0.275	c0.138,0.089,0.275,0.181,0.41,0.32l0.184,0.18h0.049c1.232-4.021,4.297-7.131,8.274-8.455c0.046,0,0.093-0.05,0.137-0.05	C540.141,189.782,539.914,187.449,539.684,185.116 M539.684,185.116h-0.138c-7.089,1.65-12.713,7.091-14.584,14.135h3.609	c0.229,0,0.503,0,0.729,0.088c0.141,0,0.232,0,0.325,0.048c0.407,0.092,0.774,0.227,1.141,0.456c0.134,0.046,0.32,0.136,0.457,0.275	c0.138,0.089,0.275,0.181,0.41,0.32l0.184,0.18h0.049c1.232-4.021,4.297-7.131,8.274-8.455c0.046,0,0.093-0.05,0.137-0.05	C540.141,189.782,539.914,187.449,539.684,185.116 M539.684,185.116h-0.138c-7.089,1.65-12.713,7.091-14.584,14.135h3.609	c0.229,0,0.503,0,0.729,0.088c0.141,0,0.232,0,0.325,0.048c0.407,0.092,0.774,0.227,1.141,0.456c0.134,0.046,0.32,0.136,0.457,0.275	c0.138,0.089,0.275,0.181,0.41,0.32l0.184,0.18h0.049c1.232-4.021,4.297-7.131,8.274-8.455c0.046,0,0.093-0.05,0.137-0.05	C540.141,189.782,539.914,187.449,539.684,185.116 M546.543,184.754c-0.777-0.092-1.65-0.185-2.468-0.185	c-1.511,0-2.974,0.185-4.392,0.547h-0.138c-7.088,1.65-12.711,7.091-14.584,14.135c-0.46,1.644-0.688,3.334-0.688,5.12	c0,1.37,0.136,2.742,0.412,4.023c1.552,7.497,7.359,13.443,14.815,15.18h0.088c1.42,0.364,2.928,0.55,4.484,0.55	c0.776,0,1.551-0.045,2.375-0.186h0.05c9.734-1.145,17.328-9.464,17.328-19.569C563.827,194.267,556.281,185.985,546.543,184.754 M547.091,216.762c-0.961,0.229-1.966,0.364-3.016,0.364c-1.328,0-2.561-0.229-3.798-0.591c-0.044,0-0.137-0.05-0.184-0.05	c-4.204-1.372-7.452-4.891-8.41-9.281v-0.046c-0.276-0.917-0.369-1.829-0.369-2.787c0-1.281,0.185-2.516,0.552-3.705v-0.05	c1.232-4.019,4.297-7.131,8.276-8.453c0.044,0,0.091-0.05,0.136-0.05c1.188-0.318,2.469-0.547,3.797-0.547	c1.052,0,2.104,0.138,3.063,0.413c5.577,1.323,9.694,6.399,9.694,12.392C556.83,210.313,552.671,215.392,547.091,216.762 M539.684,185.116h-0.138c-7.089,1.65-12.713,7.091-14.584,14.135h3.609c0.229,0,0.503,0,0.729,0.088c0.141,0,0.232,0,0.325,0.048	c0.407,0.092,0.774,0.227,1.141,0.456c0.134,0.046,0.32,0.136,0.457,0.275c0.138,0.089,0.275,0.181,0.41,0.32l0.184,0.18h0.049	c1.232-4.021,4.297-7.131,8.274-8.455c0.046,0,0.093-0.05,0.137-0.05C540.141,189.782,539.914,187.449,539.684,185.116 M539.684,185.116h-0.138c-7.089,1.65-12.713,7.091-14.584,14.135h3.609c0.229,0,0.503,0,0.729,0.088c0.141,0,0.232,0,0.325,0.048	c0.407,0.092,0.774,0.227,1.141,0.456c0.134,0.046,0.32,0.136,0.457,0.275c0.138,0.089,0.275,0.181,0.41,0.32l0.184,0.18h0.049	c1.232-4.021,4.297-7.131,8.274-8.455c0.046,0,0.093-0.05,0.137-0.05C540.141,189.782,539.914,187.449,539.684,185.116 M539.684,185.116h-0.138c-7.089,1.65-12.713,7.091-14.584,14.135h3.609c0.229,0,0.503,0,0.729,0.088c0.141,0,0.232,0,0.325,0.048	c0.407,0.092,0.774,0.227,1.141,0.456c0.134,0.046,0.32,0.136,0.457,0.275c0.138,0.089,0.275,0.181,0.41,0.32l0.184,0.18h0.049	c1.232-4.021,4.297-7.131,8.274-8.455c0.046,0,0.093-0.05,0.137-0.05C540.141,189.782,539.914,187.449,539.684,185.116 M539.546,185.116c-7.088,1.65-12.711,7.091-14.584,14.135h3.609c0.23,0,0.503,0,0.729,0.088c0.142,0,0.232,0,0.325,0.048	c0.407,0.092,0.776,0.227,1.141,0.456c0.136,0.046,0.32,0.136,0.459,0.275c0.136,0.089,0.273,0.181,0.408,0.32l0.184,0.18h0.049	c1.232-4.021,4.297-7.131,8.276-8.455C540.002,189.782,539.82,187.449,539.546,185.116 M539.546,185.116	c-7.088,1.65-12.711,7.091-14.584,14.135h3.609c0.23,0,0.503,0,0.729,0.088c0.142,0,0.232,0,0.325,0.048	c0.407,0.092,0.776,0.227,1.141,0.456c0.136,0.046,0.32,0.136,0.459,0.275c0.136,0.089,0.273,0.181,0.408,0.32l0.184,0.18h0.049	c1.232-4.021,4.297-7.131,8.276-8.455C540.002,189.782,539.82,187.449,539.546,185.116 M539.546,185.116	c-7.088,1.65-12.711,7.091-14.584,14.135h3.609c0.23,0,0.503,0,0.729,0.088c0.142,0,0.232,0,0.325,0.048	c0.407,0.092,0.776,0.227,1.141,0.456c0.136,0.046,0.32,0.136,0.459,0.275c0.136,0.089,0.273,0.181,0.408,0.32l0.184,0.18h0.049	c1.232-4.021,4.297-7.131,8.276-8.455C540.002,189.782,539.82,187.449,539.546,185.116 M539.546,185.116	c-7.088,1.65-12.711,7.091-14.584,14.135h3.609c0.23,0,0.503,0,0.729,0.088c0.142,0,0.232,0,0.325,0.048	c0.407,0.092,0.776,0.227,1.141,0.456c0.136,0.046,0.32,0.136,0.459,0.275c0.136,0.089,0.273,0.181,0.408,0.32l0.184,0.18h0.049	c1.232-4.021,4.297-7.131,8.276-8.455C540.002,189.782,539.82,187.449,539.546,185.116 M539.546,185.116	c-7.088,1.65-12.711,7.091-14.584,14.135h3.609c0.23,0,0.503,0,0.729,0.088c0.142,0,0.232,0,0.325,0.048	c0.407,0.092,0.776,0.227,1.141,0.456c0.136,0.046,0.32,0.136,0.459,0.275c0.136,0.089,0.273,0.181,0.408,0.32l0.184,0.18h0.049	c1.232-4.021,4.297-7.131,8.276-8.455C540.002,189.782,539.82,187.449,539.546,185.116 M539.546,185.116	c-7.088,1.65-12.711,7.091-14.584,14.135h3.609c0.23,0,0.503,0,0.729,0.088c0.142,0,0.232,0,0.325,0.048	c0.407,0.092,0.776,0.227,1.141,0.456c0.136,0.046,0.32,0.136,0.459,0.275c0.136,0.089,0.273,0.181,0.408,0.32l0.184,0.18h0.049	c1.232-4.021,4.297-7.131,8.276-8.455C540.002,189.782,539.82,187.449,539.546,185.116 M539.546,185.116	c-7.088,1.65-12.711,7.091-14.584,14.135h3.609c0.23,0,0.503,0,0.729,0.088c0.142,0,0.232,0,0.325,0.048	c0.407,0.092,0.776,0.227,1.141,0.456c0.136,0.046,0.32,0.136,0.459,0.275c0.136,0.089,0.273,0.181,0.408,0.32l0.184,0.18h0.049	c1.232-4.021,4.297-7.131,8.276-8.455C540.002,189.782,539.82,187.449,539.546,185.116 M539.546,185.116	c-7.088,1.65-12.711,7.091-14.584,14.135h3.609c0.23,0,0.503,0,0.729,0.088c0.142,0,0.232,0,0.325,0.048	c0.407,0.092,0.776,0.227,1.141,0.456c0.136,0.046,0.32,0.136,0.459,0.275c0.136,0.089,0.273,0.181,0.408,0.32l0.232,0.228v-0.048	c1.232-4.021,4.297-7.131,8.276-8.455C540.002,189.782,539.82,187.449,539.546,185.116"/><path fill="#2887C8" d="M370.09,35.002c-0.867,0.506-1.783,0.87-2.744,1.145c-1.146,0.321-2.287,0.504-3.521,0.504	c-1.235,0-2.381-0.184-3.477-0.504c-1.004-0.275-1.92-0.638-2.787-1.145c-2.061-1.142-3.752-2.879-4.893-4.933	c-0.412-0.734-0.732-1.468-1.009-2.289c-2.377,0.137-4.755,0.363-7.088,0.641c0.597,2.511,1.692,4.843,3.203,6.902	c1.281,1.922,3.016,3.568,4.937,4.85c2.289,1.551,4.8,2.65,7.636,3.107c1.097,0.276,2.29,0.367,3.478,0.367s2.331-0.091,3.519-0.32	c2.788-0.504,5.397-1.603,7.638-3.154C373.197,38.253,371.555,36.56,370.09,35.002 M370.09,35.002	c-0.867,0.506-1.783,0.87-2.744,1.145c-1.146,0.321-2.287,0.504-3.521,0.504c-1.235,0-2.381-0.184-3.477-0.504	c-1.004-0.275-1.92-0.638-2.787-1.145c-2.061-1.142-3.752-2.879-4.893-4.933c-0.412-0.734-0.732-1.468-1.009-2.289	c-2.377,0.137-4.755,0.363-7.088,0.641c0.597,2.511,1.692,4.843,3.203,6.902c1.281,1.922,3.016,3.568,4.937,4.85	c2.289,1.551,4.8,2.65,7.636,3.107c1.097,0.276,2.29,0.367,3.478,0.367s2.331-0.091,3.519-0.32c2.788-0.504,5.397-1.603,7.638-3.154	C373.197,38.253,371.555,36.56,370.09,35.002 M370.09,35.002c-0.867,0.506-1.783,0.87-2.744,1.145	c-1.146,0.321-2.287,0.504-3.521,0.504c-1.235,0-2.381-0.184-3.477-0.504c-1.004-0.275-1.92-0.638-2.787-1.145	c-2.061-1.142-3.752-2.879-4.893-4.933c-0.412-0.734-0.732-1.468-1.009-2.289c-2.377,0.137-4.755,0.363-7.088,0.641	c0.597,2.511,1.692,4.843,3.203,6.902c1.281,1.922,3.016,3.568,4.937,4.85c2.289,1.551,4.8,2.65,7.636,3.107	c1.097,0.276,2.29,0.367,3.478,0.367s2.331-0.091,3.519-0.32c2.788-0.504,5.397-1.603,7.638-3.154	C373.197,38.253,371.555,36.56,370.09,35.002 M370.09,35.002c-0.867,0.506-1.783,0.87-2.744,1.145	c-1.146,0.321-2.287,0.504-3.521,0.504c-1.235,0-2.381-0.184-3.477-0.504c-1.004-0.275-1.92-0.638-2.787-1.145	c-2.061-1.142-3.752-2.879-4.893-4.933c-0.412-0.734-0.732-1.468-1.009-2.289c-2.377,0.137-4.755,0.363-7.088,0.641	c0.597,2.511,1.692,4.843,3.203,6.902c1.281,1.922,3.016,3.568,4.937,4.85c2.289,1.551,4.8,2.65,7.636,3.107	c1.097,0.276,2.29,0.367,3.478,0.367s2.331-0.091,3.519-0.32c2.788-0.504,5.397-1.603,7.638-3.154	C373.197,38.253,371.555,36.56,370.09,35.002 M370.09,35.002c-0.867,0.506-1.783,0.87-2.744,1.145	c-1.146,0.321-2.287,0.504-3.521,0.504c-1.235,0-2.381-0.184-3.477-0.504c-1.004-0.275-1.92-0.638-2.787-1.145	c-2.061-1.142-3.752-2.879-4.893-4.933c-0.412-0.734-0.732-1.468-1.009-2.289c-2.377,0.137-4.755,0.363-7.088,0.641	c0.597,2.511,1.692,4.843,3.203,6.902c1.281,1.922,3.016,3.568,4.937,4.85c2.289,1.551,4.8,2.65,7.636,3.107	c1.097,0.276,2.29,0.367,3.478,0.367s2.331-0.091,3.519-0.32c2.788-0.504,5.397-1.603,7.638-3.154	C373.197,38.253,371.555,36.56,370.09,35.002 M370.09,35.002c-0.867,0.506-1.783,0.87-2.744,1.145	c-1.146,0.321-2.287,0.504-3.521,0.504c-1.235,0-2.381-0.184-3.477-0.504c-1.004-0.275-1.92-0.638-2.787-1.145	c-2.061-1.142-3.752-2.879-4.893-4.933c-0.412-0.734-0.732-1.468-1.009-2.289c-2.377,0.137-4.755,0.363-7.088,0.641	c0.597,2.511,1.692,4.843,3.203,6.902c1.281,1.922,3.016,3.568,4.937,4.85c2.289,1.551,4.8,2.65,7.636,3.107	c1.097,0.276,2.29,0.367,3.478,0.367s2.331-0.091,3.519-0.32c2.788-0.504,5.397-1.603,7.638-3.154	C373.197,38.253,371.555,36.56,370.09,35.002 M370.09,35.002c-0.867,0.506-1.783,0.87-2.744,1.145	c-1.146,0.321-2.287,0.504-3.521,0.504c-1.235,0-2.381-0.184-3.477-0.504c-1.004-0.275-1.92-0.638-2.787-1.145	c-2.061-1.142-3.752-2.879-4.893-4.933c-0.412-0.734-0.732-1.468-1.009-2.289c-2.377,0.137-4.755,0.363-7.088,0.641	c0.597,2.511,1.692,4.843,3.203,6.902c1.281,1.922,3.016,3.568,4.937,4.85c2.289,1.551,4.8,2.65,7.636,3.107	c1.097,0.276,2.29,0.367,3.478,0.367s2.331-0.091,3.519-0.32c2.788-0.504,5.397-1.603,7.638-3.154	C373.197,38.253,371.555,36.56,370.09,35.002 M370.09,35.002c-0.867,0.506-1.783,0.87-2.744,1.145	c-1.146,0.321-2.287,0.504-3.521,0.504c-1.235,0-2.381-0.184-3.477-0.504c-1.004-0.275-1.92-0.638-2.787-1.145	c-1.466,1.557-3.064,3.25-4.85,5.17c2.289,1.551,4.801,2.65,7.637,3.107c1.096,0.275,2.289,0.367,3.477,0.367	s2.333-0.092,3.521-0.32c2.787-0.504,5.396-1.603,7.636-3.155C373.197,38.253,371.555,36.56,370.09,35.002 M370.09,35.002	c-0.867,0.506-1.783,0.87-2.744,1.145c-1.146,0.321-2.287,0.504-3.521,0.504c-1.235,0-2.381-0.184-3.477-0.504	c-1.004-0.275-1.92-0.638-2.787-1.145c-2.061-1.142-3.752-2.879-4.893-4.933c-0.412-0.734-0.732-1.468-1.009-2.289	c-2.377,0.137-4.755,0.363-7.088,0.641c0.597,2.511,1.692,4.843,3.203,6.902c1.281,1.922,3.016,3.568,4.937,4.85	c2.289,1.551,4.8,2.65,7.636,3.107c1.097,0.276,2.29,0.367,3.478,0.367s2.331-0.091,3.519-0.32c2.788-0.504,5.397-1.603,7.638-3.154	C373.197,38.253,371.555,36.56,370.09,35.002 M370.09,35.002c-0.867,0.506-1.783,0.87-2.744,1.145	c-1.146,0.321-2.287,0.504-3.521,0.504c-1.235,0-2.381-0.184-3.477-0.504c-1.004-0.275-1.92-0.638-2.787-1.145	c-2.061-1.142-3.752-2.879-4.893-4.933c-0.412-0.734-0.732-1.468-1.009-2.289c-2.377,0.137-4.755,0.363-7.088,0.641	c0.597,2.511,1.692,4.843,3.203,6.902c1.281,1.922,3.016,3.568,4.937,4.85c2.289,1.551,4.8,2.65,7.636,3.107	c1.097,0.276,2.29,0.367,3.478,0.367s2.331-0.091,3.519-0.32c2.788-0.504,5.397-1.603,7.638-3.154	C373.197,38.253,371.555,36.56,370.09,35.002 M370.09,35.002c-0.867,0.506-1.783,0.87-2.744,1.145	c-1.146,0.321-2.287,0.504-3.521,0.504c-1.235,0-2.381-0.184-3.477-0.504c-1.004-0.275-1.92-0.638-2.787-1.145	c-2.061-1.142-3.752-2.879-4.893-4.933c-0.412-0.734-0.732-1.468-1.009-2.289c-2.377,0.137-4.755,0.363-7.088,0.641	c0.597,2.511,1.692,4.843,3.203,6.902c1.281,1.922,3.016,3.568,4.937,4.85c2.289,1.551,4.8,2.65,7.636,3.107	c1.097,0.276,2.29,0.367,3.478,0.367s2.331-0.091,3.519-0.32c2.788-0.504,5.397-1.603,7.638-3.154	C373.197,38.253,371.555,36.56,370.09,35.002 M370.09,35.002c-0.867,0.506-1.783,0.87-2.744,1.145	c-1.146,0.321-2.287,0.504-3.521,0.504c-1.235,0-2.381-0.184-3.477-0.504c-1.004-0.275-1.92-0.638-2.787-1.145	c-2.061-1.142-3.752-2.879-4.893-4.933c-0.412-0.734-0.732-1.468-1.009-2.289c-2.377,0.137-4.755,0.363-7.088,0.641	c0.597,2.511,1.692,4.843,3.203,6.902c1.281,1.922,3.016,3.568,4.937,4.85c2.289,1.551,4.8,2.65,7.636,3.107	c1.097,0.276,2.29,0.367,3.478,0.367s2.331-0.091,3.519-0.32c2.788-0.504,5.397-1.603,7.638-3.154	C373.197,38.253,371.555,36.56,370.09,35.002 M370.09,35.002c-0.867,0.506-1.783,0.87-2.744,1.145	c-1.146,0.321-2.287,0.504-3.521,0.504c-1.235,0-2.381-0.184-3.477-0.504c-1.004-0.275-1.92-0.638-2.787-1.145	c-2.061-1.142-3.752-2.879-4.893-4.933c-0.412-0.734-0.732-1.468-1.009-2.289c-2.377,0.137-4.755,0.363-7.088,0.641	c0.597,2.511,1.692,4.843,3.203,6.902c1.281,1.922,3.016,3.568,4.937,4.85c2.289,1.551,4.8,2.65,7.636,3.107	c1.097,0.276,2.29,0.367,3.478,0.367s2.331-0.091,3.519-0.32c2.788-0.504,5.397-1.603,7.638-3.154	C373.197,38.253,371.555,36.56,370.09,35.002 M370.09,35.002c-0.867,0.506-1.783,0.87-2.744,1.145	c-1.146,0.321-2.287,0.504-3.521,0.504c-1.235,0-2.381-0.184-3.477-0.504c-1.004-0.275-1.92-0.638-2.787-1.145	c-2.061-1.142-3.752-2.879-4.893-4.933c-0.412-0.734-0.732-1.468-1.009-2.289c-2.377,0.137-4.755,0.363-7.088,0.641	c0.597,2.511,1.692,4.843,3.203,6.902c1.281,1.922,3.016,3.568,4.937,4.85c2.289,1.551,4.8,2.65,7.636,3.107	c1.097,0.276,2.29,0.367,3.478,0.367s2.331-0.091,3.519-0.32c2.788-0.504,5.397-1.603,7.638-3.154	C373.197,38.253,371.555,36.56,370.09,35.002 M370.09,35.002c-0.867,0.506-1.783,0.87-2.744,1.145	c-1.146,0.321-2.287,0.504-3.521,0.504c-1.235,0-2.381-0.184-3.477-0.504c-1.004-0.275-1.92-0.638-2.787-1.145	c-2.061-1.142-3.752-2.879-4.893-4.933c-0.412-0.734-0.732-1.468-1.009-2.289c-2.377,0.137-4.755,0.363-7.088,0.641	c0.597,2.511,1.692,4.843,3.203,6.902c1.281,1.922,3.016,3.568,4.937,4.85c2.289,1.551,4.8,2.65,7.636,3.107	c1.097,0.276,2.29,0.367,3.478,0.367s2.331-0.091,3.519-0.32c2.788-0.504,5.397-1.603,7.638-3.154	C373.197,38.253,371.555,36.56,370.09,35.002 M370.09,35.002c-0.867,0.506-1.783,0.87-2.744,1.145	c-1.146,0.321-2.287,0.504-3.521,0.504c-1.235,0-2.381-0.184-3.477-0.504c-1.004-0.275-1.92-0.638-2.787-1.145	c-2.061-1.142-3.752-2.879-4.893-4.933c-0.412-0.734-0.732-1.468-1.009-2.289c-2.377,0.137-4.755,0.363-7.088,0.641	c0.597,2.511,1.692,4.843,3.203,6.902c1.281,1.922,3.016,3.568,4.937,4.85c2.289,1.551,4.8,2.65,7.636,3.107	c1.097,0.276,2.29,0.367,3.478,0.367s2.331-0.091,3.519-0.32c2.788-0.504,5.397-1.603,7.638-3.154	C373.197,38.253,371.555,36.56,370.09,35.002 M370.09,35.002c-0.867,0.506-1.783,0.87-2.744,1.145	c-1.146,0.321-2.287,0.504-3.521,0.504c-1.235,0-2.381-0.184-3.477-0.504c-1.004-0.275-1.92-0.638-2.787-1.145	c-1.466,1.557-3.064,3.25-4.85,5.17c2.289,1.551,4.801,2.65,7.637,3.107c1.096,0.275,2.289,0.367,3.477,0.367	s2.333-0.092,3.521-0.32c2.787-0.504,5.396-1.603,7.636-3.155C373.197,38.253,371.555,36.56,370.09,35.002 M370.09,35.002	c-0.867,0.506-1.783,0.87-2.744,1.145c-1.146,0.321-2.287,0.504-3.521,0.504c-1.235,0-2.381-0.184-3.477-0.504	c-1.004-0.275-1.92-0.638-2.787-1.145c-1.466,1.557-3.064,3.25-4.85,5.17c2.289,1.551,4.801,2.65,7.637,3.107	c1.096,0.275,2.289,0.367,3.477,0.367s2.333-0.092,3.521-0.32c2.787-0.504,5.396-1.603,7.636-3.155	C373.197,38.253,371.555,36.56,370.09,35.002 M370.09,35.002c-0.867,0.506-1.783,0.87-2.744,1.145	c-1.146,0.321-2.287,0.504-3.521,0.504c-1.235,0-2.381-0.184-3.477-0.504c-1.004-0.275-1.92-0.638-2.787-1.145	c-1.466,1.557-3.064,3.25-4.85,5.17c2.289,1.551,4.801,2.65,7.637,3.107c1.096,0.275,2.289,0.367,3.477,0.367	s2.333-0.092,3.521-0.32c2.787-0.504,5.396-1.603,7.636-3.155C373.197,38.253,371.555,36.56,370.09,35.002 M383.44,21.468v-0.044	c-1.188-9.785-9.554-17.332-19.615-17.332c-10.059,0-18.381,7.547-19.571,17.332v0.044c-0.18,0.781-0.18,1.556-0.18,2.38	c0,1.6,0.18,3.065,0.5,4.523v0.048c0.595,2.512,1.692,4.844,3.203,6.902c1.281,1.922,3.016,3.568,4.936,4.85	c2.289,1.551,4.8,2.65,7.638,3.107c1.096,0.275,2.287,0.367,3.477,0.367c1.188,0,2.331-0.092,3.521-0.32	c2.785-0.504,5.395-1.603,7.636-3.155c1.92-1.281,3.567-2.927,4.891-4.85c1.508-2.059,2.561-4.39,3.156-6.902v-0.094	c0.41-1.414,0.595-2.922,0.595-4.478C383.625,23.024,383.578,22.25,383.44,21.468 M376.033,27.781c-0.32,0.82-0.639,1.6-1.052,2.332	c-1.144,2.012-2.834,3.748-4.892,4.891c-0.867,0.506-1.783,0.87-2.744,1.145c-1.146,0.32-2.287,0.504-3.521,0.504	c-1.235,0-2.381-0.184-3.477-0.504c-1.004-0.275-1.92-0.639-2.787-1.145c-2.061-1.143-3.752-2.879-4.893-4.933	c-0.412-0.735-0.732-1.469-1.009-2.289v-0.093c-0.411-1.19-0.591-2.516-0.591-3.84c0-1.052,0.135-2.014,0.362-3.018v-0.047	c1.374-5.58,6.401-9.695,12.394-9.695c5.987,0,11.019,4.116,12.393,9.695v0.047c0.227,1.004,0.409,1.966,0.409,3.018	c0,1.324-0.227,2.65-0.596,3.84v0.092H376.033z M370.09,35.002c-0.867,0.506-1.783,0.87-2.744,1.145	c-1.146,0.321-2.287,0.504-3.521,0.504c-1.235,0-2.381-0.184-3.477-0.504c-1.004-0.275-1.92-0.638-2.787-1.145	c-1.466,1.557-3.064,3.25-4.85,5.17c2.289,1.551,4.801,2.65,7.637,3.107c1.096,0.275,2.289,0.367,3.477,0.367	s2.333-0.092,3.521-0.32c2.787-0.504,5.396-1.603,7.636-3.155C373.197,38.253,371.555,36.56,370.09,35.002 M370.09,35.002	c-0.867,0.506-1.783,0.87-2.744,1.145c-1.146,0.321-2.287,0.504-3.521,0.504c-1.235,0-2.381-0.184-3.477-0.504	c-1.004-0.275-1.92-0.638-2.787-1.145c-1.466,1.557-3.064,3.25-4.85,5.17c2.289,1.551,4.801,2.65,7.637,3.107	c1.096,0.275,2.289,0.367,3.477,0.367s2.333-0.092,3.521-0.32c2.787-0.504,5.396-1.603,7.636-3.155	C373.197,38.253,371.555,36.56,370.09,35.002 M370.09,35.002c-0.867,0.506-1.783,0.87-2.744,1.145	c-1.146,0.321-2.287,0.504-3.521,0.504c-1.235,0-2.381-0.184-3.477-0.504c-1.004-0.275-1.92-0.638-2.787-1.145	c-1.466,1.557-3.064,3.25-4.85,5.17c2.289,1.551,4.801,2.65,7.637,3.107c1.096,0.275,2.289,0.367,3.477,0.367	s2.333-0.092,3.521-0.32c2.787-0.504,5.396-1.603,7.636-3.155C373.197,38.253,371.555,36.56,370.09,35.002 M370.09,35.002	c-0.867,0.506-1.783,0.87-2.744,1.145c-1.146,0.321-2.287,0.504-3.521,0.504c-1.235,0-2.381-0.184-3.477-0.504	c-1.004-0.275-1.92-0.638-2.787-1.145c-2.061-1.142-3.752-2.879-4.893-4.933c-0.412-0.734-0.732-1.468-1.009-2.289	c-2.377,0.137-4.755,0.363-7.088,0.641c0.597,2.511,1.692,4.843,3.203,6.902c1.281,1.922,3.016,3.568,4.937,4.85	c2.289,1.551,4.8,2.65,7.636,3.107c1.097,0.276,2.29,0.367,3.478,0.367s2.331-0.091,3.519-0.32c2.788-0.504,5.397-1.603,7.638-3.154	C373.197,38.253,371.555,36.56,370.09,35.002 M370.09,35.002c-0.867,0.506-1.783,0.87-2.744,1.145	c-1.146,0.321-2.287,0.504-3.521,0.504c-1.235,0-2.381-0.184-3.477-0.504c-1.004-0.275-1.92-0.638-2.787-1.145	c-2.061-1.142-3.752-2.879-4.893-4.933c-0.412-0.734-0.732-1.468-1.009-2.289c-2.377,0.137-4.755,0.363-7.088,0.641	c0.597,2.511,1.692,4.843,3.203,6.902c1.281,1.922,3.016,3.568,4.937,4.85c2.289,1.551,4.8,2.65,7.636,3.107	c1.097,0.276,2.29,0.367,3.478,0.367s2.331-0.091,3.519-0.32c2.788-0.504,5.397-1.603,7.638-3.154	C373.197,38.253,371.555,36.56,370.09,35.002 M370.09,35.002c-0.867,0.506-1.783,0.87-2.744,1.145	c-1.146,0.321-2.287,0.504-3.521,0.504c-1.235,0-2.381-0.184-3.477-0.504c-1.004-0.275-1.92-0.638-2.787-1.145	c-2.061-1.142-3.752-2.879-4.893-4.933c-0.412-0.734-0.732-1.468-1.009-2.289c-2.377,0.137-4.755,0.363-7.088,0.641	c0.597,2.511,1.692,4.843,3.203,6.902c1.281,1.922,3.016,3.568,4.937,4.85c2.289,1.551,4.8,2.65,7.636,3.107	c1.097,0.276,2.29,0.367,3.478,0.367s2.331-0.091,3.519-0.32c2.788-0.504,5.397-1.603,7.638-3.154	C373.197,38.253,371.555,36.56,370.09,35.002 M370.09,35.002c-0.867,0.506-1.783,0.87-2.744,1.145	c-1.146,0.321-2.287,0.504-3.521,0.504c-1.235,0-2.381-0.184-3.477-0.504c-1.004-0.275-1.92-0.638-2.787-1.145	c-2.061-1.142-3.752-2.879-4.893-4.933c-0.412-0.734-0.732-1.468-1.009-2.289c-2.377,0.137-4.755,0.363-7.088,0.641	c0.597,2.511,1.692,4.843,3.203,6.902c1.281,1.922,3.016,3.568,4.937,4.85c2.289,1.551,4.8,2.65,7.636,3.107	c1.097,0.276,2.29,0.367,3.478,0.367s2.331-0.091,3.519-0.32c2.788-0.504,5.397-1.603,7.638-3.154	C373.197,38.253,371.555,36.56,370.09,35.002 M370.09,35.002c-0.867,0.506-1.783,0.87-2.744,1.145	c-1.146,0.321-2.287,0.504-3.521,0.504c-1.235,0-2.381-0.184-3.477-0.504c-1.004-0.275-1.92-0.638-2.787-1.145	c-2.061-1.142-3.752-2.879-4.893-4.933c-0.412-0.734-0.732-1.468-1.009-2.289c-2.377,0.137-4.755,0.363-7.088,0.641	c0.597,2.511,1.692,4.843,3.203,6.902c1.281,1.922,3.016,3.568,4.937,4.85c2.289,1.551,4.8,2.65,7.636,3.107	c1.097,0.276,2.29,0.367,3.478,0.367s2.331-0.091,3.519-0.32c2.788-0.504,5.397-1.603,7.638-3.154	C373.197,38.253,371.555,36.56,370.09,35.002 M370.09,35.002c-0.867,0.506-1.783,0.87-2.744,1.145	c-1.146,0.321-2.287,0.504-3.521,0.504c-1.235,0-2.381-0.184-3.477-0.504c-1.004-0.275-1.92-0.638-2.787-1.145	c-2.061-1.142-3.752-2.879-4.893-4.933c-0.412-0.734-0.732-1.468-1.009-2.289c-2.377,0.137-4.755,0.363-7.088,0.641	c0.597,2.511,1.692,4.843,3.203,6.902c1.281,1.922,3.016,3.568,4.937,4.85c2.289,1.551,4.8,2.65,7.636,3.107	c1.097,0.276,2.29,0.367,3.478,0.367s2.331-0.091,3.519-0.32c2.788-0.504,5.397-1.603,7.638-3.154	C373.197,38.253,371.555,36.56,370.09,35.002 M370.09,35.002c-0.867,0.506-1.783,0.87-2.744,1.145	c-1.146,0.321-2.287,0.504-3.521,0.504c-1.235,0-2.381-0.184-3.477-0.504c-1.004-0.275-1.92-0.638-2.787-1.145	c-2.061-1.142-3.752-2.879-4.893-4.933c-0.412-0.734-0.732-1.468-1.009-2.289c-2.377,0.137-4.755,0.363-7.088,0.641	c0.597,2.511,1.692,4.843,3.203,6.902c1.281,1.922,3.016,3.568,4.937,4.85c2.289,1.551,4.8,2.65,7.636,3.107	c1.097,0.276,2.29,0.367,3.478,0.367s2.331-0.091,3.519-0.32c2.788-0.504,5.397-1.603,7.638-3.154	C373.197,38.253,371.555,36.56,370.09,35.002 M370.09,35.002c-0.867,0.506-1.783,0.87-2.744,1.145	c-1.146,0.321-2.287,0.504-3.521,0.504c-1.235,0-2.381-0.184-3.477-0.504c-1.004-0.275-1.92-0.638-2.787-1.145	c-1.466,1.557-3.064,3.25-4.85,5.17c2.289,1.551,4.801,2.65,7.637,3.107c1.096,0.275,2.289,0.367,3.477,0.367	s2.333-0.092,3.521-0.32c2.787-0.504,5.396-1.603,7.636-3.155C373.197,38.253,371.555,36.56,370.09,35.002 M370.09,35.002	c-0.867,0.506-1.783,0.87-2.744,1.145c-1.146,0.321-2.287,0.504-3.521,0.504c-1.235,0-2.381-0.184-3.477-0.504	c-1.004-0.275-1.92-0.638-2.787-1.145c-1.466,1.557-3.064,3.25-4.85,5.17c2.289,1.551,4.801,2.65,7.637,3.107	c1.096,0.275,2.289,0.367,3.477,0.367s2.333-0.092,3.521-0.32c2.787-0.504,5.396-1.603,7.636-3.155	C373.197,38.253,371.555,36.56,370.09,35.002 M370.09,35.002c-0.867,0.506-1.783,0.87-2.744,1.145	c-1.146,0.321-2.287,0.504-3.521,0.504c-1.235,0-2.381-0.184-3.477-0.504c-1.004-0.275-1.92-0.638-2.787-1.145	c-2.061-1.142-3.752-2.879-4.893-4.933c-0.412-0.734-0.732-1.468-1.009-2.289c-2.377,0.137-4.755,0.363-7.088,0.641	c0.597,2.511,1.692,4.843,3.203,6.902c1.281,1.922,3.016,3.568,4.937,4.85c2.289,1.551,4.8,2.65,7.636,3.107	c1.097,0.276,2.29,0.367,3.478,0.367s2.331-0.091,3.519-0.32c2.788-0.504,5.397-1.603,7.638-3.154	C373.197,38.253,371.555,36.56,370.09,35.002 M370.09,35.002c-0.867,0.506-1.783,0.87-2.744,1.145	c-1.146,0.321-2.287,0.504-3.521,0.504c-1.235,0-2.381-0.184-3.477-0.504c-1.004-0.275-1.92-0.638-2.787-1.145	c-2.061-1.142-3.752-2.879-4.893-4.933c-0.412-0.734-0.732-1.468-1.009-2.289c-2.377,0.137-4.755,0.363-7.088,0.641	c0.597,2.511,1.692,4.843,3.203,6.902c1.281,1.922,3.016,3.568,4.937,4.85c2.289,1.551,4.8,2.65,7.636,3.107	c1.097,0.276,2.29,0.367,3.478,0.367s2.331-0.091,3.519-0.32c2.788-0.504,5.397-1.603,7.638-3.154	C373.197,38.253,371.555,36.56,370.09,35.002 M370.09,35.002c-0.867,0.506-1.783,0.87-2.744,1.145	c-1.146,0.321-2.287,0.504-3.521,0.504c-1.235,0-2.381-0.184-3.477-0.504c-1.004-0.275-1.92-0.638-2.787-1.145	c-2.061-1.142-3.752-2.879-4.893-4.933c-0.412-0.734-0.732-1.468-1.009-2.289c-2.377,0.137-4.755,0.363-7.088,0.641	c0.597,2.511,1.692,4.843,3.203,6.902c1.281,1.922,3.016,3.568,4.937,4.85c2.289,1.551,4.8,2.65,7.636,3.107	c1.097,0.276,2.29,0.367,3.478,0.367s2.331-0.091,3.519-0.32c2.788-0.504,5.397-1.603,7.638-3.154	C373.197,38.253,371.555,36.56,370.09,35.002 M370.09,35.002c-0.867,0.506-1.783,0.87-2.744,1.145	c-1.146,0.321-2.287,0.504-3.521,0.504c-1.235,0-2.381-0.184-3.477-0.504c-1.004-0.275-1.92-0.638-2.787-1.145	c-2.061-1.142-3.752-2.879-4.893-4.933c-0.412-0.734-0.732-1.468-1.009-2.289c-2.377,0.137-4.755,0.363-7.088,0.641	c0.597,2.511,1.692,4.843,3.203,6.902c1.281,1.922,3.016,3.568,4.937,4.85c2.289,1.551,4.8,2.65,7.636,3.107	c1.097,0.276,2.29,0.367,3.478,0.367s2.331-0.091,3.519-0.32c2.788-0.504,5.397-1.603,7.638-3.154	C373.197,38.253,371.555,36.56,370.09,35.002 M370.09,35.002c-0.867,0.506-1.783,0.87-2.744,1.145	c-1.146,0.321-2.287,0.504-3.521,0.504c-1.235,0-2.381-0.184-3.477-0.504c-1.004-0.275-1.92-0.638-2.787-1.145	c-2.061-1.142-3.752-2.879-4.893-4.933c-0.412-0.734-0.732-1.468-1.009-2.289c-2.377,0.137-4.755,0.363-7.088,0.641	c0.597,2.511,1.692,4.843,3.203,6.902c1.281,1.922,3.016,3.568,4.937,4.85c2.289,1.551,4.8,2.65,7.636,3.107	c1.097,0.276,2.29,0.367,3.478,0.367s2.331-0.091,3.519-0.32c2.788-0.504,5.397-1.603,7.638-3.154	C373.197,38.253,371.555,36.56,370.09,35.002 M370.09,35.002c-0.867,0.506-1.783,0.87-2.744,1.145	c-1.146,0.321-2.287,0.504-3.521,0.504c-1.235,0-2.381-0.184-3.477-0.504c-1.004-0.275-1.92-0.638-2.787-1.145	c-2.061-1.142-3.752-2.879-4.893-4.933c-0.412-0.734-0.732-1.468-1.009-2.289c-2.377,0.137-4.755,0.363-7.088,0.641	c0.597,2.511,1.692,4.843,3.203,6.902c1.281,1.922,3.016,3.568,4.937,4.85c2.289,1.551,4.8,2.65,7.636,3.107	c1.097,0.276,2.29,0.367,3.478,0.367s2.331-0.091,3.519-0.32c2.788-0.504,5.397-1.603,7.638-3.154	C373.197,38.253,371.555,36.56,370.09,35.002"/><path fill="#2887C8" d="M367.346,184.389c-1.188-0.229-2.333-0.32-3.521-0.32s-2.379,0.091-3.477,0.32	c-7.727,1.323-13.943,7.267-15.727,14.859c-0.368,1.465-0.548,3.021-0.548,4.571c0,1.557,0.18,3.111,0.548,4.572	c1.785,7.634,8,13.535,15.727,14.909c1.098,0.18,2.289,0.271,3.477,0.271s2.333-0.091,3.521-0.271	c9.236-1.648,16.278-9.74,16.278-19.481C383.622,194.129,376.582,185.987,367.346,184.389 M367.346,216.121	c-1.143,0.32-2.287,0.455-3.521,0.455c-1.235,0-2.379-0.135-3.477-0.455c-3.886-1.099-7.039-4.026-8.457-7.82	c-0.551-1.369-0.825-2.881-0.825-4.481c0-1.599,0.274-3.106,0.825-4.479c1.418-3.795,4.571-6.719,8.457-7.82	c1.098-0.271,2.241-0.456,3.477-0.456c1.233,0,2.378,0.185,3.521,0.456c5.305,1.513,9.284,6.45,9.284,12.3	C376.63,209.673,372.65,214.613,367.346,216.121"/><path fill="#2887C8" d="M367.346,364.862c-1.143-0.18-2.333-0.32-3.521-0.32s-2.379,0.141-3.477,0.32	c-2.787,0.508-5.347,1.555-7.59,3.109c1.784,1.922,3.431,3.659,4.895,5.218c0.82-0.461,1.738-0.875,2.697-1.148	c1.096-0.32,2.239-0.453,3.477-0.453c1.232,0,2.376,0.133,3.521,0.453c0.915,0.273,1.828,0.641,2.651,1.099	c1.508-1.552,3.107-3.246,4.849-5.168C372.65,366.417,370.09,365.37,367.346,364.862 M367.346,364.862	c-1.143-0.18-2.333-0.32-3.521-0.32s-2.379,0.141-3.477,0.32c-2.787,0.508-5.347,1.555-7.59,3.109	c1.784,1.922,3.431,3.659,4.895,5.218c0.82-0.461,1.738-0.875,2.697-1.148c1.096-0.32,2.239-0.453,3.477-0.453	c1.232,0,2.376,0.133,3.521,0.453c0.915,0.273,1.828,0.641,2.651,1.099c1.508-1.552,3.107-3.246,4.849-5.168	C372.65,366.417,370.09,365.37,367.346,364.862 M367.346,364.862c-1.143-0.18-2.333-0.32-3.521-0.32s-2.379,0.141-3.477,0.32	c-2.787,0.508-5.347,1.555-7.59,3.109c1.784,1.922,3.431,3.659,4.895,5.218c0.82-0.461,1.738-0.875,2.697-1.148	c1.096-0.32,2.239-0.453,3.477-0.453c1.232,0,2.376,0.133,3.521,0.453c0.915,0.273,1.828,0.641,2.651,1.099	c1.508-1.552,3.107-3.246,4.849-5.168C372.65,366.417,370.09,365.37,367.346,364.862 M367.346,364.862	c-1.143-0.18-2.333-0.32-3.521-0.32s-2.379,0.141-3.477,0.32c-2.787,0.508-5.347,1.555-7.59,3.109	c1.784,1.922,3.431,3.659,4.895,5.218c0.82-0.461,1.738-0.875,2.697-1.148c1.096-0.32,2.239-0.453,3.477-0.453	c1.232,0,2.376,0.133,3.521,0.453c0.915,0.273,1.828,0.641,2.651,1.099c1.508-1.552,3.107-3.246,4.849-5.168	C372.65,366.417,370.09,365.37,367.346,364.862 M367.346,364.862v7.179c0.916,0.273,1.828,0.641,2.653,1.099	c1.508-1.552,3.106-3.246,4.847-5.168C372.65,366.417,370.09,365.37,367.346,364.862 M367.346,364.862	c-1.143-0.18-2.333-0.32-3.521-0.32s-2.379,0.141-3.477,0.32c-2.787,0.508-5.347,1.555-7.59,3.109	c1.784,1.922,3.431,3.659,4.895,5.218c0.82-0.461,1.738-0.875,2.697-1.148c1.096-0.32,2.239-0.453,3.477-0.453	c1.232,0,2.376,0.133,3.521,0.453c0.915,0.273,1.828,0.641,2.651,1.099c1.508-1.552,3.107-3.246,4.849-5.168	C372.65,366.417,370.09,365.37,367.346,364.862 M367.346,364.862c-1.143-0.18-2.333-0.32-3.521-0.32s-2.379,0.141-3.477,0.32	c-2.787,0.508-5.347,1.555-7.59,3.109c1.784,1.922,3.431,3.659,4.895,5.218c0.82-0.461,1.738-0.875,2.697-1.148	c1.096-0.32,2.239-0.453,3.477-0.453c1.232,0,2.376,0.133,3.521,0.453c0.915,0.273,1.828,0.641,2.651,1.099	c1.508-1.552,3.107-3.246,4.849-5.168C372.65,366.417,370.09,365.37,367.346,364.862 M367.346,364.862	c-1.143-0.18-2.333-0.32-3.521-0.32s-2.379,0.141-3.477,0.32c-2.787,0.508-5.347,1.555-7.59,3.109	c1.784,1.922,3.431,3.659,4.895,5.218c0.82-0.461,1.738-0.875,2.697-1.148c1.096-0.32,2.239-0.453,3.477-0.453	c1.232,0,2.376,0.133,3.521,0.453c0.915,0.273,1.828,0.641,2.651,1.099c1.508-1.552,3.107-3.246,4.849-5.168	C372.65,366.417,370.09,365.37,367.346,364.862 M367.346,364.862c-1.143-0.18-2.333-0.32-3.521-0.32s-2.379,0.141-3.477,0.32	c-2.787,0.508-5.347,1.555-7.59,3.109c1.784,1.922,3.431,3.659,4.895,5.218c0.82-0.461,1.738-0.875,2.697-1.148	c1.096-0.32,2.239-0.453,3.477-0.453c1.232,0,2.376,0.133,3.521,0.453c0.915,0.273,1.828,0.641,2.651,1.099	c1.508-1.552,3.107-3.246,4.849-5.168C372.65,366.417,370.09,365.37,367.346,364.862 M367.346,364.862	c-1.143-0.18-2.333-0.32-3.521-0.32s-2.379,0.141-3.477,0.32c-2.787,0.508-5.347,1.555-7.59,3.109	c1.784,1.922,3.431,3.659,4.895,5.218c0.82-0.461,1.738-0.875,2.697-1.148c1.096-0.32,2.239-0.453,3.477-0.453	c1.232,0,2.376,0.133,3.521,0.453c0.915,0.273,1.828,0.641,2.651,1.099c1.508-1.552,3.107-3.246,4.849-5.168	C372.65,366.417,370.09,365.37,367.346,364.862 M367.346,364.862c-1.143-0.18-2.333-0.32-3.521-0.32s-2.379,0.141-3.477,0.32	c-2.787,0.508-5.347,1.555-7.59,3.109c1.784,1.922,3.431,3.659,4.895,5.218c0.82-0.461,1.738-0.875,2.697-1.148	c1.096-0.32,2.239-0.453,3.477-0.453c1.232,0,2.376,0.133,3.521,0.453c0.915,0.273,1.828,0.641,2.651,1.099	c1.508-1.552,3.107-3.246,4.849-5.168C372.65,366.417,370.09,365.37,367.346,364.862 M367.346,364.862	c-1.143-0.18-2.333-0.32-3.521-0.32s-2.379,0.141-3.477,0.32c-2.787,0.508-5.347,1.555-7.59,3.109	c1.784,1.922,3.431,3.659,4.895,5.218c0.82-0.461,1.738-0.875,2.697-1.148c1.096-0.32,2.239-0.453,3.477-0.453	c1.232,0,2.376,0.133,3.521,0.453c0.915,0.273,1.828,0.641,2.651,1.099c1.508-1.552,3.107-3.246,4.849-5.168	C372.65,366.417,370.09,365.37,367.346,364.862 M367.346,364.862c-1.143-0.18-2.333-0.32-3.521-0.32s-2.379,0.141-3.477,0.32	c-2.787,0.508-5.347,1.555-7.59,3.109c1.784,1.922,3.431,3.659,4.895,5.218c0.82-0.461,1.738-0.875,2.697-1.148	c1.096-0.32,2.239-0.453,3.477-0.453c1.232,0,2.376,0.133,3.521,0.453c0.915,0.273,1.828,0.641,2.651,1.099	c1.508-1.552,3.107-3.246,4.849-5.168C372.65,366.417,370.09,365.37,367.346,364.862 M367.346,364.862v7.179	c0.916,0.273,1.828,0.641,2.653,1.099c1.508-1.552,3.106-3.246,4.847-5.168C372.65,366.417,370.09,365.37,367.346,364.862 M367.346,364.862v7.179c0.916,0.273,1.828,0.641,2.653,1.099c1.508-1.552,3.106-3.246,4.847-5.168	C372.65,366.417,370.09,365.37,367.346,364.862 M367.346,364.862v7.179c0.916,0.273,1.828,0.641,2.653,1.099	c1.508-1.552,3.106-3.246,4.847-5.168C372.65,366.417,370.09,365.37,367.346,364.862 M383.028,379.861v-0.094	c-0.596-2.516-1.646-4.938-3.198-6.992c-1.326-1.874-3.021-3.522-4.984-4.804c-2.195-1.555-4.756-2.602-7.5-3.109	c-1.144-0.18-2.333-0.32-3.521-0.32s-2.381,0.141-3.477,0.32c-2.787,0.508-5.348,1.555-7.592,3.109	c-1.919,1.281-3.611,2.93-4.935,4.847c-1.556,2.059-2.653,4.436-3.248,6.949v0.047c-0.32,1.508-0.502,2.93-0.502,4.531	c0,0.773,0,1.594,0.182,2.328v0.094c1.188,9.739,9.513,17.328,19.571,17.328c10.062,0,18.428-7.589,19.615-17.328v-0.047	c0.138-0.781,0.182-1.555,0.182-2.375C383.622,382.788,383.44,381.322,383.028,379.861 M376.219,387.408	c-1.373,5.575-6.404,9.688-12.394,9.688c-5.99,0-11.019-4.112-12.392-9.688v-0.094c-0.227-0.914-0.367-1.961-0.367-2.969	c0-1.375,0.185-2.654,0.597-3.891v-0.047c0.275-0.776,0.641-1.555,1.052-2.284c1.097-2.099,2.836-3.797,4.94-4.935	c0.82-0.461,1.736-0.875,2.695-1.148c1.096-0.32,2.24-0.453,3.477-0.453c1.232,0,2.376,0.133,3.521,0.453	c0.915,0.273,1.828,0.641,2.651,1.099v0.05c2.058,1.094,3.797,2.836,4.984,4.893c0.412,0.729,0.732,1.55,1.053,2.328v0.094	c0.364,1.188,0.596,2.516,0.596,3.844c0,1.047-0.185,2.055-0.411,3.016v0.045H376.219z M367.346,364.862v7.179	c0.916,0.273,1.828,0.641,2.653,1.099c1.508-1.552,3.106-3.246,4.847-5.168C372.65,366.417,370.09,365.37,367.346,364.862 M367.346,364.862v7.179c0.916,0.273,1.828,0.641,2.653,1.099c1.508-1.552,3.106-3.246,4.847-5.168	C372.65,366.417,370.09,365.37,367.346,364.862 M367.346,364.862v7.179c0.916,0.273,1.828,0.641,2.653,1.099	c1.508-1.552,3.106-3.246,4.847-5.168C372.65,366.417,370.09,365.37,367.346,364.862 M367.346,364.862	c-1.143-0.18-2.333-0.32-3.521-0.32s-2.379,0.141-3.477,0.32c-2.787,0.508-5.347,1.555-7.59,3.109	c1.784,1.922,3.431,3.659,4.895,5.218c0.82-0.461,1.738-0.875,2.697-1.148c1.096-0.32,2.239-0.453,3.477-0.453	c1.232,0,2.376,0.133,3.521,0.453c0.915,0.273,1.828,0.641,2.651,1.099c1.508-1.552,3.107-3.246,4.849-5.168	C372.65,366.417,370.09,365.37,367.346,364.862 M367.346,364.862c-1.143-0.18-2.333-0.32-3.521-0.32s-2.379,0.141-3.477,0.32	c-2.787,0.508-5.347,1.555-7.59,3.109c1.784,1.922,3.431,3.659,4.895,5.218c0.82-0.461,1.738-0.875,2.697-1.148	c1.096-0.32,2.239-0.453,3.477-0.453c1.232,0,2.376,0.133,3.521,0.453c0.915,0.273,1.828,0.641,2.651,1.099	c1.508-1.552,3.107-3.246,4.849-5.168C372.65,366.417,370.09,365.37,367.346,364.862 M367.346,364.862	c-1.143-0.18-2.333-0.32-3.521-0.32s-2.379,0.141-3.477,0.32c-2.787,0.508-5.347,1.555-7.59,3.109	c1.784,1.922,3.431,3.659,4.895,5.218c0.82-0.461,1.738-0.875,2.697-1.148c1.096-0.32,2.239-0.453,3.477-0.453	c1.232,0,2.376,0.133,3.521,0.453c0.915,0.273,1.828,0.641,2.651,1.099c1.508-1.552,3.107-3.246,4.849-5.168	C372.65,366.417,370.09,365.37,367.346,364.862 M367.346,364.862c-1.143-0.18-2.333-0.32-3.521-0.32s-2.379,0.141-3.477,0.32	c-2.787,0.508-5.347,1.555-7.59,3.109c1.784,1.922,3.431,3.659,4.895,5.218c0.82-0.461,1.738-0.875,2.697-1.148	c1.096-0.32,2.239-0.453,3.477-0.453c1.232,0,2.376,0.133,3.521,0.453c0.915,0.273,1.828,0.641,2.651,1.099	c1.508-1.552,3.107-3.246,4.849-5.168C372.65,366.417,370.09,365.37,367.346,364.862 M367.346,364.862	c-1.143-0.18-2.333-0.32-3.521-0.32s-2.379,0.141-3.477,0.32c-2.787,0.508-5.347,1.555-7.59,3.109	c1.784,1.922,3.431,3.659,4.895,5.218c0.82-0.461,1.738-0.875,2.697-1.148c1.096-0.32,2.239-0.453,3.477-0.453	c1.232,0,2.376,0.133,3.521,0.453c0.915,0.273,1.828,0.641,2.651,1.099c1.508-1.552,3.107-3.246,4.849-5.168	C372.65,366.417,370.09,365.37,367.346,364.862 M367.346,364.862c-1.143-0.18-2.333-0.32-3.521-0.32s-2.379,0.141-3.477,0.32	c-2.787,0.508-5.347,1.555-7.59,3.109c1.784,1.922,3.431,3.659,4.895,5.218c0.82-0.461,1.738-0.875,2.697-1.148	c1.096-0.32,2.239-0.453,3.477-0.453c1.232,0,2.376,0.133,3.521,0.453c0.915,0.273,1.828,0.641,2.651,1.099	c1.508-1.552,3.107-3.246,4.849-5.168C372.65,366.417,370.09,365.37,367.346,364.862 M367.346,364.862	c-1.143-0.18-2.333-0.32-3.521-0.32s-2.379,0.141-3.477,0.32c-2.787,0.508-5.347,1.555-7.59,3.109	c1.784,1.922,3.431,3.659,4.895,5.218c0.82-0.461,1.738-0.875,2.697-1.148c1.096-0.32,2.239-0.453,3.477-0.453	c1.232,0,2.376,0.133,3.521,0.453c0.915,0.273,1.828,0.641,2.651,1.099c1.508-1.552,3.107-3.246,4.849-5.168	C372.65,366.417,370.09,365.37,367.346,364.862 M367.346,364.862v7.179c0.916,0.273,1.828,0.641,2.653,1.099	c1.508-1.552,3.106-3.246,4.847-5.168C372.65,366.417,370.09,365.37,367.346,364.862 M367.346,364.862v7.179	c0.916,0.273,1.828,0.641,2.653,1.099c1.508-1.552,3.106-3.246,4.847-5.168C372.65,366.417,370.09,365.37,367.346,364.862 M367.346,364.862c-1.143-0.18-2.333-0.32-3.521-0.32s-2.379,0.141-3.477,0.32c-2.787,0.508-5.347,1.555-7.59,3.109	c1.784,1.922,3.431,3.659,4.895,5.218c0.82-0.461,1.738-0.875,2.697-1.148c1.096-0.32,2.239-0.453,3.477-0.453	c1.232,0,2.376,0.133,3.521,0.453c0.915,0.273,1.828,0.641,2.651,1.099c1.508-1.552,3.107-3.246,4.849-5.168	C372.65,366.417,370.09,365.37,367.346,364.862 M367.346,364.862c-1.143-0.18-2.333-0.32-3.521-0.32s-2.379,0.141-3.477,0.32	c-2.787,0.508-5.347,1.555-7.59,3.109c1.784,1.922,3.431,3.659,4.895,5.218c0.82-0.461,1.738-0.875,2.697-1.148	c1.096-0.32,2.239-0.453,3.477-0.453c1.232,0,2.376,0.133,3.521,0.453c0.915,0.273,1.828,0.641,2.651,1.099	c1.508-1.552,3.107-3.246,4.849-5.168C372.65,366.417,370.09,365.37,367.346,364.862 M367.346,364.862	c-1.143-0.18-2.333-0.32-3.521-0.32s-2.379,0.141-3.477,0.32c-2.787,0.508-5.347,1.555-7.59,3.109	c1.784,1.922,3.431,3.659,4.895,5.218c0.82-0.461,1.738-0.875,2.697-1.148c1.096-0.32,2.239-0.453,3.477-0.453	c1.232,0,2.376,0.133,3.521,0.453c0.915,0.273,1.828,0.641,2.651,1.099c1.508-1.552,3.107-3.246,4.849-5.168	C372.65,366.417,370.09,365.37,367.346,364.862"/><path fill="#2887C8" d="M357.652,373.182c-2.104,1.148-3.839,2.841-4.937,4.945c-1.512-1.604-3.112-3.344-4.895-5.305	c-13.261-14.589-33.791-39.603-50.342-70.785c-1.601-2.973-3.156-6.035-4.664-9.145c-12.393-25.331-21.675-54.185-22.495-84.501	c-0.093-1.508-0.093-3.016-0.093-4.572c0-1.508,0-3.063,0.093-4.57c0.82-30.089,10.011-58.759,22.262-83.907	c1.513-3.109,3.065-6.172,4.622-9.146c16.644-31.229,37.264-56.286,50.571-70.874c1.736-1.92,3.385-3.703,4.893-5.255	c1.144,2.056,2.836,3.793,4.892,4.935c-1.465,1.557-3.063,3.25-4.844,5.168c-8.415,9.189-19.801,22.634-31.14,39.186	c-5.624,8.184-11.569,17.603-17.15,27.983c-1.415,2.609-2.834,5.262-4.159,8.003c-12.298,24.598-22.267,53.912-22.954,84.867v0.048	c-0.089,1.185-0.089,2.375-0.089,3.563c0,1.236,0,2.377,0.089,3.569v0.043c0.688,30.729,10.426,59.993,23.228,85.461	c1.326,2.651,2.698,5.258,4.114,7.82c15.961,29.538,35.437,53.265,48.104,67.257C354.544,369.894,356.188,371.627,357.652,373.182"/><path fill="#2887C8" d="M425.875,309.808c-1.144,2.109-2.377,4.162-3.567,6.131c-14.813,24.688-31.229,44.533-42.478,56.836	c-1.74,1.962-3.385,3.704-4.849,5.306c-1.188-2.058-2.927-3.797-4.984-4.895v-0.043c1.508-1.556,3.108-3.249,4.849-5.171	c10.974-12.072,26.977-31.458,41.473-55.557c1.233-2.008,2.424-4.117,3.611-6.17C421.529,307.938,423.586,309.222,425.875,309.808"/><path fill="#2887C8" d="M426.104,98.378c-2.291,0.548-4.347,1.785-5.946,3.385c-1.188-2.104-2.379-4.161-3.611-6.173	c-3.521-5.855-7.088-11.34-10.565-16.371c-11.291-16.46-22.631-29.856-31-39.049c-1.782-1.919-3.428-3.611-4.892-5.168	c2.056-1.141,3.746-2.879,4.892-4.891c1.508,1.508,3.156,3.292,4.894,5.211c11.291,12.393,27.755,32.192,42.615,56.836	C423.727,94.217,424.959,96.277,426.104,98.378"/><path fill="#2887C8" d="M457.472,203.819c0,0.963,0,1.875-0.046,2.833c-0.461,26.342-7.363,51.582-17.147,74.397	c-0.918,2.197-1.921,4.388-2.929,6.541c-1.782-1.466-3.931-2.474-6.354-2.789c1.008-2.151,2.011-4.344,2.927-6.589	c9.235-21.534,15.729-45.175,16.417-69.818c0.091-1.508,0.091-3.064,0.091-4.575c0-1.506-0.049-3.061-0.091-4.568	c-0.732-24.74-7.317-48.332-16.232-69.321c-0.918-2.241-1.877-4.436-2.883-6.584c2.378-0.32,4.573-1.372,6.309-2.836	c1.005,2.148,1.969,4.344,2.929,6.541c9.648,22.682,16.504,47.735,16.965,73.936C457.472,201.902,457.472,202.86,457.472,203.819"/><path fill="#2887C8" d="M367.346,36.147V191.52c-1.143-0.271-2.287-0.458-3.521-0.458c-1.235,0-2.379,0.187-3.477,0.458V36.147	c1.098,0.321,2.241,0.504,3.477,0.504C365.059,36.651,366.203,36.468,367.346,36.147"/><path fill="#2887C8" d="M367.346,216.121v155.92c-1.143-0.32-2.287-0.456-3.521-0.456c-1.235,0-2.379,0.136-3.477,0.456v-155.92	c1.098,0.32,2.241,0.455,3.477,0.455C365.059,216.576,366.203,216.441,367.346,216.121"/><path fill="#2887C8" d="M351.067,203.819c0,1.604,0.277,3.109,0.825,4.481c-0.278,0.044-0.548,0.094-0.825,0.094h-53.908	c-2.516,0-4.572-2.06-4.572-4.575s2.057-4.568,4.572-4.568h53.908c0.277,0,0.547,0.042,0.825,0.088	C351.345,200.713,351.067,202.223,351.067,203.819"/><path fill="#2887C8" d="M367.346,107.89v5.805c-0.867,1.006-2.103,1.647-3.521,1.647h-41.107c-2.516,0-4.571-2.058-4.571-4.573	s2.056-4.572,4.571-4.572h41.107C365.243,106.197,366.522,106.837,367.346,107.89"/><path fill="#2887C8" d="M416.912,107.433v6.675c-0.824,0.776-1.92,1.234-3.107,1.234h-27.802c-2.516,0-4.574-2.058-4.574-4.575	c0-2.51,2.059-4.571,4.574-4.571h27.802C414.992,106.197,416.088,106.656,416.912,107.433"/><path fill="#2887C8" d="M417.003,293.578v0.045l-0.228,6.723c-0.824,0.688-1.828,1.098-2.973,1.098h-27.8	c-2.516,0-4.574-2.058-4.574-4.574c0-2.513,2.059-4.57,4.574-4.57h27.8C415.034,292.299,416.18,292.803,417.003,293.578"/><path fill="#2887C8" d="M367.346,293.987v5.813c-0.867,1-2.103,1.64-3.521,1.64h-41.107c-2.516,0-4.571-2.054-4.571-4.57	c0-2.512,2.056-4.572,4.571-4.572h41.107C365.243,292.297,366.522,292.938,367.346,293.987"/><path fill="#2887C8" d="M277.313,200.207v7.225c-0.777,0.596-1.784,0.96-2.836,0.96h-53.908c-2.516,0-4.572-2.057-4.572-4.572	s2.057-4.571,4.572-4.571h53.908C275.529,199.248,276.537,199.616,277.313,200.207"/><path fill="#2887C8" d="M304.429,107.339c-1.415,2.609-2.836,5.262-4.159,8h-52.768c-2.516,0-4.572-2.054-4.572-4.57	c0-2.512,2.057-4.572,4.572-4.572h53.908C302.553,106.197,303.604,106.609,304.429,107.339"/><path fill="#2887C8" d="M304.657,300.714c-0.823,0.819-2.011,1.327-3.247,1.327h-53.908c-2.516,0-4.572-2.062-4.572-4.578	c0-2.51,2.057-4.57,4.572-4.57h53.038C301.868,295.541,303.241,298.151,304.657,300.714"/><path fill="#2887C8" d="M457.425,200.985v5.669c-0.825,1.055-2.104,1.74-3.569,1.74H401.96c-2.516,0-4.57-2.06-4.57-4.572	c0-2.519,2.055-4.571,4.57-4.571h51.896C455.321,199.251,456.6,199.934,457.425,200.985"/><path fill="#2887C8" d="M531.864,200.663c-0.363,1.19-0.547,2.427-0.547,3.706c0,0.96,0.091,1.877,0.363,2.791v0.044	c-0.819,0.734-1.921,1.188-3.106,1.188h-44.586c-2.511,0-4.571-2.057-4.571-4.572s2.061-4.568,4.571-4.568h44.586	c0.225,0,0.503,0,0.731,0.088c0.134,0,0.227,0,0.318,0.046c0.412,0.091,0.778,0.229,1.144,0.457	c0.138,0.047,0.322,0.139,0.458,0.274c0.136,0.093,0.276,0.185,0.412,0.322l0.184,0.183h0.043V200.663L531.864,200.663z"/><path fill="#2887C8" d="M522.033,110.769c-0.136,2.376-2.104,4.254-4.528,4.254h-49.337c-2.516,0-4.571-2.056-4.571-4.572	c0-2.513,2.056-4.573,4.571-4.573h49.337c0.598,0,1.145,0.137,1.694,0.32l2.698,4.387	C521.941,110.633,521.988,110.68,522.033,110.769"/><path fill="#2887C8" d="M522.079,296.869c0,0.188,0,0.32-0.044,0.456c-0.644,1.146-1.327,2.239-2.06,3.389	c-0.732,0.456-1.553,0.726-2.469,0.726h-49.336c-2.517,0-4.573-2.055-4.573-4.57c0-2.51,2.057-4.57,4.573-4.57h49.336	C520.024,292.299,522.079,294.359,522.079,296.869"/><path fill="#2887C8" d="M188.059,185.116c-0.276,2.333-0.505,4.666-0.64,6.997c-1.188-0.318-2.516-0.547-3.84-0.547	c-1.054,0-2.015,0.138-3.022,0.413c0.141-2.424,0.32-4.848,0.599-7.226c0.822-0.138,1.599-0.185,2.424-0.185	C185.13,184.569,186.596,184.754,188.059,185.116"/><path fill="#2887C8" d="M351.661,27.687c-2.375,0.136-4.754,0.365-7.087,0.686c-0.913,0.049-1.783,0.183-2.695,0.275	c-3.612,0.457-7.18,1.007-10.701,1.648c-3.566,0.684-7.044,1.465-10.516,2.332c-3.476,0.867-6.859,1.828-10.288,2.924	c-3.34,1.052-6.676,2.24-9.969,3.52c-3.29,1.236-6.539,2.607-9.74,4.073c-3.198,1.461-6.311,3.016-9.42,4.664	c-3.064,1.599-6.127,3.336-9.1,5.168c-2.973,1.781-5.9,3.702-8.731,5.667c-2.88,1.965-5.674,4.024-8.367,6.172	c-2.745,2.148-5.44,4.344-8.05,6.633c-2.558,2.332-5.119,4.664-7.591,7.13c-1.279,1.237-2.513,2.561-3.748,3.842h-0.044	c0,0-2.972,0.319-4.209-0.914c-1.28-1.233-1.096-3.34-1.096-3.34c2.333-2.516,4.752-4.935,7.267-7.316	c2.516-2.375,5.077-4.707,7.73-6.902c2.605-2.24,5.303-4.437,8.09-6.492c2.744-2.105,5.58-4.117,8.461-6.035	c2.878-1.923,5.807-3.797,8.78-5.534c3.016-1.784,6.035-3.477,9.145-5.077c3.063-1.6,6.219-3.111,9.421-4.527	c3.198-1.416,6.446-2.789,9.738-4.023c3.292-1.236,6.585-2.377,9.969-3.43c3.385-1.096,6.812-2.058,10.239-2.928	c3.478-0.867,6.953-1.642,10.474-2.283c3.52-0.688,7.087-1.237,10.699-1.691c1.328-0.186,2.651-0.324,3.932-0.461	c2.333-0.271,4.622-0.457,6.904-0.637h0.275c-0.227,1.004-0.367,1.965-0.367,3.016C351.066,25.175,351.251,26.499,351.661,27.687"/><path fill="#2887C8" d="M547.138,191.976c-0.961-0.271-2.014-0.409-3.063-0.409c-1.325,0-2.605,0.229-3.797,0.547	c-0.137-2.333-0.364-4.664-0.593-6.997c-2.7-25.327-10.84-49.107-23.137-70.096c-1.833-3.108-3.752-6.172-5.765-9.143	c-28.347-42.342-74.575-71.789-127.752-77.548c-2.333-0.276-4.668-0.457-7-0.641c0.369-1.191,0.596-2.516,0.596-3.84	c0-1.052-0.185-2.012-0.412-3.02c2.426,0.184,4.85,0.367,7.225,0.639c57.112,6.086,106.497,38.457,135.761,84.729l2.697,4.389	c0.042,0.047,0.092,0.091,0.135,0.183c13.079,22.089,21.676,47.188,24.509,73.984C546.772,187.132,547,189.554,547.138,191.976"/><path fill="#2887C8" d="M351.067,384.346c0,1,0.137,2.055,0.367,2.969c-2.423-0.141-4.805-0.32-7.18-0.641	c-79.06-8.367-143.305-67.126-159.899-143.482c-0.96-4.526-1.784-9.102-2.468-13.765c-0.277-1.831-0.461-3.659-0.641-5.487	c-0.276-2.376-0.504-4.802-0.641-7.183c0.961,0.234,1.919,0.369,2.973,0.369c1.324,0,2.652-0.229,3.883-0.641	c0.141,2.378,0.37,4.709,0.641,7.089c0.184,1.781,0.412,3.521,0.641,5.305c0.688,4.571,1.512,9.1,2.472,13.534	c16.23,73.022,77.685,129.218,153.36,137.401c2.333,0.32,4.708,0.505,7.09,0.641C351.252,381.689,351.067,382.971,351.067,384.346"/><path fill="#2887C8" d="M547.091,216.762c-0.138,2.423-0.364,4.8-0.641,7.177c-2.836,26.565-11.383,51.443-24.417,73.392	c-0.638,1.141-1.328,2.238-2.058,3.384c-29.125,46.961-78.921,79.882-136.535,86.007c-2.378,0.273-4.796,0.453-7.222,0.641	c0.227-0.961,0.41-1.969,0.41-3.016c0-1.328-0.227-2.654-0.596-3.844c2.377-0.188,4.709-0.367,6.997-0.641	c53.545-5.809,100-35.616,128.347-78.422c1.969-2.968,3.843-6.031,5.672-9.143c11.935-20.622,19.797-43.896,22.542-68.725	c0.276-2.331,0.505-4.662,0.688-7.039c1.233,0.364,2.469,0.593,3.797,0.593C545.125,217.126,546.13,216.988,547.091,216.762"/><path fill="#2887C8" d="M206.622,123.206c-1.095,2.106-2.148,4.255-3.107,6.403c-0.778,1.645-1.511,3.291-2.241,4.939	c-1.782,4.158-3.431,8.413-4.895,12.754c-2.055,6.172-3.841,12.484-5.257,18.979c0,0-1.328,1.328-3.383,1.095	c-2.148-0.228-3.43-1.873-3.43-1.873c1.461-7.18,3.473-14.219,5.762-21.036c1.508-4.389,3.199-8.732,5.074-12.937	c0.731-1.691,1.466-3.386,2.284-5.031c0.96-2.195,2.013-4.344,3.113-6.447C202.187,121.609,204.289,122.702,206.622,123.206"/><path fill="#2887C8" d="M223.358,96.917c-1.465,1.87-2.835,3.746-4.21,5.668c-1.458-1.736-3.427-3.11-5.622-3.885	c1.372-1.967,2.791-3.889,4.252-5.809C219.882,93.898,221.758,95.224,223.358,96.917"/><g><path fill="#FFF" d="M82.229,343.465c2.725,0,4.947,2.216,4.947,4.938"/><path fill="#FFF" d="M87.176,348.402"/></g><g><path fill="#2887C8" d="M82.229,342.947c3.013,0,5.463,2.447,5.463,5.455"/></g><g><path fill="#B1D465" d="M73.118,372.484c0,4.652-3.771,8.422-8.418,8.422c-4.649,0-8.418-3.77-8.418-8.422 c0-4.646,3.769-8.421,8.418-8.421C69.348,364.063,73.118,367.839,73.118,372.484"/></g><g><path fill="#0B9D49" d="M70.333,372.484c0,3.112-2.527,5.632-5.641,5.632c-3.106,0-5.628-2.52-5.628-5.632 c0-3.115,2.522-5.626,5.628-5.626C67.808,366.858,70.333,369.369,70.333,372.484"/></g><g><path fill="#B1D465" d="M45.89,372.484c0,4.652-3.766,8.422-8.416,8.422c-4.65,0-8.42-3.77-8.42-8.422 c0-4.646,3.769-8.421,8.42-8.421C42.124,364.063,45.89,367.839,45.89,372.484"/></g><g><path fill="#0B9D49" d="M43.105,372.484c0,3.112-2.522,5.632-5.635,5.632c-3.106,0-5.631-2.52-5.631-5.632 c0-3.115,2.524-5.626,5.631-5.626C40.583,366.858,43.105,369.369,43.105,372.484"/></g><g><path fill="#FFF" d="M82.229,266.365c2.725,0.002,4.947,2.228,4.947,4.947"/><path fill="#FFF" d="M87.176,271.313v53.111c0,2.741-2.223,4.942-4.947,4.942"/></g><g><path fill="#2887C8" d="M82.229,265.849c3.013,0,5.463,2.45,5.463,5.464v53.111c-0.002,3.01-2.451,5.456-5.463,5.456 M82.229,328.85c2.444,0,4.431-1.987,4.431-4.426v-53.111c0-2.442-1.989-4.431-4.431-4.431"/></g><g><path fill="#B1D465" d="M73.118,295.39c0,4.653-3.771,8.419-8.418,8.419c-4.649,0-8.418-3.766-8.418-8.419 c0-4.646,3.769-8.417,8.418-8.417C69.348,286.973,73.118,290.742,73.118,295.39"/></g><g><path fill="#0B9D49" d="M70.333,295.39c0,3.116-2.527,5.633-5.641,5.633c-3.106,0-5.628-2.517-5.628-5.633 c0-3.112,2.522-5.63,5.628-5.63C67.808,289.76,70.333,292.277,70.333,295.39"/></g><g><path fill="#B1D465" d="M45.89,295.39c0,4.653-3.766,8.419-8.416,8.419c-4.65,0-8.42-3.766-8.42-8.419 c0-4.646,3.769-8.417,8.42-8.417C42.124,286.973,45.89,290.742,45.89,295.39"/></g><g><path fill="#0B9D49" d="M43.105,295.39c0,3.116-2.522,5.633-5.635,5.633c-3.106,0-5.631-2.517-5.631-5.633 c0-3.112,2.524-5.63,5.631-5.63C40.583,289.76,43.105,292.277,43.105,295.39"/></g><g><path fill="#FFF" d="M82.229,189.271c2.725,0,4.947,2.225,4.947,4.947"/><path fill="#FFF" d="M87.176,194.217v53.112c0,2.741-2.223,4.94-4.947,4.94"/></g><g><path fill="#2887C8" d="M82.229,188.754c3.013,0,5.463,2.451,5.463,5.463v53.112c-0.002,3.008-2.451,5.456-5.463,5.456 M82.229,251.752c2.444,0,4.431-1.983,4.431-4.423v-53.112c0-2.442-1.989-4.43-4.431-4.43"/></g><g><path fill="#B1D465" d="M73.118,218.295c0,4.65-3.771,8.424-8.418,8.424c-4.649,0-8.418-3.773-8.418-8.424 c0-4.648,3.769-8.416,8.418-8.416C69.348,209.879,73.118,213.646,73.118,218.295"/></g><g><path fill="#0B9D49" d="M70.333,218.295c0,3.114-2.527,5.633-5.641,5.633c-3.106,0-5.628-2.519-5.628-5.633s2.522-5.63,5.628-5.63 C67.808,212.665,70.333,215.181,70.333,218.295"/></g><g><path fill="#B1D465" d="M45.89,218.295c0,4.65-3.766,8.424-8.416,8.424c-4.65,0-8.42-3.773-8.42-8.424 c0-4.648,3.769-8.416,8.42-8.416C42.124,209.879,45.89,213.646,45.89,218.295"/></g><g><path fill="#0B9D49" d="M43.105,218.295c0,3.114-2.522,5.633-5.635,5.633c-3.106,0-5.631-2.519-5.631-5.633s2.524-5.63,5.631-5.63 C40.583,212.665,43.105,215.181,43.105,218.295"/></g><g><path fill="#FFF" d="M87.176,170.234c0,2.739-2.223,4.94-4.947,4.94"/></g><g><path fill="#2887C8" d="M87.692,170.234c-0.002,3.008-2.451,5.457-5.463,5.457 M82.229,174.658c2.444,0,4.431-1.985,4.431-4.423"/></g><g><path fill="#0B9D49" d="M64.692,135.571c3.115-0.002,5.641,2.52,5.641,5.629"/><path fill="#0B9D49" d="M70.333,141.2"/></g><g><path fill="#FFF" d="M88.517,242.559l-4.96-21.798l-4.961,21.798H66.372l-11.016-38.463h13.032l4.961,23.53l5.822-23.53h8.769 l5.823,23.53l4.902-23.53h13.093l-11.018,38.463H88.517z"/><path fill="#FFF" d="M145.6,242.559l-4.956-21.798l-4.964,21.798h-12.224l-11.014-38.463h13.033l4.958,23.53l5.825-23.53h8.768 l5.823,23.53l4.902-23.53h13.091l-11.016,38.463H145.6z"/><path fill="#FFF" d="M202.687,242.559l-4.958-21.798l-4.96,21.798h-12.228l-11.014-38.463h13.033l4.958,23.53l5.826-23.53h8.767 l5.826,23.53l4.902-23.53h13.089l-11.017,38.463H202.687z"/></g><g><path fill="#FFF" d="M88.517,242.559l-4.96-21.798l-4.961,21.798H66.372l-11.016-38.463h13.032l4.961,23.53l5.822-23.53h8.769 l5.823,23.53l4.902-23.53h13.093l-11.018,38.463H88.517z"/><path fill="#FFF" d="M145.6,242.559l-4.956-21.798l-4.964,21.798h-12.224l-11.014-38.463h13.033l4.958,23.53l5.825-23.53h8.768 l5.823,23.53l4.902-23.53h13.091l-11.016,38.463H145.6z"/><path fill="#FFF" d="M202.687,242.559l-4.958-21.798l-4.96,21.798h-12.228l-11.014-38.463h13.033l4.958,23.53l5.826-23.53h8.767 l5.826,23.53l4.902-23.53h13.089l-11.017,38.463H202.687z"/></g><g><line x1="96.653" x2="183.589" y1="281.713" y2="281.713" fill="none"/></g><g><line x1="197.872" x2="219.916" y1="281.713" y2="281.713" fill="none"/></g><g><line x1="96.653" x2="183.589" y1="325.557" y2="325.557" fill="none"/></g><g><line x1="197.872" x2="219.916" y1="325.557" y2="325.557" fill="none"/></g><g><path fill="#FFF" d="M282.996,142.39v224.648c0,6.813-5.393,12.315-12.043,12.315H15.008"/></g><g><path fill="#E4F2FC" d="M297.527,181.49H17.559v-27.398c0-9.504,7.7-17.202,17.203-17.202h245.562c9.497,0,17.2,7.698,17.2,17.202 v27.398H297.527z"/></g><g><path fill="#2887C8" d="M297.527,182.007H17.559c-0.284,0-0.516-0.23-0.516-0.517v-27.398c0-9.771,7.948-17.718,17.719-17.718 h245.562c9.77,0,17.717,7.948,17.717,17.718v27.398C298.041,181.776,297.811,182.007,297.527,182.007z M18.076,180.976h278.936 v-26.884c0-9.2-7.486-16.685-16.688-16.685H34.762c-9.201,0-16.687,7.485-16.687,16.685V180.976z"/></g><g><path fill="#B6DDF5" d="M297.527,176.195H196.66V136.89h83.667c9.496,0,17.201,7.695,17.201,17.201V176.195z"/></g><g><path fill="#2887C8" d="M297.527,176.711H196.66c-0.287,0-0.516-0.232-0.516-0.516V136.89c0-0.286,0.229-0.516,0.516-0.516h83.667 c9.767,0,17.716,7.948,17.716,17.717v22.104C298.041,176.479,297.811,176.711,297.527,176.711z M197.174,175.678h99.837v-21.586 c0-9.2-7.486-16.685-16.688-16.685h-83.149V175.678z"/></g><g><path fill="#FFF" d="M297.527,297.176V176.195H17.558v202.542c0,6.805,5.383,12.328,12.032,12.328H285.5 c6.639,0,12.027-5.523,12.027-12.328V347.78"/></g><g><path fill="#2887C8" d="M285.5,391.582H29.589c-6.92,0-12.546-5.761-12.546-12.845V176.195c0-0.287,0.23-0.517,0.515-0.517h279.97 c0.283,0,0.516,0.23,0.516,0.517v120.981c0,0.285-0.232,0.517-0.516,0.517c-0.287,0-0.516-0.232-0.516-0.517V176.711H18.074 v202.026c0,6.513,5.164,11.811,11.516,11.811H285.5c6.346,0,11.512-5.294,11.512-11.811V347.78c0-0.283,0.229-0.516,0.516-0.516 c0.283,0,0.516,0.232,0.516,0.516v30.957C298.041,385.821,292.414,391.582,285.5,391.582z"/></g><g><line x1="297.527" x2="297.527" y1="331.259" y2="312.501" fill="none"/></g><g><path fill="#2887C8" d="M297.527,331.774c-0.287,0-0.516-0.232-0.516-0.516v-18.758c0-0.285,0.229-0.518,0.516-0.518 c0.283,0,0.516,0.232,0.516,0.518v18.758C298.041,331.544,297.811,331.774,297.527,331.774z"/></g><g><path fill="#FFF" d="M117.952,260.289h-12.226c-0.241,0-0.45-0.166-0.503-0.4l-4.455-19.586l-4.456,19.586 c-0.055,0.234-0.263,0.4-0.504,0.4H83.581c-0.229,0-0.431-0.152-0.494-0.374l-11.014-38.462c-0.045-0.153-0.013-0.323,0.085-0.45 c0.096-0.13,0.25-0.206,0.412-0.206h13.03c0.245,0,0.455,0.17,0.506,0.409l4.496,21.325l5.284-21.344 c0.055-0.229,0.263-0.391,0.498-0.391h8.765c0.236,0,0.445,0.161,0.501,0.391l5.279,21.333l4.441-21.314 c0.052-0.239,0.262-0.409,0.505-0.409h13.09c0.162,0,0.315,0.074,0.412,0.203c0.096,0.132,0.128,0.297,0.085,0.453l-11.015,38.462 C118.384,260.137,118.183,260.289,117.952,260.289z M106.138,259.258h11.426l10.716-37.428h-11.981l-4.822,23.117 c-0.05,0.236-0.255,0.407-0.495,0.411c-0.003,0-0.006,0-0.01,0c-0.235,0-0.443-0.161-0.501-0.391l-5.727-23.138H96.79 l-5.725,23.138c-0.058,0.231-0.287,0.388-0.51,0.391c-0.242-0.004-0.447-0.175-0.496-0.409l-4.875-23.119H73.254l10.719,37.428 h11.424l4.867-21.396c0.055-0.236,0.261-0.401,0.503-0.401c0.239,0,0.447,0.165,0.503,0.401L106.138,259.258z"/></g><g><path fill="#FFF" d="M175.049,260.289h-12.227c-0.239,0-0.449-0.166-0.504-0.4l-4.453-19.586l-4.458,19.586 c-0.056,0.234-0.263,0.4-0.503,0.4H140.68c-0.23,0-0.431-0.152-0.496-0.374l-11.015-38.462c-0.045-0.153-0.013-0.323,0.085-0.45 c0.1-0.13,0.252-0.206,0.412-0.206h13.03c0.243,0,0.455,0.17,0.505,0.409l4.496,21.325l5.285-21.344 c0.058-0.229,0.265-0.391,0.502-0.391h8.759c0.237,0,0.446,0.161,0.502,0.391l5.282,21.333l4.44-21.314 c0.05-0.239,0.263-0.409,0.506-0.409h13.091c0.162,0,0.314,0.074,0.412,0.203c0.097,0.13,0.129,0.297,0.085,0.453l-11.016,38.462 C175.484,260.137,175.281,260.289,175.049,260.289z M163.235,259.258h11.426l10.719-37.428h-11.986l-4.82,23.117 c-0.049,0.236-0.252,0.407-0.494,0.411c-0.002,0-0.006,0-0.01,0c-0.237,0-0.443-0.161-0.5-0.391l-5.73-23.138h-7.951l-5.73,23.138 c-0.055,0.229-0.264,0.391-0.5,0.391c-0.004,0-0.005,0-0.01,0c-0.239-0.004-0.444-0.175-0.494-0.409l-4.875-23.119h-11.924 l10.716,37.428h11.421l4.869-21.396c0.056-0.236,0.264-0.401,0.503-0.401l0,0c0.242,0,0.45,0.165,0.503,0.401L163.235,259.258z"/></g><g><path fill="#FFF" d="M232.144,260.289H219.92c-0.242,0-0.45-0.166-0.504-0.4l-4.456-19.586l-4.458,19.586 c-0.053,0.234-0.263,0.4-0.504,0.4h-12.224c-0.229,0-0.433-0.152-0.495-0.374l-11.016-38.462c-0.043-0.153-0.013-0.323,0.087-0.45 c0.098-0.13,0.25-0.206,0.41-0.206h13.031c0.247,0,0.457,0.17,0.508,0.409l4.492,21.325l5.285-21.341 c0.056-0.229,0.265-0.394,0.501-0.394h8.765c0.234,0,0.442,0.164,0.5,0.394l5.28,21.33l4.438-21.313 c0.051-0.239,0.261-0.411,0.505-0.411h13.093c0.16,0,0.315,0.076,0.411,0.206c0.098,0.129,0.13,0.297,0.085,0.453l-11.014,38.459 C232.576,260.137,232.375,260.289,232.144,260.289z M220.333,259.258h11.422l10.718-37.428h-11.985l-4.815,23.117 c-0.048,0.236-0.255,0.407-0.493,0.411c-0.202-0.003-0.454-0.159-0.513-0.391l-5.729-23.138h-7.953l-5.729,23.138 c-0.059,0.231-0.287,0.388-0.51,0.391c-0.242-0.004-0.447-0.175-0.497-0.409l-4.872-23.119h-11.927l10.716,37.428h11.424 l4.869-21.396c0.053-0.236,0.261-0.401,0.503-0.401c0.24,0,0.448,0.165,0.503,0.401L220.333,259.258z"/></g><g><path fill="#2887C8" d="M105.726,259.772l-4.96-21.798l-4.961,21.798H83.581l-11.016-38.464h13.033l4.96,23.529l5.823-23.529h8.768 l5.825,23.529l4.901-23.529h13.09l-11.015,38.464H105.726z"/><path fill="#2887C8" d="M162.811,259.772l-4.96-21.798l-4.959,21.798h-12.225l-11.017-38.464h13.034l4.96,23.529l5.825-23.529 h8.765l5.826,23.529l4.902-23.529h13.089l-11.014,38.464H162.811z"/><path fill="#2887C8" d="M219.898,259.772l-4.96-21.798l-4.958,21.798h-12.228l-11.014-38.464h13.034l4.957,23.529l5.827-23.529 h8.766l5.823,23.529l4.902-23.529h13.093l-11.018,38.464H219.898z"/></g><g><rect width="26.557" height="26.558" x="73.263" y="285.141" fill="#FFF"/></g><g><path fill="#2887C8" d="M99.823,312.217H73.266c-0.287,0-0.516-0.232-0.516-0.519v-26.558c0-0.285,0.229-0.518,0.516-0.518h26.557 c0.283,0,0.516,0.232,0.516,0.518v26.558C100.337,311.984,100.106,312.217,99.823,312.217z M73.779,311.184h25.526v-25.528H73.779 V311.184z"/></g><g><path fill="#2887C8" d="M200.799,299.438h-86.936c-0.283,0-0.516-0.23-0.516-0.516s0.232-0.518,0.516-0.518h86.936 c0.283,0,0.516,0.232,0.516,0.518S201.083,299.438,200.799,299.438z"/></g><g><path fill="#2887C8" d="M237.126,299.438h-22.046c-0.287,0-0.516-0.23-0.516-0.516s0.229-0.518,0.516-0.518h22.046 c0.287,0,0.518,0.232,0.518,0.518S237.414,299.438,237.126,299.438z"/></g><g><rect width="26.557" height="26.557" x="73.263" y="328.991" fill="#FFF"/></g><g><path fill="#2887C8" d="M99.823,356.063H73.266c-0.287,0-0.516-0.232-0.516-0.519v-26.554c0-0.287,0.229-0.519,0.516-0.519h26.557 c0.283,0,0.516,0.232,0.516,0.519v26.554C100.337,355.831,100.106,356.063,99.823,356.063z M73.779,355.03h25.526v-25.523H73.779 V355.03z"/></g><g><path fill="#2887C8" d="M200.799,343.285h-86.936c-0.283,0-0.516-0.23-0.516-0.516s0.232-0.518,0.516-0.518h86.936 c0.283,0,0.516,0.232,0.516,0.518S201.083,343.285,200.799,343.285z"/></g><g><path fill="#2887C8" d="M237.126,343.285h-22.046c-0.287,0-0.516-0.23-0.516-0.516s0.229-0.518,0.516-0.518h22.046 c0.287,0,0.518,0.232,0.518,0.518S237.414,343.285,237.126,343.285z"/></g><g><path fill="#2887C8" d="M223.618,156.542c0,2.766-2.242,5.011-5.013,5.011c-2.772,0-5.01-2.245-5.01-5.011 c0-2.764,2.238-5.009,5.01-5.009C221.375,151.532,223.618,153.777,223.618,156.542"/></g><g><path fill="#2887C8" d="M252.104,156.542c0,2.766-2.244,5.011-5.012,5.011c-2.764,0-5.013-2.245-5.013-5.011 c0-2.764,2.249-5.009,5.013-5.009C249.86,151.532,252.104,153.777,252.104,156.542"/></g><g><path fill="#2887C8" d="M280.588,156.542c0,2.766-2.245,5.011-5.011,5.011c-2.768,0-5.013-2.245-5.013-5.011 c0-2.764,2.245-5.009,5.013-5.009C278.343,151.532,280.588,153.777,280.588,156.542"/></g></svg>