<?xml version="1.0" encoding="utf-8"?>
<!-- Generator: Adobe Illustrator 16.0.0, SVG Export Plug-In . SVG Version: 6.00 Build 0)  -->
<!DOCTYPE svg PUBLIC "-//W3C//DTD SVG 1.0//EN" "http://www.w3.org/TR/2001/REC-SVG-20010904/DTD/svg10.dtd">
<svg version="1.0" id="Layer_1" xmlns="http://www.w3.org/2000/svg" x="0px" y="0px"
     width="800px" height="800px" viewBox="0 0 800 800" enable-background="new 0 0 800 800" xml:space="preserve">
<g>
	<path fill="#E4F2FC" d="M611.575,507.511h37.428c65.186,0,117.997-55.692,117.997-124.433c0-61.121-41.762-112-96.857-122.49
		c-2.063-120.15-95.091-216.929-209.555-216.929c-78.513,0-146.942,45.592-182.741,112.935c-8.62-2.174-17.599-3.265-26.889-3.265
		c-70.693,0-94.497,34.177-110.999,82.022c-52.583,18.483-90.446,70.835-90.446,132.505c0,77.126,59.285,139.654,132.435,139.654
		h52.321H611.575z"/>
</g>
    <g>
	<path fill="#2887C8" d="M541.744,484.288h-63.102c-0.414,0-0.75-0.336-0.75-0.75s0.336-0.75,0.75-0.75h63.102
		c0.414,0,0.75,0.336,0.75,0.75S542.158,484.288,541.744,484.288z"/>
</g>
    <g>
	<path fill="#2887C8" d="M441.201,484.288h-98.7c-0.414,0-0.75-0.336-0.75-0.75s0.336-0.75,0.75-0.75h98.7
		c0.414,0,0.75,0.336,0.75,0.75S441.615,484.288,441.201,484.288z"/>
</g>
    <g>
	<path fill="#2887C8" d="M304.294,484.288h-64.04c-0.414,0-0.75-0.336-0.75-0.75s0.336-0.75,0.75-0.75h64.04
		c0.414,0,0.75,0.336,0.75,0.75S304.708,484.288,304.294,484.288z"/>
</g>
    <g>
	<path fill="#2887C8" d="M616.489,484.288h-37.428c-0.414,0-0.75-0.336-0.75-0.75s0.336-0.75,0.75-0.75h37.428
		c64.65,0,117.247-52.597,117.247-117.247c0-56.813-40.475-105.354-96.24-115.42c-0.353-0.064-0.61-0.367-0.617-0.725
		c-2.047-113.028-95.716-204.984-208.805-204.984c-75.416,0-145.19,40.891-182.093,106.716c-0.164,0.293-0.503,0.439-0.829,0.363
		c-8.525-2.042-17.508-3.078-26.7-3.078c-68.441,0-92.946,29.571-110.301,77.285c-0.078,0.215-0.25,0.383-0.467,0.455
		c-53.792,17.936-89.933,68.149-89.933,124.95c0,72.611,59.074,131.686,131.686,131.686h52.328c0.414,0,0.75,0.336,0.75,0.75
		s-0.336,0.75-0.75,0.75h-52.328c-73.439,0-133.186-59.747-133.186-133.186c0-57.324,36.402-108.017,90.615-126.257
		c6.577-18.022,16.538-40.563,35.285-55.887c18.149-14.834,43.107-22.045,76.302-22.045c9.111,0,18.023,1.005,26.498,2.989
		C282.19,83.896,352.306,42.913,428.074,42.913c55.507,0,107.873,21.432,147.453,60.347c39.381,38.719,61.683,90.372,62.84,145.496
		c56.165,10.438,96.869,59.454,96.869,116.786C735.236,431.019,681.967,484.288,616.489,484.288z"/>
</g>
    <g>
	<path fill="#2887C8" d="M539.653,172.452c-0.211,0-0.422-0.089-0.57-0.263c-30.247-35.369-66.485-52.315-117.501-54.948
		c-0.825-0.046-1.645,0.009-2.512,0.065c-0.486,0.032-0.972,0.063-1.457,0.077c-0.465,0.021-0.76-0.314-0.771-0.728
		s0.314-0.759,0.729-0.771c0.467-0.014,0.935-0.044,1.402-0.075c0.872-0.057,1.775-0.115,2.688-0.066
		c51.459,2.655,88.025,19.763,118.563,55.471c0.269,0.314,0.231,0.788-0.083,1.057C539.999,172.393,539.826,172.452,539.653,172.452
		z"/>
</g>
    <g>
	<path fill="#2887C8" d="M575.831,268.626c-0.396,0-0.729-0.312-0.748-0.713c-1.317-26.506-5.233-43.028-14.965-63.137
		c-0.181-0.373-0.024-0.821,0.348-1.002c0.376-0.179,0.822-0.023,1.002,0.349c9.83,20.311,13.785,36.984,15.113,63.716
		c0.021,0.414-0.298,0.766-0.712,0.786C575.856,268.625,575.844,268.626,575.831,268.626z"/>
</g>
    <g>
	<path fill="#2887C8" d="M201.764,637.693h-37.545c-0.414,0-0.75-0.336-0.75-0.75s0.336-0.75,0.75-0.75h37.545
		c0.414,0,0.75,0.336,0.75,0.75S202.178,637.693,201.764,637.693z"/>
</g>
    <g>
	<path fill="#2887C8" d="M201.764,637.693c-0.414,0-0.75-0.336-0.75-0.75V483.534c0-0.414,0.336-0.75,0.75-0.75
		s0.75,0.336,0.75,0.75v153.409C202.514,637.357,202.178,637.693,201.764,637.693z"/>
</g>
    <g>
	<path fill="#2887C8" d="M579.048,637.693h-37.545c-0.414,0-0.75-0.336-0.75-0.75s0.336-0.75,0.75-0.75h37.545
		c0.414,0,0.75,0.336,0.75,0.75S579.462,637.693,579.048,637.693z"/>
</g>
    <g>
	<path fill="#2887C8" d="M541.503,637.693L541.503,637.693c-0.415-0.001-0.751-0.337-0.75-0.751l0.241-153.409
		c0.001-0.414,0.336-0.749,0.75-0.749h0.001c0.414,0.001,0.75,0.337,0.749,0.751l-0.241,153.409
		C542.252,637.358,541.917,637.693,541.503,637.693z"/>
</g>
    <g>
	<path fill="#2887C8" d="M304.294,670.117c-0.414,0-0.75-0.336-0.75-0.75V483.538c0-0.414,0.336-0.75,0.75-0.75
		s0.75,0.336,0.75,0.75v185.829C305.044,669.781,304.708,670.117,304.294,670.117z"/>
</g>
    <g>
	<path fill="#2887C8" d="M441.318,670.117c-0.414,0-0.75-0.336-0.75-0.75l-0.117-185.829c0-0.414,0.335-0.75,0.75-0.75l0,0
		c0.414,0,0.75,0.336,0.75,0.75l0.117,185.829C442.068,669.781,441.733,670.117,441.318,670.117L441.318,670.117z"/>
</g>
    <g>
	<path fill="#E4F0CC" d="M164.219,636.943c0,22.375-18.131,40.513-40.506,40.513S83.2,659.318,83.2,636.943
		c0-22.367,18.138-40.498,40.513-40.498S164.219,614.576,164.219,636.943"/>
</g>
    <g>
	<path fill="#0B9D49" d="M123.713,678.206c-22.752,0-41.263-18.511-41.263-41.263c0-22.744,18.51-41.248,41.263-41.248
		c22.749,0,41.256,18.504,41.256,41.248C164.969,659.695,146.461,678.206,123.713,678.206z M123.713,597.195
		c-21.925,0-39.763,17.831-39.763,39.748c0,21.925,17.837,39.763,39.763,39.763c21.921,0,39.756-17.838,39.756-39.763
		C163.469,615.026,145.634,597.195,123.713,597.195z"/>
</g>
    <g>
	<path fill="#E4F0CC" d="M344.807,709.88c0,22.376-18.138,40.506-40.513,40.506s-40.505-18.13-40.505-40.506
		c0-22.375,18.13-40.513,40.505-40.513S344.807,687.505,344.807,709.88"/>
</g>
    <g>
	<path fill="#0B9D49" d="M304.294,751.136c-22.749,0-41.255-18.507-41.255-41.256c0-22.752,18.507-41.263,41.255-41.263
		c22.752,0,41.263,18.511,41.263,41.263C345.557,732.629,327.046,751.136,304.294,751.136z M304.294,670.117
		c-21.921,0-39.755,17.838-39.755,39.763c0,21.922,17.834,39.756,39.755,39.756c21.925,0,39.763-17.834,39.763-39.756
		C344.057,687.955,326.219,670.117,304.294,670.117z"/>
</g>
    <g>
	<path fill="#E4F0CC" d="M482.025,709.88c0,22.376-18.139,40.506-40.514,40.506s-40.505-18.13-40.505-40.506
		c0-22.375,18.13-40.513,40.505-40.513S482.025,687.505,482.025,709.88"/>
</g>
    <g>
	<path fill="#0B9D49" d="M441.512,751.136c-22.748,0-41.255-18.507-41.255-41.256c0-22.752,18.507-41.263,41.255-41.263
		c22.753,0,41.264,18.511,41.264,41.263C482.775,732.629,464.265,751.136,441.512,751.136z M441.512,670.117
		c-21.921,0-39.755,17.838-39.755,39.763c0,21.922,17.834,39.756,39.755,39.756c21.926,0,39.764-17.834,39.764-39.756
		C481.275,687.955,463.438,670.117,441.512,670.117z"/>
</g>
    <g>
	<path fill="#E4F0CC" d="M660.031,636.943c0,22.375-18.137,40.513-40.512,40.513c-22.376,0-40.514-18.138-40.514-40.513
		c0-22.367,18.138-40.498,40.514-40.498C641.895,596.445,660.031,614.576,660.031,636.943"/>
</g>
    <g>
	<path fill="#0B9D49" d="M619.52,678.206c-22.753,0-41.264-18.511-41.264-41.263c0-22.744,18.511-41.248,41.264-41.248
		c22.752,0,41.262,18.504,41.262,41.248C660.781,659.695,642.271,678.206,619.52,678.206z M619.52,597.195
		c-21.926,0-39.764,17.831-39.764,39.748c0,21.925,17.838,39.763,39.764,39.763c21.925,0,39.762-17.838,39.762-39.763
		C659.281,615.026,641.444,597.195,619.52,597.195z"/>
</g>
    <g>
	<path fill="#2887C8" d="M284.328,283.669l-20.013,5.215l-0.423,0.563c-2.727-3.757-6.296-6.67-10.711-8.738
		c-4.605-2.161-9.302-3.242-14.094-3.242c-4.51,0-8.738,0.799-12.685,2.396c-3.759,1.504-7.001,3.713-9.725,6.624
		c-2.726,2.914-4.792,6.296-6.201,10.147c-1.41,3.946-2.114,8.223-2.114,12.826c0,4.699,0.797,9.068,2.396,13.107
		c1.597,4.041,3.71,7.377,6.342,10.007c2.629,2.631,5.871,4.746,9.725,6.342c3.665,1.504,7.752,2.255,12.262,2.255
		c5.542,0,10.757-1.361,15.644-4.087c4.884-2.724,8.502-6.248,10.853-10.57l19.731,5.215c-2.163,4.51-4.746,8.457-7.752,11.839
		c-3.008,3.382-6.531,6.391-10.57,9.02c-4.041,2.632-8.364,4.559-12.966,5.779c-4.7,1.409-9.632,2.114-14.799,2.114
		c-6.955,0-13.579-1.222-19.873-3.664c-6.109-2.537-11.511-6.061-16.208-10.571c-4.604-4.51-8.269-9.958-10.993-16.349
		c-2.632-6.201-3.946-13.107-3.946-20.718c0-7.329,1.361-14.235,4.087-20.718c2.724-6.389,6.388-11.839,10.993-16.349
		c4.603-4.51,10.053-8.034,16.349-10.57c6.201-2.537,12.825-3.806,19.872-3.806c5.074,0,9.771,0.612,14.094,1.833
		c4.603,1.317,8.738,3.054,12.403,5.215c4.039,2.35,7.516,5.074,10.429,8.174C279.723,276.341,282.354,279.913,284.328,283.669z"/>
        <path fill="#2887C8" d="M300.958,259.569h42.564l-0.141,0.282c7.14,0,13.764,1.176,19.873,3.523
		c6.107,2.35,11.509,5.732,16.208,10.148c4.697,4.417,8.362,9.632,10.993,15.644c2.724,6.202,4.087,12.966,4.087,20.295
		c0,7.423-1.317,14.094-3.946,20.014c-2.631,5.919-6.25,11.042-10.853,15.362c-4.417,4.136-9.773,7.423-16.067,9.866
		c-6.109,2.35-12.733,3.523-19.873,3.523h-42.846V259.569z M320.831,339.904h23.255h-0.282c4.134,0,8.034-0.705,11.698-2.114
		c3.664-1.41,6.906-3.383,9.725-5.92c2.819-2.537,5.074-5.73,6.765-9.583c1.691-3.852,2.537-8.175,2.537-12.967
		s-0.846-9.112-2.537-12.966c-1.691-3.852-3.946-7.188-6.765-10.007s-6.061-4.933-9.725-6.342
		c-3.665-1.409-7.564-2.114-11.698-2.114h-22.973V339.904z"/>
        <path fill="#2887C8" d="M478.259,259.569h19.591l-0.282,98.658h-18.463l-28.047-37.913c-2.255-2.912-4.511-6.012-6.765-9.302
		c-2.256-3.288-4.369-6.248-6.343-8.879c-2.632-3.569-4.229-5.778-4.792-6.624l-1.832-2.678h-0.141v2.537v7.047v10.57v13.53v31.711
		h-19.592V259.71h18.464l28.61,38.476l5.92,7.893c2.629,3.477,4.743,6.342,6.342,8.597c1.974,2.819,3.664,5.215,5.074,7.188
		l2.113,2.819h0.142v-2.819v-7.329v-10.57v-12.121V259.569z"/>
</g>
</svg>
