<?xml version="1.0" encoding="utf-8"?>
<!-- Generator: Adobe Illustrator 16.0.0, SVG Export Plug-In . SVG Version: 6.00 Build 0)  -->
<!DOCTYPE svg PUBLIC "-//W3C//DTD SVG 1.0//EN" "http://www.w3.org/TR/2001/REC-SVG-20010904/DTD/svg10.dtd">
<svg version="1.0" id="Layer_1" xmlns="http://www.w3.org/2000/svg" x="0px" y="0px"
     width="800px" height="800px" viewBox="0 0 800 800" enable-background="new 0 0 800 800" xml:space="preserve">
<g>
	<path fill="#E4F2FC" d="M690.779,670.946H149.385c-9.046,0-16.375-7.333-16.375-16.376V221.718c0-9.043,7.33-16.375,16.375-16.375
		h541.395c9.047,0,16.375,7.333,16.375,16.375V654.57C707.154,663.613,699.826,670.946,690.779,670.946"/>
</g>
    <g>
	<path fill="#2887C8" d="M686.072,468.688c-0.414,0-0.75-0.336-0.75-0.75V222.185c0-8.875-7.217-16.094-16.088-16.094H128.771
		c-8.875,0-16.094,7.22-16.094,16.094v37.087c0,0.414-0.336,0.75-0.75,0.75s-0.75-0.336-0.75-0.75v-37.087
		c0-9.702,7.893-17.594,17.594-17.594h540.463c9.698,0,17.588,7.893,17.588,17.594v245.753
		C686.822,468.352,686.486,468.688,686.072,468.688z"/>
</g>
    <g>
	<path fill="#2887C8" d="M686.072,507.02c-0.414,0-0.75-0.336-0.75-0.75v-20.085c0-0.414,0.336-0.75,0.75-0.75s0.75,0.336,0.75,0.75
		v20.085C686.822,506.684,686.486,507.02,686.072,507.02z"/>
</g>
    <g>
	<path fill="#2887C8" d="M686.072,585.746c-0.414,0-0.75-0.336-0.75-0.75v-60.485c0-0.414,0.336-0.75,0.75-0.75
		s0.75,0.336,0.75,0.75v60.485C686.822,585.41,686.486,585.746,686.072,585.746z"/>
</g>
    <g>
	<path fill="#2887C8" d="M669.234,646.259H128.766c-9.699,0-17.589-7.891-17.589-17.589V382.159c0-0.414,0.336-0.75,0.75-0.75
		s0.75,0.336,0.75,0.75V628.67c0,8.871,7.217,16.089,16.089,16.089h540.468c8.871,0,16.088-7.218,16.088-16.089v-25.443
		c0-0.414,0.336-0.75,0.75-0.75s0.75,0.336,0.75,0.75v25.443C686.822,638.368,678.933,646.259,669.234,646.259z"/>
</g>
    <g>
	<path fill="#2887C8" d="M111.927,364.94c-0.414,0-0.75-0.336-0.75-0.75v-55.805c0-0.414,0.336-0.75,0.75-0.75s0.75,0.336,0.75,0.75
		v55.805C112.677,364.604,112.341,364.94,111.927,364.94z"/>
</g>
    <g>
	<path fill="#2887C8" d="M111.927,290.896c-0.414,0-0.75-0.336-0.75-0.75V277.51c0-0.414,0.336-0.75,0.75-0.75s0.75,0.336,0.75,0.75
		v12.636C112.677,290.561,112.341,290.896,111.927,290.896z"/>
</g>
    <g>
	<path fill="#E4F0CC" d="M104.837,125.1h-5.986c-9.302,0-16.844,7.538-16.844,16.839v56.499c0,9.302,7.542,16.842,16.844,16.842
		h600.297c9.297,0,16.846-7.54,16.846-16.842v-56.499c0-9.302-7.549-16.839-16.846-16.839H369.834"/>
</g>
    <g>
	<path fill="#0B9D49" d="M699.148,216.029H98.851c-9.702,0-17.594-7.892-17.594-17.592v-56.499c0-9.699,7.893-17.589,17.594-17.589
		h5.986c0.414,0,0.75,0.336,0.75,0.75s-0.336,0.75-0.75,0.75h-5.986c-8.875,0-16.094,7.218-16.094,16.089v56.499
		c0,8.873,7.22,16.092,16.094,16.092h600.297c8.875,0,16.096-7.219,16.096-16.092v-56.499c0-8.872-7.221-16.089-16.096-16.089
		H369.834c-0.414,0-0.75-0.336-0.75-0.75s0.336-0.75,0.75-0.75h329.314c9.702,0,17.596,7.891,17.596,17.589v56.499
		C716.744,208.138,708.851,216.029,699.148,216.029z"/>
</g>
    <g>
	<line fill="#E4F0CC" x1="180.211" y1="125.1" x2="123.473" y2="125.1"/>
</g>
    <g>
	<path fill="#0B9D49" d="M180.211,125.85h-56.738c-0.414,0-0.75-0.336-0.75-0.75s0.336-0.75,0.75-0.75h56.738
		c0.414,0,0.75,0.336,0.75,0.75S180.625,125.85,180.211,125.85z"/>
</g>
    <g>
	<line fill="#E4F0CC" x1="216.784" y1="125.1" x2="198.282" y2="125.1"/>
</g>
    <g>
	<path fill="#0B9D49" d="M216.784,125.85h-18.502c-0.414,0-0.75-0.336-0.75-0.75s0.336-0.75,0.75-0.75h18.502
		c0.414,0,0.75,0.336,0.75,0.75S217.198,125.85,216.784,125.85z"/>
</g>
    <g>
	<line fill="#E4F0CC" x1="351.54" y1="125.1" x2="235.041" y2="125.1"/>
</g>
    <g>
	<path fill="#0B9D49" d="M351.54,125.85H235.041c-0.414,0-0.75-0.336-0.75-0.75s0.336-0.75,0.75-0.75H351.54
		c0.414,0,0.75,0.336,0.75,0.75S351.954,125.85,351.54,125.85z"/>
</g>
    <g>
	<polygon fill="#2887C8" points="158.598,380.696 157.538,379.635 237.66,299.511 178.847,299.511 178.847,298.011 240.221,298.011
		240.221,359.387 238.721,359.387 238.721,300.571 	"/>
</g>
    <g>
	<rect x="175.488" y="479.742" fill="#FFFFFF" width="63.982" height="112.171"/>
</g>
    <g>
	<path fill="#2887C8"
          d="M240.221,592.663h-65.482V478.992h65.482V592.663z M176.238,591.163h62.482V480.492h-62.482V591.163z"/>
</g>
    <g>
	<rect x="271.464" y="415.627" fill="#FFFFFF" width="63.982" height="176.286"/>
</g>
    <g>
	<path fill="#2887C8"
          d="M336.197,592.663h-65.482V414.877h65.482V592.663z M272.214,591.163h62.482V416.377h-62.482V591.163z"/>
</g>
    <g>
	<rect x="367.446" y="353.494" fill="#FFFFFF" width="63.982" height="238.419"/>
</g>
    <g>
	<path fill="#2887C8"
          d="M432.178,592.663h-65.482V352.744h65.482V592.663z M368.196,591.163h62.482V354.244h-62.482V591.163z"/>
</g>
    <g>
	<rect x="463.422" y="430.118" fill="#FFFFFF" width="63.982" height="161.795"/>
</g>
    <g>
	<path fill="#2887C8"
          d="M528.154,592.663h-65.482V429.368h65.482V592.663z M464.172,591.163h62.482V430.868h-62.482V591.163z"/>
</g>
    <g>
	<rect x="559.398" y="290.061" fill="#FFFFFF" width="63.982" height="301.852"/>
</g>
    <g>
	<path fill="#2887C8"
          d="M624.131,592.663h-65.482V289.311h65.482V592.663z M560.148,591.163h62.482V290.811h-62.482V591.163z"/>
</g>
    <g>
	<rect x="175.488" y="479.742" fill="#B6DDF5" width="63.982" height="56.086"/>
</g>
    <g>
	<path fill="#2887C8"
          d="M240.221,536.578h-65.482v-57.586h65.482V536.578z M176.238,535.078h62.482v-54.586h-62.482V535.078z"/>
</g>
    <g>
	<rect x="271.464" y="415.627" fill="#B6DDF5" width="63.982" height="120.201"/>
</g>
    <g>
	<path fill="#2887C8"
          d="M336.197,536.578h-65.482V414.877h65.482V536.578z M272.214,535.078h62.482V416.377h-62.482V535.078z"/>
</g>
    <g>
	<rect x="367.446" y="353.492" fill="#B6DDF5" width="63.982" height="182.336"/>
</g>
    <g>
	<path fill="#2887C8"
          d="M432.178,536.578h-65.482V352.742h65.482V536.578z M368.196,535.078h62.482V354.242h-62.482V535.078z"/>
</g>
    <g>
	<rect x="463.422" y="430.118" fill="#B6DDF5" width="63.982" height="105.71"/>
</g>
    <g>
	<path fill="#2887C8"
          d="M528.154,536.578h-65.482v-107.21h65.482V536.578z M464.172,535.078h62.482v-104.21h-62.482V535.078z"/>
</g>
    <g>
	<rect x="559.398" y="290.061" fill="#B6DDF5" width="63.982" height="245.767"/>
</g>
    <g>
	<path fill="#2887C8"
          d="M624.131,536.578h-65.482V289.311h65.482V536.578z M560.148,535.078h62.482V290.811h-62.482V535.078z"/>
</g>
    <g>
	<path fill="#2887C8" d="M678.846,646.259H123.031c-0.414,0-0.75-0.336-0.75-0.75s0.336-0.75,0.75-0.75h555.815
		c0.414,0,0.75,0.336,0.75,0.75S679.26,646.259,678.846,646.259z"/>
</g>
    <g>
	<path fill="#2887C8" d="M740.572,646.259h-27.787c-0.414,0-0.75-0.336-0.75-0.75s0.336-0.75,0.75-0.75h27.787
		c0.414,0,0.75,0.336,0.75,0.75S740.986,646.259,740.572,646.259z"/>
</g>
    <g>
	<path fill="#2887C8" d="M774,646.259h-3.113c-0.414,0-0.75-0.336-0.75-0.75s0.336-0.75,0.75-0.75H774c0.414,0,0.75,0.336,0.75,0.75
		S774.414,646.259,774,646.259z"/>
</g>
    <g>
	<path fill="#2887C8" d="M89.091,646.259H61.303c-0.414,0-0.75-0.336-0.75-0.75s0.336-0.75,0.75-0.75h27.788
		c0.414,0,0.75,0.336,0.75,0.75S89.505,646.259,89.091,646.259z"/>
</g>
    <g>
	<path fill="#2887C8" d="M27.118,646.259H24c-0.414,0-0.75-0.336-0.75-0.75s0.336-0.75,0.75-0.75h3.118
		c0.414,0,0.75,0.336,0.75,0.75S27.532,646.259,27.118,646.259z"/>
</g>
</svg>
