<?xml version="1.0" encoding="utf-8"?>
<!-- Generator: Adobe Illustrator 16.0.0, SVG Export Plug-In . SVG Version: 6.00 Build 0)  -->
<!DOCTYPE svg PUBLIC "-//W3C//DTD SVG 1.0//EN" "http://www.w3.org/TR/2001/REC-SVG-20010904/DTD/svg10.dtd">
<svg version="1.0" id="Layer_1" xmlns="http://www.w3.org/2000/svg" x="0px" y="0px"
     width="800px" height="800px" viewBox="0 0 800 800" enable-background="new 0 0 800 800" xml:space="preserve">
<path fill="#E4F2FC" d="M775.516,410.174c0,4.612-0.253,9.167-0.693,13.652c-0.445,4.487-1.139,8.973-2.024,13.336
	c-0.442,2.148-0.947,4.359-1.514,6.507c-2.149,8.596-5.248,16.937-9.041,24.776c-4.676,9.861-10.555,18.964-17.509,27.304
	c-1.387,1.648-2.78,3.285-4.235,4.868c-2.843,3.219-5.942,6.318-9.162,9.161c-1.578,1.394-3.161,2.786-4.802,4.238
	c-0.064,0-0.123,0.063-0.191,0.128c-1.648,1.259-3.285,2.588-4.994,3.854c-1.892,1.451-3.852,2.845-5.814,4.107
	c-1.515,1.014-2.966,1.961-4.549,2.904c-1.585,0.948-3.157,1.901-4.74,2.722c-1.139,0.693-2.337,1.328-3.538,1.896
	c-2.595,1.394-5.248,2.653-7.967,3.86c-1.769,0.753-3.601,1.511-5.368,2.204c-0.318,0.127-0.635,0.187-0.89,0.322
	c-1.959,0.753-3.919,1.452-5.938,2.084c-6.195,2.083-12.642,3.662-19.215,4.675c-2.214,0.381-4.427,0.693-6.635,0.948
	c-2.281,0.253-4.486,0.445-6.769,0.635c-3.034,0.253-6.068,0.377-9.16,0.377H207.313c-80.329,0-145.428-65.099-145.428-145.428
	c0-59.229,35.457-110.235,86.277-132.858c-3.607-9.988-3.226-15.229-3.226-26.484c0-51.953,42.095-94.044,93.983-94.044
	c1.641,0,3.22,0.062,4.802,0.126c1.645,0.069,3.226,0.189,4.805,0.381c3.416,0.313,6.762,0.82,9.988,1.514
	c2.842,0.631,5.622,1.325,8.341,2.214c1.266,0.377,2.529,0.82,3.792,1.259c1.641,0.573,3.289,1.208,4.802,1.898
	c1.456,0.573,2.849,1.202,4.174,1.895c0.947,0.381,1.833,0.886,2.715,1.394c4.867,2.461,9.418,5.434,13.715,8.722
	c1.071,0.759,2.083,1.514,3.1,2.34c31.097-60.554,94.11-102.014,166.86-102.014c103.459,0,187.331,83.871,187.331,187.337
	c0,7.647-0.509,15.23-1.388,22.688c57.892,4.681,105.416,46.142,119.328,100.94c0.566,2.149,1.071,4.294,1.514,6.446
	c0.95,4.42,1.579,8.848,2.024,13.396C775.263,400.943,775.516,405.557,775.516,410.174"/>
    <path fill="none" stroke="#2887C8" stroke-width="1.5" stroke-linecap="round" stroke-linejoin="round"
          stroke-miterlimit="10" d="
	M285.867,131.304c-9.474,11.076-17.688,23.271-24.407,36.358c-1.01-0.826-2.022-1.585-3.097-2.337
	c-15.803-12.202-35.645-19.41-57.132-19.41c-51.894,0-93.986,42.098-93.986,94.051c0,2.145,0.062,4.294,0.254,6.381
	c0.254,6.893,1.267,13.589,2.966,20.103c-22.262,9.907-41.571,25.271-56.251,44.377"/>
    <path fill="none" stroke="#2887C8" stroke-width="1.5" stroke-linecap="round" stroke-linejoin="round"
          stroke-miterlimit="10" d="
	M323.97,97.381c-5.173,3.477-10.167,7.208-14.953,11.17"/>
    <path fill="none" stroke="#2887C8" stroke-width="1.5" stroke-linecap="round" stroke-linejoin="round"
          stroke-miterlimit="10" d="
	M272.597,544.733h330.48c74.39,0,134.749-60.293,134.749-134.749c0-70.663-54.421-128.685-123.561-134.31
	c0.88-7.456,1.388-15.044,1.388-22.692c0-103.46-83.872-187.334-187.337-187.334c-25.049,0-48.952,4.919-70.797,13.839"/>
    <path fill="none" stroke="#2887C8" stroke-width="1.5" stroke-linecap="round" stroke-linejoin="round"
          stroke-miterlimit="10" d="
	M27.948,432.09c14.875,64.526,72.629,112.644,141.678,112.644h68.208"/>
    <path fill="none" stroke="#2887C8" stroke-width="1.5" stroke-linecap="round" stroke-linejoin="round"
          stroke-miterlimit="10" d="
	M30.37,357.334c-2.22,7.384-3.815,15.025-4.854,22.845"/>
    <path fill="none" stroke="#2887C8" stroke-width="1.5" stroke-linecap="round" stroke-linejoin="round"
          stroke-miterlimit="10" d="
	M277.578,294.638c11.069-15.425,17.655-34.272,17.655-54.707c0-51.915-42.085-94-94.002-94c-51.914,0-94.006,42.085-94.006,94
	c0,11.274-0.394,16.5,3.246,26.517"/>
    <path fill="none" stroke="#2887C8" stroke-width="1.5" stroke-linecap="round" stroke-linejoin="round"
          stroke-miterlimit="10" d="
	M605.427,544.636c73.311-1.155,132.402-60.847,132.402-134.437c0-74.303-60.241-134.538-134.544-134.538
	c-14.801,0-29.001,2.481-42.323,6.896"/>
    <path fill="#E4F0CC" d="M569.003,525.76v135.134c0,39.493-29.71,71.503-66.368,71.503H325.38c-36.651,0-66.368-32.01-66.368-71.503
	V525.76c0-14.963,11.28-27.119,25.168-27.119h259.707C557.774,498.641,569.003,510.797,569.003,525.76"/>
    <path fill="#E4F0CC" d="M518.506,451.52v46.698h-39.579v-41.854c0-18.847-7.653-35.896-20.008-48.251
	c-12.356-12.355-29.405-20.009-48.252-20.009c-37.683,0-68.254,30.571-68.254,68.26v41.854h-39.581V451.52
	c0-58.283,47.232-105.515,105.514-105.515h4.648C471.273,346.005,518.506,393.237,518.506,451.52"/>
    <path fill="none" stroke="#0B9D49" stroke-width="1.5" stroke-linecap="round" stroke-linejoin="round"
          stroke-miterlimit="10" d="
	M406.564,346.845c-2.934-0.245-5.882-0.411-8.881-0.411h-4.649c-2.139,0-4.232,0.192-6.338,0.319"/>
    <path fill="none" stroke="#0B9D49" stroke-width="1.5" stroke-linecap="round" stroke-linejoin="round"
          stroke-miterlimit="10" d="
	M485.858,394.07c-14.136-21.49-35.886-37.518-61.423-44.204"/>
    <path fill="none" stroke="#0B9D49" stroke-width="1.5" stroke-linecap="round" stroke-linejoin="round"
          stroke-miterlimit="10" d="
	M502.897,446.18c-0.692-12.693-3.505-24.82-8.294-35.928"/>
    <path fill="none" stroke="#0B9D49" stroke-width="1.5" stroke-linecap="round" stroke-linejoin="round"
          stroke-miterlimit="10" d="
	M334.912,425.143c11.415-21.751,34.184-36.613,60.447-36.613c18.844,0,35.899,7.654,48.245,20.009
	c12.358,12.354,20.012,29.404,20.012,48.254v41.851h39.579v-34.239"/>
    <path fill="none" stroke="#0B9D49" stroke-width="1.5" stroke-linecap="round" stroke-linejoin="round"
          stroke-miterlimit="10" d="
	M368.475,349.423c-46.412,11.083-80.957,52.711-80.957,102.519v46.698h39.584v-41.854c0-4.932,0.554-9.733,1.546-14.373"/>
    <path fill="none" stroke="#0B9D49" stroke-width="1.5" stroke-linecap="round" stroke-linejoin="round"
          stroke-miterlimit="10" d="
	M550.209,558.817v-35.023c0-13.876-11.223-25.153-25.098-25.153H265.653c-13.869,0-25.143,11.277-25.143,25.153v125.314
	c0,36.622,29.685,66.301,66.307,66.301h177.083c33.379,0,60.908-24.679,65.548-56.763"/>
    <line fill="none" stroke="#0B9D49" stroke-width="1.5" stroke-linecap="round" stroke-linejoin="round"
          stroke-miterlimit="10" x1="550.209" y1="589.609" x2="550.209" y2="577.039"/>
    <line fill="none" stroke="#0B9D49" stroke-width="1.5" stroke-linecap="round" stroke-linejoin="round"
          stroke-miterlimit="10" x1="550.209" y1="640.423" x2="550.209" y2="608.075"/>
    <path fill="#FFFFFF" d="M372.017,656.948l11.629-59.486c-6.14-3.868-10.187-10.679-10.187-18.453c0-12.104,9.8-21.903,21.901-21.903
	c12.068,0,21.896,9.799,21.896,21.903c0,7.774-4.079,14.585-10.18,18.453l11.626,59.486H372.017z"/>
    <path fill="#0B9D49" d="M418.695,660.773h-46.679c-1.146,0-2.227-0.508-2.953-1.394c-0.726-0.882-1.023-2.041-0.801-3.168
	l11.154-57.055c-6.167-4.834-9.78-12.189-9.78-20.148c0-14.188,11.541-25.729,25.723-25.729s25.723,11.54,25.723,25.729
	c0,7.934-3.607,15.288-9.78,20.143l11.154,57.061c0.214,1.127-0.078,2.286-0.808,3.168
	C420.922,660.266,419.838,660.773,418.695,660.773 M376.666,653.125h37.383l-10.73-54.928c-0.299-1.547,0.375-3.126,1.71-3.965
	c5.261-3.334,8.406-9.028,8.406-15.224c0-9.969-8.106-18.075-18.075-18.075c-9.959,0-18.069,8.106-18.069,18.075
	c0,6.214,3.135,11.902,8.396,15.216c1.338,0.841,2.019,2.42,1.719,3.973L376.666,653.125z"/>
</svg>
