<?xml version="1.0" encoding="utf-8"?>
<!-- Generator: Adobe Illustrator 16.0.0, SVG Export Plug-In . SVG Version: 6.00 Build 0)  -->
<!DOCTYPE svg PUBLIC "-//W3C//DTD SVG 1.1//EN" "http://www.w3.org/Graphics/SVG/1.1/DTD/svg11.dtd">
<svg version="1.1" id="Layer_1" xmlns="http://www.w3.org/2000/svg" x="0px" y="0px"
     width="800px" height="800px" viewBox="0 0 800 800" enable-background="new 0 0 800 800" xml:space="preserve">
<rect x="228.472" y="111.089" fill="#B6DDF5" width="338.298" height="478.724"/>
    <rect x="228.472" y="111.089" fill="none" stroke="#2887C8" stroke-linecap="round" stroke-linejoin="round"
          stroke-miterlimit="10" width="338.298" height="478.724"/>
    <path fill="#FFFFFF" d="M588.203,491.14v72.635c0,3.758-3.043,6.766-6.77,6.766H468.647c-0.067-3.689-3.043-6.664-6.767-6.664
	H333.359c-3.718,0-6.698,2.975-6.763,6.664H213.804c-3.718,0-6.76-3.008-6.76-6.766V491.14c0-3.721,3.042-6.766,6.76-6.766h367.63
	C585.16,484.374,588.203,487.419,588.203,491.14"/>
    <path fill="none" stroke="#2887C8" stroke-miterlimit="10" d="M588.203,491.14v72.635c0,3.758-3.043,6.766-6.77,6.766H468.647
	c-0.067-3.689-3.043-6.664-6.767-6.664H333.359c-3.718,0-6.698,2.975-6.763,6.664H213.804c-3.718,0-6.76-3.008-6.76-6.766V491.14
	c0-3.721,3.042-6.766,6.76-6.766h367.63C585.16,484.374,588.203,487.419,588.203,491.14z"/>
    <path fill="#E4F0CC" d="M568.975,524.074c0,6.354-5.152,11.511-11.511,11.511c-6.357,0-11.517-5.156-11.517-11.511
	c0-6.358,5.159-11.518,11.517-11.518C563.822,512.557,568.975,517.716,568.975,524.074"/>
    <path fill="#2887C8" d="M565.167,524.074c0,4.252-3.453,7.705-7.706,7.705c-4.255,0-7.7-3.453-7.7-7.705
	c0-4.256,3.445-7.706,7.7-7.706C561.714,516.368,565.167,519.818,565.167,524.074"/>
    <path fill="#E4F0CC" d="M531.737,524.074c0,6.354-5.152,11.511-11.512,11.511c-6.354,0-11.517-5.156-11.517-11.511
	c0-6.358,5.162-11.518,11.517-11.518C526.585,512.558,531.737,517.716,531.737,524.074"/>
    <path fill="#2887C8" d="M527.933,524.074c0,4.252-3.453,7.705-7.706,7.705c-4.255,0-7.708-3.453-7.708-7.705
	c0-4.256,3.453-7.706,7.708-7.706C524.479,516.368,527.933,519.818,527.933,524.074"/>
    <path fill="#2887C8" d="M242.846,513.554c0,3.734-3.034,6.767-6.769,6.767c-3.735,0-6.766-3.031-6.766-6.767
	c0-3.734,3.031-6.766,6.766-6.766C239.812,506.788,242.846,509.818,242.846,513.554 M236.077,527.097
	c-3.735,0-6.766,3.028-6.766,6.77c0,3.733,3.031,6.766,6.766,6.766c3.735,0,6.769-3.031,6.769-6.766
	C242.846,530.125,239.812,527.097,236.077,527.097"/>
    <path fill="#2887C8" d="M271.051,513.554c0,3.734-3.031,6.767-6.766,6.767c-3.735,0-6.766-3.031-6.766-6.767
	c0-3.734,3.031-6.766,6.766-6.766C268.02,506.788,271.051,509.818,271.051,513.554 M264.286,527.097
	c-3.735,0-6.766,3.028-6.766,6.77c0,3.733,3.031,6.766,6.766,6.766c3.734,0,6.766-3.031,6.766-6.766
	C271.051,530.125,268.02,527.097,264.286,527.097"/>
    <path fill="#2887C8" d="M299.26,513.554c0,3.734-3.031,6.767-6.766,6.767c-3.734,0-6.766-3.031-6.766-6.767
	c0-3.734,3.031-6.766,6.766-6.766C296.229,506.788,299.26,509.818,299.26,513.554 M292.494,527.097c-3.734,0-6.766,3.028-6.766,6.77
	c0,3.733,3.031,6.766,6.766,6.766c3.735,0,6.766-3.031,6.766-6.766C299.26,530.125,296.229,527.097,292.494,527.097"/>
    <path fill="#2887C8" d="M327.469,513.554c0,3.734-3.031,6.767-6.766,6.767c-3.735,0-6.766-3.031-6.766-6.767
	c0-3.734,3.031-6.766,6.766-6.766C324.438,506.788,327.469,509.818,327.469,513.554 M320.703,527.097
	c-3.735,0-6.766,3.028-6.766,6.77c0,3.733,3.031,6.766,6.766,6.766c3.734,0,6.766-3.031,6.766-6.766
	C327.469,530.125,324.438,527.097,320.703,527.097"/>
    <path fill="#2887C8" d="M355.677,513.554c0,3.734-3.031,6.767-6.766,6.767c-3.735,0-6.769-3.031-6.769-6.767
	c0-3.734,3.034-6.766,6.769-6.766C352.646,506.788,355.677,509.818,355.677,513.554 M348.912,527.097
	c-3.735,0-6.769,3.028-6.769,6.77c0,3.733,3.034,6.766,6.769,6.766c3.735,0,6.766-3.031,6.766-6.766
	C355.677,530.125,352.646,527.097,348.912,527.097"/>
    <path fill="#2887C8" d="M383.886,513.554c0,3.734-3.031,6.767-6.766,6.767c-3.734,0-6.766-3.031-6.766-6.767
	c0-3.734,3.031-6.766,6.766-6.766C380.855,506.788,383.886,509.818,383.886,513.554 M377.12,527.097
	c-3.734,0-6.766,3.028-6.766,6.77c0,3.733,3.031,6.766,6.766,6.766c3.735,0,6.766-3.031,6.766-6.766
	C383.886,530.125,380.855,527.097,377.12,527.097"/>
    <path fill="#2887C8" d="M412.096,513.554c0,3.734-3.031,6.767-6.767,6.767s-6.769-3.031-6.769-6.767
	c0-3.734,3.033-6.766,6.769-6.766C409.063,506.788,412.096,509.818,412.096,513.554 M405.329,527.097
	c-3.735,0-6.769,3.028-6.769,6.77c0,3.733,3.033,6.766,6.769,6.766c3.733,0,6.767-3.031,6.767-6.766
	C412.096,530.125,409.063,527.097,405.329,527.097"/>
    <path fill="#FFFFFF" d="M588.203,385.701v72.64c0,3.751-3.043,6.761-6.77,6.761H468.647c-0.067-3.685-3.043-6.665-6.767-6.665
	H333.359c-3.718,0-6.698,2.98-6.763,6.665H213.804c-3.718,0-6.76-3.01-6.76-6.761v-72.64c0-3.721,3.042-6.767,6.76-6.767h367.63
	C585.16,378.936,588.203,381.98,588.203,385.701"/>
    <path fill="none" stroke="#2887C8" stroke-miterlimit="10" d="M588.203,385.701v72.64c0,3.751-3.043,6.761-6.77,6.761H468.647
	c-0.067-3.685-3.043-6.665-6.767-6.665H333.359c-3.718,0-6.698,2.98-6.763,6.665H213.804c-3.718,0-6.76-3.01-6.76-6.761v-72.64
	c0-3.721,3.042-6.767,6.76-6.767h367.63C585.16,378.936,588.203,381.98,588.203,385.701z"/>
    <path fill="#E4F0CC" d="M568.975,418.635c0,6.361-5.152,11.519-11.511,11.519c-6.357,0-11.517-5.156-11.517-11.519
	c0-6.356,5.159-11.51,11.517-11.51C563.822,407.125,568.975,412.277,568.975,418.635"/>
    <path fill="#0B9D49" d="M565.167,418.635c0,4.253-3.453,7.706-7.706,7.706c-4.255,0-7.7-3.453-7.7-7.706
	c0-4.255,3.445-7.699,7.7-7.699C561.714,410.936,565.167,414.38,565.167,418.635"/>
    <path fill="#E4F0CC" d="M531.737,418.635c0,6.361-5.152,11.519-11.512,11.519c-6.354,0-11.517-5.156-11.517-11.519
	c0-6.356,5.162-11.51,11.517-11.51C526.585,407.125,531.737,412.277,531.737,418.635"/>
    <path fill="#0B9D49" d="M527.933,418.635c0,4.253-3.453,7.706-7.706,7.706c-4.255,0-7.708-3.453-7.708-7.706
	c0-4.255,3.453-7.699,7.708-7.699C524.479,410.936,527.933,414.38,527.933,418.635"/>
    <path fill="#2887C8" d="M242.846,408.115c0,3.74-3.034,6.766-6.769,6.766c-3.735,0-6.766-3.024-6.766-6.766
	c0-3.734,3.031-6.76,6.766-6.76C239.812,401.355,242.846,404.381,242.846,408.115 M236.077,421.658
	c-3.735,0-6.766,3.033-6.766,6.769c0,3.734,3.031,6.767,6.766,6.767c3.735,0,6.769-3.031,6.769-6.767
	S239.812,421.658,236.077,421.658"/>
    <path fill="#2887C8" d="M271.051,408.115c0,3.74-3.031,6.766-6.766,6.766c-3.735,0-6.766-3.024-6.766-6.766
	c0-3.734,3.031-6.76,6.766-6.76C268.02,401.355,271.051,404.381,271.051,408.115 M264.286,421.658c-3.735,0-6.766,3.033-6.766,6.769
	c0,3.734,3.031,6.767,6.766,6.767c3.734,0,6.766-3.031,6.766-6.767C271.051,424.691,268.02,421.658,264.286,421.658"/>
    <path fill="#2887C8" d="M299.26,408.115c0,3.74-3.031,6.766-6.766,6.766c-3.734,0-6.766-3.024-6.766-6.766
	c0-3.734,3.031-6.76,6.766-6.76C296.229,401.355,299.26,404.381,299.26,408.115 M292.494,421.658c-3.734,0-6.766,3.033-6.766,6.769
	c0,3.734,3.031,6.767,6.766,6.767c3.735,0,6.766-3.031,6.766-6.767S296.229,421.658,292.494,421.658"/>
    <path fill="#2887C8" d="M327.469,408.115c0,3.74-3.031,6.766-6.766,6.766c-3.735,0-6.766-3.024-6.766-6.766
	c0-3.734,3.031-6.76,6.766-6.76C324.438,401.355,327.469,404.381,327.469,408.115 M320.703,421.658
	c-3.735,0-6.766,3.033-6.766,6.769c0,3.734,3.031,6.767,6.766,6.767c3.734,0,6.766-3.031,6.766-6.767
	S324.438,421.658,320.703,421.658"/>
    <path fill="#2887C8" d="M355.677,408.115c0,3.74-3.031,6.766-6.766,6.766c-3.735,0-6.769-3.024-6.769-6.766
	c0-3.734,3.034-6.76,6.769-6.76C352.646,401.355,355.677,404.381,355.677,408.115 M348.912,421.658
	c-3.735,0-6.769,3.033-6.769,6.769c0,3.734,3.034,6.767,6.769,6.767c3.735,0,6.766-3.031,6.766-6.767
	C355.677,424.691,352.646,421.658,348.912,421.658"/>
    <path fill="#2887C8" d="M383.886,408.115c0,3.74-3.031,6.766-6.766,6.766c-3.734,0-6.766-3.024-6.766-6.766
	c0-3.734,3.031-6.76,6.766-6.76C380.855,401.355,383.886,404.381,383.886,408.115 M377.12,421.658c-3.734,0-6.766,3.033-6.766,6.769
	c0,3.734,3.031,6.767,6.766,6.767c3.735,0,6.766-3.031,6.766-6.767S380.855,421.658,377.12,421.658"/>
    <path fill="#2887C8" d="M412.096,408.115c0,3.74-3.031,6.766-6.767,6.766s-6.769-3.024-6.769-6.766c0-3.734,3.033-6.76,6.769-6.76
	C409.063,401.355,412.096,404.381,412.096,408.115 M405.329,421.658c-3.735,0-6.769,3.033-6.769,6.769
	c0,3.734,3.033,6.767,6.769,6.767c3.733,0,6.767-3.031,6.767-6.767S409.063,421.658,405.329,421.658"/>
    <path fill="#FFFFFF" d="M588.203,280.269v72.635c0,3.754-3.043,6.763-6.77,6.763H468.647c-0.067-3.684-3.043-6.664-6.767-6.664
	H333.359c-3.718,0-6.698,2.98-6.763,6.664H213.804c-3.718,0-6.76-3.008-6.76-6.763v-72.635c0-3.727,3.042-6.769,6.76-6.769h367.63
	C585.16,273.5,588.203,276.542,588.203,280.269"/>
    <path fill="none" stroke="#2887C8" stroke-miterlimit="10" d="M588.203,280.269v72.635c0,3.754-3.043,6.763-6.77,6.763H468.647
	c-0.067-3.684-3.043-6.664-6.767-6.664H333.359c-3.718,0-6.698,2.98-6.763,6.664H213.804c-3.718,0-6.76-3.008-6.76-6.763v-72.635
	c0-3.727,3.042-6.769,6.76-6.769h367.63C585.16,273.5,588.203,276.542,588.203,280.269z"/>
    <path fill="#E4F0CC" d="M568.975,313.197c0,6.359-5.152,11.517-11.511,11.517c-6.357,0-11.517-5.156-11.517-11.517
	c0-6.355,5.159-11.508,11.517-11.508C563.822,301.689,568.975,306.842,568.975,313.197"/>
    <path fill="#0B9D49" d="M565.167,313.197c0,4.255-3.453,7.708-7.706,7.708c-4.255,0-7.7-3.453-7.7-7.708
	c0-4.252,3.445-7.706,7.7-7.706C561.714,305.491,565.167,308.944,565.167,313.197"/>
    <path fill="#E4F0CC" d="M531.737,313.197c0,6.359-5.152,11.517-11.512,11.517c-6.354,0-11.517-5.156-11.517-11.517
	c0-6.355,5.162-11.508,11.517-11.508C526.585,301.688,531.737,306.842,531.737,313.197"/>
    <path fill="#0B9D49" d="M527.933,313.197c0,4.255-3.453,7.708-7.706,7.708c-4.255,0-7.708-3.453-7.708-7.708
	c0-4.252,3.453-7.706,7.708-7.706C524.479,305.491,527.933,308.944,527.933,313.197"/>
    <path fill="#2887C8" d="M242.846,302.679c0,3.735-3.034,6.767-6.769,6.767c-3.735,0-6.766-3.031-6.766-6.767
	c0-3.734,3.031-6.769,6.766-6.769C239.812,295.91,242.846,298.944,242.846,302.679 M236.077,316.225
	c-3.735,0-6.766,3.025-6.766,6.767c0,3.734,3.031,6.766,6.766,6.766c3.735,0,6.769-3.031,6.769-6.766
	C242.846,319.25,239.812,316.225,236.077,316.225"/>
    <path fill="#2887C8" d="M271.051,302.679c0,3.735-3.031,6.767-6.766,6.767c-3.735,0-6.766-3.031-6.766-6.767
	c0-3.734,3.031-6.769,6.766-6.769C268.02,295.911,271.051,298.944,271.051,302.679 M264.286,316.225
	c-3.735,0-6.766,3.025-6.766,6.767c0,3.734,3.031,6.766,6.766,6.766c3.734,0,6.766-3.031,6.766-6.766
	C271.051,319.25,268.02,316.225,264.286,316.225"/>
    <path fill="#2887C8" d="M299.26,302.679c0,3.735-3.031,6.767-6.766,6.767c-3.734,0-6.766-3.031-6.766-6.767
	c0-3.734,3.031-6.769,6.766-6.769C296.229,295.911,299.26,298.944,299.26,302.679 M292.494,316.225
	c-3.734,0-6.766,3.025-6.766,6.767c0,3.734,3.031,6.766,6.766,6.766c3.735,0,6.766-3.031,6.766-6.766
	C299.26,319.25,296.229,316.225,292.494,316.225"/>
    <path fill="#2887C8" d="M327.469,302.679c0,3.735-3.031,6.767-6.766,6.767c-3.735,0-6.766-3.031-6.766-6.767
	c0-3.734,3.031-6.769,6.766-6.769C324.438,295.911,327.469,298.944,327.469,302.679 M320.703,316.225
	c-3.735,0-6.766,3.025-6.766,6.767c0,3.734,3.031,6.766,6.766,6.766c3.734,0,6.766-3.031,6.766-6.766
	C327.469,319.25,324.438,316.225,320.703,316.225"/>
    <path fill="#2887C8" d="M355.677,302.679c0,3.735-3.031,6.767-6.766,6.767c-3.735,0-6.769-3.031-6.769-6.767
	c0-3.734,3.034-6.769,6.769-6.769C352.646,295.91,355.677,298.944,355.677,302.679 M348.912,316.225
	c-3.735,0-6.769,3.025-6.769,6.767c0,3.734,3.034,6.766,6.769,6.766c3.735,0,6.766-3.031,6.766-6.766
	C355.677,319.25,352.646,316.225,348.912,316.225"/>
    <path fill="#2887C8" d="M383.886,302.679c0,3.735-3.031,6.767-6.766,6.767c-3.734,0-6.766-3.031-6.766-6.767
	c0-3.734,3.031-6.769,6.766-6.769C380.855,295.911,383.886,298.944,383.886,302.679 M377.12,316.225
	c-3.734,0-6.766,3.025-6.766,6.767c0,3.734,3.031,6.766,6.766,6.766c3.735,0,6.766-3.031,6.766-6.766
	C383.886,319.25,380.855,316.225,377.12,316.225"/>
    <path fill="#2887C8" d="M412.096,302.679c0,3.735-3.031,6.767-6.767,6.767s-6.769-3.031-6.769-6.767
	c0-3.734,3.033-6.769,6.769-6.769C409.063,295.911,412.096,298.944,412.096,302.679 M405.329,316.225
	c-3.735,0-6.769,3.025-6.769,6.767c0,3.734,3.033,6.766,6.769,6.766c3.733,0,6.767-3.031,6.767-6.766
	C412.096,319.25,409.063,316.225,405.329,316.225"/>
    <path fill="#FFFFFF" d="M588.203,174.83v72.634c0,3.757-3.043,6.766-6.77,6.766H468.647c-0.067-3.689-3.043-6.665-6.767-6.665
	H333.359c-3.718,0-6.698,2.975-6.763,6.665H213.804c-3.718,0-6.76-3.009-6.76-6.766V174.83c0-3.72,3.042-6.766,6.76-6.766h367.63
	C585.16,168.064,588.203,171.109,588.203,174.83"/>
    <path fill="none" stroke="#2887C8" stroke-miterlimit="10" d="M588.203,174.83v72.634c0,3.757-3.043,6.766-6.77,6.766H468.647
	c-0.067-3.689-3.043-6.665-6.767-6.665H333.359c-3.718,0-6.698,2.975-6.763,6.665H213.804c-3.718,0-6.76-3.009-6.76-6.766V174.83
	c0-3.72,3.042-6.766,6.76-6.766h367.63C585.16,168.064,588.203,171.109,588.203,174.83z"/>
    <path fill="#E4F0CC" d="M568.975,207.764c0,6.355-5.152,11.511-11.511,11.511c-6.357,0-11.517-5.156-11.517-11.511
	c0-6.357,5.159-11.517,11.517-11.517C563.822,196.247,568.975,201.406,568.975,207.764"/>
    <path fill="#0B9D49" d="M565.167,207.764c0,4.253-3.453,7.7-7.706,7.7c-4.255,0-7.7-3.447-7.7-7.7c0-4.255,3.445-7.706,7.7-7.706
	C561.714,200.058,565.167,203.508,565.167,207.764"/>
    <path fill="#E4F0CC" d="M531.737,207.764c0,6.355-5.152,11.511-11.512,11.511c-6.354,0-11.517-5.156-11.517-11.511
	c0-6.357,5.162-11.517,11.517-11.517C526.585,196.247,531.737,201.406,531.737,207.764"/>
    <path fill="#0B9D49" d="M527.933,207.764c0,4.253-3.453,7.7-7.706,7.7c-4.255,0-7.708-3.447-7.708-7.7
	c0-4.255,3.453-7.706,7.708-7.706C524.479,200.058,527.933,203.508,527.933,207.764"/>
    <path fill="#2887C8" d="M242.846,197.244c0,3.735-3.034,6.766-6.769,6.766c-3.735,0-6.766-3.031-6.766-6.766
	c0-3.74,3.031-6.766,6.766-6.766C239.812,190.478,242.846,193.503,242.846,197.244 M236.077,210.787
	c-3.735,0-6.766,3.028-6.766,6.769c0,3.735,3.031,6.766,6.766,6.766c3.735,0,6.769-3.031,6.769-6.766
	C242.846,213.815,239.812,210.787,236.077,210.787"/>
    <path fill="#2887C8" d="M271.051,197.244c0,3.735-3.031,6.766-6.766,6.766c-3.735,0-6.766-3.031-6.766-6.766
	c0-3.74,3.031-6.766,6.766-6.766C268.02,190.478,271.051,193.503,271.051,197.244 M264.286,210.787
	c-3.735,0-6.766,3.028-6.766,6.769c0,3.735,3.031,6.766,6.766,6.766c3.734,0,6.766-3.031,6.766-6.766
	C271.051,213.815,268.02,210.787,264.286,210.787"/>
    <path fill="#2887C8" d="M299.26,197.244c0,3.735-3.031,6.766-6.766,6.766c-3.734,0-6.766-3.031-6.766-6.766
	c0-3.74,3.031-6.766,6.766-6.766C296.229,190.478,299.26,193.503,299.26,197.244 M292.494,210.787c-3.734,0-6.766,3.028-6.766,6.769
	c0,3.735,3.031,6.766,6.766,6.766c3.735,0,6.766-3.031,6.766-6.766C299.26,213.815,296.229,210.787,292.494,210.787"/>
    <path fill="#2887C8" d="M327.469,197.244c0,3.735-3.031,6.766-6.766,6.766c-3.735,0-6.766-3.031-6.766-6.766
	c0-3.74,3.031-6.766,6.766-6.766C324.438,190.478,327.469,193.503,327.469,197.244 M320.703,210.787
	c-3.735,0-6.766,3.028-6.766,6.769c0,3.735,3.031,6.766,6.766,6.766c3.734,0,6.766-3.031,6.766-6.766
	C327.469,213.815,324.438,210.787,320.703,210.787"/>
    <path fill="#2887C8" d="M355.677,197.244c0,3.735-3.031,6.766-6.766,6.766c-3.735,0-6.769-3.031-6.769-6.766
	c0-3.74,3.034-6.766,6.769-6.766C352.646,190.478,355.677,193.503,355.677,197.244 M348.912,210.787
	c-3.735,0-6.769,3.028-6.769,6.769c0,3.735,3.034,6.766,6.769,6.766c3.735,0,6.766-3.031,6.766-6.766
	C355.677,213.815,352.646,210.787,348.912,210.787"/>
    <path fill="#2887C8" d="M383.886,197.244c0,3.735-3.031,6.766-6.766,6.766c-3.734,0-6.766-3.031-6.766-6.766
	c0-3.74,3.031-6.766,6.766-6.766C380.855,190.478,383.886,193.503,383.886,197.244 M377.12,210.787
	c-3.734,0-6.766,3.028-6.766,6.769c0,3.735,3.031,6.766,6.766,6.766c3.735,0,6.766-3.031,6.766-6.766
	C383.886,213.815,380.855,210.787,377.12,210.787"/>
    <path fill="#2887C8" d="M412.096,197.244c0,3.735-3.031,6.766-6.767,6.766s-6.769-3.031-6.769-6.766c0-3.74,3.033-6.766,6.769-6.766
	C409.063,190.478,412.096,193.503,412.096,197.244 M405.329,210.787c-3.735,0-6.769,3.028-6.769,6.769
	c0,3.735,3.033,6.766,6.769,6.766c3.733,0,6.767-3.031,6.767-6.766C412.096,213.815,409.063,210.787,405.329,210.787"/>
    <path fill="#FFFFFF" d="M575.788,148.791H219.455c-6.859,0-12.417-5.556-12.417-12.409V84.414c0-6.856,5.558-12.415,12.417-12.415
	h356.333c6.854,0,12.418,5.559,12.418,12.415v51.968C588.206,143.235,582.642,148.791,575.788,148.791"/>
    <path fill="none" stroke="#2887C8" stroke-miterlimit="10" d="M575.788,148.791H219.455c-6.859,0-12.417-5.556-12.417-12.409V84.414
	c0-6.856,5.558-12.415,12.417-12.415h356.333c6.854,0,12.418,5.559,12.418,12.415v51.968
	C588.206,143.235,582.642,148.791,575.788,148.791z"/>
    <path fill="#E4F0CC" d="M325.127,132.405h-84.874c-4.587,0-8.339-3.749-8.339-8.344V98.112c0-4.588,3.752-8.339,8.339-8.339h84.874
	c4.588,0,8.348,3.751,8.348,8.339v25.949C333.475,128.657,329.715,132.405,325.127,132.405"/>
    <path fill="#2887C8" d="M326.649,134.111h-87.916c-4.703,0-8.524-3.828-8.524-8.525V96.592c0-4.703,3.822-8.53,8.524-8.53h87.916
	c4.703,0,8.525,3.828,8.525,8.53v28.994C335.174,130.283,331.353,134.111,326.649,134.111 M238.733,91.473
	c-2.825,0-5.119,2.296-5.119,5.119v28.994c0,2.817,2.294,5.117,5.119,5.117h87.916c2.82,0,5.12-2.3,5.12-5.117V96.592
	c0-2.823-2.299-5.119-5.12-5.119H238.733z"/>
    <path fill="#0B9D49" d="M247.72,122.713h-1.671c-1.599,0-2.905-1.306-2.905-2.904v-1.672c0-1.602,1.306-2.91,2.905-2.91h1.671
	c1.596,0,2.91,1.309,2.91,2.91v1.672C250.63,121.407,249.315,122.713,247.72,122.713"/>
    <path fill="#0B9D49" d="M266.438,122.713h-1.672c-1.599,0-2.904-1.306-2.904-2.904v-17.441c0-1.596,1.306-2.905,2.904-2.905h1.672
	c1.596,0,2.91,1.309,2.91,2.905v17.441C269.349,121.407,268.034,122.713,266.438,122.713"/>
    <path fill="#0B9D49" d="M285.157,122.713h-1.672c-1.599,0-2.904-1.306-2.904-2.904v-6.226c0-1.596,1.306-2.904,2.904-2.904h1.672
	c1.601,0,2.91,1.309,2.91,2.904v6.226C288.067,121.407,286.758,122.713,285.157,122.713"/>
    <path fill="#0B9D49" d="M322.594,122.713h-1.672c-1.596,0-2.904-1.306-2.904-2.904v-17.441c0-1.596,1.309-2.905,2.904-2.905h1.672
	c1.604,0,2.913,1.309,2.913,2.905v17.441C325.507,121.407,324.198,122.713,322.594,122.713"/>
    <path fill="#0B9D49" d="M303.875,122.713h-1.671c-1.596,0-2.905-1.306-2.905-2.904v-17.441c0-1.596,1.309-2.905,2.905-2.905h1.671
	c1.602,0,2.91,1.309,2.91,2.905v17.441C306.786,121.407,305.477,122.713,303.875,122.713"/>
    <path fill="#E4F0CC" d="M412.361,111.089c0,6.355-5.152,11.511-11.51,11.511s-11.517-5.156-11.517-11.511
	c0-6.358,5.159-11.517,11.517-11.517C407.209,99.573,412.361,104.731,412.361,111.089"/>
    <path fill="#0B9D49" d="M408.555,111.089c0,4.252-3.453,7.706-7.705,7.706c-4.253,0-7.701-3.453-7.701-7.706
	c0-4.255,3.447-7.706,7.701-7.706C405.102,103.383,408.555,106.834,408.555,111.089"/>
    <path fill="#E4F0CC" d="M375.128,111.089c0,6.355-5.153,11.511-11.511,11.511c-6.358,0-11.517-5.156-11.517-11.511
	c0-6.358,5.159-11.517,11.517-11.517C369.975,99.572,375.128,104.731,375.128,111.089"/>
    <path fill="#0B9D49" d="M371.32,111.089c0,4.252-3.453,7.706-7.706,7.706c-4.256,0-7.706-3.453-7.706-7.706
	c0-4.255,3.45-7.706,7.706-7.706C367.867,103.384,371.32,106.834,371.32,111.089"/>
    <path fill="#2887C8" d="M503.028,125.24h-2.449c-1.385,0-2.52-1.137-2.52-2.519V98.075c0-1.391,1.135-2.522,2.52-2.522h2.449
	c1.385,0,2.519,1.131,2.519,2.522v24.646C505.547,124.103,504.413,125.24,503.028,125.24"/>
    <path fill="#2887C8" d="M531.093,125.24h-2.451c-1.382,0-2.519-1.137-2.519-2.519V98.075c0-1.391,1.137-2.522,2.519-2.522h2.451
	c1.382,0,2.521,1.131,2.521,2.522v24.646C533.612,124.103,532.475,125.24,531.093,125.24"/>
    <path fill="#2887C8" d="M559.155,125.24h-2.448c-1.385,0-2.521-1.137-2.521-2.519V98.075c0-1.391,1.137-2.522,2.521-2.522h2.448
	c1.385,0,2.52,1.131,2.52,2.522v24.646C561.675,124.103,560.54,125.24,559.155,125.24"/>
    <path fill="#E4F0CC" d="M31.842,516.615c0,28.131,20.714,54.245,45.534,64.111h336.813c3.441-1.783,6.604-4.065,9.359-6.755
	c7.563-7.276,12.271-17.479,12.271-28.727c0-22.099-18.088-40.076-40.348-40.076c-7.21,0-13.99,1.88-19.833,5.197
	c0.935-3.742,1.441-7.635,1.441-11.651c0-26.646-21.829-48.313-48.672-48.313c-8.015,0-15.606,1.931-22.282,5.372
	c-11.562-38.196-47.304-66.094-89.495-66.094c-42.171,0-77.916,27.896-89.472,66.065c-8.502-3.894-17.99-6.049-27.927-6.049
	C62.074,449.697,31.842,479.73,31.842,516.615"/>
    <path fill="#B6DDF5" d="M31.842,516.615c0,28.131,20.714,54.245,45.534,64.111h336.813c3.441-1.783,6.604-4.065,9.359-6.755
	c7.563-7.276,12.271-17.479,12.271-28.727c0-22.099-18.088-40.076-40.348-40.076c-7.21,0-13.99,1.88-19.833,5.197
	c0.935-3.742,1.441-7.635,1.441-11.651c0-26.646-21.829-48.313-48.672-48.313c-8.015,0-15.606,1.931-22.282,5.372
	c-11.562-38.196-47.304-66.094-89.495-66.094c-42.171,0-77.916,27.896-89.472,66.065c-8.502-3.894-17.99-6.049-27.927-6.049
	C62.074,449.697,31.842,479.73,31.842,516.615"/>
    <path fill="#E4F0CC" d="M127.157,455.746c0,0,7.734,2.758,14.993,15.985"/>
    <path fill="#E4F0CC" d="M149.137,481.289c0,0,6.831,10.245,6.935,12.699"/>
    <path fill="#B6DDF5" d="M757.238,556.181c0,34.36-25.309,66.269-55.626,78.321l-359.464-19.788
	c-4.202-2.178-55.443,10.23-51.669,7.425c12.335-9.151,72.648-29.473-26.79-30.979c-102.92-1.568,68.924-46.342,49.294-48.965
	c-8.728-1.171,17.089,2.299,24.232,6.346c-1.143-4.57-1.765-9.326-1.765-14.232c0-32.554,26.675-59.024,59.46-59.024
	c9.8,0,19.072,2.36,27.229,6.564c14.12-46.665,57.794-80.748,109.341-80.748c51.518,0,95.186,34.083,109.313,80.718
	c10.379-4.76,21.972-7.395,34.116-7.395C720.311,474.422,757.238,511.113,757.238,556.181"/>
    <path fill="#E4F0CC" d="M640.79,481.813c0,0-9.454,3.361-18.316,19.529"/>
    <path fill="#E4F0CC" d="M613.935,513.019c0,0-8.339,12.517-8.471,15.515"/>
    <path fill="#FFFFFF" d="M22,531.38c0,28.122,20.717,54.236,45.537,64.112H404.35c3.439-1.787,6.605-4.07,9.357-6.758
	c7.565-7.286,12.274-17.48,12.274-28.728c0-22.099-18.089-40.082-40.349-40.082c-7.21,0-13.99,1.886-19.833,5.201
	c0.932-3.744,1.441-7.633,1.441-11.652c0-26.644-21.829-48.316-48.672-48.316c-8.018,0-15.608,1.937-22.281,5.378
	c-11.564-38.196-47.305-66.096-89.503-66.096c-42.163,0-77.911,27.898-89.467,66.067c-8.502-3.893-17.99-6.055-27.924-6.055
	C52.232,464.453,22,494.489,22,531.38"/>
    <path fill="none" stroke="#2887C8" stroke-linecap="round" stroke-linejoin="round" stroke-miterlimit="10" d="M22,531.38
	c0,20.542,11.401,40.69,26.348,54.272c9.8,8.898,19.003,9.84,31.09,9.84h28.335h88.707h102.151h80.5h25.217
	c3.439-1.787,6.605-4.07,9.357-6.758c7.565-7.286,12.274-17.48,12.274-28.728c0-22.099-18.089-40.082-40.349-40.082
	c-7.21,0-13.99,1.886-19.833,5.201c0.932-3.744,1.441-7.633,1.441-11.652c0-26.644-21.829-48.316-48.672-48.316
	c-8.018,0-15.608,1.937-22.281,5.378c-11.564-38.196-47.305-66.096-89.503-66.096c-42.163,0-77.911,27.898-89.467,66.067
	c-8.502-3.893-17.99-6.055-27.924-6.055C52.232,464.453,22,494.489,22,531.38z"/>
    <path fill="none" stroke="#2887C8" stroke-linecap="round" stroke-linejoin="round" stroke-miterlimit="10" d="M117.315,470.51
	c0,0,7.737,2.753,14.992,15.983"/>
    <path fill="none" stroke="#2887C8" stroke-linecap="round" stroke-linejoin="round" stroke-miterlimit="10" d="M296.285,470.533
	c0,0-18.074,15.26-21.274,29.433"/>
    <path fill="none" stroke="#2887C8" stroke-linecap="round" stroke-linejoin="round" stroke-miterlimit="10" d="M139.298,496.054
	c0,0,6.831,10.241,6.935,12.695"/>
    <path fill="#FFFFFF" d="M771.997,569.239c0,34.357-25.307,66.268-55.624,78.323H304.877c-4.208-2.178-8.069-4.97-11.435-8.254
	c-9.239-8.894-14.992-21.351-14.992-35.096c0-26.999,22.099-48.965,49.292-48.965c8.809,0,17.092,2.299,24.232,6.352
	c-1.14-4.569-1.765-9.326-1.765-14.234c0-32.552,26.678-59.028,59.463-59.028c9.797,0,19.07,2.364,27.227,6.563
	c14.122-46.662,57.797-80.745,109.343-80.745c51.518,0,95.186,34.083,109.312,80.718c10.382-4.754,21.973-7.395,34.115-7.395
	C735.069,487.479,771.997,524.17,771.997,569.239"/>
    <path fill="none" stroke="#2887C8" stroke-linecap="round" stroke-linejoin="round" stroke-miterlimit="10" d="M771.997,569.239
	c0,42.316-37.975,78.323-80.03,78.323H658.63h-93.339H458.429c-43.312,0-86.518,0.771-129.741,0.825
	c-12.133,0.018-27.753-1.391-37.417-9.7c-8.93-7.679-12.82-23.078-12.82-34.475c0-26.999,22.099-48.965,49.292-48.965
	c8.809,0,17.092,2.299,24.232,6.352c-1.14-4.569-1.765-9.325-1.765-14.234c0-32.551,26.678-59.028,59.463-59.028
	c9.797,0,19.07,2.364,27.227,6.563c14.123-46.662,57.797-80.745,109.343-80.745c51.518,0,95.186,34.083,109.312,80.718
	c10.383-4.754,21.973-7.395,34.115-7.395C735.069,487.479,771.997,524.17,771.997,569.239z"/>
    <path fill="none" stroke="#2887C8" stroke-linecap="round" stroke-linejoin="round" stroke-miterlimit="10" d="M655.552,494.872
	c0,0-9.454,3.36-18.318,19.528"/>
    <path fill="none" stroke="#2887C8" stroke-linecap="round" stroke-linejoin="round" stroke-miterlimit="10" d="M436.897,494.899
	c0,0,22.082,18.643,25.996,35.956"/>
    <path fill="none" stroke="#2887C8" stroke-linecap="round" stroke-linejoin="round" stroke-miterlimit="10" d="M628.696,526.078
	c0,0-8.342,12.516-8.476,15.513"/>
    <path fill="#B6DDF5" d="M475.974,721.667v7.904c0,10.391,8.426,18.816,18.816,18.816h20.023c10.391,0,18.816-8.426,18.816-18.816
	V618.988h10.791c6.742,0,10.629-7.658,6.648-13.099l-39.623-54.129c-3.289-4.494-10-4.494-13.289,0l-39.621,54.129
	c-3.982,5.444-0.098,13.099,6.645,13.099h10.793v22.685"/>
    <path fill="none" stroke="#2887C8" stroke-width="1.5" stroke-linecap="round" stroke-linejoin="round"
          stroke-miterlimit="10" d="
	M475.974,721.667v7.904c0,10.391,8.426,18.816,18.816,18.816h20.023c10.391,0,18.816-8.426,18.816-18.816V618.988h10.791
	c6.742,0,10.629-7.658,6.648-13.099l-39.623-54.129c-3.289-4.494-10-4.494-13.289,0l-39.621,54.129
	c-3.982,5.444-0.098,13.099,6.645,13.099h10.793v22.685"/>
    <line fill="none" x1="475.974" y1="701.513" x2="475.974" y2="711.169"/>
    <line fill="none" stroke="#2887C8" stroke-width="1.5" stroke-linecap="round" stroke-linejoin="round"
          stroke-miterlimit="10" x1="475.974" y1="701.513" x2="475.974" y2="711.169"/>
    <line fill="none" x1="475.974" y1="652.305" x2="475.974" y2="690.897"/>
    <line fill="none" stroke="#2887C8" stroke-width="1.5" stroke-linecap="round" stroke-linejoin="round"
          stroke-miterlimit="10" x1="475.974" y1="652.305" x2="475.974" y2="690.897"/>
    <path fill="#E4F0CC" d="M574.745,575.11v-7.906c0-10.391,8.426-18.816,18.816-18.816h20.023c10.389,0,18.816,8.426,18.816,18.816
	v110.584h10.791c6.74,0,10.627,7.661,6.645,13.1l-39.619,54.128c-3.289,4.492-10,4.492-13.293,0l-39.617-54.128
	c-3.984-5.442-0.098-13.1,6.645-13.1h10.793v-22.683"/>
    <path fill="none" stroke="#0B9D49" stroke-width="1.5" stroke-linecap="round" stroke-linejoin="round"
          stroke-miterlimit="10" d="
	M574.745,575.11v-7.906c0-10.391,8.426-18.816,18.816-18.816h20.023c10.389,0,18.816,8.426,18.816,18.816v110.584h10.791
	c6.74,0,10.627,7.661,6.645,13.1l-39.619,54.128c-3.289,4.492-10,4.492-13.293,0l-39.617-54.128c-3.984-5.442-0.098-13.1,6.645-13.1
	h10.793v-22.683"/>
    <line fill="none" x1="574.745" y1="595.264" x2="574.745" y2="585.606"/>
    <line fill="none" stroke="#0B9D49" stroke-width="1.5" stroke-linecap="round" stroke-linejoin="round"
          stroke-miterlimit="10" x1="574.745" y1="595.264" x2="574.745" y2="585.606"/>
    <line fill="none" x1="574.745" y1="644.473" x2="574.745" y2="605.886"/>
    <line fill="none" stroke="#0B9D49" stroke-width="1.5" stroke-linecap="round" stroke-linejoin="round"
          stroke-miterlimit="10" x1="574.745" y1="644.473" x2="574.745" y2="605.886"/>
</svg>
