<?xml version="1.0" encoding="utf-8"?>
<!-- Generator: Adobe Illustrator 16.0.0, SVG Export Plug-In . SVG Version: 6.00 Build 0)  -->
<!DOCTYPE svg PUBLIC "-//W3C//DTD SVG 1.0//EN" "http://www.w3.org/TR/2001/REC-SVG-20010904/DTD/svg10.dtd">
<svg version="1.0" id="Layer_1" xmlns="http://www.w3.org/2000/svg" x="0px" y="0px"
     width="800px" height="800px" viewBox="0 0 800 800" enable-background="new 0 0 800 800" xml:space="preserve">
<g>
	<path fill="#2887C8" d="M69.718,593.798c-8.882,0-15.894,2.958-21.035,8.873s-7.712,14.015-7.712,24.297
		c0,10.578,2.478,18.75,7.436,24.518c4.956,5.769,12.024,8.651,21.201,8.651c5.639,0,12.07-1.013,19.293-3.04v8.236
		c-5.603,2.102-12.513,3.151-20.731,3.151c-11.905,0-21.09-3.611-27.558-10.835c-6.468-7.224-9.702-17.487-9.702-30.792
		c0-8.329,1.557-15.626,4.671-21.893c3.114-6.265,7.61-11.093,13.489-14.483c5.878-3.391,12.798-5.086,20.759-5.086
		c8.476,0,15.884,1.548,22.223,4.644l-3.98,8.071C81.954,595.235,75.836,593.798,69.718,593.798z"/>
    <path fill="#2887C8" d="M109.916,667.379h-9.177v-86.02h9.177V667.379z"/>
    <path fill="#2887C8" d="M177.257,637.029c0,9.877-2.488,17.589-7.463,23.136c-4.975,5.547-11.849,8.319-20.62,8.319
		c-5.417,0-10.227-1.271-14.429-3.814s-7.445-6.191-9.729-10.945c-2.286-4.755-3.428-10.319-3.428-16.695
		c0-9.877,2.469-17.57,7.408-23.081c4.938-5.509,11.793-8.265,20.565-8.265c8.477,0,15.211,2.819,20.206,8.459
		C174.759,619.781,177.257,627.41,177.257,637.029z M131.096,637.029c0,7.739,1.548,13.637,4.644,17.69s7.647,6.081,13.655,6.081
		c6.007,0,10.567-2.019,13.682-6.054c3.114-4.036,4.671-9.941,4.671-17.718c0-7.703-1.557-13.553-4.671-17.553
		c-3.115-3.998-7.712-5.998-13.793-5.998c-6.007,0-10.541,1.973-13.599,5.915C132.625,623.338,131.096,629.216,131.096,637.029z"/>
    <path fill="#2887C8" d="M197.439,606.79v39.306c0,4.938,1.124,8.624,3.373,11.056c2.248,2.433,5.768,3.649,10.559,3.649
		c6.338,0,10.974-1.732,13.904-5.197c2.93-3.464,4.395-9.121,4.395-16.972V606.79h9.177v60.589h-7.574l-1.327-8.127h-0.498
		c-1.88,2.985-4.487,5.271-7.823,6.855c-3.336,1.584-7.141,2.377-11.416,2.377c-7.372,0-12.891-1.75-16.557-5.252
		c-3.667-3.501-5.5-9.103-5.5-16.806V606.79H197.439z"/>
    <path fill="#2887C8" d="M295.13,659.252h-0.498c-4.239,6.156-10.578,9.232-19.017,9.232c-7.924,0-14.088-2.709-18.492-8.126
		c-4.405-5.418-6.606-13.12-6.606-23.108c0-9.987,2.211-17.745,6.634-23.273c4.423-5.528,10.577-8.293,18.464-8.293
		c8.218,0,14.52,2.985,18.907,8.956h0.718l-0.387-4.367l-0.221-4.257v-24.656h9.177v86.02h-7.463L295.13,659.252z M276.776,660.801
		c6.265,0,10.808-1.705,13.627-5.114c2.819-3.408,4.229-8.909,4.229-16.502v-1.935c0-8.587-1.429-14.714-4.284-18.381
		c-2.857-3.667-7.417-5.501-13.683-5.501c-5.381,0-9.5,2.092-12.355,6.274c-2.856,4.184-4.284,10.089-4.284,17.718
		c0,7.74,1.418,13.582,4.256,17.524C267.12,658.829,271.284,660.801,276.776,660.801z"/>
</g>
    <g>
	<path fill="#2887C8" d="M318.918,667.379v-80.822h17.138v66.67h32.782v14.152H318.918z"/>
        <path fill="#2887C8" d="M380.834,589.597c0-5.491,3.059-8.237,9.177-8.237c6.118,0,9.177,2.746,9.177,8.237
		c0,2.617-0.765,4.653-2.294,6.108c-1.53,1.457-3.824,2.184-6.883,2.184C383.893,597.889,380.834,595.125,380.834,589.597z
		 M398.414,667.379h-16.861v-61.806h16.861V667.379z"/>
        <path fill="#2887C8" d="M473.155,667.379h-16.861v-36.1c0-4.459-0.793-7.803-2.377-10.033c-1.585-2.229-4.11-3.345-7.573-3.345
		c-4.719,0-8.127,1.575-10.228,4.727s-3.151,8.375-3.151,15.673v29.078h-16.861v-61.806h12.881l2.268,7.905h0.939
		c1.879-2.985,4.469-5.242,7.767-6.771s7.049-2.295,11.25-2.295c7.187,0,12.641,1.944,16.364,5.833
		c3.722,3.889,5.583,9.499,5.583,16.833V667.379z"/>
        <path fill="#2887C8" d="M534.298,667.379l-2.267-7.905h-0.885c-1.806,2.875-4.367,5.096-7.685,6.661
		c-3.316,1.566-7.095,2.35-11.333,2.35c-7.26,0-12.733-1.943-16.418-5.832c-3.686-3.888-5.528-9.481-5.528-16.778v-40.301h16.86
		v36.1c0,4.46,0.793,7.804,2.377,10.033c1.585,2.23,4.109,3.345,7.574,3.345c4.717,0,8.127-1.575,10.228-4.727
		s3.151-8.375,3.151-15.673v-29.078h16.86v61.806H534.298z"/>
        <path fill="#2887C8" d="M577.584,635.813l-19.901-30.239h19.127l11.997,19.681l12.106-19.681h19.128l-20.123,30.239l21.063,31.566
		h-19.183l-12.991-21.173l-13.047,21.173h-19.128L577.584,635.813z"/>
        <path fill="#2887C8" d="M705.064,626.857c0,13.378-3.316,23.66-9.95,30.847c-6.634,7.188-16.143,10.78-28.526,10.78
		c-12.383,0-21.892-3.593-28.525-10.78c-6.634-7.187-9.951-17.505-9.951-30.958c0-13.451,3.326-23.725,9.979-30.819
		s16.188-10.642,28.609-10.642c12.419,0,21.919,3.575,28.498,10.725C701.775,603.16,705.064,613.442,705.064,626.857z
		 M646.078,626.857c0,9.029,1.714,15.829,5.142,20.398c3.428,4.57,8.55,6.855,15.368,6.855c13.673,0,20.51-9.085,20.51-27.254
		c0-18.206-6.8-27.31-20.398-27.31c-6.819,0-11.96,2.294-15.424,6.883C647.811,611.019,646.078,617.828,646.078,626.857z"/>
        <path fill="#2887C8" d="M769.523,644.935c0,7.297-2.626,13.046-7.878,17.248c-5.252,4.201-12.559,6.302-21.92,6.302
		c-8.624,0-16.253-1.621-22.887-4.864v-15.922c5.454,2.433,10.07,4.146,13.849,5.142c3.777,0.995,7.232,1.492,10.365,1.492
		c3.759,0,6.643-0.719,8.651-2.155c2.009-1.438,3.013-3.575,3.013-6.413c0-1.584-0.441-2.994-1.326-4.229
		c-0.885-1.234-2.184-2.423-3.897-3.565c-1.714-1.142-5.206-2.966-10.476-5.473c-4.939-2.322-8.644-4.552-11.112-6.689
		c-2.47-2.137-4.441-4.625-5.915-7.463c-1.475-2.838-2.211-6.154-2.211-9.951c0-7.149,2.423-12.77,7.27-16.861
		c4.846-4.091,11.544-6.136,20.095-6.136c4.201,0,8.21,0.497,12.024,1.492s7.803,2.396,11.968,4.202l-5.528,13.322
		c-4.312-1.769-7.877-3.003-10.696-3.703s-5.594-1.051-8.32-1.051c-3.243,0-5.731,0.756-7.463,2.267
		c-1.733,1.512-2.599,3.482-2.599,5.915c0,1.512,0.35,2.829,1.051,3.953c0.699,1.124,1.814,2.211,3.345,3.262
		c1.528,1.05,5.149,2.939,10.862,5.666c7.555,3.612,12.733,7.233,15.534,10.863S769.523,639.664,769.523,644.935z"/>
</g>
    <g>
	<path fill="#B1D465" d="M351.195,92.614c16.551-5.16,33.38-8.703,50.82-8.441c68.162,1.041,125.457,46.398,143.814,110.687
		c5.775,20.216,1.466,38.967-5.119,57.632c-7.776,22.032-20.609,40.882-38.688,57.373c3.232-10.117,5.758-19.404,7.041-28.95
		c4.361-32.468,2.901-64.787-14.07-93.307c-24.452-41.122-57.039-73.877-105.168-87.178c-12.377-3.42-24.908-5.661-37.735-6.274
		C351.372,93.888,350.871,93.492,351.195,92.614 M442.761,145.032c-2.411-3.176-4.652-6.579-8.011-8.925
		c-32.746-22.839-69.165-32.092-108.628-27.508c-39.873,4.624-72.74,23.018-98.429,53.966c-6.847,8.247-12.702,17.149-17.081,27.237
		c41.447-35.395,88.731-49.791,142.516-39.785c54.018,10.048,93.053,40.62,119.346,89.923
		C473.296,204.03,463.752,172.705,442.761,145.032 M473.734,384.352c33.95,0.584,64.69-8.874,91.861-29.423
		c4.054-3.064,8.016-6.154,10.936-10.516c21.561-32.211,30.387-67.489,24.845-105.92c-6.983-48.419-32.394-84.704-74.108-109.794
		c-2.439-1.471-4.914-3.23-8.323-3.583c74.199,79.499,53.59,207.725-47.268,258.886C472.92,384.218,473.324,384.347,473.734,384.352
		 M250.657,229.468c44.371-30.774,93.201-36.033,145.001-20.911c-0.433-1.135-0.479-1.459-0.655-1.676
		c-0.587-0.712-1.192-1.414-1.848-2.067c-18.631-18.571-40.552-31.45-66.024-38.174c-9.242-2.44-18.854-5.447-28.152-4.116
		c-32.907,4.707-61.122,19.452-84.313,43.3c-23.625,24.298-37.576,53.299-41.715,87.101c-2.708,22.075-0.239,43.457,6.773,64.528
		C183.823,303.813,206.291,260.231,250.657,229.468 M441.859,471.377c-52.945-10.104-90.932-41.034-116.706-89.063
		c-0.936,34.543,8.124,64.761,27.513,91.918c5.205,7.292,11.476,13.124,19.195,17.696c30.541,18.062,63.305,25.476,98.498,20.433
		c48.979-7.029,85.716-32.462,110.698-75.037c0.798-1.346,2.32-2.614,1.191-5.177C541.44,466.964,494.727,481.467,441.859,471.377
		 M617.26,265.824c-3.975,53.271-27.331,95.912-71.521,125.977c-44.024,29.947-92.386,34.834-143.297,20.449
		c4.116,5.314,8.677,9.43,13.443,13.33c22.04,18.043,47.296,28.533,75.505,31.951c11.174,1.348,21.682-2.066,32.012-5.559
		c79.257-26.783,120.321-111.183,95.481-187.999C617.065,263.472,617.887,265.288,617.26,265.824 M440.993,527.258
		c-4.139-0.401-8.317-0.606-12.423-1.236c-54.234-8.307-95.339-36.025-122.02-84.043c-17.708-31.875-22.975-66.255-17.73-102.32
		c1.391-9.581,3.911-18.859,6.807-28.831c-1.174,0.952-1.778,1.385-2.309,1.893c-20.028,19.067-33.608,41.969-40.415,68.778
		c-2.577,10.128-5.496,20.483-3.546,30.945c6.647,35.681,23.91,65.397,51.8,88.694c22.565,18.84,48.471,30.287,77.757,33.557
		c21.356,2.383,42.462,1.215,62.991-5.778C442.436,527.905,441.58,527.66,440.993,527.258 M233.251,389.081
		c0-2.184,0.006-4.373,0.006-6.556c-0.496-2.463-0.61-4.915,0.085-7.36c0.616-4.416,1.214-8.828,1.858-13.238
		c5.171-35.107,20.598-65.083,45.244-90.45c12.56-12.919,27.217-22.979,42.923-31.624c-4.589-1.274-9.327,0.245-13.922-0.801
		c-28.271,1.67-53.698,11.111-76.583,27.707c-6.459,4.689-11.858,10.142-16.031,17.012c-19.937,32.804-27.314,68.093-20.518,105.935
		c8.478,47.242,34.309,82.321,75.916,105.935c1.362,0.774,2.645,2.178,4.823,1.582c-1.688-2.016-3.232-3.906-4.812-5.756
		c-13.478-15.752-23.432-33.522-30.278-53.049c-4.664-13.306-6.864-27.131-8.603-41.047
		C232.596,394.623,232.813,391.854,233.251,389.081 M315.535,430.146c0.274-1.112,0.479-1.508,0.434-1.87
		c-0.103-0.912-0.297-1.815-0.496-2.714c-4.384-19.436-5.501-38.961-2.617-58.767c0.764-5.188,2.942-10.245,1.323-15.878
		c-3.244-11.273-4.972-22.85-5.576-34.637C295.593,354.889,298.215,392.584,315.535,430.146 M257.407,335.231
		c9.68-15.407,20.951-29.631,35.671-40.346c10.559-7.677,18.985-16.667,25.712-27.722c3.25-5.348,7.713-9.96,12.417-15.912
		c-2.115,1.029-3.09,1.431-3.985,1.958c-4.378,2.58-8.877,4.986-13.078,7.828c-27.006,18.232-46.532,42.408-57.718,73.148
		C256.027,335.209,256.546,335.377,257.407,335.231 M421.513,450.268c-15.119-9.54-29.207-20.526-39.714-35.004
		c-7.947-10.952-17.32-19.648-28.733-26.656c-5.205-3.192-9.692-7.56-15.484-12.177c4.464,9.219,9.15,16.778,14.538,23.888
		c17.861,23.551,40.409,40.877,68.339,50.953C421.49,451.65,421.666,451.138,421.513,450.268 M281.831,229.123
		c17.588-4.088,35.341-5.191,53.322-3.324c9.646,1.006,19.133,3.86,29.076,0.311c8.62-3.079,18.061-2.674,27.085-4.233
		c-38.289-12.517-75.63-10.116-113.081,6.964C280.092,229.799,280.936,229.326,281.831,229.123 M537.975,288.845
		c-7.941,12.246-16.949,23.831-28.494,32.622c-13.13,10-24.726,20.992-33.032,35.318c-1.226,2.109-3.073,3.848-4.646,5.758
		c-1.539,1.873-3.101,3.74-4.646,5.609c35.684-17.765,60.392-45.169,74.855-83.016C539.132,285.943,538.767,287.625,537.975,288.845
		 M481.802,190.923c0.04,0.824-0.022,1.442,0.125,2.016c5.183,20.766,5.986,41.718,2.657,62.846
		c-0.547,3.478-2.189,7.237-1.408,10.39c3.084,12.431,5,25.005,5.992,38.314C502.564,275.271,498.317,211.225,481.802,190.923
		 M376.195,169.972c20.558,12.616,37.393,29.05,50.608,49.209c0.622,0.946,1.408,1.559,2.361,2.112
		c10.769,6.265,20.849,13.491,30.141,22.186c-5.342-24.854-59.285-72.723-83.931-74.639
		C375.676,169.265,375.853,169.761,376.195,169.972 M407.738,399.086c36.186,11.32,95.197,7.013,110.869-8.329
		c-1.025,0.12-1.784,0.128-2.508,0.296c-19.424,4.578-38.967,5.649-58.778,2.831c-4.954-0.699-9.794-2.982-14.999-1.605
		c-11.055,2.914-22.252,4.92-33.699,5.291C407.881,397.815,407.459,398.246,407.738,399.086 M324.258,239.063
		c-0.034-0.091-0.239-0.163-0.376-0.163c-4.812,0.049-9.629,0.094-14.436,0.151c4.55,1.699,9.293,0.333,13.922,0.801
		C323.677,239.602,324.697,240.149,324.258,239.063 M233.251,389.081c-1.168,2.779-1.305,5.548,0.108,8.29
		C233.326,394.608,233.292,391.846,233.251,389.081 M233.343,375.165c-1.396,2.44-1.283,4.892-0.085,7.36
		C233.28,380.068,233.314,377.622,233.343,375.165 M617.26,260.775v5.048l1.624-1.85C619.05,262.691,618.56,261.739,617.26,260.775
		 M348.123,94.372c1.562-0.083,2.765-0.151,3.968-0.216c-0.297-0.513-0.593-1.029-0.896-1.542
		C349.987,92.585,348.995,92.941,348.123,94.372 M425.076,452.714c-1.01-1.437-2.218-2.044-3.563-2.446
		c-0.348,0.334-0.701,0.67-1.055,1.004C421.752,452.307,423.184,452.877,425.076,452.714 M445.207,527.258h-4.214
		c0.308,0.554,0.61,1.104,0.912,1.659C443.262,529.02,444.34,528.601,445.207,527.258 M255.092,338.079
		c1.631-0.61,1.961-1.733,2.315-2.848c-0.331-0.345-0.65-0.695-0.98-1.046C255.315,335.214,255.252,336.523,255.092,338.079
		 M405.486,397.57c-0.022,0.191-0.039,0.385-0.057,0.576l2.309,0.939c0.297-0.507,0.588-1.014,0.885-1.516H405.486z"/>
</g>
</svg>
