<?xml version="1.0" encoding="utf-8"?>
<!-- Generator: Adobe Illustrator 16.0.0, SVG Export Plug-In . SVG Version: 6.00 Build 0)  -->
<!DOCTYPE svg PUBLIC "-//W3C//DTD SVG 1.0//EN" "http://www.w3.org/TR/2001/REC-SVG-20010904/DTD/svg10.dtd">
<svg xmlns:xlink="http://www.w3.org/1999/xlink" version="1.0" id="Layer_1" xmlns="http://www.w3.org/2000/svg" x="0px"
     y="0px"
     width="800px" height="800px" viewBox="0 0 800 800" enable-background="new 0 0 800 800" xml:space="preserve">
<g>
	<defs>
		<rect id="SVGID_1_" x="342.764" y="469.419" width="82.024" height="79.051"/>
	</defs>
    <clipPath id="SVGID_2_">
		<use xlink:href="#SVGID_1_" overflow="visible"/>
	</clipPath>
    <g clip-path="url(#SVGID_2_)">
		<path fill="#E4F2FC" d="M342.763,492.913c0,0,8.756,23.538,41.013,23.538c32.253,0,41.011-23.538,41.011-23.538v-28.864h-82.023
			V492.913z"/>
	</g>
</g>
    <g>
	<path fill="#2887C8" d="M424.786,550.212h-82.024c-0.962,0-1.742-0.78-1.742-1.742v-79.051c0-0.962,0.78-1.742,1.742-1.742h82.024
		c0.964,0,1.742,0.78,1.742,1.742v79.051C426.528,549.432,425.75,550.212,424.786,550.212 M344.504,546.728h78.54v-75.566h-78.54
		V546.728z"/>
</g>
    <g>
	<defs>
		<path id="SVGID_3_"
              d="M226.064,611.941h157.71v-74.104l-68.254-19.647C315.521,518.19,226.064,525.329,226.064,611.941"/>
	</defs>
        <clipPath id="SVGID_4_">
		<use xlink:href="#SVGID_3_" overflow="visible"/>
	</clipPath>
        <g clip-path="url(#SVGID_4_)">
		<path fill="#E4F2FC" d="M296.475,522.176l63.086,63.084c1.198,1.2,3.182,1.06,4.199-0.297l20.328-27.09V537.4l-67.401-19.21
			L296.475,522.176z"/>
	</g>
</g>
    <g>
	<path fill="#2887C8" d="M383.774,613.687H226.065c-0.962,0-1.742-0.78-1.742-1.742c0-87.216,90.149-95.419,91.06-95.491
		c0.208-0.01,0.421,0.004,0.621,0.063l68.253,19.647c0.747,0.215,1.26,0.898,1.26,1.674v74.106
		C385.517,612.906,384.737,613.687,383.774,613.687 M227.818,610.202h154.214v-71.054l-66.675-19.193
		c-2.741,0.275-23.426,2.68-43.813,14.208C243.003,550.301,228.297,575.875,227.818,610.202"/>
</g>
    <g>
	<polygon fill="#FFFFFF" points="315.522,518.19 333.021,503.387 383.994,537.838 360.668,568.635 	"/>
</g>
    <g>
	<path fill="#2887C8" d="M360.668,569.385c-0.213,0-0.417-0.091-0.559-0.25l-45.146-50.444c-0.135-0.15-0.203-0.35-0.189-0.552
		c0.014-0.202,0.109-0.39,0.264-0.521l17.499-14.804c0.257-0.218,0.625-0.236,0.904-0.049l50.973,34.451
		c0.171,0.115,0.286,0.295,0.32,0.499c0.034,0.203-0.018,0.411-0.142,0.575l-23.326,30.797c-0.135,0.179-0.343,0.287-0.567,0.296
		C360.688,569.385,360.678,569.385,360.668,569.385z M316.595,518.265l44.024,49.191l22.299-29.44l-49.847-33.689L316.595,518.265z"
    />
</g>
    <g>
	<defs>
		<path id="SVGID_5_" d="M383.778,537.838v74.104h157.711c0-86.612-89.46-93.751-89.46-93.751L383.778,537.838z"/>
	</defs>
        <clipPath id="SVGID_6_">
		<use xlink:href="#SVGID_5_" overflow="visible"/>
	</clipPath>
        <g clip-path="url(#SVGID_6_)">
		<path fill="#E4F2FC" d="M471.076,522.176l-63.085,63.084c-1.198,1.2-3.182,1.06-4.198-0.297l-20.33-27.09V537.4l67.402-19.21
			L471.076,522.176z"/>
	</g>
</g>
    <g>
	<path fill="#2887C8" d="M382.034,611.941v-74.104c0-0.775,0.514-1.459,1.262-1.674l68.252-19.647
		c0.202-0.06,0.413-0.073,0.621-0.063c0.909,0.072,91.063,8.275,91.063,95.488c0,0.962-0.78,1.742-1.742,1.742H383.776
		C382.815,613.684,382.034,612.903,382.034,611.941 M496.007,534.163c-20.387-11.528-41.069-13.933-43.812-14.208l-66.677,19.191
		v71.053h154.215C539.253,575.875,524.549,550.301,496.007,534.163"/>
</g>
    <g>
	<polygon fill="#FFFFFF" points="452.03,518.19 434.531,503.387 383.558,537.838 406.885,568.635 	"/>
</g>
    <g>
	<path fill="#2887C8" d="M406.885,569.385c-0.01,0-0.021,0-0.03-0.001c-0.225-0.009-0.433-0.117-0.567-0.296l-23.327-30.797
		c-0.125-0.164-0.176-0.372-0.142-0.575c0.034-0.204,0.149-0.384,0.32-0.499l50.974-34.451c0.276-0.187,0.649-0.169,0.904,0.049
		l17.499,14.804c0.154,0.131,0.25,0.318,0.264,0.521c0.015,0.202-0.054,0.401-0.189,0.552l-45.146,50.444
		C407.301,569.294,407.098,569.385,406.885,569.385z M384.633,538.016l22.299,29.44l44.024-49.191l-16.477-13.938L384.633,538.016z"
    />
</g>
    <g>
	<rect x="439.661" y="576.1" fill="#B1D465" width="45.942" height="35.842"/>
</g>
    <g>
	<rect x="434.862" y="587.356" fill="#FFFFFF" width="55.539" height="24.585"/>
</g>
    <g>
	<path fill="#2887C8" d="M490.401,612.691h-55.539c-0.414,0-0.75-0.336-0.75-0.75v-24.585c0-0.414,0.336-0.75,0.75-0.75h55.539
		c0.414,0,0.75,0.336,0.75,0.75v24.585C491.151,612.355,490.815,612.691,490.401,612.691z M435.612,611.191h54.039v-23.085h-54.039
		V611.191z"/>
</g>
    <g>
	<path fill="#FFFFFF" d="M505.217,379.792c0,16.816-15.548,30.448-34.732,30.448c-19.183,0-34.733-13.632-34.733-30.448
		c0-16.814,15.551-30.447,34.733-30.447C489.669,349.344,505.217,362.978,505.217,379.792"/>
</g>
    <g>
	<path fill="#2887C8" d="M470.484,410.989c-19.565,0-35.483-13.995-35.483-31.198c0-17.202,15.918-31.197,35.483-31.197
		s35.482,13.995,35.482,31.197C505.967,396.994,490.05,410.989,470.484,410.989z M470.484,350.094
		c-18.738,0-33.983,13.322-33.983,29.697c0,16.375,15.245,29.698,33.983,29.698s33.982-13.322,33.982-29.698
		C504.467,363.417,489.223,350.094,470.484,350.094z"/>
</g>
    <g>
	<path fill="#FFFFFF" d="M332.425,379.792c0,16.816-15.549,30.448-34.732,30.448c-19.182,0-34.733-13.632-34.733-30.448
		c0-16.814,15.551-30.447,34.733-30.447C316.876,349.344,332.425,362.978,332.425,379.792"/>
</g>
    <g>
	<path fill="#2887C8" d="M297.693,410.989c-19.565,0-35.483-13.995-35.483-31.198c0-17.202,15.918-31.197,35.483-31.197
		c19.565,0,35.482,13.995,35.482,31.197C333.175,396.994,317.258,410.989,297.693,410.989z M297.693,350.094
		c-18.738,0-33.983,13.322-33.983,29.697c0,16.375,15.245,29.698,33.983,29.698c18.738,0,33.982-13.322,33.982-29.698
		C331.675,363.417,316.431,350.094,297.693,350.094z"/>
</g>
    <g>
	<path fill="#FFFFFF" d="M471.256,331.777v70.132c0,39.143-25.197,72.402-60.264,84.414c-5.67,10.163-16.546,17.05-29.02,17.05
		c-12.43,0-23.309-6.887-28.935-17.05c-35.069-12.012-60.265-45.271-60.265-84.414v-70.132c0-49.262,39.94-89.242,89.242-89.242
		c24.652,0,46.953,9.995,63.12,26.163C461.258,284.825,471.256,307.126,471.256,331.777"/>
</g>
    <g>
	<path fill="#2887C8" d="M381.972,504.123c-12.202,0-23.458-6.577-29.449-17.184c-36.199-12.528-60.5-46.662-60.5-85.03v-70.132
		c0-49.622,40.37-89.992,89.992-89.992c24.033,0,46.637,9.37,63.65,26.382c16.986,16.989,26.342,39.58,26.342,63.609v70.132
		c0,38.368-24.302,72.502-60.5,85.03C405.47,497.546,394.181,504.123,381.972,504.123z M382.014,243.286
		c-48.794,0-88.492,39.697-88.492,88.492v70.132c0,37.824,24.015,71.462,59.758,83.704c0.176,0.061,0.323,0.185,0.413,0.347
		c5.689,10.278,16.525,16.663,28.278,16.663c11.761,0,22.63-6.386,28.365-16.665c0.091-0.162,0.237-0.284,0.412-0.345
		c35.742-12.243,59.757-45.881,59.757-83.704v-70.132c0-23.629-9.199-45.843-25.902-62.549
		C427.874,252.499,405.646,243.286,382.014,243.286z"/>
</g>
    <g>
	<path fill="#FFFFFF" d="M353.037,486.323c-2.687-4.746-4.199-10.247-4.199-16.086"/>
</g>
    <g>
	<path fill="#2887C8" d="M353.037,487.073c-0.261,0-0.515-0.137-0.653-0.381c-2.811-4.964-4.296-10.654-4.296-16.455
		c0-0.414,0.336-0.75,0.75-0.75s0.75,0.336,0.75,0.75c0,5.543,1.418,10.978,4.102,15.717c0.204,0.36,0.077,0.817-0.283,1.021
		C353.29,487.042,353.163,487.073,353.037,487.073z"/>
</g>
    <g>
	<path fill="#FFFFFF" d="M415.149,470.237c0,5.839-1.512,11.34-4.158,16.086"/>
</g>
    <g>
	<path fill="#2887C8" d="M410.99,487.073c-0.123,0-0.249-0.03-0.364-0.095c-0.361-0.202-0.491-0.659-0.29-1.021
		c2.658-4.768,4.063-10.203,4.063-15.721c0-0.414,0.336-0.75,0.75-0.75s0.75,0.336,0.75,0.75c0,5.772-1.471,11.461-4.253,16.451
		C411.509,486.935,411.254,487.073,410.99,487.073z"/>
</g>
    <g>
	<path fill="#2887C8" d="M320.04,380.542c-0.193,0-0.386-0.074-0.532-0.222c-0.292-0.294-0.29-0.769,0.004-1.061
		c0.182-0.181,18.47-17.987,38.8-7.491c0.368,0.19,0.512,0.643,0.322,1.011c-0.19,0.369-0.641,0.513-1.011,0.322
		c-19.371-10.004-36.88,7.048-37.055,7.222C320.422,380.469,320.23,380.542,320.04,380.542z"/>
</g>
    <g>
	<path fill="#2887C8" d="M443.981,380.542c-0.191,0-0.382-0.073-0.528-0.218c-0.174-0.173-17.706-17.214-37.057-7.222
		c-0.368,0.191-0.821,0.045-1.01-0.322c-0.19-0.368-0.046-0.821,0.322-1.011c20.328-10.497,38.619,7.31,38.801,7.491
		c0.294,0.292,0.296,0.767,0.004,1.061C444.367,380.467,444.174,380.542,443.981,380.542z"/>
</g>
    <g>
	<defs>
		<path id="SVGID_7_"
              d="M338.564,414.34c0,25.412,19.487,46.032,43.466,46.032c23.98,0,43.425-20.62,43.425-46.032H338.564z"/>
	</defs>
        <clipPath id="SVGID_8_">
		<use xlink:href="#SVGID_7_" overflow="visible"/>
	</clipPath>
        <g clip-path="url(#SVGID_8_)">
		<rect x="331.86" y="433.531" fill="#E4F2FC" width="100.301" height="26.836"/>
	</g>
</g>
    <g>
	<path fill="#2887C8" d="M382.031,462.109c-24.927,0-45.208-21.428-45.208-47.767c0-0.962,0.78-1.742,1.742-1.742h86.89
		c0.962,0,1.742,0.78,1.742,1.742C427.197,440.682,406.934,462.109,382.031,462.109 M340.339,416.085
		c0.864,23.614,19.234,42.54,41.692,42.54c22.434,0,40.788-18.926,41.65-42.54H340.339z"/>
</g>
    <g>
	<path fill="#E4F2FC" d="M477.732,281.917l-5.264,49.967c0,0-8.922-11.009-19.974-11.009c-11.073,0-42.729,11.009-69.441,11.009
		c-26.732,0-58.389-11.009-69.441-11.009c-11.073,0-19.993,11.009-19.993,11.009l-5.264-49.967H477.732z"/>
</g>
    <g>
	<path fill="#FFFFFF" d="M385.149,243.792c-3.296-4.827-5.283-11.798-6.425-19.148 M346.356,212.714c0,0,4.014-6.674,10.523-12.767
		 M326.917,271.513c0,0-8.028-22.385-3.888-49.137"/>
</g>
    <g>
	<path fill="#2887C8" d="M326.917,272.263c-0.308,0-0.596-0.19-0.706-0.497c-0.081-0.226-8.044-22.873-3.923-49.505
		c0.063-0.41,0.441-0.691,0.856-0.626c0.409,0.063,0.69,0.447,0.626,0.856c-4.063,26.26,3.773,48.547,3.853,48.769
		c0.14,0.39-0.063,0.819-0.453,0.959C327.087,272.249,327.001,272.263,326.917,272.263z M385.149,244.542
		c-0.239,0-0.475-0.114-0.62-0.327c-3.027-4.434-5.229-10.979-6.547-19.456c-0.063-0.409,0.217-0.793,0.626-0.856
		c0.409-0.059,0.793,0.216,0.856,0.626c1.283,8.254,3.403,14.593,6.304,18.84c0.233,0.342,0.146,0.809-0.197,1.042
		C385.442,244.5,385.295,244.542,385.149,244.542z M346.355,213.464c-0.132,0-0.265-0.035-0.386-0.107
		c-0.355-0.213-0.469-0.674-0.256-1.029c0.166-0.276,4.143-6.833,10.653-12.927c0.304-0.284,0.777-0.268,1.06,0.035
		c0.283,0.303,0.268,0.777-0.035,1.06c-6.352,5.945-10.354,12.54-10.394,12.606C346.858,213.335,346.61,213.464,346.355,213.464z"/>
</g>
    <g>
	<path fill="#FFFFFF" d="M471.14,328.082c0,0,3.253-25.45-19.522-25.45c0,0-18.128,9.659-67.483,10.247h-4.353
		c-49.313-0.588-67.44-10.247-67.44-10.247c-22.776,0-19.522,25.45-19.522,25.45l-0.049,60.725c0,0-51.377-159.29,25.401-166.64
		l4.86,0.209c2.367-15.496,8.832-32.462,23.327-47.329c0,0.251,0.042,15.791,10.522,24.903c5.45-5.122,12.676-9.829,20.791-9.829
		c0,0-1.563,18.146,1.057,34.524l73.988,3.024c77.584,13.352,18.541,161.138,18.541,161.138L471.14,328.082z"/>
</g>
    <g>
	<path fill="#2887C8" d="M292.769,389.557c-0.321,0-0.612-0.206-0.713-0.52c-0.085-0.264-8.559-26.724-13.432-58.143
		c-4.51-29.074-6.767-68.475,8.09-91.069c7.171-10.905,17.73-17.098,31.386-18.405c0.034-0.003,0.068-0.005,0.104-0.003l4.19,0.18
		c2.923-18.291,10.803-34.126,23.428-47.074c0.213-0.219,0.537-0.285,0.82-0.171c0.282,0.115,0.467,0.39,0.467,0.695
		c0,0.619,0.114,15.019,9.762,23.888c6.92-6.348,13.915-9.564,20.8-9.564c0.21,0,0.411,0.088,0.553,0.243
		c0.142,0.155,0.212,0.362,0.194,0.571c-0.015,0.178-1.487,17.796,0.956,33.735l73.373,2.999
		c14.631,2.512,25.428,9.904,32.187,21.983c12.991,23.218,8.756,60.127,2.916,87.001c-6.312,29.041-15.8,52.943-15.896,53.182
		c-0.133,0.333-0.482,0.523-0.837,0.458c-0.354-0.068-0.608-0.376-0.609-0.735l-0.116-60.725c0.021-0.215,1.441-12.069-4.865-19.226
		c-3.17-3.597-7.787-5.439-13.727-5.476c-2.063,1.039-20.626,9.687-67.655,10.247h-4.362c-46.997-0.56-65.559-9.208-67.621-10.247
		c-5.94,0.037-10.558,1.878-13.728,5.476c-6.306,7.157-4.885,19.01-4.87,19.129l-0.043,60.82c0,0.369-0.269,0.683-0.634,0.74
		C292.846,389.554,292.807,389.557,292.769,389.557z M451.617,301.882c6.479,0,11.539,2.016,15.038,5.991
		c6.754,7.672,5.294,19.792,5.229,20.305l0.114,56.547c6.665-18.133,33.28-96.389,11.624-135.09
		c-6.527-11.664-16.969-18.806-31.034-21.226l-73.892-3.014c-0.356-0.015-0.653-0.279-0.71-0.631
		c-2.288-14.304-1.389-30.122-1.126-33.876c-6.401,0.251-12.946,3.481-19.467,9.609c-0.281,0.265-0.715,0.272-1.006,0.02
		c-8.669-7.537-10.367-19.229-10.699-23.683c-11.848,12.641-19.218,27.991-21.917,45.657c-0.058,0.379-0.384,0.669-0.773,0.636
		l-4.808-0.207c-13.156,1.272-23.323,7.237-30.224,17.73c-24.515,37.28-2.104,121.964,4.056,143.092l0.045-55.659
		c-0.06-0.417-1.52-12.537,5.233-20.209c3.5-3.975,8.559-5.991,15.039-5.991c0.123,0,0.244,0.03,0.352,0.088
		c0.181,0.096,18.61,9.581,67.097,10.159h4.344c48.602-0.579,66.951-10.063,67.131-10.159
		C451.373,301.912,451.494,301.882,451.617,301.882z"/>
</g>
    <g>
	<path fill="#FFFFFF" d="M326.943,271.513c0,0-20.03-55.94,19.438-96.466c0,0.251,0.042,15.791,10.521,24.903 M385.131,243.795
		c-10.734-15.664-7.48-53.672-7.48-53.672c-8.07,0-15.296,4.705-20.748,9.827c-6.506,6.091-10.521,12.767-10.521,12.767"/>
</g>
    <g>
	<path fill="#2887C8" d="M326.943,272.263c-0.308,0-0.596-0.191-0.706-0.497c-0.051-0.141-5.052-14.326-5.125-33.286
		c-0.068-17.521,4.167-42.84,24.733-63.957c0.214-0.218,0.539-0.285,0.819-0.171c0.283,0.115,0.468,0.39,0.468,0.695
		c0,0.619,0.114,15.019,9.761,23.888c6.918-6.345,13.9-9.562,20.757-9.562c0.21,0,0.411,0.088,0.552,0.243
		c0.142,0.155,0.213,0.362,0.195,0.571c-0.032,0.377-3.107,37.921,7.352,53.184c0.234,0.341,0.147,0.809-0.195,1.042
		c-0.339,0.234-0.808,0.148-1.042-0.195c-10.007-14.603-8.099-47.527-7.674-53.33c-6.371,0.253-12.899,3.48-19.417,9.602
		c-0.005,0.004-0.009,0.009-0.014,0.013c-6.345,5.942-10.344,12.534-10.383,12.6c-0.214,0.354-0.675,0.468-1.029,0.256
		c-0.354-0.213-0.469-0.674-0.256-1.029c0.161-0.268,3.901-6.439,10.058-12.366c-8.135-7.543-9.76-18.782-10.084-23.131
		c-37.067,39.614-18.259,93.877-18.063,94.426c0.14,0.39-0.063,0.819-0.454,0.959C327.112,272.249,327.027,272.263,326.943,272.263z
		"/>
</g>
    <g>
	<path fill="#FFFFFF" d="M346.528,276.792c1.415,2.636,3.895,4.575,6.592,5.868c2.7,1.295,5.63,2.005,8.539,2.704"/>
</g>
    <g>
	<path fill="#2887C8" d="M344.736,277.84c3.526,5.959,10.005,7.983,16.373,9.528c2.594,0.628,3.7-3.374,1.104-4.002
		c-5.241-1.27-10.953-2.652-13.894-7.622C346.959,273.446,343.373,275.533,344.736,277.84"/>
</g>
    <g>
	<path fill="#FFFFFF" d="M352.583,247.043c1.157,4.403,3.196,8.537,5.594,12.406c1.133,1.829,2.365,3.627,3.977,5.048
		c2.861,2.522,6.658,3.65,10.32,4.709"/>
</g>
    <g>
	<path fill="#2887C8" d="M350.583,247.595c1.635,5.712,4.304,11.413,8.01,16.085c3.41,4.299,8.22,6.032,13.331,7.527
		c2.567,0.751,3.666-3.253,1.104-4.004c-5.106-1.49-9.289-3.185-12.365-7.71c-2.701-3.972-4.759-8.391-6.078-13.005
		C353.849,243.929,349.847,245.018,350.583,247.595"/>
</g>
    <g>
	<path fill="#FFFFFF" d="M381.776,271.724c1.853,0.395,3.705,0.79,5.559,1.184c0.789,0.168,1.58,0.336,2.374,0.481
		c2.634,0.479,5.317,0.692,7.996,0.633"/>
</g>
    <g>
	<path fill="#2887C8" d="M381.225,273.723c5.488,1.17,10.836,2.414,16.48,2.373c2.669-0.016,2.674-4.165,0-4.147
		c-5.266,0.036-10.26-1.134-15.378-2.226C379.723,269.167,378.611,273.167,381.225,273.723"/>
</g>
    <g>
	<path fill="#FFFFFF" d="M408.207,274.959c3.094,0.093,6.19,0.184,9.285,0.277"/>
</g>
    <g>
	<path fill="#2887C8" d="M408.207,277.032c3.094,0.093,6.19,0.186,9.285,0.277c2.67,0.082,2.668-4.067,0-4.147
		c-3.095-0.093-6.191-0.186-9.285-0.276C405.535,272.804,405.538,276.953,408.207,277.032"/>
</g>
    <g>
	<path fill="#FFFFFF" d="M386.88,256.389c4.444,1.799,9.234,2.752,14.028,2.781"/>
</g>
    <g>
	<path fill="#2887C8" d="M386.329,258.39c4.69,1.826,9.55,2.754,14.582,2.854c2.672,0.055,2.669-4.092,0-4.146
		c-4.674-0.093-9.127-1.012-13.478-2.708C384.942,253.42,383.865,257.428,386.329,258.39"/>
</g>
    <g>
	<path fill="#FFFFFF" d="M556.193,223.279c0,31.389-25.447,56.836-56.836,56.836s-56.834-25.448-56.834-56.836
		s25.445-56.834,56.834-56.834S556.193,191.89,556.193,223.279"/>
</g>
    <g>
	<path fill="#2887C8" d="M499.357,280.865c-31.752,0-57.584-25.833-57.584-57.586c0-31.752,25.832-57.584,57.584-57.584
		c31.753,0,57.586,25.832,57.586,57.584C556.943,255.032,531.11,280.865,499.357,280.865z M499.357,167.195
		c-30.925,0-56.084,25.159-56.084,56.084c0,30.926,25.159,56.086,56.084,56.086c30.926,0,56.086-25.16,56.086-56.086
		C555.443,192.354,530.283,167.195,499.357,167.195z"/>
</g>
    <g>
	<path fill="#E4F0CC" d="M541.592,223.279c0,23.327-18.908,42.234-42.232,42.234c-23.329,0-42.236-18.908-42.236-42.234
		c0-23.324,18.907-42.232,42.236-42.232C522.684,181.047,541.592,199.955,541.592,223.279"/>
</g>
    <g>
	<path fill="#0B9D49" d="M526.799,210.462c0,0.944-0.331,1.747-0.993,2.409l-25.632,25.636l-4.818,4.814
		c-0.662,0.662-1.461,0.994-2.406,0.994c-0.944,0-1.749-0.332-2.407-0.994l-4.816-4.814l-12.816-12.819
		c-0.662-0.663-0.991-1.461-0.991-2.407c0-0.946,0.329-1.749,0.991-2.409l4.812-4.816c0.66-0.66,1.468-0.992,2.411-0.992
		c0.939,0,1.747,0.332,2.409,0.992l10.408,10.446l23.227-23.266c0.662-0.658,1.468-0.991,2.406-0.991
		c0.946,0,1.752,0.333,2.412,0.991l4.812,4.818C526.468,208.715,526.799,209.519,526.799,210.462"/>
</g>
    <g>
	<path fill="#E4F2FC" d="M196.506,299.309c0,28.596-23.183,51.778-51.778,51.778S92.95,327.905,92.95,299.309
		c0-28.599,23.183-51.778,51.778-51.778S196.506,270.71,196.506,299.309"/>
</g>
    <g>
	<path fill="#2887C8" d="M144.728,351.687c-28.881,0-52.378-23.497-52.378-52.378s23.497-52.378,52.378-52.378
		s52.378,23.497,52.378,52.378S173.609,351.687,144.728,351.687z M144.728,248.131c-28.22,0-51.178,22.958-51.178,51.178
		s22.958,51.178,51.178,51.178s51.178-22.958,51.178-51.178S172.948,248.131,144.728,248.131z"/>
</g>
    <g>
	<defs>
		<path id="SVGID_9_" d="M94.656,299.311c0,27.65,22.417,50.069,50.073,50.069c27.654,0,50.073-22.419,50.073-50.069
			c0-27.655-22.419-50.074-50.073-50.074C117.073,249.237,94.656,271.656,94.656,299.311"/>
	</defs>
        <clipPath id="SVGID_10_">
		<use xlink:href="#SVGID_9_" overflow="visible"/>
	</clipPath>
        <g clip-path="url(#SVGID_10_)">
		<path fill="#B6DDF5" d="M88.597,299.417v15.811c0,6.207,5.031,11.238,11.241,11.238h16.932l11.885,11.887v-11.887h1.957
			c6.22,0,11.252-5.031,11.252-11.238v-15.811c0-6.207-5.032-11.251-11.252-11.251H99.838
			C93.628,288.166,88.597,293.211,88.597,299.417"/>
	</g>
        <g clip-path="url(#SVGID_10_)">
		<path fill="#2887C8" d="M128.656,338.954c-0.156,0-0.31-0.061-0.424-0.176l-11.709-11.711H99.838
			c-6.529,0-11.841-5.311-11.841-11.838v-15.811c0-6.535,5.312-11.852,11.841-11.852h30.774c6.535,0,11.852,5.316,11.852,11.852
			v15.811c0,6.528-5.317,11.838-11.852,11.838h-1.356v11.287c0,0.243-0.146,0.461-0.371,0.554
			C128.811,338.938,128.733,338.954,128.656,338.954z M99.838,288.766c-5.868,0-10.641,4.778-10.641,10.651v15.811
			c0,5.866,4.773,10.638,10.641,10.638h16.932c0.159,0,0.312,0.063,0.424,0.176l10.861,10.862v-10.438c0-0.332,0.269-0.6,0.6-0.6
			h1.957c5.874,0,10.652-4.772,10.652-10.638v-15.811c0-5.873-4.778-10.651-10.652-10.651H99.838z"/>
	</g>
</g>
    <g>
	<path fill="#FFFFFF" d="M201.637,279.557v16.029c0,6.293-5.102,11.395-11.397,11.395h-17.166l-12.051,12.053V306.98h-1.983
		c-6.308,0-11.408-5.102-11.408-11.395v-16.029c0-6.295,5.101-11.408,11.408-11.408h31.2
		C196.535,268.149,201.637,273.262,201.637,279.557"/>
</g>
    <g>
	<path fill="#2887C8" d="M161.023,319.633c-0.078,0-0.155-0.015-0.229-0.046c-0.224-0.093-0.371-0.312-0.371-0.554v-11.453h-1.383
		c-6.622,0-12.008-5.381-12.008-11.995v-16.029c0-6.622,5.387-12.008,12.008-12.008h31.2c6.615,0,11.997,5.387,11.997,12.008v16.029
		c0,6.614-5.382,11.995-11.997,11.995h-16.917l-11.875,11.877C161.333,319.572,161.18,319.633,161.023,319.633z M159.04,268.749
		c-5.959,0-10.808,4.849-10.808,10.808v16.029c0,5.952,4.849,10.794,10.808,10.794h1.983c0.332,0,0.6,0.269,0.6,0.6v10.604
		l11.027-11.028c0.112-0.112,0.265-0.176,0.424-0.176h17.166c5.954,0,10.797-4.842,10.797-10.794v-16.029
		c0-5.959-4.843-10.808-10.797-10.808H159.04z"/>
</g>
    <g>
	<path fill="#E4F2FC" d="M170.267,488.41c0,39.712-32.194,71.903-71.906,71.903c-39.71,0-71.903-32.191-71.903-71.903
		c0-39.714,32.193-71.906,71.903-71.906C138.072,416.504,170.267,448.696,170.267,488.41"/>
</g>
    <g>
	<path fill="#2887C8" d="M98.36,560.913c-39.979,0-72.503-32.524-72.503-72.503c0-39.98,32.525-72.506,72.503-72.506
		c39.98,0,72.506,32.525,72.506,72.506C170.867,528.389,138.34,560.913,98.36,560.913z M98.36,417.104
		c-39.317,0-71.303,31.988-71.303,71.307c0,39.316,31.986,71.304,71.303,71.304c39.318,0,71.306-31.987,71.306-71.304
		C169.667,449.092,137.679,417.104,98.36,417.104z"/>
</g>
    <g>
	<path fill="#FFFFFF" d="M152.913,417.328v117.928c-12.829,15.947-32.5,25.058-54.553,25.058c-22.056,0-41.727-9.114-54.553-25.063
		V417.328c0-10.928,8.864-19.779,19.79-19.779h69.539C144.063,397.549,152.913,406.4,152.913,417.328"/>
</g>
    <g>
	<path fill="#2887C8" d="M98.359,560.913c-22.043,0-42.097-9.217-55.021-25.287c-0.085-0.106-0.132-0.239-0.132-0.376V417.328
		c0-11.237,9.147-20.379,20.39-20.379h69.539c11.236,0,20.378,9.142,20.378,20.379v117.928c0,0.137-0.047,0.27-0.133,0.376
		C140.455,551.698,120.4,560.913,98.359,560.913z M44.406,535.038c12.699,15.685,32.351,24.676,53.953,24.676
		c21.601,0,41.252-8.989,53.953-24.67V417.328c0-10.575-8.603-19.179-19.178-19.179H63.596c-10.582,0-19.19,8.604-19.19,19.179
		V535.038z"/>
</g>
    <g>
	<path fill="#B6DDF5" d="M152.91,429.682h-109.1v-12.358c0-10.923,8.855-19.778,19.78-19.778h69.541
		c10.925,0,19.778,8.855,19.778,19.778V429.682z"/>
</g>
    <g>
	<path fill="#2887C8" d="M152.91,430.281h-109.1c-0.332,0-0.6-0.269-0.6-0.6v-12.358c0-11.236,9.143-20.378,20.38-20.378h69.541
		c11.237,0,20.378,9.142,20.378,20.378v12.358C153.51,430.013,153.242,430.281,152.91,430.281z M44.411,429.082H152.31v-11.759
		c0-10.575-8.603-19.178-19.178-19.178H63.591c-10.576,0-19.18,8.603-19.18,19.178V429.082z"/>
</g>
    <g>
	<path fill="#FFFFFF" d="M109.717,415.538H93.534c-1.062,0-1.923-0.862-1.923-1.924c0-1.063,0.862-1.926,1.923-1.926h16.183
		c1.063,0,1.924,0.862,1.924,1.926C111.641,414.676,110.779,415.538,109.717,415.538"/>
</g>
    <g>
	<path fill="#FFFFFF" d="M87.006,415.538L87.006,415.538c-1.064,0-1.926-0.862-1.926-1.924c0-1.063,0.862-1.926,1.926-1.926
		s1.926,0.862,1.926,1.926C88.932,414.676,88.07,415.538,87.006,415.538"/>
</g>
    <g>
	<path fill="#E4F2FC" d="M776.457,489.633c0,40.508-32.841,73.351-73.354,73.351c-40.508,0-73.348-32.843-73.348-73.351
		c0-40.51,32.84-73.351,73.348-73.351C743.616,416.282,776.457,449.123,776.457,489.633"/>
</g>
    <g>
	<path fill="#2887C8" d="M703.104,563.583c-40.774,0-73.947-33.174-73.947-73.95s33.173-73.95,73.947-73.95
		c40.778,0,73.953,33.174,73.953,73.95S743.882,563.583,703.104,563.583z M703.104,416.882c-40.113,0-72.748,32.636-72.748,72.751
		s32.635,72.751,72.748,72.751c40.116,0,72.754-32.636,72.754-72.751S743.22,416.882,703.104,416.882z"/>
</g>
    <g>
	<rect x="694.289" y="499.601" fill="#FFFFFF" width="17.63" height="21.201"/>
</g>
    <g>
	<path fill="#2887C8" d="M711.919,521.401h-17.63c-0.331,0-0.6-0.269-0.6-0.6v-21.201c0-0.331,0.269-0.6,0.6-0.6h17.63
		c0.331,0,0.6,0.269,0.6,0.6v21.201C712.519,521.133,712.25,521.401,711.919,521.401z M694.889,520.202h16.431V500.2h-16.431
		V520.202z"/>
</g>
    <g>
	<path fill="#E4F0CC" d="M720.069,527.729v33.29c-5.438,1.286-11.126,1.969-16.966,1.969c-5.839,0-11.515-0.683-16.954-1.969v-33.29
		c0-4.807,3.536-8.783,8.144-9.466c0.481-0.096,0.962-0.135,1.457-0.135h14.704c0.494,0,0.993,0.039,1.475,0.135
		C716.547,518.946,720.069,522.923,720.069,527.729"/>
</g>
    <g>
	<path fill="#0B9D49" d="M703.104,563.588c-5.771,0-11.521-0.667-17.092-1.984c-0.271-0.064-0.462-0.306-0.462-0.584v-33.29
		c0-5.004,3.721-9.328,8.655-10.06c0.466-0.093,0.981-0.141,1.545-0.141h14.704c0.567,0,1.104,0.049,1.592,0.146
		c4.903,0.725,8.623,5.049,8.623,10.055v33.29c0,0.278-0.19,0.52-0.462,0.584C714.64,562.921,708.885,563.588,703.104,563.588z
		 M686.749,560.543c10.681,2.452,22.062,2.446,32.721,0v-32.813c0-4.415-3.28-8.229-7.629-8.872
		c-0.44-0.087-0.897-0.129-1.387-0.129H695.75c-0.484,0-0.923,0.041-1.34,0.124c-4.38,0.649-7.661,4.464-7.661,8.877V560.543z"/>
</g>
    <g>
	<path fill="#FFFFFF" d="M755.174,451.325c0,28.758-23.311,52.068-52.07,52.068c-28.755,0-52.065-23.311-52.065-52.068
		c0-28.757,23.311-52.07,52.065-52.07C731.863,399.255,755.174,422.568,755.174,451.325"/>
</g>
    <g>
	<path fill="#2887C8" d="M703.104,503.993c-29.04,0-52.665-23.627-52.665-52.668c0-29.043,23.625-52.67,52.665-52.67
		c29.043,0,52.67,23.627,52.67,52.67C755.773,480.366,732.146,503.993,703.104,503.993z M703.104,399.855
		c-28.378,0-51.466,23.089-51.466,51.47c0,28.38,23.088,51.469,51.466,51.469c28.381,0,51.471-23.089,51.471-51.469
		C754.574,422.944,731.484,399.855,703.104,399.855z"/>
</g>
    <g>
	<path fill="#B6DDF5" d="M744.182,451.325c0,22.685-18.393,41.075-41.075,41.075c-22.685,0-41.075-18.391-41.075-41.075
		s18.391-41.077,41.075-41.077C725.789,410.248,744.182,428.641,744.182,451.325"/>
</g>
    <g>
	<path fill="#2887C8" d="M703.106,493c-22.979,0-41.675-18.695-41.675-41.675c0-22.98,18.695-41.677,41.675-41.677
		s41.675,18.696,41.675,41.677C744.781,474.305,726.086,493,703.106,493z M703.106,410.848c-22.318,0-40.476,18.158-40.476,40.478
		c0,22.318,18.157,40.476,40.476,40.476s40.476-18.157,40.476-40.476C743.582,429.006,725.425,410.848,703.106,410.848z"/>
</g>
    <g>
	<path fill="#E4F2FC" d="M702.879,300.391c0,28.633-23.211,51.844-51.843,51.844c-28.631,0-51.842-23.211-51.842-51.844
		c0-28.63,23.211-51.841,51.842-51.841C679.668,248.549,702.879,271.76,702.879,300.391"/>
</g>
    <g>
	<path fill="#2887C8" d="M651.036,352.834c-28.916,0-52.441-23.526-52.441-52.444c0-28.916,23.525-52.441,52.441-52.441
		c28.917,0,52.442,23.525,52.442,52.441C703.479,329.308,679.953,352.834,651.036,352.834z M651.036,249.149
		c-28.255,0-51.242,22.987-51.242,51.241c0,28.256,22.987,51.244,51.242,51.244s51.243-22.988,51.243-51.244
		C702.279,272.136,679.291,249.149,651.036,249.149z"/>
</g>
    <g>
	<defs>
		<path id="SVGID_11_" d="M600.551,300.391c0,27.882,22.604,50.485,50.487,50.485c27.88,0,50.482-22.603,50.482-50.485
			c0-27.884-22.603-50.484-50.482-50.484C623.154,249.906,600.551,272.507,600.551,300.391"/>
	</defs>
        <clipPath id="SVGID_12_">
		<use xlink:href="#SVGID_11_" overflow="visible"/>
	</clipPath>
        <g clip-path="url(#SVGID_12_)">
		<path fill="#FFFFFF" d="M687.111,294.913v53.229c0,4.682-3.793,8.475-8.475,8.475h-55.199c-4.682,0-8.477-3.793-8.477-8.475
			v-66.283c0-4.682,3.795-8.477,8.477-8.477h43.802v13.053c0,4.682,3.793,8.478,8.476,8.478H687.111z"/>
	</g>
        <g clip-path="url(#SVGID_12_)">
		<path fill="#2887C8" d="M678.637,357.217h-55.199c-5.005,0-9.076-4.071-9.076-9.075v-66.283c0-5.005,4.071-9.077,9.076-9.077
			h43.802c0.331,0,0.6,0.269,0.6,0.6v13.053c0,4.344,3.533,7.877,7.876,7.877h11.396c0.331,0,0.6,0.269,0.6,0.6v53.229
			C687.711,353.146,683.641,357.217,678.637,357.217z M623.438,273.982c-4.343,0-7.877,3.534-7.877,7.877v66.283
			c0,4.342,3.534,7.875,7.877,7.875h55.199c4.342,0,7.875-3.533,7.875-7.875v-52.629h-10.797c-5.004,0-9.075-4.072-9.075-9.078
			v-12.453H623.438z"/>
	</g>
        <g clip-path="url(#SVGID_12_)">
		<path fill="#B6DDF5" d="M687.111,294.913h-11.396c-4.683,0-8.476-3.795-8.476-8.478v-13.053L687.111,294.913z"/>
	</g>
        <g clip-path="url(#SVGID_12_)">
		<path fill="#2887C8" d="M687.131,295.513c-0.004,0-0.012,0-0.02,0h-11.396c-5.004,0-9.075-4.072-9.075-9.078v-13.053
			c0-0.247,0.151-0.469,0.381-0.559c0.23-0.09,0.492-0.03,0.659,0.152l19.792,21.443c0.157,0.108,0.26,0.289,0.26,0.494
			C687.731,295.244,687.463,295.513,687.131,295.513z M667.839,274.917v11.518c0,4.344,3.533,7.877,7.876,7.877h10.026
			L667.839,274.917z"/>
	</g>
</g>
</svg>
