<svg xmlns="http://www.w3.org/2000/svg" id="Layer_1" x="0" y="0" version="1.1" viewBox="0 0 80 80" xml:space="preserve" style="enable-background:new 0 0 80 80"><style type="text/css">.st0{fill:#b6ddf5}.st1{fill:#0589d8}.st2{fill:#fff}.st3{fill:#b1d565}.st4{fill:#009d3d}.st5{fill:#e5f1cc}.st6{fill:none}.st7{fill:#b6ddf5;stroke:#0589d8;stroke-linecap:round;stroke-linejoin:round;stroke-miterlimit:10}.st8{fill:#e3f2fb}.st9{fill:none;stroke:#fff;stroke-width:1.2;stroke-linecap:round;stroke-linejoin:round;stroke-miterlimit:10}</style><g><path d="M14.14,28.38h-0.2c-0.96,0-1.79,0.55-1.99,1.33l-3.7,13.96h63.13l-3.7-13.96c-0.21-0.78-1.03-1.33-1.99-1.33 h-0.35" class="st0"/><path d="M71.37,44.01H8.24c-0.11,0-0.2-0.05-0.27-0.13c-0.06-0.08-0.09-0.19-0.06-0.29l3.7-13.96 c0.25-0.93,1.2-1.58,2.32-1.58h0.2c0.19,0,0.34,0.15,0.34,0.34c0,0.19-0.15,0.34-0.34,0.34h-0.2c-0.8,0-1.5,0.45-1.66,1.08 L8.68,43.33h62.25l-3.59-13.54c-0.17-0.62-0.87-1.08-1.66-1.08h-0.35c-0.19,0-0.34-0.15-0.34-0.34c0-0.19,0.15-0.34,0.34-0.34h0.35 c1.12,0,2.07,0.65,2.32,1.58l3.7,13.96c0.03,0.1,0.01,0.21-0.06,0.29C71.57,43.96,71.48,44.01,71.37,44.01z" class="st1"/></g><g><g><rect width="24.33" height="34.42" x="30.01" y="12.97" class="st0"/><path d="M54.34,47.73H30.01c-0.19,0-0.34-0.15-0.34-0.34V12.97c0-0.19,0.15-0.34,0.34-0.34h24.33 c0.19,0,0.34,0.15,0.34,0.34v34.42C54.68,47.58,54.52,47.73,54.34,47.73z M30.35,47.05H54V13.31H30.35V47.05z" class="st1"/></g><g><g><path d="M55.88,40.3v5.22c0,0.27-0.22,0.49-0.49,0.49h-8.11c0-0.27-0.22-0.48-0.49-0.48h-9.24 c-0.27,0-0.48,0.21-0.49,0.48h-8.11c-0.27,0-0.49-0.22-0.49-0.49V40.3c0-0.27,0.22-0.49,0.49-0.49h26.43 C55.66,39.81,55.88,40.03,55.88,40.3z" class="st2"/><path d="M55.39,46.34h-8.44l-0.01-0.33c0-0.08-0.07-0.15-0.15-0.15h-9.24c-0.08,0-0.15,0.06-0.15,0.15l-0.01,0.33 h-8.44c-0.45,0-0.82-0.37-0.82-0.82V40.3c0-0.45,0.37-0.82,0.82-0.82h26.43c0.45,0,0.82,0.37,0.82,0.82v5.22 C56.22,45.97,55.85,46.34,55.39,46.34z M47.54,45.67h7.85c0.08,0,0.15-0.07,0.15-0.15V40.3c0-0.08-0.07-0.15-0.15-0.15H28.96 c-0.08,0-0.15,0.07-0.15,0.15v5.22c0,0.08,0.07,0.15,0.15,0.15h7.85c0.13-0.28,0.42-0.48,0.75-0.48h9.24 C47.12,45.19,47.41,45.39,47.54,45.67z" class="st1"/></g><g><g><g><circle cx="53.67" cy="42.67" r=".83" class="st3"/></g></g><g><g><circle cx="53.67" cy="42.67" r=".55" class="st4"/></g></g></g><g><g><g><circle cx="50.99" cy="42.67" r=".83" class="st3"/></g></g><g><g><circle cx="50.99" cy="42.67" r=".55" class="st4"/></g></g></g><g><path d="M31.05,41.91c0,0.27-0.22,0.49-0.49,0.49c-0.27,0-0.49-0.22-0.49-0.49s0.22-0.49,0.49-0.49 C30.83,41.42,31.05,41.64,31.05,41.91z M30.56,42.88c-0.27,0-0.49,0.22-0.49,0.49s0.22,0.49,0.49,0.49 c0.27,0,0.49-0.22,0.49-0.49S30.83,42.88,30.56,42.88z" class="st1"/></g><g><path d="M33.07,41.91c0,0.27-0.22,0.49-0.49,0.49c-0.27,0-0.49-0.22-0.49-0.49s0.22-0.49,0.49-0.49 C32.86,41.42,33.07,41.64,33.07,41.91z M32.59,42.88c-0.27,0-0.49,0.22-0.49,0.49s0.22,0.49,0.49,0.49 c0.27,0,0.49-0.22,0.49-0.49S32.86,42.88,32.59,42.88z" class="st1"/></g><g><path d="M35.1,41.91c0,0.27-0.22,0.49-0.49,0.49c-0.27,0-0.49-0.22-0.49-0.49s0.22-0.49,0.49-0.49 C34.89,41.42,35.1,41.64,35.1,41.91z M34.62,42.88c-0.27,0-0.49,0.22-0.49,0.49s0.22,0.49,0.49,0.49c0.27,0,0.49-0.22,0.49-0.49 S34.89,42.88,34.62,42.88z" class="st1"/></g><g><path d="M37.13,41.91c0,0.27-0.22,0.49-0.49,0.49c-0.27,0-0.49-0.22-0.49-0.49s0.22-0.49,0.49-0.49 C36.91,41.42,37.13,41.64,37.13,41.91z M36.64,42.88c-0.27,0-0.49,0.22-0.49,0.49s0.22,0.49,0.49,0.49 c0.27,0,0.49-0.22,0.49-0.49S36.91,42.88,36.64,42.88z" class="st1"/></g><g><path d="M39.16,41.91c0,0.27-0.22,0.49-0.49,0.49c-0.27,0-0.49-0.22-0.49-0.49s0.22-0.49,0.49-0.49 C38.94,41.42,39.16,41.64,39.16,41.91z M38.67,42.88c-0.27,0-0.49,0.22-0.49,0.49s0.22,0.49,0.49,0.49 c0.27,0,0.49-0.22,0.49-0.49S38.94,42.88,38.67,42.88z" class="st1"/></g><g><path d="M41.19,41.91c0,0.27-0.22,0.49-0.49,0.49c-0.27,0-0.49-0.22-0.49-0.49s0.22-0.49,0.49-0.49 C40.97,41.42,41.19,41.64,41.19,41.91z M40.7,42.88c-0.27,0-0.49,0.22-0.49,0.49s0.22,0.49,0.49,0.49c0.27,0,0.49-0.22,0.49-0.49 S40.97,42.88,40.7,42.88z" class="st1"/></g><g><path d="M43.22,41.91c0,0.27-0.22,0.49-0.49,0.49c-0.27,0-0.49-0.22-0.49-0.49s0.22-0.49,0.49-0.49 C43,41.42,43.22,41.64,43.22,41.91z M42.73,42.88c-0.27,0-0.49,0.22-0.49,0.49s0.22,0.49,0.49,0.49c0.27,0,0.49-0.22,0.49-0.49 S43,42.88,42.73,42.88z" class="st1"/></g></g><g><g><path d="M55.88,32.72v5.22c0,0.27-0.22,0.49-0.49,0.49h-8.11c0-0.27-0.22-0.48-0.49-0.48h-9.24 c-0.27,0-0.48,0.21-0.49,0.48h-8.11c-0.27,0-0.49-0.22-0.49-0.49v-5.22c0-0.27,0.22-0.49,0.49-0.49h26.43 C55.66,32.23,55.88,32.45,55.88,32.72z" class="st2"/><path d="M55.39,38.76h-8.44l-0.01-0.33c0-0.08-0.07-0.15-0.15-0.15h-9.24c-0.08,0-0.15,0.06-0.15,0.15l-0.01,0.33 h-8.44c-0.45,0-0.82-0.37-0.82-0.82v-5.22c0-0.45,0.37-0.82,0.82-0.82h26.43c0.45,0,0.82,0.37,0.82,0.82v5.22 C56.22,38.39,55.85,38.76,55.39,38.76z M47.54,38.09h7.85c0.08,0,0.15-0.07,0.15-0.15v-5.22c0-0.08-0.07-0.15-0.15-0.15H28.96 c-0.08,0-0.15,0.07-0.15,0.15v5.22c0,0.08,0.07,0.15,0.15,0.15h7.85c0.13-0.28,0.42-0.48,0.75-0.48h9.24 C47.12,37.61,47.41,37.8,47.54,38.09z" class="st1"/></g><g><g><g><circle cx="53.67" cy="35.08" r=".83" class="st3"/></g></g><g><g><circle cx="53.67" cy="35.08" r=".55" class="st4"/></g></g></g><g><g><g><circle cx="50.99" cy="35.08" r=".83" class="st3"/></g></g><g><g><circle cx="50.99" cy="35.08" r=".55" class="st4"/></g></g></g><g><path d="M31.05,34.33c0,0.27-0.22,0.49-0.49,0.49c-0.27,0-0.49-0.22-0.49-0.49c0-0.27,0.22-0.49,0.49-0.49 C30.83,33.84,31.05,34.06,31.05,34.33z M30.56,35.3c-0.27,0-0.49,0.22-0.49,0.49c0,0.27,0.22,0.49,0.49,0.49 c0.27,0,0.49-0.22,0.49-0.49C31.05,35.52,30.83,35.3,30.56,35.3z" class="st1"/></g><g><path d="M33.07,34.33c0,0.27-0.22,0.49-0.49,0.49c-0.27,0-0.49-0.22-0.49-0.49c0-0.27,0.22-0.49,0.49-0.49 C32.86,33.84,33.07,34.06,33.07,34.33z M32.59,35.3c-0.27,0-0.49,0.22-0.49,0.49c0,0.27,0.22,0.49,0.49,0.49 c0.27,0,0.49-0.22,0.49-0.49C33.07,35.52,32.86,35.3,32.59,35.3z" class="st1"/></g><g><path d="M35.1,34.33c0,0.27-0.22,0.49-0.49,0.49c-0.27,0-0.49-0.22-0.49-0.49c0-0.27,0.22-0.49,0.49-0.49 C34.89,33.84,35.1,34.06,35.1,34.33z M34.62,35.3c-0.27,0-0.49,0.22-0.49,0.49c0,0.27,0.22,0.49,0.49,0.49 c0.27,0,0.49-0.22,0.49-0.49C35.1,35.52,34.89,35.3,34.62,35.3z" class="st1"/></g><g><path d="M37.13,34.33c0,0.27-0.22,0.49-0.49,0.49c-0.27,0-0.49-0.22-0.49-0.49c0-0.27,0.22-0.49,0.49-0.49 C36.91,33.84,37.13,34.06,37.13,34.33z M36.64,35.3c-0.27,0-0.49,0.22-0.49,0.49c0,0.27,0.22,0.49,0.49,0.49 c0.27,0,0.49-0.22,0.49-0.49C37.13,35.52,36.91,35.3,36.64,35.3z" class="st1"/></g><g><path d="M39.16,34.33c0,0.27-0.22,0.49-0.49,0.49c-0.27,0-0.49-0.22-0.49-0.49c0-0.27,0.22-0.49,0.49-0.49 C38.94,33.84,39.16,34.06,39.16,34.33z M38.67,35.3c-0.27,0-0.49,0.22-0.49,0.49c0,0.27,0.22,0.49,0.49,0.49 c0.27,0,0.49-0.22,0.49-0.49C39.16,35.52,38.94,35.3,38.67,35.3z" class="st1"/></g><g><path d="M41.19,34.33c0,0.27-0.22,0.49-0.49,0.49c-0.27,0-0.49-0.22-0.49-0.49c0-0.27,0.22-0.49,0.49-0.49 C40.97,33.84,41.19,34.06,41.19,34.33z M40.7,35.3c-0.27,0-0.49,0.22-0.49,0.49c0,0.27,0.22,0.49,0.49,0.49 c0.27,0,0.49-0.22,0.49-0.49C41.19,35.52,40.97,35.3,40.7,35.3z" class="st1"/></g><g><path d="M43.22,34.33c0,0.27-0.22,0.49-0.49,0.49c-0.27,0-0.49-0.22-0.49-0.49c0-0.27,0.22-0.49,0.49-0.49 C43,33.84,43.22,34.06,43.22,34.33z M42.73,35.3c-0.27,0-0.49,0.22-0.49,0.49c0,0.27,0.22,0.49,0.49,0.49 c0.27,0,0.49-0.22,0.49-0.49C43.22,35.52,43,35.3,42.73,35.3z" class="st1"/></g></g><g><g><path d="M55.88,25.13v5.22c0,0.27-0.22,0.49-0.49,0.49h-8.11c0-0.27-0.22-0.48-0.49-0.48h-9.24 c-0.27,0-0.48,0.21-0.49,0.48h-8.11c-0.27,0-0.49-0.22-0.49-0.49v-5.22c0-0.27,0.22-0.49,0.49-0.49h26.43 C55.66,24.65,55.88,24.87,55.88,25.13z" class="st2"/><path d="M55.39,31.18h-8.44l-0.01-0.33c0-0.08-0.07-0.15-0.15-0.15h-9.24c-0.08,0-0.15,0.06-0.15,0.15l-0.01,0.33 h-8.44c-0.45,0-0.82-0.37-0.82-0.82v-5.22c0-0.45,0.37-0.82,0.82-0.82h26.43c0.45,0,0.82,0.37,0.82,0.82v5.22 C56.22,30.81,55.85,31.18,55.39,31.18z M47.54,30.51h7.85c0.08,0,0.15-0.07,0.15-0.15v-5.22c0-0.08-0.07-0.15-0.15-0.15H28.96 c-0.08,0-0.15,0.07-0.15,0.15v5.22c0,0.08,0.07,0.15,0.15,0.15h7.85c0.13-0.28,0.42-0.48,0.75-0.48h9.24 C47.12,30.03,47.41,30.22,47.54,30.51z" class="st1"/></g><g><g><g><circle cx="53.67" cy="27.5" r=".83" class="st3"/></g></g><g><g><circle cx="53.67" cy="27.5" r=".55" class="st4"/></g></g></g><g><g><g><circle cx="50.99" cy="27.5" r=".83" class="st3"/></g></g><g><g><circle cx="50.99" cy="27.5" r=".55" class="st4"/></g></g></g><g><path d="M31.05,26.75c0,0.27-0.22,0.49-0.49,0.49c-0.27,0-0.49-0.22-0.49-0.49c0-0.27,0.22-0.49,0.49-0.49 C30.83,26.26,31.05,26.48,31.05,26.75z M30.56,27.72c-0.27,0-0.49,0.22-0.49,0.49c0,0.27,0.22,0.49,0.49,0.49 c0.27,0,0.49-0.22,0.49-0.49C31.05,27.94,30.83,27.72,30.56,27.72z" class="st1"/></g><g><path d="M33.07,26.75c0,0.27-0.22,0.49-0.49,0.49c-0.27,0-0.49-0.22-0.49-0.49c0-0.27,0.22-0.49,0.49-0.49 C32.86,26.26,33.07,26.48,33.07,26.75z M32.59,27.72c-0.27,0-0.49,0.22-0.49,0.49c0,0.27,0.22,0.49,0.49,0.49 c0.27,0,0.49-0.22,0.49-0.49C33.07,27.94,32.86,27.72,32.59,27.72z" class="st1"/></g><g><path d="M35.1,26.75c0,0.27-0.22,0.49-0.49,0.49c-0.27,0-0.49-0.22-0.49-0.49c0-0.27,0.22-0.49,0.49-0.49 C34.89,26.26,35.1,26.48,35.1,26.75z M34.62,27.72c-0.27,0-0.49,0.22-0.49,0.49c0,0.27,0.22,0.49,0.49,0.49 c0.27,0,0.49-0.22,0.49-0.49C35.1,27.94,34.89,27.72,34.62,27.72z" class="st1"/></g><g><path d="M37.13,26.75c0,0.27-0.22,0.49-0.49,0.49c-0.27,0-0.49-0.22-0.49-0.49c0-0.27,0.22-0.49,0.49-0.49 C36.91,26.26,37.13,26.48,37.13,26.75z M36.64,27.72c-0.27,0-0.49,0.22-0.49,0.49c0,0.27,0.22,0.49,0.49,0.49 c0.27,0,0.49-0.22,0.49-0.49C37.13,27.94,36.91,27.72,36.64,27.72z" class="st1"/></g><g><path d="M39.16,26.75c0,0.27-0.22,0.49-0.49,0.49c-0.27,0-0.49-0.22-0.49-0.49c0-0.27,0.22-0.49,0.49-0.49 C38.94,26.26,39.16,26.48,39.16,26.75z M38.67,27.72c-0.27,0-0.49,0.22-0.49,0.49c0,0.27,0.22,0.49,0.49,0.49 c0.27,0,0.49-0.22,0.49-0.49C39.16,27.94,38.94,27.72,38.67,27.72z" class="st1"/></g><g><path d="M41.19,26.75c0,0.27-0.22,0.49-0.49,0.49c-0.27,0-0.49-0.22-0.49-0.49c0-0.27,0.22-0.49,0.49-0.49 C40.97,26.26,41.19,26.48,41.19,26.75z M40.7,27.72c-0.27,0-0.49,0.22-0.49,0.49c0,0.27,0.22,0.49,0.49,0.49 c0.27,0,0.49-0.22,0.49-0.49C41.19,27.94,40.97,27.72,40.7,27.72z" class="st1"/></g><g><path d="M43.22,26.75c0,0.27-0.22,0.49-0.49,0.49c-0.27,0-0.49-0.22-0.49-0.49c0-0.27,0.22-0.49,0.49-0.49 C43,26.26,43.22,26.48,43.22,26.75z M42.73,27.72c-0.27,0-0.49,0.22-0.49,0.49c0,0.27,0.22,0.49,0.49,0.49 c0.27,0,0.49-0.22,0.49-0.49C43.22,27.94,43,27.72,42.73,27.72z" class="st1"/></g></g><g><g><path d="M55.88,17.55v5.22c0,0.27-0.22,0.49-0.49,0.49h-8.11c0-0.27-0.22-0.48-0.49-0.48h-9.24 c-0.27,0-0.48,0.21-0.49,0.48h-8.11c-0.27,0-0.49-0.22-0.49-0.49v-5.22c0-0.27,0.22-0.49,0.49-0.49h26.43 C55.66,17.07,55.88,17.29,55.88,17.55z" class="st2"/><path d="M55.39,23.6h-8.44l-0.01-0.33c0-0.08-0.07-0.15-0.15-0.15h-9.24c-0.08,0-0.15,0.06-0.15,0.15L37.4,23.6 h-8.44c-0.45,0-0.82-0.37-0.82-0.82v-5.22c0-0.45,0.37-0.82,0.82-0.82h26.43c0.45,0,0.82,0.37,0.82,0.82v5.22 C56.22,23.23,55.85,23.6,55.39,23.6z M47.55,22.92h7.85c0.08,0,0.15-0.07,0.15-0.15v-5.22c0-0.08-0.07-0.15-0.15-0.15H28.96 c-0.08,0-0.15,0.07-0.15,0.15v5.22c0,0.08,0.07,0.15,0.15,0.15h7.85c0.13-0.28,0.42-0.48,0.75-0.48h9.24 C47.13,22.45,47.42,22.64,47.55,22.92z" class="st1"/></g><g><g><g><circle cx="53.67" cy="19.92" r=".83" class="st3"/></g></g><g><g><circle cx="53.67" cy="19.92" r=".55" class="st4"/></g></g></g><g><g><g><circle cx="50.99" cy="19.92" r=".83" class="st3"/></g></g><g><g><circle cx="50.99" cy="19.92" r=".55" class="st4"/></g></g></g><g><path d="M31.05,19.16c0,0.27-0.22,0.49-0.49,0.49c-0.27,0-0.49-0.22-0.49-0.49c0-0.27,0.22-0.49,0.49-0.49 C30.83,18.68,31.05,18.9,31.05,19.16z M30.56,20.14c-0.27,0-0.49,0.22-0.49,0.49c0,0.27,0.22,0.49,0.49,0.49 c0.27,0,0.49-0.22,0.49-0.49C31.05,20.36,30.83,20.14,30.56,20.14z" class="st1"/></g><g><path d="M33.07,19.16c0,0.27-0.22,0.49-0.49,0.49c-0.27,0-0.49-0.22-0.49-0.49c0-0.27,0.22-0.49,0.49-0.49 C32.86,18.68,33.07,18.9,33.07,19.16z M32.59,20.14c-0.27,0-0.49,0.22-0.49,0.49c0,0.27,0.22,0.49,0.49,0.49 c0.27,0,0.49-0.22,0.49-0.49C33.07,20.36,32.86,20.14,32.59,20.14z" class="st1"/></g><g><path d="M35.1,19.16c0,0.27-0.22,0.49-0.49,0.49c-0.27,0-0.49-0.22-0.49-0.49c0-0.27,0.22-0.49,0.49-0.49 C34.89,18.68,35.1,18.9,35.1,19.16z M34.62,20.14c-0.27,0-0.49,0.22-0.49,0.49c0,0.27,0.22,0.49,0.49,0.49 c0.27,0,0.49-0.22,0.49-0.49C35.1,20.36,34.89,20.14,34.62,20.14z" class="st1"/></g><g><path d="M37.13,19.16c0,0.27-0.22,0.49-0.49,0.49c-0.27,0-0.49-0.22-0.49-0.49c0-0.27,0.22-0.49,0.49-0.49 C36.91,18.68,37.13,18.9,37.13,19.16z M36.64,20.14c-0.27,0-0.49,0.22-0.49,0.49c0,0.27,0.22,0.49,0.49,0.49 c0.27,0,0.49-0.22,0.49-0.49C37.13,20.36,36.91,20.14,36.64,20.14z" class="st1"/></g><g><path d="M39.16,19.16c0,0.27-0.22,0.49-0.49,0.49c-0.27,0-0.49-0.22-0.49-0.49c0-0.27,0.22-0.49,0.49-0.49 C38.94,18.68,39.16,18.9,39.16,19.16z M38.67,20.14c-0.27,0-0.49,0.22-0.49,0.49c0,0.27,0.22,0.49,0.49,0.49 c0.27,0,0.49-0.22,0.49-0.49C39.16,20.36,38.94,20.14,38.67,20.14z" class="st1"/></g><g><path d="M41.19,19.16c0,0.27-0.22,0.49-0.49,0.49c-0.27,0-0.49-0.22-0.49-0.49c0-0.27,0.22-0.49,0.49-0.49 C40.97,18.68,41.19,18.9,41.19,19.16z M40.7,20.14c-0.27,0-0.49,0.22-0.49,0.49c0,0.27,0.22,0.49,0.49,0.49 c0.27,0,0.49-0.22,0.49-0.49C41.19,20.36,40.97,20.14,40.7,20.14z" class="st1"/></g><g><path d="M43.22,19.16c0,0.27-0.22,0.49-0.49,0.49c-0.27,0-0.49-0.22-0.49-0.49c0-0.27,0.22-0.49,0.49-0.49 C43,18.68,43.22,18.9,43.22,19.16z M42.73,20.14c-0.27,0-0.49,0.22-0.49,0.49c0,0.27,0.22,0.49,0.49,0.49 c0.27,0,0.49-0.22,0.49-0.49C43.22,20.36,43,20.14,42.73,20.14z" class="st1"/></g></g><g><path d="M54.46,15.68H29.89c-0.78,0-1.42-0.63-1.42-1.42v-2.69c0-0.78,0.63-1.42,1.42-1.42h24.57 c0.78,0,1.42,0.63,1.42,1.42v2.69C55.88,15.05,55.24,15.68,54.46,15.68z" class="st2"/><path d="M55.08,16.02H29.27c-0.63,0-1.14-0.51-1.14-1.14v-3.92c0-0.63,0.51-1.14,1.14-1.14h25.81 c0.63,0,1.14,0.51,1.14,1.14v3.92C56.22,15.51,55.71,16.02,55.08,16.02z M29.27,10.5c-0.25,0-0.46,0.21-0.46,0.46v3.92 c0,0.25,0.21,0.46,0.46,0.46h25.81c0.25,0,0.46-0.21,0.46-0.46v-3.92c0-0.25-0.21-0.46-0.46-0.46H29.27z" class="st1"/></g><g><g><g><path d="M36.61,14.5h-5.4c-0.52,0-0.95-0.43-0.95-0.95v-1.16c0-0.52,0.43-0.95,0.95-0.95h5.4 c0.52,0,0.95,0.43,0.95,0.95v1.16C37.56,14.07,37.13,14.5,36.61,14.5z" class="st5"/></g><g><path d="M37.07,14.63h-6.32c-0.34,0-0.61-0.28-0.61-0.61v-2.08c0-0.34,0.28-0.61,0.61-0.61h6.32 c0.34,0,0.61,0.28,0.61,0.61v2.08C37.69,14.35,37.41,14.63,37.07,14.63z M30.75,11.56c-0.2,0-0.37,0.17-0.37,0.37v2.08 c0,0.2,0.17,0.37,0.37,0.37h6.32c0.2,0,0.37-0.17,0.37-0.37v-2.08c0-0.2-0.17-0.37-0.37-0.37H30.75z" class="st1"/></g></g><g><g><path d="M31.38,13.81H31.3c-0.13,0-0.23-0.1-0.23-0.23V13.5c0-0.13,0.1-0.23,0.23-0.23l0.08,0 c0.13,0,0.23,0.1,0.23,0.23v0.08C31.61,13.7,31.5,13.81,31.38,13.81z" class="st4"/></g></g><g><g><path d="M32.72,13.81h-0.08c-0.13,0-0.23-0.1-0.23-0.23v-1.21c0-0.13,0.1-0.23,0.23-0.23h0.08 c0.13,0,0.23,0.1,0.23,0.23v1.21C32.95,13.7,32.85,13.81,32.72,13.81z" class="st4"/></g></g><g><g><path d="M34.07,13.81h-0.08c-0.13,0-0.23-0.1-0.23-0.23v-0.4c0-0.13,0.1-0.23,0.23-0.23h0.08 c0.13,0,0.23,0.1,0.23,0.23v0.4C34.3,13.7,34.19,13.81,34.07,13.81z" class="st4"/></g></g><g><g><path d="M36.76,13.81h-0.08c-0.13,0-0.23-0.1-0.23-0.23v-1.21c0-0.13,0.1-0.23,0.23-0.23h0.08 c0.13,0,0.23,0.1,0.23,0.23v1.21C36.99,13.7,36.89,13.81,36.76,13.81z" class="st4"/></g></g><g><g><path d="M35.41,13.81h-0.08c-0.13,0-0.23-0.1-0.23-0.23v-1.21c0-0.13,0.1-0.23,0.23-0.23h0.08 c0.13,0,0.23,0.1,0.23,0.23v1.21C35.64,13.7,35.54,13.81,35.41,13.81z" class="st4"/></g></g></g><g><g><g><circle cx="42.41" cy="12.97" r=".83" class="st3"/></g></g><g><g><circle cx="42.41" cy="12.97" r=".55" class="st4"/></g></g></g><g><g><g><circle cx="39.73" cy="12.97" r=".83" class="st3"/></g></g><g><g><circle cx="39.73" cy="12.97" r=".55" class="st4"/></g></g></g><g><g><path d="M49.71,13.99h-0.08c-0.13,0-0.23-0.1-0.23-0.23v-1.67c0-0.13,0.1-0.23,0.23-0.23h0.08 c0.13,0,0.23,0.1,0.23,0.23v1.67C49.94,13.88,49.83,13.99,49.71,13.99z" class="st1"/></g></g><g><g><path d="M51.72,13.99h-0.08c-0.13,0-0.23-0.1-0.23-0.23v-1.67c0-0.13,0.1-0.23,0.23-0.23h0.08 c0.13,0,0.23,0.1,0.23,0.23v1.67C51.95,13.88,51.85,13.99,51.72,13.99z" class="st1"/></g></g><g><g><path d="M53.74,13.99h-0.08c-0.13,0-0.23-0.1-0.23-0.23v-1.67c0-0.13,0.1-0.23,0.23-0.23h0.08 c0.13,0,0.23,0.1,0.23,0.23v1.67C53.97,13.88,53.87,13.99,53.74,13.99z" class="st1"/></g></g></g><g><g><g><path d="M41.65,27.39" class="st0"/></g><g><g><line x1="22.02" x2="28.34" y1="24.43" y2="24.43" class="st6"/></g><g><line x1="22.02" x2="37.32" y1="27.09" y2="27.09" class="st6"/></g><g><line x1="22.02" x2="37.32" y1="29.39" y2="29.39" class="st6"/></g><g><line x1="37.32" x2="37.24" y1="31.68" y2="31.68" class="st6"/></g><g><line x1="22.11" x2="22.02" y1="31.68" y2="31.68" class="st6"/></g><g><line x1="37.32" x2="34.87" y1="33.98" y2="33.98" class="st6"/></g><g><line x1="24.47" x2="22.02" y1="33.98" y2="33.98" class="st6"/></g></g><g><path d="M41.02,28.06v16.43H17.07V28.06c0,0,0.75-0.78,1.91-1.85v-4.85h6.2c1.4-0.84,2.76-1.4,3.87-1.4 c1.11,0,2.47,0.56,3.87,1.4h1.5l4.69,4.69v0.16C40.27,27.28,41.02,28.06,41.02,28.06z" class="st2"/></g></g><g><g><rect width="23.95" height="16.44" x="16.13" y="28.95" class="st0"/><path d="M40.08,45.67H16.13c-0.16,0-0.28-0.13-0.28-0.28V28.95c0-0.16,0.13-0.28,0.28-0.28h23.95 c0.16,0,0.28,0.13,0.28,0.28v16.44C40.36,45.55,40.23,45.67,40.08,45.67z M16.41,45.11H39.8V29.24H16.41V45.11z" class="st1"/></g><g><path d="M40.08,28.95" class="st7"/></g><g><path d="M16.13,28.95c0,0,7.78-8.09,11.97-8.09s11.97,8.09,11.97,8.09H16.13z" class="st0"/><path d="M40.08,29.24H16.13c-0.11,0-0.22-0.07-0.26-0.17c-0.04-0.1-0.02-0.22,0.06-0.31 c0.32-0.33,7.91-8.18,12.18-8.18c4.26,0,11.86,7.84,12.18,8.18c0.08,0.08,0.1,0.2,0.06,0.31C40.29,29.17,40.19,29.24,40.08,29.24 z M16.81,28.67H39.4c-1.74-1.72-7.85-7.53-11.3-7.53C24.66,21.15,18.55,26.95,16.81,28.67z" class="st1"/></g><g><g><polygon points="38.17 26.95 38.17 40.09 18.04 40.09 18.04 22.26 33.48 22.26" class="st8"/><path d="M38.17,40.37H18.04c-0.16,0-0.28-0.13-0.28-0.28V22.26c0-0.16,0.13-0.28,0.28-0.28h15.44 c0.07,0,0.15,0.03,0.2,0.08l4.69,4.69c0.05,0.05,0.08,0.12,0.08,0.2v13.14C38.45,40.25,38.33,40.37,38.17,40.37z M18.32,39.81 h19.57V27.06l-4.52-4.52H18.32V39.81z" class="st1"/></g><g><polygon points="38.17 26.95 33.48 26.95 33.48 22.26" class="st2"/><path d="M38.17,27.23h-4.69c-0.16,0-0.28-0.13-0.28-0.28v-4.69c0-0.11,0.07-0.22,0.17-0.26 c0.11-0.04,0.23-0.02,0.31,0.06l4.69,4.69c0.08,0.08,0.1,0.2,0.06,0.31C38.39,27.16,38.28,27.23,38.17,27.23z M33.76,26.67h3.73 l-3.73-3.72V26.67z" class="st1"/></g><g><path d="M26.77,26.28h-6.32c-0.16,0-0.28-0.13-0.28-0.28c0-0.16,0.13-0.28,0.28-0.28h6.32 c0.16,0,0.28,0.13,0.28,0.28C27.05,26.15,26.93,26.28,26.77,26.28z" class="st1"/></g><g><path d="M35.75,28.94h-15.3c-0.16,0-0.28-0.13-0.28-0.28c0-0.16,0.13-0.28,0.28-0.28h15.3 c0.16,0,0.28,0.13,0.28,0.28C36.03,28.82,35.91,28.94,35.75,28.94z" class="st1"/></g><g><path d="M35.75,31.24h-15.3c-0.16,0-0.28-0.13-0.28-0.28c0-0.16,0.13-0.28,0.28-0.28h15.3 c0.16,0,0.28,0.13,0.28,0.28C36.03,31.11,35.91,31.24,35.75,31.24z" class="st1"/></g><g><path d="M35.75,33.53h-15.3c-0.16,0-0.28-0.13-0.28-0.28c0-0.16,0.13-0.28,0.28-0.28h15.3 c0.16,0,0.28,0.13,0.28,0.28C36.03,33.4,35.91,33.53,35.75,33.53z" class="st1"/></g><g><path d="M35.75,35.82h-15.3c-0.16,0-0.28-0.13-0.28-0.28c0-0.16,0.13-0.28,0.28-0.28h15.3 c0.16,0,0.28,0.13,0.28,0.28C36.03,35.7,35.91,35.82,35.75,35.82z" class="st1"/></g></g><g><polygon points="40.08 28.95 30.28 38.49 40.08 45.39" class="st2"/><path d="M40.08,45.67c-0.06,0-0.11-0.02-0.16-0.05l-9.8-6.9c-0.07-0.05-0.11-0.12-0.12-0.21 c-0.01-0.08,0.02-0.17,0.08-0.22l9.8-9.54c0.08-0.08,0.2-0.1,0.31-0.06c0.1,0.04,0.17,0.15,0.17,0.26v16.44 c0,0.11-0.06,0.2-0.15,0.25C40.17,45.66,40.12,45.67,40.08,45.67z M30.72,38.46l9.08,6.39V29.62L30.72,38.46z" class="st1"/></g><g><polygon points="16.13 28.95 25.93 38.49 16.13 45.39" class="st2"/><path d="M16.13,45.67c-0.04,0-0.09-0.01-0.13-0.03c-0.09-0.05-0.15-0.14-0.15-0.25V28.95c0-0.11,0.07-0.22,0.17-0.26 c0.1-0.04,0.23-0.02,0.31,0.06l9.8,9.54c0.06,0.06,0.09,0.14,0.08,0.22c-0.01,0.08-0.05,0.16-0.12,0.21l-9.8,6.9 C16.25,45.66,16.19,45.67,16.13,45.67z M16.41,29.62v15.23l9.08-6.39L16.41,29.62z" class="st1"/></g><g><path d="M16.13,45.39c0,0,8.86-9.97,11.97-9.97c3.03,0,11.97,9.97,11.97,9.97H16.13z" class="st2"/><path d="M40.08,45.67H16.13c-0.11,0-0.21-0.06-0.26-0.17c-0.05-0.1-0.03-0.22,0.05-0.3 c0.37-0.41,8.99-10.07,12.18-10.07c3.12,0,11.81,9.66,12.18,10.07c0.07,0.08,0.09,0.2,0.05,0.3 C40.29,45.61,40.19,45.67,40.08,45.67z M16.76,45.11h22.68c-2.76-3.01-9.08-9.41-11.34-9.41C25.79,35.7,19.5,42.1,16.76,45.11z" class="st1"/></g></g></g><g><g><g><g><g><path d="M49.79,36.24l-0.38-1.68l-0.38,1.68h-0.94l-0.85-2.97h1.01l0.38,1.81l0.45-1.81h0.68l0.45,1.81l0.38-1.81 h1.01l-0.85,2.97H49.79z" class="st2"/><path d="M54.22,36.24l-0.38-1.68l-0.38,1.68h-0.94l-0.85-2.97h1.01l0.38,1.81l0.45-1.81h0.68l0.45,1.81L55,33.27 h1.01l-0.85,2.97H54.22z" class="st2"/><path d="M58.65,36.24l-0.38-1.68l-0.38,1.68h-0.94l-0.85-2.97h1.01l0.38,1.81l0.45-1.81h0.68l0.45,1.81l0.38-1.81 h1.01l-0.85,2.97H58.65z" class="st2"/></g><g><path d="M49.79,36.24l-0.38-1.68l-0.38,1.68h-0.94l-0.85-2.97h1.01l0.38,1.81l0.45-1.81h0.68l0.45,1.81l0.38-1.81 h1.01l-0.85,2.97H49.79z" class="st2"/><path d="M54.22,36.24l-0.38-1.68l-0.38,1.68h-0.94l-0.85-2.97h1.01l0.38,1.81l0.45-1.81h0.68l0.45,1.81L55,33.27 h1.01l-0.85,2.97H54.22z" class="st2"/><path d="M58.65,36.24l-0.38-1.68l-0.38,1.68h-0.94l-0.85-2.97h1.01l0.38,1.81l0.45-1.81h0.68l0.45,1.81l0.38-1.81 h1.01l-0.85,2.97H58.65z" class="st2"/></g></g><g><line x1="50.42" x2="57.12" y1="39.25" y2="39.25" class="st2"/></g><g><line x1="58.22" x2="59.91" y1="39.25" y2="39.25" class="st2"/></g><g><line x1="50.42" x2="57.12" y1="42.63" y2="42.63" class="st2"/></g><g><line x1="58.22" x2="59.91" y1="42.63" y2="42.63" class="st2"/></g></g><g><path d="M64.78,28.52v17.31c0,0.53-0.42,0.95-0.93,0.95H44.12c-0.51,0-0.92-0.42-0.92-0.95V28.52 c0-0.73,0.59-1.33,1.33-1.33h18.92C64.18,27.19,64.78,27.78,64.78,28.52z" class="st2"/></g></g><g><g><path d="M65.9,31.53H44.32v-0.49c0-1.63,1.32-2.94,2.94-2.94h15.69c1.63,0,2.94,1.32,2.94,2.94V31.53z" class="st8"/><path d="M65.9,31.87H44.32c-0.19,0-0.34-0.15-0.34-0.34v-1.75c0-1.12,0.91-2.03,2.03-2.03H64.2 c1.12,0,2.03,0.91,2.03,2.03v1.75C66.23,31.72,66.08,31.87,65.9,31.87z M44.66,31.19h20.9v-1.41c0-0.75-0.61-1.35-1.35-1.35 H46.01c-0.75,0-1.35,0.61-1.35,1.35V31.19z" class="st1"/></g><g><path d="M65.9,31.12h-7.77v-3.03h5.18c1.43,0,2.59,1.16,2.59,2.59V31.12z" class="st0"/><path d="M65.9,31.46h-7.77c-0.19,0-0.34-0.15-0.34-0.34v-3.03c0-0.19,0.15-0.34,0.34-0.34h6.08 c1.12,0,2.03,0.91,2.03,2.03v1.34C66.23,31.31,66.08,31.46,65.9,31.46z M58.46,30.78h7.1v-1c0-0.75-0.61-1.35-1.35-1.35h-5.74 V30.78z" class="st1"/></g><g><g><path d="M65.9,40.45v-9.32H44.32v15.61c0,0.52,0.41,0.95,0.93,0.95h19.72c0.51,0,0.93-0.43,0.93-0.95v-2.39" class="st2"/><path d="M64.97,48.02H45.25c-0.7,0-1.27-0.58-1.27-1.29V31.12c0-0.19,0.15-0.34,0.34-0.34H65.9 c0.19,0,0.34,0.15,0.34,0.34v9.32c0,0.19-0.15,0.34-0.34,0.34c-0.19,0-0.34-0.15-0.34-0.34v-8.99h-20.9v15.27 c0,0.34,0.26,0.61,0.59,0.61h19.72c0.32,0,0.59-0.27,0.59-0.61v-2.39c0-0.19,0.15-0.34,0.34-0.34c0.19,0,0.34,0.15,0.34,0.34 v2.39C66.23,47.44,65.67,48.02,64.97,48.02z" class="st1"/></g><g><line x1="65.9" x2="65.9" y1="43.07" y2="41.63" class="st2"/><path d="M65.9,43.41c-0.19,0-0.34-0.15-0.34-0.34v-1.45c0-0.19,0.15-0.34,0.34-0.34c0.19,0,0.34,0.15,0.34,0.34 v1.45C66.23,43.26,66.08,43.41,65.9,43.41z" class="st1"/></g></g><g><g><g><path d="M51.12,37.56l-0.38-1.68l-0.38,1.68h-0.94l-0.85-2.97h1.01l0.38,1.81l0.45-1.81h0.68l0.45,1.81l0.38-1.81 h1.01l-0.85,2.97H51.12z" class="st9"/><path d="M55.55,37.56l-0.38-1.68l-0.38,1.68h-0.94l-0.85-2.97h1.01l0.38,1.81l0.45-1.81h0.68l0.45,1.81l0.38-1.81 h1.01l-0.85,2.97H55.55z" class="st9"/><path d="M59.97,37.56l-0.38-1.68l-0.38,1.68h-0.94l-0.85-2.97h1.01l0.38,1.81l0.45-1.81h0.68l0.45,1.81l0.38-1.81 h1.01l-0.85,2.97H59.97z" class="st9"/></g><g><path d="M51.12,37.56l-0.38-1.68l-0.38,1.68h-0.94l-0.85-2.97h1.01l0.38,1.81l0.45-1.81h0.68l0.45,1.81l0.38-1.81 h1.01l-0.85,2.97H51.12z" class="st1"/><path d="M55.55,37.56l-0.38-1.68l-0.38,1.68h-0.94l-0.85-2.97h1.01l0.38,1.81l0.45-1.81h0.68l0.45,1.81l0.38-1.81 h1.01l-0.85,2.97H55.55z" class="st1"/><path d="M59.97,37.56l-0.38-1.68l-0.38,1.68h-0.94l-0.85-2.97h1.01l0.38,1.81l0.45-1.81h0.68l0.45,1.81l0.38-1.81 h1.01l-0.85,2.97H59.97z" class="st1"/></g></g><g><rect width="2.05" height="2.05" x="48.61" y="39.52" class="st2"/><path d="M50.66,41.9h-2.05c-0.19,0-0.34-0.15-0.34-0.34v-2.05c0-0.19,0.15-0.34,0.34-0.34h2.05 c0.19,0,0.34,0.15,0.34,0.34v2.05C51,41.75,50.85,41.9,50.66,41.9z M48.95,41.23h1.37v-1.37h-1.37V41.23z" class="st1"/></g><g><path d="M58.44,40.92h-6.7c-0.19,0-0.34-0.15-0.34-0.34c0-0.19,0.15-0.34,0.34-0.34h6.7c0.19,0,0.34,0.15,0.34,0.34 C58.78,40.77,58.63,40.92,58.44,40.92z" class="st1"/></g><g><path d="M61.24,40.92h-1.7c-0.19,0-0.34-0.15-0.34-0.34c0-0.19,0.15-0.34,0.34-0.34h1.7c0.19,0,0.34,0.15,0.34,0.34 C61.58,40.77,61.43,40.92,61.24,40.92z" class="st1"/></g><g><rect width="2.05" height="2.05" x="48.61" y="42.9" class="st2"/><path d="M50.66,45.28h-2.05c-0.19,0-0.34-0.15-0.34-0.34V42.9c0-0.19,0.15-0.34,0.34-0.34h2.05 c0.19,0,0.34,0.15,0.34,0.34v2.05C51,45.13,50.85,45.28,50.66,45.28z M48.95,44.61h1.37v-1.37h-1.37V44.61z" class="st1"/></g><g><path d="M58.44,44.3h-6.7c-0.19,0-0.34-0.15-0.34-0.34c0-0.19,0.15-0.34,0.34-0.34h6.7c0.19,0,0.34,0.15,0.34,0.34 C58.78,44.15,58.63,44.3,58.44,44.3z" class="st1"/></g><g><path d="M61.24,44.3h-1.7c-0.19,0-0.34-0.15-0.34-0.34c0-0.19,0.15-0.34,0.34-0.34h1.7c0.19,0,0.34,0.15,0.34,0.34 C61.58,44.15,61.43,44.3,61.24,44.3z" class="st1"/></g></g><g><circle cx="59.81" cy="29.61" r=".39" class="st1"/></g><g><circle cx="62.01" cy="29.61" r=".39" class="st1"/></g><g><circle cx="64.2" cy="29.61" r=".39" class="st1"/></g></g></g><g><g><g><path d="M68.9,66.99H10.64c-1.44,0-2.6-1.16-2.6-2.6V45.7c0-1.44,1.16-2.6,2.6-2.6H68.9c1.44,0,2.6,1.16,2.6,2.6 v18.69C71.5,65.83,70.34,66.99,68.9,66.99z" class="st8"/><path d="M70.04,67.33H9.5c-0.99,0-1.8-0.81-1.8-1.8V44.57c0-0.99,0.81-1.8,1.8-1.8h60.53c0.99,0,1.8,0.81,1.8,1.8 v20.96C71.84,66.52,71.03,67.33,70.04,67.33z M9.5,43.44c-0.62,0-1.13,0.51-1.13,1.13v20.96c0,0.62,0.51,1.13,1.13,1.13h60.53 c0.62,0,1.13-0.51,1.13-1.13V44.57c0-0.62-0.51-1.13-1.13-1.13H9.5z" class="st1"/></g><g><g><path d="M57.69,46.5H9.8c-0.97,0-1.77,0.66-1.77,1.47v17.56c0,0.81,0.79,1.47,1.77,1.47h59.93 c0.97,0,1.77-0.66,1.77-1.47V47.97c0-0.81-0.79-1.47-1.77-1.47h-2.69" class="st8"/><path d="M69.74,67.33H9.8c-1.16,0-2.1-0.81-2.1-1.8V47.97c0-0.99,0.94-1.8,2.1-1.8h47.89 c0.19,0,0.34,0.15,0.34,0.34c0,0.19-0.15,0.34-0.34,0.34H9.8c-0.79,0-1.43,0.51-1.43,1.13v17.56c0,0.62,0.64,1.13,1.43,1.13 h59.93c0.79,0,1.43-0.51,1.43-1.13V47.97c0-0.62-0.64-1.13-1.43-1.13h-2.69c-0.19,0-0.34-0.15-0.34-0.34 c0-0.19,0.15-0.34,0.34-0.34h2.69c1.16,0,2.1,0.81,2.1,1.8v17.56C71.84,66.52,70.9,67.33,69.74,67.33z" class="st1"/></g><g><line x1="64.23" x2="60.51" y1="46.5" y2="46.5" class="st8"/><path d="M64.23,46.84h-3.71c-0.19,0-0.34-0.15-0.34-0.34c0-0.19,0.15-0.34,0.34-0.34h3.71 c0.19,0,0.34,0.15,0.34,0.34C64.57,46.69,64.41,46.84,64.23,46.84z" class="st1"/></g></g><g><path d="M50.86,59.26H28.68c-1.19,0-2.15-0.96-2.15-2.15v-0.72c0-1.19,0.96-2.15,2.15-2.15h22.18 c1.19,0,2.15,0.96,2.15,2.15v0.72C53.01,58.3,52.05,59.26,50.86,59.26z" class="st5"/><path d="M50.5,59.6H29.04c-1.57,0-2.85-1.28-2.85-2.85c0-1.57,1.28-2.85,2.85-2.85H50.5c1.57,0,2.85,1.28,2.85,2.85 C53.35,58.32,52.07,59.6,50.5,59.6z M29.04,54.57c-1.2,0-2.17,0.98-2.17,2.17c0,1.2,0.98,2.17,2.17,2.17H50.5 c1.2,0,2.17-0.98,2.17-2.17c0-1.2-0.98-2.17-2.17-2.17H29.04z" class="st4"/></g></g><g><g><circle cx="39.77" cy="56.75" r="7.14" class="st2"/><path d="M39.77,64.22c-4.12,0-7.47-3.35-7.47-7.47s3.35-7.47,7.47-7.47s7.47,3.35,7.47,7.47S43.89,64.22,39.77,64.22 z M39.77,49.95c-3.75,0-6.8,3.05-6.8,6.8c0,3.75,3.05,6.8,6.8,6.8s6.8-3.05,6.8-6.8C46.57,53,43.52,49.95,39.77,49.95z" class="st4"/></g><g><circle cx="39.77" cy="56.75" r="5.42" class="st5"/></g><g><path d="M38.87,58.38l-0.63-1.05l-0.63,1.05h-1.22l1.15-1.76l-1.07-1.67h1.22l0.55,0.98l0.54-0.98h1.23l-1.07,1.66 l1.15,1.76H38.87z" class="st4"/><path d="M40.06,57.9l0.51-0.71c0.27,0.23,0.67,0.33,0.93,0.33c0.34,0,0.5-0.11,0.5-0.23c0-0.12-0.07-0.19-0.53-0.19 c-0.15,0-0.45,0-0.5,0.01V56.2c0.07,0,0.37,0,0.5,0c0.33,0,0.47-0.06,0.47-0.17c0-0.16-0.21-0.22-0.51-0.22 c-0.29,0-0.6,0.1-0.84,0.3l-0.49-0.65c0.3-0.33,0.77-0.56,1.44-0.56c0.95,0,1.43,0.38,1.43,0.95c0,0.36-0.32,0.69-0.76,0.76 c0.38,0.04,0.81,0.33,0.81,0.8c0,0.61-0.6,1.03-1.49,1.03C40.86,58.44,40.35,58.21,40.06,57.9z" class="st4"/></g></g></g></svg>