<?xml version="1.0" encoding="utf-8"?>
<!-- Generator: Adobe Illustrator 16.0.0, SVG Export Plug-In . SVG Version: 6.00 Build 0)  -->
<!DOCTYPE svg PUBLIC "-//W3C//DTD SVG 1.1//EN" "http://www.w3.org/Graphics/SVG/1.1/DTD/svg11.dtd">
<svg version="1.1" id="Layer_1" xmlns="http://www.w3.org/2000/svg" x="0px" y="0px"
     width="800px" height="800px" viewBox="0 0 800 800" enable-background="new 0 0 800 800" xml:space="preserve">
<g>
	<path fill="#E4F2FC" d="M784.971,321.577c-2.729-98.415-82.099-180.684-175.356-181.438c-40.946-0.324-81.901-0.08-122.861-0.046
		c-37.033,0.027-51.528,11.619-60.971,48.909c-18.285,72.129-36.502,144.271-54.747,216.406
		c-19.5,77.093-38.599,154.302-58.853,231.172c-4.086,15.532-0.672,19.027,13.48,18.15c16.602-1.018,33.304-0.239,49.967-0.239
		c47.899,0,58.888-8.961,71.329-57.891c26.429-103.909,53.151-207.748,79.046-311.803c3.435-13.799,8.646-19.433,22.437-18.384
		c16.568,1.266,33.3,0.035,49.963,0.359c36.316,0.717,64.309,29.141,65.097,65.763c0.78,36.572-26.138,67.14-61.873,69.518
		c-13.146,0.87-26.39-0.196-39.55,0.479c-23.756,1.208-40.872,14.602-47.729,38.578c-7.004,24.513-12.217,49.597-19.053,74.176
		c-2.795,10.034-0.434,13.271,9.118,13.118c20.129-0.317,40.261-0.097,60.393-0.097c0-0.153,0-0.313,0.008-0.475
		c18.031,0,36.143,1.016,54.12-0.164C714.14,521.42,787.972,429.512,784.971,321.577"/>
</g>
    <g>
	<path fill="#2887C8" d="M402.064,187.494c1.584,0.36,2.914,1.127,4.026,2.118c0.185-0.716,0.38-1.439,0.57-2.152
		c6.481-24.244,15-36.034,32.44-40.757c-0.481-1.202-0.792-2.494-0.854-3.853c-0.067-1.557,0.312-3.043,0.971-4.391
		c-21.794,5.013-32.682,18.716-40.236,46.948c-0.169,0.635-0.338,1.259-0.508,1.897C399.684,187.196,400.893,187.23,402.064,187.494
		"/>
</g>
    <g>
	<path fill="#2887C8" d="M525.201,263.736c10.377,0.752,20.897,0.587,31.093,0.434c6.352-0.098,12.72-0.189,19.085-0.077
		c34.142,0.641,60.455,25.757,61.194,58.428c0.054,2.293-0.053,4.547-0.257,6.787c2.781,0.173,5.646,1.473,7.546,3.522
		c0.463-3.434,0.733-6.923,0.651-10.489c-0.835-37.014-30.494-65.478-68.993-66.192c-6.426-0.109-12.895-0.014-19.352,0.077
		c-10.002,0.153-20.36,0.319-30.398-0.411c-17.368-1.273-23.108,7.242-26.563,20.369c-19.034,72.485-38.853,146.076-58.004,217.238
		c-7.021,26.063-14.031,52.124-21.034,78.189c-11.979,44.626-21.436,51.91-67.494,51.91c-5.022,0-10.045-0.07-15.067-0.136
		c-11.512-0.159-23.416-0.317-35.131,0.37c-7.31,0.41-9.604-0.499-10.289-1.348c-0.597-0.738-1.27-3.121,0.882-10.822
		c15.041-54.101,29.681-109.265,43.832-162.619c4.996-18.822,9.991-37.648,15.014-56.463l17.986-67.398
		c9.449-35.41,18.903-70.812,28.371-106.224c-2.639,0.79-5.592,0.59-8.083-0.537c-9.325,34.903-18.658,69.807-27.962,104.71
		l-17.988,67.398c-5.022,18.822-10.018,37.648-15.019,56.478c-14.146,53.326-28.779,108.479-43.813,162.521
		c-1.847,6.646-3.061,13.418,0.597,17.945c2.863,3.556,7.738,4.415,13.004,4.415c1.296,0,2.614-0.05,3.937-0.125
		c11.437-0.667,23.199-0.514,34.554-0.362c5.063,0.07,10.12,0.139,15.176,0.139c49.622,0,62.26-9.721,75.171-57.79
		c6.996-26.069,14.015-52.125,21.031-78.188c19.162-71.168,38.973-144.771,58.019-217.285
		C510.051,266.186,514.091,262.938,525.201,263.736"/>
</g>
    <g>
	<path fill="#2887C8" d="M758.052,312.163c0.544,18.411-1.548,36.326-5.822,53.369c0.678,0.034,1.357,0.126,2.051,0.278
		c2.035,0.465,3.833,1.711,5.185,3.357c4.766-18.238,7.106-37.463,6.528-57.234c-2.816-96.189-83.253-175.041-179.3-175.771
		c-29.877-0.231-60.25-0.167-89.625-0.102l-33.271,0.055c-0.366,0-0.691,0.02-1.052,0.02c1.529,1.843,2.506,4.178,2.613,6.719
		c0.021,0.411-0.046,0.801-0.082,1.205l31.807-0.057c13.682-0.028,27.577-0.055,41.537-0.055c15.999,0,32.084,0.034,48.021,0.16
		C676.902,144.796,755.405,221.753,758.052,312.163"/>
</g>
    <g>
	<path fill="#2887C8" d="M742.544,402.767c-1.146-0.262-2.179-0.791-3.116-1.441c-10.078,21.268-23.837,40.296-40.411,56.005
		c0.584,0.36,1.136,0.763,1.623,1.214c1.689,1.547,2.585,3.442,2.87,5.413c18.196-17.013,33.162-37.849,43.927-61.18
		C745.875,403.109,744.22,403.15,742.544,402.767"/>
</g>
    <g>
	<path fill="#2887C8" d="M671.847,480.936c-0.386-0.591-0.671-1.233-0.901-1.898c-22.418,13.926-47.952,22.627-75.216,24.324
		c-12.156,0.759-24.646,0.541-36.706,0.339c-5.73-0.09-11.449-0.189-17.165-0.189h-3.834l-0.016,0.448l-13.67-0.038
		c-14.063-0.033-28.615-0.08-42.936,0.133c-5.106,0.021-5.858-0.875-5.935-0.983c-0.093-0.118-0.813-1.271,0.682-6.353
		c3.271-11.129,6.2-22.514,9.039-33.522c3.124-12.103,6.348-24.618,10.006-36.739c6.333-20.979,21.583-32.65,44.114-33.736
		c6.116-0.292,12.389-0.228,18.465-0.16c6.928,0.071,14.074,0.153,21.147-0.298c22.044-1.382,41.01-12.543,52.806-28.935
		c-2.75,0.014-5.526-1.021-7.643-2.945c-10.521,13.609-26.852,22.769-45.658,23.952c-6.789,0.428-13.813,0.347-20.565,0.275
		c-6.195-0.056-12.597-0.126-18.93,0.179c-25.825,1.246-44.058,15.23-51.332,39.374c-3.708,12.273-6.957,24.875-10.102,37.052
		c-2.821,10.947-5.741,22.269-8.972,33.258c-1.241,4.232-2.293,9.577,0.616,13.407c2.87,3.768,8.134,4.171,12.381,4.118
		c14.249-0.211,28.743-0.164,42.788-0.132c5.85,0.021,11.692,0.042,17.536,0.042l3.733-0.436c4.433,0.028,8.864,0.103,13.312,0.175
		c12.224,0.206,24.874,0.418,37.329-0.355c29.118-1.815,56.348-11.231,80.138-26.301
		C674.609,484.149,673.041,482.796,671.847,480.936"/>
</g>
    <g>
	<path fill="#E4F0CC" d="M352.493,260.199c-52.127,1.066-104.836-5.952-156.292,2.685c-86.721,9.834-154.464,93.708-154.464,195.718
		c0,108.623,76.812,196.688,171.569,196.688l-0.014-0.019c11.606,0.895,24.04,1.068,37.412,0.569
		c8.064-0.307,14.293-0.194,16.779-11.38c6.277-28.328,14.47-56.158,20.761-84.485c4.168-18.729-4.507-30.54-22.309-31.874
		c-12.448-0.924-25.004-0.005-37.466-0.799c-39.006-2.468-65.965-31.071-65.538-69.023c0.434-38.99,28.853-68.226,67.974-69.298
		c20.132-0.542,40.282,0.305,60.415-0.271c25.54-0.729,42.311-13.846,49.505-39.713c6.958-25.034,12.34-50.572,18.788-75.78
		C361.566,265.575,362.436,260,352.493,260.199"/>
</g>
    <g>
	<path fill="#0B9D49" d="M75.734,309.048c1.35,0.719,2.477,1.86,3.346,3.197c9.257-8.987,19.412-16.968,30.448-23.589
		c-2.288-1.405-4.101-3.628-4.807-6.194c-0.02-0.068-0.02-0.139-0.04-0.21c-11.816,7.174-22.683,15.835-32.524,25.615
		C73.352,308.053,74.546,308.42,75.734,309.048"/>
</g>
    <g>
	<path fill="#0B9D49" d="M251.878,586.206c-0.51-0.269-0.95-0.604-1.378-0.938c-2.81,10.185-5.607,20.508-8.077,30.841
		c-1.704,7.143-4.819,7.249-12.34,7.499l-0.705,0.021c-13.284,0.464-25.725,0.285-36.984-0.514l-5.925-0.41l0.102,0.317
		c-89.85-3.135-162.046-82.06-162.046-178.641c0-38.724,11.47-74.609,31.092-103.947c-0.868-0.451-1.709-0.995-2.498-1.706
		c-1.364-1.253-2.232-2.97-2.681-4.819c-21.326,30.99-33.861,69.183-33.861,110.472c0,102.94,78.746,186.682,175.533,186.682h0.075
		c7.248,0.51,14.958,0.76,23.056,0.76c4.677,0,9.489-0.084,14.417-0.25l0.692-0.028c7.825-0.257,16.689-0.557,19.806-13.586
		c2.436-10.189,5.206-20.414,7.982-30.501C255.97,587.611,253.75,587.204,251.878,586.206"/>
</g>
    <g>
	<path fill="#0B9D49" d="M341.849,259.819c-2.022-2.589-5.417-3.767-10.622-3.708c-17.626,0.339-35.694-0.208-53.157-0.73
		c-34.101-1.027-69.36-2.07-103.466,3.245c-12.237,1.286-24.054,3.923-35.369,7.673c1.357,1.313,2.409,2.922,2.878,4.646
		c0.257,0.917,0.332,1.805,0.339,2.68c10.615-3.475,21.699-5.914,33.183-7.123c33.577-5.244,68.457-4.185,102.19-3.183
		c17.565,0.526,35.687,1.068,53.565,0.737c3.393-0.028,4.181,0.637,4.181,0.637c0.258,0.397,0.292,1.83-0.97,6.421
		c-2.614,9.489-5.058,19.018-7.494,28.555c-3.516,13.753-7.154,27.98-11.274,41.762c-6.672,22.275-21.658,33.417-45.8,34.059
		c-10.093,0.261-20.403,0.193-30.38,0.128c-9.834-0.061-20.009-0.122-30.033,0.126c-41.172,1.041-71.389,29.761-71.851,68.293
		c-0.455,37.689,28.039,65.708,69.271,68.134c6.101,0.359,12.285,0.346,18.244,0.332c6.292-0.019,12.862-0.026,19.194,0.408
		c7.738,0.543,13.5,3.094,16.663,7.396c3.061,4.167,3.767,10.154,2.056,17.318c-1.846,7.713-3.889,15.443-5.973,23.13
		c0.55-0.104,1.106-0.199,1.689-0.228c2.179-0.098,4.297,0.686,6.069,1.985c2.063-7.646,4.099-15.34,5.938-23.039
		c2.281-9.502,1.113-17.76-3.38-23.867c-4.582-6.24-12.373-9.917-22.527-10.627c-6.611-0.46-13.317-0.46-19.751-0.424
		c-5.837,0.006-11.898,0.021-17.755-0.317c-36.78-2.168-62.192-26.886-61.792-60.105c0.408-34.099,27.367-59.523,64.1-60.447
		c9.902-0.258,20.002-0.193,29.783-0.126c10.044,0.079,20.416,0.14,30.637-0.139c27.638-0.729,45.537-14.094,53.206-39.719
		c4.174-13.935,7.825-28.239,11.369-42.067c2.416-9.489,4.846-18.972,7.438-28.402C343.363,269.227,344.876,263.729,341.849,259.819
		"/>
</g>
</svg>
