<svg xmlns="http://www.w3.org/2000/svg" id="Layer_1" width="800" height="800" x="0" y="0" enable-background="new 0 0 800 800" version="1.0" viewBox="0 0 800 800" xml:space="preserve"><g><path fill="#2887C8" d="M116.27,675.417c0,15.22-4.131,26.854-12.392,34.905s-20.148,12.076-35.662,12.076H42.676V630.2h28.252 c14.336,0,25.478,3.974,33.423,11.919C112.297,650.065,116.27,661.164,116.27,675.417z M104.918,675.795 c0-12.023-3.017-21.084-9.049-27.18c-6.033-6.096-14.999-9.145-26.896-9.145H53.396v73.657H66.45c12.78,0,22.388-3.142,28.82-9.428 C101.703,697.416,104.918,688.114,104.918,675.795z"/><path fill="#2887C8" d="M129.332,634.552c0-2.396,0.588-4.151,1.766-5.266c1.177-1.113,2.648-1.671,4.415-1.671 c1.681,0,3.131,0.567,4.351,1.702c1.219,1.136,1.829,2.881,1.829,5.234c0,2.355-0.61,4.11-1.829,5.266 c-1.22,1.157-2.67,1.734-4.351,1.734c-1.766,0-3.238-0.577-4.415-1.734C129.92,638.662,129.332,636.907,129.332,634.552z M140.683,722.398h-10.468v-69.117h10.468V722.398z"/><path fill="#2887C8" d="M189.376,652.021c3.068,0,5.823,0.252,8.261,0.757l-1.45,9.711c-2.859-0.63-5.382-0.945-7.568-0.945 c-5.592,0-10.374,2.271-14.347,6.811c-3.973,4.541-5.959,10.195-5.959,16.964v37.081h-10.468v-69.117h8.64l1.198,12.802h0.504 c2.564-4.498,5.654-7.967,9.27-10.405C181.072,653.24,185.045,652.021,189.376,652.021z"/><path fill="#2887C8" d="M234.597,723.66c-10.216,0-18.279-3.111-24.185-9.334c-5.907-6.222-8.86-14.861-8.86-25.919 c0-11.14,2.743-19.99,8.229-26.549s12.854-9.838,22.104-9.838c8.66,0,15.514,2.849,20.559,8.545 c5.045,5.697,7.567,13.212,7.567,22.545v6.621h-47.612c0.21,8.115,2.259,14.274,6.148,18.478c3.888,4.205,9.365,6.307,16.428,6.307 c7.441,0,14.798-1.555,22.072-4.667v9.334c-3.7,1.598-7.2,2.743-10.5,3.437C243.247,723.313,239.264,723.66,234.597,723.66z M231.759,660.786c-5.55,0-9.975,1.808-13.275,5.423c-3.301,3.616-5.245,8.619-5.833,15.01h36.135 c0-6.601-1.472-11.656-4.415-15.167C241.429,662.542,237.224,660.786,231.759,660.786z"/><path fill="#2887C8" d="M300.314,723.66c-10.006,0-17.752-3.08-23.239-9.239c-5.486-6.158-8.229-14.872-8.229-26.14 c0-11.561,2.784-20.495,8.355-26.802c5.57-6.306,13.505-9.459,23.806-9.459c3.321,0,6.643,0.357,9.964,1.072 c3.32,0.715,5.928,1.556,7.82,2.522l-3.216,8.892c-2.313-0.925-4.835-1.692-7.568-2.302c-2.733-0.609-5.15-0.915-7.252-0.915 c-14.042,0-21.063,8.955-21.063,26.865c0,8.493,1.712,15.009,5.14,19.55c3.426,4.54,8.502,6.811,15.229,6.811 c5.759,0,11.667-1.239,17.721-3.721v9.271C313.157,722.462,307.334,723.66,300.314,723.66z"/><path fill="#2887C8" d="M351.336,715.021c1.85,0,3.636-0.137,5.36-0.41c1.723-0.273,3.09-0.557,4.099-0.852v8.009 c-1.135,0.547-2.806,0.998-5.014,1.356c-2.207,0.356-4.193,0.536-5.959,0.536c-13.369,0-20.054-7.042-20.054-21.127v-41.116h-9.901 v-5.045l9.901-4.352l4.414-14.757h6.054v16.018h20.054v8.136h-20.054v40.675c0,4.162,0.987,7.358,2.964,9.586 C345.177,713.906,347.889,715.021,351.336,715.021z"/></g><g><path fill="#2887C8" d="M426.096,722.398l-6.685-21.946h-33.613l-6.685,21.946h-21.063l32.541-92.576h23.901l32.666,92.576H426.096 z M414.744,684.057c-6.18-19.886-9.659-31.132-10.437-33.739c-0.778-2.606-1.335-4.666-1.671-6.18 c-1.388,5.382-5.361,18.688-11.919,39.919H414.744z"/><path fill="#2887C8" d="M479.573,723.66c-8.283,0-14.788-3.217-19.519-9.649c-4.729-6.432-7.094-15.345-7.094-26.738 c0-11.562,2.406-20.568,7.221-27.022c4.813-6.453,11.445-9.68,19.896-9.68c8.869,0,15.639,3.447,20.306,10.342h0.63 c-0.967-5.255-1.449-9.942-1.449-14.063v-22.576h19.297v98.126h-14.757l-3.721-9.145h-0.819 C495.191,720.191,488.527,723.66,479.573,723.66z M486.32,708.335c4.92,0,8.523-1.429,10.816-4.288 c2.29-2.858,3.541-7.714,3.752-14.567v-2.081c0-7.567-1.167-12.991-3.5-16.271c-2.334-3.279-6.129-4.919-11.383-4.919 c-4.289,0-7.621,1.819-9.996,5.455c-2.375,3.638-3.563,8.924-3.563,15.86c0,6.938,1.197,12.14,3.594,15.608 S481.863,708.335,486.32,708.335z"/><path fill="#2887C8" d="M602.104,722.398h-19.234v-41.18c0-5.087-0.85-8.902-2.553-11.446c-1.703-2.543-4.383-3.815-8.041-3.815 c-4.919,0-8.492,1.809-10.721,5.424c-2.229,3.616-3.342,9.564-3.342,17.847v33.171h-19.234v-70.504h14.693l2.586,9.018h1.072 c1.891-3.237,4.623-5.771,8.197-7.599c3.573-1.829,7.672-2.743,12.297-2.743c10.553,0,17.699,3.447,21.441,10.342h1.703 c1.893-3.279,4.678-5.822,8.355-7.631c3.68-1.807,7.83-2.711,12.455-2.711c7.988,0,14.031,2.049,18.131,6.148 c4.1,4.099,6.148,10.668,6.148,19.707v45.973h-19.297v-41.18c0-5.087-0.852-8.902-2.555-11.446 c-1.701-2.543-4.383-3.815-8.039-3.815c-4.709,0-8.23,1.683-10.564,5.045c-2.332,3.364-3.5,8.703-3.5,16.019V722.398z"/><path fill="#2887C8" d="M664.978,633.669c0-6.264,3.489-9.396,10.468-9.396s10.469,3.133,10.469,9.396 c0,2.985-0.873,5.309-2.617,6.969c-1.745,1.661-4.362,2.49-7.852,2.49C668.467,643.128,664.978,639.976,664.978,633.669z M685.031,722.398h-19.234v-70.504h19.234V722.398z"/><path fill="#2887C8" d="M770.293,722.398h-19.234v-41.18c0-5.087-0.904-8.902-2.712-11.446c-1.808-2.543-4.688-3.815-8.639-3.815 c-5.383,0-9.271,1.798-11.667,5.392c-2.396,3.595-3.595,9.555-3.595,17.879v33.171h-19.234v-70.504h14.694l2.585,9.018h1.072 c2.145-3.405,5.098-5.98,8.86-7.726c3.762-1.744,8.04-2.616,12.833-2.616c8.198,0,14.42,2.218,18.667,6.652 c4.246,4.437,6.369,10.837,6.369,19.203V722.398z"/></g><g><path fill="#B1D465" d="M611.845,92.241c-1.027,22.457-23.185,43.404-48.951,42.926c-19.264-2.708-33.714-13.911-33.772-38.172 c-0.065-22.996,21.436-43.167,44.912-42.988C595.105,54.196,612.742,72.009,611.845,92.241"/></g><g><path fill="#B1D465" d="M541.881,458.891c0.299,42.025-26.729,74.296-62.069,73.88c-34.56-0.364-63.942-33.721-64.723-73.398 c-0.78-39.606,28.72-74.166,63.278-74.107C513.525,385.265,541.582,417.775,541.881,458.891"/></g><g><path fill="#B1D465" d="M427.433,161.178c-1.983-22.817,19.387-45.339,41.843-45.218c22.756,0.124,34.801,12.347,35.757,34.923 c0.969,24.018-18.418,45.03-47.859,45.518C440.439,196.092,429.24,182.549,427.433,161.178"/></g><g><path fill="#B1D465" d="M768.56,312.052c0.78,38.292-29.143,70.02-66.531,70.566c-40.393,0.533-74.712-33.112-75.192-73.756 c-0.488-38.049,29.74-70.26,66.589-70.924C732.979,237.158,767.772,271.474,768.56,312.052"/></g><g><path fill="#B1D465" d="M416.052,389.291c-27.998-0.54-46.116-22.997-44.848-55.628c1.262-32.267,22.931-55.084,51.534-54.421 c27.633,0.599,47.137,24.319,45.752,55.565C467.045,365.276,443.451,389.772,416.052,389.291"/></g><g><path fill="#B1D465" d="M577.649,260.876c0.176,32.632-22.163,57.618-52.021,58.158c-29.084,0.546-51.541-23.474-51.059-54.668 c0.429-31.181,24.804-56.648,54.069-56.528C556.936,207.958,577.468,230.115,577.649,260.876"/></g><g><path fill="#B1D465" d="M403.051,215.905c-0.306,28.476-18.424,50.932-38.956,50.031c-22.755-0.966-33.415-15.475-33.772-37.447 c-0.364-23.12,18.665-45.037,39.249-44.858C393.602,183.811,402.141,199.048,403.051,215.905"/></g><g><path fill="#0B9D49" d="M361.806,400.073c-0.475,31.972-22.639,58.883-48.471,58.883c-23.958,0-42.975-23.003-43.164-52.204 c-0.182-32.627,23.718-61.168,50.454-60.202C344.832,347.457,362.229,370.03,361.806,400.073"/></g><g><path fill="#0B9D49" d="M250.005,428.728c18.06,23.126,7.824,74.712-17.104,90.308c-19.504,12.227-41.232,5.488-52.912-16.311 c-16.375-30.827-3.915-68.215,28.713-85.911l0.059-0.183C226.703,406.453,239.651,415.422,250.005,428.728"/></g><g><path fill="#0B9D49" d="M205.391,197.116c0.299-18.477,9.456-33.408,29.506-34.673c14.45-0.907,20.831,11.134,20.043,24.199 c-1.021,16.983-8.968,30.043-25.468,33.359C212.135,219.813,205.215,210.006,205.391,197.116"/></g><g><path fill="#0B9D49" d="M150.307,478.037c18.782,27.152,16.675,62.251-5.184,83.388c-8.064,7.823-17.514,13.97-29.194,12.584 c-18.067-2.165-28.602-14.21-31.971-30.95c-5.424-26.911-1.385-52.431,22.216-69.775c14.691-10.835,31.126-12.884,44.074,4.637 v0.059L150.307,478.037z"/></g><g><path fill="#0B9D49" d="M86.306,309.282c-3.069,16.438-8.123,31.428-26.437,32.453c-15.888,0.839-19.744-12.045-17.995-24.925 c2.231-16.555,8.312-32.332,28.96-31.308C85.467,286.221,85.584,299.049,86.306,309.282"/></g><g><path fill="#0B9D49" d="M144.343,362.142c-0.78-23.298,17.163-47.742,36.361-47.858c21.917-0.183,28.902,14.262,29.565,33.47 c0.846,25.286-15.413,47.026-35.463,47.924C157.59,396.405,145.071,382.618,144.343,362.142"/></g><g><path fill="#0B9D49" d="M305.453,286.402c0.546,23.302-19.387,45.999-38.891,46.119c-17.104,0.063-31.366-17.101-31.067-37.446 c0.299-23.663,19.087-46.058,39.131-45.277C297.63,250.702,304.972,266.72,305.453,286.402"/></g></svg>