<svg xmlns="http://www.w3.org/2000/svg" id="Layer_1" width="800" height="800" x="0" y="0" enable-background="new 0 0 800 800" version="1.0" viewBox="0 0 800 800" xml:space="preserve"><path fill="#2887C8" d="M448.297,552.372c-1.594-2.729-5.063-3.639-7.787-2.046l-0.057,0.056l3.354,3.866l2.098,6.082l0.289-0.17	C448.918,558.57,449.83,555.101,448.297,552.372 M414.585,502.123c-1.421-2.559-4.603-3.583-7.161-2.331l3.242,4.776l2.953,4.433	C415.495,507.294,415.951,504.396,414.585,502.123 M407.252,512.923l5.29-3.069c0.394-0.228,0.738-0.511,1.077-0.853	L407.252,512.923z M374.511,455.568c-1.593-2.73-5.057-3.697-7.788-2.104l7.105,8.582	C375.421,460.287,375.705,457.673,374.511,455.568"/><path fill="#2887C8" d="M775.486,387.298L653.273,175.613c-3.125-5.401-10.064-7.277-15.521-4.149l-84.639,48.886	c-2.613,1.477-4.49,3.978-5.283,6.878c-0.801,2.953-0.4,6.023,1.131,8.638l116.363,201.568l5.852,10.119	c0.115,0.172,0.172,0.342,0.289,0.455c-31.609,53.375-143.648,121.476-148.705,124.487c-0.115,0.059-0.172,0.114-0.172,0.114	s-0.055,0-0.055,0.055l-159.962,92.371c-7.161,4.095-15.743,3.812-22.737-0.169c-3.809-2.104-7.217-5.287-9.604-9.435	c-1.477-2.559-2.504-5.346-2.959-8.074c-1.871-9.661,2.048-19.554,10.52-24.61c0.056-0.059,0.167-0.116,0.228-0.172l107.886-62.245	l-2.104-6.082l-3.354-3.866l-107.941,62.301c-0.061,0-0.117,0-0.172,0.059c-0.172,0.113-0.399,0.228-0.572,0.341l-46.152,26.66	c-5.346,3.069-11.658,3.808-17.681,2.045c-4.663-1.362-8.699-4.035-11.879-7.672c-1.027-1.251-1.938-2.559-2.787-3.979	c-4.436-7.675-4.436-16.599-0.794-23.648v-0.056c1.76-3.524,4.485-6.539,7.955-8.754l0.172-0.113L404.07,514.8l0.795-0.456	l2.387-1.421l6.367-3.922l-2.953-4.433l-3.242-4.776c-0.228,0-0.399,0.114-0.572,0.228l-5.168,3.012	c-0.116,0-0.172,0.059-0.288,0.116l-147.111,84.979l-13.018,7.503c-8.693,5.004-19.551,3.411-27.056-3.239	c-2.048-1.704-3.808-3.866-5.285-6.367c-3.353-5.74-4.319-12.335-2.787-18.529c0.283-1.252,0.683-2.388,1.193-3.525	c1.876-4.547,5.174-8.299,9.381-10.8l19.212-11.086c0.167-0.113,0.339-0.169,0.511-0.283l135.97-78.501	c0.566-0.342,1.077-0.738,1.421-1.252l-7.105-8.582l-135.97,78.502c-0.056,0.055-0.117,0.055-0.172,0.113	c-8.637,4.888-19.212,3.353-26.656-3.125c-2.16-1.766-4.036-4.039-5.518-6.595c-3.297-5.743-4.263-12.335-2.781-18.532	c1.532-6.137,5.285-11.197,10.625-14.325l72.82-42.006c2.726-1.593,3.636-5.06,2.043-7.788c-1.532-2.729-5.057-3.639-7.727-2.049	l-72.82,42.009c-8.071,4.66-13.694,12.279-15.97,21.431c-2.215,9.095-0.794,18.646,3.98,26.945c1.76,3.069,3.919,5.798,6.306,8.126	c4.097,3.925,8.982,6.768,14.155,8.472c-6.14,4.091-10.686,10.117-13.073,17.223c-0.339,0.968-0.627,1.934-0.855,2.9	c-2.215,9.093-0.849,18.643,3.925,26.942c3.863,6.652,9.492,11.654,15.859,14.666c4.774,2.387,10.003,3.583,15.293,3.583	c3.125,0,6.306-0.455,9.376-1.311c-0.455,1.821-0.794,3.64-0.966,5.516c-0.683,7.219,0.854,14.78,4.774,21.658	c2.448,4.263,5.684,7.957,9.492,10.857c3.525,2.726,7.561,4.774,11.879,6.023c3.187,0.966,6.484,1.421,9.72,1.421	c5.856,0,11.596-1.532,16.831-4.547l24.897-14.383c-1.193,5.629-1.083,11.541,0.566,17.339c0.793,2.9,1.987,5.799,3.58,8.585	c3.753,6.423,9.093,11.311,15.232,14.38c4.946,2.557,10.403,3.867,15.921,3.867c5.74,0,11.479-1.422,16.764-4.491l160.128-92.429	c0-0.059,0.063-0.059,0.063-0.059h0.055c5.857-3.467,118.805-71.68,152.684-128.807c0.111-0.113,0.229-0.285,0.283-0.396	c1.816,0,3.58-0.514,5.23-1.479l84.637-48.827C776.736,399.691,778.611,392.755,775.486,387.298 M688.744,437.434l-7.732,4.436	l-3.635-6.254L558.799,230.181l84.637-48.883L765.65,392.982L688.744,437.434z"/><polygon fill="#E4F0CC" points="765.65 392.985 688.744 437.436 681.012 441.869 677.377 435.618 558.799 230.184 643.436 181.298"/><path fill="#2887C8" d="M203.469,240.073c-0.344,0.228-0.627,0.511-0.738,0.908l-19.157,71.737l-3.47-5.97	c-0.338-0.68-0.455-1.421-0.283-2.159l17.447-65.029l0.116-0.397c0.056-0.342,0.117-0.738,0-1.08c0-0.396-0.116-0.796-0.338-1.138	c-0.117-0.228-0.228-0.341-0.289-0.341c-0.056-0.169-0.228-0.283-0.339-0.397l-0.056-0.059l-1.538-0.738	c-0.283-0.113-0.511-0.283-0.738-0.511c0.172,0.853,0.627,1.705,1.366,2.332c0.056,0.055,0.111,0.111,0.111,0.111	c0,0.058,0.061,0.058,0.117,0.117v0.055c0.056,0.056,0.111,0.056,0.111,0.114c0.228,0.342,0.344,0.738,0.228,1.135l-0.111,0.4	l-17.453,65.087l-0.966,3.522c0,0.172,0.116,0.286,0.172,0.396l5.113,8.927c0.228,0.283,0.516,0.569,0.91,0.624l0.344-1.362	l20.123-74.979l0.055-0.397c0.111-0.341,0.167-0.68,0.167-1.024C204.091,239.901,203.752,239.957,203.469,240.073 M203.242,233.423	c-0.511-0.854-1.027-1.479-1.709-2.162l-0.056-0.055c-0.228-0.228-0.394-0.4-0.622-0.569c-0.172-0.114-0.289-0.228-0.456-0.342	c-0.055-0.058-0.116-0.058-0.172-0.058c0-0.056-0.056-0.111-0.172-0.111c-1.133-0.514-2.387-0.514-3.464-0.059	c0.056,0,0.111,0.059,0.228,0.059c1.193,0.338,2.215,0.852,3.181,1.59c0.228,0.169,0.399,0.397,0.511,0.625	c0.055,0.058,0.055,0.058,0.117,0.058c0.455,0.283,1.077,0.511,1.76,0.796c0.283,0.111,0.566,0.228,0.91,0.339	C203.297,233.479,203.242,233.479,203.242,233.423 M196.53,228.588c-0.055,0-0.111,0-0.111,0.059c0.228,0,0.511,0.058,0.738,0.114	L196.53,228.588z M192.784,235.583c0.111,0.338,0.222,0.625,0.394,0.908l1.027,0.228	C193.633,236.435,193.178,236.038,192.784,235.583"/><path fill="#E4F0CC" d="M195.909,239.163l-17.453,65.087l-0.966,3.525L132.698,474.84c-0.228,0.797-0.966,1.193-1.704,1.021	l-94.419-25.238c-0.455-0.17-0.738-0.512-0.855-0.738c-0.111-0.172-0.283-0.569-0.167-1.08l63.322-236.071	c0.172-0.796,0.91-1.196,1.704-0.969l90.783,24.272c0.566,0.796,1.305,1.479,2.215,1.932l1.021,0.513l1.083,0.569	C195.737,239.107,195.853,239.107,195.909,239.163"/><path fill="#2887C8" d="M197.385,238.086c-0.399,0-0.738-0.114-1.083-0.286l-0.622-0.283v-0.058l-1.083-0.566l0.966,0.455	c0,0-0.055-0.058-0.111-0.116c-0.738-0.625-1.193-1.477-1.366-2.329c0.228,0.228,0.455,0.397,0.738,0.511l1.538,0.738l0.056,0.059	c0.117,0.114,0.283,0.228,0.339,0.396c0.061,0,0.172,0.114,0.289,0.342C197.274,237.29,197.385,237.687,197.385,238.086"/><path fill="#2887C8" d="M202.387,233.195c-0.683-0.286-1.311-0.513-1.76-0.796c-0.062,0-0.062,0-0.117-0.058	c-0.111-0.228-0.283-0.456-0.511-0.625c-0.966-0.738-1.987-1.251-3.187-1.59c-0.111,0-0.167-0.059-0.222-0.059	c1.077-0.452,2.326-0.452,3.464,0.059c0.116,0,0.228,0.113,0.344,0.169c0.167,0.114,0.283,0.228,0.456,0.342	c0.222,0.172,0.394,0.341,0.622,0.569l0.056,0.055c0.116,0.172,0.228,0.342,0.344,0.569	C202.159,232.229,202.276,232.682,202.387,233.195"/><path fill="#2887C8" d="M203.525,232.116c-0.056-0.341-0.228-0.683-0.399-1.024c-0.228-0.397-0.511-0.738-0.794-1.021	c-0.172-0.228-0.344-0.4-0.566-0.569c-0.233-0.172-0.399-0.286-0.627-0.396c-0.172-0.117-0.344-0.228-0.511-0.286	c-0.911-0.683-1.938-1.135-3.07-1.421c-1.366-0.342-2.787-0.169-3.925,0.396l2.897,0.797c-0.055,0-0.111,0-0.111,0.059	c0.228,0,0.511,0.055,0.738,0.111c0.344,0.117,0.627,0.172,0.91,0.344l1.988,1.021c-1.133-0.511-2.387-0.511-3.464-0.056	c0.056,0,0.111,0.056,0.228,0.056c1.193,0.341,2.215,0.852,3.181,1.593c0.228,0.169,0.399,0.397,0.511,0.625	c0.055,0.056,0.055,0.056,0.117,0.056c0.455,0.286,1.077,0.513,1.76,0.796c0.283,0.114,0.566,0.228,0.91,0.342	c0.228,0.396,0.399,0.796,0.566,1.193c0.061-0.286,0.061-0.514,0.061-0.797v-0.169C203.925,233.195,203.808,232.626,203.525,232.116 M197.047,236.948c-0.117-0.228-0.228-0.342-0.289-0.342c-0.056-0.172-0.228-0.286-0.339-0.396l-0.056-0.059l-1.538-0.738	c-0.283-0.114-0.511-0.286-0.738-0.514c0.172,0.855,0.627,1.707,1.366,2.332c0.056,0.055,0.111,0.113,0.111,0.113l-0.966-0.455	l-0.394-0.169c-0.572-0.286-1.027-0.683-1.421-1.138c0.111,0.341,0.222,0.627,0.394,0.911l-1.815-0.456	c0.566,0.796,1.305,1.477,2.215,1.932l1.021,0.511l1.083,0.571c0.056,0.056,0.167,0.056,0.228,0.111	c0.455,0.172,0.911,0.286,1.36,0.399l0.116-0.399c0.056-0.339,0.117-0.738,0-1.08C197.385,237.687,197.269,237.287,197.047,236.948"/><path fill="#2887C8" d="M203.469,240.073c-0.344,0.228-0.627,0.511-0.738,0.911l-19.157,71.734l-3.47-5.967	c-0.338-0.683-0.455-1.421-0.283-2.162l17.453-65.026l0.111-0.399c0.056-0.342,0.117-0.738,0-1.08c0-0.396-0.111-0.796-0.338-1.135	c-0.117-0.228-0.228-0.344-0.289-0.344c-0.056-0.169-0.222-0.283-0.339-0.397l-0.056-0.056l-1.538-0.741	c-0.283-0.111-0.511-0.283-0.738-0.511c0.172,0.853,0.627,1.705,1.366,2.332c0.056,0.055,0.117,0.113,0.117,0.113	c0,0.056,0.055,0.056,0.111,0.114v0.055c0.056,0.059,0.111,0.059,0.111,0.114c0.228,0.342,0.344,0.741,0.228,1.138l-0.111,0.397	l-17.453,65.087c-0.283,1.08-0.111,2.215,0.455,3.239l5.118,8.868l20.123-74.977l0.055-0.397c0.111-0.344,0.172-0.683,0.172-1.024	C204.097,239.901,203.752,239.959,203.469,240.073 M203.525,232.113c-0.738-0.283-1.421-0.566-1.987-0.85l-0.061-0.058	c-0.622-0.286-1.021-0.625-1.249-0.966c0-0.058-0.056-0.113-0.172-0.113c-1.133-0.511-2.387-0.511-3.464-0.059	c0.056,0,0.111,0.059,0.228,0.059c1.193,0.341,2.215,0.852,3.181,1.59c0.228,0.172,0.399,0.397,0.511,0.625	c0.061,0.058,0.061,0.058,0.117,0.058c0.455,0.286,1.077,0.511,1.76,0.796c0.289,0.114,0.571,0.228,0.91,0.339	c0.228,0.399,0.399,0.796,0.566,1.196c0.061-0.286,0.061-0.514,0.061-0.797v-0.172C203.925,233.195,203.808,232.626,203.525,232.113"/><path fill="#2887C8" d="M203.469,240.073c-0.344,0.228-0.627,0.511-0.738,0.911l-19.157,71.734l-3.47-5.967	c-0.338-0.683-0.455-1.421-0.283-2.162l17.453-65.026l0.111-0.399c0.056-0.342,0.117-0.738,0-1.08c0-0.396-0.111-0.796-0.338-1.135	c-0.117-0.228-0.228-0.344-0.289-0.344c-0.056-0.169-0.222-0.283-0.339-0.397l-0.056-0.056l-1.538-0.741	c-0.283-0.111-0.511-0.283-0.738-0.511c0.172,0.853,0.627,1.705,1.366,2.332c0.056,0.055,0.117,0.113,0.117,0.113l-0.972-0.455	l-0.394-0.169c-0.572-0.286-1.027-0.683-1.421-1.138c0.111,0.341,0.228,0.625,0.394,0.911c0.289,0.68,0.738,1.304,1.365,1.818	c0,0,0,0.058,0.056,0.114v0.056l1.083,0.569c0.056,0.058,0.172,0.058,0.228,0.114l-17.453,65.087l-0.966,3.525	c0,0.169,0.116,0.283,0.172,0.396l5.118,8.924c0.222,0.283,0.511,0.569,0.905,0.627l0.344-1.365l20.123-74.977l0.055-0.397	c0.111-0.344,0.172-0.683,0.172-1.024C204.097,239.901,203.752,239.959,203.469,240.073 M203.525,232.113	c-0.056-0.339-0.228-0.68-0.399-1.021c-0.228-0.4-0.511-0.738-0.794-1.024c-0.4-0.225-0.738-0.397-0.855-0.569	c-0.111-0.169-0.222-0.283-0.338-0.397c-0.172-0.114-0.339-0.228-0.511-0.283c-0.738-0.341-1.538-0.514-2.332-0.514	c-0.627,0-1.194,0.117-1.76,0.286c-0.061,0-0.117,0-0.117,0.056c0.228,0,0.511,0.058,0.738,0.114	c0.344,0.114,0.627,0.172,0.91,0.341l1.988,1.024c-1.133-0.511-2.387-0.511-3.464-0.059c0.056,0,0.111,0.059,0.228,0.059	c1.193,0.341,2.215,0.852,3.181,1.59c0.228,0.172,0.399,0.397,0.511,0.625c0.061,0.058,0.061,0.058,0.117,0.058	c0.455,0.286,1.077,0.511,1.76,0.796c0.289,0.114,0.571,0.228,0.91,0.339c0.172,0.116,0.399,0.172,0.627,0.228	C203.925,233.195,203.808,232.626,203.525,232.113"/><path fill="#2887C8" d="M525.775,281.168c-0.229,0.741-19.674,69.633-84.072,52.411l-61.225-16.429	c-0.055,0.286-0.172,0.627-0.283,0.911c-0.4,1.365-0.794,2.729-1.249,4.094c-8.471,25.58-26.263,47.576-49.511,61.049	c-17.053,9.834-36.044,14.838-55.028,14.838c-13.073,0-26.202-2.331-38.764-7.105c-3.47-1.31-6.823-2.731-10.064-4.38	c-0.738-0.338-1.532-0.738-2.276-1.135c-0.966-0.455-1.76-1.252-2.326-2.16c-1.538-2.728-0.627-6.198,2.104-7.788	c2.615-1.535,5.795-0.796,7.444,1.535c1.76,0.853,3.525,1.704,5.285,2.442c28.255,12.166,59.914,10.064,87.941-6.081	c20.179-11.71,35.583-30.24,43.427-52.011c1.532-4.036,2.731-8.185,3.697-12.393c0.222-1.421,1.193-2.729,2.498-3.581	c1.421-0.852,3.014-1.08,4.491-0.683l7.899,2.104l58.893,15.801c22.453,6.028,40.984,0.513,55.139-16.312	c6.822-8.244,11.025-17.226,13.129-22.682l-7.389-1.99l-211.571-56.671c-8.016,7.333-42.977,35.641-88.902,18.302l-19.673,73.5	c-0.111,0.569-0.622,0.966-1.193,1.024c-0.167,0-0.338,0-0.511-0.059l0.344-1.362l20.123-74.979l0.055-0.397	c0.111-0.341,0.172-0.68,0.172-1.024c-0.289-0.056-0.627,0-0.911,0.116c-0.344,0.228-0.627,0.511-0.738,0.908l-19.157,71.737	l-3.47-5.97c-0.338-0.68-0.455-1.421-0.283-2.159l17.453-65.029l0.111-0.397c0.056-0.342,0.117-0.738,0-1.08	c0-0.396-0.111-0.796-0.338-1.138c-0.117-0.228-0.228-0.341-0.289-0.341c-0.056-0.169-0.222-0.283-0.339-0.397l-0.056-0.059	l-1.538-0.738c-0.283-0.113-0.511-0.283-0.738-0.511c0.172,0.853,0.627,1.705,1.366,2.332c0.056,0.055,0.111,0.111,0.111,0.111	l-0.966-0.453l-0.394-0.172c-0.572-0.283-1.027-0.68-1.421-1.135c0.111,0.338,0.228,0.625,0.394,0.908l-1.815-0.453l-90.783-24.275	c-0.794-0.228-1.532,0.172-1.704,0.969l-63.322,236.07c-0.116,0.511,0.056,0.911,0.167,1.08c0.117,0.228,0.4,0.569,0.855,0.741	l94.419,25.235c0.738,0.172,1.477-0.226,1.704-1.021l44.792-167.064c0,0.172,0.116,0.286,0.172,0.396l5.113,8.927	c0.228,0.283,0.516,0.569,0.91,0.624l-42.744,159.335c-1.421,5.284-6.878,8.412-12.168,7.047l-94.414-25.297	c-5.118-1.362-8.416-7.047-7.05-12.162l63.322-236.129c1.421-5.288,6.878-8.413,12.168-6.992l90.778,24.272h0.056l2.903,0.794	c-0.061,0-0.117,0-0.117,0.059c0.228,0,0.511,0.058,0.738,0.114c0.344,0.114,0.627,0.172,0.91,0.341l1.988,1.024	c-1.133-0.514-2.387-0.514-3.464-0.059c0.056,0,0.111,0.059,0.228,0.059c1.193,0.338,2.215,0.852,3.181,1.59	c0.228,0.169,0.399,0.397,0.511,0.625c0.055,0.058,0.055,0.058,0.117,0.058c0.455,0.283,1.077,0.511,1.76,0.796	c0.283,0.111,0.571,0.228,0.91,0.339c0.228,0.399,0.399,0.796,0.566,1.193c0.061-0.283,0.061-0.511,0.061-0.794v-0.172	c0-0.566-0.117-1.135-0.4-1.648c-0.056-0.339-0.228-0.683-0.399-1.021c-0.228-0.4-0.511-0.738-0.794-1.024	c1.193,0.569,3.242,1.252,4.208,1.59c0.622,0.172,1.194,0.4,1.588,0.514c2.503,0.966,5.007,1.818,7.45,2.556	c24.725,6.995,52.125-0.283,71.454-18.985c0.905-0.852,1.815-1.762,3.064-2.273c3.075-1.252,7.105,0.113,10.63,1.362	c1.027,0.342,1.993,0.683,2.842,0.911l207.368,55.595l10.797,2.898c1.482,0.399,2.676,1.307,3.471,2.614	C525.941,278.157,526.168,279.692,525.775,281.168"/><path fill="#2887C8" d="M197.385,238.086c-0.399,0-0.738-0.114-1.083-0.286l-0.622-0.283v-0.058l-1.083-0.566l0.966,0.455	c0,0-0.055-0.058-0.111-0.116c-0.738-0.625-1.193-1.477-1.366-2.329c0.228,0.228,0.455,0.397,0.738,0.511l1.538,0.738l0.056,0.059	c0.117,0.114,0.283,0.228,0.339,0.396c0.061,0,0.172,0.114,0.289,0.342C197.274,237.29,197.385,237.687,197.385,238.086"/><path fill="#2887C8" d="M202.387,233.195c-0.683-0.286-1.311-0.513-1.76-0.796c-0.062,0-0.062,0-0.117-0.058	c-0.111-0.228-0.283-0.456-0.511-0.625c-0.966-0.738-1.987-1.251-3.187-1.59c-0.111,0-0.167-0.059-0.222-0.059	c1.077-0.452,2.326-0.452,3.464,0.059c0.116,0,0.228,0.113,0.344,0.169c0.167,0.114,0.283,0.228,0.456,0.342	c0.222,0.172,0.394,0.341,0.622,0.569l0.056,0.055c0.116,0.172,0.228,0.342,0.344,0.569	C202.159,232.229,202.276,232.682,202.387,233.195"/><path fill="#2887C8" d="M203.525,232.116c-0.056-0.341-0.228-0.683-0.399-1.024c-0.228-0.397-0.511-0.738-0.794-1.021	c-0.172-0.228-0.344-0.4-0.566-0.569c-0.233-0.172-0.399-0.286-0.627-0.396c-0.172-0.117-0.344-0.228-0.511-0.286	c-0.911-0.683-1.938-1.135-3.07-1.421c-1.366-0.342-2.787-0.169-3.925,0.396l2.897,0.797c-0.055,0-0.111,0-0.111,0.059	c0.228,0,0.511,0.055,0.738,0.111c0.344,0.117,0.627,0.172,0.91,0.344l1.988,1.021c-1.133-0.511-2.387-0.511-3.464-0.056	c0.056,0,0.111,0.056,0.228,0.056c1.193,0.341,2.215,0.852,3.181,1.593c0.228,0.169,0.399,0.397,0.511,0.625	c0.055,0.056,0.055,0.056,0.117,0.056c0.455,0.286,1.077,0.513,1.76,0.796c0.283,0.114,0.566,0.228,0.91,0.342	c0.228,0.396,0.399,0.796,0.566,1.193c0.061-0.286,0.061-0.514,0.061-0.797v-0.169C203.925,233.195,203.808,232.626,203.525,232.116 M197.047,236.948c-0.117-0.228-0.228-0.342-0.289-0.342c-0.056-0.172-0.228-0.286-0.339-0.396l-0.056-0.059l-1.538-0.738	c-0.283-0.114-0.511-0.286-0.738-0.514c0.172,0.855,0.627,1.707,1.366,2.332c0.056,0.055,0.111,0.113,0.111,0.113l-0.966-0.455	l-0.394-0.169c-0.572-0.286-1.027-0.683-1.421-1.138c0.111,0.341,0.222,0.627,0.394,0.911l-1.815-0.456	c0.566,0.796,1.305,1.477,2.215,1.932l1.021,0.511l1.083,0.571c0.056,0.056,0.167,0.056,0.228,0.111	c0.455,0.172,0.911,0.286,1.36,0.399l0.116-0.399c0.056-0.339,0.117-0.738,0-1.08C197.385,237.687,197.269,237.287,197.047,236.948"/><path fill="#B6DDF5" d="M367.178,321.359c-7.844,21.771-23.248,40.304-43.427,52.014c-28.027,16.143-59.686,18.247-87.941,6.081	C258.098,379.113,310.618,372.235,367.178,321.359"/><path fill="#B6DDF5" d="M512.924,283.617c-2.104,5.457-6.307,14.438-13.129,22.679c-14.154,16.825-32.686,22.34-55.139,16.314	l-58.893-15.801l13.534-3.583c0,0,57.299,16.601,68.668,10.916c10.23-5.118,28.477-16.998,37.57-32.516L512.924,283.617z"/><path fill="#2887C8" d="M525.775,281.168c-0.229,0.741-19.674,69.633-84.072,52.411l-61.225-16.429	c-0.055,0.286-0.172,0.627-0.283,0.911c-0.4,1.365-0.794,2.729-1.249,4.094l-2.842-12.79l9.659-2.559l58.893,15.801	c22.453,6.028,40.984,0.513,55.139-16.312c6.822-8.244,11.025-17.226,13.129-22.682l-7.389-1.99c1.082-1.704,1.932-3.522,2.73-5.343	c0.795-1.874,1.648-3.522,2.67-4.943l10.797,2.898c1.482,0.399,2.676,1.307,3.471,2.614	C525.941,278.157,526.168,279.692,525.775,281.168"/><path fill="#B6DDF5" d="M671.465,448.008c-31.609,53.375-143.648,121.476-148.705,124.487c-0.115,0.056-0.172,0.114-0.172,0.114	s-0.055,0-0.055,0.055l-159.962,92.371c-7.161,4.095-15.743,3.809-22.737-0.169c40.756-24.614,278.877-168.713,284.674-180.423	c5.346-10.744,32.4-33.138,40.816-47.01l5.852,10.119C671.291,447.723,671.348,447.895,671.465,448.008"/><path fill="#B6DDF5" d="M440.447,550.382l-107.941,62.304c-0.061,0-0.117,0-0.172,0.056c-0.172,0.113-0.399,0.228-0.572,0.341	l-46.152,26.66c-5.346,3.069-11.658,3.808-17.681,2.045c-4.663-1.362-8.699-4.035-11.879-7.672l173.091-96.861L440.447,550.382z"/><path fill="#B6DDF5" d="M407.424,499.795c-0.228,0-0.399,0.111-0.572,0.228l-5.168,3.011c-0.116,0-0.172,0.059-0.288,0.114	L254.285,588.13l-13.018,7.503c-8.693,5.001-19.551,3.411-27.056-3.239l184.631-105.389L407.424,499.795z"/><path fill="#B6DDF5" d="M366.723,453.465l-135.97,78.499c-0.056,0.058-0.111,0.058-0.172,0.116	c-8.637,4.888-19.212,3.353-26.656-3.128l152.284-85.038L366.723,453.465z"/></svg>