<svg xmlns="http://www.w3.org/2000/svg" id="Layer_1" width="800" height="800" x="0" y="0" enable-background="new 0 0 800 800" version="1.0" viewBox="0 0 800 800" xml:space="preserve"><rect width="387.169" height="547.874" x="211.352" y="135.736" fill="#B6DDF5"/><rect width="387.169" height="547.874" x="211.352" y="135.736" fill="none" stroke="#2887C8" stroke-linecap="round" stroke-linejoin="round" stroke-miterlimit="10" stroke-width="1.2"/><path fill="#FFF" d="M623.048,570.686v83.124c0,4.3-3.482,7.743-7.743,7.743H486.222c-0.074-4.221-3.482-7.622-7.743-7.622	H331.396c-4.261,0-7.667,3.401-7.743,7.622h-129.08c-4.261,0-7.749-3.443-7.749-7.743v-83.124c0-4.26,3.488-7.743,7.749-7.743	h420.731C619.565,562.942,623.048,566.426,623.048,570.686"/><path fill="none" stroke="#2887C8" stroke-miterlimit="10" stroke-width=".945" d="M623.048,570.686v83.124	c0,4.3-3.482,7.743-7.743,7.743H486.222c-0.074-4.221-3.482-7.622-7.743-7.622H331.396c-4.261,0-7.667,3.401-7.743,7.622h-129.08	c-4.261,0-7.749-3.443-7.749-7.743v-83.124c0-4.26,3.488-7.743,7.749-7.743h420.731	C619.565,562.942,623.048,566.426,623.048,570.686z"/><path fill="#B1D465" d="M601.041,608.372c0,7.279-5.896,13.177-13.175,13.177s-13.174-5.897-13.174-13.177	c0-7.276,5.895-13.172,13.174-13.172S601.041,601.096,601.041,608.372"/><path fill="#0B9D49" d="M596.686,608.372c0,4.872-3.946,8.819-8.819,8.819c-4.869,0-8.816-3.947-8.816-8.819	c0-4.87,3.947-8.816,8.816-8.816C592.739,599.556,596.686,603.502,596.686,608.372"/><path fill="#B1D465" d="M558.428,608.372c0,7.279-5.9,13.177-13.175,13.177c-7.279,0-13.175-5.897-13.175-13.177	c0-7.276,5.896-13.172,13.175-13.172C552.527,595.2,558.428,601.096,558.428,608.372"/><path fill="#0B9D49" d="M554.072,608.372c0,4.872-3.95,8.819-8.819,8.819s-8.816-3.947-8.816-8.819c0-4.87,3.947-8.816,8.816-8.816	S554.072,603.502,554.072,608.372"/><path fill="#2887C8" d="M227.801,596.334c0,4.276-3.467,7.743-7.743,7.743s-7.743-3.467-7.743-7.743s3.467-7.744,7.743-7.744	S227.801,592.058,227.801,596.334 M220.058,611.836c-4.276,0-7.743,3.465-7.743,7.741s3.467,7.743,7.743,7.743	s7.743-3.467,7.743-7.743S224.334,611.836,220.058,611.836"/><path fill="#2887C8" d="M260.085,596.334c0,4.276-3.467,7.743-7.744,7.743s-7.743-3.467-7.743-7.743s3.467-7.744,7.743-7.744	S260.085,592.058,260.085,596.334 M252.341,611.836c-4.276,0-7.743,3.465-7.743,7.741s3.467,7.743,7.743,7.743	s7.744-3.467,7.744-7.743S256.618,611.836,252.341,611.836"/><path fill="#2887C8" d="M292.369,596.334c0,4.276-3.467,7.743-7.744,7.743c-4.279,0-7.743-3.467-7.743-7.743	s3.464-7.744,7.743-7.744C288.901,588.59,292.369,592.058,292.369,596.334 M284.625,611.836c-4.279,0-7.743,3.465-7.743,7.741	s3.464,7.743,7.743,7.743c4.276,0,7.744-3.467,7.744-7.743S288.901,611.836,284.625,611.836"/><path fill="#2887C8" d="M324.65,596.334c0,4.276-3.464,7.743-7.741,7.743s-7.744-3.467-7.744-7.743s3.467-7.744,7.744-7.744	S324.65,592.058,324.65,596.334 M316.909,611.836c-4.276,0-7.744,3.465-7.744,7.741s3.467,7.743,7.744,7.743	s7.741-3.467,7.741-7.743S321.186,611.836,316.909,611.836"/><path fill="#2887C8" d="M356.934,596.334c0,4.276-3.467,7.743-7.743,7.743s-7.744-3.467-7.744-7.743s3.467-7.744,7.744-7.744	S356.934,592.058,356.934,596.334 M349.19,611.836c-4.276,0-7.744,3.465-7.744,7.741s3.467,7.743,7.744,7.743	s7.743-3.467,7.743-7.743S353.467,611.836,349.19,611.836"/><path fill="#2887C8" d="M389.217,596.334c0,4.276-3.467,7.743-7.743,7.743s-7.744-3.467-7.744-7.743s3.467-7.744,7.744-7.744	S389.217,592.058,389.217,596.334 M381.474,611.836c-4.276,0-7.744,3.465-7.744,7.741s3.467,7.743,7.744,7.743	s7.743-3.467,7.743-7.743S385.75,611.836,381.474,611.836"/><path fill="#2887C8" d="M421.502,596.334c0,4.276-3.468,7.743-7.744,7.743s-7.743-3.467-7.743-7.743s3.467-7.744,7.743-7.744	S421.502,592.058,421.502,596.334 M413.758,611.836c-4.276,0-7.743,3.465-7.743,7.741s3.467,7.743,7.743,7.743	s7.744-3.467,7.744-7.743S418.034,611.836,413.758,611.836"/><path fill="#FFF" d="M623.048,450.02v83.125c0,4.298-3.482,7.744-7.743,7.744H486.222c-0.074-4.225-3.482-7.625-7.743-7.625	H331.396c-4.261,0-7.667,3.4-7.743,7.625h-129.08c-4.261,0-7.749-3.446-7.749-7.744V450.02c0-4.262,3.488-7.744,7.749-7.744h420.731	C619.565,442.275,623.048,445.758,623.048,450.02"/><path fill="none" stroke="#2887C8" stroke-miterlimit="10" stroke-width=".945" d="M623.048,450.02v83.125	c0,4.298-3.482,7.744-7.743,7.744H486.222c-0.074-4.225-3.482-7.625-7.743-7.625H331.396c-4.261,0-7.667,3.4-7.743,7.625h-129.08	c-4.261,0-7.749-3.446-7.749-7.744V450.02c0-4.262,3.488-7.744,7.749-7.744h420.731C619.565,442.275,623.048,445.758,623.048,450.02	z"/><path fill="#B1D465" d="M601.041,487.705c0,7.279-5.896,13.177-13.175,13.177s-13.174-5.897-13.174-13.177	c0-7.277,5.895-13.175,13.174-13.175S601.041,480.428,601.041,487.705"/><path fill="#0B9D49" d="M596.686,487.705c0,4.872-3.946,8.818-8.819,8.818c-4.869,0-8.816-3.946-8.816-8.818	c0-4.869,3.947-8.816,8.816-8.816C592.739,478.889,596.686,482.836,596.686,487.705"/><path fill="#B1D465" d="M558.428,487.705c0,7.279-5.9,13.177-13.175,13.177c-7.279,0-13.175-5.897-13.175-13.177	c0-7.277,5.896-13.175,13.175-13.175C552.527,474.53,558.428,480.428,558.428,487.705"/><path fill="#0B9D49" d="M554.072,487.705c0,4.872-3.95,8.818-8.819,8.818s-8.816-3.946-8.816-8.818c0-4.869,3.947-8.816,8.816-8.816	S554.072,482.836,554.072,487.705"/><path fill="#2887C8" d="M227.801,475.667c0,4.276-3.467,7.743-7.743,7.743s-7.743-3.467-7.743-7.743s3.467-7.743,7.743-7.743	S227.801,471.391,227.801,475.667 M220.058,491.17c-4.276,0-7.743,3.464-7.743,7.74s3.467,7.743,7.743,7.743	s7.743-3.467,7.743-7.743S224.334,491.17,220.058,491.17"/><path fill="#2887C8" d="M260.085,475.667c0,4.276-3.467,7.743-7.744,7.743s-7.743-3.467-7.743-7.743s3.467-7.743,7.743-7.743	S260.085,471.391,260.085,475.667 M252.341,491.17c-4.276,0-7.743,3.464-7.743,7.74s3.467,7.743,7.743,7.743	s7.744-3.467,7.744-7.743S256.618,491.17,252.341,491.17"/><path fill="#2887C8" d="M292.369,475.667c0,4.276-3.467,7.743-7.744,7.743c-4.279,0-7.743-3.467-7.743-7.743	s3.464-7.743,7.743-7.743C288.901,467.924,292.369,471.391,292.369,475.667 M284.625,491.17c-4.279,0-7.743,3.464-7.743,7.74	s3.464,7.743,7.743,7.743c4.276,0,7.744-3.467,7.744-7.743S288.901,491.17,284.625,491.17"/><path fill="#2887C8" d="M324.65,475.667c0,4.276-3.464,7.743-7.741,7.743s-7.744-3.467-7.744-7.743s3.467-7.743,7.744-7.743	S324.65,471.391,324.65,475.667 M316.909,491.17c-4.276,0-7.744,3.464-7.744,7.74s3.467,7.743,7.744,7.743s7.741-3.467,7.741-7.743	S321.186,491.17,316.909,491.17"/><path fill="#2887C8" d="M356.934,475.667c0,4.276-3.467,7.743-7.743,7.743s-7.744-3.467-7.744-7.743s3.467-7.743,7.744-7.743	S356.934,471.391,356.934,475.667 M349.19,491.17c-4.276,0-7.744,3.464-7.744,7.74s3.467,7.743,7.744,7.743s7.743-3.467,7.743-7.743	S353.467,491.17,349.19,491.17"/><path fill="#2887C8" d="M389.217,475.667c0,4.276-3.467,7.743-7.743,7.743s-7.744-3.467-7.744-7.743s3.467-7.743,7.744-7.743	S389.217,471.391,389.217,475.667 M381.474,491.17c-4.276,0-7.744,3.464-7.744,7.74s3.467,7.743,7.744,7.743	s7.743-3.467,7.743-7.743S385.75,491.17,381.474,491.17"/><path fill="#2887C8" d="M421.502,475.667c0,4.276-3.468,7.743-7.744,7.743s-7.743-3.467-7.743-7.743s3.467-7.743,7.743-7.743	S421.502,471.391,421.502,475.667 M413.758,491.17c-4.276,0-7.743,3.464-7.743,7.74s3.467,7.743,7.743,7.743	s7.744-3.467,7.744-7.743S418.034,491.17,413.758,491.17"/><path fill="#FFF" d="M623.048,329.352v83.124c0,4.294-3.482,7.743-7.743,7.743H486.222c-0.074-4.221-3.482-7.627-7.743-7.627	H331.396c-4.261,0-7.667,3.406-7.743,7.627h-129.08c-4.261,0-7.749-3.449-7.749-7.743v-83.124c0-4.261,3.488-7.744,7.749-7.744	h420.731C619.565,321.608,623.048,325.091,623.048,329.352"/><path fill="none" stroke="#2887C8" stroke-miterlimit="10" stroke-width=".945" d="M623.048,329.352v83.124	c0,4.294-3.482,7.743-7.743,7.743H486.222c-0.074-4.221-3.482-7.627-7.743-7.627H331.396c-4.261,0-7.667,3.406-7.743,7.627h-129.08	c-4.261,0-7.749-3.449-7.749-7.743v-83.124c0-4.261,3.488-7.744,7.749-7.744h420.731	C619.565,321.608,623.048,325.091,623.048,329.352z"/><path fill="#B1D465" d="M601.041,367.038c0,7.279-5.896,13.177-13.175,13.177s-13.174-5.898-13.174-13.177	c0-7.277,5.895-13.172,13.174-13.172S601.041,359.761,601.041,367.038"/><path fill="#0B9D49" d="M596.686,367.038c0,4.872-3.946,8.819-8.819,8.819c-4.869,0-8.816-3.947-8.816-8.819	c0-4.87,3.947-8.816,8.816-8.816C592.739,358.222,596.686,362.168,596.686,367.038"/><path fill="#B1D465" d="M558.428,367.038c0,7.279-5.9,13.177-13.175,13.177c-7.279,0-13.175-5.898-13.175-13.177	c0-7.277,5.896-13.172,13.175-13.172C552.527,353.866,558.428,359.761,558.428,367.038"/><path fill="#0B9D49" d="M554.072,367.038c0,4.872-3.95,8.819-8.819,8.819s-8.816-3.947-8.816-8.819c0-4.87,3.947-8.816,8.816-8.816	S554.072,362.168,554.072,367.038"/><path fill="#2887C8" d="M227.801,355c0,4.276-3.467,7.743-7.743,7.743s-7.743-3.467-7.743-7.743s3.467-7.744,7.743-7.744	S227.801,350.724,227.801,355 M220.058,370.502c-4.276,0-7.743,3.464-7.743,7.741s3.467,7.743,7.743,7.743s7.743-3.467,7.743-7.743	S224.334,370.502,220.058,370.502"/><path fill="#2887C8" d="M260.085,355c0,4.276-3.467,7.743-7.744,7.743s-7.743-3.467-7.743-7.743s3.467-7.744,7.743-7.744	S260.085,350.724,260.085,355 M252.341,370.502c-4.276,0-7.743,3.464-7.743,7.741s3.467,7.743,7.743,7.743s7.744-3.467,7.744-7.743	S256.618,370.502,252.341,370.502"/><path fill="#2887C8" d="M292.369,355c0,4.276-3.467,7.743-7.744,7.743c-4.279,0-7.743-3.467-7.743-7.743s3.464-7.744,7.743-7.744	C288.901,347.256,292.369,350.724,292.369,355 M284.625,370.502c-4.279,0-7.743,3.464-7.743,7.741s3.464,7.743,7.743,7.743	c4.276,0,7.744-3.467,7.744-7.743S288.901,370.502,284.625,370.502"/><path fill="#2887C8" d="M324.65,355c0,4.276-3.464,7.743-7.741,7.743s-7.744-3.467-7.744-7.743s3.467-7.744,7.744-7.744	S324.65,350.724,324.65,355 M316.909,370.502c-4.276,0-7.744,3.464-7.744,7.741s3.467,7.743,7.744,7.743s7.741-3.467,7.741-7.743	S321.186,370.502,316.909,370.502"/><path fill="#2887C8" d="M356.934,355c0,4.276-3.467,7.743-7.743,7.743s-7.744-3.467-7.744-7.743s3.467-7.744,7.744-7.744	S356.934,350.724,356.934,355 M349.19,370.502c-4.276,0-7.744,3.464-7.744,7.741s3.467,7.743,7.744,7.743s7.743-3.467,7.743-7.743	S353.467,370.502,349.19,370.502"/><path fill="#2887C8" d="M389.217,355c0,4.276-3.467,7.743-7.743,7.743s-7.744-3.467-7.744-7.743s3.467-7.744,7.744-7.744	S389.217,350.724,389.217,355 M381.474,370.502c-4.276,0-7.744,3.464-7.744,7.741s3.467,7.743,7.744,7.743s7.743-3.467,7.743-7.743	S385.75,370.502,381.474,370.502"/><path fill="#2887C8" d="M421.502,355c0,4.276-3.468,7.743-7.744,7.743s-7.743-3.467-7.743-7.743s3.467-7.744,7.743-7.744	S421.502,350.724,421.502,355 M413.758,370.502c-4.276,0-7.743,3.464-7.743,7.741s3.467,7.743,7.743,7.743s7.744-3.467,7.744-7.743	S418.034,370.502,413.758,370.502"/><path fill="#FFF" d="M623.048,208.685v83.126c0,4.292-3.482,7.744-7.743,7.744H486.222c-0.074-4.224-3.482-7.63-7.743-7.63	H331.396c-4.261,0-7.667,3.406-7.743,7.63h-129.08c-4.261,0-7.749-3.451-7.749-7.744v-83.126c0-4.26,3.488-7.743,7.749-7.743	h420.731C619.565,200.942,623.048,204.425,623.048,208.685"/><path fill="none" stroke="#2887C8" stroke-miterlimit="10" stroke-width=".945" d="M623.048,208.685v83.126	c0,4.292-3.482,7.744-7.743,7.744H486.222c-0.074-4.224-3.482-7.63-7.743-7.63H331.396c-4.261,0-7.667,3.406-7.743,7.63h-129.08	c-4.261,0-7.749-3.451-7.749-7.744v-83.126c0-4.26,3.488-7.743,7.749-7.743h420.731	C619.565,200.942,623.048,204.425,623.048,208.685z"/><path fill="#B1D465" d="M601.041,246.371c0,7.279-5.896,13.177-13.175,13.177s-13.174-5.898-13.174-13.177	c0-7.277,5.895-13.175,13.174-13.175S601.041,239.094,601.041,246.371"/><path fill="#0B9D49" d="M596.686,246.371c0,4.872-3.946,8.819-8.819,8.819c-4.869,0-8.816-3.947-8.816-8.819	c0-4.87,3.947-8.816,8.816-8.816C592.739,237.555,596.686,241.501,596.686,246.371"/><path fill="#B1D465" d="M558.428,246.371c0,7.279-5.9,13.177-13.175,13.177c-7.279,0-13.175-5.898-13.175-13.177	c0-7.277,5.896-13.175,13.175-13.175C552.527,233.196,558.428,239.094,558.428,246.371"/><path fill="#0B9D49" d="M554.072,246.371c0,4.872-3.95,8.819-8.819,8.819s-8.816-3.947-8.816-8.819c0-4.87,3.947-8.816,8.816-8.816	S554.072,241.501,554.072,246.371"/><path fill="#2887C8" d="M227.801,234.333c0,4.276-3.467,7.741-7.743,7.741s-7.743-3.464-7.743-7.741s3.467-7.744,7.743-7.744	S227.801,230.057,227.801,234.333 M220.058,249.833c-4.276,0-7.743,3.467-7.743,7.743s3.467,7.743,7.743,7.743	s7.743-3.467,7.743-7.743S224.334,249.833,220.058,249.833"/><path fill="#2887C8" d="M260.085,234.333c0,4.276-3.467,7.741-7.744,7.741s-7.743-3.464-7.743-7.741s3.467-7.744,7.743-7.744	S260.085,230.057,260.085,234.333 M252.341,249.833c-4.276,0-7.743,3.467-7.743,7.743s3.467,7.743,7.743,7.743	s7.744-3.467,7.744-7.743S256.618,249.833,252.341,249.833"/><path fill="#2887C8" d="M292.369,234.333c0,4.276-3.467,7.741-7.744,7.741c-4.279,0-7.743-3.464-7.743-7.741	s3.464-7.744,7.743-7.744C288.901,226.589,292.369,230.057,292.369,234.333 M284.625,249.833c-4.279,0-7.743,3.467-7.743,7.743	s3.464,7.743,7.743,7.743c4.276,0,7.744-3.467,7.744-7.743S288.901,249.833,284.625,249.833"/><path fill="#2887C8" d="M324.65,234.333c0,4.276-3.464,7.741-7.741,7.741s-7.744-3.464-7.744-7.741s3.467-7.744,7.744-7.744	S324.65,230.057,324.65,234.333 M316.909,249.833c-4.276,0-7.744,3.467-7.744,7.743s3.467,7.743,7.744,7.743	s7.741-3.467,7.741-7.743S321.186,249.833,316.909,249.833"/><path fill="#2887C8" d="M356.934,234.333c0,4.276-3.467,7.741-7.743,7.741s-7.744-3.464-7.744-7.741s3.467-7.744,7.744-7.744	S356.934,230.057,356.934,234.333 M349.19,249.833c-4.276,0-7.744,3.467-7.744,7.743s3.467,7.743,7.744,7.743	s7.743-3.467,7.743-7.743S353.467,249.833,349.19,249.833"/><path fill="#2887C8" d="M389.217,234.333c0,4.276-3.467,7.741-7.743,7.741s-7.744-3.464-7.744-7.741s3.467-7.744,7.744-7.744	S389.217,230.057,389.217,234.333 M381.474,249.833c-4.276,0-7.744,3.467-7.744,7.743s3.467,7.743,7.744,7.743	s7.743-3.467,7.743-7.743S385.75,249.833,381.474,249.833"/><path fill="#2887C8" d="M421.502,234.333c0,4.276-3.468,7.741-7.744,7.741s-7.743-3.464-7.743-7.741s3.467-7.744,7.743-7.744	S421.502,230.057,421.502,234.333 M413.758,249.833c-4.276,0-7.743,3.467-7.743,7.743s3.467,7.743,7.743,7.743	s7.744-3.467,7.744-7.743S418.034,249.833,413.758,249.833"/><path fill="#FFF" d="M615.396,178.882H194.476c-4.224,0-7.651-3.422-7.651-7.651v-72.58c0-4.227,3.427-7.651,7.651-7.651h420.921	c4.222,0,7.651,3.425,7.651,7.651v72.58C623.048,175.46,619.618,178.882,615.396,178.882"/><path fill="none" stroke="#2887C8" stroke-miterlimit="10" stroke-width=".945" d="M615.396,178.882H194.476	c-4.224,0-7.651-3.422-7.651-7.651v-72.58c0-4.227,3.427-7.651,7.651-7.651h420.921c4.222,0,7.651,3.425,7.651,7.651v72.58	C623.048,175.46,619.618,178.882,615.396,178.882z"/><path fill="#E4F0CC" d="M326.377,160.134H220.432c-2.829,0-5.138-2.318-5.138-5.146v-38.509c0-2.829,2.31-5.146,5.138-5.146h105.945	c2.829,0,5.146,2.318,5.146,5.146v38.509C331.523,157.816,329.206,160.134,326.377,160.134"/><path fill="#2887C8" d="M323.714,162.083H223.1c-5.384,0-9.763-4.379-9.763-9.76v-33.18c0-5.378,4.379-9.758,9.763-9.758h100.614	c5.384,0,9.758,4.379,9.758,9.758v33.18C333.472,157.703,329.098,162.083,323.714,162.083 M223.1,113.286	c-3.23,0-5.856,2.626-5.856,5.856v33.18c0,3.232,2.626,5.858,5.856,5.858h100.614c3.229,0,5.858-2.626,5.858-5.858v-33.18	c0-3.23-2.629-5.856-5.858-5.856H223.1z"/><path fill="#0B9D49" d="M233.889,149.042h-2.929c-1.547,0-2.816-1.271-2.816-2.824v-2.921c0-1.555,1.269-2.824,2.816-2.824h2.929	c1.547,0,2.824,1.269,2.824,2.824v2.921C236.712,147.771,235.436,149.042,233.889,149.042"/><path fill="#0B9D49" d="M255.31,149.042h-2.926c-1.55,0-2.818-1.271-2.818-2.824v-20.968c0-1.556,1.268-2.824,2.818-2.824h2.926	c1.55,0,2.824,1.269,2.824,2.824v20.968C258.134,147.771,256.86,149.042,255.31,149.042"/><path fill="#0B9D49" d="M276.734,149.042h-2.921c-1.556,0-2.826-1.271-2.826-2.824v-8.134c0-1.55,1.271-2.823,2.826-2.823h2.921	c1.556,0,2.823,1.273,2.823,2.823v8.134C279.558,147.771,278.29,149.042,276.734,149.042"/><path fill="#0B9D49" d="M319.58,149.042h-2.927c-1.55,0-2.818-1.271-2.818-2.824v-20.968c0-1.556,1.268-2.824,2.818-2.824h2.927	c1.55,0,2.823,1.269,2.823,2.824v20.968C322.403,147.771,321.13,149.042,319.58,149.042"/><path fill="#0B9D49" d="M298.156,149.042h-2.921c-1.556,0-2.824-1.271-2.824-2.824v-20.968c0-1.556,1.268-2.824,2.824-2.824h2.921	c1.555,0,2.824,1.269,2.824,2.824v20.968C300.979,147.771,299.711,149.042,298.156,149.042"/><path fill="#B1D465" d="M421.807,135.733c0,7.277-5.9,13.175-13.174,13.175c-7.279,0-13.175-5.898-13.175-13.175	c0-7.274,5.896-13.177,13.175-13.177C415.906,122.556,421.807,128.459,421.807,135.733"/><path fill="#0B9D49" d="M417.451,135.733c0,4.87-3.946,8.816-8.818,8.816c-4.87,0-8.816-3.947-8.816-8.816	c0-4.872,3.946-8.819,8.816-8.819C413.505,126.914,417.451,130.861,417.451,135.733"/><path fill="#B1D465" d="M379.193,135.733c0,7.277-5.9,13.175-13.174,13.175c-7.279,0-13.174-5.898-13.174-13.175	c0-7.274,5.895-13.177,13.174-13.177C373.293,122.556,379.193,128.459,379.193,135.733"/><path fill="#0B9D49" d="M374.835,135.733c0,4.87-3.947,8.816-8.816,8.816s-8.819-3.947-8.819-8.816c0-4.872,3.949-8.819,8.819-8.819	S374.835,130.861,374.835,135.733"/><path fill="#2887C8" d="M526.9,151.927h-5.463c-0.854,0-1.55-0.696-1.55-1.553v-30.866c0-0.852,0.695-1.555,1.55-1.555h5.463	c0.854,0,1.55,0.704,1.55,1.555v30.866C528.45,151.23,527.755,151.927,526.9,151.927"/><path fill="#2887C8" d="M559.019,151.927h-5.466c-0.852,0-1.551-0.696-1.551-1.553v-30.866c0-0.852,0.699-1.555,1.551-1.555h5.466	c0.852,0,1.555,0.704,1.555,1.555v30.866C560.573,151.23,559.87,151.927,559.019,151.927"/><path fill="#2887C8" d="M591.136,151.927h-5.466c-0.852,0-1.55-0.696-1.55-1.553v-30.866c0-0.852,0.698-1.555,1.55-1.555h5.466	c0.852,0,1.551,0.704,1.551,1.555v30.866C592.687,151.23,591.987,151.927,591.136,151.927"/><line x1="127.032" x2="682.844" y1="683.606" y2="683.606" fill="none" stroke="#2887C8" stroke-linecap="round" stroke-linejoin="round" stroke-miterlimit="10" stroke-width=".945"/><line x1="716.783" x2="744.574" y1="683.606" y2="683.606" fill="none" stroke="#2887C8" stroke-linecap="round" stroke-linejoin="round" stroke-miterlimit="10" stroke-width=".945"/><line x1="774.886" x2="778" y1="683.606" y2="683.606" fill="none" stroke="#2887C8" stroke-linecap="round" stroke-linejoin="round" stroke-miterlimit="10" stroke-width=".945"/><line x1="93.092" x2="65.298" y1="683.606" y2="683.606" fill="none" stroke="#2887C8" stroke-linecap="round" stroke-linejoin="round" stroke-miterlimit="10" stroke-width=".945"/><line x1="31.116" x2="28" y1="683.606" y2="683.606" fill="none" stroke="#2887C8" stroke-linecap="round" stroke-linejoin="round" stroke-miterlimit="10" stroke-width=".945"/><path fill="#FFF" d="M753.24,590.18c0,15.624-28.948,25.382-34.585,38.973c-5.843,14.087,7.506,41.409-3.108,52.023	c-10.617,10.617-37.939-2.726-52.026,3.111c-13.591,5.637-23.346,34.585-38.975,34.585c-15.624,0-25.382-28.948-38.973-34.585	c-14.087-5.843-41.409,7.506-52.023-3.111c-10.623-10.614,2.726-37.937-3.111-52.023c-5.637-13.591-34.586-23.349-34.586-38.973	c0-15.631,28.949-25.389,34.586-38.975c5.843-14.092-7.506-41.409,3.111-52.029c10.614-10.617,37.937,2.732,52.023-3.11	c13.591-5.632,23.349-34.577,38.973-34.577c15.629,0,25.384,28.945,38.975,34.577c14.087,5.843,41.409-7.501,52.026,3.11	c10.619,10.62-2.729,37.938,3.108,52.029C724.292,564.791,753.24,574.549,753.24,590.18"/><path fill="none" stroke="#2887C8" stroke-miterlimit="10" stroke-width=".702" d="M753.24,590.18	c0,15.624-28.948,25.382-34.585,38.973c-5.843,14.087,7.506,41.409-3.108,52.023c-10.617,10.617-37.939-2.726-52.026,3.111	c-13.591,5.637-23.346,34.585-38.975,34.585c-15.624,0-25.382-28.948-38.973-34.585c-14.087-5.843-41.409,7.506-52.023-3.111	c-10.623-10.614,2.726-37.937-3.111-52.023c-5.637-13.591-34.586-23.349-34.586-38.973c0-15.631,28.949-25.389,34.586-38.975	c5.843-14.092-7.506-41.409,3.111-52.029c10.614-10.617,37.937,2.732,52.023-3.11c13.591-5.632,23.349-34.577,38.973-34.577	c15.629,0,25.384,28.945,38.975,34.577c14.087,5.843,41.409-7.501,52.026,3.11c10.619,10.62-2.729,37.938,3.108,52.029	C724.292,564.791,753.24,574.549,753.24,590.18z"/><path fill="#E4F2FC" d="M726.768,590.18c0,12.033-28.234,18.374-32.571,28.838c-4.503,10.857,10.81,35.264,2.631,43.439	c-8.181,8.181-32.587-7.132-43.441-2.634c-10.464,4.345-16.802,32.573-28.838,32.573c-12.041,0-18.373-28.229-28.846-32.573	c-10.852-4.498-35.258,10.814-43.438,2.634c-8.174-8.176,7.14-32.587,2.636-43.439c-4.342-10.464-32.57-16.805-32.57-28.838	c0-12.035,28.229-18.376,32.57-28.846c4.504-10.852-10.81-35.258-2.631-43.438c8.176-8.176,32.587,7.137,43.434,2.634	c10.473-4.34,16.805-32.568,28.846-32.568c12.036,0,18.374,28.229,28.838,32.574c10.854,4.497,35.266-10.815,43.441-2.635	c8.179,8.176-7.134,32.582-2.631,43.434C698.533,571.804,726.768,578.145,726.768,590.18"/><path fill="#B6DDF5" d="M610.345,510.115c0.211-0.367,0.422-0.728,0.633-1.1c4.056-7.095,8.656-15.141,13.568-15.141	c4.914,0,9.309,7.692,13.569,15.135c0.146,0.264,0.298,0.518,0.443,0.778c0.788-1.692,2.386-2.858,4.092-3.312	c-0.011-0.016-0.016-0.031-0.026-0.042c-4.988-8.731-10.15-17.759-18.078-17.759c-7.926,0-13.088,9.027-18.076,17.759	c-0.143,0.243-0.282,0.485-0.417,0.723C607.754,507.444,609.401,508.549,610.345,510.115"/><path fill="#B6DDF5" d="M673.044,523.245c8.049-2.159,16.375-4.388,19.6-1.165c3.229,3.229,0.994,11.55-1.163,19.6	c-0.053,0.194-0.1,0.379-0.155,0.574c1.771-0.343,3.709,0.063,5.049,1.239c0.042-0.155,0.082-0.312,0.124-0.464	c2.544-9.476,5.173-19.275-0.177-24.619c-5.31-5.311-14.991-2.767-24.4-0.246c0.782,1.616,0.748,3.688-0.093,5.408	C672.234,523.461,672.638,523.355,673.044,523.245"/><path fill="#B6DDF5" d="M576.174,657.078l-0.124,0.034c-8.052,2.154-16.373,4.39-19.6,1.16c-3.229-3.224-0.994-11.55,1.165-19.6	c0.061-0.222,0.113-0.442,0.174-0.664c-1.685,0.448-3.628,0.026-5.099-1.042c-0.031,0.119-0.063,0.238-0.095,0.356	c-2.544,9.48-5.168,19.275,0.182,24.628c5.339,5.349,15.146,2.721,24.617,0.184l0.923-0.25	C576.925,660.714,576.142,658.871,576.174,657.078"/><path fill="#B6DDF5" d="M528.242,590.18c0-4.914,7.696-9.314,15.142-13.569c0.316-0.18,0.625-0.361,0.938-0.541	c-1.561-0.965-2.576-2.634-2.868-4.34c-0.222,0.119-0.436,0.243-0.651,0.367c-8.732,4.993-17.76,10.155-17.76,18.083	c0,7.926,9.027,13.088,17.76,18.076c0.087,0.05,0.166,0.098,0.253,0.147c0.227-1.798,1.616-3.296,3.401-4.039	c-0.356-0.205-0.712-0.411-1.073-0.622C535.938,599.492,528.242,595.087,528.242,590.18"/><path fill="#B6DDF5" d="M577.661,518.293l-0.262-0.068c-9.47-2.539-19.27-5.167-24.625,0.186	c-5.347,5.344-2.723,15.144-0.179,24.619c0.026,0.092,0.047,0.185,0.073,0.276c1.577-0.843,3.631-0.875,5.348-0.113	c-0.135-0.503-0.264-0.999-0.401-1.508c-2.159-8.05-4.393-16.376-1.165-19.604c3.225-3.223,11.556-0.994,19.6,1.168	c0.185,0.047,0.358,0.089,0.54,0.139C576.177,521.605,576.524,519.651,577.661,518.293"/><path fill="#B6DDF5" d="M638.329,670.968c-0.071,0.126-0.147,0.25-0.217,0.374c-4.255,7.445-8.655,15.139-13.564,15.139	c-4.912,0-9.314-7.693-13.57-15.139c-0.149-0.264-0.3-0.53-0.458-0.794c-0.986,1.566-2.624,2.7-4.372,2.819	c0.105,0.184,0.217,0.366,0.316,0.556c4.996,8.729,10.151,17.754,18.084,17.754c7.928,0,13.085-9.024,18.078-17.754	c0.124-0.222,0.254-0.442,0.377-0.664C641.25,673.214,639.457,672.389,638.329,670.968"/><path fill="#B6DDF5" d="M696.501,637.331c-0.104-0.374-0.201-0.751-0.299-1.123c-1.323,1.213-3.214,1.798-4.961,1.566	c0.081,0.3,0.155,0.599,0.236,0.901c2.16,8.049,4.391,16.375,1.166,19.6c-3.228,3.222-11.554,0.994-19.6-1.163	c-0.346-0.095-0.686-0.182-1.025-0.273c0.416,1.761,0.076,3.709-1.037,5.102c0.238,0.065,0.475,0.132,0.712,0.189	c9.476,2.544,19.271,5.173,24.628-0.179C701.673,656.602,699.042,646.802,696.501,637.331"/><path fill="#B6DDF5" d="M708.291,572.097c-0.15-0.085-0.301-0.172-0.459-0.259c-0.048,1.74-0.988,3.488-2.42,4.601	c0.1,0.053,0.2,0.113,0.298,0.174c7.1,4.056,15.141,8.648,15.141,13.567c0,4.909-7.695,9.31-15.141,13.565	c-0.059,0.036-0.119,0.068-0.177,0.103c1.355,1.134,2.104,2.984,2.04,4.819c0.243-0.134,0.48-0.274,0.718-0.408	c8.731-4.996,17.759-10.156,17.759-18.079C726.05,582.25,717.022,577.087,708.291,572.097"/><path fill="#FFF" d="M685.366,586.739c0,33.697-27.316,61.014-61.014,61.014c-33.699,0-61.021-27.316-61.021-61.014	c0-33.699,27.322-61.017,61.021-61.017C658.05,525.723,685.366,553.04,685.366,586.739"/><path fill="#2887C8" d="M641.316,525.567c-3.195-0.891-6.468-1.581-9.848-1.962c-0.103,1.686-0.189,3.375-0.237,5.065	c3.211,0.38,6.328,1.06,9.362,1.94C640.836,528.932,641.079,527.247,641.316,525.567"/><path fill="#2887C8" d="M669.313,549.473c1.102-1.295,2.288-2.516,3.54-3.67c-6.538-7.732-14.859-13.91-24.351-17.822l-0.751,5.215	C656.159,536.883,663.518,542.51,669.313,549.473"/><path fill="#2887C8" d="M685.414,569.289c-1.806-6.268-4.521-12.149-8.036-17.467c-1.205,1.168-2.359,2.391-3.422,3.704	c-0.04,0.05-0.098,0.081-0.14,0.129c2.979,4.72,5.294,9.892,6.839,15.384C682.309,570.651,683.858,569.958,685.414,569.289"/><path fill="#2887C8" d="M682.625,612.042c3.38-7.757,5.271-16.31,5.271-25.306c0-0.184-0.021-0.369-0.021-0.556	c-1.593,0.464-3.312,0.604-5.038,0.577c0,7.813-1.556,15.266-4.348,22.078C679.498,610.336,680.995,611.277,682.625,612.042"/><path fill="#2887C8" d="M673.342,625.515c0.253,0.222,0.501,0.438,0.757,0.656c1.89-2.376,3.622-4.875,5.162-7.509	c-1.551-0.746-3.014-1.595-4.311-2.652c-1.29,2.23-2.731,4.363-4.298,6.394C671.306,623.682,672.115,624.449,673.342,625.515"/><path fill="#2887C8" d="M632.08,649.805c7.333-0.902,14.274-3.051,20.626-6.235c-1.231-1.253-2.246-2.647-3.138-4.153	c-5.426,2.613-11.308,4.428-17.488,5.266V649.805z"/><path fill="#2887C8" d="M624.351,645.225c-13.035,0-25.081-4.287-34.817-11.526c-1.208,1.231-2.434,2.415-3.773,3.472	c10.707,8.219,24.082,13.117,38.591,13.117c0.076,0,0.147-0.006,0.221-0.006v-5.062C624.498,645.22,624.427,645.225,624.351,645.225"/><path fill="#2887C8" d="M560.885,588.856c0.182,5.452,1.025,10.738,2.499,15.761c1.717-0.195,3.438-0.318,5.157-0.369	c-1.534-4.885-2.404-10.053-2.6-15.392H560.885z"/><path fill="#2887C8" d="M566.838,559.879c-3.105,6.625-5.142,13.844-5.787,21.469h5.086c0.638-6.949,2.531-13.525,5.394-19.558	C570.018,560.928,568.496,560.316,566.838,559.879"/><path fill="#2887C8" d="M583.351,538.342c1.846,0.656,3.627,1.565,5.576,1.818c0.061,0.006,0.107,0.027,0.168,0.037	c9.65-7.354,21.625-11.798,34.644-11.933c0.059-1.685,0.14-3.374,0.237-5.06C608.483,523.293,594.326,528.998,583.351,538.342"/><path fill="#FFF" d="M672.87,586.739c0,26.668-21.622,48.293-48.296,48.293c-26.668,0-48.287-21.625-48.287-48.293	s21.619-48.295,48.287-48.295C651.248,538.444,672.87,560.071,672.87,586.739"/><path fill="none" stroke="#2887C8" stroke-miterlimit="10" stroke-width=".702" d="M672.87,586.739	c0,26.668-21.622,48.293-48.296,48.293c-26.668,0-48.287-21.625-48.287-48.293s21.619-48.295,48.287-48.295	C651.248,538.444,672.87,560.071,672.87,586.739z"/><path fill="#FFF" d="M574.649,681.065c0,22.584-18.311,40.895-40.895,40.895c-22.592,0-40.902-18.311-40.902-40.895	c0-22.587,18.311-40.897,40.902-40.897C556.339,640.168,574.649,658.479,574.649,681.065"/><path fill="none" stroke="#2887C8" stroke-miterlimit="10" stroke-width=".702" d="M574.649,681.065	c0,22.584-18.311,40.895-40.895,40.895c-22.592,0-40.902-18.311-40.902-40.895c0-22.587,18.311-40.897,40.902-40.897	C556.339,640.168,574.649,658.479,574.649,681.065z"/><path fill="#E4F0CC" d="M562.661,681.065c0,15.966-12.944,28.906-28.908,28.906c-15.967,0-28.91-12.94-28.91-28.906	c0-15.967,12.943-28.909,28.91-28.909C549.717,652.156,562.661,665.099,562.661,681.065"/><path fill="#0B9D49" d="M553.5,671.838c0,0.683-0.24,1.26-0.715,1.734l-18.444,18.45l-3.465,3.462	c-0.482,0.479-1.055,0.717-1.734,0.717c-0.681,0-1.258-0.237-1.732-0.717l-3.467-3.462l-9.223-9.228	c-0.475-0.475-0.712-1.052-0.712-1.735c0-0.675,0.237-1.252,0.712-1.727l3.462-3.467c0.475-0.475,1.058-0.712,1.737-0.712	c0.675,0,1.252,0.237,1.734,0.712l7.488,7.517l16.713-16.739c0.475-0.475,1.057-0.717,1.731-0.717c0.681,0,1.258,0.242,1.74,0.717	l3.459,3.467C553.26,670.585,553.5,671.162,553.5,671.838"/></svg>