<svg xmlns="http://www.w3.org/2000/svg" id="Layer_1" width="511.487" height="412.5" x="0" y="0" enable-background="new 28.342 0 511.487 412.5" version="1.1" viewBox="28.342 0 511.487 412.5" xml:space="preserve"><g><path fill="#E4F2FC" d="M539.799,176.364c-0.944-34.059-28.412-62.53-60.688-62.792c-14.17-0.112-28.345-0.027-42.521-0.016 c-12.815,0.009-17.832,4.021-21.1,16.926c-6.328,24.962-12.634,49.929-18.947,74.893c-6.748,26.678-13.358,53.398-20.366,80.002 c-1.414,5.375-0.232,6.584,4.664,6.281c5.745-0.352,11.525-0.082,17.292-0.082c16.577,0,20.38-3.102,24.687-20.035 c9.146-35.961,18.395-71.896,27.354-107.907c1.189-4.775,2.992-6.725,7.767-6.362c5.732,0.438,11.522,0.012,17.291,0.124 c12.567,0.248,22.255,10.085,22.526,22.759c0.271,12.656-9.045,23.236-21.412,24.058c-4.549,0.301-9.133-0.068-13.688,0.166 c-8.221,0.418-14.146,5.053-16.519,13.352c-2.424,8.481-4.229,17.164-6.594,25.67c-0.968,3.473-0.149,4.592,3.155,4.539 c6.966-0.109,13.933-0.033,20.9-0.033c0-0.053,0-0.107,0.003-0.164c6.239,0,12.508,0.352,18.729-0.057 C515.285,245.525,540.837,213.717,539.799,176.364"/></g><g><path fill="#2887C8" d="M407.283,129.961c0.549,0.125,1.009,0.39,1.394,0.733c0.063-0.248,0.132-0.498,0.198-0.745 c2.242-8.391,5.189-12.471,11.227-14.105c-0.166-0.416-0.273-0.863-0.295-1.333c-0.022-0.539,0.107-1.053,0.336-1.52 c-7.543,1.735-11.311,6.477-13.926,16.248c-0.059,0.22-0.117,0.436-0.176,0.656C406.459,129.858,406.878,129.87,407.283,129.961"/></g><g><path fill="#2887C8" d="M449.898,156.347c3.592,0.26,7.231,0.204,10.76,0.15c2.199-0.034,4.401-0.065,6.604-0.027 c11.815,0.222,20.922,8.914,21.179,20.221c0.019,0.793-0.019,1.574-0.089,2.349c0.963,0.06,1.953,0.51,2.611,1.219 c0.16-1.188,0.253-2.396,0.226-3.63c-0.289-12.81-10.554-22.661-23.877-22.908c-2.225-0.038-4.464-0.005-6.697,0.027 c-3.461,0.053-7.046,0.11-10.521-0.143c-6.012-0.44-7.998,2.506-9.192,7.049c-6.588,25.085-13.445,50.554-20.074,75.181 c-2.43,9.021-4.855,18.037-7.279,27.06c-4.146,15.442-7.418,17.965-23.357,17.965c-1.737,0-3.477-0.023-5.215-0.047 c-3.983-0.056-8.104-0.109-12.157,0.129c-2.529,0.141-3.323-0.174-3.562-0.467c-0.207-0.257-0.438-1.08,0.307-3.746 c5.205-18.724,10.271-37.814,15.168-56.277c1.729-6.514,3.457-13.029,5.195-19.541l6.226-23.325 c3.271-12.254,6.543-24.506,9.819-36.762c-0.914,0.273-1.936,0.205-2.799-0.186c-3.227,12.079-6.457,24.159-9.677,36.237 l-6.226,23.325c-1.738,6.515-3.467,13.03-5.197,19.545c-4.896,18.455-9.96,37.541-15.162,56.244 c-0.641,2.299-1.061,4.643,0.206,6.211c0.991,1.229,2.678,1.527,4.501,1.527c0.447,0,0.904-0.019,1.361-0.043 c3.959-0.23,8.029-0.179,11.959-0.125c1.752,0.022,3.502,0.047,5.252,0.047c17.173,0,21.547-3.363,26.015-20 c2.421-9.021,4.852-18.039,7.278-27.06c6.632-24.629,13.487-50.101,20.079-75.196C444.655,157.195,446.053,156.071,449.898,156.347"/></g><g><path fill="#2887C8" d="M530.482,173.106c0.188,6.372-0.535,12.571-2.017,18.47c0.235,0.012,0.471,0.043,0.711,0.096 c0.703,0.161,1.326,0.592,1.794,1.162c1.649-6.312,2.459-12.965,2.259-19.807c-0.975-33.289-28.812-60.578-62.051-60.83 c-10.34-0.08-20.852-0.058-31.018-0.036l-11.514,0.019c-0.128,0-0.24,0.007-0.365,0.007c0.528,0.638,0.867,1.446,0.903,2.326 c0.009,0.142-0.016,0.277-0.026,0.417l11.008-0.02c4.734-0.009,9.543-0.019,14.375-0.019c5.536,0,11.104,0.012,16.618,0.056 C502.398,115.185,529.566,141.817,530.482,173.106"/></g><g><path fill="#2887C8" d="M525.115,204.461c-0.396-0.09-0.754-0.273-1.078-0.498c-3.488,7.361-8.25,13.945-13.985,19.38 c0.202,0.125,0.395,0.267,0.563,0.421c0.585,0.536,0.895,1.19,0.994,1.875c6.297-5.89,11.477-13.101,15.2-21.174 C526.269,204.581,525.695,204.594,525.115,204.461"/></g><g><path fill="#2887C8" d="M500.648,231.514c-0.134-0.205-0.232-0.426-0.313-0.656c-7.759,4.818-16.595,7.83-26.03,8.418 c-4.207,0.263-8.528,0.188-12.703,0.117c-1.982-0.031-3.963-0.065-5.939-0.065h-1.327l-0.006,0.155l-4.73-0.014 c-4.865-0.012-9.901-0.027-14.858,0.045c-1.768,0.008-2.027-0.303-2.054-0.34c-0.032-0.041-0.28-0.439,0.235-2.197 c1.132-3.852,2.146-7.793,3.128-11.602c1.082-4.189,2.197-8.52,3.463-12.715c2.191-7.26,7.471-11.299,15.269-11.675 c2.115-0.101,4.287-0.078,6.39-0.055c2.397,0.024,4.871,0.053,7.319-0.104c7.629-0.479,14.19-4.341,18.273-10.014 c-0.952,0.005-1.913-0.353-2.646-1.019c-3.642,4.709-9.292,7.879-15.801,8.289c-2.351,0.148-4.78,0.121-7.117,0.096 c-2.146-0.02-4.359-0.043-6.551,0.063c-8.938,0.431-15.248,5.271-17.767,13.626c-1.283,4.246-2.407,8.607-3.496,12.822 c-0.976,3.787-1.985,7.705-3.104,11.51c-0.431,1.465-0.794,3.314,0.213,4.639c0.993,1.305,2.813,1.443,4.284,1.426 c4.932-0.072,9.947-0.057,14.808-0.045c2.025,0.006,4.047,0.014,6.069,0.014l1.292-0.149c1.534,0.01,3.067,0.035,4.606,0.062 c4.23,0.069,8.607,0.145,12.918-0.123c10.077-0.629,19.501-3.888,27.734-9.103C501.605,232.627,501.063,232.158,500.648,231.514"/></g><g><path fill="#E4F0CC" d="M390.128,155.123c-18.04,0.369-36.28-2.06-54.089,0.929c-30.012,3.403-53.457,32.43-53.457,67.733 c0,37.592,26.583,68.068,59.376,68.068l-0.005-0.006c4.018,0.309,8.318,0.368,12.947,0.196c2.789-0.106,4.945-0.067,5.807-3.938 c2.173-9.804,5.008-19.435,7.186-29.238c1.442-6.48-1.561-10.568-7.722-11.031c-4.308-0.318-8.651,0-12.966-0.275 c-13.499-0.854-22.829-10.754-22.682-23.887c0.15-13.494,9.985-23.611,23.523-23.982c6.969-0.188,13.941,0.105,20.908-0.094 c8.839-0.253,14.645-4.792,17.133-13.744c2.408-8.664,4.271-17.502,6.502-26.226C393.268,156.983,393.568,155.054,390.128,155.123"/></g><g><path fill="#0B9D49" d="M294.348,172.028c0.469,0.249,0.857,0.644,1.158,1.106c3.204-3.11,6.719-5.872,10.537-8.164 c-0.791-0.486-1.419-1.256-1.663-2.144c-0.007-0.023-0.007-0.048-0.014-0.073c-4.089,2.482-7.851,5.48-11.257,8.865 C293.523,171.684,293.938,171.811,294.348,172.028"/></g><g><path fill="#0B9D49" d="M355.309,267.945c-0.178-0.094-0.33-0.209-0.479-0.324c-0.973,3.523-1.939,7.098-2.795,10.674 c-0.59,2.471-1.668,2.508-4.271,2.594l-0.242,0.008c-4.599,0.16-8.903,0.099-12.801-0.178l-2.05-0.143l0.034,0.109 c-31.096-1.084-56.08-28.398-56.08-61.822c0-13.401,3.97-25.82,10.761-35.973c-0.301-0.156-0.592-0.344-0.864-0.59 c-0.473-0.434-0.771-1.028-0.929-1.667c-7.38,10.725-11.718,23.942-11.718,38.231c0,35.625,27.252,64.604,60.748,64.604h0.025 c2.51,0.178,5.178,0.264,7.979,0.264c1.618,0,3.283-0.028,4.988-0.086l0.239-0.01c2.709-0.09,5.775-0.193,6.854-4.703 c0.843-3.524,1.802-7.063,2.763-10.555C356.725,268.432,355.955,268.291,355.309,267.945"/></g><g><path fill="#0B9D49" d="M386.445,154.991c-0.701-0.896-1.875-1.304-3.678-1.283c-6.101,0.118-12.353-0.072-18.396-0.252 c-11.803-0.355-24.004-0.716-35.809,1.123c-4.233,0.445-8.324,1.357-12.239,2.655c0.47,0.455,0.834,1.011,0.995,1.608 c0.091,0.317,0.115,0.625,0.117,0.927c3.674-1.203,7.51-2.046,11.484-2.465c11.62-1.815,23.691-1.448,35.365-1.102 c6.079,0.182,12.352,0.37,18.538,0.255c1.174-0.01,1.446,0.221,1.446,0.221c0.09,0.137,0.102,0.633-0.336,2.222 c-0.904,3.284-1.75,6.582-2.594,9.882c-1.217,4.76-2.476,9.684-3.9,14.453c-2.311,7.709-7.496,11.564-15.852,11.787 c-3.492,0.09-7.063,0.067-10.515,0.044c-3.402-0.021-6.925-0.042-10.394,0.043c-14.248,0.36-24.707,10.299-24.865,23.634 c-0.157,13.043,9.703,22.739,23.973,23.58c2.111,0.122,4.252,0.118,6.313,0.114c2.178-0.008,4.451-0.01,6.644,0.142 c2.678,0.188,4.672,1.069,5.768,2.56c1.06,1.442,1.304,3.516,0.712,5.993c-0.64,2.671-1.347,5.347-2.066,8.007 c0.188-0.037,0.383-0.07,0.584-0.08c0.754-0.033,1.486,0.237,2.101,0.688c0.714-2.646,1.419-5.309,2.056-7.973 c0.789-3.289,0.386-6.146-1.17-8.26c-1.586-2.16-4.283-3.435-7.797-3.679c-2.287-0.16-4.607-0.16-6.834-0.146 c-2.021,0.002-4.119,0.006-6.146-0.111c-12.729-0.75-21.522-9.305-21.385-20.801c0.143-11.801,9.472-20.599,22.184-20.918 c3.428-0.089,6.923-0.067,10.309-0.044c3.476,0.027,7.064,0.049,10.603-0.047c9.565-0.253,15.76-4.878,18.414-13.747 c1.444-4.822,2.706-9.773,3.935-14.559c0.836-3.284,1.678-6.565,2.573-9.829C386.969,158.247,387.492,156.345,386.445,154.991"/></g><path fill="#0083D3" d="M91.393,55.844h239.593v296.339H91.393V55.844z"/><path fill="#F5BE9A" d="M394.037,352.183l-18.915-18.915v-56.746c0-10.444-8.47-18.914-18.916-18.914h-25.22v25.223l-15.764-15.766	c-5.226-5.224-13.691-5.224-18.914,0c-5.227,5.227-5.227,13.691,0,18.916l28.371,28.373c-13.931,13.93-13.931,36.513,0,50.439	l31.523,31.524L394.037,352.183z"/><path fill="#35B4FF" d="M122.918,87.369h44.135v56.746h-44.135V87.369z"/><g><path fill="#35B4FF" d="M192.274,81.064h12.61v12.609h-12.61V81.064z"/><path fill="#35B4FF" d="M217.494,81.064h88.271v12.609h-88.271V81.064L217.494,81.064z"/><path fill="#35B4FF" d="M192.274,106.285h94.576v12.609h-94.576V106.285L192.274,106.285z"/><path fill="#7ECCE6" d="M116.613,175.641h12.61v12.609h-12.61V175.641z"/><path fill="#35B4FF" d="M141.833,175.641h163.933v12.609H141.833V175.641z"/><path fill="#7ECCE6" d="M116.613,200.861h12.61v12.61h-12.61V200.861z"/><path fill="#35B4FF" d="M141.833,200.861h163.933v12.61H141.833V200.861z"/><path fill="#7ECCE6" d="M116.613,226.082h12.61v12.609h-12.61V226.082z"/><path fill="#35B4FF" d="M141.833,226.082h163.933v12.609H141.833V226.082z"/><path fill="#92E57F" d="M280.545,314.353h12.609v12.61h-12.609V314.353z"/><path fill="#ED865D" d="M255.325,314.353h12.61v12.61h-12.61V314.353z"/><path fill="#E5E57F" d="M230.104,314.353h12.61v12.61h-12.61V314.353z"/></g><path fill="#F5BE9A" d="M28.342,352.183l18.916-18.915v-56.746c0-10.444,8.469-18.914,18.915-18.914h25.221v25.223l15.763-15.766	c5.223-5.224,13.692-5.224,18.915,0c5.223,5.227,5.223,13.691,0,18.916l-28.373,28.373c13.929,13.93,13.929,36.513,0,50.439	l-31.525,31.524L28.342,352.183z"/><path fill="#7ECCE6" d="M160.172,334.514c1.384-2.26,9.083-7.281,11.618-3.457c4.104,6.271,16.413,4.748,22.453,4.656	c-6.777,3.645-14.431,3.918-22.131,4.012C166.534,339.816,160.956,338.34,160.172,334.514z"/><path fill="#35B4FF" d="M205.631,276.883c9.451,5.44-28.538,14.432-61.319,18.535c-10.742,1.336-13.738,20.239-0.506,24.85	c-14.938-9.082,53.757-10.004,67.772-20.283C217.94,295.279,222.966,283.338,205.631,276.883z"/><path fill="#35B4FF" d="M214.989,311.186c-0.875,11.203-49.377,0.691-59.382,16.092c-1.89,2.857-1.015,6.226,0.462,7.562	c2.213,2.028,7.422,4.657,12.309,4.657c-6.777-2.77,22.223-7.653,30.43-9.313C207.751,328.383,215.958,316.119,214.989,311.186z"/><path fill="#7ECCE6" d="M183.593,262.545c-0.139,0.415-0.6,0.737-0.969,0.737h-6.776c-0.415,0-0.6-0.322-0.462-0.737l2.352-6.961	c0.139-0.416,0.6-0.738,0.969-0.738h6.777c0.414,0,0.6,0.322,0.461,0.738L183.593,262.545z"/><path fill="#7ECCE6" d="M177.645,276.055c-0.139,0.461-0.646,0.828-1.106,0.828h-7.7c-0.461,0-0.691-0.367-0.553-0.828l2.674-7.933	c0.139-0.461,0.646-0.828,1.107-0.828h7.699c0.461,0,0.691,0.367,0.553,0.828L177.645,276.055z"/><path fill="#7ECCE6" d="M188.987,273.748c-0.092,0.322-0.415,0.555-0.738,0.555h-5.025c-0.276,0-0.461-0.23-0.368-0.555l1.752-5.162	c0.092-0.322,0.415-0.555,0.737-0.555h5.025c0.277,0,0.461,0.23,0.369,0.555L188.987,273.748z"/><path fill="#7ECCE6" d="M198.761,271.074c-0.092,0.277-0.414,0.554-0.691,0.554h-4.841c-0.276,0-0.415-0.229-0.323-0.554	l1.707-4.934c0.092-0.275,0.414-0.555,0.691-0.555h4.841c0.276,0,0.415,0.229,0.322,0.555L198.761,271.074z"/><path fill="#7ECCE6" d="M202.495,263.561c-0.092,0.275-0.414,0.506-0.691,0.506h-4.748c-0.277,0-0.415-0.229-0.323-0.506l1.66-4.889	c0.092-0.275,0.415-0.508,0.691-0.508h4.749c0.276,0,0.414,0.23,0.322,0.508L202.495,263.561z"/><path fill="#7ECCE6" d="M207.476,267.479c-0.093,0.23-0.323,0.414-0.554,0.414h-3.735c-0.23,0-0.322-0.184-0.275-0.414l1.291-3.826	c0.092-0.229,0.322-0.416,0.553-0.416h3.734c0.23,0,0.322,0.188,0.276,0.416L207.476,267.479z"/><path fill="#7ECCE6" d="M214.944,258.305c-0.047,0.184-0.23,0.322-0.416,0.322h-2.904c-0.184,0-0.276-0.141-0.184-0.322l1.014-2.951	c0.046-0.186,0.23-0.321,0.415-0.321h2.904c0.185,0,0.276,0.139,0.185,0.321L214.944,258.305z"/><path fill="#7ECCE6" d="M208.904,261.762c-0.093,0.229-0.323,0.414-0.554,0.414h-3.734c-0.23,0-0.322-0.185-0.276-0.414l1.291-3.873	c0.092-0.229,0.323-0.414,0.554-0.414h3.734c0.23,0,0.322,0.186,0.275,0.414L208.904,261.762z"/><path fill="#7ECCE6" d="M194.059,263.329c-0.138,0.368-0.507,0.646-0.876,0.646h-5.901c-0.368,0-0.554-0.275-0.415-0.646	l2.074-6.086c0.139-0.367,0.508-0.646,0.877-0.646h5.9c0.369,0,0.554,0.275,0.416,0.646L194.059,263.329z"/><path fill="#7ECCE6" d="M168.333,256.967c-17.336,3.918-29.277,14.199-32.089,29.368c1.798-5.257,15.583-8.206,26.647-9.452	c1.799-5.81,4.564-15.029,6.179-20.056L168.333,256.967z"/><path fill="#7ECCE6" d="M166.949,275.916c0.046-0.188,0.23-0.785,0.415-1.385l1.982-5.764c0.185-0.601,0.646-1.477,1.061-1.938	c0.369-0.463,2.213-0.877,2.858-0.877h5.44c0.6,0,1.613,0.14,2.213,0.275c0,0,0.139,0.045,0.461,0.506	c0.369,0.51,0.369,0.738,0.369,0.738c-0.047,0.602-0.277,1.613-0.461,2.213l-1.614,4.564c-0.185,0.6,0.139,0.922,0.737,0.783	l0.23-0.047c0.6-0.187,1.061-0.508,0.969-0.736c-0.046-0.23,0.23-1.383,0.415-1.982l1.015-2.996c0.184-0.601,0.6-1.385,0.922-1.799	c0.322-0.414,1.936-0.738,2.582-0.738h2.582c0.599,0,1.152-0.319,1.152-0.688s-0.461-0.69-1.107-0.69h-0.737	c-0.599,0-1.613-0.14-2.213-0.274c0,0-0.046,0-0.368-0.462c-0.323-0.461-0.323-0.555-0.323-0.555	c0.046-0.601,0.276-1.611,0.461-2.213l0.6-1.752c0.185-0.601,0.23-1.15,0.092-1.291c-0.138-0.14-0.461,0.276-0.646,0.877	l-0.783,2.258c-0.185,0.602-0.646,1.432-1.015,1.893c-0.368,0.461-2.12,0.83-2.767,0.83h-4.518c-0.6,0-1.613-0.141-2.213-0.277	c0,0-0.093,0-0.415-0.506c-0.369-0.508-0.323-0.646-0.323-0.646c0.047-0.6,0.277-1.61,0.461-2.213l1.338-3.965	c0.184-0.6-0.139-1.014-0.738-0.922l-5.117,0.6c-0.6,0.094-1.245,0.187-1.383,0.276c-0.139,0.093-0.508,0.876-0.691,1.476	l-5.395,16.922c-0.185,0.601-0.323,1.197-0.323,1.29c0,0.141,0.83,0.141,1.429,0.094l2.214-0.229	c0.599-0.045,1.106-0.093,1.106-0.093S166.903,276.055,166.949,275.916z"/></svg>