<svg xmlns="http://www.w3.org/2000/svg" id="Layer_1" width="480.564" height="412.5" x="0" y="0" enable-background="new 28.342 0 480.564 412.5" version="1.1" viewBox="28.342 0 480.564 412.5" xml:space="preserve"><g><path fill="#E4F2FC" d="M413.521,67.647c-30.773,24.09-64.586,32.547-95.386,34.944v101.336 c0,50.565,95.386,113.918,95.386,113.918s95.385-63.354,95.385-113.918V102.591C478.106,100.195,444.294,91.737,413.521,67.647"/></g><g><path fill="#2887C8" d="M402.398,311.826c-0.051,0-0.103-0.015-0.146-0.043c-0.238-0.154-24.138-15.699-47.729-37.068 c-13.858-12.555-24.903-24.637-32.825-35.908c-9.923-14.115-14.953-27.004-14.953-38.303V178.59c0-0.147,0.119-0.267,0.267-0.267 c0.148,0,0.268,0.12,0.268,0.267v21.914c0,11.188,4.998,23.971,14.854,37.993c7.899,11.239,18.917,23.291,32.746,35.817 c22.6,20.474,45.482,35.595,47.52,36.929c2.57-1.687,38.188-25.244,64.902-54.007c0.102-0.106,0.271-0.112,0.377-0.014 c0.108,0.101,0.114,0.271,0.016,0.377c-27.639,29.756-64.778,53.943-65.149,54.185 C402.499,311.813,402.448,311.826,402.398,311.826z M473.465,250.99c-0.061,0-0.123-0.021-0.172-0.064 c-0.113-0.094-0.127-0.264-0.031-0.375c1.205-1.414,2.299-2.732,3.343-4.031c0.093-0.115,0.262-0.133,0.375-0.041 c0.114,0.092,0.134,0.26,0.04,0.375c-1.047,1.304-2.144,2.625-3.352,4.043C473.615,250.959,473.541,250.99,473.465,250.99z M482.852,238.619c-0.049,0-0.1-0.014-0.146-0.043c-0.123-0.081-0.157-0.246-0.077-0.369c9.542-14.541,12.197-22.529,14.883-37.727 v-98.521c-37.773-2.899-68.891-14.016-95.113-33.977c-26.225,19.961-57.342,31.078-95.119,33.977v18.224 c0,0.147-0.118,0.267-0.266,0.267s-0.268-0.119-0.268-0.267v-18.471c0-0.139,0.107-0.255,0.246-0.266 c37.859-2.868,69.014-13.993,95.244-34.012c0.096-0.073,0.228-0.073,0.322,0c26.229,20.019,57.384,31.144,95.239,34.012 c0.139,0.011,0.246,0.126,0.246,0.266v98.792c0,0.016-0.001,0.031-0.004,0.047c-2.701,15.292-5.369,23.324-14.967,37.95 C483.024,238.578,482.939,238.619,482.852,238.619z M307.014,167.371c-0.147,0-0.268-0.119-0.268-0.267v-20.475 c0-0.147,0.119-0.267,0.268-0.267c0.146,0,0.266,0.12,0.266,0.267v20.475C307.279,167.251,307.16,167.371,307.014,167.371z M307.014,135.41c-0.147,0-0.268-0.12-0.268-0.267v-6.039c0-0.147,0.119-0.267,0.268-0.267c0.146,0,0.266,0.12,0.266,0.267v6.039 C307.279,135.29,307.16,135.41,307.014,135.41z"/></g><g><path fill="#179BD7" d="M419.262,156.375c-3.396-12.677-16.475-20.228-29.158-16.846c-12.676,3.397-20.227,16.475-16.83,29.153 l2.145,7.998l-0.159,0.041c-3.348,0.896-5.34,4.351-4.442,7.701l8.967,33.461c0.898,3.352,4.352,5.342,7.701,4.445l46.672-12.508 c3.347-0.896,5.34-4.349,4.444-7.697l-8.963-33.446c-0.897-3.351-4.352-5.344-7.7-4.446l-0.529,0.143L419.262,156.375z M401.505,192.899c-1.851-0.711-3.038-2.072-3.552-3.997c-0.711-2.779,0.615-5.517,3.236-6.822c2.354-1.168,5.377-0.469,7.1,1.638 c1.77,2.158,1.785,5.157,0.002,7.396c-0.352,0.448-0.373,0.805-0.239,1.306c0.677,2.452,1.333,4.911,1.991,7.368l0.004,0.015 c0.547,2.034-1.188,4.142-3.624,3.622c-1.03-0.211-1.815-1.071-2.042-2.103c-0.656-2.457-1.313-4.899-1.953-7.36 C402.281,193.411,402.068,193.117,401.505,192.899 M411.342,167.069L385.486,174l-2.145-8c-1.908-7.121,2.326-14.479,9.465-16.392 c7.121-1.909,14.479,2.326,16.392,9.463L411.342,167.069z"/></g><g><path fill="#0B9D49" d="M339.034,171.485"/><path fill="#0B9D49" d="M339.034,170.952"/></g><g><path fill="none" d="M374.906,171.218"/></g><g><path fill="#0B9D49" d="M374.906,170.952c0.146,0,0.267,0.12,0.267,0.267c0,0.147-0.118,0.267-0.267,0.267"/><path fill="#0B9D49" d="M346.518,170.952"/></g><g><path fill="none" d="M433.332,224.813"/></g><g><path fill="#0B9D49" d="M387.499,204.444"/><path fill="#0B9D49" d="M391.534,208.391"/><path fill="#0B9D49" d="M393.878,204.593"/><path fill="#0B9D49" d="M397.527,204.444"/><path fill="#0B9D49" d="M404.707,207.471"/><path fill="#0B9D49" d="M397.527,189.788"/><path fill="#0B9D49" d="M395.154,193.704"/><path fill="#0B9D49" d="M397.527,196.998"/></g><g><path fill="#0B9D49" d="M440.166,193.496"/></g><g><path fill="#0B9D49" d="M294.348,172.028c0.469,0.249,0.857,0.644,1.158,1.106c3.204-3.11,6.719-5.872,10.537-8.164 c-0.791-0.486-1.419-1.256-1.663-2.144c-0.007-0.023-0.007-0.048-0.014-0.073c-4.089,2.482-7.851,5.48-11.257,8.865 C293.523,171.684,293.938,171.811,294.348,172.028"/></g><g><path fill="#0B9D49" d="M355.309,267.945c-0.178-0.094-0.33-0.209-0.479-0.324c-0.973,3.523-1.939,7.098-2.795,10.674 c-0.59,2.471-1.668,2.508-4.271,2.594l-0.242,0.008c-4.599,0.16-8.903,0.099-12.801-0.178l-2.05-0.143l0.034,0.109 c-31.096-1.084-56.08-28.398-56.08-61.822c0-13.401,3.97-25.82,10.761-35.973c-0.301-0.156-0.592-0.344-0.864-0.59 c-0.473-0.434-0.771-1.028-0.929-1.667c-7.38,10.725-11.718,23.942-11.718,38.231c0,35.625,27.252,64.604,60.748,64.604h0.025 c2.51,0.178,5.178,0.264,7.979,0.264c1.618,0,3.283-0.028,4.988-0.086l0.239-0.01c2.709-0.09,5.775-0.193,6.854-4.703 c0.843-3.524,1.802-7.063,2.763-10.555C356.725,268.432,355.955,268.291,355.309,267.945"/></g><path fill="#0083D3" d="M91.393,55.844h239.593v296.339H91.393V55.844z"/><path fill="#F5BE9A" d="M394.037,352.183l-18.915-18.915v-56.746c0-10.444-8.47-18.914-18.916-18.914h-25.22v25.223l-15.764-15.766	c-5.226-5.224-13.691-5.224-18.914,0c-5.227,5.227-5.227,13.691,0,18.916l28.371,28.373c-13.931,13.93-13.931,36.513,0,50.439	l31.523,31.524L394.037,352.183z"/><path fill="#35B4FF" d="M122.918,87.369h44.135v56.746h-44.135V87.369z"/><g><path fill="#35B4FF" d="M192.274,81.064h12.61v12.609h-12.61V81.064z"/><path fill="#35B4FF" d="M217.494,81.064h88.271v12.609h-88.271V81.064L217.494,81.064z"/><path fill="#35B4FF" d="M192.274,106.285h94.576v12.609h-94.576V106.285L192.274,106.285z"/><path fill="#7ECCE6" d="M116.613,175.641h12.61v12.609h-12.61V175.641z"/><path fill="#35B4FF" d="M141.833,175.641h163.933v12.609H141.833V175.641z"/><path fill="#7ECCE6" d="M116.613,200.861h12.61v12.61h-12.61V200.861z"/><path fill="#35B4FF" d="M141.833,200.861h163.933v12.61H141.833V200.861z"/><path fill="#7ECCE6" d="M116.613,226.082h12.61v12.609h-12.61V226.082z"/><path fill="#35B4FF" d="M141.833,226.082h163.933v12.609H141.833V226.082z"/><path fill="#92E57F" d="M280.545,314.353h12.609v12.61h-12.609V314.353z"/><path fill="#ED865D" d="M255.325,314.353h12.61v12.61h-12.61V314.353z"/><path fill="#E5E57F" d="M230.104,314.353h12.61v12.61h-12.61V314.353z"/></g><path fill="#F5BE9A" d="M28.342,352.183l18.916-18.915v-56.746c0-10.444,8.469-18.914,18.915-18.914h25.221v25.223l15.763-15.766	c5.223-5.224,13.692-5.224,18.915,0c5.223,5.227,5.223,13.691,0,18.916l-28.373,28.373c13.929,13.93,13.929,36.513,0,50.439	l-31.525,31.524L28.342,352.183z"/><path fill="#7ECCE6" d="M160.172,334.514c1.384-2.26,9.083-7.281,11.618-3.457c4.104,6.271,16.413,4.748,22.453,4.656	c-6.777,3.645-14.431,3.918-22.131,4.012C166.534,339.816,160.956,338.34,160.172,334.514z"/><path fill="#35B4FF" d="M205.631,276.883c9.451,5.44-28.538,14.432-61.319,18.535c-10.742,1.336-13.738,20.239-0.506,24.85	c-14.938-9.082,53.757-10.004,67.772-20.283C217.94,295.279,222.966,283.338,205.631,276.883z"/><path fill="#35B4FF" d="M214.989,311.186c-0.875,11.203-49.377,0.691-59.382,16.092c-1.89,2.857-1.015,6.226,0.462,7.562	c2.213,2.028,7.422,4.657,12.309,4.657c-6.777-2.77,22.223-7.653,30.43-9.313C207.751,328.383,215.958,316.119,214.989,311.186z"/><path fill="#7ECCE6" d="M183.593,262.545c-0.139,0.415-0.6,0.737-0.969,0.737h-6.776c-0.415,0-0.6-0.322-0.462-0.737l2.352-6.961	c0.139-0.416,0.6-0.738,0.969-0.738h6.777c0.414,0,0.6,0.322,0.461,0.738L183.593,262.545z"/><path fill="#7ECCE6" d="M177.645,276.055c-0.139,0.461-0.646,0.828-1.106,0.828h-7.7c-0.461,0-0.691-0.367-0.553-0.828l2.674-7.933	c0.139-0.461,0.646-0.828,1.107-0.828h7.699c0.461,0,0.691,0.367,0.553,0.828L177.645,276.055z"/><path fill="#7ECCE6" d="M188.987,273.748c-0.092,0.322-0.415,0.555-0.738,0.555h-5.025c-0.276,0-0.461-0.23-0.368-0.555l1.752-5.162	c0.092-0.322,0.415-0.555,0.737-0.555h5.025c0.277,0,0.461,0.23,0.369,0.555L188.987,273.748z"/><path fill="#7ECCE6" d="M198.761,271.074c-0.092,0.277-0.414,0.554-0.691,0.554h-4.841c-0.276,0-0.415-0.229-0.323-0.554	l1.707-4.934c0.092-0.275,0.414-0.555,0.691-0.555h4.841c0.276,0,0.415,0.229,0.322,0.555L198.761,271.074z"/><path fill="#7ECCE6" d="M202.495,263.561c-0.092,0.275-0.414,0.506-0.691,0.506h-4.748c-0.277,0-0.415-0.229-0.323-0.506l1.66-4.889	c0.092-0.275,0.415-0.508,0.691-0.508h4.749c0.276,0,0.414,0.23,0.322,0.508L202.495,263.561z"/><path fill="#7ECCE6" d="M207.476,267.479c-0.093,0.23-0.323,0.414-0.554,0.414h-3.735c-0.23,0-0.322-0.184-0.275-0.414l1.291-3.826	c0.092-0.229,0.322-0.416,0.553-0.416h3.734c0.23,0,0.322,0.188,0.276,0.416L207.476,267.479z"/><path fill="#7ECCE6" d="M214.944,258.305c-0.047,0.184-0.23,0.322-0.416,0.322h-2.904c-0.184,0-0.276-0.141-0.184-0.322l1.014-2.951	c0.046-0.186,0.23-0.321,0.415-0.321h2.904c0.185,0,0.276,0.139,0.185,0.321L214.944,258.305z"/><path fill="#7ECCE6" d="M208.904,261.762c-0.093,0.229-0.323,0.414-0.554,0.414h-3.734c-0.23,0-0.322-0.185-0.276-0.414l1.291-3.873	c0.092-0.229,0.323-0.414,0.554-0.414h3.734c0.23,0,0.322,0.186,0.275,0.414L208.904,261.762z"/><path fill="#7ECCE6" d="M194.059,263.329c-0.138,0.368-0.507,0.646-0.876,0.646h-5.901c-0.368,0-0.554-0.275-0.415-0.646	l2.074-6.086c0.139-0.367,0.508-0.646,0.877-0.646h5.9c0.369,0,0.554,0.275,0.416,0.646L194.059,263.329z"/><path fill="#7ECCE6" d="M168.333,256.967c-17.336,3.918-29.277,14.199-32.089,29.368c1.798-5.257,15.583-8.206,26.647-9.452	c1.799-5.81,4.564-15.029,6.179-20.056L168.333,256.967z"/><path fill="#7ECCE6" d="M166.949,275.916c0.046-0.188,0.23-0.785,0.415-1.385l1.982-5.764c0.185-0.601,0.646-1.477,1.061-1.938	c0.369-0.463,2.213-0.877,2.858-0.877h5.44c0.6,0,1.613,0.14,2.213,0.275c0,0,0.139,0.045,0.461,0.506	c0.369,0.51,0.369,0.738,0.369,0.738c-0.047,0.602-0.277,1.613-0.461,2.213l-1.614,4.564c-0.185,0.6,0.139,0.922,0.737,0.783	l0.23-0.047c0.6-0.187,1.061-0.508,0.969-0.736c-0.046-0.23,0.23-1.383,0.415-1.982l1.015-2.996c0.184-0.601,0.6-1.385,0.922-1.799	c0.322-0.414,1.936-0.738,2.582-0.738h2.582c0.599,0,1.152-0.319,1.152-0.688s-0.461-0.69-1.107-0.69h-0.737	c-0.599,0-1.613-0.14-2.213-0.274c0,0-0.046,0-0.368-0.462c-0.323-0.461-0.323-0.555-0.323-0.555	c0.046-0.601,0.276-1.611,0.461-2.213l0.6-1.752c0.185-0.601,0.23-1.15,0.092-1.291c-0.138-0.14-0.461,0.276-0.646,0.877	l-0.783,2.258c-0.185,0.602-0.646,1.432-1.015,1.893c-0.368,0.461-2.12,0.83-2.767,0.83h-4.518c-0.6,0-1.613-0.141-2.213-0.277	c0,0-0.093,0-0.415-0.506c-0.369-0.508-0.323-0.646-0.323-0.646c0.047-0.6,0.277-1.61,0.461-2.213l1.338-3.965	c0.184-0.6-0.139-1.014-0.738-0.922l-5.117,0.6c-0.6,0.094-1.245,0.187-1.383,0.276c-0.139,0.093-0.508,0.876-0.691,1.476	l-5.395,16.922c-0.185,0.601-0.323,1.197-0.323,1.29c0,0.141,0.83,0.141,1.429,0.094l2.214-0.229	c0.599-0.045,1.106-0.093,1.106-0.093S166.903,276.055,166.949,275.916z"/></svg>