<svg xmlns="http://www.w3.org/2000/svg" id="Layer_1" width="800" height="800" x="0" y="0" enable-background="new 0 0 800 800" version="1.0" viewBox="0 0 800 800" xml:space="preserve"><path fill="#E4F0CC" d="M775.626,198.031l-61.775,311.305c-1.999,10.094-11.386,16.701-20.887,14.813l-431.881-85.699	c-9.555-1.895-15.653-11.572-13.654-21.665l61.775-311.305c1.99-10.034,11.329-16.712,20.89-14.818l431.884,85.699	C771.476,178.248,777.616,187.997,775.626,198.031"/><path fill="none" stroke="#0B9D49" stroke-linecap="round" stroke-linejoin="round" stroke-miterlimit="10" d="M268.453,223.095	l8.648-43.572 M260.732,262.005l3.199-16.117 M281.638,156.67l11.006-55.485c1.888-9.501,11.141-15.74,20.695-13.846l9.788,1.942 M256.211,284.805l-22.045,111.09c-1.894,9.558,4.282,18.801,13.837,20.695l16.234,3.223"/><path fill="none" stroke="#0B9D49" stroke-linecap="round" stroke-linejoin="round" stroke-miterlimit="10" d="M759.065,193.734	l-58.483,294.718c-1.891,9.555-11.194,15.726-20.689,13.837l-16.287-3.229l-129.38-193.432l201.155-134.544l9.842,1.954	C754.721,174.927,760.948,184.236,759.065,193.734z"/><polygon fill="none" stroke="#0B9D49" stroke-linecap="round" stroke-linejoin="round" stroke-miterlimit="10" points="663.603 499.061 264.237 419.813 457.669 290.436 488.353 336.313 534.226 305.625"/><polyline fill="none" stroke="#0B9D49" stroke-linecap="round" stroke-linejoin="round" stroke-miterlimit="10" points="402.21 207.517 488.35 336.315 735.381 171.084 323.127 89.281 388.059 186.357"/><path fill="#E4F2FC" d="M589.98,312.496v363.37c0,11.784-9.07,21.297-20.157,21.297H65.709c-11.153,0-20.163-9.513-20.163-21.297	v-363.37c0-11.709,9.01-21.288,20.163-21.288h504.114C580.91,291.208,589.98,300.787,589.98,312.496"/><path fill="none" stroke="#2887C8" stroke-linecap="round" stroke-linejoin="round" stroke-miterlimit="10" d="M26,453.666v-50.859 M26,499.09v-18.813 M26,376.136v-64.771c0-11.087,9.001-20.157,20.157-20.157h11.422 M26,525.692v129.679	c0,11.149,9.001,20.15,20.157,20.15h18.948"/><path fill="none" stroke="#2887C8" stroke-linecap="round" stroke-linejoin="round" stroke-miterlimit="10" d="M570.428,311.365	v344.006c0,11.152-9.069,20.157-20.156,20.157h-19.011L342.859,487.127L538.78,291.208h11.491	C561.358,291.208,570.428,300.278,570.428,311.365z"/><polygon fill="none" stroke="#2887C8" stroke-linecap="round" stroke-linejoin="round" stroke-miterlimit="10" points="531.258 675.528 65.104 675.528 253.497 487.127 298.18 531.809 342.862 487.127"/><polyline fill="none" stroke="#2887C8" stroke-linecap="round" stroke-linejoin="round" stroke-miterlimit="10" points="172.738 406.367 298.183 531.809 538.783 291.208 57.579 291.208 152.129 385.756"/></svg>