<svg xmlns="http://www.w3.org/2000/svg" id="Layer_1" width="800" height="800" x="0" y="0" enable-background="new 0 0 800 800" version="1.0" viewBox="0 0 800 800" xml:space="preserve"><g><rect width="732.213" height="73.685" x="35" y="267.407" fill="#B6DDF5"/></g><g><path fill="#2887C8" d="M767.213,341.592H35c-0.276,0-0.5-0.224-0.5-0.5v-73.685c0-0.276,0.224-0.5,0.5-0.5h732.213 c0.276,0,0.5,0.224,0.5,0.5v73.685C767.713,341.369,767.489,341.592,767.213,341.592z M35.5,340.592h731.213v-72.685H35.5V340.592z"/></g><g><path fill="#B6DDF5" d="M35,267.407C35,267.407,272.867,20,401.113,20c128.232,0,366.1,247.407,366.1,247.407H35z"/></g><g><path fill="#2887C8" d="M767.232,267.907c-0.005,0-0.013,0.001-0.02,0H35c-0.201,0-0.381-0.12-0.46-0.304 c-0.079-0.184-0.04-0.398,0.1-0.542c0.595-0.619,60.351-62.581,135.008-123.744c43.855-35.929,84.198-64.559,119.908-85.093 C334.239,32.529,371.772,19.5,401.113,19.5c29.338,0,66.869,13.029,111.551,38.724c35.707,20.534,76.049,49.164,119.903,85.093 C706.028,203.502,765.063,264.46,767.5,266.984c0.14,0.088,0.232,0.245,0.232,0.423 C767.732,267.684,767.509,267.907,767.232,267.907z M36.181,266.907h729.852c-7.432-7.646-64.24-65.584-134.106-122.823 c-43.811-35.893-84.105-64.49-119.765-84.996C467.635,33.483,430.273,20.5,401.113,20.5c-29.163,0-66.527,12.983-111.056,38.588 c-35.661,20.506-75.957,49.103-119.769,84.996C100.421,201.323,43.612,259.261,36.181,266.907z"/></g><g><line x1="93.337" x2="93.337" y1="102.086" y2="163.115" fill="#FFF"/></g><g><path fill="#2887C8" d="M93.337,163.615c-0.276,0-0.5-0.224-0.5-0.5v-61.029c0-0.276,0.224-0.5,0.5-0.5s0.5,0.224,0.5,0.5v61.029 C93.837,163.391,93.613,163.615,93.337,163.615z"/></g><g><polyline fill="#FFF" points="116.833 62.785 93.337 62.785 93.337 77.309"/></g><g><path fill="#2887C8" d="M93.337,77.809c-0.276,0-0.5-0.224-0.5-0.5V62.785c0-0.276,0.224-0.5,0.5-0.5h23.496 c0.276,0,0.5,0.224,0.5,0.5s-0.224,0.5-0.5,0.5H93.837v14.024C93.837,77.585,93.613,77.809,93.337,77.809z"/></g><g><polyline fill="#FFF" points="93.337 187.896 93.337 607.964 708.883 607.964 708.883 206.049 565.497 62.785 141.669 62.785"/></g><g><path fill="#2887C8" d="M708.883,608.464H93.337c-0.276,0-0.5-0.224-0.5-0.5V187.896c0-0.276,0.224-0.5,0.5-0.5s0.5,0.224,0.5,0.5 v419.568h614.546V206.257L565.29,63.285H141.669c-0.276,0-0.5-0.224-0.5-0.5c0-0.276,0.224-0.5,0.5-0.5h423.828 c0.133,0,0.26,0.053,0.354,0.146l143.386,143.265c0.094,0.094,0.146,0.221,0.146,0.354v401.915 C709.383,608.24,709.159,608.464,708.883,608.464z"/></g><g><path fill="#0B9D49" d="M164.938,264.503c-0.192,0-0.384-0.073-0.53-0.22c-0.293-0.293-0.293-0.768,0-1.061l79.967-79.967h-58.702 c-0.414,0-0.75-0.336-0.75-0.75s0.336-0.75,0.75-0.75h60.51c0.006,0,0.018,0,0.027,0h0c0,0,0.001,0,0.001,0 c0.089,0.003,0.175,0.021,0.254,0.053c0.085,0.034,0.166,0.085,0.236,0.152c0,0-0.001,0,0.001,0.001c0,0,0,0.001,0.001,0.001 c0,0,0,0,0,0c0.008,0.008,0.016,0.016,0.023,0.023c0,0,0,0,0,0c0,0,0,0.002,0.002,0.002c0,0,0,0,0,0 c0.064,0.067,0.113,0.144,0.147,0.226c0,0,0,0,0,0.001v0c0.036,0.086,0.057,0.181,0.058,0.28l0,0c0,0,0,0.001,0,0.002v0 c0,0,0,0.001,0,0.002c0,0,0,0.001,0,0.002s0,0.001,0,0.002v60.508c0,0.414-0.336,0.75-0.75,0.75s-0.75-0.336-0.75-0.75v-58.698 l-79.967,79.967C165.322,264.43,165.13,264.503,164.938,264.503z"/></g><g><path fill="#0B9D49" d="M246.178,475.831h-63.852c-0.414,0-0.75-0.336-0.75-0.75V363.127c0-0.414,0.336-0.75,0.75-0.75h63.852 c0.414,0,0.75,0.336,0.75,0.75v111.954C246.928,475.495,246.592,475.831,246.178,475.831z M183.076,474.331h62.352V363.877h-62.352 V474.331z"/></g><g><path fill="#0B9D49" d="M341.979,475.831h-63.86c-0.414,0-0.75-0.336-0.75-0.75V299.14c0-0.414,0.336-0.75,0.75-0.75h63.86 c0.414,0,0.75,0.336,0.75,0.75v175.941C342.729,475.495,342.393,475.831,341.979,475.831z M278.869,474.331h62.36V299.89h-62.36 V474.331z"/></g><g><path fill="#0B9D49" d="M437.764,475.831h-63.859c-0.414,0-0.75-0.336-0.75-0.75V237.129c0-0.414,0.336-0.75,0.75-0.75h63.859 c0.414,0,0.75,0.336,0.75,0.75v237.952C438.514,475.495,438.178,475.831,437.764,475.831z M374.654,474.331h62.359V237.879h-62.359 V474.331z"/></g><g><path fill="#0B9D49" d="M533.557,475.831h-63.859c-0.414,0-0.75-0.336-0.75-0.75V313.604c0-0.414,0.336-0.75,0.75-0.75h63.859 c0.414,0,0.75,0.336,0.75,0.75v161.477C534.307,475.495,533.971,475.831,533.557,475.831z M470.447,474.331h62.359V314.354h-62.359 V474.331z"/></g><g><path fill="#0B9D49" d="M629.343,475.831h-63.859c-0.414,0-0.75-0.336-0.75-0.75V173.823c0-0.414,0.336-0.75,0.75-0.75h63.859 c0.414,0,0.75,0.336,0.75,0.75v301.258C630.093,475.495,629.757,475.831,629.343,475.831z M566.233,474.331h62.359V174.573h-62.359 V474.331z"/></g><g><rect width="63.852" height="55.971" x="182.326" y="363.135" fill="#E4F0CC"/></g><g><path fill="#0B9D49" d="M246.178,419.855h-63.852c-0.414,0-0.75-0.336-0.75-0.75v-55.971c0-0.414,0.336-0.75,0.75-0.75h63.852 c0.414,0,0.75,0.336,0.75,0.75v55.971C246.928,419.52,246.592,419.855,246.178,419.855z M183.076,418.355h62.352v-54.471h-62.352 V418.355z"/></g><g><rect width="63.86" height="119.966" x="278.119" y="299.14" fill="#E4F0CC"/></g><g><path fill="#0B9D49" d="M341.979,419.855h-63.86c-0.414,0-0.75-0.336-0.75-0.75V299.14c0-0.414,0.336-0.75,0.75-0.75h63.86 c0.414,0,0.75,0.336,0.75,0.75v119.966C342.729,419.52,342.393,419.855,341.979,419.855z M278.869,418.355h62.36V299.89h-62.36 V418.355z"/></g><g><rect width="63.859" height="181.976" x="373.904" y="237.129" fill="#E4F0CC"/></g><g><path fill="#0B9D49" d="M437.764,419.855h-63.859c-0.414,0-0.75-0.336-0.75-0.75V237.129c0-0.414,0.336-0.75,0.75-0.75h63.859 c0.414,0,0.75,0.336,0.75,0.75v181.976C438.514,419.52,438.178,419.855,437.764,419.855z M374.654,418.355h62.359V237.879h-62.359 V418.355z"/></g><g><rect width="63.859" height="105.501" x="469.697" y="313.604" fill="#E4F0CC"/></g><g><path fill="#0B9D49" d="M533.557,419.855h-63.859c-0.414,0-0.75-0.336-0.75-0.75V313.604c0-0.414,0.336-0.75,0.75-0.75h63.859 c0.414,0,0.75,0.336,0.75,0.75v105.501C534.307,419.52,533.971,419.855,533.557,419.855z M470.447,418.355h62.359V314.354h-62.359 V418.355z"/></g><g><rect width="63.859" height="245.283" x="565.483" y="173.823" fill="#E4F0CC"/></g><g><path fill="#0B9D49" d="M629.343,419.855h-63.859c-0.414,0-0.75-0.336-0.75-0.75V173.823c0-0.414,0.336-0.75,0.75-0.75h63.859 c0.414,0,0.75,0.336,0.75,0.75v245.283C630.093,419.52,629.757,419.855,629.343,419.855z M566.233,418.355h62.359V174.573h-62.359 V418.355z"/></g><g><polygon fill="#FFF" points="708.883 206.053 565.49 206.053 565.49 62.788"/></g><g><path fill="#2887C8" d="M708.902,206.553c-0.005,0-0.013,0.001-0.02,0H565.49c-0.276,0-0.5-0.224-0.5-0.5V62.788 c0-0.202,0.122-0.384,0.309-0.462c0.187-0.078,0.402-0.034,0.545,0.108l143.318,143.191c0.145,0.088,0.24,0.246,0.24,0.427 C709.402,206.329,709.179,206.553,708.902,206.553z M565.99,205.553h141.685L565.99,63.995V205.553z"/></g><g><polyline fill="#E4F2FC" points="767.213 606.788 767.213 267.415 467.485 558.998 767.213 770 767.213 698.856"/></g><g><path fill="#2887C8" d="M767.213,770.5c-0.102,0-0.202-0.03-0.288-0.091L467.197,559.407c-0.121-0.086-0.198-0.222-0.21-0.37 c-0.012-0.147,0.043-0.294,0.149-0.397l299.728-291.583c0.144-0.14,0.358-0.182,0.543-0.102c0.186,0.078,0.306,0.259,0.306,0.46 v339.373c0,0.276-0.224,0.5-0.5,0.5s-0.5-0.224-0.5-0.5V268.599L468.266,558.937l298.447,210.1v-70.18c0-0.276,0.224-0.5,0.5-0.5 s0.5,0.224,0.5,0.5V770c0,0.187-0.104,0.357-0.27,0.443C767.371,770.481,767.292,770.5,767.213,770.5z"/></g><g><line x1="767.213" x2="767.213" y1="674.075" y2="631.573" fill="#E4F2FC"/></g><g><path fill="#2887C8" d="M767.213,674.575c-0.276,0-0.5-0.224-0.5-0.5v-42.502c0-0.276,0.224-0.5,0.5-0.5s0.5,0.224,0.5,0.5v42.502 C767.713,674.352,767.489,674.575,767.213,674.575z"/></g><g><polyline fill="#E4F2FC" points="35 592.455 35 769.997 334.728 558.998 35 267.407 35 378.739"/></g><g><path fill="#2887C8" d="M35,770.497c-0.079,0-0.158-0.019-0.23-0.057c-0.166-0.086-0.27-0.257-0.27-0.443V592.455 c0-0.276,0.224-0.5,0.5-0.5s0.5,0.224,0.5,0.5v176.578l298.447-210.097L35.5,268.591v110.147c0,0.276-0.224,0.5-0.5,0.5 s-0.5-0.224-0.5-0.5V267.407c0-0.201,0.12-0.382,0.306-0.46c0.183-0.08,0.397-0.039,0.543,0.102L335.076,558.64 c0.106,0.104,0.162,0.25,0.15,0.397c-0.012,0.148-0.089,0.284-0.211,0.37L35.288,770.406C35.202,770.467,35.101,770.497,35,770.497 z"/></g><g><line x1="35" x2="35" y1="486.825" y2="567.735" fill="#E4F2FC"/></g><g><path fill="#2887C8" d="M35,568.235c-0.276,0-0.5-0.224-0.5-0.5v-80.91c0-0.276,0.224-0.5,0.5-0.5s0.5,0.224,0.5,0.5v80.91 C35.5,568.012,35.276,568.235,35,568.235z"/></g><g><line x1="35" x2="35" y1="403.799" y2="461.286" fill="#E4F2FC"/></g><g><path fill="#2887C8" d="M35,461.786c-0.276,0-0.5-0.224-0.5-0.5v-57.487c0-0.276,0.224-0.5,0.5-0.5s0.5,0.224,0.5,0.5v57.487 C35.5,461.563,35.276,461.786,35,461.786z"/></g><g><path fill="#E4F2FC" d="M35,770c0,0,271.068-304.949,366.113-304.949c92.651,0,366.1,304.949,366.1,304.949H35z"/></g><g><path fill="#2887C8" d="M767.232,770.5c-0.005,0-0.013,0-0.02,0H35c-0.197,0-0.375-0.115-0.456-0.295s-0.048-0.39,0.083-0.537 c0.678-0.763,68.691-77.124,147.442-152.504c46.259-44.278,87.12-79.562,121.445-104.867 c42.974-31.682,75.811-47.746,97.599-47.746c21.243,0,53.739,16.064,96.588,47.746c34.225,25.307,75.12,60.589,121.552,104.866 c77.899,74.289,145.661,149.531,148.26,152.423c0.133,0.09,0.22,0.241,0.22,0.414C767.732,770.276,767.509,770.5,767.232,770.5z M36.117,769.5H766.09c-7.686-8.518-72.963-80.505-147.531-151.617c-104.502-99.656-179.693-152.332-217.445-152.332 c-38.731,0-114.236,52.677-218.353,152.336C108.468,688.998,43.736,760.982,36.117,769.5z"/></g></svg>