<svg xmlns="http://www.w3.org/2000/svg" xmlns:xlink="http://www.w3.org/1999/xlink" id="Layer_1" width="800" height="800" x="0" y="0" enable-background="new 0 0 800 800" version="1.1" viewBox="0 0 800 800" xml:space="preserve"><g><rect width="620.828" height="393.397" x="90.716" y="316.141" fill="#B6DDF5"/></g><g><path fill="#2887C8" d="M711.542,710.492H90.716c-0.527,0-0.955-0.429-0.955-0.954V316.141c0-0.528,0.428-0.955,0.955-0.955 h620.828c0.525,0,0.954,0.427,0.954,0.955v393.397C712.496,710.065,712.069,710.492,711.542,710.492z M91.67,708.583h618.92 V317.096H91.67V708.583z"/></g><g><path fill="#B6DDF5" d="M90.716,316.141c0,0,201.681-241.82,310.413-241.82c108.728,0,310.411,241.82,310.411,241.82H90.716z"/></g><g><path fill="#2887C8" d="M711.576,317.096c-0.01,0-0.022,0.002-0.038,0H90.716c-0.37,0-0.708-0.214-0.865-0.55 c-0.158-0.336-0.107-0.731,0.131-1.016c0.504-0.604,51.19-61.189,114.51-120.992c85.133-80.404,151.291-121.171,196.635-121.171 c45.342,0,111.501,40.768,196.633,121.171c61.703,58.277,111.411,117.297,114.373,120.83c0.24,0.173,0.396,0.455,0.396,0.773 C712.53,316.669,712.104,317.096,711.576,317.096z M92.767,315.187h616.717C691.841,294.373,503.598,75.276,401.127,75.276 C298.65,75.276,110.41,294.373,92.767,315.187z"/></g><g><path fill="#FFF" d="M662.075,190.616v357.451c0,19.133-15.511,34.643-34.648,34.643H174.825 c-19.137,0-34.647-15.51-34.647-34.643V190.616c0-19.134,15.51-34.645,34.647-34.645h452.602 C646.564,155.969,662.075,171.479,662.075,190.616"/></g><g><path fill="#2887C8" d="M627.427,583.664H174.825c-19.632,0-35.602-15.967-35.602-35.598V190.616 c0-19.63,15.972-35.599,35.602-35.599h452.602c19.632,0,35.603,15.971,35.603,35.599v357.451 C663.029,567.695,647.059,583.664,627.427,583.664z M174.825,156.924c-18.578,0-33.693,15.113-33.693,33.69v357.45 c0,18.575,15.115,33.688,33.693,33.688h452.602c18.579,0,33.694-15.113,33.694-33.688V190.616c0-18.577-15.115-33.69-33.694-33.69 H174.825V156.924z"/></g><g><path fill="#B6DDF5" d="M282.783,260.382h-15.728c-6.889,0-12.475-5.583-12.475-12.475v-15.724c0-6.889,5.586-12.475,12.475-12.475 h15.728c6.888,0,12.474,5.586,12.474,12.475v15.724C295.259,254.799,289.673,260.382,282.783,260.382"/></g><g><path fill="#2887C8" d="M282.783,261.337h-15.728c-7.404,0-13.43-6.025-13.43-13.43v-15.724c0-7.404,6.025-13.43,13.43-13.43 h15.728c7.403,0,13.428,6.025,13.428,13.43v15.724C296.213,255.312,290.188,261.337,282.783,261.337z M267.056,220.661 c-6.353,0-11.521,5.169-11.521,11.521v15.724c0,6.353,5.167,11.521,11.521,11.521h15.728c6.352,0,11.519-5.169,11.519-11.521 v-15.724c0-6.354-5.167-11.521-11.519-11.521H267.056z"/></g><g><path fill="#B6DDF5" d="M416.076,232.418h-97.538c-1.775,0-3.21-1.435-3.21-3.213c0-1.773,1.436-3.206,3.21-3.206h97.538 c1.775,0,3.215,1.432,3.215,3.206C419.291,230.983,417.852,232.418,416.076,232.418"/></g><g><path fill="#B6DDF5" d="M544.46,252.219H318.536c-1.769,0-3.213-1.435-3.213-3.208s1.442-3.208,3.213-3.208H544.46 c1.774,0,3.212,1.436,3.212,3.208S546.234,252.219,544.46,252.219"/></g><g><path fill="#B6DDF5" d="M282.783,338.521h-15.728c-6.889,0-12.475-5.585-12.475-12.475v-15.723c0-6.89,5.586-12.475,12.475-12.475 h15.728c6.888,0,12.474,5.585,12.474,12.475v15.723C295.259,332.936,289.673,338.521,282.783,338.521"/></g><g><path fill="#2887C8" d="M282.783,339.476h-15.728c-7.404,0-13.43-6.023-13.43-13.43v-15.723c0-7.405,6.025-13.43,13.43-13.43 h15.728c7.403,0,13.428,6.025,13.428,13.43v15.723C296.213,333.452,290.188,339.476,282.783,339.476z M267.056,298.8 c-6.353,0-11.521,5.169-11.521,11.521v15.723c0,6.353,5.167,11.521,11.521,11.521h15.728c6.352,0,11.519-5.169,11.519-11.521 v-15.723c0-6.354-5.167-11.521-11.519-11.521H267.056z"/></g><g><path fill="#B6DDF5" d="M416.076,310.558h-97.538c-1.775,0-3.21-1.435-3.21-3.212v-0.002c0-1.773,1.436-3.206,3.21-3.206h97.538 c1.775,0,3.215,1.432,3.215,3.206v0.002C419.291,309.121,417.852,310.558,416.076,310.558"/></g><g><path fill="#B6DDF5" d="M544.46,330.357H318.536c-1.769,0-3.213-1.435-3.213-3.21c0-1.773,1.442-3.208,3.213-3.208H544.46 c1.774,0,3.212,1.436,3.212,3.208C547.672,328.922,546.234,330.357,544.46,330.357"/></g><g><path fill="#B6DDF5" d="M282.783,416.66h-15.728c-6.889,0-12.475-5.588-12.475-12.476v-15.727c0-6.89,5.586-12.476,12.475-12.476 h15.728c6.888,0,12.474,5.585,12.474,12.476v15.727C295.259,411.074,289.673,416.66,282.783,416.66"/></g><g><path fill="#2887C8" d="M282.783,417.614h-15.728c-7.404,0-13.43-6.025-13.43-13.43v-15.727c0-7.405,6.025-13.43,13.43-13.43 h15.728c7.403,0,13.428,6.025,13.428,13.43v15.727C296.213,411.591,290.188,417.614,282.783,417.614z M267.056,376.937 c-6.353,0-11.521,5.169-11.521,11.521v15.727c0,6.353,5.167,11.521,11.521,11.521h15.728c6.352,0,11.519-5.17,11.519-11.521 v-15.727c0-6.354-5.167-11.521-11.519-11.521H267.056z"/></g><g><path fill="#B6DDF5" d="M416.076,388.695h-97.538c-1.775,0-3.21-1.436-3.21-3.208c0-1.778,1.436-3.21,3.21-3.21h97.538 c1.775,0,3.215,1.432,3.215,3.21C419.291,387.259,417.852,388.695,416.076,388.695"/></g><g><path fill="#B6DDF5" d="M544.46,408.496H318.536c-1.769,0-3.213-1.436-3.213-3.21s1.442-3.21,3.213-3.21H544.46 c1.774,0,3.212,1.436,3.212,3.21S546.234,408.496,544.46,408.496"/></g><g><g><g><defs><rect id="SVGID_1_" width="261.291" height="235.556" x="90.7" y="316.148"/></defs><clipPath id="SVGID_2_"><use overflow="visible" xlink:href="#SVGID_1_"/></clipPath><g clip-path="url(#SVGID_2_)"><polygon fill="#E4F2FC" points="90.716 316.141 351.974 511.394 295.259 551.713"/></g></g></g></g><g><polygon fill="#FFF" points="711.542 316.141 457.41 544.381 711.542 709.538"/></g><g><path fill="#2887C8" d="M711.542,710.492c-0.183,0-0.361-0.052-0.52-0.154L456.89,545.179c-0.249-0.16-0.408-0.429-0.431-0.725 c-0.025-0.295,0.092-0.588,0.313-0.785l254.132-228.24c0.28-0.254,0.681-0.317,1.027-0.161c0.343,0.153,0.564,0.494,0.564,0.873 v393.397c0,0.35-0.193,0.671-0.501,0.837C711.855,710.453,711.699,710.492,711.542,710.492z M458.975,544.26l251.615,163.52 V318.281L458.975,544.26z"/></g><g><polygon fill="#FFF" points="90.716 316.141 344.844 544.381 90.716 709.538"/></g><g><path fill="#2887C8" d="M90.716,710.492c-0.157,0-0.313-0.041-0.455-0.117c-0.307-0.168-0.5-0.488-0.5-0.837V316.141 c0-0.376,0.221-0.718,0.565-0.873c0.344-0.155,0.747-0.089,1.027,0.161l254.13,228.24c0.221,0.199,0.337,0.49,0.315,0.785 c-0.023,0.296-0.184,0.564-0.432,0.725L91.235,710.338C91.078,710.44,90.896,710.492,90.716,710.492z M91.67,318.281v389.498 l251.611-163.52L91.67,318.281z"/></g><g><path fill="#FFF" d="M90.716,709.538c0,0,229.823-238.691,310.413-238.691c78.563,0,310.411,238.691,310.411,238.691H90.716z"/></g><g><path fill="#2887C8" d="M711.576,710.492c-0.01,0-0.022,0-0.038,0H90.716c-0.384,0-0.729-0.229-0.878-0.584 c-0.151-0.352-0.074-0.757,0.191-1.032c9.396-9.759,231.026-238.983,311.1-238.983c77.718,0,299.627,227.183,310.954,238.836 c0.272,0.168,0.447,0.468,0.447,0.81C712.53,710.065,712.104,710.492,711.576,710.492z M92.971,708.583H709.27 c-20.608-20.996-234.265-236.781-308.141-236.781C325.33,471.802,113.383,687.61,92.971,708.583z"/></g><g><path fill="#FFF" d="M705.059,177.388c0,35.566-28.834,64.4-64.401,64.4c-35.569,0-64.399-28.834-64.399-64.4 c0-35.565,28.832-64.396,64.399-64.396C676.223,112.992,705.059,141.823,705.059,177.388"/></g><g><path fill="#2887C8" d="M640.657,242.743c-36.037,0-65.354-29.317-65.354-65.355c0-36.033,29.317-65.351,65.354-65.351 c36.039,0,65.355,29.316,65.355,65.351C706.013,213.426,676.692,242.743,640.657,242.743z M640.657,113.946 c-34.982,0-63.445,28.46-63.445,63.442c0,34.986,28.463,63.446,63.445,63.446c34.983,0,63.446-28.462,63.446-63.446 C704.104,142.406,675.641,113.946,640.657,113.946z"/></g><g><path fill="#E4F0CC" d="M686.178,177.388c0,25.139-20.384,45.521-45.522,45.521c-25.141,0-45.521-20.382-45.521-45.521 c0-25.139,20.38-45.518,45.521-45.518C665.794,131.871,686.178,152.25,686.178,177.388"/></g><g><path fill="#0B9D49" d="M671.75,162.865c0,1.075-0.374,1.979-1.124,2.731l-29.048,29.049l-5.459,5.454 c-0.751,0.75-1.655,1.124-2.723,1.124c-1.07,0-1.984-0.374-2.731-1.124l-5.455-5.454l-14.522-14.527 c-0.751-0.747-1.124-1.654-1.124-2.725c0-1.073,0.373-1.984,1.124-2.729l5.449-5.458c0.754-0.748,1.665-1.12,2.737-1.12 c1.066,0,1.974,0.372,2.724,1.12l11.8,11.838l26.319-26.361c0.742-0.749,1.657-1.124,2.724-1.124c1.07,0,1.983,0.375,2.735,1.124 l5.452,5.458C671.374,160.887,671.75,161.798,671.75,162.865"/></g></svg>