<svg xmlns="http://www.w3.org/2000/svg" id="Layer_1" width="800" height="800" x="0" y="0" enable-background="new 0 0 800 800" version="1.0" viewBox="0 0 800 800" xml:space="preserve"><g><rect width="224.187" height="78.475" x="287.91" y="657.266" fill="#FFF"/></g><g><path fill="#2887C8" d="M512.847,736.49H287.16v-79.975h225.687V736.49z M288.66,734.99h222.687v-76.975H288.66V734.99z"/></g><g><path fill="#FFF" d="M775,143.277v443.698c0,38.81-31.48,70.283-70.287,70.283H95.28c-38.813,0-70.28-31.474-70.28-70.283 V143.277C25,104.464,56.467,73,95.28,73h609.433C743.52,73,775,104.464,775,143.277"/></g><g><path fill="#2887C8" d="M704.713,658.009H95.28c-39.166,0-71.03-31.865-71.03-71.033V143.277c0-39.165,31.864-71.027,71.03-71.027 h609.433c39.17,0,71.037,31.863,71.037,71.027v443.698C775.75,626.144,743.883,658.009,704.713,658.009z M95.28,73.75 c-38.339,0-69.53,31.19-69.53,69.527v443.698c0,38.341,31.191,69.533,69.53,69.533h609.433c38.343,0,69.537-31.192,69.537-69.533 V143.277c0-38.337-31.194-69.527-69.537-69.527H95.28z"/></g><g><path fill="#E4F2FC" d="M775,143.277v436.747H25V143.277C25,104.464,56.467,73,95.28,73h609.433C743.52,73,775,104.464,775,143.277"/></g><g><path fill="#2887C8" d="M775.75,580.774H24.25V143.277c0-39.165,31.864-71.027,71.03-71.027h609.433 c39.17,0,71.037,31.863,71.037,71.027V580.774z M25.75,579.274h748.5V143.277c0-38.337-31.194-69.527-69.537-69.527H95.28 c-38.339,0-69.53,31.19-69.53,69.527V579.274z"/></g><g><rect width="635.029" height="391.407" x="82.485" y="139.484" fill="#FFF"/></g><g><path fill="#2887C8" d="M718.265,531.642H81.735V138.734h636.529V531.642z M83.235,530.142h633.529V140.234H83.235V530.142z"/></g><g><path fill="#2887C8" d="M617.217,736.49H182.783c-0.414,0-0.75-0.336-0.75-0.75s0.336-0.75,0.75-0.75h434.434 c0.414,0,0.75,0.336,0.75,0.75S617.631,736.49,617.217,736.49z"/></g><g><path fill="#2887C8" d="M677.575,736.49h-21.72c-0.414,0-0.75-0.336-0.75-0.75s0.336-0.75,0.75-0.75h21.72 c0.414,0,0.75,0.336,0.75,0.75S677.989,736.49,677.575,736.49z"/></g><g><path fill="#2887C8" d="M715.813,736.49h-2.427c-0.414,0-0.75-0.336-0.75-0.75s0.336-0.75,0.75-0.75h2.427 c0.414,0,0.75,0.336,0.75,0.75S716.227,736.49,715.813,736.49z"/></g><g><path fill="#2887C8" d="M144.145,736.49h-21.727c-0.414,0-0.75-0.336-0.75-0.75s0.336-0.75,0.75-0.75h21.727 c0.414,0,0.75,0.336,0.75,0.75S144.559,736.49,144.145,736.49z"/></g><g><path fill="#2887C8" d="M86.614,736.49h-2.434c-0.414,0-0.75-0.336-0.75-0.75s0.336-0.75,0.75-0.75h2.434 c0.414,0,0.75,0.336,0.75,0.75S87.028,736.49,86.614,736.49z"/></g><g><path fill="#2887C8" d="M331.907,492.537c-0.177,0-0.355-0.063-0.499-0.19c-5.944-5.3-11.204-11.39-15.634-18.1 c-4.356-6.637-7.85-13.886-10.383-21.549c-2.556-7.728-4.04-15.653-4.412-23.556c-0.135-1.731-0.202-3.438-0.202-5.193 c0-6.232,0.634-12.497,1.886-18.618c0.083-0.405,0.478-0.671,0.885-0.584c0.406,0.083,0.667,0.479,0.584,0.885 c-1.231,6.022-1.855,12.186-1.855,18.317c0,1.716,0.065,3.385,0.198,5.1c0.368,7.789,1.827,15.58,4.339,23.179 c2.493,7.538,5.929,14.669,10.212,21.195c4.357,6.6,9.532,12.591,15.379,17.805c0.309,0.275,0.336,0.75,0.061,1.059 C332.319,492.452,332.113,492.537,331.907,492.537z"/></g><g><path fill="#2887C8" d="M364.157,456.367c-0.173,0-0.347-0.06-0.488-0.181c-2.867-2.462-5.434-5.389-7.422-8.465 c-0.04-0.063-0.071-0.13-0.091-0.2c-2.215-3.365-3.792-6.648-4.819-10.031c-1.249-3.478-1.958-7.213-2.096-11.067 c-0.124-0.808-0.124-1.615-0.124-2.47c0-2.848,0.285-5.818,0.848-8.83c0.076-0.407,0.469-0.675,0.875-0.6 c0.407,0.076,0.676,0.468,0.6,0.875c-0.545,2.921-0.822,5.799-0.822,8.555c0,0.833,0,1.553,0.115,2.334 c0.14,3.782,0.819,7.365,2.028,10.732c1.01,3.325,2.557,6.524,4.741,9.818c0.043,0.065,0.076,0.137,0.097,0.211 c1.898,2.905,4.332,5.668,7.047,7.999c0.314,0.271,0.35,0.743,0.08,1.058C364.578,456.278,364.368,456.367,364.157,456.367z"/></g><g><path fill="#2887C8" d="M331.913,492.54c-0.177,0-0.355-0.063-0.499-0.19c-5.95-5.3-11.212-11.393-15.641-18.106 c-4.364-6.645-7.859-13.893-10.39-21.545c-2.55-7.73-4.034-15.657-4.412-23.561c-0.127-1.788-0.189-3.489-0.189-5.185 c0-0.414,0.336-0.75,0.75-0.75s0.75,0.336,0.75,0.75c0,1.659,0.061,3.326,0.186,5.096c0.373,7.785,1.833,15.578,4.339,23.179 c2.489,7.528,5.927,14.657,10.218,21.19c4.355,6.605,9.532,12.598,15.386,17.813c0.309,0.275,0.336,0.749,0.061,1.059 C332.325,492.455,332.12,492.54,331.913,492.54z"/></g><g><path fill="#E4F0CC" d="M613.709,350.922l30.665-10.126c-9.656-20.591-22.718-39.645-38.678-56.764 c-14.802-15.766-31.992-29.862-51.104-41.897c-17.442-10.941-36.49-20.209-56.832-27.419 c-18.658-6.627-38.359-11.524-58.889-14.481c-15.126-2.184-30.633-3.346-46.464-3.346c-4.382,0-8.692,0.068-13.002,0.259 c-20.471,0.835-40.289,3.537-59.278,7.913c-70.669,16.417-129.688,56.188-164.508,108.834 c19.377-16.989,42.282-30.83,67.711-40.735c18.86-7.339,39.065-12.488,60.242-14.999h0.065c10.096-1.227,20.335-1.864,30.762-1.864 c7.786,0,15.442,0.32,22.97,1.029c15.902,1.411,31.286,4.249,46.023,8.43c13.579,3.796,26.516,8.753,38.813,14.672 c11.585,5.533,22.588,11.97,32.826,19.18c9.967,7.013,19.235,14.74,27.668,23.109c8.498,8.365,16.154,17.377,22.918,26.969 c6.951,9.779,12.932,20.141,17.889,31.014l29.662-9.786"/></g><g><path fill="#0B9D49" d="M523.507,381.45c-0.287,0-0.558-0.165-0.683-0.439c-4.913-10.776-10.907-21.169-17.817-30.891 c-6.722-9.532-14.402-18.571-22.833-26.869c-8.339-8.276-17.615-16.023-27.573-23.03c-10.219-7.196-21.227-13.628-32.718-19.116 c-12.533-6.032-25.55-10.953-38.692-14.627c-14.748-4.184-30.186-7.012-45.887-8.405c-7.233-0.681-14.938-1.026-22.903-1.026 c-10.202,0-20.521,0.625-30.671,1.858c-0.03,0.003-0.125,0.005-0.155,0.005c-20.558,2.443-40.765,7.474-59.97,14.948 c-25.292,9.853-47.999,23.513-67.488,40.601c-0.283,0.248-0.706,0.249-0.988,0.001c-0.283-0.247-0.34-0.666-0.132-0.979 c35.175-53.185,95.302-92.969,164.963-109.151c19.274-4.441,39.264-7.109,59.417-7.932c3.951-0.174,8.214-0.259,13.033-0.259 c15.489,0,31.158,1.128,46.571,3.354c20.275,2.921,40.137,7.805,59.032,14.517c20.067,7.112,39.238,16.361,56.979,27.49 c19.157,12.063,36.4,26.201,51.252,42.019c16.154,17.328,29.211,36.491,38.81,56.958c0.092,0.194,0.095,0.418,0.01,0.615 c-0.085,0.197-0.25,0.348-0.453,0.416l-30.665,10.126c-0.393,0.128-0.817-0.084-0.947-0.477c-0.13-0.394,0.083-0.818,0.477-0.948 l29.86-9.86c-9.497-20.038-22.342-38.811-38.187-55.806c-14.762-15.723-31.906-29.779-50.954-41.773 c-17.647-11.07-36.719-20.271-56.684-27.347c-18.803-6.679-38.567-11.54-58.745-14.446c-15.342-2.215-30.938-3.338-46.356-3.338 c-4.796,0-9.039,0.084-12.969,0.258c-20.063,0.818-39.96,3.474-59.143,7.894c-67.26,15.625-125.571,53.349-160.912,103.902 c18.645-15.512,40.04-28.026,63.674-37.232c19.324-7.52,39.654-12.582,60.426-15.045c0.029-0.003,0.124-0.005,0.153-0.005 c10.119-1.235,20.5-1.864,30.762-1.864c8.012,0,15.764,0.347,23.04,1.032c15.791,1.401,31.322,4.246,46.157,8.455 c13.224,3.697,26.324,8.649,38.934,14.718c11.564,5.523,22.646,11.998,32.933,19.242c10.026,7.055,19.368,14.857,27.765,23.19 c8.491,8.359,16.231,17.467,23.003,27.069c6.832,9.612,12.778,19.879,17.678,30.524l29.024-9.576 c0.395-0.127,0.818,0.084,0.947,0.478c0.13,0.393-0.084,0.817-0.477,0.947l-29.662,9.786 C523.664,381.438,523.585,381.45,523.507,381.45z"/></g><g><path fill="#0B9D49" d="M583.498,299.345c-0.244,0-0.484-0.119-0.628-0.339c-0.228-0.346-0.131-0.811,0.216-1.038l22.205-14.563 c0.348-0.229,0.813-0.13,1.038,0.216c0.228,0.346,0.131,0.811-0.216,1.038l-22.205,14.563 C583.781,299.305,583.639,299.345,583.498,299.345z"/></g><g><path fill="#0B9D49" d="M533.241,266.816c-0.178,0-0.356-0.063-0.499-0.19c-0.31-0.276-0.336-0.75-0.061-1.059l21.357-23.931 c0.276-0.309,0.751-0.335,1.059-0.06c0.31,0.276,0.336,0.75,0.061,1.059l-21.357,23.931 C533.652,266.731,533.447,266.816,533.241,266.816z"/></g><g><path fill="#2887C8" d="M420.666,393.035c-0.178,0-0.356-0.063-0.499-0.19c-0.31-0.276-0.337-0.75-0.061-1.059 c26.017-29.186,52.042-58.365,78.072-87.542c0.276-0.309,0.751-0.335,1.059-0.06c0.31,0.276,0.336,0.75,0.061,1.059 c-26.03,29.176-52.056,58.355-78.072,87.541C421.078,392.95,420.872,393.035,420.666,393.035z"/></g><g><path fill="#0B9D49" d="M482.078,246.626c-0.113,0-0.228-0.025-0.336-0.08c-0.37-0.186-0.52-0.637-0.333-1.007l15.688-31.16 c0.187-0.37,0.639-0.519,1.007-0.333c0.37,0.187,0.52,0.637,0.333,1.007l-15.688,31.16 C482.617,246.475,482.353,246.626,482.078,246.626z"/></g><g><path fill="#2887C8" d="M392.408,467.244c-10.737,0-20.95-3.933-28.757-11.073c-2.854-2.45-5.418-5.378-7.398-8.45 c-0.04-0.062-0.07-0.128-0.09-0.198c-2.212-3.34-3.792-6.624-4.826-10.032c-1.259-3.5-1.966-7.237-2.09-11.069 c-0.13-0.803-0.13-1.611-0.13-2.468c0-2.85,0.285-5.819,0.848-8.827c0.889-3.907,2.168-7.475,3.806-10.634 c1.589-3.301,3.755-6.438,6.428-9.305c2.377-2.835,5.249-5.333,8.509-7.394c3.292-2.195,6.716-3.852,10.16-4.915 c3.57-1.254,7.303-1.959,11.069-2.088c0.733-0.13,1.617-0.13,2.472-0.13c2.825,0,5.712,0.279,8.827,0.854 c3.922,0.887,7.491,2.164,10.639,3.804c3.47,1.732,6.517,3.833,9.302,6.416c2.758,2.327,5.201,5.094,7.445,8.435 c0.047,0.07,0.081,0.146,0.103,0.227c2.118,3.297,3.72,6.665,4.761,10.01c1.473,4.368,2.222,8.931,2.222,13.546 C435.706,447.824,416.283,467.244,392.408,467.244z M357.605,447.05c1.89,2.901,4.321,5.663,7.041,7.998 c7.548,6.903,17.401,10.696,27.762,10.696c23.048,0,41.798-18.747,41.798-41.791c0-4.452-0.723-8.854-2.148-13.084 c-1.021-3.282-2.598-6.575-4.689-9.805c-0.041-0.064-0.072-0.134-0.093-0.206c-2.137-3.158-4.459-5.776-7.093-8 c-2.706-2.508-5.638-4.529-8.99-6.203c-3.044-1.586-6.491-2.819-10.258-3.671c-2.995-0.552-5.793-0.823-8.526-0.823 c-0.793,0-1.614,0-2.322,0.119c-3.763,0.135-7.247,0.793-10.749,2.023c-3.334,1.029-6.626,2.623-9.813,4.748 c-3.145,1.988-5.899,4.383-8.203,7.129c-2.631,2.824-4.654,5.753-6.209,8.982c-1.589,3.065-2.824,6.513-3.679,10.268 c-0.54,2.889-0.816,5.766-0.816,8.522c0,0.832,0,1.55,0.121,2.329c0.127,3.766,0.805,7.348,2.023,10.736 c1.018,3.352,2.566,6.551,4.746,9.817C357.551,446.901,357.584,446.975,357.605,447.05z"/></g><g><path fill="#2887C8" d="M331.913,492.54c-0.177,0-0.355-0.063-0.499-0.19c-5.95-5.3-11.212-11.393-15.641-18.106 c-4.364-6.645-7.859-13.893-10.39-21.545c-2.55-7.73-4.034-15.657-4.412-23.561c-0.127-1.788-0.189-3.489-0.189-5.185 c0-0.414,0.336-0.75,0.75-0.75s0.75,0.336,0.75,0.75c0,1.659,0.061,3.326,0.186,5.096c0.373,7.785,1.833,15.578,4.339,23.179 c2.489,7.528,5.927,14.657,10.218,21.19c4.355,6.605,9.532,12.598,15.386,17.813c0.309,0.275,0.336,0.749,0.061,1.059 C332.325,492.455,332.12,492.54,331.913,492.54z"/></g></svg>