<?xml version="1.0" encoding="utf-8"?>
<!-- Generator: Adobe Illustrator 16.0.0, SVG Export Plug-In . SVG Version: 6.00 Build 0)  -->
<!DOCTYPE svg PUBLIC "-//W3C//DTD SVG 1.0//EN" "http://www.w3.org/TR/2001/REC-SVG-20010904/DTD/svg10.dtd">
<svg version="1.0" id="Layer_1" xmlns="http://www.w3.org/2000/svg" x="0px" y="0px"
     width="800px" height="800px" viewBox="0 0 800 800" enable-background="new 0 0 800 800" xml:space="preserve">
<rect x="288.033" y="650.143" fill="#FFFFFF" width="224.189" height="78.478"/>
    <rect x="288.033" y="650.143" fill="none" stroke="#2887C8" stroke-width="1.4" stroke-miterlimit="10" width="224.189"
          height="78.478"/>
    <path fill="#FFFFFF" d="M775.134,136.151v443.704c0,38.812-31.477,70.282-70.288,70.282H95.413
	c-38.808,0-70.282-31.471-70.282-70.282V136.151c0-38.812,31.474-70.282,70.282-70.282h609.433
	C743.657,65.869,775.134,97.339,775.134,136.151"/>
    <path fill="none" stroke="#2887C8" stroke-width="1.4" stroke-miterlimit="10" d="M775.134,136.151v443.704
	c0,38.812-31.477,70.282-70.288,70.282H95.413c-38.808,0-70.282-31.471-70.282-70.282V136.151c0-38.812,31.474-70.282,70.282-70.282
	h609.433C743.657,65.869,775.134,97.339,775.134,136.151z"/>
    <path fill="#E4F2FC" d="M775.134,136.151v436.752H25.131V136.151c0-38.812,31.474-70.282,70.282-70.282h609.433
	C743.657,65.869,775.134,97.339,775.134,136.151"/>
    <path fill="none" stroke="#2887C8" stroke-width="1.4" stroke-miterlimit="10" d="M775.134,136.151v436.752H25.131V136.151
	c0-38.812,31.474-70.282,70.282-70.282h609.433C743.657,65.869,775.134,97.339,775.134,136.151z"/>
    <rect x="82.613" y="132.364" fill="#FFFFFF" width="635.03" height="391.404"/>
    <rect x="82.613" y="132.364" fill="none" stroke="#2887C8" stroke-width="1.4" stroke-miterlimit="10" width="635.03"
          height="391.404"/>
    <line fill="none" stroke="#2887C8" stroke-width="1.4" stroke-linecap="round" stroke-linejoin="round"
          stroke-miterlimit="10" x1="182.913" y1="728.62" x2="617.35" y2="728.62"/>
    <line fill="none" stroke="#2887C8" stroke-width="1.4" stroke-linecap="round" stroke-linejoin="round"
          stroke-miterlimit="10" x1="655.991" y1="728.62" x2="677.713" y2="728.62"/>
    <line fill="none" stroke="#2887C8" stroke-width="1.4" stroke-linecap="round" stroke-linejoin="round"
          stroke-miterlimit="10" x1="713.514" y1="728.62" x2="715.952" y2="728.62"/>
    <line fill="none" stroke="#2887C8" stroke-width="1.4" stroke-linecap="round" stroke-linejoin="round"
          stroke-miterlimit="10" x1="144.271" y1="728.62" x2="122.549" y2="728.62"/>
    <line fill="none" stroke="#2887C8" stroke-width="1.4" stroke-linecap="round" stroke-linejoin="round"
          stroke-miterlimit="10" x1="86.745" y1="728.62" x2="84.313" y2="728.62"/>
    <rect x="123.875" y="176.285" fill="#B6DDF5" width="552.505" height="26.819"/>
    <rect x="123.875" y="176.285" fill="#2887C8" width="58.085" height="26.819"/>
    <path fill="#E4F0CC" d="M446.353,320.183l-10.56-10.55c-2.021-2.026-2.021-5.298,0-7.325l20.214-20.207
	c2.024-2.024,5.299-2.024,7.322,0l10.553,10.547c2.024,2.021,2.024,5.298,0,7.319l-20.213,20.216
	C451.645,322.204,448.37,322.204,446.353,320.183"/>
    <path fill="#0B9D49" d="M450.011,327.615c-2.967,0-5.748-1.153-7.841-3.25l-10.557-10.55c-2.09-2.099-3.249-4.883-3.249-7.844
	c0-2.96,1.159-5.748,3.249-7.841l20.221-20.216c2.086-2.096,4.877-3.25,7.837-3.25c2.961,0,5.745,1.153,7.845,3.25l10.553,10.55
	c2.093,2.099,3.243,4.883,3.243,7.847c0,2.96-1.15,5.745-3.243,7.838l-20.214,20.216
	C455.756,326.462,452.971,327.615,450.011,327.615 M440.504,305.972l9.507,9.504l19.164-19.164l-9.504-9.506L440.504,305.972z"/>
    <path fill="#E4F0CC" d="M336.93,429.603l-10.55-10.556c-2.021-2.021-2.021-5.299,0-7.319l20.21-20.207
	c2.021-2.024,5.296-2.024,7.326,0l10.546,10.547c2.021,2.021,2.021,5.298,0,7.319l-20.213,20.216
	C342.225,431.623,338.95,431.623,336.93,429.603"/>
    <path fill="#0B9D49" d="M340.591,437.035c-2.96,0-5.748-1.153-7.841-3.25l-10.553-10.556c-2.093-2.093-3.253-4.877-3.253-7.838
	c0-2.96,1.16-5.747,3.253-7.847l20.213-20.21c2.093-2.096,4.881-3.25,7.841-3.25c2.961,0,5.748,1.153,7.844,3.25l10.55,10.55
	c2.093,2.093,3.25,4.883,3.25,7.847c0,2.96-1.156,5.745-3.25,7.838l-20.21,20.216C346.339,435.875,343.551,437.035,340.591,437.035
	 M331.084,415.392l9.506,9.504l19.167-19.164l-9.507-9.513L331.084,415.392z"/>
    <path fill="#E4F0CC" d="M435.797,402.07l10.556-10.556c2.012-2.021,5.299-2.021,7.316,0l20.213,20.216
	c2.018,2.021,2.018,5.296,0,7.316l-10.546,10.556c-2.024,2.021-5.305,2.021-7.322,0l-20.217-20.216
	C433.775,407.365,433.775,404.091,435.797,402.07"/>
    <path fill="#0B9D49" d="M459.671,437.032c-2.96,0-5.751-1.15-7.837-3.25l-20.221-20.21c-2.09-2.1-3.249-4.884-3.249-7.848
	c0-2.96,1.159-5.744,3.249-7.837l10.551-10.557c2.099-2.09,4.88-3.243,7.847-3.243c2.96,0,5.745,1.153,7.844,3.243l20.214,20.217
	c2.093,2.093,3.243,4.878,3.243,7.841c0,2.961-1.15,5.754-3.243,7.844l-10.553,10.55
	C465.416,435.882,462.632,437.032,459.671,437.032 M440.504,405.725l19.167,19.177l9.504-9.513l-19.164-19.167L440.504,405.725z"/>
    <path fill="#E4F0CC" d="M326.38,292.647l10.547-10.553c2.023-2.021,5.305-2.021,7.325,0l20.21,20.216
	c2.021,2.021,2.021,5.296,0,7.322l-10.55,10.55c-2.021,2.021-5.295,2.021-7.315,0l-20.217-20.216
	C324.359,297.945,324.359,294.671,326.38,292.647"/>
    <path fill="#0B9D49" d="M350.251,327.615c-2.96,0-5.748-1.153-7.841-3.25l-20.213-20.216c-2.093-2.093-3.253-4.877-3.253-7.841
	c0-2.961,1.16-5.745,3.253-7.844l10.546-10.55c2.099-2.096,4.887-3.25,7.847-3.25s5.748,1.153,7.844,3.25l20.21,20.216
	c2.093,2.093,3.25,4.878,3.25,7.841c0,2.961-1.156,5.745-3.25,7.844l-10.55,10.55C355.999,326.462,353.212,327.615,350.251,327.615
	 M331.084,296.309l19.167,19.167l9.507-9.504l-19.167-19.17L331.084,296.309z"/>
    <path fill="#0B9D49" d="M476.949,374.399H463.21c-6.116,0-11.087-4.975-11.087-11.087v-14.928c0-6.112,4.971-11.087,11.087-11.087
	h28.585c6.115,0,11.094,4.975,11.094,11.087v14.928c0,3.268-2.652,5.914-5.914,5.914c-3.269,0-5.921-2.646-5.921-5.914v-14.186
	h-27.103v13.444h12.998c3.262,0,5.914,2.652,5.914,5.915C482.863,371.757,480.211,374.399,476.949,374.399"/>
    <path fill="#0B9D49" d="M337.052,374.399H308.47c-6.122,0-11.096-4.975-11.096-11.087v-14.928c0-3.262,2.652-5.914,5.915-5.914
	c3.271,0,5.914,2.652,5.914,5.914v14.186h27.108v-13.444h-13.143c-3.262,0-5.914-2.646-5.914-5.915s2.652-5.914,5.914-5.914h13.884
	c6.116,0,11.09,4.975,11.09,11.087v14.928C348.143,369.425,343.168,374.399,337.052,374.399"/>
    <path fill="#0B9D49" d="M407.592,458.604h-14.925c-3.265,0-5.917-2.65-5.917-5.915c0-3.269,2.652-5.914,5.917-5.914h14.183v-27.108
	h-13.444v13.283c0,3.266-2.646,5.915-5.915,5.915c-3.262,0-5.914-2.649-5.914-5.915v-14.025c0-6.112,4.975-11.087,11.09-11.087
	h14.925c6.115,0,11.09,4.975,11.09,11.087v28.592C418.682,453.628,413.707,458.604,407.592,458.604"/>
    <path fill="#0B9D49" d="M407.592,303.86h-14.925c-6.115,0-11.09-4.972-11.09-11.087v-28.588c0-6.116,4.975-11.09,11.09-11.09h14.925
	c3.268,0,5.914,2.646,5.914,5.915c0,3.268-2.646,5.914-5.914,5.914h-14.186v27.108h13.444v-12.929c0-3.262,2.652-5.915,5.915-5.915
	c3.271,0,5.917,2.653,5.917,5.915v13.67C418.682,298.889,413.707,303.86,407.592,303.86"/>
    <path fill="#0B9D49" d="M376.064,361.766h-7.47c-3.271,0-5.914-2.652-5.914-5.915c0-3.271,2.643-5.914,5.914-5.914h7.47
	c3.266,0,5.915,2.643,5.915,5.914C381.979,359.114,379.336,361.766,376.064,361.766"/>
    <path fill="#0B9D49" d="M403.867,361.766h-7.473c-3.269,0-5.915-2.652-5.915-5.915c0-3.271,2.646-5.914,5.915-5.914h7.473
	c3.269,0,5.915,2.643,5.915,5.914C409.782,359.114,407.136,361.766,403.867,361.766"/>
    <path fill="#0B9D49" d="M431.667,361.766h-7.473c-3.269,0-5.915-2.652-5.915-5.915c0-3.271,2.646-5.914,5.915-5.914h7.473
	c3.269,0,5.915,2.643,5.915,5.914C437.582,359.114,434.936,361.766,431.667,361.766"/>
</svg>
