<svg xmlns="http://www.w3.org/2000/svg" id="Layer_1" width="800" height="800" x="0" y="0" enable-background="new 0 0 800 800" version="1.0" viewBox="0 0 800 800" xml:space="preserve"><rect width="224.182" height="78.478" x="288.912" y="657.919" fill="#FFF"/><rect width="224.182" height="78.478" x="288.912" y="657.919" fill="none" stroke="#2887C8" stroke-miterlimit="10" stroke-width="1.4"/><path fill="#FFF" d="M776,143.93v443.707c0,38.809-31.471,70.282-70.282,70.282H96.281C57.476,657.919,26,626.445,26,587.637	V143.93c0-38.808,31.477-70.281,70.282-70.281h609.437C744.529,73.648,776,105.122,776,143.93"/><path fill="none" stroke="#2887C8" stroke-miterlimit="10" stroke-width="1.4" d="M776,143.93v443.707	c0,38.809-31.471,70.282-70.282,70.282H96.281C57.476,657.919,26,626.445,26,587.637V143.93c0-38.808,31.477-70.281,70.282-70.281	h609.437C744.529,73.648,776,105.122,776,143.93z"/><path fill="#E4F2FC" d="M776,143.93v436.756H26V143.93c0-38.808,31.477-70.281,70.282-70.281h609.437	C744.529,73.648,776,105.122,776,143.93"/><path fill="none" stroke="#2887C8" stroke-miterlimit="10" stroke-width="1.4" d="M776,143.93v436.756H26V143.93	c0-38.808,31.477-70.281,70.282-70.281h609.437C744.529,73.648,776,105.122,776,143.93z"/><rect width="635.023" height="391.411" x="83.484" y="140.143" fill="#FFF"/><rect width="635.023" height="391.411" x="83.484" y="140.143" fill="none" stroke="#2887C8" stroke-miterlimit="10" stroke-width="1.4"/><line x1="183.784" x2="618.221" y1="736.396" y2="736.396" fill="none" stroke="#2887C8" stroke-linecap="round" stroke-linejoin="round" stroke-miterlimit="10" stroke-width="1.4"/><line x1="656.862" x2="678.584" y1="736.396" y2="736.396" fill="none" stroke="#2887C8" stroke-linecap="round" stroke-linejoin="round" stroke-miterlimit="10" stroke-width="1.4"/><line x1="714.385" x2="716.817" y1="736.396" y2="736.396" fill="none" stroke="#2887C8" stroke-linecap="round" stroke-linejoin="round" stroke-miterlimit="10" stroke-width="1.4"/><line x1="145.143" x2="123.421" y1="736.396" y2="736.396" fill="none" stroke="#2887C8" stroke-linecap="round" stroke-linejoin="round" stroke-miterlimit="10" stroke-width="1.4"/><line x1="87.62" x2="85.182" y1="736.396" y2="736.396" fill="none" stroke="#2887C8" stroke-linecap="round" stroke-linejoin="round" stroke-miterlimit="10" stroke-width="1.4"/><rect width="58.088" height="248.343" x="124.741" y="239.283" fill="#B6DDF5"/><rect width="40.131" height="20.113" x="133.723" y="263.148" fill="#2887C8"/><rect width="40.131" height="20.113" x="133.723" y="346.315" fill="#2887C8"/><rect width="74.21" height="63.685" x="232.388" y="239.277" fill="#B6DDF5"/><rect width="27.422" height="14.223" x="239.799" y="248.341" fill="#2887C8"/><rect width="74.21" height="59.082" x="232.388" y="333.914" fill="#B6DDF5"/><rect width="27.422" height="13.196" x="239.799" y="342.317" fill="#2887C8"/><rect width="74.21" height="61.413" x="232.388" y="426.213" fill="#B6DDF5"/><rect width="27.422" height="13.715" x="239.799" y="434.949" fill="#2887C8"/><rect width="71.036" height="63.685" x="356.516" y="239.277" fill="#B6DDF5"/><rect width="26.253" height="14.223" x="365.78" y="248.341" fill="#0B9D49"/><rect width="71.036" height="59.082" x="356.516" y="333.914" fill="#B6DDF5"/><rect width="26.253" height="13.196" x="365.78" y="342.317" fill="#0B9D49"/><rect width="71.036" height="61.413" x="356.516" y="426.213" fill="#B6DDF5"/><rect width="26.253" height="13.715" x="365.78" y="434.949" fill="#0B9D49"/><rect width="72.67" height="63.685" x="476.759" y="239.277" fill="#B6DDF5"/><rect width="26.851" height="14.223" x="486.243" y="248.341" fill="#B1D465"/><rect width="72.67" height="59.082" x="476.759" y="333.914" fill="#B6DDF5"/><rect width="26.851" height="13.196" x="486.243" y="342.317" fill="#B1D465"/><rect width="72.67" height="61.413" x="476.759" y="426.213" fill="#B6DDF5"/><rect width="26.851" height="13.715" x="486.243" y="434.949" fill="#B1D465"/><rect width="74.311" height="63.685" x="602.947" y="239.277" fill="#B6DDF5"/><rect width="27.453" height="14.223" x="612.646" y="248.341" fill="#2887C8"/><rect width="74.311" height="59.082" x="602.947" y="333.914" fill="#B6DDF5"/><rect width="27.453" height="13.196" x="612.646" y="342.317" fill="#2887C8"/><rect width="74.311" height="61.413" x="602.947" y="426.213" fill="#B6DDF5"/><rect width="27.453" height="13.715" x="612.646" y="434.949" fill="#2887C8"/><rect width="552.504" height="26.819" x="124.753" y="184.067" fill="#B6DDF5"/><rect width="58.088" height="26.819" x="124.741" y="184.067" fill="#2887C8"/><path fill="#FFF" d="M539.379,337.843c0,76.422-61.96,138.376-138.376,138.376c-76.429,0-138.376-61.954-138.376-138.376	c0-76.423,61.947-138.376,138.376-138.376C477.419,199.466,539.379,261.42,539.379,337.843"/><path fill="none" stroke="#2887C8" stroke-miterlimit="10" stroke-width="1.4" d="M539.379,337.843	c0,76.422-61.96,138.376-138.376,138.376c-76.429,0-138.376-61.954-138.376-138.376c0-76.423,61.947-138.376,138.376-138.376	C477.419,199.466,539.379,261.42,539.379,337.843z"/><path fill="#E4F0CC" d="M498.808,337.843c0,54.015-43.79,97.808-97.805,97.808c-54.016,0-97.812-43.792-97.812-97.808	c0-54.019,43.796-97.812,97.812-97.812C455.018,240.031,498.808,283.824,498.808,337.843"/><path fill="#0B9D49" d="M444.358,316.165c0,6.153-0.937,11.207-2.797,15.16l-30.823,65.537c-0.911,1.86-2.244,3.328-4.022,4.402	c-1.778,1.068-3.677,1.609-5.713,1.609s-3.941-0.541-5.72-1.609c-1.772-1.074-3.086-2.542-3.935-4.402l-30.911-65.537	c-1.86-3.954-2.791-9.007-2.791-15.16c0-11.964,4.236-22.184,12.697-30.653c8.472-8.467,18.686-12.699,30.659-12.699	c11.967,0,22.187,4.232,30.646,12.699C440.122,293.981,444.358,304.201,444.358,316.165 M416.326,331.488	c4.236-4.233,6.348-9.343,6.348-15.324c0-5.983-2.111-11.087-6.348-15.323c-4.236-4.236-9.346-6.351-15.323-6.351	c-5.983,0-11.101,2.115-15.323,6.351c-4.236,4.236-6.354,9.34-6.354,15.323c0,5.98,2.118,11.09,6.354,15.324	c4.223,4.236,9.34,6.354,15.323,6.354C406.98,337.843,412.09,335.725,416.326,331.488"/></svg>