<?xml version="1.0" encoding="utf-8"?>
<!-- Generator: Adobe Illustrator 16.0.0, SVG Export Plug-In . SVG Version: 6.00 Build 0)  -->
<!DOCTYPE svg PUBLIC "-//W3C//DTD SVG 1.0//EN" "http://www.w3.org/TR/2001/REC-SVG-20010904/DTD/svg10.dtd">
<svg version="1.0" id="Layer_1" xmlns="http://www.w3.org/2000/svg" x="0px" y="0px"
     width="800px" height="800px" viewBox="0 0 800 800" enable-background="new 0 0 800 800" xml:space="preserve">
<path fill="#E4F2FC" d="M688.567,774.026H173.733c-12.422,0-22.5-10.078-22.5-22.5V46.523c0-12.429,10.078-22.5,22.5-22.5h514.834
	c12.43,0,22.5,10.071,22.5,22.5v705.003C711.067,763.948,700.997,774.026,688.567,774.026"/>
    <path fill="none" stroke="#2887C8" stroke-width="1.5" stroke-linecap="round" stroke-linejoin="round"
          stroke-miterlimit="10" d="
	M120.105,644.241v77.381c0,12.897,10.444,23.342,23.335,23.342H656.59c12.891,0,23.343-10.444,23.343-23.342V268.344"/>
    <path fill="none" stroke="#2887C8" stroke-width="1.5" stroke-linecap="round" stroke-linejoin="round"
          stroke-miterlimit="10" d="
	M679.933,217.646V47.358c0-12.887-10.452-23.335-23.343-23.335H143.44c-12.891,0-23.335,10.448-23.335,23.335v544.823"/>
    <path fill="#2887C8" d="M171.155,229.581c0-6.427,5.208-11.642,11.631-11.642H322.43c6.431,0,11.646,5.215,11.646,11.642
	c0,6.427-5.215,11.631-11.646,11.631H182.786C176.363,241.212,171.155,236.008,171.155,229.581 M617.237,543.768H477.593
	c-6.43,0-11.638,5.223-11.638,11.646c0,6.424,5.208,11.631,11.638,11.631h139.645c6.43,0,11.638-5.207,11.638-11.631
	C628.875,548.99,623.667,543.768,617.237,543.768 M337.95,435.16H182.786c-6.423,0-11.631,5.215-11.631,11.643
	c0,6.423,5.208,11.638,11.631,11.638H337.95c6.423,0,11.631-5.215,11.631-11.638C349.581,440.375,344.373,435.16,337.95,435.16
	 M617.237,435.16H477.593c-6.43,0-11.638,5.215-11.638,11.643c0,6.423,5.208,11.638,11.638,11.638h139.645
	c6.43,0,11.638-5.215,11.638-11.638C628.875,440.375,623.667,435.16,617.237,435.16 M326.319,338.195
	c0,6.42,5.208,11.631,11.631,11.631h279.288c6.43,0,11.638-5.211,11.638-11.631c0-6.435-5.215-11.638-11.638-11.638H337.95
	C331.526,326.557,326.319,331.761,326.319,338.195 M182.786,349.826h62.073c6.431,0,11.631-5.211,11.631-11.631
	c0-6.435-5.2-11.638-11.631-11.638h-62.073c-6.423,0-11.631,5.204-11.631,11.638C171.155,344.615,176.363,349.826,182.786,349.826
	 M289.844,326.557c-6.423,0-11.624,5.204-11.624,11.631s5.2,11.638,11.624,11.638h1.56c6.416,0,11.638-5.211,11.638-11.638
	s-5.222-11.631-11.638-11.631H289.844z M386.048,435.16h-1.553c-6.423,0-11.631,5.215-11.631,11.643
	c0,6.423,5.208,11.638,11.631,11.638h1.553c6.431,0,11.638-5.215,11.638-11.638C397.686,440.375,392.479,435.16,386.048,435.16
	 M431.048,435.16h-1.553c-6.431,0-11.631,5.215-11.631,11.643c0,6.423,5.2,11.638,11.631,11.638h1.553
	c6.416,0,11.631-5.215,11.631-11.638C442.679,440.375,437.464,435.16,431.048,435.16"/>
    <path fill="#E4F0CC" d="M679.991,361.669c51.27,0,93.054-41.777,93.054-93.127c0-51.27-41.784-93.054-93.054-93.054H524.937v-34.695
	l-100.598,58.044l100.598,58.118v-34.786h155.055c25.598,0,46.369,20.855,46.369,46.373c0,25.598-20.771,46.446-46.369,46.446
	V361.669z"/>
    <path fill="none" stroke="#0B9D49" stroke-width="1.5" stroke-linecap="round" stroke-linejoin="round"
          stroke-miterlimit="10" d="
	M679.991,361.669c51.27,0,93.054-41.777,93.054-93.127c0-51.27-41.784-93.054-93.054-93.054H524.937v-34.695l-100.598,58.044
	l100.598,58.118v-34.786h155.055c25.598,0,46.369,20.855,46.369,46.373c0,25.598-20.771,46.446-46.369,46.446V361.669z"/>
    <path fill="#E4F0CC" d="M120.047,407.629C68.777,407.629,27,449.402,27,500.76c0,51.27,41.777,93.047,93.047,93.047h155.054v34.695
	l100.605-58.045l-100.605-58.11v34.775H120.047c-25.591,0-46.37-20.852-46.37-46.362c0-25.605,20.779-46.45,46.37-46.45V407.629z"/>
    <path fill="none" stroke="#0B9D49" stroke-width="1.5" stroke-linecap="round" stroke-linejoin="round"
          stroke-miterlimit="10" d="
	M120.047,407.629C68.777,407.629,27,449.402,27,500.76c0,51.27,41.777,93.047,93.047,93.047h155.054v34.695l100.605-58.045
	l-100.605-58.11v34.775H120.047c-25.591,0-46.37-20.852-46.37-46.362c0-25.605,20.779-46.45,46.37-46.45V407.629z"/>
</svg>
