<?xml version="1.0" encoding="utf-8"?>
<!-- Generator: Adobe Illustrator 16.0.0, SVG Export Plug-In . SVG Version: 6.00 Build 0)  -->
<!DOCTYPE svg PUBLIC "-//W3C//DTD SVG 1.1//EN" "http://www.w3.org/Graphics/SVG/1.1/DTD/svg11.dtd">
<svg version="1.1" id="Layer_1" xmlns="http://www.w3.org/2000/svg" x="0px" y="0px"
     width="800px" height="800px" viewBox="0 0 800 800" enable-background="new 0 0 800 800" xml:space="preserve">
<g>
	<g>
		<path fill="#E4F0CC" d="M684.435,627.14H278.484c-12.429,0-22.5-10.074-22.5-22.5V45.5c0-12.425,10.071-22.5,22.5-22.5h405.951
			c12.422,0,22.5,10.075,22.5,22.5v559.14C706.935,617.064,696.856,627.14,684.435,627.14"/>
	</g>
</g>
    <g>
	<g>
		<path fill="#0B9D49" d="M663.048,604.479H249.7c-10.781,0-19.551-8.771-19.551-19.549v-62.336c0-0.414,0.336-0.75,0.75-0.75
			s0.75,0.336,0.75,0.75v62.336c0,9.951,8.098,18.049,18.051,18.049h413.348c9.949,0,18.043-8.098,18.043-18.049V219.805
			c0-0.414,0.336-0.75,0.75-0.75s0.75,0.336,0.75,0.75V584.93C682.591,595.708,673.824,604.479,663.048,604.479z"/>
	</g>
</g>
    <g>
	<g>
		<path fill="#0B9D49" d="M230.899,481.413c-0.414,0-0.75-0.336-0.75-0.75V41.801c0-10.778,8.771-19.547,19.551-19.547h413.348
			c10.78,0,19.551,8.769,19.551,19.547v137.164c0,0.414-0.336,0.75-0.75,0.75s-0.75-0.336-0.75-0.75V41.801
			c0-9.951-8.098-18.047-18.051-18.047H249.7c-9.954,0-18.051,8.096-18.051,18.047v438.862
			C231.649,481.077,231.313,481.413,230.899,481.413z"/>
	</g>
</g>
    <g>
	<g>
		<path fill="#0B9D49" d="M272.024,188.582c0-5.174,4.197-9.375,9.375-9.375h112.485c5.171,0,9.375,4.201,9.375,9.375
			c0,5.175-4.204,9.375-9.375,9.375H281.399C276.221,197.957,272.024,193.756,272.024,188.582 M631.349,441.676H518.863
			c-5.179,0-9.367,4.197-9.367,9.375c0,5.167,4.188,9.368,9.367,9.368h112.484c5.179,0,9.375-4.201,9.375-9.368
			C640.724,445.873,636.526,441.676,631.349,441.676 M406.387,354.182H281.399c-5.178,0-9.375,4.196-9.375,9.375
			c0,5.183,4.197,9.375,9.375,9.375h124.988c5.163,0,9.367-4.2,9.367-9.375C415.754,358.378,411.55,354.182,406.387,354.182
			 M631.349,354.182H518.863c-5.179,0-9.367,4.196-9.367,9.375c0,5.183,4.188,9.375,9.367,9.375h112.484
			c5.179,0,9.375-4.2,9.375-9.375C640.724,358.378,636.526,354.182,631.349,354.182 M397.004,276.069
			c0,5.175,4.197,9.375,9.383,9.375h224.962c5.178,0,9.375-4.2,9.375-9.375c0-5.178-4.204-9.375-9.375-9.375H406.387
			C401.201,266.694,397.004,270.891,397.004,276.069 M281.399,285.444h49.995c5.171,0,9.368-4.2,9.368-9.375
			c0-5.178-4.197-9.375-9.368-9.375h-49.995c-5.178,0-9.375,4.196-9.375,9.375C272.024,281.244,276.221,285.444,281.399,285.444
			 M367.634,266.694c-5.179,0-9.367,4.196-9.367,9.375c0,5.175,4.188,9.375,9.367,9.375h1.253c5.17,0,9.375-4.2,9.375-9.375
			c0-5.178-4.205-9.375-9.375-9.375H367.634z M445.124,354.182h-1.253c-5.178,0-9.367,4.196-9.367,9.375
			c0,5.183,4.189,9.375,9.367,9.375h1.253c5.171,0,9.375-4.2,9.375-9.375C454.499,358.378,450.295,354.182,445.124,354.182
			 M481.371,354.182h-1.253c-5.178,0-9.367,4.196-9.367,9.375c0,5.183,4.189,9.375,9.367,9.375h1.253c5.171,0,9.375-4.2,9.375-9.375
			C490.746,358.378,486.542,354.182,481.371,354.182"/>
	</g>
</g>
    <g>
	<g>
		<path fill="#E4F2FC" d="M471.498,773H65.548c-12.429,0-22.5-10.074-22.5-22.5V191.361c0-12.426,10.071-22.5,22.5-22.5h405.95
			c12.429,0,22.5,10.074,22.5,22.5V750.5C493.998,762.926,483.927,773,471.498,773"/>
	</g>
</g>
    <g>
	<g>
		<path fill="#2887C8" d="M450.111,750.339H36.764c-10.78,0-19.551-8.77-19.551-19.548v-62.336c0-0.414,0.336-0.75,0.75-0.75
			s0.75,0.336,0.75,0.75v62.336c0,9.951,8.098,18.048,18.051,18.048h413.349c9.953,0,18.052-8.097,18.052-18.048V365.666
			c0-0.414,0.336-0.75,0.75-0.75s0.75,0.336,0.75,0.75v365.125C469.663,741.569,460.893,750.339,450.111,750.339z"/>
	</g>
</g>
    <g>
	<g>
		<path fill="#2887C8" d="M17.963,627.274c-0.414,0-0.75-0.337-0.75-0.75V187.663c0-10.778,8.771-19.547,19.551-19.547h413.349
			c10.78,0,19.552,8.769,19.552,19.547v137.164c0,0.414-0.336,0.75-0.75,0.75s-0.75-0.336-0.75-0.75V187.663
			c0-9.951-8.099-18.047-18.052-18.047H36.764c-9.953,0-18.051,8.096-18.051,18.047v438.862
			C18.713,626.938,18.377,627.274,17.963,627.274z"/>
	</g>
</g>
    <g>
	<g>
		<path fill="#2887C8" d="M59.088,334.443c0-5.187,4.197-9.375,9.368-9.375h112.492c5.171,0,9.375,4.2,9.375,9.375
			c0,5.174-4.204,9.375-9.375,9.375H68.456C63.285,343.817,59.088,339.617,59.088,334.443 M418.412,587.537H305.928
			c-5.178,0-9.368,4.196-9.368,9.375c0,5.167,4.189,9.368,9.368,9.368h112.484c5.179,0,9.375-4.201,9.375-9.368
			C427.787,591.733,423.591,587.537,418.412,587.537 M193.443,500.042H68.456c-5.171,0-9.368,4.197-9.368,9.375
			c0,5.183,4.197,9.375,9.368,9.375h124.987c5.171,0,9.375-4.2,9.375-9.375C202.818,504.239,198.614,500.042,193.443,500.042
			 M418.412,500.042H305.928c-5.178,0-9.368,4.197-9.368,9.375c0,5.183,4.189,9.375,9.368,9.375h112.484
			c5.179,0,9.375-4.2,9.375-9.375C427.787,504.239,423.591,500.042,418.412,500.042 M184.068,421.93
			c0,5.176,4.197,9.376,9.375,9.376h224.969c5.179,0,9.375-4.2,9.375-9.376c0-5.178-4.204-9.375-9.375-9.375H193.443
			C188.265,412.555,184.068,416.752,184.068,421.93 M68.456,431.306h50.002c5.178,0,9.367-4.2,9.367-9.376
			c0-5.178-4.189-9.375-9.367-9.375H68.456c-5.171,0-9.368,4.197-9.368,9.375C59.088,427.104,63.285,431.306,68.456,431.306
			 M154.698,412.555c-5.178,0-9.368,4.197-9.368,9.375c0,5.176,4.189,9.376,9.368,9.376h1.252c5.171,0,9.375-4.2,9.375-9.376
			c0-5.178-4.204-9.375-9.375-9.375H154.698z M232.188,500.042h-1.252c-5.179,0-9.368,4.197-9.368,9.375
			c0,5.183,4.189,9.375,9.368,9.375h1.252c5.171,0,9.375-4.2,9.375-9.375C241.563,504.239,237.359,500.042,232.188,500.042
			 M268.435,500.042h-1.252c-5.178,0-9.368,4.197-9.368,9.375c0,5.183,4.189,9.375,9.368,9.375h1.252c5.171,0,9.368-4.2,9.368-9.375
			C277.803,504.239,273.606,500.042,268.435,500.042"/>
	</g>
</g>
    <g>
	<path fill="#2887C8"
          d="M90.758,270.553l-29.092-12.832v-4.189L90.758,239v7.031l-20.039,9.287l20.039,8.232V270.553z"/>
        <path fill="#2887C8" d="M101.422,262.291v-2.168c0-1.875,0.4-3.505,1.201-4.893c0.801-1.387,2.266-2.861,4.395-4.424
		c2.051-1.465,3.403-2.656,4.058-3.574c0.654-0.918,0.981-1.943,0.981-3.076c0-1.27-0.469-2.236-1.406-2.9
		c-0.938-0.664-2.246-0.996-3.926-0.996c-2.93,0-6.27,0.957-10.02,2.871l-3.193-6.416c4.355-2.441,8.975-3.662,13.857-3.662
		c4.023,0,7.222,0.967,9.595,2.9s3.56,4.512,3.56,7.734c0,2.149-0.488,4.004-1.465,5.566c-0.977,1.563-2.832,3.321-5.566,5.273
		c-1.875,1.387-3.062,2.442-3.56,3.164c-0.498,0.723-0.747,1.67-0.747,2.842v1.758H101.422z M100.484,272.311
		c0-1.641,0.439-2.881,1.318-3.721c0.879-0.839,2.158-1.26,3.838-1.26c1.621,0,2.875,0.43,3.765,1.289
		c0.889,0.86,1.333,2.09,1.333,3.691c0,1.543-0.45,2.759-1.348,3.647c-0.898,0.889-2.149,1.333-3.75,1.333
		c-1.641,0-2.911-0.435-3.809-1.304C100.934,275.119,100.484,273.893,100.484,272.311z"/>
        <path fill="#2887C8" d="M144.635,277.086c-3.848,0-6.866-1.396-9.053-4.189h-0.469c0.312,2.735,0.469,4.316,0.469,4.746v13.271
		h-8.936v-47.168h7.266l1.26,4.248h0.41c2.09-3.242,5.186-4.863,9.287-4.863c3.867,0,6.895,1.494,9.082,4.482
		c2.187,2.988,3.281,7.139,3.281,12.451c0,3.497-0.513,6.533-1.538,9.111s-2.486,4.541-4.38,5.889
		C149.42,276.412,147.193,277.086,144.635,277.086z M141.998,250.279c-2.208,0-3.819,0.679-4.834,2.036
		c-1.016,1.358-1.543,3.599-1.582,6.724v0.967c0,3.516,0.522,6.035,1.567,7.559c1.044,1.523,2.7,2.285,4.966,2.285
		c4.003,0,6.006-3.3,6.006-9.902c0-3.223-0.494-5.64-1.479-7.251C145.655,251.085,144.107,250.279,141.998,250.279z"/>
        <path fill="#2887C8" d="M194.85,276.5h-8.936v-19.131c0-4.727-1.758-7.09-5.273-7.09c-2.5,0-4.307,0.85-5.42,2.549
		s-1.67,4.453-1.67,8.262v15.41h-8.936v-45.586h8.936v9.287c0,0.723-0.069,2.422-0.205,5.098l-0.205,2.637h0.469
		c1.992-3.203,5.156-4.805,9.492-4.805c3.848,0,6.768,1.036,8.76,3.105c1.992,2.07,2.988,5.039,2.988,8.906V276.5z"/>
        <path fill="#2887C8" d="M222.037,277.086c-3.848,0-6.866-1.396-9.053-4.189h-0.469c0.312,2.735,0.469,4.316,0.469,4.746v13.271
		h-8.936v-47.168h7.266l1.26,4.248h0.41c2.09-3.242,5.186-4.863,9.287-4.863c3.867,0,6.895,1.494,9.082,4.482
		c2.187,2.988,3.281,7.139,3.281,12.451c0,3.497-0.513,6.533-1.538,9.111s-2.486,4.541-4.38,5.889
		C226.822,276.412,224.596,277.086,222.037,277.086z M219.4,250.279c-2.208,0-3.819,0.679-4.834,2.036
		c-1.016,1.358-1.543,3.599-1.582,6.724v0.967c0,3.516,0.522,6.035,1.567,7.559c1.044,1.523,2.7,2.285,4.966,2.285
		c4.003,0,6.006-3.3,6.006-9.902c0-3.223-0.494-5.64-1.479-7.251C223.058,251.085,221.51,250.279,219.4,250.279z"/>
</g>
    <g>
	<path fill="#009D3C"
          d="M318.758,136.553l-29.092-12.832v-4.189L318.758,105v7.031l-20.039,9.287l20.039,8.232V136.553z"/>
        <path fill="#009D3C" d="M343.543,112.441c0,4.493-0.869,7.866-2.607,10.122c-1.739,2.256-4.288,3.384-7.646,3.384
		c-3.223,0-5.713-1.157-7.471-3.472s-2.637-5.659-2.637-10.034c0-8.925,3.369-13.389,10.107-13.389c3.3,0,5.834,1.157,7.603,3.472
		C342.659,104.839,343.543,108.145,343.543,112.441z M330.564,112.5c0,2.48,0.22,4.332,0.659,5.552
		c0.439,1.221,1.147,1.831,2.124,1.831c1.875,0,2.813-2.461,2.813-7.383c0-4.882-0.938-7.324-2.813-7.324
		c-0.977,0-1.685,0.601-2.124,1.802S330.564,110.02,330.564,112.5z M363.699,99.668l-23.76,42.832h-7.031l23.76-42.832H363.699z
		 M373.543,129.551c0,4.473-0.869,7.837-2.607,10.093s-4.287,3.384-7.646,3.384c-3.223,0-5.713-1.157-7.471-3.472
		s-2.637-5.649-2.637-10.005c0-8.925,3.369-13.389,10.107-13.389c3.301,0,5.834,1.157,7.603,3.472
		C372.659,121.948,373.543,125.254,373.543,129.551z M360.564,129.609c0,2.48,0.22,4.332,0.659,5.552
		c0.439,1.221,1.147,1.831,2.124,1.831c1.875,0,2.813-2.461,2.813-7.383c0-4.882-0.938-7.324-2.813-7.324
		c-0.977,0-1.685,0.601-2.124,1.802S360.564,127.129,360.564,129.609z"/>
</g>
    <g>
	<path fill="#FFFFFF" d="M790.25,634.229c0,65.53-53.127,118.657-118.659,118.657c-65.546,0.001-118.659-53.126-118.659-118.657
		c0-65.533,53.113-118.664,118.659-118.664C737.123,515.565,790.25,568.696,790.25,634.229"/>
</g>
    <g>
	<path fill="#2887C8" d="M671.591,753.638c-65.843,0-119.409-53.565-119.409-119.408c0-65.845,53.566-119.413,119.409-119.413
		S791,568.385,791,634.229C791,700.071,737.434,753.638,671.591,753.638z M671.591,516.315
		c-65.015,0-117.909,52.896-117.909,117.914c0,65.015,52.895,117.907,117.909,117.907c65.016,0,117.909-52.894,117.909-117.907
		C789.5,569.212,736.606,516.315,671.591,516.315z"/>
</g>
    <g>
	<path fill="#E4F0CC" d="M755.463,634.229c0,46.319-37.561,83.875-83.872,83.875c-46.325,0-83.878-37.556-83.878-83.875
		c0-46.326,37.553-83.871,83.878-83.871C717.902,550.358,755.463,587.903,755.463,634.229"/>
</g>
    <g>
	<path fill="#0B9D49" d="M728.877,607.466c0,1.974-0.696,3.646-2.068,5.029l-53.52,53.521l-10.064,10.06
		c-1.372,1.377-3.05,2.067-5.02,2.067c-1.976,0-3.653-0.69-5.024-2.067l-10.06-10.06l-26.762-26.757
		c-1.379-1.383-2.068-3.057-2.068-5.028c0-1.973,0.689-3.646,2.068-5.029l10.051-10.051c1.387-1.377,3.063-2.068,5.041-2.068
		c1.955,0,3.64,0.691,5.019,2.068l21.737,21.811l48.5-48.578c1.371-1.375,3.057-2.067,5.019-2.067c1.976,0,3.661,0.692,5.033,2.067
		l10.051,10.06C728.181,603.827,728.877,605.501,728.877,607.466"/>
</g>
</svg>
