<svg xmlns="http://www.w3.org/2000/svg" id="Layer_1" width="800" height="800" x="0" y="0" enable-background="new 0 0 800 800" version="1.0" viewBox="0 0 800 800" xml:space="preserve"><g><path fill="#E4F0CC" d="M725.472,628.14H319.521c-12.429,0-22.5-10.075-22.5-22.5V46.5c0-12.425,10.071-22.5,22.5-22.5h405.951 c12.422,0,22.5,10.075,22.5,22.5v559.14C747.972,618.064,737.894,628.14,725.472,628.14"/></g><g><path fill="#0B9D49" d="M704.085,605.478H290.737c-10.781,0-19.551-8.77-19.551-19.548v-62.336c0-0.414,0.336-0.75,0.75-0.75 s0.75,0.336,0.75,0.75v62.336c0,9.951,8.098,18.048,18.051,18.048h413.348c9.949,0,18.043-8.097,18.043-18.048V220.805 c0-0.414,0.336-0.75,0.75-0.75s0.75,0.336,0.75,0.75V585.93C723.628,596.708,714.861,605.478,704.085,605.478z"/></g><g><path fill="#0B9D49" d="M271.936,482.413c-0.414,0-0.75-0.336-0.75-0.75V42.801c0-10.778,8.771-19.547,19.551-19.547h413.348 c10.78,0,19.551,8.769,19.551,19.547v137.164c0,0.414-0.336,0.75-0.75,0.75s-0.75-0.336-0.75-0.75V42.801 c0-9.951-8.098-18.047-18.051-18.047H290.737c-9.954,0-18.051,8.096-18.051,18.047v438.862 C272.686,482.077,272.35,482.413,271.936,482.413z"/></g><g><path fill="#0B9D49" d="M313.061,189.582c0-5.174,4.197-9.375,9.375-9.375h112.485c5.171,0,9.375,4.201,9.375,9.375 c0,5.175-4.204,9.375-9.375,9.375H322.436C317.258,198.957,313.061,194.756,313.061,189.582 M672.386,442.676H559.9 c-5.178,0-9.367,4.197-9.367,9.375c0,5.167,4.189,9.368,9.367,9.368h112.485c5.178,0,9.375-4.201,9.375-9.368 C681.761,446.873,677.563,442.676,672.386,442.676 M447.424,355.182H322.436c-5.178,0-9.375,4.196-9.375,9.375 c0,5.182,4.197,9.375,9.375,9.375h124.988c5.163,0,9.367-4.201,9.367-9.375C456.791,359.378,452.587,355.182,447.424,355.182 M672.386,355.182H559.9c-5.178,0-9.367,4.196-9.367,9.375c0,5.182,4.189,9.375,9.367,9.375h112.485 c5.178,0,9.375-4.201,9.375-9.375C681.761,359.378,677.563,355.182,672.386,355.182 M438.041,277.069 c0,5.175,4.197,9.375,9.383,9.375h224.962c5.178,0,9.375-4.2,9.375-9.375c0-5.178-4.204-9.375-9.375-9.375H447.424 C442.238,267.694,438.041,271.891,438.041,277.069 M322.436,286.444h49.995c5.171,0,9.368-4.2,9.368-9.375 c0-5.178-4.197-9.375-9.368-9.375h-49.995c-5.178,0-9.375,4.196-9.375,9.375C313.061,282.244,317.258,286.444,322.436,286.444 M408.671,267.694c-5.179,0-9.367,4.196-9.367,9.375c0,5.175,4.188,9.375,9.367,9.375h1.253c5.17,0,9.375-4.2,9.375-9.375 c0-5.178-4.205-9.375-9.375-9.375H408.671z M486.161,355.182h-1.253c-5.178,0-9.367,4.196-9.367,9.375 c0,5.182,4.189,9.375,9.367,9.375h1.253c5.171,0,9.375-4.201,9.375-9.375C495.536,359.378,491.332,355.182,486.161,355.182 M522.408,355.182h-1.253c-5.178,0-9.367,4.196-9.367,9.375c0,5.182,4.189,9.375,9.367,9.375h1.253 c5.171,0,9.375-4.201,9.375-9.375C531.783,359.378,527.579,355.182,522.408,355.182"/></g><g><path fill="#E4F2FC" d="M512.535,774h-405.95c-12.429,0-22.5-10.074-22.5-22.5V192.361c0-12.426,10.071-22.5,22.5-22.5h405.95 c12.429,0,22.5,10.074,22.5,22.5V751.5C535.035,763.926,524.964,774,512.535,774"/></g><g><path fill="#2887C8" d="M491.148,751.339H77.801c-10.78,0-19.551-8.77-19.551-19.548v-62.336c0-0.414,0.336-0.75,0.75-0.75 s0.75,0.336,0.75,0.75v62.336c0,9.951,8.098,18.048,18.051,18.048h413.348c9.954,0,18.052-8.097,18.052-18.048V366.666 c0-0.414,0.336-0.75,0.75-0.75s0.75,0.336,0.75,0.75v365.125C510.7,742.569,501.93,751.339,491.148,751.339z"/></g><g><path fill="#2887C8" d="M59,628.274c-0.414,0-0.75-0.336-0.75-0.75V188.663c0-10.778,8.771-19.547,19.551-19.547h413.348 c10.781,0,19.552,8.769,19.552,19.547v137.164c0,0.414-0.336,0.75-0.75,0.75s-0.75-0.336-0.75-0.75V188.663 c0-9.951-8.098-18.047-18.052-18.047H77.801c-9.953,0-18.051,8.096-18.051,18.047v438.862C59.75,627.938,59.414,628.274,59,628.274 z"/></g><g><path fill="#2887C8" d="M100.125,335.443c0-5.186,4.197-9.375,9.368-9.375h112.492c5.171,0,9.375,4.201,9.375,9.375 s-4.204,9.375-9.375,9.375H109.493C104.322,344.817,100.125,340.617,100.125,335.443 M459.449,588.537H346.965 c-5.178,0-9.368,4.196-9.368,9.375c0,5.167,4.189,9.368,9.368,9.368h112.484c5.179,0,9.375-4.201,9.375-9.368 C468.824,592.733,464.628,588.537,459.449,588.537 M234.48,501.042H109.493c-5.171,0-9.368,4.197-9.368,9.375 c0,5.183,4.197,9.375,9.368,9.375H234.48c5.171,0,9.375-4.2,9.375-9.375C243.855,505.239,239.651,501.042,234.48,501.042 M459.449,501.042H346.965c-5.178,0-9.368,4.197-9.368,9.375c0,5.183,4.189,9.375,9.368,9.375h112.484 c5.179,0,9.375-4.2,9.375-9.375C468.824,505.239,464.628,501.042,459.449,501.042 M225.105,422.93c0,5.175,4.197,9.376,9.375,9.376 h224.969c5.179,0,9.375-4.201,9.375-9.376c0-5.178-4.204-9.375-9.375-9.375H234.48C229.302,413.555,225.105,417.752,225.105,422.93 M109.493,432.306h50.002c5.178,0,9.367-4.201,9.367-9.376c0-5.178-4.189-9.375-9.367-9.375h-50.002 c-5.171,0-9.368,4.197-9.368,9.375C100.125,428.104,104.322,432.306,109.493,432.306 M195.735,413.555 c-5.178,0-9.368,4.197-9.368,9.375c0,5.175,4.189,9.376,9.368,9.376h1.252c5.171,0,9.375-4.201,9.375-9.376 c0-5.178-4.204-9.375-9.375-9.375H195.735z M273.225,501.042h-1.252c-5.179,0-9.368,4.197-9.368,9.375 c0,5.183,4.189,9.375,9.368,9.375h1.252c5.171,0,9.375-4.2,9.375-9.375C282.6,505.239,278.396,501.042,273.225,501.042 M309.472,501.042h-1.252c-5.178,0-9.368,4.197-9.368,9.375c0,5.183,4.189,9.375,9.368,9.375h1.252c5.171,0,9.368-4.2,9.368-9.375 C318.84,505.239,314.643,501.042,309.472,501.042"/></g></svg>