<?xml version="1.0" encoding="utf-8"?>
<!-- Generator: Adobe Illustrator 16.0.0, SVG Export Plug-In . SVG Version: 6.00 Build 0)  -->
<!DOCTYPE svg PUBLIC "-//W3C//DTD SVG 1.0//EN" "http://www.w3.org/TR/2001/REC-SVG-20010904/DTD/svg10.dtd">
<svg version="1.0" id="Layer_1" xmlns="http://www.w3.org/2000/svg" x="0px" y="0px"
     width="800px" height="800px" viewBox="0 0 800 800" enable-background="new 0 0 800 800" xml:space="preserve">
<g>
	<path fill="#B1D465" d="M490.264,329.115c-0.049,39.578-27.977,74.051-66.644,82.259c-47.548,10.099-93.969-22.254-100.706-70.533
		c-3.277-23.512,2.558-44.883,17.177-63.714c0.908-1.178,1.322-2.296,1.23-3.773c-1.194-18.069-5.488-35.311-13.839-51.446
		c-2.893-5.595-7.809-9.32-12.785-12.88c-11.019-7.885-22.915-14.259-35.165-19.955c-3.88-1.803-8.29-2.156-12.328-3.74
		c-23.062-9.033-37.552-33.002-34.842-57.82c2.753-25.126,22.428-45.553,47.207-49c30.212-4.206,57.458,15.332,63.025,45.288
		c1.249,6.694,1.401,13.504-0.201,20.14c-1.632,6.762-2.43,13.599-2.863,20.497c-0.651,10.248-0.877,20.481-0.372,30.764
		c0.524,10.501,4.3,19.242,11.476,26.926c9.502,10.185,20.137,18.679,32.752,24.636c1.249,0.594,2.376,0.762,3.728,0.445
		c44.55-10.504,89.601,17.07,100.626,61.6c0.664,2.68,1.176,5.409,1.602,8.138C489.971,320.972,490.117,325.043,490.264,329.115
		 M666.926,311.5c0.043-30.831-24.906-55.841-55.686-55.829c-30.639,0.019-55.631,24.974-55.71,55.637
		c-0.079,30.709,24.98,55.768,55.759,55.762C642.02,367.058,666.883,342.227,666.926,311.5 M182.666,375.716
		c30.699,0.055,55.862-25.062,55.862-55.749c0-30.669-24.931-55.613-55.618-55.649c-30.895-0.04-55.777,24.791-55.777,55.661
		C127.138,350.672,152.039,375.664,182.666,375.716 M234.227,508.439c-0.03,30.807,24.938,55.813,55.716,55.773
		c30.681-0.03,55.637-24.939,55.697-55.597c0.061-30.778-24.925-55.746-55.765-55.729
		C259.091,452.909,234.264,477.691,234.227,508.439 M547.033,133.58c0.006-30.763-25.114-55.798-55.85-55.679
		c-30.913,0.119-55.649,25.004-55.558,55.893c0.085,30.688,25.053,55.493,55.771,55.433
		C522.09,189.162,547.021,164.225,547.033,133.58 M512.838,452.888c-30.895-0.066-55.771,24.758-55.771,55.64
		c0.006,30.746,24.725,55.537,55.527,55.686c30.663,0.149,55.832-24.939,55.85-55.686
		C568.475,477.847,543.598,452.958,512.838,452.888"/>
</g>
    <g>
	<path fill="#2887C8" d="M88.625,643.582c0,8.742-2.982,15.466-8.948,20.171c-5.965,4.706-14.5,7.059-25.604,7.059H43.913v33.962
		H33.872v-86.353h22.386C77.836,618.421,88.625,626.808,88.625,643.582z M43.913,662.188h9.037c8.898,0,15.336-1.437,19.314-4.312
		c3.977-2.874,5.966-7.481,5.966-13.821c0-5.709-1.871-9.962-5.611-12.758c-3.741-2.796-9.568-4.193-17.483-4.193H43.913V662.188z"
    />
        <path fill="#2887C8" d="M140.193,704.773l-1.949-9.214h-0.472c-3.229,4.056-6.448,6.803-9.657,8.239
		c-3.21,1.437-7.216,2.156-12.02,2.156c-6.418,0-11.449-1.654-15.091-4.962c-3.643-3.308-5.463-8.013-5.463-14.116
		c0-13.073,10.454-19.925,31.363-20.555l10.986-0.354v-4.017c0-5.079-1.093-8.83-3.278-11.252c-2.186-2.421-5.68-3.632-10.484-3.632
		c-5.396,0-11.499,1.653-18.31,4.961l-3.013-7.501c3.189-1.732,6.684-3.091,10.484-4.075c3.799-0.984,7.609-1.477,11.429-1.477
		c7.717,0,13.438,1.713,17.159,5.139c3.721,3.426,5.582,8.918,5.582,16.479v44.181H140.193z M118.044,697.863
		c6.103,0,10.897-1.674,14.382-5.021s5.228-8.033,5.228-14.058v-5.848l-9.805,0.413c-7.796,0.276-13.417,1.487-16.863,3.633
		c-3.446,2.146-5.168,5.483-5.168,10.012c0,3.544,1.072,6.241,3.219,8.092C111.183,696.938,114.185,697.863,118.044,697.863z"/>
        <path fill="#2887C8" d="M192.353,638.857c2.874,0,5.454,0.236,7.738,0.708l-1.359,9.097c-2.678-0.591-5.041-0.887-7.087-0.887
		c-5.238,0-9.716,2.127-13.438,6.38c-3.721,4.252-5.582,9.549-5.582,15.888v34.73h-9.805v-64.735h8.092l1.122,11.99h0.473
		c2.401-4.213,5.295-7.461,8.683-9.745C184.576,640,188.296,638.857,192.353,638.857z"/>
        <path fill="#2887C8" d="M247.169,704.773l-1.949-9.214h-0.472c-3.229,4.056-6.448,6.803-9.657,8.239
		c-3.21,1.437-7.216,2.156-12.02,2.156c-6.418,0-11.449-1.654-15.091-4.962c-3.643-3.308-5.463-8.013-5.463-14.116
		c0-13.073,10.454-19.925,31.363-20.555l10.986-0.354v-4.017c0-5.079-1.093-8.83-3.278-11.252c-2.186-2.421-5.68-3.632-10.484-3.632
		c-5.396,0-11.499,1.653-18.31,4.961l-3.013-7.501c3.189-1.732,6.684-3.091,10.484-4.075c3.799-0.984,7.609-1.477,11.429-1.477
		c7.717,0,13.438,1.713,17.159,5.139c3.721,3.426,5.582,8.918,5.582,16.479v44.181H247.169z M225.02,697.863
		c6.103,0,10.897-1.674,14.382-5.021s5.228-8.033,5.228-14.058v-5.848l-9.805,0.413c-7.796,0.276-13.417,1.487-16.863,3.633
		c-3.446,2.146-5.168,5.483-5.168,10.012c0,3.544,1.072,6.241,3.219,8.092C218.159,696.938,221.161,697.863,225.02,697.863z"/>
        <path fill="#2887C8" d="M279.601,704.773h-9.805v-91.905h9.805V704.773z"/>
        <path fill="#2887C8" d="M305.479,704.773h-9.805v-91.905h9.805V704.773z"/>
        <path fill="#2887C8" d="M348.899,705.955c-9.569,0-17.12-2.914-22.651-8.742c-5.533-5.827-8.299-13.919-8.299-24.275
		c0-10.435,2.569-18.724,7.708-24.866s12.039-9.214,20.702-9.214c8.111,0,14.53,2.668,19.255,8.003
		c4.725,5.336,7.087,12.374,7.087,21.115v6.202h-44.594c0.197,7.6,2.116,13.369,5.759,17.306c3.642,3.938,8.771,5.907,15.386,5.907
		c6.97,0,13.86-1.457,20.673-4.371v8.741c-3.465,1.497-6.744,2.569-9.834,3.22C357,705.63,353.27,705.955,348.899,705.955z
		 M346.241,647.067c-5.198,0-9.342,1.693-12.433,5.079c-3.092,3.387-4.913,8.072-5.463,14.058h33.844
		c0-6.182-1.379-10.917-4.135-14.205C355.297,648.712,351.36,647.067,346.241,647.067z"/>
        <path fill="#2887C8" d="M394.384,704.773h-9.805v-91.905h9.805V704.773z"/>
        <path fill="#2887C8" d="M452.216,687.113c0,6.024-2.245,10.671-6.733,13.939s-10.789,4.902-18.9,4.902
		c-8.585,0-15.279-1.358-20.082-4.076v-9.096c3.109,1.575,6.447,2.815,10.012,3.721c3.563,0.906,6.998,1.359,10.307,1.359
		c5.117,0,9.056-0.817,11.813-2.451c2.756-1.634,4.135-4.125,4.135-7.472c0-2.52-1.093-4.676-3.278-6.468s-6.448-3.908-12.788-6.35
		c-6.023-2.245-10.307-4.203-12.846-5.877c-2.54-1.674-4.43-3.573-5.67-5.7c-1.241-2.126-1.861-4.666-1.861-7.619
		c0-5.276,2.146-9.44,6.438-12.492c4.292-3.051,10.18-4.577,17.661-4.577c6.97,0,13.781,1.417,20.437,4.252l-3.484,7.974
		c-6.498-2.677-12.385-4.016-17.661-4.016c-4.646,0-8.151,0.729-10.513,2.185c-2.363,1.458-3.545,3.466-3.545,6.025
		c0,1.732,0.443,3.21,1.329,4.43c0.886,1.221,2.313,2.383,4.282,3.484c1.969,1.104,5.749,2.698,11.341,4.784
		c7.679,2.797,12.866,5.611,15.563,8.446C450.867,679.258,452.216,682.821,452.216,687.113z"/>
</g>
    <g>
	<path fill="#2887C8" d="M523.043,645.354c0,9.293-2.904,16.4-8.712,21.322c-5.809,4.923-14.067,7.383-24.778,7.383h-7.855v30.714
		h-18.31v-86.353h27.583c10.475,0,18.438,2.254,23.892,6.763C520.315,629.692,523.043,636.416,523.043,645.354z M481.697,659.058
		h6.025c5.63,0,9.844-1.112,12.64-3.338c2.796-2.224,4.193-5.463,4.193-9.716c0-4.291-1.172-7.462-3.515-9.51
		c-2.343-2.047-6.016-3.071-11.016-3.071h-8.328V659.058z"/>
        <path fill="#2887C8" d="M555.941,704.773h-18.015v-91.905h18.015V704.773z"/>
        <path fill="#2887C8" d="M604.729,705.955c-10.632,0-18.94-2.934-24.925-8.801c-5.986-5.867-8.979-14.176-8.979-24.926
		c0-11.064,2.767-19.618,8.299-25.663s13.181-9.067,22.947-9.067c9.332,0,16.597,2.658,21.795,7.975
		c5.197,5.315,7.796,12.66,7.796,22.031v8.741h-42.586c0.197,5.119,1.713,9.116,4.549,11.99c2.835,2.875,6.812,4.312,11.931,4.312
		c3.977,0,7.737-0.413,11.281-1.24s7.245-2.146,11.104-3.957v13.939c-3.15,1.575-6.518,2.746-10.101,3.514
		C614.259,705.571,609.888,705.955,604.729,705.955z M602.19,650.315c-3.82,0-6.813,1.211-8.979,3.633
		c-2.166,2.422-3.406,5.857-3.721,10.307h25.279c-0.079-4.449-1.24-7.885-3.484-10.307S606.009,650.315,602.19,650.315z"/>
        <path fill="#2887C8" d="M692.383,685.164c0,6.772-2.354,11.931-7.059,15.475c-4.706,3.544-11.745,5.316-21.116,5.316
		c-4.804,0-8.899-0.325-12.285-0.975c-3.387-0.65-6.557-1.604-9.51-2.865v-14.884c3.347,1.575,7.117,2.894,11.312,3.957
		c4.193,1.063,7.885,1.595,11.074,1.595c6.536,0,9.805-1.89,9.805-5.67c0-1.418-0.434-2.569-1.299-3.455
		c-0.867-0.887-2.363-1.891-4.489-3.013s-4.962-2.431-8.505-3.928c-5.08-2.127-8.812-4.095-11.193-5.906
		c-2.383-1.812-4.115-3.889-5.197-6.231c-1.084-2.343-1.625-5.228-1.625-8.653c0-5.867,2.274-10.404,6.822-13.614
		c4.548-3.209,10.995-4.814,19.344-4.814c7.953,0,15.691,1.733,23.213,5.198l-5.435,12.994c-3.308-1.417-6.399-2.578-9.272-3.484
		c-2.875-0.905-5.809-1.358-8.801-1.358c-5.316,0-7.974,1.438-7.974,4.312c0,1.615,0.856,3.012,2.569,4.193
		s5.463,2.934,11.251,5.257c5.158,2.088,8.938,4.037,11.341,5.848c2.401,1.812,4.174,3.898,5.316,6.261
		C691.812,679.08,692.383,681.896,692.383,685.164z"/>
        <path fill="#2887C8" d="M723.746,668.862l7.855-10.041l18.487-20.082h20.318l-26.226,28.646l27.82,37.388h-20.791l-19.019-26.757
		l-7.738,6.202v20.555h-18.015v-91.905h18.015v40.991l-0.944,15.003H723.746z"/>
</g>
</svg>
