<?xml version="1.0" encoding="utf-8"?>
<!-- Generator: Adobe Illustrator 16.0.0, SVG Export Plug-In . SVG Version: 6.00 Build 0)  -->
<!DOCTYPE svg PUBLIC "-//W3C//DTD SVG 1.0//EN" "http://www.w3.org/TR/2001/REC-SVG-20010904/DTD/svg10.dtd">
<svg version="1.0" id="Layer_1" xmlns="http://www.w3.org/2000/svg" x="0px" y="0px"
     width="800px" height="800px" viewBox="0 0 800 800" enable-background="new 0 0 800 800" xml:space="preserve">
<path fill="#FFFFFF" d="M325.54,693.986c-4.217-2.914-6.811-5.375-8.234-6.938l4.149,1.75
	C321.455,688.799,323.268,690.68,325.54,693.986"/>
    <path fill="#2887C8" d="M325.217,685.104c-0.522-0.451-1.104-0.91-1.752-1.168l-8.56-3.566c-0.452,1.691-0.126,3.439,0.913,4.932
	c0.126,0.195,0.578,0.773,1.484,1.752c1.429,1.551,4.023,4.014,8.24,6.934c2.462,1.752,5.569,3.695,9.267,5.641
	C330.857,691.004,325.668,685.559,325.217,685.104"/>
    <path fill="#E4F2FC" d="M309.59,446.914c0,21.135-17.179,38.313-38.316,38.313c-21.131,0-38.316-17.178-38.316-38.313
	s17.185-38.316,38.316-38.316C292.412,408.598,309.59,425.779,309.59,446.914"/>
    <path fill="#FFFFFF" d="M492.156,707.732c-134.654,9.725-166.362-28.656-166.939-29.373c-1.881-2.525-5.514-3.109-8.108-1.229
	c-1.1,0.838-1.875,2.01-2.201,3.242c-0.455,1.682-0.129,3.436,0.904,4.928c0.135,0.189,0.587,0.773,1.494,1.746
	c1.429,1.561,4.021,4.02,8.231,6.936c2.471,1.756,5.579,3.701,9.273,5.641c18.608,9.928,53.488,21.332,115.468,21.332
	c13.029,0,27.227-0.453,42.723-1.617c3.24-0.203,5.639-2.982,5.379-6.225C498.186,709.932,495.459,707.473,492.156,707.732
	 M492.156,707.732c-134.654,9.725-166.362-28.656-166.939-29.373c-1.881-2.525-5.514-3.109-8.108-1.229
	c-1.1,0.838-1.875,2.01-2.201,3.242c-0.455,1.682-0.129,3.436,0.904,4.928c0.135,0.189,0.587,0.773,1.494,1.746
	c1.429,1.561,4.021,4.02,8.231,6.936c2.471,1.756,5.579,3.701,9.273,5.641c18.608,9.928,53.488,21.332,115.468,21.332
	c13.029,0,27.227-0.453,42.723-1.617c3.24-0.203,5.639-2.982,5.379-6.225C498.186,709.932,495.459,707.473,492.156,707.732
	 M492.156,707.732c-134.654,9.725-166.362-28.656-166.939-29.373c-1.881-2.525-5.514-3.109-8.108-1.229
	c-1.1,0.838-1.875,2.01-2.201,3.242c-0.455,1.682-0.129,3.436,0.904,4.928c0.135,0.189,0.587,0.773,1.494,1.746
	c1.429,1.561,4.021,4.02,8.231,6.936c2.471,1.756,5.579,3.701,9.273,5.641c18.608,9.928,53.488,21.332,115.468,21.332
	c13.029,0,27.227-0.453,42.723-1.617c3.24-0.203,5.639-2.982,5.379-6.225C498.186,709.932,495.459,707.473,492.156,707.732
	 M492.156,707.732c-134.654,9.725-166.362-28.656-166.939-29.373c-1.881-2.525-5.514-3.109-8.108-1.229
	c-1.1,0.838-1.875,2.01-2.201,3.242c-0.455,1.682-0.129,3.436,0.904,4.928c0.135,0.189,0.587,0.773,1.494,1.746
	c1.429,1.561,4.021,4.02,8.231,6.936c2.471,1.756,5.579,3.701,9.273,5.641c18.608,9.928,53.488,21.332,115.468,21.332
	c13.029,0,27.227-0.453,42.723-1.617c3.24-0.203,5.639-2.982,5.379-6.225C498.186,709.932,495.459,707.473,492.156,707.732
	 M475.234,282.831c-8.17-0.913-16.402-1.562-24.77-1.819c1.297,0.648,2.271,1.297,2.984,1.819c0.906,0.774,1.748,1.749,2.529,2.85
	c0.258,0.455,0.518,0.971,0.713,1.423c0.258,0.713,0.391,1.429,0.391,2.21c0,3.563-1.494,6.283-4.604,8.228
	c-3.047,1.946-6.615,2.92-10.629,2.92c-1.82,0-3.697-0.197-5.514-0.517c-6.486-1.171-12.578-4.021-18.15-8.489l-0.193-0.136
	c-0.455-0.516-1.039-0.716-1.752-0.584c-0.843,0.068-1.365,0.326-1.756,0.781l-7.711,9.141c-0.711,0.904-0.648,1.875,0.196,2.788
	c0.194,0.258,0.646,0.71,1.297,1.226c0.578,0.523,1.749,1.365,3.437,2.533c1.678,1.168,3.563,2.266,5.569,3.24
	c1.946,1.039,4.476,2.078,7.586,3.049c3.046,0.968,6.228,1.684,9.53,2.074v11.861c0,0.584,0.195,1.106,0.717,1.562
	c0.455,0.387,1.033,0.646,1.682,0.646h10.055c0.709,0,1.297-0.194,1.748-0.646c0.451-0.391,0.648-0.913,0.648-1.562v-11.861
	c7.906-1.171,14.391-4.217,19.318-9.208c4.93-4.921,7.393-10.693,7.459-17.498v-0.391
	C476.016,286.455,475.752,284.644,475.234,282.831 M492.156,707.732c-134.654,9.725-166.362-28.656-166.939-29.373
	c-1.881-2.525-5.514-3.109-8.108-1.229c-1.1,0.838-1.875,2.01-2.201,3.242c-0.455,1.682-0.129,3.436,0.904,4.928
	c0.135,0.189,0.587,0.773,1.494,1.746c1.429,1.561,4.021,4.02,8.231,6.936c2.471,1.756,5.579,3.701,9.273,5.641
	c18.608,9.928,53.488,21.332,115.468,21.332c13.029,0,27.227-0.453,42.723-1.617c3.24-0.203,5.639-2.982,5.379-6.225
	C498.186,709.932,495.459,707.473,492.156,707.732 M492.156,707.732c-134.654,9.725-166.362-28.656-166.939-29.373
	c-1.881-2.525-5.514-3.109-8.108-1.229c-1.1,0.838-1.875,2.01-2.201,3.242c-0.455,1.682-0.129,3.436,0.904,4.928
	c0.135,0.189,0.587,0.773,1.494,1.746c1.429,1.561,4.021,4.02,8.231,6.936c2.471,1.756,5.579,3.701,9.273,5.641
	c18.608,9.928,53.488,21.332,115.468,21.332c13.029,0,27.227-0.453,42.723-1.617c3.24-0.203,5.639-2.982,5.379-6.225
	C498.186,709.932,495.459,707.473,492.156,707.732 M492.156,707.732c-134.654,9.725-166.362-28.656-166.939-29.373
	c-1.881-2.525-5.514-3.109-8.108-1.229c-1.1,0.838-1.875,2.01-2.201,3.242c-0.455,1.682-0.129,3.436,0.904,4.928
	c0.135,0.189,0.587,0.773,1.494,1.746c1.429,1.561,4.021,4.02,8.231,6.936c2.471,1.756,5.579,3.701,9.273,5.641
	c18.608,9.928,53.488,21.332,115.468,21.332c13.029,0,27.227-0.453,42.723-1.617c3.24-0.203,5.639-2.982,5.379-6.225
	C498.186,709.932,495.459,707.473,492.156,707.732 M492.156,707.732c-134.654,9.725-166.362-28.656-166.939-29.373
	c-1.881-2.525-5.514-3.109-8.108-1.229c-1.1,0.838-1.875,2.01-2.201,3.242c-0.455,1.682-0.129,3.436,0.904,4.928
	c0.135,0.189,0.587,0.773,1.494,1.746c1.429,1.561,4.021,4.02,8.231,6.936c2.471,1.756,5.579,3.701,9.273,5.641
	c18.608,9.928,53.488,21.332,115.468,21.332c13.029,0,27.227-0.453,42.723-1.617c3.24-0.203,5.639-2.982,5.379-6.225
	C498.186,709.932,495.459,707.473,492.156,707.732 M703.826,537.549c0.07,0.455,0.131,0.844,0.264,1.234
	c0.064-1.43,0.191-2.789,0.191-4.154C703.896,535.543,703.699,536.512,703.826,537.549 M492.156,707.732
	c-134.654,9.725-166.362-28.656-166.939-29.373c-1.881-2.525-5.514-3.109-8.108-1.229c-1.1,0.838-1.875,2.01-2.201,3.242
	c-0.455,1.682-0.129,3.436,0.904,4.928c0.135,0.189,0.587,0.773,1.494,1.746c1.429,1.561,4.021,4.02,8.231,6.936
	c2.471,1.756,5.579,3.701,9.273,5.641c18.608,9.928,53.488,21.332,115.468,21.332c13.029,0,27.227-0.453,42.723-1.617
	c3.24-0.203,5.639-2.982,5.379-6.225C498.186,709.932,495.459,707.473,492.156,707.732 M492.156,707.732
	c-134.654,9.725-166.362-28.656-166.939-29.373c-1.881-2.525-5.514-3.109-8.108-1.229c-1.1,0.838-1.875,2.01-2.201,3.242
	c-0.455,1.682-0.129,3.436,0.904,4.928c0.135,0.189,0.587,0.773,1.494,1.746c1.429,1.561,4.021,4.02,8.231,6.936
	c2.471,1.756,5.579,3.701,9.273,5.641c18.608,9.928,53.488,21.332,115.468,21.332c13.029,0,27.227-0.453,42.723-1.617
	c3.24-0.203,5.639-2.982,5.379-6.225C498.186,709.932,495.459,707.473,492.156,707.732 M492.156,707.732
	c-134.654,9.725-166.362-28.656-166.939-29.373c-1.881-2.525-5.514-3.109-8.108-1.229c-1.1,0.838-1.875,2.01-2.201,3.242
	c-0.455,1.682-0.129,3.436,0.904,4.928c0.135,0.189,0.587,0.773,1.494,1.746c1.429,1.561,4.021,4.02,8.231,6.936
	c2.471,1.756,5.579,3.701,9.273,5.641c18.608,9.928,53.488,21.332,115.468,21.332c13.029,0,27.227-0.453,42.723-1.617
	c3.24-0.203,5.639-2.982,5.379-6.225C498.186,709.932,495.459,707.473,492.156,707.732 M492.156,707.732
	c-134.654,9.725-166.362-28.656-166.939-29.373c-1.881-2.525-5.514-3.109-8.108-1.229c-1.1,0.838-1.875,2.01-2.201,3.242
	c-0.455,1.682-0.129,3.436,0.904,4.928c0.135,0.189,0.587,0.773,1.494,1.746c1.429,1.561,4.021,4.02,8.231,6.936
	c2.471,1.756,5.579,3.701,9.273,5.641c18.608,9.928,53.488,21.332,115.468,21.332c13.029,0,27.227-0.453,42.723-1.617
	c3.24-0.203,5.639-2.982,5.379-6.225C498.186,709.932,495.459,707.473,492.156,707.732 M492.156,707.732
	c-134.654,9.725-166.362-28.656-166.939-29.373c-1.881-2.525-5.514-3.109-8.108-1.229c-1.1,0.838-1.875,2.01-2.201,3.242
	c-0.455,1.682-0.129,3.436,0.904,4.928c0.135,0.189,0.587,0.773,1.494,1.746c1.429,1.561,4.021,4.02,8.231,6.936
	c2.471,1.756,5.579,3.701,9.273,5.641c18.608,9.928,53.488,21.332,115.468,21.332c13.029,0,27.227-0.453,42.723-1.617
	c3.24-0.203,5.639-2.982,5.379-6.225C498.186,709.932,495.459,707.473,492.156,707.732 M492.156,707.732
	c-134.654,9.725-166.362-28.656-166.939-29.373c-1.881-2.525-5.514-3.109-8.108-1.229c-1.1,0.838-1.875,2.01-2.201,3.242
	c-0.455,1.682-0.129,3.436,0.904,4.928c0.135,0.189,0.587,0.773,1.494,1.746c1.429,1.561,4.021,4.02,8.231,6.936
	c2.471,1.756,5.579,3.701,9.273,5.641c18.608,9.928,53.488,21.332,115.468,21.332c13.029,0,27.227-0.453,42.723-1.617
	c3.24-0.203,5.639-2.982,5.379-6.225C498.186,709.932,495.459,707.473,492.156,707.732 M492.156,707.732
	c-134.654,9.725-166.362-28.656-166.939-29.373c-1.881-2.525-5.514-3.109-8.108-1.229c-1.1,0.838-1.875,2.01-2.201,3.242
	c-0.455,1.682-0.129,3.436,0.904,4.928c0.135,0.189,0.587,0.773,1.494,1.746c1.429,1.561,4.021,4.02,8.231,6.936
	c2.471,1.756,5.579,3.701,9.273,5.641c18.608,9.928,53.488,21.332,115.468,21.332c13.029,0,27.227-0.453,42.723-1.617
	c3.24-0.203,5.639-2.982,5.379-6.225C498.186,709.932,495.459,707.473,492.156,707.732 M492.156,707.732
	c-134.654,9.725-166.362-28.656-166.939-29.373c-1.881-2.525-5.514-3.109-8.108-1.229c-1.1,0.838-1.875,2.01-2.201,3.242
	c-0.455,1.682-0.129,3.436,0.904,4.928c0.135,0.189,0.587,0.773,1.494,1.746c1.429,1.561,4.021,4.02,8.231,6.936
	c2.471,1.756,5.579,3.701,9.273,5.641c18.608,9.928,53.488,21.332,115.468,21.332c13.029,0,27.227-0.453,42.723-1.617
	c3.24-0.203,5.639-2.982,5.379-6.225C498.186,709.932,495.459,707.473,492.156,707.732 M492.156,707.732
	c-134.654,9.725-166.362-28.656-166.939-29.373c-1.881-2.525-5.514-3.109-8.108-1.229c-1.1,0.838-1.875,2.01-2.201,3.242
	c-0.455,1.682-0.129,3.436,0.904,4.928c0.135,0.189,0.587,0.773,1.494,1.746c1.429,1.561,4.021,4.02,8.231,6.936
	c2.471,1.756,5.579,3.701,9.273,5.641c18.608,9.928,53.488,21.332,115.468,21.332c13.029,0,27.227-0.453,42.723-1.617
	c3.24-0.203,5.639-2.982,5.379-6.225C498.186,709.932,495.459,707.473,492.156,707.732"/>
    <path fill="#2887C8" d="M754.719,441.6c0.717-14.458-1.033-30.082-5.314-46.034c-0.842-3.11-4.02-4.924-7.131-4.149
	c-3.117,0.845-4.93,4.088-4.084,7.202c3.045,11.406,4.732,22.625,4.99,33.192c-14.451-9.012-30.404-9.467-33.582-9.467
	c-4.148,0-9.008,1.297-14,3.568c-27.559-58.673-80.523-105.933-146.848-131.094c0.648-4.598,0.979-9.267,0.979-14.065
	c0-59.838-48.693-108.592-108.598-108.592c-59.903,0-108.586,48.754-108.586,108.592c0,4.211,0.258,8.36,0.774,12.445
	c-15.885,5.705-31.117,12.774-45.637,21.07c-48.435-28.068-101.335-20.357-103.601-20.031c-2.142,0.323-3.891,1.813-4.61,3.892
	c-0.71,2.007-0.258,4.281,1.236,5.898l21.46,22.951l17.827,41.752c-20.031,22.561-35.267,47.654-45.186,74.684h-29.301
	c-0.587,0-1.104,0.066-1.626,0.193c-1.358,0.391-33.905,9.859-33.905,36.957v84.799c1.688,11.99,11.674,34.748,37.665,34.748h27.558
	c1.165,3.238,2.459,6.482,3.756,9.66c10.438,25.154,25.413,47.779,44.152,67.488l-16.662,41.295
	c-0.196,0.457-0.326,0.973-0.326,1.496c-0.126,0.775-1.681,20.422,10.177,33.383c6.618,7.201,15.888,10.896,27.552,10.896h67.62
	c0.329,0,0.587,0,0.913-0.064c1.813-0.326,10.367-2.592,19.382-19.387c32.737,11.023,68.914,16.918,107.162,16.918
	c47.59,0,89.662-6.482,125.777-18.928c9.334,18.607,18.537,21.07,20.482,21.396c0.264,0.064,0.584,0.064,0.842,0.064h67.686
	c11.67,0,20.941-3.695,27.553-10.896c11.863-12.961,10.246-32.607,10.182-33.383c-0.066-0.523-0.193-1.039-0.387-1.496l-18.93-47
	c-0.33-0.781-0.844-1.49-1.563-2.078c26.068-33.963,41.428-76.758,44.996-127.455c14-2.461,33.059-10.244,44.02-27.033
	c5.313-8.168,8.752-18.479,8.752-31.313C768.336,464.028,762.631,450.676,754.719,441.6 M441.131,183.832
	c53.486,0,96.926,43.498,96.926,96.921c0,3.369-0.195,6.744-0.521,10.048c-0.191,1.946-0.455,3.891-0.775,5.837
	c-0.328,1.942-0.709,3.888-1.164,5.772c-5.063,22.303-17.834,41.685-35.402,55.166c-3.172-1.101-6.414-2.139-9.789-3.046
	c-14.91-4.211-32.027-7.063-50.83-7.063c-18.023,0-34.23,2.659-48.428,6.547c-3.372,0.907-6.676,1.946-9.787,2.979
	c-17.507-13.672-30.208-33.389-35.012-55.95c-0.384-1.875-0.774-3.759-1.033-5.702c-0.329-1.945-0.522-3.891-0.716-5.898
	c-0.258-2.852-0.387-5.772-0.387-8.689C344.212,227.33,387.71,183.832,441.131,183.832 M310.694,753.891h-66.846
	c-8.615,0-15.294-2.529-19.834-7.459c-7.647-8.357-7.647-21.59-7.521-24.764l14.652-36.371
	c24.961,23.99,55.756,42.982,90.636,56.082C316.396,750.846,311.926,753.307,310.694,753.891 M681.074,721.668
	c0.127,3.174,0.127,16.406-7.582,24.764c-4.541,4.93-11.219,7.459-19.779,7.459h-66.904c-1.297-0.584-6.355-3.436-12.184-14.654
	c36.299-14.068,66.127-34.615,88.881-61.07L681.074,721.668z M704.283,534.629c0,1.363-0.133,2.727-0.193,4.15
	c-2.594,39.674-13.422,87.07-44.736,126.881c-1.166,1.484-2.33,2.975-3.566,4.404c-1.162,1.422-2.465,2.914-3.756,4.342
	c-19.586,22.045-46.16,41.23-81.881,54.785c-1.627,0.648-3.244,1.227-4.932,1.814c-1.615,0.584-3.242,1.17-4.93,1.684
	c-32.74,11.025-72.734,17.445-121.363,17.445c-36.435,0-70.924-5.584-102.235-15.951c-1.623-0.523-3.304-1.039-4.927-1.688
	c-1.688-0.518-3.307-1.102-4.924-1.75c-34.044-12.576-63.929-31.059-88.044-54.268c-1.491-1.357-2.917-2.787-4.282-4.211
	c-1.423-1.43-2.788-2.852-4.014-4.281c-20.36-21.715-35.919-47.193-45.576-75.594c-0.842-2.33-3.052-3.955-5.576-3.955H147.64
	c-21.07,0-25.475-21.264-26.062-24.371v-83.502c0-16.536,20.686-24.184,24.771-25.48h32.544c2.462,0,4.733-1.617,5.508-3.953
	c9.79-28.139,25.48-54.136,46.744-77.283c1.555-1.678,1.945-4.146,1.039-6.224l-19.708-46.154c-0.258-0.648-0.649-1.171-1.101-1.687
	L197.5,304.869c18.147-0.584,54.456,1.165,87.064,21.141c1.819,1.101,4.149,1.162,6.03,0.062
	c14.133-8.366,29.107-15.43,44.666-21.202c5.057,22.367,17.053,42.14,33.583,56.856c-26.316,10.96-41.488,24.441-42.527,25.413
	c-2.397,2.139-2.594,5.84-0.452,8.237c2.139,2.33,5.834,2.526,8.234,0.394c0.062-0.071,2.007-1.758,5.576-4.353
	c7.125-5.25,20.873-14.133,39.871-21.264c2.204-0.842,4.469-1.617,6.805-2.397h0.062c2.468-0.842,4.93-1.617,7.586-2.336
	c3.765-1.033,7.718-2.007,11.735-2.852c10.373-2.139,21.715-3.437,33.84-3.437c12.904,0,24.965,1.494,36.051,3.891
	c4.08,0.842,8.039,1.82,11.795,2.92c2.594,0.713,5.127,1.494,7.584,2.33c2.402,0.781,4.734,1.555,6.938,2.403h0.064
	c18.803,7.063,32.748,15.624,40.137,20.741c3.891,2.662,6.023,4.414,6.156,4.475c1.1,0.971,2.469,1.362,3.766,1.362
	c1.678,0,3.305-0.713,4.469-2.072c2.078-2.468,1.748-6.095-0.713-8.169c-1.1-0.907-16.795-13.875-42.988-24.765
	c16.475-14.458,28.469-33.847,33.779-55.823c62.887,24.441,113,69.501,138.871,125.318c-12.445,8.687-23.271,22.371-23.271,36.307
	c0,27.682,14.646,42.336,42.33,42.336h0.064c0.063,2.656,0.133,5.318,0.133,7.973C704.738,523.607,704.605,528.99,704.283,534.629
	 M715.238,496.188c-1.875,0.906-3.76,1.555-5.641,1.945c-1.688,0.385-3.369,0.584-5.057,0.584h-0.779
	c-20.68-0.264-29.889-9.725-29.889-30.668c0-9.203,7.586-18.67,16.277-25.349c1.621-1.165,3.309-2.333,5.057-3.366
	c1.688-1.109,3.436-2.016,5.123-2.726c3.502-1.688,6.744-2.595,9.268-2.595c4.795,0,21.076,0.846,33.131,12.055
	c-1.494,15.24-6.096,28.527-13.746,38.514C724.902,489.898,720.164,493.852,715.238,496.188 M745.775,513.82
	c-9.078,10.045-21.719,14.328-29.563,16.141c0.125-3.82,0.189-7.711,0.189-11.604c0-2.336,0-4.672-0.125-6.998
	c0-1.039-0.064-2.008-0.133-2.984c8.17-2.727,15.756-8.492,22.105-16.727c6.68-8.754,11.412-19.582,14.068-31.77
	c2.727,6.289,4.346,14.07,4.346,23.797C756.664,497.156,752.061,506.885,745.775,513.82"/>
    <path fill="#FFFFFF" d="M704.738,518.363c0-2.664-0.068-5.32-0.133-7.982h-0.064c-27.684,0-42.33-14.648-42.33-42.332
	c0-13.936,10.82-27.617,23.271-36.303c-25.871-55.821-75.984-100.88-138.871-125.316c-5.311,21.974-17.311,41.356-33.779,55.814
	c26.193,10.89,41.889,23.857,42.988,24.764c2.461,2.078,2.791,5.711,0.713,8.17c-1.164,1.362-2.791,2.078-4.475,2.078
	c-1.297,0-2.656-0.39-3.76-1.365c-0.133-0.064-2.271-1.813-6.156-4.469c-7.395-5.126-21.332-13.681-40.137-20.747h-0.061
	c-2.203-0.845-4.539-1.626-6.938-2.4c-2.461-0.842-4.994-1.623-7.586-2.336c-3.758-1.101-7.717-2.068-11.797-2.914
	c-11.086-2.404-23.146-3.888-36.051-3.888c-12.121,0-23.467,1.294-33.84,3.436c-4.018,0.836-7.97,1.813-11.735,2.853
	c-2.656,0.71-5.115,1.484-7.586,2.333h-0.062c-2.336,0.774-4.601,1.555-6.811,2.4c-18.992,7.125-32.741,16.014-39.872,21.263
	c-3.562,2.595-5.508,4.272-5.569,4.343c-2.397,2.139-6.095,1.946-8.234-0.39c-2.142-2.397-1.945-6.095,0.452-8.234
	c1.033-0.968,16.211-14.458,42.53-25.413c-16.533-14.717-28.529-34.489-33.586-56.859c-15.559,5.772-30.533,12.842-44.666,21.199
	c-1.881,1.104-4.211,1.039-6.03-0.062c-32.608-19.97-68.917-21.719-87.064-21.138l13.875,14.91c0.452,0.522,0.836,1.039,1.094,1.688
	l19.714,46.16c0.91,2.072,0.517,4.54-1.036,6.221c-21.267,23.145-36.958,49.141-46.747,77.281c-0.781,2.336-3.046,3.952-5.508,3.952
	h-32.544c-4.085,1.297-24.771,8.95-24.771,25.479v83.502c0.587,3.111,4.992,24.381,26.062,24.381h31.708
	c2.523,0,4.733,1.617,5.569,3.953c9.664,28.396,25.223,53.871,45.583,75.594c1.226,1.426,2.594,2.852,4.014,4.275
	c1.368,1.428,2.791,2.852,4.282,4.217c24.115,23.209,54.004,41.684,88.038,54.262c1.626,0.648,3.243,1.232,4.93,1.748
	c1.617,0.648,3.304,1.172,4.93,1.688c31.308,10.375,65.797,15.953,102.232,15.953c48.629,0,88.625-6.422,121.363-17.443
	c1.688-0.516,3.307-1.1,4.93-1.688c1.688-0.58,3.305-1.164,4.932-1.813c35.721-13.553,62.299-32.738,81.881-54.783
	c1.291-1.426,2.594-2.916,3.76-4.346c1.232-1.42,2.396-2.914,3.563-4.404c31.316-39.811,42.143-87.203,44.736-126.873
	c-0.133-0.391-0.193-0.781-0.258-1.234c-0.133-1.037,0.064-2.01,0.451-2.92C704.605,528.986,704.738,523.613,704.738,518.363
	 M314.905,680.373c0.329-1.232,1.104-2.404,2.204-3.242c2.594-1.881,6.228-1.297,8.108,1.229
	c0.578,0.717,32.286,39.098,166.939,29.373c3.303-0.26,6.029,2.199,6.223,5.379c0.26,3.242-2.139,6.029-5.381,6.227
	c-15.498,1.164-29.691,1.617-42.721,1.617c-61.98,0-96.86-11.404-115.468-21.332c-3.694-1.939-6.805-3.885-9.273-5.641
	c-4.211-2.916-6.805-5.375-8.231-6.936c-0.907-0.973-1.361-1.557-1.494-1.746C314.779,683.809,314.453,682.055,314.905,680.373
	 M271.277,408.598c21.131,0,38.316,17.182,38.316,38.32c0,21.131-17.185,38.309-38.316,38.309
	c-21.137,0-38.319-17.178-38.319-38.309C232.958,425.779,250.14,408.598,271.277,408.598"/>
    <path fill="#2887C8" d="M475.234,282.825c-8.172-0.904-16.406-1.552-24.764-1.811c1.297,0.648,2.266,1.297,2.984,1.811
	c0.904,0.78,1.75,1.752,2.523,2.852c0.258,0.455,0.523,0.978,0.711,1.429c6.484,0.391,12.967,0.972,19.326,1.749v-0.387
	C476.016,286.458,475.758,284.644,475.234,282.825 M475.234,282.825c-0.064-0.255-0.135-0.452-0.195-0.71
	c-0.648-2.014-1.43-3.695-2.336-5.186c-0.063-0.064-0.127-0.197-0.193-0.264c-11.018-1.165-22.236-1.746-33.584-1.746
	c-1.104,0-2.203,0-3.305,0.064c0.781,0.326,1.623,0.584,2.592,0.968c2.666,0.913,4.672,1.688,5.969,2.21
	c1.297,0.517,2.914,1.227,4.922,2.143c0.461,0.255,0.912,0.446,1.297,0.71h0.07c1.297,0.648,2.266,1.297,2.984,1.811
	c0.904,0.78,1.75,1.752,2.523,2.852c0.258,0.455,0.523,0.978,0.711,1.429c6.484,0.391,12.967,0.972,19.326,1.749v-0.387
	C476.016,286.458,475.758,284.644,475.234,282.825"/>
    <path fill="#2887C8" d="M703.828,537.549c0.063,0.453,0.133,0.844,0.258,1.234c0.068-1.43,0.197-2.789,0.197-4.146
	C703.891,535.539,703.697,536.512,703.828,537.549"/>
    <path fill="#FFFFFF" d="M742.729,446.072c-1.494,15.232-6.096,28.525-13.748,38.51c-4.078,5.314-8.813,9.273-13.742,11.604
	c-1.881,0.906-3.76,1.555-5.641,1.951c-1.688,0.385-3.369,0.578-5.057,0.578h-0.779c-20.678-0.26-29.889-9.727-29.889-30.664
	c0-9.207,7.586-18.674,16.275-25.354c1.623-1.165,3.311-2.33,5.059-3.369c1.688-1.1,3.439-2.007,5.117-2.717
	c3.508-1.69,6.744-2.6,9.273-2.6C714.396,434.012,730.668,434.854,742.729,446.072"/>
    <path fill="#2887C8" d="M510.723,713.773c0.449,3.225-1.787,6.148-5.01,6.529c-15.404,2.059-29.549,3.338-42.557,4.094
	c-61.873,3.594-97.358-5.777-116.507-14.6c-3.802-1.73-7.023-3.492-9.581-5.096c-4.383-2.672-7.112-4.973-8.625-6.449
	c-0.962-0.918-1.448-1.473-1.592-1.66c-1.119-1.428-1.549-3.152-1.189-4.867c0.252-1.246,0.956-2.459,2.013-3.359
	c2.48-2.025,6.138-1.658,8.158,0.752c0.624,0.684,34.504,37.16,168.362,19.646C507.484,708.313,510.346,710.615,510.723,713.773"/>
    <path fill="#2887C8" d="M271.277,408.598c-21.137,0-38.319,17.18-38.319,38.316c0,21.141,17.182,38.316,38.319,38.316
	c21.131,0,38.316-17.176,38.316-38.316C309.593,425.777,292.409,408.598,271.277,408.598 M271.277,473.563
	c-14.72,0-26.646-11.929-26.646-26.648c0-14.717,11.926-26.645,26.646-26.645c14.717,0,26.646,11.928,26.646,26.645
	C297.923,461.634,285.994,473.563,271.277,473.563"/>
    <path fill="#FFFFFF" d="M475.039,282.115c-0.648-2.014-1.43-3.695-2.336-5.186c-0.063-0.064-0.127-0.197-0.193-0.264
	c-0.908-1.423-2.205-2.72-3.822-4.017c-1.688-1.423-3.242-2.53-4.604-3.437c-1.365-0.839-3.24-1.813-5.637-2.853
	c-2.406-1.039-4.281-1.881-5.711-2.397c-1.359-0.516-3.369-1.226-6.025-2.142c-2.336-0.775-4.084-1.42-5.256-1.813
	c-1.1-0.452-2.654-1.036-4.535-1.881c-1.814-0.774-3.244-1.49-4.15-2.071c-0.906-0.584-1.881-1.365-2.984-2.207
	c-1.033-0.907-1.748-1.813-2.203-2.853c-0.391-0.971-0.584-2.071-0.584-3.242c0-3.046,1.49-5.576,4.475-7.521
	c2.984-1.939,6.811-2.914,11.539-2.914c2.139,0,4.277,0.265,6.42,0.781c2.139,0.516,4.023,1.1,5.578,1.749
	c1.553,0.648,2.977,1.359,4.34,2.204c1.363,0.781,2.33,1.359,2.918,1.749c0.584,0.452,0.975,0.716,1.1,0.845
	c0.648,0.452,1.297,0.584,2.014,0.452c0.775,0,1.361-0.391,1.752-1.039l6.025-9.913c0.584-0.916,0.451-1.758-0.385-2.594
	c-0.264-0.265-0.648-0.587-1.104-0.913c-0.459-0.391-1.426-1.039-2.92-2.01c-1.49-0.907-3.047-1.749-4.734-2.53
	c-1.688-0.713-3.82-1.49-6.482-2.265c-2.719-0.781-5.445-1.297-8.295-1.555v-11.929c0-0.648-0.197-1.171-0.652-1.556
	c-0.451-0.39-1.039-0.584-1.748-0.584h-10.049c-0.645,0-1.232,0.194-1.684,0.646c-0.521,0.394-0.719,0.91-0.719,1.494v12.187
	c-7.844,1.358-14.194,4.411-19.054,9.076c-4.931,4.733-7.327,10.18-7.327,16.404c0,1.878,0.193,3.627,0.648,5.314
	c0.391,1.685,0.906,3.179,1.555,4.476c0.584,1.358,1.491,2.655,2.656,3.953c1.1,1.297,2.203,2.397,3.242,3.304
	s2.333,1.884,4.023,2.853c1.617,1.039,3.047,1.819,4.211,2.468c1.168,0.578,2.723,1.297,4.668,2.078
	c1.947,0.774,3.438,1.352,4.602,1.813c0.518,0.188,1.166,0.452,1.945,0.71h0.064c0.781,0.326,1.623,0.584,2.592,0.968
	c2.666,0.913,4.672,1.688,5.969,2.21c1.297,0.517,2.914,1.227,4.922,2.143c0.461,0.255,0.912,0.446,1.297,0.71h0.07
	c8.357,0.258,16.592,0.907,24.764,1.811C475.17,282.569,475.1,282.373,475.039,282.115 M475.234,282.825
	c-0.064-0.255-0.135-0.452-0.195-0.71c-0.648-2.014-1.43-3.695-2.336-5.186c-0.063-0.064-0.127-0.197-0.193-0.264
	c-0.908-1.423-2.205-2.72-3.822-4.017c-1.688-1.423-3.242-2.53-4.604-3.437c-1.365-0.839-3.24-1.813-5.637-2.853
	c-2.406-1.039-4.281-1.881-5.711-2.397c-1.359-0.516-3.369-1.226-6.025-2.142c-2.336-0.775-4.084-1.42-5.256-1.813
	c-1.1-0.452-2.654-1.036-4.535-1.881c-1.814-0.774-3.244-1.49-4.15-2.071c-0.906-0.584-1.881-1.365-2.984-2.207
	c-1.033-0.907-1.748-1.813-2.203-2.853c-0.391-0.971-0.584-2.071-0.584-3.242c0-3.046,1.49-5.576,4.475-7.521
	c2.984-1.939,6.811-2.914,11.539-2.914c2.139,0,4.277,0.265,6.42,0.781c2.139,0.516,4.023,1.1,5.578,1.749
	c1.553,0.648,2.977,1.359,4.34,2.204c1.363,0.781,2.33,1.359,2.918,1.749c0.584,0.452,0.975,0.716,1.1,0.845
	c0.648,0.452,1.297,0.584,2.014,0.452c0.775,0,1.361-0.391,1.752-1.039l6.025-9.913c0.584-0.916,0.451-1.758-0.385-2.594
	c-0.264-0.265-0.648-0.587-1.104-0.913c-0.459-0.391-1.426-1.039-2.92-2.01c-1.49-0.907-3.047-1.749-4.734-2.53
	c-1.688-0.713-3.82-1.49-6.482-2.265c-2.719-0.781-5.445-1.297-8.295-1.555v-11.929c0-0.648-0.197-1.171-0.652-1.556
	c-0.451-0.39-1.039-0.584-1.748-0.584h-10.049c-0.645,0-1.232,0.194-1.684,0.646c-0.521,0.394-0.719,0.91-0.719,1.494v12.187
	c-7.844,1.358-14.194,4.411-19.054,9.076c-4.931,4.733-7.327,10.18-7.327,16.404c0,1.878,0.193,3.627,0.648,5.314
	c0.391,1.685,0.906,3.179,1.555,4.476c0.584,1.358,1.491,2.655,2.656,3.953c1.1,1.297,2.203,2.397,3.242,3.304
	s2.333,1.884,4.023,2.853c1.617,1.039,3.047,1.819,4.211,2.468c1.168,0.578,2.723,1.297,4.668,2.078
	c1.947,0.774,3.438,1.352,4.602,1.813c0.518,0.188,1.166,0.452,1.945,0.71h0.064c0.781,0.326,1.623,0.584,2.592,0.968
	c2.666,0.913,4.672,1.688,5.969,2.21c1.297,0.517,2.914,1.227,4.922,2.143c0.461,0.255,0.912,0.446,1.297,0.71h0.07
	c1.297,0.648,2.266,1.297,2.984,1.811c0.904,0.78,1.75,1.752,2.523,2.852c0.258,0.455,0.523,0.978,0.711,1.429
	c0.264,0.713,0.391,1.423,0.391,2.204c0,3.568-1.492,6.289-4.602,8.234c-3.047,1.945-6.615,2.914-10.633,2.914
	c-1.813,0-3.693-0.188-5.508-0.516c-6.482-1.165-12.576-4.018-18.156-8.493l-0.193-0.129c-0.451-0.516-1.039-0.713-1.748-0.581
	c-0.846,0.064-1.368,0.323-1.752,0.774l-7.715,9.144c-0.713,0.91-0.648,1.878,0.193,2.785c0.193,0.258,0.648,0.716,1.297,1.232
	c0.587,0.516,1.749,1.361,3.437,2.529c1.687,1.168,3.562,2.269,5.579,3.243c1.941,1.033,4.469,2.072,7.585,3.046
	c3.046,0.971,6.218,1.681,9.522,2.071v11.867c0,0.584,0.197,1.101,0.719,1.553c0.451,0.393,1.039,0.651,1.684,0.651h10.049
	c0.709,0,1.297-0.197,1.748-0.651c0.455-0.388,0.652-0.904,0.652-1.553v-11.867c7.906-1.162,14.389-4.211,19.318-9.202
	c4.926-4.931,7.389-10.696,7.459-17.508v-0.387C476.016,286.458,475.758,284.644,475.234,282.825 M475.234,282.825
	c-0.064-0.255-0.135-0.452-0.195-0.71c-0.648-2.014-1.43-3.695-2.336-5.186c-0.063-0.064-0.127-0.197-0.193-0.264
	c-0.908-1.423-2.205-2.72-3.822-4.017c-1.688-1.423-3.242-2.53-4.604-3.437c-1.365-0.839-3.24-1.813-5.637-2.853
	c-2.406-1.039-4.281-1.881-5.711-2.397c-1.359-0.516-3.369-1.226-6.025-2.142c-2.336-0.775-4.084-1.42-5.256-1.813
	c-1.1-0.452-2.654-1.036-4.535-1.881c-1.814-0.774-3.244-1.49-4.15-2.071c-0.906-0.584-1.881-1.365-2.984-2.207
	c-1.033-0.907-1.748-1.813-2.203-2.853c-0.391-0.971-0.584-2.071-0.584-3.242c0-3.046,1.49-5.576,4.475-7.521
	c2.984-1.939,6.811-2.914,11.539-2.914c2.139,0,4.277,0.265,6.42,0.781c2.139,0.516,4.023,1.1,5.578,1.749
	c1.553,0.648,2.977,1.359,4.34,2.204c1.363,0.781,2.33,1.359,2.918,1.749c0.584,0.452,0.975,0.716,1.1,0.845
	c0.648,0.452,1.297,0.584,2.014,0.452c0.775,0,1.361-0.391,1.752-1.039l6.025-9.913c0.584-0.916,0.451-1.758-0.385-2.594
	c-0.264-0.265-0.648-0.587-1.104-0.913c-0.459-0.391-1.426-1.039-2.92-2.01c-1.49-0.907-3.047-1.749-4.734-2.53
	c-1.688-0.713-3.82-1.49-6.482-2.265c-2.719-0.781-5.445-1.297-8.295-1.555v-11.929c0-0.648-0.197-1.171-0.652-1.556
	c-0.451-0.39-1.039-0.584-1.748-0.584h-10.049c-0.645,0-1.232,0.194-1.684,0.646c-0.521,0.394-0.719,0.91-0.719,1.494v12.187
	c-7.844,1.358-14.194,4.411-19.054,9.076c-4.931,4.733-7.327,10.18-7.327,16.404c0,1.878,0.193,3.627,0.648,5.314
	c0.391,1.685,0.906,3.179,1.555,4.476c0.584,1.358,1.491,2.655,2.656,3.953c1.1,1.297,2.203,2.397,3.242,3.304
	s2.333,1.884,4.023,2.853c1.617,1.039,3.047,1.819,4.211,2.468c1.168,0.578,2.723,1.297,4.668,2.078
	c1.947,0.774,3.438,1.352,4.602,1.813c0.518,0.188,1.166,0.452,1.945,0.71h0.064c0.781,0.326,1.623,0.584,2.592,0.968
	c2.666,0.913,4.672,1.688,5.969,2.21c1.297,0.517,2.914,1.227,4.922,2.143c0.461,0.255,0.912,0.446,1.297,0.71h0.07
	c1.297,0.648,2.266,1.297,2.984,1.811c0.904,0.78,1.75,1.752,2.523,2.852c0.258,0.455,0.523,0.978,0.711,1.429
	c0.264,0.713,0.391,1.423,0.391,2.204c0,3.568-1.492,6.289-4.602,8.234c-3.047,1.945-6.615,2.914-10.633,2.914
	c-1.813,0-3.693-0.188-5.508-0.516c-6.482-1.165-12.576-4.018-18.156-8.493l-0.193-0.129c-0.451-0.516-1.039-0.713-1.748-0.581
	c-0.846,0.064-1.368,0.323-1.752,0.774l-7.715,9.144c-0.713,0.91-0.648,1.878,0.193,2.785c0.193,0.258,0.648,0.716,1.297,1.232
	c0.587,0.516,1.749,1.361,3.437,2.529c1.687,1.168,3.562,2.269,5.579,3.243c1.941,1.033,4.469,2.072,7.585,3.046
	c3.046,0.971,6.218,1.681,9.522,2.071v11.867c0,0.584,0.197,1.101,0.719,1.553c0.451,0.393,1.039,0.651,1.684,0.651h10.049
	c0.709,0,1.297-0.197,1.748-0.651c0.455-0.388,0.652-0.904,0.652-1.553v-11.867c7.906-1.162,14.389-4.211,19.318-9.202
	c4.926-4.931,7.389-10.696,7.459-17.508v-0.387C476.016,286.458,475.758,284.644,475.234,282.825 M475.234,282.825
	c-0.064-0.255-0.135-0.452-0.195-0.71c-0.648-2.014-1.43-3.695-2.336-5.186c-0.063-0.064-0.127-0.197-0.193-0.264
	c-0.908-1.423-2.205-2.72-3.822-4.017c-1.688-1.423-3.242-2.53-4.604-3.437c-1.365-0.839-3.24-1.813-5.637-2.853
	c-2.406-1.039-4.281-1.881-5.711-2.397c-1.359-0.516-3.369-1.226-6.025-2.142c-2.336-0.775-4.084-1.42-5.256-1.813
	c-1.1-0.452-2.654-1.036-4.535-1.881c-1.814-0.774-3.244-1.49-4.15-2.071c-0.906-0.584-1.881-1.365-2.984-2.207
	c-1.033-0.907-1.748-1.813-2.203-2.853c-0.391-0.971-0.584-2.071-0.584-3.242c0-3.046,1.49-5.576,4.475-7.521
	c2.984-1.939,6.811-2.914,11.539-2.914c2.139,0,4.277,0.265,6.42,0.781c2.139,0.516,4.023,1.1,5.578,1.749
	c1.553,0.648,2.977,1.359,4.34,2.204c1.363,0.781,2.33,1.359,2.918,1.749c0.584,0.452,0.975,0.716,1.1,0.845
	c0.648,0.452,1.297,0.584,2.014,0.452c0.775,0,1.361-0.391,1.752-1.039l6.025-9.913c0.584-0.916,0.451-1.758-0.385-2.594
	c-0.264-0.265-0.648-0.587-1.104-0.913c-0.459-0.391-1.426-1.039-2.92-2.01c-1.49-0.907-3.047-1.749-4.734-2.53
	c-1.688-0.713-3.82-1.49-6.482-2.265c-2.719-0.781-5.445-1.297-8.295-1.555v-11.929c0-0.648-0.197-1.171-0.652-1.556
	c-0.451-0.39-1.039-0.584-1.748-0.584h-10.049c-0.645,0-1.232,0.194-1.684,0.646c-0.521,0.394-0.719,0.91-0.719,1.494v12.187
	c-7.844,1.358-14.194,4.411-19.054,9.076c-4.931,4.733-7.327,10.18-7.327,16.404c0,1.878,0.193,3.627,0.648,5.314
	c0.391,1.685,0.906,3.179,1.555,4.476c0.584,1.358,1.491,2.655,2.656,3.953c1.1,1.297,2.203,2.397,3.242,3.304
	s2.333,1.884,4.023,2.853c1.617,1.039,3.047,1.819,4.211,2.468c1.168,0.578,2.723,1.297,4.668,2.078
	c1.947,0.774,3.438,1.352,4.602,1.813c0.518,0.188,1.166,0.452,1.945,0.71h0.064c0.781,0.326,1.623,0.584,2.592,0.968
	c2.666,0.913,4.672,1.688,5.969,2.21c1.297,0.517,2.914,1.227,4.922,2.143c0.461,0.255,0.912,0.446,1.297,0.71h0.07
	c1.297,0.648,2.266,1.297,2.984,1.811c0.904,0.78,1.75,1.752,2.523,2.852c0.258,0.455,0.523,0.978,0.711,1.429
	c0.264,0.713,0.391,1.423,0.391,2.204c0,3.568-1.492,6.289-4.602,8.234c-3.047,1.945-6.615,2.914-10.633,2.914
	c-1.813,0-3.693-0.188-5.508-0.516c-6.482-1.165-12.576-4.018-18.156-8.493l-0.193-0.129c-0.451-0.516-1.039-0.713-1.748-0.581
	c-0.846,0.064-1.368,0.323-1.752,0.774l-7.715,9.144c-0.713,0.91-0.648,1.878,0.193,2.785c0.193,0.258,0.648,0.716,1.297,1.232
	c0.587,0.516,1.749,1.361,3.437,2.529c1.687,1.168,3.562,2.269,5.579,3.243c1.941,1.033,4.469,2.072,7.585,3.046
	c3.046,0.971,6.218,1.681,9.522,2.071v11.867c0,0.584,0.197,1.101,0.719,1.553c0.451,0.393,1.039,0.651,1.684,0.651h10.049
	c0.709,0,1.297-0.197,1.748-0.651c0.455-0.388,0.652-0.904,0.652-1.553v-11.867c7.906-1.162,14.389-4.211,19.318-9.202
	c4.926-4.931,7.389-10.696,7.459-17.508v-0.387C476.016,286.458,475.758,284.644,475.234,282.825 M475.234,282.825
	c-0.064-0.255-0.135-0.452-0.195-0.71c-0.648-2.014-1.43-3.695-2.336-5.186c-0.063-0.064-0.127-0.197-0.193-0.264
	c-0.908-1.423-2.205-2.72-3.822-4.017c-1.688-1.423-3.242-2.53-4.604-3.437c-1.365-0.839-3.24-1.813-5.637-2.853
	c-2.406-1.039-4.281-1.881-5.711-2.397c-1.359-0.516-3.369-1.226-6.025-2.142c-2.336-0.775-4.084-1.42-5.256-1.813
	c-1.1-0.452-2.654-1.036-4.535-1.881c-1.814-0.774-3.244-1.49-4.15-2.071c-0.906-0.584-1.881-1.365-2.984-2.207
	c-1.033-0.907-1.748-1.813-2.203-2.853c-0.391-0.971-0.584-2.071-0.584-3.242c0-3.046,1.49-5.576,4.475-7.521
	c2.984-1.939,6.811-2.914,11.539-2.914c2.139,0,4.277,0.265,6.42,0.781c2.139,0.516,4.023,1.1,5.578,1.749
	c1.553,0.648,2.977,1.359,4.34,2.204c1.363,0.781,2.33,1.359,2.918,1.749c0.584,0.452,0.975,0.716,1.1,0.845
	c0.648,0.452,1.297,0.584,2.014,0.452c0.775,0,1.361-0.391,1.752-1.039l6.025-9.913c0.584-0.916,0.451-1.758-0.385-2.594
	c-0.264-0.265-0.648-0.587-1.104-0.913c-0.459-0.391-1.426-1.039-2.92-2.01c-1.49-0.907-3.047-1.749-4.734-2.53
	c-1.688-0.713-3.82-1.49-6.482-2.265c-2.719-0.781-5.445-1.297-8.295-1.555v-11.929c0-0.648-0.197-1.171-0.652-1.556
	c-0.451-0.39-1.039-0.584-1.748-0.584h-10.049c-0.645,0-1.232,0.194-1.684,0.646c-0.521,0.394-0.719,0.91-0.719,1.494v12.187
	c-7.844,1.358-14.194,4.411-19.054,9.076c-4.931,4.733-7.327,10.18-7.327,16.404c0,1.878,0.193,3.627,0.648,5.314
	c0.391,1.685,0.906,3.179,1.555,4.476c0.584,1.358,1.491,2.655,2.656,3.953c1.1,1.297,2.203,2.397,3.242,3.304
	s2.333,1.884,4.023,2.853c1.617,1.039,3.047,1.819,4.211,2.468c1.168,0.578,2.723,1.297,4.668,2.078
	c1.947,0.774,3.438,1.352,4.602,1.813c0.518,0.188,1.166,0.452,1.945,0.71h0.064c0.781,0.326,1.623,0.584,2.592,0.968
	c2.666,0.913,4.672,1.688,5.969,2.21c1.297,0.517,2.914,1.227,4.922,2.143c0.461,0.255,0.912,0.446,1.297,0.71h0.07
	c1.297,0.648,2.266,1.297,2.984,1.811c0.904,0.78,1.75,1.752,2.523,2.852c0.258,0.455,0.523,0.978,0.711,1.429
	c0.264,0.713,0.391,1.423,0.391,2.204c0,3.568-1.492,6.289-4.602,8.234c-3.047,1.945-6.615,2.914-10.633,2.914
	c-1.813,0-3.693-0.188-5.508-0.516c-6.482-1.165-12.576-4.018-18.156-8.493l-0.193-0.129c-0.451-0.516-1.039-0.713-1.748-0.581
	c-0.846,0.064-1.368,0.323-1.752,0.774l-7.715,9.144c-0.713,0.91-0.648,1.878,0.193,2.785c0.193,0.258,0.648,0.716,1.297,1.232
	c0.587,0.516,1.749,1.361,3.437,2.529c1.687,1.168,3.562,2.269,5.579,3.243c1.941,1.033,4.469,2.072,7.585,3.046
	c3.046,0.971,6.218,1.681,9.522,2.071v11.867c0,0.584,0.197,1.101,0.719,1.553c0.451,0.393,1.039,0.651,1.684,0.651h10.049
	c0.709,0,1.297-0.197,1.748-0.651c0.455-0.388,0.652-0.904,0.652-1.553v-11.867c7.906-1.162,14.389-4.211,19.318-9.202
	c4.926-4.931,7.389-10.696,7.459-17.508v-0.387C476.016,286.458,475.758,284.644,475.234,282.825 M475.234,282.825
	c-0.064-0.255-0.135-0.452-0.195-0.71c-0.648-2.014-1.43-3.695-2.336-5.186c-0.063-0.064-0.127-0.197-0.193-0.264
	c-0.908-1.423-2.205-2.72-3.822-4.017c-1.688-1.423-3.242-2.53-4.604-3.437c-1.365-0.839-3.24-1.813-5.637-2.853
	c-2.406-1.039-4.281-1.881-5.711-2.397c-1.359-0.516-3.369-1.226-6.025-2.142c-2.336-0.775-4.084-1.42-5.256-1.813
	c-1.1-0.452-2.654-1.036-4.535-1.881c-1.814-0.774-3.244-1.49-4.15-2.071c-0.906-0.584-1.881-1.365-2.984-2.207
	c-1.033-0.907-1.748-1.813-2.203-2.853c-0.391-0.971-0.584-2.071-0.584-3.242c0-3.046,1.49-5.576,4.475-7.521
	c2.984-1.939,6.811-2.914,11.539-2.914c2.139,0,4.277,0.265,6.42,0.781c2.139,0.516,4.023,1.1,5.578,1.749
	c1.553,0.648,2.977,1.359,4.34,2.204c1.363,0.781,2.33,1.359,2.918,1.749c0.584,0.452,0.975,0.716,1.1,0.845
	c0.648,0.452,1.297,0.584,2.014,0.452c0.775,0,1.361-0.391,1.752-1.039l6.025-9.913c0.584-0.916,0.451-1.758-0.385-2.594
	c-0.264-0.265-0.648-0.587-1.104-0.913c-0.459-0.391-1.426-1.039-2.92-2.01c-1.49-0.907-3.047-1.749-4.734-2.53
	c-1.688-0.713-3.82-1.49-6.482-2.265c-2.719-0.781-5.445-1.297-8.295-1.555v-11.929c0-0.648-0.197-1.171-0.652-1.556
	c-0.451-0.39-1.039-0.584-1.748-0.584h-10.049c-0.645,0-1.232,0.194-1.684,0.646c-0.521,0.394-0.719,0.91-0.719,1.494v12.187
	c-7.844,1.358-14.194,4.411-19.054,9.076c-4.931,4.733-7.327,10.18-7.327,16.404c0,1.878,0.193,3.627,0.648,5.314
	c0.391,1.685,0.906,3.179,1.555,4.476c0.584,1.358,1.491,2.655,2.656,3.953c1.1,1.297,2.203,2.397,3.242,3.304
	s2.333,1.884,4.023,2.853c1.617,1.039,3.047,1.819,4.211,2.468c1.168,0.578,2.723,1.297,4.668,2.078
	c1.947,0.774,3.438,1.352,4.602,1.813c0.518,0.188,1.166,0.452,1.945,0.71h0.064c0.781,0.326,1.623,0.584,2.592,0.968
	c2.666,0.913,4.672,1.688,5.969,2.21c1.297,0.517,2.914,1.227,4.922,2.143c0.461,0.255,0.912,0.446,1.297,0.71h0.07
	c1.297,0.648,2.266,1.297,2.984,1.811c0.904,0.78,1.75,1.752,2.523,2.852c0.258,0.455,0.523,0.978,0.711,1.429
	c0.264,0.713,0.391,1.423,0.391,2.204c0,3.568-1.492,6.289-4.602,8.234c-3.047,1.945-6.615,2.914-10.633,2.914
	c-1.813,0-3.693-0.188-5.508-0.516c-6.482-1.165-12.576-4.018-18.156-8.493l-0.193-0.129c-0.451-0.516-1.039-0.713-1.748-0.581
	c-0.846,0.064-1.368,0.323-1.752,0.774l-7.715,9.144c-0.713,0.91-0.648,1.878,0.193,2.785c0.193,0.258,0.648,0.716,1.297,1.232
	c0.587,0.516,1.749,1.361,3.437,2.529c1.687,1.168,3.562,2.269,5.579,3.243c1.941,1.033,4.469,2.072,7.585,3.046
	c3.046,0.971,6.218,1.681,9.522,2.071v11.867c0,0.584,0.197,1.101,0.719,1.553c0.451,0.393,1.039,0.651,1.684,0.651h10.049
	c0.709,0,1.297-0.197,1.748-0.651c0.455-0.388,0.652-0.904,0.652-1.553v-11.867c7.906-1.162,14.389-4.211,19.318-9.202
	c4.926-4.931,7.389-10.696,7.459-17.508v-0.387C476.016,286.458,475.758,284.644,475.234,282.825 M475.234,282.825
	c-0.064-0.255-0.135-0.452-0.195-0.71c-0.648-2.014-1.43-3.695-2.336-5.186c-0.063-0.064-0.127-0.197-0.193-0.264
	c-0.908-1.423-2.205-2.72-3.822-4.017c-1.688-1.423-3.242-2.53-4.604-3.437c-1.365-0.839-3.24-1.813-5.637-2.853
	c-2.406-1.039-4.281-1.881-5.711-2.397c-1.359-0.516-3.369-1.226-6.025-2.142c-2.336-0.775-4.084-1.42-5.256-1.813
	c-1.1-0.452-2.654-1.036-4.535-1.881c-1.814-0.774-3.244-1.49-4.15-2.071c-0.906-0.584-1.881-1.365-2.984-2.207
	c-1.033-0.907-1.748-1.813-2.203-2.853c-0.391-0.971-0.584-2.071-0.584-3.242c0-3.046,1.49-5.576,4.475-7.521
	c2.984-1.939,6.811-2.914,11.539-2.914c2.139,0,4.277,0.265,6.42,0.781c2.139,0.516,4.023,1.1,5.578,1.749
	c1.553,0.648,2.977,1.359,4.34,2.204c1.363,0.781,2.33,1.359,2.918,1.749c0.584,0.452,0.975,0.716,1.1,0.845
	c0.648,0.452,1.297,0.584,2.014,0.452c0.775,0,1.361-0.391,1.752-1.039l6.025-9.913c0.584-0.916,0.451-1.758-0.385-2.594
	c-0.264-0.265-0.648-0.587-1.104-0.913c-0.459-0.391-1.426-1.039-2.92-2.01c-1.49-0.907-3.047-1.749-4.734-2.53
	c-1.688-0.713-3.82-1.49-6.482-2.265c-2.719-0.781-5.445-1.297-8.295-1.555v-11.929c0-0.648-0.197-1.171-0.652-1.556
	c-0.451-0.39-1.039-0.584-1.748-0.584h-10.049c-0.645,0-1.232,0.194-1.684,0.646c-0.521,0.394-0.719,0.91-0.719,1.494v12.187
	c-7.844,1.358-14.194,4.411-19.054,9.076c-4.931,4.733-7.327,10.18-7.327,16.404c0,1.878,0.193,3.627,0.648,5.314
	c0.391,1.685,0.906,3.179,1.555,4.476c0.584,1.358,1.491,2.655,2.656,3.953c1.1,1.297,2.203,2.397,3.242,3.304
	s2.333,1.884,4.023,2.853c1.617,1.039,3.047,1.819,4.211,2.468c1.168,0.578,2.723,1.297,4.668,2.078
	c1.947,0.774,3.438,1.352,4.602,1.813c0.518,0.188,1.166,0.452,1.945,0.71h0.064c0.781,0.326,1.623,0.584,2.592,0.968
	c2.666,0.913,4.672,1.688,5.969,2.21c1.297,0.517,2.914,1.227,4.922,2.143c0.461,0.255,0.912,0.446,1.297,0.71h0.07
	c1.297,0.648,2.266,1.297,2.984,1.811c0.904,0.78,1.75,1.752,2.523,2.852c0.258,0.455,0.523,0.978,0.711,1.429
	c0.264,0.713,0.391,1.423,0.391,2.204c0,3.568-1.492,6.289-4.602,8.234c-3.047,1.945-6.615,2.914-10.633,2.914
	c-1.813,0-3.693-0.188-5.508-0.516c-6.482-1.165-12.576-4.018-18.156-8.493l-0.193-0.129c-0.451-0.516-1.039-0.713-1.748-0.581
	c-0.846,0.064-1.368,0.323-1.752,0.774l-7.715,9.144c-0.713,0.91-0.648,1.878,0.193,2.785c0.193,0.258,0.648,0.716,1.297,1.232
	c0.587,0.516,1.749,1.361,3.437,2.529c1.687,1.168,3.562,2.269,5.579,3.243c1.941,1.033,4.469,2.072,7.585,3.046
	c3.046,0.971,6.218,1.681,9.522,2.071v11.867c0,0.584,0.197,1.101,0.719,1.553c0.451,0.393,1.039,0.651,1.684,0.651h10.049
	c0.709,0,1.297-0.197,1.748-0.651c0.455-0.388,0.652-0.904,0.652-1.553v-11.867c7.906-1.162,14.389-4.211,19.318-9.202
	c4.926-4.931,7.389-10.696,7.459-17.508v-0.387C476.016,286.458,475.758,284.644,475.234,282.825 M475.234,282.825
	c-0.064-0.255-0.135-0.452-0.195-0.71c-0.648-2.014-1.43-3.695-2.336-5.186c-0.063-0.064-0.127-0.197-0.193-0.264
	c-0.908-1.423-2.205-2.72-3.822-4.017c-1.688-1.423-3.242-2.53-4.604-3.437c-1.365-0.839-3.24-1.813-5.637-2.853
	c-2.406-1.039-4.281-1.881-5.711-2.397c-1.359-0.516-3.369-1.226-6.025-2.142c-2.336-0.775-4.084-1.42-5.256-1.813
	c-1.1-0.452-2.654-1.036-4.535-1.881c-1.814-0.774-3.244-1.49-4.15-2.071c-0.906-0.584-1.881-1.365-2.984-2.207
	c-1.033-0.907-1.748-1.813-2.203-2.853c-0.391-0.971-0.584-2.071-0.584-3.242c0-3.046,1.49-5.576,4.475-7.521
	c2.984-1.939,6.811-2.914,11.539-2.914c2.139,0,4.277,0.265,6.42,0.781c2.139,0.516,4.023,1.1,5.578,1.749
	c1.553,0.648,2.977,1.359,4.34,2.204c1.363,0.781,2.33,1.359,2.918,1.749c0.584,0.452,0.975,0.716,1.1,0.845
	c0.648,0.452,1.297,0.584,2.014,0.452c0.775,0,1.361-0.391,1.752-1.039l6.025-9.913c0.584-0.916,0.451-1.758-0.385-2.594
	c-0.264-0.265-0.648-0.587-1.104-0.913c-0.459-0.391-1.426-1.039-2.92-2.01c-1.49-0.907-3.047-1.749-4.734-2.53
	c-1.688-0.713-3.82-1.49-6.482-2.265c-2.719-0.781-5.445-1.297-8.295-1.555v-11.929c0-0.648-0.197-1.171-0.652-1.556
	c-0.451-0.39-1.039-0.584-1.748-0.584h-10.049c-0.645,0-1.232,0.194-1.684,0.646c-0.521,0.394-0.719,0.91-0.719,1.494v12.187
	c-7.844,1.358-14.194,4.411-19.054,9.076c-4.931,4.733-7.327,10.18-7.327,16.404c0,1.878,0.193,3.627,0.648,5.314
	c0.391,1.685,0.906,3.179,1.555,4.476c0.584,1.358,1.491,2.655,2.656,3.953c1.1,1.297,2.203,2.397,3.242,3.304
	s2.333,1.884,4.023,2.853c1.617,1.039,3.047,1.819,4.211,2.468c1.168,0.578,2.723,1.297,4.668,2.078
	c1.947,0.774,3.438,1.352,4.602,1.813c0.518,0.188,1.166,0.452,1.945,0.71h0.064c0.781,0.326,1.623,0.584,2.592,0.968
	c2.666,0.913,4.672,1.688,5.969,2.21c1.297,0.517,2.914,1.227,4.922,2.143c0.461,0.255,0.912,0.446,1.297,0.71h0.07
	c1.297,0.648,2.266,1.297,2.984,1.811c0.904,0.78,1.75,1.752,2.523,2.852c0.258,0.455,0.523,0.978,0.711,1.429
	c0.264,0.713,0.391,1.423,0.391,2.204c0,3.568-1.492,6.289-4.602,8.234c-3.047,1.945-6.615,2.914-10.633,2.914
	c-1.813,0-3.693-0.188-5.508-0.516c-6.482-1.165-12.576-4.018-18.156-8.493l-0.193-0.129c-0.451-0.516-1.039-0.713-1.748-0.581
	c-0.846,0.064-1.368,0.323-1.752,0.774l-7.715,9.144c-0.713,0.91-0.648,1.878,0.193,2.785c0.193,0.258,0.648,0.716,1.297,1.232
	c0.587,0.516,1.749,1.361,3.437,2.529c1.687,1.168,3.562,2.269,5.579,3.243c1.941,1.033,4.469,2.072,7.585,3.046
	c3.046,0.971,6.218,1.681,9.522,2.071v11.867c0,0.584,0.197,1.101,0.719,1.553c0.451,0.393,1.039,0.651,1.684,0.651h10.049
	c0.709,0,1.297-0.197,1.748-0.651c0.455-0.388,0.652-0.904,0.652-1.553v-11.867c7.906-1.162,14.389-4.211,19.318-9.202
	c4.926-4.931,7.389-10.696,7.459-17.508v-0.387C476.016,286.458,475.758,284.644,475.234,282.825 M475.234,282.825
	c-0.064-0.255-0.135-0.452-0.195-0.71c-0.648-2.014-1.43-3.695-2.336-5.186c-0.063-0.064-0.127-0.197-0.193-0.264
	c-0.908-1.423-2.205-2.72-3.822-4.017c-1.688-1.423-3.242-2.53-4.604-3.437c-1.365-0.839-3.24-1.813-5.637-2.853
	c-2.406-1.039-4.281-1.881-5.711-2.397c-1.359-0.516-3.369-1.226-6.025-2.142c-2.336-0.775-4.084-1.42-5.256-1.813
	c-1.1-0.452-2.654-1.036-4.535-1.881c-1.814-0.774-3.244-1.49-4.15-2.071c-0.906-0.584-1.881-1.365-2.984-2.207
	c-1.033-0.907-1.748-1.813-2.203-2.853c-0.391-0.971-0.584-2.071-0.584-3.242c0-3.046,1.49-5.576,4.475-7.521
	c2.984-1.939,6.811-2.914,11.539-2.914c2.139,0,4.277,0.265,6.42,0.781c2.139,0.516,4.023,1.1,5.578,1.749
	c1.553,0.648,2.977,1.359,4.34,2.204c1.363,0.781,2.33,1.359,2.918,1.749c0.584,0.452,0.975,0.716,1.1,0.845
	c0.648,0.452,1.297,0.584,2.014,0.452c0.775,0,1.361-0.391,1.752-1.039l6.025-9.913c0.584-0.916,0.451-1.758-0.385-2.594
	c-0.264-0.265-0.648-0.587-1.104-0.913c-0.459-0.391-1.426-1.039-2.92-2.01c-1.49-0.907-3.047-1.749-4.734-2.53
	c-1.688-0.713-3.82-1.49-6.482-2.265c-2.719-0.781-5.445-1.297-8.295-1.555v-11.929c0-0.648-0.197-1.171-0.652-1.556
	c-0.451-0.39-1.039-0.584-1.748-0.584h-10.049c-0.645,0-1.232,0.194-1.684,0.646c-0.521,0.394-0.719,0.91-0.719,1.494v12.187
	c-7.844,1.358-14.194,4.411-19.054,9.076c-4.931,4.733-7.327,10.18-7.327,16.404c0,1.878,0.193,3.627,0.648,5.314
	c0.391,1.685,0.906,3.179,1.555,4.476c0.584,1.358,1.491,2.655,2.656,3.953c1.1,1.297,2.203,2.397,3.242,3.304
	s2.333,1.884,4.023,2.853c1.617,1.039,3.047,1.819,4.211,2.468c1.168,0.578,2.723,1.297,4.668,2.078
	c1.947,0.774,3.438,1.352,4.602,1.813c0.518,0.188,1.166,0.452,1.945,0.71h0.064c0.781,0.326,1.623,0.584,2.592,0.968
	c2.666,0.913,4.672,1.688,5.969,2.21c1.297,0.517,2.914,1.227,4.922,2.143c0.461,0.255,0.912,0.446,1.297,0.71h0.07
	c1.297,0.648,2.266,1.297,2.984,1.811c0.904,0.78,1.75,1.752,2.523,2.852c0.258,0.455,0.523,0.978,0.711,1.429
	c0.264,0.713,0.391,1.423,0.391,2.204c0,3.568-1.492,6.289-4.602,8.234c-3.047,1.945-6.615,2.914-10.633,2.914
	c-1.813,0-3.693-0.188-5.508-0.516c-6.482-1.165-12.576-4.018-18.156-8.493l-0.193-0.129c-0.451-0.516-1.039-0.713-1.748-0.581
	c-0.846,0.064-1.368,0.323-1.752,0.774l-7.715,9.144c-0.713,0.91-0.648,1.878,0.193,2.785c0.193,0.258,0.648,0.716,1.297,1.232
	c0.587,0.516,1.749,1.361,3.437,2.529c1.687,1.168,3.562,2.269,5.579,3.243c1.941,1.033,4.469,2.072,7.585,3.046
	c3.046,0.971,6.218,1.681,9.522,2.071v11.867c0,0.584,0.197,1.101,0.719,1.553c0.451,0.393,1.039,0.651,1.684,0.651h10.049
	c0.709,0,1.297-0.197,1.748-0.651c0.455-0.388,0.652-0.904,0.652-1.553v-11.867c7.906-1.162,14.389-4.211,19.318-9.202
	c4.926-4.931,7.389-10.696,7.459-17.508v-0.387C476.016,286.458,475.758,284.644,475.234,282.825 M475.234,282.825
	c-0.064-0.255-0.135-0.452-0.195-0.71c-0.648-2.014-1.43-3.695-2.336-5.186c-0.063-0.064-0.127-0.197-0.193-0.264
	c-0.908-1.423-2.205-2.72-3.822-4.017c-1.688-1.423-3.242-2.53-4.604-3.437c-1.365-0.839-3.24-1.813-5.637-2.853
	c-2.406-1.039-4.281-1.881-5.711-2.397c-1.359-0.516-3.369-1.226-6.025-2.142c-2.336-0.775-4.084-1.42-5.256-1.813
	c-1.1-0.452-2.654-1.036-4.535-1.881c-1.814-0.774-3.244-1.49-4.15-2.071c-0.906-0.584-1.881-1.365-2.984-2.207
	c-1.033-0.907-1.748-1.813-2.203-2.853c-0.391-0.971-0.584-2.071-0.584-3.242c0-3.046,1.49-5.576,4.475-7.521
	c2.984-1.939,6.811-2.914,11.539-2.914c2.139,0,4.277,0.265,6.42,0.781c2.139,0.516,4.023,1.1,5.578,1.749
	c1.553,0.648,2.977,1.359,4.34,2.204c1.363,0.781,2.33,1.359,2.918,1.749c0.584,0.452,0.975,0.716,1.1,0.845
	c0.648,0.452,1.297,0.584,2.014,0.452c0.775,0,1.361-0.391,1.752-1.039l6.025-9.913c0.584-0.916,0.451-1.758-0.385-2.594
	c-0.264-0.265-0.648-0.587-1.104-0.913c-0.459-0.391-1.426-1.039-2.92-2.01c-1.49-0.907-3.047-1.749-4.734-2.53
	c-1.688-0.713-3.82-1.49-6.482-2.265c-2.719-0.781-5.445-1.297-8.295-1.555v-11.929c0-0.648-0.197-1.171-0.652-1.556
	c-0.451-0.39-1.039-0.584-1.748-0.584h-10.049c-0.645,0-1.232,0.194-1.684,0.646c-0.521,0.394-0.719,0.91-0.719,1.494v12.187
	c-7.844,1.358-14.194,4.411-19.054,9.076c-4.931,4.733-7.327,10.18-7.327,16.404c0,1.878,0.193,3.627,0.648,5.314
	c0.391,1.685,0.906,3.179,1.555,4.476c0.584,1.358,1.491,2.655,2.656,3.953c1.1,1.297,2.203,2.397,3.242,3.304
	s2.333,1.884,4.023,2.853c1.617,1.039,3.047,1.819,4.211,2.468c1.168,0.578,2.723,1.297,4.668,2.078
	c1.947,0.774,3.438,1.352,4.602,1.813c0.518,0.188,1.166,0.452,1.945,0.71h0.064c0.781,0.326,1.623,0.584,2.592,0.968
	c2.666,0.913,4.672,1.688,5.969,2.21c1.297,0.517,2.914,1.227,4.922,2.143c0.461,0.255,0.912,0.446,1.297,0.71h0.07
	c1.297,0.648,2.266,1.297,2.984,1.811c0.904,0.78,1.75,1.752,2.523,2.852c0.258,0.455,0.523,0.978,0.711,1.429
	c0.264,0.713,0.391,1.423,0.391,2.204c0,3.568-1.492,6.289-4.602,8.234c-3.047,1.945-6.615,2.914-10.633,2.914
	c-1.813,0-3.693-0.188-5.508-0.516c-6.482-1.165-12.576-4.018-18.156-8.493l-0.193-0.129c-0.451-0.516-1.039-0.713-1.748-0.581
	c-0.846,0.064-1.368,0.323-1.752,0.774l-7.715,9.144c-0.713,0.91-0.648,1.878,0.193,2.785c0.193,0.258,0.648,0.716,1.297,1.232
	c0.587,0.516,1.749,1.361,3.437,2.529c1.687,1.168,3.562,2.269,5.579,3.243c1.941,1.033,4.469,2.072,7.585,3.046
	c3.046,0.971,6.218,1.681,9.522,2.071v11.867c0,0.584,0.197,1.101,0.719,1.553c0.451,0.393,1.039,0.651,1.684,0.651h10.049
	c0.709,0,1.297-0.197,1.748-0.651c0.455-0.388,0.652-0.904,0.652-1.553v-11.867c7.906-1.162,14.389-4.211,19.318-9.202
	c4.926-4.931,7.389-10.696,7.459-17.508v-0.387C476.016,286.458,475.758,284.644,475.234,282.825"/>
    <path fill="#FFFFFF" d="M538.055,280.753c0,3.372-0.193,6.741-0.516,10.051c-0.195,1.939-0.453,3.885-0.781,5.831
	c-0.326,1.952-0.711,3.895-1.166,5.772c-5.059,22.302-17.824,41.691-35.393,55.175c-3.182-1.109-6.424-2.142-9.795-3.049
	c18.02-12.903,30.73-32.74,34.291-55.565c0.33-1.942,0.588-3.888,0.721-5.895c0.193-1.946,0.258-3.891,0.258-5.902
	c0.061-0.452,0.061-0.974,0.061-1.426c0-46.677-37.854-84.541-84.602-84.541c-46.676,0-84.602,37.864-84.602,84.541v0.193
	c0,2.014,0.062,3.953,0.258,5.898c0.126,2.017,0.319,3.959,0.584,5.904c3.242,23.077,15.82,43.108,33.773,56.27
	c-3.369,0.907-6.673,1.945-9.79,2.984c-17.504-13.678-30.208-33.389-35.006-55.949c-0.39-1.881-0.78-3.763-1.039-5.708
	c-0.326-1.946-0.523-3.885-0.71-5.898c-0.264-2.853-0.39-5.766-0.39-8.686c0-53.42,43.499-96.924,96.921-96.924
	C494.621,183.829,538.055,227.333,538.055,280.753"/>
    <path fill="#E4F0CC" d="M441.133,201.207c-46.682,0-84.602,37.858-84.602,84.535v0.2c0,2.01,0.062,3.953,0.258,5.901
	c0.126,2.007,0.319,3.953,0.584,5.895c3.236,23.083,15.82,43.114,33.773,56.278c14.2-3.897,30.41-6.547,48.432-6.547
	c18.799,0,35.912,2.85,50.826,7.063c18.02-12.906,30.73-32.74,34.291-55.565c0.33-1.939,0.588-3.885,0.721-5.898
	c0.193-1.945,0.258-3.891,0.258-5.898c0.061-0.455,0.061-0.971,0.061-1.429C525.734,239.065,487.881,201.207,441.133,201.207
	 M476.014,288.855c-0.063,6.812-2.531,12.577-7.461,17.508c-4.92,4.991-11.406,8.041-19.318,9.202v11.867
	c0,0.649-0.193,1.165-0.648,1.553c-0.455,0.455-1.031,0.651-1.748,0.651h-10.049c-0.648,0-1.232-0.258-1.686-0.651
	c-0.518-0.452-0.711-0.969-0.711-1.553v-11.867c-3.307-0.39-6.485-1.1-9.531-2.071c-3.117-0.975-5.641-2.014-7.586-3.046
	c-2.007-0.974-3.889-2.075-5.575-3.243c-1.688-1.168-2.853-2.013-3.439-2.529c-0.646-0.517-1.101-0.975-1.298-1.232
	c-0.842-0.907-0.902-1.875-0.193-2.785l7.719-9.144c0.391-0.452,0.906-0.71,1.748-0.774c0.713-0.132,1.297,0.064,1.752,0.581
	l0.193,0.129c5.58,4.475,11.672,7.328,18.154,8.493c1.813,0.322,3.697,0.516,5.508,0.516c4.023,0,7.586-0.968,10.635-2.914
	c3.115-1.946,4.602-4.666,4.602-8.234c0-0.781-0.127-1.491-0.385-2.204c-0.197-0.452-0.455-0.974-0.719-1.429
	c-0.775-1.1-1.617-2.072-2.523-2.849c-0.717-0.517-1.688-1.165-2.986-1.813h-0.061c-0.391-0.264-0.842-0.455-1.297-0.71
	c-2.016-0.916-3.633-1.626-4.93-2.143c-1.297-0.522-3.305-1.297-5.967-2.21c-0.969-0.384-1.813-0.642-2.594-0.968h-0.063
	c-0.779-0.258-1.422-0.522-1.945-0.71c-1.164-0.461-2.654-1.039-4.602-1.813c-1.945-0.781-3.5-1.5-4.664-2.078
	c-1.172-0.648-2.602-1.429-4.218-2.468c-1.688-0.968-2.984-1.946-4.023-2.853c-1.032-0.907-2.134-2.007-3.233-3.304
	c-1.171-1.297-2.078-2.594-2.665-3.953c-0.648-1.297-1.165-2.791-1.552-4.476c-0.455-1.687-0.652-3.436-0.652-5.314
	c0-6.224,2.4-11.671,7.328-16.404c4.862-4.666,11.219-7.718,19.063-9.076v-12.187c0-0.584,0.193-1.101,0.711-1.494
	c0.453-0.452,1.037-0.646,1.686-0.646h10.049c0.717,0,1.293,0.194,1.748,0.584c0.455,0.384,0.648,0.907,0.648,1.556v11.929
	c2.854,0.258,5.58,0.774,8.297,1.555c2.662,0.775,4.805,1.555,6.484,2.265c1.686,0.781,3.24,1.623,4.734,2.53
	c1.49,0.971,2.465,1.62,2.92,2.01c0.455,0.326,0.842,0.648,1.1,0.913c0.846,0.836,0.973,1.678,0.395,2.594l-6.031,9.913
	c-0.393,0.648-0.977,1.039-1.752,1.039c-0.709,0.132-1.365,0-2.014-0.452c-0.125-0.129-0.516-0.393-1.104-0.845
	c-0.576-0.39-1.555-0.968-2.914-1.749c-1.357-0.845-2.787-1.555-4.342-2.204s-3.438-1.232-5.578-1.749
	c-2.141-0.517-4.279-0.781-6.412-0.781c-4.734,0-8.564,0.975-11.545,2.914c-2.979,1.945-4.469,4.475-4.469,7.521
	c0,1.171,0.193,2.271,0.578,3.242c0.451,1.039,1.17,1.946,2.199,2.853c1.111,0.842,2.078,1.623,2.984,2.207
	c0.914,0.581,2.338,1.297,4.156,2.071c1.875,0.846,3.43,1.43,4.533,1.884c1.168,0.391,2.92,1.036,5.256,1.811
	c2.656,0.916,4.664,1.626,6.025,2.142c1.426,0.517,3.311,1.359,5.707,2.397c2.4,1.039,4.275,2.014,5.641,2.853
	c1.359,0.907,2.914,2.013,4.602,3.437c1.625,1.297,2.916,2.594,3.826,4.017c0.064,0.067,0.129,0.2,0.197,0.264
	c0.906,1.491,1.682,3.172,2.33,5.186c0.061,0.258,0.131,0.455,0.193,0.713c0.521,1.816,0.781,3.63,0.781,5.64V288.855z"/>
    <path fill="#E4F0CC" d="M476.014,288.468v0.387c-0.063,6.812-2.531,12.577-7.461,17.508c-4.92,4.991-11.406,8.041-19.318,9.202
	v11.867c0,0.649-0.193,1.165-0.648,1.553c-0.455,0.455-1.031,0.651-1.748,0.651h-10.049c-0.648,0-1.232-0.258-1.686-0.651
	c-0.518-0.452-0.711-0.969-0.711-1.553v-11.867c-3.307-0.39-6.485-1.1-9.531-2.071c-3.117-0.975-5.641-2.014-7.586-3.046
	c-2.007-0.974-3.889-2.075-5.575-3.243c-1.688-1.168-2.853-2.013-3.439-2.529c-0.646-0.517-1.101-0.975-1.298-1.232
	c-0.842-0.907-0.902-1.875-0.193-2.785l7.719-9.144c0.391-0.452,0.906-0.71,1.748-0.774c0.713-0.132,1.297,0.064,1.752,0.578
	l0.193,0.132c5.58,4.475,11.672,7.328,18.154,8.493c1.813,0.329,3.697,0.516,5.508,0.516c4.023,0,7.586-0.968,10.635-2.914
	c3.115-1.946,4.602-4.666,4.602-8.234c0-0.781-0.127-1.491-0.385-2.204c-0.197-0.452-0.455-0.974-0.719-1.429
	c-0.775-1.1-1.617-2.072-2.523-2.852c-0.717-0.514-1.688-1.162-2.986-1.811h-0.061c-0.391-0.264-0.842-0.455-1.297-0.713
	c-2.016-0.913-3.633-1.623-4.93-2.14c-1.297-0.522-3.305-1.297-5.967-2.21c-0.969-0.384-1.813-0.642-2.594-0.968h-0.063
	c-0.779-0.258-1.422-0.522-1.945-0.71c-1.164-0.461-2.654-1.039-4.602-1.813c-1.945-0.781-3.5-1.5-4.664-2.078
	c-1.172-0.648-2.602-1.429-4.218-2.468c-1.688-0.968-2.984-1.946-4.023-2.853c-1.032-0.907-2.134-2.007-3.233-3.304
	c-1.171-1.297-2.078-2.594-2.665-3.953c-0.648-1.297-1.165-2.791-1.552-4.476c-0.455-1.687-0.652-3.436-0.652-5.314
	c0-6.224,2.4-11.671,7.328-16.404c4.862-4.666,11.219-7.718,19.063-9.076v-12.187c0-0.584,0.193-1.101,0.711-1.494
	c0.453-0.452,1.037-0.646,1.686-0.646h10.049c0.717,0,1.293,0.194,1.748,0.584c0.455,0.384,0.648,0.907,0.648,1.556v11.929
	c2.854,0.258,5.58,0.774,8.297,1.555c2.662,0.775,4.805,1.552,6.484,2.265c1.686,0.781,3.24,1.623,4.734,2.53
	c1.49,0.971,2.465,1.62,2.92,2.01c0.455,0.326,0.842,0.655,1.1,0.913c0.846,0.836,0.973,1.678,0.395,2.594l-6.031,9.913
	c-0.393,0.648-0.977,1.039-1.752,1.039c-0.709,0.132-1.365,0-2.014-0.452c-0.125-0.129-0.516-0.393-1.104-0.845
	c-0.576-0.39-1.555-0.968-2.914-1.749c-1.357-0.845-2.787-1.555-4.342-2.204s-3.438-1.232-5.578-1.749
	c-2.141-0.517-4.279-0.781-6.412-0.781c-4.734,0-8.564,0.975-11.545,2.914c-2.979,1.945-4.469,4.475-4.469,7.521
	c0,1.171,0.193,2.271,0.578,3.242c0.451,1.039,1.17,1.946,2.199,2.853c1.111,0.842,2.078,1.623,2.984,2.207
	c0.914,0.581,2.338,1.297,4.156,2.071c1.875,0.846,3.43,1.43,4.533,1.881c1.168,0.394,2.92,1.039,5.256,1.813
	c2.656,0.916,4.664,1.626,6.025,2.142c1.426,0.517,3.311,1.359,5.707,2.397c2.4,1.039,4.275,2.014,5.641,2.853
	c1.359,0.907,2.914,2.013,4.602,3.437c1.625,1.297,2.916,2.594,3.826,4.017c0.064,0.067,0.129,0.2,0.197,0.264
	c0.906,1.491,1.682,3.172,2.33,5.186c0.061,0.258,0.131,0.455,0.193,0.71C475.754,284.644,476.014,286.458,476.014,288.468"/>
    <path fill="#0B9D49" d="M475.234,282.825c-0.064-0.255-0.135-0.452-0.195-0.71c-0.648-2.014-1.43-3.695-2.336-5.186
	c-0.063-0.064-0.127-0.197-0.193-0.264c-0.908-1.423-2.205-2.72-3.822-4.017c-1.688-1.423-3.242-2.53-4.604-3.437
	c-1.365-0.839-3.24-1.813-5.637-2.853c-2.406-1.039-4.281-1.881-5.711-2.397c-1.359-0.516-3.369-1.226-6.025-2.142
	c-2.336-0.775-4.084-1.42-5.256-1.813c-1.1-0.452-2.654-1.036-4.535-1.881c-1.814-0.774-3.244-1.49-4.15-2.071
	c-0.906-0.584-1.881-1.365-2.984-2.207c-1.033-0.907-1.748-1.813-2.203-2.853c-0.391-0.971-0.584-2.071-0.584-3.242
	c0-3.046,1.49-5.576,4.475-7.521c2.984-1.939,6.811-2.914,11.539-2.914c2.139,0,4.277,0.265,6.42,0.781
	c2.139,0.516,4.023,1.1,5.578,1.749c1.553,0.648,2.977,1.359,4.34,2.204c1.363,0.781,2.33,1.359,2.918,1.749
	c0.584,0.452,0.975,0.716,1.1,0.845c0.648,0.452,1.297,0.584,2.014,0.452c0.775,0,1.361-0.391,1.752-1.039l6.025-9.913
	c0.584-0.916,0.451-1.758-0.385-2.594c-0.264-0.265-0.648-0.587-1.104-0.913c-0.459-0.391-1.426-1.039-2.92-2.01
	c-1.49-0.907-3.047-1.749-4.734-2.53c-1.688-0.713-3.82-1.49-6.482-2.265c-2.719-0.781-5.445-1.297-8.295-1.555v-11.929
	c0-0.648-0.197-1.171-0.652-1.556c-0.451-0.39-1.039-0.584-1.748-0.584h-10.049c-0.645,0-1.232,0.194-1.684,0.646
	c-0.521,0.394-0.719,0.91-0.719,1.494v12.187c-7.844,1.358-14.194,4.411-19.054,9.076c-4.931,4.733-7.327,10.18-7.327,16.404
	c0,1.878,0.193,3.627,0.648,5.314c0.391,1.685,0.906,3.179,1.555,4.476c0.584,1.358,1.491,2.655,2.656,3.953
	c1.1,1.297,2.203,2.397,3.242,3.304s2.333,1.884,4.023,2.853c1.617,1.039,3.047,1.819,4.211,2.468
	c1.168,0.578,2.723,1.297,4.668,2.078c1.947,0.774,3.438,1.352,4.602,1.813c0.518,0.188,1.166,0.452,1.945,0.71h0.064
	c0.781,0.326,1.623,0.584,2.592,0.968c2.666,0.913,4.672,1.688,5.969,2.21c1.297,0.517,2.914,1.227,4.922,2.143
	c0.461,0.255,0.912,0.446,1.297,0.71h0.07c1.297,0.648,2.266,1.297,2.984,1.811c0.904,0.78,1.75,1.752,2.523,2.852
	c0.258,0.455,0.523,0.978,0.711,1.429c0.264,0.713,0.391,1.423,0.391,2.204c0,3.568-1.492,6.289-4.602,8.234
	c-3.047,1.945-6.615,2.914-10.633,2.914c-1.813,0-3.693-0.188-5.508-0.516c-6.482-1.165-12.576-4.018-18.156-8.493l-0.193-0.129
	c-0.451-0.516-1.039-0.713-1.748-0.581c-0.846,0.064-1.368,0.323-1.752,0.774l-7.715,9.144c-0.713,0.91-0.648,1.878,0.193,2.785
	c0.193,0.258,0.648,0.716,1.297,1.232c0.587,0.516,1.749,1.361,3.437,2.529c1.687,1.168,3.562,2.269,5.579,3.243
	c1.941,1.033,4.469,2.072,7.585,3.046c3.046,0.971,6.218,1.681,9.522,2.071v11.867c0,0.584,0.197,1.101,0.719,1.553
	c0.451,0.393,1.039,0.651,1.684,0.651h10.049c0.709,0,1.297-0.197,1.748-0.651c0.455-0.388,0.652-0.904,0.652-1.553v-11.867
	c7.906-1.162,14.389-4.211,19.318-9.202c4.926-4.931,7.389-10.696,7.459-17.508v-0.387
	C476.016,286.458,475.758,284.644,475.234,282.825"/>
    <path fill="#2887C8" d="M547.945,93.715c-1.008,0-1.982-0.522-2.523-1.451l-14.41-24.887c-0.805-1.398-0.334-3.182,1.064-3.987
	c1.387-0.799,3.172-0.338,3.986,1.063l14.406,24.884c0.809,1.393,0.336,3.178-1.063,3.987
	C548.947,93.589,548.443,93.715,547.945,93.715"/>
    <path fill="#2887C8" d="M528.357,88.828c-1.021,0-2.014-0.535-2.543-1.491c-0.787-1.404-0.289-3.184,1.119-3.965l25.293-14.126
	c1.412-0.787,3.193-0.283,3.969,1.122c0.787,1.408,0.289,3.185-1.121,3.965l-25.295,14.126
	C529.332,88.711,528.836,88.828,528.357,88.828"/>
    <path fill="#2887C8" d="M656.787,151.34c-0.246,0-0.512-0.037-0.764-0.099l-24.141-6.51c-1.555-0.421-2.473-2.025-2.059-3.575
	c0.428-1.555,2.014-2.456,3.58-2.06l24.141,6.51c1.557,0.421,2.475,2.02,2.061,3.574C659.248,150.486,658.068,151.34,656.787,151.34
	"/>
    <path fill="#2887C8" d="M641.717,160.333c-0.266,0-0.529-0.037-0.807-0.11c-1.543-0.443-2.443-2.06-2-3.608l6.938-24.208
	c0.439-1.556,2.014-2.456,3.605-2.004c1.543,0.443,2.443,2.053,2,3.608l-6.928,24.208
	C644.154,159.498,642.988,160.333,641.717,160.333"/>
    <path fill="#2887C8" d="M750.063,326.452c-0.246,0-0.504-0.03-0.762-0.101l-24.135-6.504c-1.555-0.421-2.475-2.02-2.053-3.581
	c0.42-1.549,2.01-2.45,3.576-2.054l24.135,6.504c1.553,0.421,2.471,2.02,2.057,3.575
	C752.521,325.594,751.348,326.452,750.063,326.452"/>
    <path fill="#2887C8" d="M734.996,335.445c-0.266,0-0.541-0.04-0.807-0.114c-1.543-0.449-2.443-2.059-2.004-3.608l6.943-24.208
	c0.439-1.549,2.066-2.45,3.609-2.001c1.539,0.446,2.439,2.057,2,3.605l-6.938,24.211
	C737.43,334.606,736.266,335.445,734.996,335.445"/>
    <path fill="#2887C8" d="M767.074,227.247c-1.008,0-1.988-0.52-2.523-1.457l-12.473-21.675c-0.805-1.396-0.318-3.178,1.07-3.983
	c1.398-0.806,3.182-0.32,3.986,1.076l12.463,21.672c0.807,1.398,0.326,3.181-1.068,3.98
	C768.068,227.124,767.564,227.247,767.074,227.247"/>
    <path fill="#2887C8" d="M750.057,222.95c-1.027,0-2.023-0.541-2.551-1.5c-0.781-1.407-0.271-3.184,1.139-3.965l22.027-12.218
	c1.377-0.774,3.178-0.271,3.965,1.141c0.773,1.408,0.27,3.184-1.146,3.965l-22.025,12.212
	C751.023,222.83,750.533,222.95,750.057,222.95"/>
    <path fill="#B6DDF5" d="M522.367,159.848c-1.254-7.229,3.58-14.102,10.813-15.356c7.221-1.257,14.102,3.583,15.354,10.81
	c1.254,7.226-3.582,14.099-10.807,15.353C530.5,171.915,523.617,167.074,522.367,159.848"/>
    <path fill="#B6DDF5" d="M684.092,249.949c-1.479-8.508,4.225-16.604,12.729-18.082c8.518-1.479,16.613,4.223,18.092,12.728
	c1.473,8.511-4.223,16.61-12.734,18.085C693.668,264.158,685.57,258.463,684.092,249.949"/>
    <path fill="#B6DDF5" d="M698.053,85.386c-1.393-8.022,3.979-15.651,11.996-17.046c8.02-1.393,15.658,3.978,17.047,11.997
	c1.393,8.025-3.977,15.654-12,17.046C707.08,98.775,699.443,93.405,698.053,85.386"/>
    <path fill="#2887C8" d="M252.052,144.517c-0.498,0-1.002-0.126-1.46-0.39c-1.398-0.809-1.869-2.594-1.063-3.987l14.409-24.884
	c0.818-1.396,2.604-1.862,3.983-1.063c1.398,0.806,1.872,2.588,1.063,3.987l-14.409,24.887
	C254.034,143.994,253.06,144.517,252.052,144.517"/>
    <path fill="#2887C8" d="M271.643,139.629c-0.485,0-0.971-0.12-1.423-0.372l-25.299-14.12c-1.411-0.787-1.909-2.561-1.128-3.965
	c0.781-1.411,2.545-1.921,3.974-1.128l25.296,14.126c1.405,0.781,1.909,2.563,1.122,3.965
	C273.656,139.095,272.664,139.629,271.643,139.629"/>
    <path fill="#2887C8" d="M143.214,202.141c-1.285,0-2.462-0.857-2.822-2.161c-0.412-1.555,0.504-3.153,2.06-3.575l24.141-6.51
	c1.567-0.415,3.153,0.51,3.578,2.06c0.421,1.555-0.498,3.153-2.053,3.574l-24.141,6.51
	C143.718,202.102,143.46,202.141,143.214,202.141"/>
    <path fill="#2887C8" d="M158.281,211.135c-1.272,0-2.434-0.836-2.806-2.115l-6.931-24.214c-0.442-1.549,0.458-3.166,2.001-3.608
	c1.574-0.428,3.166,0.455,3.608,2.004l6.938,24.214c0.439,1.549-0.461,3.166-2.004,3.608
	C158.81,211.098,158.545,211.135,158.281,211.135"/>
    <path fill="#2887C8" d="M49.938,377.253c-1.285,0-2.462-0.858-2.822-2.161c-0.415-1.555,0.504-3.153,2.06-3.575l24.134-6.51
	c1.567-0.409,3.153,0.504,3.575,2.059c0.421,1.556-0.498,3.154-2.053,3.575l-24.134,6.51
	C50.445,377.222,50.181,377.253,49.938,377.253"/>
    <path fill="#2887C8" d="M65.005,386.247c-1.269,0-2.437-0.839-2.806-2.115l-6.937-24.211c-0.44-1.549,0.452-3.16,2-3.605
	c1.537-0.43,3.166,0.452,3.609,2.001l6.94,24.208c0.443,1.549-0.458,3.16-2.001,3.608C65.54,386.207,65.269,386.247,65.005,386.247"
    />
    <path fill="#2887C8" d="M32.925,278.048c-0.498,0-0.996-0.126-1.454-0.391c-1.399-0.802-1.875-2.582-1.07-3.98l12.464-21.666
	c0.805-1.398,2.582-1.869,3.983-1.076c1.392,0.799,1.869,2.585,1.069,3.977l-12.47,21.672
	C34.914,277.526,33.934,278.048,32.925,278.048"/>
    <path fill="#2887C8" d="M49.944,273.751c-0.479,0-0.971-0.12-1.411-0.366l-22.026-12.211c-1.417-0.787-1.921-2.563-1.14-3.965
	c0.775-1.417,2.57-1.921,3.962-1.14l22.026,12.218c1.408,0.781,1.918,2.557,1.137,3.965
	C51.963,273.21,50.968,273.751,49.944,273.751"/>
    <path fill="#B6DDF5" d="M277.634,210.649c1.251-7.229-3.59-14.102-10.816-15.362c-7.22-1.251-14.099,3.59-15.353,10.816
	c-1.251,7.227,3.581,14.099,10.81,15.353C269.498,222.716,276.379,217.875,277.634,210.649"/>
    <path fill="#B6DDF5" d="M115.905,300.75c1.479-8.511-4.224-16.607-12.734-18.085c-8.511-1.475-16.604,4.224-18.085,12.734
	c-1.473,8.505,4.223,16.607,12.734,18.085C106.33,314.957,114.426,309.258,115.905,300.75"/>
    <path fill="#B6DDF5" d="M101.944,136.187c1.393-8.022-3.977-15.657-11.996-17.046c-8.022-1.392-15.651,3.977-17.046,11.997
	c-1.393,8.019,3.977,15.654,11.997,17.046C92.917,149.576,100.552,144.206,101.944,136.187"/>
    <path fill="#E4F2FC" d="M321.781,741.375c-5.385,9.471-9.854,11.932-11.087,12.516h-66.843c-8.625,0-15.297-2.529-19.837-7.459
	c-7.647-8.357-7.647-21.586-7.521-24.764l14.652-36.371C256.106,709.287,286.901,728.279,321.781,741.375"/>
    <path fill="#E4F2FC" d="M673.488,746.436c-4.539,4.926-11.219,7.455-19.773,7.455h-66.906c-1.297-0.584-6.354-3.436-12.188-14.65
	c36.309-14.068,66.127-34.623,88.881-61.074l17.568,43.504C681.207,724.842,681.207,738.068,673.488,746.436"/>
    <path fill="#E4F2FC" d="M704.605,510.385l-18.277,48.754c0,0-69.369,173.555-250.707,166.555
	C254.286,718.686,211.243,607.82,211.243,607.82l-26.326-15.428c9.664,28.404,25.226,53.879,45.583,75.598
	c1.226,1.426,2.594,2.848,4.014,4.277c1.368,1.424,2.791,2.854,4.282,4.211c24.115,23.209,54.004,41.691,88.038,54.268
	c1.626,0.648,3.243,1.232,4.93,1.75c1.617,0.648,3.304,1.164,4.924,1.688c31.314,10.367,65.807,15.945,102.238,15.945
	c48.629,0,88.625-6.42,121.367-17.436c1.688-0.523,3.303-1.104,4.926-1.688c1.688-0.584,3.309-1.166,4.932-1.814
	c35.715-13.551,62.299-32.74,81.875-54.785c1.297-1.426,2.6-2.92,3.766-4.342c1.227-1.43,2.396-2.92,3.563-4.404
	c31.316-39.811,42.145-87.203,44.736-126.881c0.064-1.424,0.191-2.787,0.191-4.15c0.324-5.637,0.457-11.021,0.457-16.271
	C704.738,515.703,704.67,513.041,704.605,510.385"/>
</svg>
