<?xml version="1.0" encoding="utf-8"?>
<!-- Generator: Adobe Illustrator 16.0.0, SVG Export Plug-In . SVG Version: 6.00 Build 0)  -->
<!DOCTYPE svg PUBLIC "-//W3C//DTD SVG 1.0//EN" "http://www.w3.org/TR/2001/REC-SVG-20010904/DTD/svg10.dtd">
<svg version="1.0" id="Layer_1" xmlns="http://www.w3.org/2000/svg" x="0px" y="0px"
     width="800px" height="800px" viewBox="0 0 800 800" enable-background="new 0 0 800 800" xml:space="preserve">
<g>
</g>
    <path fill="#E4F0CC" d="M724.109,210.086H276.136c0,0.276-0.064,0.552-0.064,0.828c-0.077,1.943-0.077,3.881-0.077,5.748
	c0,5.61-4.708,10.318-10.314,10.318c-5.536,0-10.251-4.708-10.251-10.318c0-2.143,0.077-4.362,0.212-6.575h-46.115
	c-11.501,0-20.777,9.272-20.777,20.768v20.777h556.136v-20.777C744.886,219.359,735.604,210.086,724.109,210.086"/>
    <path fill="none" stroke="#0B9D49" stroke-width="1.5" stroke-linecap="round" stroke-linejoin="round"
          stroke-miterlimit="10" d="
	M724.109,210.086H276.136c0,0.276-0.064,0.552-0.064,0.828c-0.077,1.943-0.077,3.881-0.077,5.748c0,5.61-4.708,10.318-10.314,10.318
	c-5.536,0-10.251-4.708-10.251-10.318c0-2.143,0.077-4.362,0.212-6.575h-46.115c-11.501,0-20.777,9.272-20.777,20.768v20.777
	h556.136v-20.777C744.886,219.359,735.604,210.086,724.109,210.086z"/>
    <line fill="none" stroke="#0B9D49" stroke-width="1.2" stroke-linecap="round" stroke-linejoin="round"
          stroke-miterlimit="10" x1="409.388" y1="210.086" x2="409.388" y2="230.854"/>
    <line fill="none" stroke="#0B9D49" stroke-width="1.2" stroke-linecap="round" stroke-linejoin="round"
          stroke-miterlimit="10" x1="429.106" y1="210.086" x2="429.106" y2="230.854"/>
    <line fill="none" stroke="#0B9D49" stroke-width="1.2" stroke-linecap="round" stroke-linejoin="round"
          stroke-miterlimit="10" x1="448.825" y1="210.086" x2="448.825" y2="230.854"/>
    <line fill="none" stroke="#0B9D49" stroke-width="1.2" stroke-linecap="round" stroke-linejoin="round"
          stroke-miterlimit="10" x1="468.543" y1="210.086" x2="468.543" y2="230.854"/>
    <line fill="none" stroke="#0B9D49" stroke-width="1.2" stroke-linecap="round" stroke-linejoin="round"
          stroke-miterlimit="10" x1="488.262" y1="210.086" x2="488.262" y2="230.854"/>
    <line fill="none" stroke="#0B9D49" stroke-width="1.2" stroke-linecap="round" stroke-linejoin="round"
          stroke-miterlimit="10" x1="507.98" y1="210.086" x2="507.98" y2="230.854"/>
    <line fill="none" stroke="#0B9D49" stroke-width="1.2" stroke-linecap="round" stroke-linejoin="round"
          stroke-miterlimit="10" x1="527.699" y1="210.086" x2="527.699" y2="230.854"/>
    <line fill="none" stroke="#0B9D49" stroke-width="1.2" stroke-linecap="round" stroke-linejoin="round"
          stroke-miterlimit="10" x1="547.418" y1="210.086" x2="547.418" y2="230.854"/>
    <line fill="none" stroke="#0B9D49" stroke-width="1.2" stroke-linecap="round" stroke-linejoin="round"
          stroke-miterlimit="10" x1="567.13" y1="210.086" x2="567.13" y2="230.854"/>
    <line fill="none" stroke="#0B9D49" stroke-width="1.2" stroke-linecap="round" stroke-linejoin="round"
          stroke-miterlimit="10" x1="586.849" y1="210.086" x2="586.849" y2="230.854"/>
    <line fill="none" stroke="#0B9D49" stroke-width="1.2" stroke-linecap="round" stroke-linejoin="round"
          stroke-miterlimit="10" x1="606.567" y1="210.086" x2="606.567" y2="230.854"/>
    <line fill="none" stroke="#0B9D49" stroke-width="1.2" stroke-linecap="round" stroke-linejoin="round"
          stroke-miterlimit="10" x1="626.286" y1="210.086" x2="626.286" y2="230.854"/>
    <line fill="none" stroke="#0B9D49" stroke-width="1.2" stroke-linecap="round" stroke-linejoin="round"
          stroke-miterlimit="10" x1="646.005" y1="210.086" x2="646.005" y2="230.854"/>
    <line fill="none" stroke="#0B9D49" stroke-width="1.2" stroke-linecap="round" stroke-linejoin="round"
          stroke-miterlimit="10" x1="665.724" y1="210.086" x2="665.724" y2="230.854"/>
    <line fill="none" stroke="#0B9D49" stroke-width="1.2" stroke-linecap="round" stroke-linejoin="round"
          stroke-miterlimit="10" x1="685.441" y1="210.086" x2="685.441" y2="230.854"/>
    <line fill="none" stroke="#0B9D49" stroke-width="1.2" stroke-linecap="round" stroke-linejoin="round"
          stroke-miterlimit="10" x1="705.16" y1="210.086" x2="705.16" y2="230.854"/>
    <line fill="none" stroke="#0B9D49" stroke-width="1.2" stroke-linecap="round" stroke-linejoin="round"
          stroke-miterlimit="10" x1="390.343" y1="210.086" x2="390.343" y2="230.854"/>
    <line fill="none" stroke="#0B9D49" stroke-width="1.2" stroke-linecap="round" stroke-linejoin="round"
          stroke-miterlimit="10" x1="371.304" y1="210.086" x2="371.304" y2="230.854"/>
    <line fill="none" stroke="#0B9D49" stroke-width="1.2" stroke-linecap="round" stroke-linejoin="round"
          stroke-miterlimit="10" x1="352.259" y1="210.086" x2="352.259" y2="230.854"/>
    <line fill="none" stroke="#0B9D49" stroke-width="1.2" stroke-linecap="round" stroke-linejoin="round"
          stroke-miterlimit="10" x1="333.214" y1="210.086" x2="333.214" y2="230.854"/>
    <line fill="none" stroke="#0B9D49" stroke-width="1.2" stroke-linecap="round" stroke-linejoin="round"
          stroke-miterlimit="10" x1="314.175" y1="210.086" x2="314.175" y2="230.854"/>
    <line fill="none" stroke="#0B9D49" stroke-width="1.2" stroke-linecap="round" stroke-linejoin="round"
          stroke-miterlimit="10" x1="295.13" y1="210.086" x2="295.13" y2="230.854"/>
    <line fill="none" stroke="#0B9D49" stroke-width="1.2" stroke-linecap="round" stroke-linejoin="round"
          stroke-miterlimit="10" x1="233.96" y1="210.086" x2="233.96" y2="230.854"/>
    <line fill="none" stroke="#0B9D49" stroke-width="1.2" stroke-linecap="round" stroke-linejoin="round"
          stroke-miterlimit="10" x1="215.691" y1="210.086" x2="215.691" y2="230.854"/>
    <path fill="#FFFFFF" d="M758.568,251.634H179.352c-9.044,0-16.376,7.329-16.376,16.374v142.404c0,9.059,7.332,16.384,16.376,16.384
	h579.216c9.045,0,16.377-7.325,16.377-16.384V268.008C774.945,258.963,767.613,251.634,758.568,251.634"/>
    <path fill="none" stroke="#2887C8" stroke-width="1.5" stroke-linecap="round" stroke-linejoin="round"
          stroke-miterlimit="10" d="
	M758.568,251.634H179.352c-9.044,0-16.376,7.329-16.376,16.374v142.404c0,9.059,7.332,16.384,16.376,16.384h579.216
	c9.045,0,16.377-7.325,16.377-16.384V268.008C774.945,258.963,767.613,251.634,758.568,251.634z"/>
    <path fill="#B6DDF5" d="M263.948,354.983v-56.423c0-7.46-6.042-13.503-13.503-13.503h-23.125c-7.46,0-13.503,6.043-13.503,13.503
	v56.423c0,7.47,6.042,13.513,13.503,13.513h23.125C257.906,368.496,263.948,362.454,263.948,354.983"/>
    <path fill="none" stroke="#2887C8" stroke-width="1.5" stroke-linecap="round" stroke-linejoin="round"
          stroke-miterlimit="10" d="
	M201.496,329.883v-19c0-7.45,6.03-13.486,13.483-13.486h23.125c7.447,0,13.49,6.036,13.49,13.486v56.442
	c0,7.448-6.042,13.493-13.49,13.493h-5.741"/>
    <path fill="none" stroke="#2887C8" stroke-width="1.5" stroke-linecap="round" stroke-linejoin="round"
          stroke-miterlimit="10" d="
	M215.813,380.815h-0.834c-7.454,0-13.49-6.042-13.49-13.49V350.16"/>
    <path fill="#B6DDF5" d="M359.302,354.983v-56.423c0-7.46-6.042-13.503-13.502-13.503h-23.125c-7.46,0-13.503,6.043-13.503,13.503
	v56.423c0,7.47,6.042,13.513,13.503,13.513h23.125C353.26,368.496,359.302,362.454,359.302,354.983"/>
    <path fill="none" stroke="#2887C8" stroke-width="1.5" stroke-linecap="round" stroke-linejoin="round"
          stroke-miterlimit="10" d="
	M296.843,329.883v-19c0-7.45,6.036-13.486,13.483-13.486h23.131c7.447,0,13.49,6.036,13.49,13.486v56.442
	c0,7.448-6.042,13.493-13.49,13.493h-5.741"/>
    <path fill="none" stroke="#2887C8" stroke-width="1.5" stroke-linecap="round" stroke-linejoin="round"
          stroke-miterlimit="10" d="
	M311.16,380.815h-0.827c-7.454,0-13.49-6.042-13.49-13.49V350.16"/>
    <path fill="#B6DDF5" d="M454.656,354.983v-56.423c0-7.46-6.043-13.503-13.51-13.503h-23.118c-7.46,0-13.503,6.043-13.503,13.503
	v56.423c0,7.47,6.043,13.513,13.503,13.513h23.118C448.613,368.496,454.656,362.454,454.656,354.983"/>
    <path fill="none" stroke="#2887C8" stroke-width="1.5" stroke-linecap="round" stroke-linejoin="round"
          stroke-miterlimit="10" d="
	M392.196,329.883v-19c0-7.45,6.036-13.486,13.49-13.486h23.124c7.448,0,13.49,6.036,13.49,13.486v56.442
	c0,7.448-6.042,13.493-13.49,13.493h-5.734"/>
    <path fill="none" stroke="#2887C8" stroke-width="1.5" stroke-linecap="round" stroke-linejoin="round"
          stroke-miterlimit="10" d="
	M406.514,380.815h-0.827c-7.454,0-13.497-6.042-13.497-13.49V350.16"/>
    <path fill="#B6DDF5" d="M550.01,354.983v-56.423c0-7.46-6.05-13.503-13.51-13.503h-23.118c-7.46,0-13.503,6.043-13.503,13.503
	v56.423c0,7.47,6.043,13.513,13.503,13.513H536.5C543.96,368.496,550.01,362.454,550.01,354.983"/>
    <path fill="none" stroke="#2887C8" stroke-width="1.5" stroke-linecap="round" stroke-linejoin="round"
          stroke-miterlimit="10" d="
	M487.55,329.883v-19c0-7.45,6.036-13.486,13.49-13.486h23.125c7.44,0,13.49,6.036,13.49,13.486v56.442
	c0,7.448-6.05,13.493-13.49,13.493h-5.734"/>
    <path fill="none" stroke="#2887C8" stroke-width="1.5" stroke-linecap="round" stroke-linejoin="round"
          stroke-miterlimit="10" d="
	M501.867,380.815h-0.833c-7.454,0-13.49-6.042-13.49-13.49V350.16"/>
    <path fill="#B6DDF5" d="M645.363,354.983v-56.423c0-7.46-6.05-13.503-13.51-13.503h-23.118c-7.467,0-13.509,6.043-13.509,13.503
	v56.423c0,7.47,6.042,13.513,13.509,13.513h23.118C639.313,368.496,645.363,362.454,645.363,354.983"/>
    <path fill="none" stroke="#2887C8" stroke-width="1.5" stroke-linecap="round" stroke-linejoin="round"
          stroke-miterlimit="10" d="
	M582.897,329.883v-19c0-7.45,6.043-13.486,13.496-13.486h23.118c7.448,0,13.497,6.036,13.497,13.486v56.442
	c0,7.448-6.049,13.493-13.497,13.493h-5.734"/>
    <path fill="none" stroke="#2887C8" stroke-width="1.5" stroke-linecap="round" stroke-linejoin="round"
          stroke-miterlimit="10" d="
	M597.215,380.815h-0.827c-7.447,0-13.49-6.042-13.49-13.49V350.16"/>
    <path fill="#B6DDF5" d="M740.71,354.983v-56.423c0-7.46-6.042-13.503-13.502-13.503h-23.125c-7.461,0-13.51,6.043-13.51,13.503
	v56.423c0,7.47,6.049,13.513,13.51,13.513h23.125C734.668,368.496,740.71,362.454,740.71,354.983"/>
    <path fill="none" stroke="#2887C8" stroke-width="1.5" stroke-linecap="round" stroke-linejoin="round"
          stroke-miterlimit="10" d="
	M678.251,329.883v-19c0-7.45,6.036-13.486,13.49-13.486h23.125c7.447,0,13.489,6.036,13.489,13.486v56.442
	c0,7.448-6.042,13.493-13.489,13.493h-5.735"/>
    <path fill="none" stroke="#2887C8" stroke-width="1.5" stroke-linecap="round" stroke-linejoin="round"
          stroke-miterlimit="10" d="
	M692.568,380.815h-0.827c-7.447,0-13.49-6.042-13.49-13.49V350.16"/>
    <path fill="#E4F0CC" d="M586.079,571.914H138.106c0-0.282-0.064-0.558-0.064-0.834c-0.071-1.937-0.071-3.881-0.071-5.747
	c0-5.601-4.708-10.321-10.321-10.321c-5.536,0-10.245,4.721-10.245,10.321c0,2.148,0.071,4.361,0.212,6.581H71.496
	c-11.501,0-20.777-9.282-20.777-20.776V530.36h556.137v20.777C606.856,562.632,597.574,571.914,586.079,571.914"/>
    <path fill="none" stroke="#0B9D49" stroke-width="1.5" stroke-linecap="round" stroke-linejoin="round"
          stroke-miterlimit="10" d="
	M586.079,571.914H138.106c0-0.282-0.064-0.558-0.064-0.834c-0.071-1.937-0.071-3.881-0.071-5.747
	c0-5.601-4.708-10.321-10.321-10.321c-5.536,0-10.245,4.721-10.245,10.321c0,2.148,0.071,4.361,0.212,6.581H71.496
	c-11.501,0-20.777-9.282-20.777-20.776V530.36h556.137v20.777C606.856,562.632,597.574,571.914,586.079,571.914z"/>
    <line fill="none" stroke="#0B9D49" stroke-width="1.2" stroke-linecap="round" stroke-linejoin="round"
          stroke-miterlimit="10" x1="271.364" y1="571.914" x2="271.364" y2="551.138"/>
    <line fill="none" stroke="#0B9D49" stroke-width="1.2" stroke-linecap="round" stroke-linejoin="round"
          stroke-miterlimit="10" x1="291.083" y1="571.914" x2="291.083" y2="551.138"/>
    <line fill="none" stroke="#0B9D49" stroke-width="1.2" stroke-linecap="round" stroke-linejoin="round"
          stroke-miterlimit="10" x1="310.801" y1="571.914" x2="310.801" y2="551.138"/>
    <line fill="none" stroke="#0B9D49" stroke-width="1.2" stroke-linecap="round" stroke-linejoin="round"
          stroke-miterlimit="10" x1="330.513" y1="571.914" x2="330.513" y2="551.138"/>
    <line fill="none" stroke="#0B9D49" stroke-width="1.2" stroke-linecap="round" stroke-linejoin="round"
          stroke-miterlimit="10" x1="350.231" y1="571.914" x2="350.231" y2="551.138"/>
    <line fill="none" stroke="#0B9D49" stroke-width="1.2" stroke-linecap="round" stroke-linejoin="round"
          stroke-miterlimit="10" x1="369.95" y1="571.914" x2="369.95" y2="551.138"/>
    <line fill="none" stroke="#0B9D49" stroke-width="1.2" stroke-linecap="round" stroke-linejoin="round"
          stroke-miterlimit="10" x1="389.669" y1="571.914" x2="389.669" y2="551.138"/>
    <line fill="none" stroke="#0B9D49" stroke-width="1.2" stroke-linecap="round" stroke-linejoin="round"
          stroke-miterlimit="10" x1="409.388" y1="571.914" x2="409.388" y2="551.138"/>
    <line fill="none" stroke="#0B9D49" stroke-width="1.2" stroke-linecap="round" stroke-linejoin="round"
          stroke-miterlimit="10" x1="429.106" y1="571.914" x2="429.106" y2="551.138"/>
    <line fill="none" stroke="#0B9D49" stroke-width="1.2" stroke-linecap="round" stroke-linejoin="round"
          stroke-miterlimit="10" x1="448.825" y1="571.914" x2="448.825" y2="551.138"/>
    <line fill="none" stroke="#0B9D49" stroke-width="1.2" stroke-linecap="round" stroke-linejoin="round"
          stroke-miterlimit="10" x1="468.543" y1="571.914" x2="468.543" y2="551.138"/>
    <line fill="none" stroke="#0B9D49" stroke-width="1.2" stroke-linecap="round" stroke-linejoin="round"
          stroke-miterlimit="10" x1="488.262" y1="571.914" x2="488.262" y2="551.138"/>
    <line fill="none" stroke="#0B9D49" stroke-width="1.2" stroke-linecap="round" stroke-linejoin="round"
          stroke-miterlimit="10" x1="507.98" y1="571.914" x2="507.98" y2="551.138"/>
    <line fill="none" stroke="#0B9D49" stroke-width="1.2" stroke-linecap="round" stroke-linejoin="round"
          stroke-miterlimit="10" x1="527.699" y1="571.914" x2="527.699" y2="551.138"/>
    <line fill="none" stroke="#0B9D49" stroke-width="1.2" stroke-linecap="round" stroke-linejoin="round"
          stroke-miterlimit="10" x1="547.418" y1="571.914" x2="547.418" y2="551.138"/>
    <line fill="none" stroke="#0B9D49" stroke-width="1.2" stroke-linecap="round" stroke-linejoin="round"
          stroke-miterlimit="10" x1="567.13" y1="571.914" x2="567.13" y2="551.138"/>
    <line fill="none" stroke="#0B9D49" stroke-width="1.2" stroke-linecap="round" stroke-linejoin="round"
          stroke-miterlimit="10" x1="252.319" y1="571.914" x2="252.319" y2="551.138"/>
    <line fill="none" stroke="#0B9D49" stroke-width="1.2" stroke-linecap="round" stroke-linejoin="round"
          stroke-miterlimit="10" x1="233.273" y1="571.914" x2="233.273" y2="551.138"/>
    <line fill="none" stroke="#0B9D49" stroke-width="1.2" stroke-linecap="round" stroke-linejoin="round"
          stroke-miterlimit="10" x1="214.229" y1="571.914" x2="214.229" y2="551.138"/>
    <line fill="none" stroke="#0B9D49" stroke-width="1.2" stroke-linecap="round" stroke-linejoin="round"
          stroke-miterlimit="10" x1="195.184" y1="571.914" x2="195.184" y2="551.138"/>
    <line fill="none" stroke="#0B9D49" stroke-width="1.2" stroke-linecap="round" stroke-linejoin="round"
          stroke-miterlimit="10" x1="176.145" y1="571.914" x2="176.145" y2="551.138"/>
    <line fill="none" stroke="#0B9D49" stroke-width="1.2" stroke-linecap="round" stroke-linejoin="round"
          stroke-miterlimit="10" x1="157.1" y1="571.914" x2="157.1" y2="551.138"/>
    <line fill="none" stroke="#0B9D49" stroke-width="1.2" stroke-linecap="round" stroke-linejoin="round"
          stroke-miterlimit="10" x1="95.93" y1="571.914" x2="95.93" y2="551.138"/>
    <line fill="none" stroke="#0B9D49" stroke-width="1.2" stroke-linecap="round" stroke-linejoin="round"
          stroke-miterlimit="10" x1="77.661" y1="571.914" x2="77.661" y2="551.138"/>
    <path fill="#FFFFFF" d="M620.538,530.36H41.322c-9.044,0-16.376-7.332-16.376-16.377V371.578c0-9.044,7.332-16.376,16.376-16.376
	h579.216c9.045,0,16.383,7.332,16.383,16.376v142.405C636.921,523.028,629.583,530.36,620.538,530.36"/>
    <path fill="none" stroke="#2887C8" stroke-width="1.5" stroke-linecap="round" stroke-linejoin="round"
          stroke-miterlimit="10" d="
	M620.538,530.36H41.322c-9.044,0-16.376-7.332-16.376-16.377V371.578c0-9.044,7.332-16.376,16.376-16.376h579.216
	c9.045,0,16.383,7.332,16.383,16.376v142.405C636.921,523.028,629.583,530.36,620.538,530.36z"/>
    <path fill="#B6DDF5" d="M125.925,427.008v56.423c0,7.467-6.043,13.509-13.503,13.509H89.297c-7.46,0-13.503-6.042-13.503-13.509
	v-56.423c0-7.461,6.043-13.504,13.503-13.504h23.125C119.882,413.504,125.925,419.547,125.925,427.008"/>
    <path fill="none" stroke="#2887C8" stroke-width="1.5" stroke-linecap="round" stroke-linejoin="round"
          stroke-miterlimit="10" d="
	M63.465,452.107v19.014c0,7.44,6.036,13.483,13.49,13.483h23.125c7.441,0,13.49-6.043,13.49-13.483v-56.442
	c0-7.46-6.049-13.497-13.49-13.497h-5.735"/>
    <path fill="none" stroke="#2887C8" stroke-width="1.5" stroke-linecap="round" stroke-linejoin="round"
          stroke-miterlimit="10" d="
	M77.783,401.182h-0.828c-7.46,0-13.49,6.037-13.49,13.49v17.159"/>
    <path fill="#B6DDF5" d="M221.278,427.008v56.423c0,7.467-6.043,13.509-13.509,13.509H184.65c-7.466,0-13.509-6.042-13.509-13.509
	v-56.423c0-7.461,6.042-13.504,13.509-13.504h23.119C215.235,413.504,221.278,419.547,221.278,427.008"/>
    <path fill="none" stroke="#2887C8" stroke-width="1.5" stroke-linecap="round" stroke-linejoin="round"
          stroke-miterlimit="10" d="
	M158.819,452.107v19.014c0,7.44,6.036,13.483,13.483,13.483h23.125c7.454,0,13.497-6.043,13.497-13.483v-56.442
	c0-7.46-6.043-13.497-13.497-13.497h-5.735"/>
    <path fill="none" stroke="#2887C8" stroke-width="1.5" stroke-linecap="round" stroke-linejoin="round"
          stroke-miterlimit="10" d="
	M173.136,401.182h-0.828c-7.46,0-13.496,6.037-13.496,13.49v17.159"/>
    <path fill="#B6DDF5" d="M316.625,427.008v56.423c0,7.467-6.042,13.509-13.503,13.509h-23.125c-7.46,0-13.503-6.042-13.503-13.509
	v-56.423c0-7.461,6.042-13.504,13.503-13.504h23.125C310.583,413.504,316.625,419.547,316.625,427.008"/>
    <path fill="none" stroke="#2887C8" stroke-width="1.5" stroke-linecap="round" stroke-linejoin="round"
          stroke-miterlimit="10" d="
	M254.172,452.107v19.014c0,7.44,6.03,13.483,13.484,13.483h23.125c7.448,0,13.49-6.043,13.49-13.483v-56.442
	c0-7.46-6.042-13.497-13.49-13.497h-5.741"/>
    <path fill="none" stroke="#2887C8" stroke-width="1.5" stroke-linecap="round" stroke-linejoin="round"
          stroke-miterlimit="10" d="
	M268.49,401.182h-0.834c-7.454,0-13.49,6.037-13.49,13.49v17.159"/>
    <path fill="#B6DDF5" d="M411.979,427.008v56.423c0,7.467-6.042,13.509-13.502,13.509h-23.125c-7.46,0-13.503-6.042-13.503-13.509
	v-56.423c0-7.461,6.043-13.504,13.503-13.504h23.125C405.937,413.504,411.979,419.547,411.979,427.008"/>
    <path fill="none" stroke="#2887C8" stroke-width="1.5" stroke-linecap="round" stroke-linejoin="round"
          stroke-miterlimit="10" d="
	M349.52,452.107v19.014c0,7.44,6.036,13.483,13.484,13.483h23.131c7.447,0,13.49-6.043,13.49-13.483v-56.442
	c0-7.46-6.042-13.497-13.49-13.497h-5.741"/>
    <path fill="none" stroke="#2887C8" stroke-width="1.5" stroke-linecap="round" stroke-linejoin="round"
          stroke-miterlimit="10" d="
	M363.837,401.182h-0.827c-7.454,0-13.49,6.037-13.49,13.49v17.159"/>
    <path fill="#B6DDF5" d="M507.333,427.008v56.423c0,7.467-6.043,13.509-13.51,13.509h-23.118c-7.46,0-13.503-6.042-13.503-13.509
	v-56.423c0-7.461,6.043-13.504,13.503-13.504h23.118C501.29,413.504,507.333,419.547,507.333,427.008"/>
    <path fill="none" stroke="#2887C8" stroke-width="1.5" stroke-linecap="round" stroke-linejoin="round"
          stroke-miterlimit="10" d="
	M444.873,452.107v19.014c0,7.44,6.037,13.483,13.484,13.483h23.131c7.447,0,13.49-6.043,13.49-13.483v-56.442
	c0-7.46-6.043-13.497-13.49-13.497h-5.741"/>
    <path fill="none" stroke="#2887C8" stroke-width="1.5" stroke-linecap="round" stroke-linejoin="round"
          stroke-miterlimit="10" d="
	M459.191,401.182h-0.828c-7.453,0-13.496,6.037-13.496,13.49v17.159"/>
    <path fill="#B6DDF5" d="M602.687,427.008v56.423c0,7.467-6.049,13.509-13.51,13.509h-23.118c-7.46,0-13.503-6.042-13.503-13.509
	v-56.423c0-7.461,6.043-13.504,13.503-13.504h23.118C596.638,413.504,602.687,419.547,602.687,427.008"/>
    <path fill="none" stroke="#2887C8" stroke-width="1.5" stroke-linecap="round" stroke-linejoin="round"
          stroke-miterlimit="10" d="
	M540.228,452.107v19.014c0,7.44,6.035,13.483,13.483,13.483h23.131c7.441,0,13.49-6.043,13.49-13.483v-56.442
	c0-7.46-6.049-13.497-13.49-13.497h-5.747"/>
    <path fill="none" stroke="#2887C8" stroke-width="1.5" stroke-linecap="round" stroke-linejoin="round"
          stroke-miterlimit="10" d="
	M554.544,401.182h-0.833c-7.454,0-13.49,6.037-13.49,13.49v17.159"/>
</svg>
