<?xml version="1.0" encoding="utf-8"?>
<!-- Generator: Adobe Illustrator 16.0.0, SVG Export Plug-In . SVG Version: 6.00 Build 0)  -->
<!DOCTYPE svg PUBLIC "-//W3C//DTD SVG 1.0//EN" "http://www.w3.org/TR/2001/REC-SVG-20010904/DTD/svg10.dtd">
<svg version="1.0" id="Layer_1" xmlns="http://www.w3.org/2000/svg" x="0px" y="0px"
     width="800px" height="800px" viewBox="0 0 800 800" enable-background="new 0 0 800 800" xml:space="preserve">
<path fill="#E4F0CC" d="M465.439,604.809c-65.024,12.98-138.388,0-138.388,0l-10.188,65.64L343.432,775h117.438l17.473-170.191
	H465.439z"/>
    <path fill="none" stroke="#2887C8" stroke-width="1.5" stroke-miterlimit="10" d="M465.439,604.809
	c-65.024,12.98-138.388,0-138.388,0l-10.188,65.64L343.432,775h117.438l17.473-170.191H465.439z"/>
    <path fill="none" stroke="#2887C8" stroke-width="1.5" stroke-linecap="round" stroke-linejoin="round"
          stroke-miterlimit="10" d="
	M555.147,566.107c32.608-50.163,63.649-130.814,63.649-256.397c0-264.66-142.68-259.952-142.68-259.952
	s-32.025-24.754-74.731-24.754S176.205,73.535,176.205,308.05c0,162.442,31.635,237.124,51.105,267.753"/>
    <path fill="#E4F2FC" d="M469.827,502.542l1.944-49.502H320.048l1.944,49.502c0,0,29.111,31.986,73.916,33.238
	C443.642,534.528,469.827,502.542,469.827,502.542"/>
    <path fill="#E4F2FC" d="M316.863,775h-44.802l-47.6-75.701c0,0,50.862-26.242,43.561-28.028
	c-7.222-1.947-53.028-21.896-53.028-21.896c-2.177-23.922,14.671-57.237,32.76-85.033c12.499-7.305,25.862-16.77,40.846-29.82
	c0.158,2.109,0.232,4.43,0.31,6.835c1.399,29.897,3.962,78.345,8.079,123.698c0.384,3.882,0.771,7.679,1.16,11.49
	C302.649,722.432,308.784,763.116,316.863,775"/>
    <path fill="none" stroke="#2887C8" stroke-width="1.5" stroke-linecap="round" stroke-linejoin="round"
          stroke-miterlimit="10" d="
	M254.979,702.94L306.302,775H95.831c0,0-22.287-128.818,64.134-163.758c57.925-23.449,44.77-22.058,87.792-46.907
	c12.499-7.284,25.855-16.763,40.839-29.813c9.707-8.381,20.11-18.24,31.452-29.969c-4.739,5.049-17.396,18.943-31.135,36.811
	c-22.441,29.117-47.52,68.635-45.037,97.443c0,0,35.794,18.246,53.109,26.248c4.039,1.786,7.144,3.102,8.466,3.495
	c2.169,0.541-1.322,3.72-7.299,7.995C283.86,686.712,254.979,702.94,254.979,702.94z"/>
    <path fill="#FFFFFF" d="M351.106,775h-44.801l-51.323-72.053c0,0,57.768-32.534,50.465-34.404
	c-7.221-2.012-61.575-29.729-61.575-29.729c-4.032-46.437,63.752-120.978,76.173-134.261c1.245-1.321,1.944-2.018,1.944-2.018
	S329.749,742.697,351.106,775"/>
    <path fill="none" stroke="#2887C8" stroke-width="1.5" stroke-linecap="round" stroke-linejoin="round"
          stroke-miterlimit="10" d="
	M351.106,775h-44.801l-51.323-72.053c0,0,57.768-32.534,50.465-34.404c-7.221-2.012-61.575-29.729-61.575-29.729
	c-4.032-46.437,63.752-120.978,76.173-134.261c1.245-1.321,1.944-2.018,1.944-2.018S329.749,742.697,351.106,775z"/>
    <path fill="#E4F2FC" d="M474.953,775h44.798l47.604-75.701c0,0-50.862-26.242-43.564-28.028
	c7.222-1.947,53.032-21.896,53.032-21.896c2.173-23.922-14.675-57.237-32.764-85.033c-12.498-7.305-25.861-16.77-40.846-29.82
	c-0.158,2.109-0.232,4.43-0.31,6.835c-1.396,29.897-3.959,78.345-8.079,123.698c-0.38,3.882-0.771,7.679-1.16,11.49
	C489.164,722.432,483.032,763.116,474.953,775"/>
    <path fill="none" stroke="#2887C8" stroke-width="1.5" stroke-linecap="round" stroke-linejoin="round"
          stroke-miterlimit="10" d="
	M536.838,702.94L485.511,775h218.241c0,0,22.286-128.818-64.131-163.758c-57.93-23.449-52.551-22.058-95.563-46.907
	c-12.502-7.284-25.858-16.763-40.85-29.813c-9.703-8.381-20.104-18.24-31.441-29.969c4.736,5.049,17.396,18.943,31.132,36.811
	c22.444,29.117,47.522,68.635,45.041,97.443c0,0-35.794,18.246-53.112,26.248c-4.04,1.786-7.141,3.102-8.467,3.495
	c-2.169,0.541,1.326,3.72,7.303,7.995C507.955,686.712,536.838,702.94,536.838,702.94z"/>
    <path fill="#FFFFFF" d="M440.709,775h44.799l51.322-72.053c0,0-57.768-32.534-50.465-34.404
	c7.221-2.012,61.575-29.729,61.575-29.729c4.032-46.437-63.748-120.978-76.169-134.261c-1.248-1.321-1.944-2.018-1.944-2.018
	S462.064,742.697,440.709,775"/>
    <path fill="none" stroke="#2887C8" stroke-width="1.5" stroke-linecap="round" stroke-linejoin="round"
          stroke-miterlimit="10" d="
	M440.709,775h44.799l51.322-72.053c0,0-57.768-32.534-50.465-34.404c7.221-2.012,61.575-29.729,61.575-29.729
	c4.032-46.437-63.748-120.978-76.169-134.261c-1.248-1.321-1.944-2.018-1.944-2.018S462.064,742.697,440.709,775z"/>
    <line fill="none" stroke="#2887C8" stroke-width="1.5" stroke-linecap="round" stroke-linejoin="round"
          stroke-miterlimit="10" x1="351.106" y1="775" x2="440.706" y2="775"/>
    <polygon fill="#2887C8" points="475.646,502.768 464.008,502.317 465.71,458.862 326.103,458.862 327.808,502.317 316.167,502.768
	313.991,447.219 477.829,447.219 "/>
    <path fill="#2887C8" d="M232.763,298.951c-0.31,0.31-0.538,0.542-0.777,0.773v-0.084
	C232.225,299.416,232.453,299.177,232.763,298.951"/>
    <path fill="#2887C8" d="M434.723,108.478c0,0.387-0.074,0.777-0.159,1.164c0.394-2.021-0.31-4.117-2.018-5.513
	c-1.705-1.399-4.032-1.708-5.977-0.932c0.699-0.387,1.477-0.545,2.327-0.545C432.085,102.652,434.723,105.293,434.723,108.478"/>
    <path fill="#FFFFFF" d="M232.763,298.951c-0.31,0.31-0.538,0.542-0.777,0.773v-0.084
	C232.225,299.416,232.453,299.177,232.763,298.951"/>
    <path fill="#FFFFFF" d="M519.36,294.367c2.247,3.727,1.009,8.459-2.644,10.716c-1.238,0.773-2.715,1.083-4.04,1.083
	c-2.714,0-5.276-1.322-6.673-3.797c-17.318-29.041-51.094-12.741-52.49-12.038c-3.959,1.94-8.621,0.379-10.484-3.502
	c-2.018-3.881-0.309-8.536,3.492-10.477C463.14,268.125,499.711,261.291,519.36,294.367"/>
    <path fill="#2887C8" d="M579.691,252.67c-1.555-0.787-3.421-0.703-5.049,0.07c-1.555,0.788-2.715,2.18-3.111,3.966l-4.188,18.858
	l-3.882,17.565c-22.982-44.186-51.014-141.474-51.323-142.564c-0.629-2.103-2.404-3.734-4.58-4.113
	c-2.254-0.394-4.431,0.541-5.745,2.327c-65.147,90.299-139.456,127.496-188.065,142.789c-12.579,3.966-23.373,6.441-31.912,8.002
	c52.951-46.281,134.179-162.21,151.796-187.598v-0.081c0.239-0.309,0.391-0.696,0.549-1.086c0.151-0.232,0.229-0.542,0.31-0.851
	c0-0.078,0.073-0.236,0.073-0.309c0.394-2.021-0.313-4.117-2.018-5.513c-1.705-1.399-4.032-1.709-5.977-0.932
	c-0.31,0.151-0.696,0.309-1.006,0.541c-0.313,0.229-0.548,0.468-0.858,0.777c-1.237,1.237-2.563,2.563-3.962,3.881
	c-3.958,3.959-8.389,8.23-13.047,12.731c-0.151,0.162-0.229,0.232-0.38,0.387c-2.412,2.334-4.897,4.739-7.46,7.144
	c-2.324,2.25-4.732,4.507-7.145,6.764c-2.404,2.321-4.81,4.655-7.292,6.982c-1.086,1.005-2.183,2.095-3.27,3.115
	c-3.952,3.713-7.992,7.594-12.112,11.405c-2.641,2.489-5.277,5.049-7.998,7.538c-5.587,5.203-11.254,10.477-17.08,15.835
	c-5.436,5.119-10.944,10.252-16.461,15.293c-0.158,0.162-0.309,0.316-0.387,0.316c-5.126,4.81-10.252,9.549-15.293,14.204
	c-4.659,4.19-9.247,8.466-13.747,12.586c-3.958,3.642-7.847,7.214-11.647,10.709c-2.644,2.405-5.281,4.817-7.844,7.144
	c-1.237,1.245-2.482,2.327-3.727,3.41c-18.946,17.319-34.785,31.769-44.257,40.305c-0.935,0.936-1.786,1.716-2.64,2.405
	c-4.191,3.881-6.683,6.061-6.834,6.216c-0.158,0.07-0.626,0.548-0.696,0.688c0,0.085-0.081,0.169-0.158,0.239
	c-1.47,1.631-1.786,3.812-0.932,5.667c0.151,2.728,0.468,5.442,0.777,8.234c0.622,5.351,1.55,10.948,2.637,16.7
	c3.03,15.525,7.53,30.657,13.437,44.945c7.45,18.338,17.157,35.256,28.959,50.402c14.214,18.246,31.29,33.934,50.704,46.506
	c20.036,12.967,41.855,22.824,64.919,29.504c4.5,1.322,9.387,2.574,14.822,2.799h1.325c8.772,0,16.999-3.262,24.301-6.131
	l1.009-0.472c15.069-5.977,30.595-12.186,45.037-20.497c14.285-8.381,28.031-18.942,40.77-31.444
	c15.135-14.907,28.023-32.38,38.356-51.949c5.896-11.419,10.555-22.515,14.204-33.695c7.144,2.019,19.104,3.727,30.056-2.798
	c13.198-7.841,20.42-24.85,21.587-50.627C614.634,269.757,581.168,253.373,579.691,252.67 M585.745,341.577
	c-11.103,6.673-25.236,0.078-25.317,0c-1.547-0.781-3.332-0.781-4.887-0.084c-1.635,0.703-2.795,2.025-3.263,3.656
	c-3.649,12.502-8.617,24.766-15.22,37.506c-9.777,18.479-21.889,35.018-36.262,49.066c-11.953,11.799-24.92,21.818-38.434,29.666
	c-13.666,7.91-28.809,13.972-43.402,19.801l-1.09,0.387c-6.603,2.637-13.356,5.352-20.029,5.352h-0.932
	c-3.727-0.148-7.457-1.076-11.887-2.328c-21.967-6.37-42.776-15.758-61.808-28.111c-18.317-11.877-34.476-26.629-47.902-43.863
	c-11.103-14.288-20.269-30.362-27.413-47.674c-5.586-13.585-9.858-27.957-12.657-42.787c-0.851-4.043-1.477-7.995-2.018-11.806
	c-0.545-3.642-0.935-7.137-1.244-10.632v-0.077c0.239-0.232,0.467-0.471,0.776-0.696c0.777-0.703,1.635-1.477,2.644-2.418
	c0.696-0.619,1.477-1.315,2.253-2.011c1.396-1.251,2.943-2.644,4.659-4.198c1.238-1.16,2.633-2.405,4.11-3.804
	c2.485-2.173,5.13-4.654,8.079-7.299c1.867-1.708,3.801-3.417,5.819-5.273c1.016-0.935,2.021-1.87,3.111-2.798
	c2.095-1.941,4.191-3.881,6.444-5.907c4.5-4.106,9.243-8.381,14.133-12.882c2.482-2.257,4.968-4.584,7.531-6.919
	c2.556-2.32,5.119-4.725,7.763-7.144c3.958-3.643,7.998-7.292,12.108-11.096c2.725-2.489,5.438-5.049,8.23-7.608
	c22.293-20.504,45.737-42.245,66.627-61.885c0.31-0.387,0.538-0.548,0.854-0.78c-38.125,51.949-96.051,126.104-129.131,146.129
	c-1.624,0.942-2.563,2.567-2.714,4.353c-0.078,0.696-0.078,1.47,0.151,2.257c0.7,2.56,3.034,4.191,5.667,4.191
	c3.421-0.084,52.958-1.631,116.164-36.346c39.68-21.749,84.709-56.682,127.031-112.427c7.303,24.301,25.24,82.142,42.626,120.429
	c4.661,10.4,9.32,19.414,13.746,25.855c0.851,1.94,2.485,3.417,4.581,3.649h0.387c3.023,0,5.748-2.482,6.135-5.513l9.398-42.393
	c8.149,5.59,21.196,17.086,20.419,33.315C600.652,321.691,595.143,335.909,585.745,341.577"/>
    <path fill="#FFFFFF" d="M581.168,267.113l-9.398,42.4c-0.387,3.023-3.107,5.506-6.135,5.506h-0.387
	c-2.096-0.232-3.73-1.709-4.581-3.649c-4.426-6.441-9.085-15.441-13.746-25.862c-28.337-26.242-50.624-74.921-50.624-74.921
	c-33.775,31.291-80.212,52.955-119.033,66.926c-63.206,34.714-112.743,36.261-116.164,36.339c-2.633,0-4.968-1.625-5.667-4.191
	c-0.229-0.78-0.229-1.554-0.151-2.257l-22.055,2.953c0.542,3.812,1.167,7.777,2.018,11.813c2.802,14.822,7.07,29.188,12.657,42.779
	c7.144,17.312,16.31,33.386,27.413,47.674c13.437,17.241,29.585,31.986,47.902,43.863c19.031,12.347,39.841,21.748,61.808,28.111
	c4.43,1.252,8.16,2.18,11.887,2.335h0.932c6.673,0,13.427-2.722,20.029-5.358l1.09-0.394c14.594-5.822,29.736-11.876,43.402-19.801
	c13.514-7.833,26.48-17.847,38.434-29.659c14.373-14.049,26.484-30.594,36.262-49.066c6.603-12.74,11.57-25.004,15.22-37.506
	c0.468-1.631,1.635-2.953,3.263-3.649c1.555-0.703,3.34-0.703,4.891,0.078c0.077,0.07,14.211,6.68,25.313,0
	c9.397-5.667,14.907-19.878,15.842-41.148C602.364,284.192,589.317,272.703,581.168,267.113 M516.717,305.083
	c-1.238,0.773-2.715,1.083-4.04,1.083c-2.714,0-5.276-1.322-6.673-3.797c-17.318-29.048-51.094-12.741-52.49-12.038
	c-3.959,1.94-8.621,0.387-10.484-3.495c-2.018-3.888-0.309-8.543,3.492-10.483c16.618-8.228,53.189-15.069,72.839,18.015
	C521.607,298.094,520.369,302.833,516.717,305.083"/>
    <path fill="#2887C8" d="M516.717,305.083c-1.238,0.773-2.715,1.083-4.04,1.083c-2.714,0-5.276-1.322-6.673-3.797
	c-17.318-29.048-51.094-12.741-52.49-12.038c-3.959,1.94-8.621,0.387-10.484-3.495c-2.018-3.888-0.309-8.543,3.492-10.483
	c16.618-8.228,53.189-15.069,72.839,18.015C521.607,298.094,520.369,302.833,516.717,305.083"/>
    <path fill="none" stroke="#2887C8" stroke-width="1.5" stroke-linecap="round" stroke-linejoin="round"
          stroke-miterlimit="10" d="
	M228.617,242.728c0,0,32.999-168.282,174.709-168.282c141.703,0,163.058,121.297,163.058,121.297"/>
    <path fill="#E4F2FC" d="M344.381,404.818l107.017,10.441c0,0-5.98,33.632-58.154,28.541
	C341.076,438.725,344.381,404.818,344.381,404.818"/>
    <path fill="#2887C8" d="M399.244,450.017c-3.213,0-5.818-2.602-5.825-5.815c0-3.22,2.605-5.828,5.818-5.828
	c23.401-0.028,43.121-14.246,49.998-35.313L346.143,393.02c0.468,7.404,2.468,14.738,5.801,21.15
	c1.491,2.855,0.383,6.371-2.468,7.854c-2.858,1.483-6.371,0.387-7.854-2.468c-5.207-9.999-7.742-21.805-7.151-33.273
	c0.078-1.575,0.806-3.066,2.019-4.106c1.202-1.026,2.777-1.568,4.359-1.378l116.287,11.334c1.635,0.162,3.126,0.999,4.104,2.313
	c0.98,1.315,1.36,2.981,1.051,4.592c-5.825,29.997-31.747,50.958-63.038,50.979H399.244z"/>
    <path fill="#2887C8" d="M222.831,440.271c7.221,7.299,17.161,10.947,29.659,10.947h73.459c2.404,3.333,6.286,5.429,10.631,5.429
	h33.161c7.299,0,13.198-5.899,13.198-13.198c0-7.221-5.899-13.121-13.198-13.121H336.58c-4.345,0-8.227,2.096-10.561,5.352h-73.529
	c-23.833,0-25.078-18.711-25.078-22.438V351.28c0-4.275-3.495-7.763-7.763-7.763c-4.349,0-7.77,3.487-7.77,7.763v61.962
	C211.802,413.783,211.802,429.161,222.831,440.271"/>
    <path fill="#E4F2FC" d="M546.924,285.507c-28.34-26.242-50.627-74.921-50.627-74.921c-33.775,31.283-80.212,52.955-119.033,66.926
	c39.68-21.735,84.709-56.682,127.031-112.427C511.598,189.386,529.535,247.234,546.924,285.507"/>
    <path fill="#E4F2FC" d="M387.126,156.929c-38.129,51.949-96.055,126.104-129.131,146.129c-1.628,0.942-2.563,2.567-2.714,4.353
	l-22.055,2.946c-0.541-3.642-0.932-7.137-1.241-10.632c0.232-0.239,0.464-0.464,0.781-0.773c0.777-0.703,1.625-1.477,2.633-2.418
	c0.707-0.619,1.477-1.308,2.254-2.011c1.399-1.237,2.953-2.644,4.658-4.198c1.248-1.16,2.644-2.405,4.113-3.804
	c2.489-2.173,5.126-4.654,8.079-7.299c1.863-1.708,3.808-3.417,5.822-5.273c1.009-0.935,2.018-1.87,3.104-2.798
	c2.103-1.941,4.19-3.881,6.444-5.907c4.507-4.106,9.246-8.381,14.133-12.882c2.486-2.257,4.968-4.584,7.535-6.919
	c2.563-2.32,5.126-4.725,7.759-7.144c3.97-3.643,7.999-7.292,12.119-11.096c2.714-2.489,5.436-5.049,8.23-7.608
	c22.286-20.504,45.736-42.245,66.616-61.885C386.584,157.322,386.816,157.161,387.126,156.929"/>
    <path fill="#E4F2FC" d="M232.763,298.951c-0.31,0.31-0.538,0.542-0.777,0.773v-0.084
	C232.225,299.416,232.453,299.177,232.763,298.951"/>
    <path fill="#2887C8"
          d="M232.97,239.099c0,0-81.235-19.407-81.235,59.74c0,79.147,85.374,54.649,85.374,54.649L232.97,239.099z"/>
</svg>
