<svg xmlns="http://www.w3.org/2000/svg" id="Layer_1" width="800" height="800" x="0" y="0" enable-background="new 0 0 800 800" version="1.0" viewBox="0 0 800 800" xml:space="preserve"><rect width="384.135" height="543.588" x="206.933" y="144.213" fill="#B6DDF5"/><rect width="384.135" height="543.588" x="206.933" y="144.213" fill="none" stroke="#2887C8" stroke-linecap="round" stroke-linejoin="round" stroke-miterlimit="10"/><path fill="#FFF" d="M615.402,575.756v82.472c0,4.271-3.454,7.69-7.681,7.69H479.65c-0.076-4.188-3.457-7.571-7.684-7.571	H326.034c-4.225,0-7.608,3.384-7.683,7.571H190.278c-4.225,0-7.683-3.42-7.683-7.69v-82.472c0-4.225,3.458-7.681,7.683-7.681	h417.443C611.948,568.075,615.402,571.531,615.402,575.756"/><path fill="none" stroke="#2887C8" stroke-linecap="round" stroke-linejoin="round" stroke-miterlimit="10" d="M615.402,575.756	v82.472c0,4.271-3.454,7.69-7.681,7.69H479.65c-0.076-4.188-3.457-7.571-7.684-7.571H326.034c-4.225,0-7.608,3.384-7.683,7.571	H190.278c-4.225,0-7.683-3.42-7.683-7.69v-82.472c0-4.225,3.458-7.681,7.683-7.681h417.443	C611.948,568.075,615.402,571.531,615.402,575.756z"/><path fill="#B1D465" d="M593.57,613.146c0,7.225-5.852,13.076-13.071,13.076s-13.071-5.852-13.071-13.076	c0-7.215,5.852-13.066,13.071-13.066S593.57,605.932,593.57,613.146"/><path fill="#0B9D49" d="M589.248,613.146c0,4.838-3.918,8.752-8.751,8.752c-4.831,0-8.747-3.914-8.747-8.752	c0-4.828,3.916-8.741,8.747-8.741C585.33,604.405,589.248,608.318,589.248,613.146"/><path fill="#B1D465" d="M551.29,613.146c0,7.225-5.853,13.076-13.071,13.076c-7.22,0-13.072-5.852-13.072-13.076	c0-7.215,5.853-13.066,13.072-13.066C545.438,600.08,551.29,605.932,551.29,613.146"/><path fill="#0B9D49" d="M546.967,613.146c0,4.838-3.918,8.752-8.75,8.752c-4.831,0-8.747-3.914-8.747-8.752	c0-4.828,3.916-8.741,8.747-8.741C543.049,604.405,546.967,608.318,546.967,613.146"/><path fill="#2887C8" d="M223.253,601.204c0,4.243-3.443,7.682-7.684,7.682c-4.243,0-7.684-3.438-7.684-7.682	c0-4.233,3.44-7.681,7.684-7.681C219.81,593.523,223.253,596.971,223.253,601.204 M215.569,616.585c-4.243,0-7.684,3.438-7.684,7.69	c0,4.233,3.44,7.672,7.684,7.672c4.24,0,7.684-3.438,7.684-7.672C223.253,620.023,219.81,616.585,215.569,616.585"/><path fill="#2887C8" d="M255.283,601.204c0,4.243-3.443,7.682-7.684,7.682c-4.243,0-7.683-3.438-7.683-7.682	c0-4.233,3.44-7.681,7.683-7.681C251.84,593.523,255.283,596.971,255.283,601.204 M247.599,616.585c-4.243,0-7.683,3.438-7.683,7.69	c0,4.233,3.44,7.672,7.683,7.672c4.241,0,7.684-3.438,7.684-7.672C255.283,620.023,251.84,616.585,247.599,616.585"/><path fill="#2887C8" d="M287.313,601.204c0,4.243-3.44,7.682-7.681,7.682c-4.243,0-7.684-3.438-7.684-7.682	c0-4.233,3.441-7.681,7.684-7.681C283.872,593.523,287.313,596.971,287.313,601.204 M279.631,616.585	c-4.243,0-7.684,3.438-7.684,7.69c0,4.233,3.441,7.672,7.684,7.672c4.241,0,7.681-3.438,7.681-7.672	C287.313,620.023,283.872,616.585,279.631,616.585"/><path fill="#2887C8" d="M319.342,601.204c0,4.243-3.44,7.682-7.681,7.682c-4.243,0-7.683-3.438-7.683-7.682	c0-4.233,3.44-7.681,7.683-7.681C315.902,593.523,319.342,596.971,319.342,601.204 M311.661,616.585	c-4.243,0-7.683,3.438-7.683,7.69c0,4.233,3.44,7.672,7.683,7.672c4.241,0,7.681-3.438,7.681-7.672	C319.342,620.023,315.902,616.585,311.661,616.585"/><path fill="#2887C8" d="M351.375,601.204c0,4.243-3.443,7.682-7.683,7.682c-4.243,0-7.684-3.438-7.684-7.682	c0-4.233,3.44-7.681,7.684-7.681C347.932,593.523,351.375,596.971,351.375,601.204 M343.691,616.585	c-4.243,0-7.684,3.438-7.684,7.69c0,4.233,3.44,7.672,7.684,7.672c4.24,0,7.683-3.438,7.683-7.672	C351.375,620.023,347.932,616.585,343.691,616.585"/><path fill="#2887C8" d="M383.404,601.204c0,4.243-3.44,7.682-7.683,7.682c-4.241,0-7.684-3.438-7.684-7.682	c0-4.233,3.443-7.681,7.684-7.681C379.964,593.523,383.404,596.971,383.404,601.204 M375.721,616.585	c-4.241,0-7.684,3.438-7.684,7.69c0,4.233,3.443,7.672,7.684,7.672c4.243,0,7.683-3.438,7.683-7.672	C383.404,620.023,379.964,616.585,375.721,616.585"/><path fill="#2887C8" d="M415.435,601.204c0,4.243-3.44,7.682-7.684,7.682c-4.241,0-7.681-3.438-7.681-7.682	c0-4.233,3.439-7.681,7.681-7.681C411.994,593.523,415.435,596.971,415.435,601.204 M407.751,616.585	c-4.241,0-7.681,3.438-7.681,7.69c0,4.233,3.439,7.672,7.681,7.672c4.243,0,7.684-3.438,7.684-7.672	C415.435,620.023,411.994,616.585,407.751,616.585"/><path fill="#FFF" d="M615.402,456.033v82.479c0,4.262-3.454,7.682-7.681,7.682H479.65c-0.076-4.188-3.457-7.563-7.684-7.563	H326.034c-4.225,0-7.608,3.374-7.683,7.563H190.278c-4.225,0-7.683-3.42-7.683-7.682v-82.479c0-4.22,3.458-7.682,7.683-7.682	h417.443C611.948,448.352,615.402,451.813,615.402,456.033"/><path fill="none" stroke="#2887C8" stroke-linecap="round" stroke-linejoin="round" stroke-miterlimit="10" d="M615.402,456.033	v82.479c0,4.262-3.454,7.682-7.681,7.682H479.65c-0.076-4.188-3.457-7.563-7.684-7.563H326.034c-4.225,0-7.608,3.374-7.683,7.563	H190.278c-4.225,0-7.683-3.42-7.683-7.682v-82.479c0-4.22,3.458-7.682,7.683-7.682h417.443	C611.948,448.352,615.402,451.813,615.402,456.033z"/><path fill="#B1D465" d="M593.57,493.431c0,7.215-5.852,13.067-13.071,13.067s-13.071-5.853-13.071-13.067	c0-7.222,5.852-13.074,13.071-13.074S593.57,486.209,593.57,493.431"/><path fill="#0B9D49" d="M589.248,493.431c0,4.828-3.918,8.742-8.751,8.742c-4.831,0-8.747-3.914-8.747-8.742	s3.916-8.753,8.747-8.753C585.33,484.678,589.248,488.603,589.248,493.431"/><path fill="#B1D465" d="M551.29,493.431c0,7.215-5.853,13.067-13.071,13.067c-7.22,0-13.072-5.853-13.072-13.067	c0-7.222,5.853-13.074,13.072-13.074C545.438,480.356,551.29,486.209,551.29,493.431"/><path fill="#0B9D49" d="M546.967,493.431c0,4.828-3.918,8.742-8.75,8.742c-4.831,0-8.747-3.914-8.747-8.742s3.916-8.753,8.747-8.753	C543.049,484.678,546.967,488.603,546.967,493.431"/><path fill="#2887C8" d="M223.253,481.481c0,4.243-3.443,7.688-7.684,7.688c-4.243,0-7.684-3.445-7.684-7.688	c0-4.238,3.44-7.681,7.684-7.681C219.81,473.801,223.253,477.243,223.253,481.481 M215.569,496.859c-4.243,0-7.684,3.438-7.684,7.69	c0,4.234,3.44,7.682,7.684,7.682c4.24,0,7.684-3.447,7.684-7.682C223.253,500.298,219.81,496.859,215.569,496.859"/><path fill="#2887C8" d="M255.283,481.481c0,4.243-3.443,7.688-7.684,7.688c-4.243,0-7.683-3.445-7.683-7.688	c0-4.238,3.44-7.681,7.683-7.681C251.84,473.801,255.283,477.243,255.283,481.481 M247.599,496.859c-4.243,0-7.683,3.438-7.683,7.69	c0,4.234,3.44,7.682,7.683,7.682c4.241,0,7.684-3.447,7.684-7.682C255.283,500.298,251.84,496.859,247.599,496.859"/><path fill="#2887C8" d="M287.313,481.481c0,4.243-3.44,7.688-7.681,7.688c-4.243,0-7.684-3.445-7.684-7.688	c0-4.238,3.441-7.681,7.684-7.681C283.872,473.801,287.313,477.243,287.313,481.481 M279.631,496.859	c-4.243,0-7.684,3.438-7.684,7.69c0,4.234,3.441,7.682,7.684,7.682c4.241,0,7.681-3.447,7.681-7.682	C287.313,500.298,283.872,496.859,279.631,496.859"/><path fill="#2887C8" d="M319.342,481.481c0,4.243-3.44,7.688-7.681,7.688c-4.243,0-7.683-3.445-7.683-7.688	c0-4.238,3.44-7.681,7.683-7.681C315.902,473.801,319.342,477.243,319.342,481.481 M311.661,496.859	c-4.243,0-7.683,3.438-7.683,7.69c0,4.234,3.44,7.682,7.683,7.682c4.241,0,7.681-3.447,7.681-7.682	C319.342,500.298,315.902,496.859,311.661,496.859"/><path fill="#2887C8" d="M351.375,481.481c0,4.243-3.443,7.688-7.683,7.688c-4.243,0-7.684-3.445-7.684-7.688	c0-4.238,3.44-7.681,7.684-7.681C347.932,473.801,351.375,477.243,351.375,481.481 M343.691,496.859	c-4.243,0-7.684,3.438-7.684,7.69c0,4.234,3.44,7.682,7.684,7.682c4.24,0,7.683-3.447,7.683-7.682	C351.375,500.298,347.932,496.859,343.691,496.859"/><path fill="#2887C8" d="M383.404,481.481c0,4.243-3.44,7.688-7.683,7.688c-4.241,0-7.684-3.445-7.684-7.688	c0-4.238,3.443-7.681,7.684-7.681C379.964,473.801,383.404,477.243,383.404,481.481 M375.721,496.859	c-4.241,0-7.684,3.438-7.684,7.69c0,4.234,3.443,7.682,7.684,7.682c4.243,0,7.683-3.447,7.683-7.682	C383.404,500.298,379.964,496.859,375.721,496.859"/><path fill="#2887C8" d="M415.435,481.481c0,4.243-3.44,7.688-7.684,7.688c-4.241,0-7.681-3.445-7.681-7.688	c0-4.238,3.439-7.681,7.681-7.681C411.994,473.801,415.435,477.243,415.435,481.481 M407.751,496.859	c-4.241,0-7.681,3.438-7.681,7.69c0,4.234,3.439,7.682,7.681,7.682c4.243,0,7.684-3.447,7.684-7.682	C415.435,500.298,411.994,496.859,407.751,496.859"/><path fill="#FFF" d="M615.402,336.313v82.472c0,4.266-3.454,7.686-7.681,7.686H479.65c-0.076-4.188-3.457-7.563-7.684-7.563	H326.034c-4.225,0-7.608,3.375-7.683,7.563H190.278c-4.225,0-7.683-3.42-7.683-7.686v-82.472c0-4.22,3.458-7.686,7.683-7.686	h417.443C611.948,328.627,615.402,332.092,615.402,336.313"/><path fill="none" stroke="#2887C8" stroke-linecap="round" stroke-linejoin="round" stroke-miterlimit="10" d="M615.402,336.313	v82.472c0,4.266-3.454,7.686-7.681,7.686H479.65c-0.076-4.188-3.457-7.563-7.684-7.563H326.034c-4.225,0-7.608,3.375-7.683,7.563	H190.278c-4.225,0-7.683-3.42-7.683-7.686v-82.472c0-4.22,3.458-7.686,7.683-7.686h417.443	C611.948,328.627,615.402,332.092,615.402,336.313z"/><path fill="#B1D465" d="M593.57,373.703c0,7.219-5.852,13.072-13.071,13.072s-13.071-5.853-13.071-13.072	s5.852-13.072,13.071-13.072S593.57,366.484,593.57,373.703"/><path fill="#0B9D49" d="M589.248,373.703c0,4.833-3.918,8.751-8.751,8.751c-4.831,0-8.747-3.918-8.747-8.751	c0-4.824,3.916-8.747,8.747-8.747C585.33,364.957,589.248,368.879,589.248,373.703"/><path fill="#B1D465" d="M551.29,373.703c0,7.219-5.853,13.072-13.071,13.072c-7.22,0-13.072-5.853-13.072-13.072	s5.853-13.072,13.072-13.072C545.438,360.631,551.29,366.484,551.29,373.703"/><path fill="#0B9D49" d="M546.967,373.703c0,4.833-3.918,8.751-8.75,8.751c-4.831,0-8.747-3.918-8.747-8.751	c0-4.824,3.916-8.747,8.747-8.747C543.049,364.957,546.967,368.879,546.967,373.703"/><path fill="#2887C8" d="M223.253,361.761c0,4.243-3.443,7.681-7.684,7.681c-4.243,0-7.684-3.438-7.684-7.681	c0-4.238,3.44-7.681,7.684-7.681C219.81,354.08,223.253,357.522,223.253,361.761 M215.569,377.142c-4.243,0-7.684,3.438-7.684,7.686	c0,4.238,3.44,7.677,7.684,7.677c4.24,0,7.684-3.438,7.684-7.677C223.253,380.58,219.81,377.142,215.569,377.142"/><path fill="#2887C8" d="M255.283,361.761c0,4.243-3.443,7.681-7.684,7.681c-4.243,0-7.683-3.438-7.683-7.681	c0-4.238,3.44-7.681,7.683-7.681C251.84,354.08,255.283,357.522,255.283,361.761 M247.599,377.142c-4.243,0-7.683,3.438-7.683,7.686	c0,4.238,3.44,7.677,7.683,7.677c4.241,0,7.684-3.438,7.684-7.677C255.283,380.58,251.84,377.142,247.599,377.142"/><path fill="#2887C8" d="M287.313,361.761c0,4.243-3.44,7.681-7.681,7.681c-4.243,0-7.684-3.438-7.684-7.681	c0-4.238,3.441-7.681,7.684-7.681C283.872,354.08,287.313,357.522,287.313,361.761 M279.631,377.142	c-4.243,0-7.684,3.438-7.684,7.686c0,4.238,3.441,7.677,7.684,7.677c4.241,0,7.681-3.438,7.681-7.677	C287.313,380.58,283.872,377.142,279.631,377.142"/><path fill="#2887C8" d="M319.342,361.761c0,4.243-3.44,7.681-7.681,7.681c-4.243,0-7.683-3.438-7.683-7.681	c0-4.238,3.44-7.681,7.683-7.681C315.902,354.08,319.342,357.522,319.342,361.761 M311.661,377.142	c-4.243,0-7.683,3.438-7.683,7.686c0,4.238,3.44,7.677,7.683,7.677c4.241,0,7.681-3.438,7.681-7.677	C319.342,380.58,315.902,377.142,311.661,377.142"/><path fill="#2887C8" d="M351.375,361.761c0,4.243-3.443,7.681-7.683,7.681c-4.243,0-7.684-3.438-7.684-7.681	c0-4.238,3.44-7.681,7.684-7.681C347.932,354.08,351.375,357.522,351.375,361.761 M343.691,377.142	c-4.243,0-7.684,3.438-7.684,7.686c0,4.238,3.44,7.677,7.684,7.677c4.24,0,7.683-3.438,7.683-7.677	C351.375,380.58,347.932,377.142,343.691,377.142"/><path fill="#2887C8" d="M383.404,361.761c0,4.243-3.44,7.681-7.683,7.681c-4.241,0-7.684-3.438-7.684-7.681	c0-4.238,3.443-7.681,7.684-7.681C379.964,354.08,383.404,357.522,383.404,361.761 M375.721,377.142	c-4.241,0-7.684,3.438-7.684,7.686c0,4.238,3.443,7.677,7.684,7.677c4.243,0,7.683-3.438,7.683-7.677	C383.404,380.58,379.964,377.142,375.721,377.142"/><path fill="#2887C8" d="M415.435,361.761c0,4.243-3.44,7.681-7.684,7.681c-4.241,0-7.681-3.438-7.681-7.681	c0-4.238,3.439-7.681,7.681-7.681C411.994,354.08,415.435,357.522,415.435,361.761 M407.751,377.142	c-4.241,0-7.681,3.438-7.681,7.686c0,4.238,3.439,7.677,7.681,7.677c4.243,0,7.684-3.438,7.684-7.677	C415.435,380.58,411.994,377.142,407.751,377.142"/><path fill="#FFF" d="M615.402,216.587v82.477c0,4.266-3.454,7.681-7.681,7.681H479.65c-0.076-4.188-3.457-7.563-7.684-7.563	H326.034c-4.225,0-7.608,3.375-7.683,7.563H190.278c-4.225,0-7.683-3.416-7.683-7.681v-82.477c0-4.22,3.458-7.681,7.683-7.681	h417.443C611.948,208.906,615.402,212.367,615.402,216.587"/><path fill="none" stroke="#2887C8" stroke-linecap="round" stroke-linejoin="round" stroke-miterlimit="10" d="M615.402,216.587	v82.477c0,4.266-3.454,7.681-7.681,7.681H479.65c-0.076-4.188-3.457-7.563-7.684-7.563H326.034c-4.225,0-7.608,3.375-7.683,7.563	H190.278c-4.225,0-7.683-3.416-7.683-7.681v-82.477c0-4.22,3.458-7.681,7.683-7.681h417.443	C611.948,208.906,615.402,212.367,615.402,216.587z"/><path fill="#B1D465" d="M593.57,253.982c0,7.219-5.852,13.072-13.071,13.072s-13.071-5.853-13.071-13.072	s5.852-13.072,13.071-13.072S593.57,246.763,593.57,253.982"/><path fill="#0B9D49" d="M589.248,253.982c0,4.833-3.918,8.747-8.751,8.747c-4.831,0-8.747-3.914-8.747-8.747	c0-4.833,3.916-8.751,8.747-8.751C585.33,245.231,589.248,249.149,589.248,253.982"/><path fill="#B1D465" d="M551.29,253.982c0,7.219-5.853,13.072-13.071,13.072c-7.22,0-13.072-5.853-13.072-13.072	s5.853-13.072,13.072-13.072C545.438,240.911,551.29,246.763,551.29,253.982"/><path fill="#0B9D49" d="M546.967,253.982c0,4.833-3.918,8.747-8.75,8.747c-4.831,0-8.747-3.914-8.747-8.747	c0-4.833,3.916-8.751,8.747-8.751C543.049,245.231,546.967,249.149,546.967,253.982"/><path fill="#2887C8" d="M223.253,242.04c0,4.243-3.443,7.681-7.684,7.681c-4.243,0-7.684-3.438-7.684-7.681	c0-4.238,3.44-7.686,7.684-7.686C219.81,234.354,223.253,237.802,223.253,242.04 M215.569,257.416c-4.243,0-7.684,3.443-7.684,7.69	c0,4.238,3.44,7.677,7.684,7.677c4.24,0,7.684-3.438,7.684-7.677C223.253,260.859,219.81,257.416,215.569,257.416"/><path fill="#2887C8" d="M255.283,242.04c0,4.243-3.443,7.681-7.684,7.681c-4.243,0-7.683-3.438-7.683-7.681	c0-4.238,3.44-7.686,7.683-7.686C251.84,234.354,255.283,237.802,255.283,242.04 M247.599,257.416c-4.243,0-7.683,3.443-7.683,7.69	c0,4.238,3.44,7.677,7.683,7.677c4.241,0,7.684-3.438,7.684-7.677C255.283,260.859,251.84,257.416,247.599,257.416"/><path fill="#2887C8" d="M287.313,242.04c0,4.243-3.44,7.681-7.681,7.681c-4.243,0-7.684-3.438-7.684-7.681	c0-4.238,3.441-7.686,7.684-7.686C283.872,234.354,287.313,237.802,287.313,242.04 M279.631,257.416	c-4.243,0-7.684,3.443-7.684,7.69c0,4.238,3.441,7.677,7.684,7.677c4.241,0,7.681-3.438,7.681-7.677	C287.313,260.859,283.872,257.416,279.631,257.416"/><path fill="#2887C8" d="M319.342,242.04c0,4.243-3.44,7.681-7.681,7.681c-4.243,0-7.683-3.438-7.683-7.681	c0-4.238,3.44-7.686,7.683-7.686C315.902,234.354,319.342,237.802,319.342,242.04 M311.661,257.416c-4.243,0-7.683,3.443-7.683,7.69	c0,4.238,3.44,7.677,7.683,7.677c4.241,0,7.681-3.438,7.681-7.677C319.342,260.859,315.902,257.416,311.661,257.416"/><path fill="#2887C8" d="M351.375,242.04c0,4.243-3.443,7.681-7.683,7.681c-4.243,0-7.684-3.438-7.684-7.681	c0-4.238,3.44-7.686,7.684-7.686C347.932,234.354,351.375,237.802,351.375,242.04 M343.691,257.416c-4.243,0-7.684,3.443-7.684,7.69	c0,4.238,3.44,7.677,7.684,7.677c4.24,0,7.683-3.438,7.683-7.677C351.375,260.859,347.932,257.416,343.691,257.416"/><path fill="#2887C8" d="M383.404,242.04c0,4.243-3.44,7.681-7.683,7.681c-4.241,0-7.684-3.438-7.684-7.681	c0-4.238,3.443-7.686,7.684-7.686C379.964,234.354,383.404,237.802,383.404,242.04 M375.721,257.416	c-4.241,0-7.684,3.443-7.684,7.69c0,4.238,3.443,7.677,7.684,7.677c4.243,0,7.683-3.438,7.683-7.677	C383.404,260.859,379.964,257.416,375.721,257.416"/><path fill="#2887C8" d="M415.435,242.04c0,4.243-3.44,7.681-7.684,7.681c-4.241,0-7.681-3.438-7.681-7.681	c0-4.238,3.439-7.686,7.681-7.686C411.994,234.354,415.435,237.802,415.435,242.04 M407.751,257.416	c-4.241,0-7.681,3.443-7.681,7.69c0,4.238,3.439,7.677,7.681,7.677c4.243,0,7.684-3.438,7.684-7.677	C415.435,260.859,411.994,257.416,407.751,257.416"/><path fill="#FFF" d="M608.769,187.024H189.234c-3.667,0-6.634-2.972-6.634-6.634v-73.924c0-3.667,2.967-6.634,6.634-6.634	h419.535c3.667,0,6.634,2.967,6.634,6.634v73.924C615.402,184.052,612.436,187.024,608.769,187.024"/><path fill="none" stroke="#2887C8" stroke-linecap="round" stroke-linejoin="round" stroke-miterlimit="10" d="M608.769,187.024	H189.234c-3.667,0-6.634-2.972-6.634-6.634v-73.924c0-3.667,2.967-6.634,6.634-6.634h419.535c3.667,0,6.634,2.967,6.634,6.634	v73.924C615.402,184.052,612.436,187.024,608.769,187.024z"/><path fill="#E4F0CC" d="M321.699,168.415h-106.4c-2.453,0-4.462-2.007-4.462-4.455v-39.496c0-2.453,2.01-4.463,4.462-4.463h106.4	c2.453,0,4.462,2.01,4.462,4.463v39.496C326.162,166.408,324.152,168.415,321.699,168.415"/><path fill="#2887C8" d="M318.412,170.354h-99.828c-5.335,0-9.681-4.344-9.681-9.684v-32.919c0-5.338,4.346-9.682,9.681-9.682h99.828	c5.342,0,9.686,4.344,9.686,9.682v32.919C328.098,166.01,323.754,170.354,318.412,170.354 M218.584,121.94	c-3.201,0-5.809,2.608-5.809,5.811v32.919c0,3.205,2.608,5.813,5.809,5.813h99.828c3.207,0,5.811-2.608,5.811-5.813v-32.919	c0-3.203-2.604-5.811-5.811-5.811H218.584z"/><path fill="#0B9D49" d="M229.718,157.41h-3.754c-1.308,0-2.375-1.065-2.375-2.368v-3.758c0-1.303,1.067-2.369,2.375-2.369h3.754	c1.308,0,2.373,1.065,2.373,2.369v3.758C232.091,156.345,231.025,157.41,229.718,157.41"/><path fill="#0B9D49" d="M250.974,157.41h-3.759c-1.303,0-2.37-1.065-2.37-2.368v-21.663c0-1.301,1.067-2.373,2.37-2.373h3.759	c1.308,0,2.37,1.072,2.37,2.373v21.663C253.344,156.345,252.281,157.41,250.974,157.41"/><path fill="#0B9D49" d="M272.229,157.41h-3.753c-1.308,0-2.375-1.065-2.375-2.368v-8.927c0-1.303,1.068-2.371,2.375-2.371h3.753	c1.305,0,2.373,1.067,2.373,2.371v8.927C274.602,156.345,273.534,157.41,272.229,157.41"/><path fill="#0B9D49" d="M314.741,157.41h-3.756c-1.305,0-2.373-1.065-2.373-2.368v-21.663c0-1.301,1.067-2.373,2.373-2.373h3.756	c1.305,0,2.373,1.072,2.373,2.373v21.663C317.113,156.345,316.046,157.41,314.741,157.41"/><path fill="#0B9D49" d="M293.485,157.41h-3.761c-1.3,0-2.368-1.065-2.368-2.368v-21.663c0-1.301,1.068-2.373,2.368-2.373h3.761	c1.305,0,2.368,1.072,2.368,2.373v21.663C295.853,156.345,294.79,157.41,293.485,157.41"/><path fill="#B1D465" d="M415.738,144.213c0,7.219-5.852,13.072-13.071,13.072s-13.072-5.853-13.072-13.072	s5.852-13.072,13.072-13.072S415.738,136.994,415.738,144.213"/><path fill="#0B9D49" d="M411.416,144.213c0,4.831-3.919,8.744-8.752,8.744c-4.83,0-8.744-3.914-8.744-8.744	c0-4.833,3.914-8.751,8.744-8.751C407.497,135.462,411.416,139.38,411.416,144.213"/><path fill="#B1D465" d="M373.458,144.213c0,7.219-5.853,13.072-13.072,13.072s-13.072-5.853-13.072-13.072	s5.853-13.072,13.072-13.072S373.458,136.994,373.458,144.213"/><path fill="#0B9D49" d="M369.135,144.213c0,4.831-3.918,8.744-8.751,8.744c-4.83,0-8.744-3.914-8.744-8.744	c0-4.833,3.914-8.751,8.744-8.751C365.217,135.462,369.135,139.38,369.135,144.213"/><path fill="#2887C8" d="M520.204,160.277h-5.807c-0.745,0-1.349-0.604-1.349-1.342v-31.013c0-0.741,0.604-1.349,1.349-1.349h5.807	c0.739,0,1.347,0.608,1.347,1.349v31.013C521.551,159.673,520.943,160.277,520.204,160.277"/><path fill="#2887C8" d="M552.069,160.277h-5.811c-0.741,0-1.345-0.604-1.345-1.342v-31.013c0-0.741,0.604-1.349,1.345-1.349h5.811	c0.739,0,1.343,0.608,1.343,1.349v31.013C553.412,159.673,552.809,160.277,552.069,160.277"/><path fill="#2887C8" d="M583.936,160.277h-5.812c-0.738,0-1.342-0.604-1.342-1.342v-31.013c0-0.741,0.604-1.349,1.342-1.349h5.812	c0.738,0,1.344,0.608,1.344,1.349v31.013C585.279,159.673,584.674,160.277,583.936,160.277"/><line x1="123.03" x2="678.846" y1="687.801" y2="687.801" fill="none" stroke="#2887C8" stroke-linecap="round" stroke-linejoin="round" stroke-miterlimit="10"/><line x1="712.784" x2="740.573" y1="687.801" y2="687.801" fill="none" stroke="#2887C8" stroke-linecap="round" stroke-linejoin="round" stroke-miterlimit="10"/><line x1="770.887" x2="774" y1="687.801" y2="687.801" fill="none" stroke="#2887C8" stroke-linecap="round" stroke-linejoin="round" stroke-miterlimit="10"/><line x1="89.091" x2="61.299" y1="687.801" y2="687.801" fill="none" stroke="#2887C8" stroke-linecap="round" stroke-linejoin="round" stroke-miterlimit="10"/><line x1="27.114" x2="24" y1="687.801" y2="687.801" fill="none" stroke="#2887C8" stroke-linecap="round" stroke-linejoin="round" stroke-miterlimit="10"/></svg>