<?xml version="1.0" encoding="utf-8"?>
<!-- Generator: Adobe Illustrator 16.0.0, SVG Export Plug-In . SVG Version: 6.00 Build 0)  -->
<!DOCTYPE svg PUBLIC "-//W3C//DTD SVG 1.0//EN" "http://www.w3.org/TR/2001/REC-SVG-20010904/DTD/svg10.dtd">
<svg version="1.0" id="Layer_1" xmlns="http://www.w3.org/2000/svg" x="0px" y="0px"
     width="800px" height="800px" viewBox="0 0 800 800" enable-background="new 0 0 800 800" xml:space="preserve">
<g>
	<path fill="#E4F2FC" d="M421.787,24c-91.03,72.306-191.036,97.696-282.139,104.883v304.177
		C139.648,584.836,421.787,775,421.787,775s282.131-190.164,282.131-341.939V128.883C612.814,121.696,512.801,96.306,421.787,24"/>
</g>
    <g>
	<path fill="#2887C8" d="M626.858,529.672c-0.141,0-0.283-0.04-0.41-0.123c-0.347-0.228-0.443-0.692-0.216-1.038
		c28.214-42.993,36.07-66.631,44.027-111.608V125.449c-111.763-8.585-203.821-41.467-281.38-100.506
		c-77.561,59.042-169.623,91.923-281.389,100.506v53.943c0,0.414-0.336,0.75-0.75,0.75s-0.75-0.336-0.75-0.75v-54.638
		c0-0.392,0.302-0.718,0.693-0.748c112.002-8.493,204.161-41.401,281.74-100.603c0.269-0.205,0.642-0.205,0.91,0
		c77.578,59.2,169.733,92.107,281.732,100.603c0.392,0.03,0.693,0.356,0.693,0.748v292.214c0,0.044-0.004,0.088-0.012,0.131
		c-8.001,45.244-15.891,69.001-44.262,112.233C627.343,529.553,627.103,529.672,626.858,529.672z"/>
</g>
    <g>
	<path fill="#2887C8" d="M599.094,566.254c-0.172,0-0.345-0.059-0.486-0.179c-0.315-0.269-0.354-0.741-0.085-1.058
		c3.575-4.204,6.81-8.104,9.888-11.924c0.261-0.322,0.733-0.372,1.055-0.113c0.322,0.26,0.373,0.732,0.113,1.055
		c-3.086,3.83-6.329,7.74-9.913,11.955C599.517,566.164,599.306,566.254,599.094,566.254z"/>
</g>
    <g>
	<path fill="#2887C8" d="M388.879,746.201c-0.142,0-0.284-0.04-0.408-0.12c-0.706-0.457-71.391-46.434-141.162-109.639
		c-40.993-37.136-73.66-72.869-97.093-106.207c-29.342-41.744-44.219-79.854-44.219-113.27v-64.822c0-0.414,0.336-0.75,0.75-0.75
		s0.75,0.336,0.75,0.75v64.822c0,33.099,14.784,70.915,43.941,112.399c23.367,33.246,55.957,68.894,96.863,105.952
		c66.926,60.63,134.696,105.388,140.577,109.238c7.427-4.865,112.908-74.589,192.004-159.756c0.283-0.304,0.757-0.32,1.061-0.039
		c0.303,0.282,0.32,0.757,0.039,1.061c-81.743,88.015-191.596,159.547-192.696,160.26
		C389.163,746.161,389.021,746.201,388.879,746.201z"/>
</g>
    <g>
	<path fill="#2887C8" d="M106.748,318.923c-0.414,0-0.75-0.336-0.75-0.75v-60.564c0-0.414,0.336-0.75,0.75-0.75
		s0.75,0.336,0.75,0.75v60.564C107.498,318.587,107.162,318.923,106.748,318.923z"/>
</g>
    <g>
	<path fill="#2887C8" d="M106.748,224.388c-0.414,0-0.75-0.336-0.75-0.75V205.78c0-0.414,0.336-0.75,0.75-0.75s0.75,0.336,0.75,0.75
		v17.858C107.498,224.052,107.162,224.388,106.748,224.388z"/>
</g>
    <g>
	<path fill="#FFFFFF" d="M546.531,239.501v144.377H388.879V183.177C439.727,222.006,495.617,235.6,546.531,239.501"/>
</g>
    <g>
	<path fill="#2887C8" d="M546.531,384.628H388.879c-0.414,0-0.75-0.336-0.75-0.75V183.177c0-0.285,0.162-0.546,0.417-0.672
		c0.255-0.126,0.561-0.097,0.788,0.076c43.216,33.002,94.654,51.376,157.254,56.173c0.391,0.03,0.692,0.356,0.692,0.748v144.377
		C547.281,384.292,546.945,384.628,546.531,384.628z M389.629,383.128h156.152V240.196c-62.007-4.856-113.108-23.02-156.152-55.508
		V383.128z"/>
</g>
    <g>
	<path fill="#E4F0CC" d="M546.531,383.871v18.881c0,81.434-157.652,183.516-157.652,183.516V383.871H546.531z"/>
</g>
    <g>
	<path fill="#0B9D49" d="M388.879,587.018c-0.123,0-0.246-0.03-0.358-0.091c-0.241-0.132-0.392-0.385-0.392-0.659V383.871
		c0-0.414,0.336-0.75,0.75-0.75h157.652c0.414,0,0.75,0.336,0.75,0.75v18.881c0,42.341-43,90.178-79.072,122.852
		c-39.007,35.331-78.527,61.038-78.922,61.294C389.164,586.978,389.021,587.018,388.879,587.018z M389.629,384.621v200.256
		c6.803-4.508,42.406-28.529,77.586-60.398c35.842-32.467,78.565-79.939,78.565-121.727v-18.131H389.629z"/>
</g>
    <g>
	<path fill="#FFFFFF" d="M388.886,383.871v202.396c0,0-157.651-102.082-157.651-183.516v-18.881H388.886z"/>
</g>
    <g>
	<path fill="#2887C8" d="M388.886,587.018c-0.142,0-0.284-0.04-0.408-0.12c-0.395-0.256-39.915-25.963-78.921-61.294
		c-36.072-32.674-79.072-80.511-79.072-122.852v-18.881c0-0.414,0.336-0.75,0.75-0.75h157.651c0.414,0,0.75,0.336,0.75,0.75v202.396
		c0,0.274-0.15,0.527-0.392,0.659C389.132,586.987,389.009,587.018,388.886,587.018z M231.985,384.621v18.131
		c0,41.791,42.732,89.27,78.579,121.739c35.181,31.867,70.772,55.88,77.572,60.386V384.621H231.985z"/>
</g>
    <g>
	<path fill="#E4F0CC" d="M388.886,183.177v200.702H231.235V239.501C282.148,235.6,338.033,222.006,388.886,183.177"/>
</g>
    <g>
	<path fill="#0B9D49" d="M388.886,384.628H231.235c-0.414,0-0.75-0.336-0.75-0.75V239.501c0-0.392,0.302-0.718,0.693-0.748
		c62.594-4.796,114.032-23.17,157.253-56.173c0.228-0.173,0.531-0.203,0.788-0.076c0.256,0.126,0.417,0.387,0.417,0.672v200.702
		C389.636,384.292,389.3,384.628,388.886,384.628z M231.985,383.128h156.151V184.688c-43.05,32.489-94.15,50.652-156.151,55.508
		V383.128z"/>
</g>
    <g>
	<path fill="#FFFFFF" d="M282.331,630.125c0,69.129-56.039,125.172-125.169,125.172C88.032,755.297,32,699.254,32,630.125
		c0-69.127,56.032-125.17,125.162-125.17C226.292,504.955,282.331,560.998,282.331,630.125"/>
</g>
    <g>
	<path fill="#2887C8" d="M157.162,756.047c-69.428,0-125.912-56.488-125.912-125.922c0-69.433,56.484-125.92,125.912-125.92
		c69.432,0,125.919,56.487,125.919,125.92C283.081,699.559,226.594,756.047,157.162,756.047z M157.162,505.705
		c-68.601,0-124.412,55.814-124.412,124.42c0,68.606,55.811,124.422,124.412,124.422c68.605,0,124.419-55.815,124.419-124.422
		C281.581,561.52,225.767,505.705,157.162,505.705z"/>
</g>
    <g>
	<path fill="#E4F0CC" d="M245.632,630.125c0,48.861-39.611,88.477-88.47,88.477c-48.866,0-88.47-39.615-88.47-88.477
		c0-48.859,39.604-88.467,88.47-88.467C206.021,541.658,245.632,581.266,245.632,630.125"/>
</g>
    <g>
	<path fill="#0B9D49" d="M217.594,601.896c0,2.082-0.726,3.854-2.185,5.309l-56.45,56.457l-10.604,10.602
		c-1.46,1.455-3.22,2.186-5.303,2.186s-3.857-0.73-5.303-2.186l-10.612-10.602L98.916,635.43c-1.459-1.455-2.186-3.215-2.186-5.303
		c0-2.078,0.726-3.846,2.186-5.301l10.598-10.602c1.452-1.459,3.227-2.186,5.31-2.186c2.068,0,3.843,0.727,5.303,2.186
		l22.926,22.998l51.147-51.238c1.459-1.447,3.234-2.178,5.302-2.178c2.083,0,3.85,0.73,5.31,2.178l10.598,10.613
		C216.868,598.053,217.594,599.828,217.594,601.896"/>
</g>
</svg>
