<?xml version="1.0" encoding="utf-8"?>
<!-- Generator: Adobe Illustrator 16.0.0, SVG Export Plug-In . SVG Version: 6.00 Build 0)  -->
<!DOCTYPE svg PUBLIC "-//W3C//DTD SVG 1.0//EN" "http://www.w3.org/TR/2001/REC-SVG-20010904/DTD/svg10.dtd">
<svg version="1.0" id="Layer_1" xmlns="http://www.w3.org/2000/svg" x="0px" y="0px"
     width="800px" height="800px" viewBox="0 0 800 800" enable-background="new 0 0 800 800" xml:space="preserve">
<g>
	<path fill="#B6DDF5" d="M55.045,176.826c-3.224,0-6.091,1.25-8.181,3.34c-2.09,2.09-3.405,4.955-3.405,8.179
		c0,6.388,5.198,11.578,11.586,11.578h67.153c6.389,0,11.581,5.195,11.581,11.581c0,3.224-1.315,6.089-3.402,8.179
		c-2.09,2.09-5.014,3.408-8.179,3.408H97.603c-3.165,0-6.089,1.31-8.179,3.337c-2.09,2.093-3.402,5.017-3.402,8.182
		c0,6.386,5.192,11.578,11.581,11.578h58.561v-69.362H55.045z M149.478,265.531H31.519c-3.224,0-6.089,1.313-8.173,3.402
		c-2.09,2.09-3.345,4.952-3.345,8.176c0,6.389,5.133,11.581,11.519,11.581h45.252c6.389,0,11.519,5.139,11.519,11.519
		c0,3.167-1.25,6.089-3.34,8.179c-2.09,2.09-4.955,3.408-8.179,3.408H64.35c-3.219,0-6.089,1.31-8.173,3.399
		c-2.09,2.09-3.346,5.009-3.346,8.179c0,6.389,5.133,11.579,11.519,11.579h91.813v-67.275
		C154.312,266.306,151.984,265.531,149.478,265.531 M109.902,504.01c-3.165,0-6.089,1.313-8.182,3.402
		c-2.09,2.09-3.399,4.952-3.399,8.176c0,6.389,5.192,11.581,11.581,11.581h46.262V504.01H109.902z M86.383,549.854
		c-3.165,0-6.091,1.255-8.182,3.346c-2.028,2.084-3.343,4.949-3.343,8.173c0,6.394,5.136,11.584,11.524,11.584h25.371
		c6.386,0,11.578,5.194,11.578,11.581c0,3.224-1.314,6.088-3.399,8.179c-2.092,2.09-4.955,3.401-8.179,3.401H31.94
		c-3.162,0-6.089,1.311-8.179,3.344c-2.09,2.087-3.402,5.011-3.402,8.182c0,6.38,5.195,11.578,11.581,11.578h117.897
		c2.39,0,4.537-0.719,6.327-1.912v-67.455H86.383z M156.164,408.138v69.367H53.549c-6.386,0-11.524-5.192-11.524-11.578
		c0-3.224,1.318-6.092,3.348-8.182c2.09-2.09,5.015-3.343,8.176-3.343h43.1c3.165,0,6.091-1.313,8.182-3.402
		c2.084-2.09,3.399-5.017,3.399-8.179c0-6.386-5.192-11.581-11.581-11.581H86.383c-6.389,0-11.524-5.192-11.524-11.578
		c0-3.164,1.315-6.089,3.343-8.179c2.09-2.03,5.017-3.346,8.182-3.346H156.164z M156.164,246.188v-69.362 M156.164,527.169V504.01
		 M156.164,617.309v-67.455 M156.164,334.953v-67.275"/>
</g>
    <g>
	<path fill="#E4F2FC" d="M691.927,446.361l0.189-98.332v-45.943c-34.921,0-63.24-28.313-63.24-63.24h-35.548H478.814H280.336
		c0,34.927-28.314,63.24-63.243,63.24v19.717v115.07v53.933c34.929,0,63.243,28.314,63.243,63.249h107.612h121.807h119.121
		c0-34.935,28.319-63.249,63.24-63.249L691.927,446.361C691.733,446.375,692.122,446.361,691.927,446.361"/>
</g>
    <g>
	<path fill="#ED2224" d="M668.101,467.19l0.06,1.909c0.06-0.3,0.06-0.597,0.06-0.896C668.22,467.844,668.22,467.484,668.101,467.19
		 M245.885,476.085c0.718,0.475,1.431,0.713,2.265,0.896C247.378,476.682,246.657,476.382,245.885,476.085"/>
</g>
    <g>
	<path fill="#B6DDF5" d="M692.101,314.729c0-4.358-3.047-7.936-7.167-8.776c-0.594-0.116-1.19-0.178-1.787-0.178
		c-27.639-3.937-49.486-25.729-53.606-53.307c-0.121-0.953-0.237-1.909-0.359-2.865v-0.062c-1.074-3.699-4.474-6.386-8.538-6.386
		H288.625c-4.237,0-7.82,2.924-8.716,6.923c-0.059,0.656-0.116,1.377-0.237,2.033v0.119c-3.942,27.698-25.908,49.607-53.606,53.544
		c-0.659,0-1.313,0.063-1.909,0.238c-4.058,0.842-7.044,4.42-7.044,8.716v172.098c0,4.18,2.865,7.703,6.748,8.659
		c0.772,0.063,1.49,0.176,2.206,0.3h0.122c27.577,3.937,49.364,25.725,53.485,53.242c0.121,0.901,0.237,1.736,0.297,2.629
		c0.958,3.878,4.477,6.687,8.595,6.687h332.022c4.178,0,7.758-2.925,8.717-6.924c0.06-0.655,0.116-1.377,0.237-2.033v-0.116
		c3.942-27.579,25.725-49.367,53.247-53.484l2.865-0.362h0.06c3.586-1.01,6.267-4.357,6.326-8.237v-0.654l-0.121-35.877
		l0.184-98.318V314.729z M668.223,333.354v0.122l-0.179,115.508c-0.062,1.013-0.062,2.03,0,3.043v0.358l0.057,14.803
		c0.122,0.3,0.122,0.659,0.122,1.018c0,0.295,0,0.598-0.063,0.892c-0.297,3.108-2.206,5.735-4.833,7.045h-0.06
		c-0.6,0.358-1.196,0.597-1.909,0.718c-0.062,0.057-0.181,0.122-0.3,0.122c-23.103,8.77-41.49,27.218-50.266,50.317
		c0,0.062,0,0.062-0.054,0.121c-0.125,0.719-0.362,1.432-0.781,2.09c-1.434,2.928-4.414,4.955-7.936,4.955H307.189
		c-3.523,0-6.504-1.969-7.936-4.898c-0.359-0.653-0.659-1.371-0.78-2.146c0,0-0.06-0.06-0.06-0.121
		c-8.773-23.038-27.158-41.485-50.202-50.317h-0.062c-0.834-0.182-1.547-0.419-2.265-0.896c-0.063,0.057-0.122,0.057-0.178-0.06
		c-2.808-1.432-4.717-4.418-4.717-7.82V333.354c0-3.524,1.968-6.504,4.896-7.941h0.059c0.538-0.354,1.072-0.538,1.609-0.654
		c23.581-8.837,42.387-27.639,51.157-51.279c0.062-0.475,0.246-0.896,0.483-1.312c1.369-3.046,4.472-5.136,8.057-5.136h294.712
		c3.521,0,6.624,2.09,8.058,5.136c0.237,0.416,0.418,0.837,0.48,1.312c8.771,23.64,27.577,42.441,51.157,51.279
		c0.535,0.116,1.072,0.3,1.609,0.654h0.06c2.865,1.437,4.833,4.36,4.896,7.822V333.354z"/>
</g>
    <g>
	<path fill="#E4F0CC" d="M770,309.366v119.869c-0.237,0-0.476,0.063-0.713,0.063c-1.675,0.053-3.346,0.053-4.955,0.053
		c-4.839,0-8.897,4.059-8.897,8.897c0,4.774,4.059,8.833,8.897,8.833c1.847,0,3.762-0.055,5.668-0.179v39.757
		c0,9.91-8.001,17.905-17.91,17.905h-17.907V291.456h17.907C761.999,291.456,770,299.456,770,309.366"/>
</g>
    <g>
	<path fill="#0B9D49" d="M752.09,505.063h-17.907c-0.276,0-0.5-0.224-0.5-0.5V291.456c0-0.276,0.224-0.5,0.5-0.5h17.907
		c10.151,0,18.41,8.259,18.41,18.41v119.869c0,0.276-0.224,0.5-0.5,0.5c-0.097,0-0.194,0.015-0.291,0.027
		c-0.141,0.019-0.281,0.035-0.422,0.035c-1.667,0.053-3.339,0.053-4.955,0.053c-4.552,0-8.397,3.846-8.397,8.397
		c0,4.517,3.846,8.333,8.397,8.333c1.928,0,3.824-0.06,5.636-0.178c0.138-0.012,0.273,0.04,0.374,0.134
		c0.101,0.095,0.158,0.227,0.158,0.365v39.757C770.5,496.807,762.241,505.063,752.09,505.063z M734.683,504.063h17.407
		c9.6,0,17.41-7.808,17.41-17.405v-39.225c-1.671,0.097-3.406,0.146-5.168,0.146c-5.094,0-9.397-4.274-9.397-9.333
		c0-5.094,4.304-9.397,9.397-9.397c1.608,0,3.272,0,4.939-0.053c0.082,0,0.156-0.008,0.229-0.017V309.366
		c0-9.6-7.811-17.41-17.41-17.41h-17.407V504.063z"/>
</g>
    <g>
	<rect x="750.121" y="313.866" fill="#0B9D49" width="19.879" height="1"/>
</g>
    <g>
	<rect x="750.121" y="330.283" fill="#0B9D49" width="19.879" height="1"/>
</g>
    <g>
	<rect x="750.121" y="346.7" fill="#0B9D49" width="19.879" height="1"/>
</g>
    <g>
	<rect x="750.121" y="363.117" fill="#0B9D49" width="19.879" height="1"/>
</g>
    <g>
	<rect x="750.121" y="379.534" fill="#0B9D49" width="19.879" height="1"/>
</g>
    <g>
	<rect x="750.121" y="395.946" fill="#0B9D49" width="19.879" height="1"/>
</g>
    <g>
	<rect x="750.121" y="412.363" fill="#0B9D49" width="19.879" height="1"/>
</g>
    <g>
	<rect x="750.121" y="465.092" fill="#0B9D49" width="19.879" height="1"/>
</g>
    <g>
	<rect x="750.121" y="480.839" fill="#0B9D49" width="19.879" height="1"/>
</g>
    <g>
	<rect x="733.685" y="291.456" fill="#0B9D49" width="1" height="213.111"/>
</g>
    <g>
	<path fill="#2887C8" d="M495.026,619.386H174.068c-10.148,0-18.405-8.26-18.405-18.413V195.052c0-10.151,8.256-18.41,18.405-18.41
		h53.825c0.276,0,0.5,0.224,0.5,0.5c0,0.345-0.396,0.609-0.694,0.5h-53.631c-9.597,0-17.405,7.81-17.405,17.41v405.921
		c0,9.602,7.808,17.413,17.405,17.413h320.958c0.276,0,0.5,0.224,0.5,0.5S495.303,619.386,495.026,619.386z"/>
</g>
    <g>
	<path fill="#2887C8" d="M245.612,177.677c-0.276,0-0.5-0.191-0.5-0.468s0.224-0.565,0.5-0.565h17.967c0.276,0,0.5,0.224,0.5,0.5
		s-0.224,0.5-0.5,0.5h-17.799C245.727,177.665,245.67,177.677,245.612,177.677z"/>
</g>
    <g>
	<path fill="#2887C8" d="M323.403,177.644h-42.111c-0.276,0-0.5-0.224-0.5-0.5s0.224-0.5,0.5-0.5h42.111c0.276,0,0.5,0.224,0.5,0.5
		S323.68,177.644,323.403,177.644z"/>
</g>
    <g>
	<path fill="#2887C8" d="M752.093,619.38h-81.867c-0.276,0-0.5-0.224-0.5-0.5s0.224-0.5,0.5-0.5h81.867
		c9.597,0,17.404-7.811,17.404-17.41v-65.938h-17.404c-10.15,0-18.408-8.259-18.408-18.41V279.399
		c0-10.15,8.258-18.407,18.408-18.407h17.404v-65.94c0-9.599-7.808-17.408-17.404-17.408H341.117c-0.276,0-0.5-0.224-0.5-0.5
		c0-0.276,0.224-0.5,0.5-0.5h410.976c10.148,0,18.404,8.258,18.404,18.408v66.44c0,0.276-0.224,0.5-0.5,0.5h-17.904
		c-9.599,0-17.408,7.809-17.408,17.407v237.223c0,9.6,7.81,17.41,17.408,17.41h17.904c0.276,0,0.5,0.224,0.5,0.5v66.438
		C770.497,611.121,762.241,619.38,752.093,619.38z"/>
</g>
    <g>
	<line fill="#E4F2FC" x1="590.345" y1="618.88" x2="652.505" y2="618.88"/>
</g>
    <g>
	<path fill="#2887C8" d="M652.505,619.38h-62.16c-0.276,0-0.5-0.224-0.5-0.5s0.224-0.5,0.5-0.5h62.16c0.276,0,0.5,0.224,0.5,0.5
		S652.781,619.38,652.505,619.38z"/>
</g>
    <g>
	<line fill="#E4F2FC" x1="550.05" y1="618.88" x2="572.629" y2="618.88"/>
</g>
    <g>
	<path fill="#2887C8" d="M572.629,619.38H550.05c-0.276,0-0.5-0.224-0.5-0.5s0.224-0.5,0.5-0.5h22.579c0.276,0,0.5,0.224,0.5,0.5
		S572.905,619.38,572.629,619.38z"/>
</g>
    <g>
	<line fill="#E4F2FC" x1="512.741" y1="618.88" x2="532.334" y2="618.88"/>
</g>
    <g>
	<path fill="#2887C8" d="M532.334,619.38h-19.593c-0.276,0-0.5-0.224-0.5-0.5s0.224-0.5,0.5-0.5h19.593c0.276,0,0.5,0.224,0.5,0.5
		S532.61,619.38,532.334,619.38z"/>
</g>
    <g>
	<path fill="#2887C8" d="M692.119,350.104c-0.276,0-0.5-0.224-0.5-0.5v-45.445c-34.75-0.269-62.97-28.489-63.239-63.238h-35.055
		c-0.276,0-0.5-0.224-0.5-0.5s0.224-0.5,0.5-0.5h35.553c0.276,0,0.5,0.224,0.5,0.5c0,34.595,28.146,62.74,62.741,62.74
		c0.276,0,0.5,0.224,0.5,0.5v45.943C692.619,349.88,692.396,350.104,692.119,350.104z"/>
</g>
    <g>
	<line fill="#FFFFFF" x1="692.119" y1="379.149" x2="692.119" y2="364.889"/>
</g>
    <g>
	<path fill="#2887C8" d="M692.119,379.649c-0.276,0-0.5-0.224-0.5-0.5v-14.26c0-0.276,0.224-0.5,0.5-0.5s0.5,0.224,0.5,0.5v14.26
		C692.619,379.425,692.396,379.649,692.119,379.649z"/>
</g>
    <g>
	<path fill="#FFFFFF" d="M691.547,430.258c0.194,0,0.38,0.046,0.569,0.062V396.87"/>
</g>
    <g>
	<path fill="#2887C8" d="M692.116,430.819c-0.014,0-0.027-0.001-0.041-0.002c-0.086-0.007-0.17-0.019-0.255-0.031
		c-0.091-0.014-0.181-0.028-0.273-0.028c-0.276,0-0.5-0.224-0.5-0.5c0-0.3,0.271-0.5,0.569-0.499V396.87c0-0.276,0.224-0.5,0.5-0.5
		s0.5,0.224,0.5,0.5v33.449c0,0.14-0.059,0.273-0.161,0.368C692.362,430.772,692.241,430.819,692.116,430.819z"/>
</g>
    <g>
	<path fill="#2887C8" d="M628.878,556.121h-119.12c-0.276,0-0.5-0.224-0.5-0.5s0.224-0.5,0.5-0.5H628.38
		c0.27-34.748,28.488-62.967,63.236-63.236v-43.409c-0.295,0.002-0.566-0.2-0.566-0.499c0-0.276,0.224-0.5,0.5-0.5
		c0.084,0,0.165-0.014,0.247-0.026c0.096-0.014,0.191-0.027,0.289-0.033c0.143-0.011,0.273,0.041,0.373,0.135
		c0.101,0.095,0.157,0.227,0.157,0.364v44.467c0,0.276-0.224,0.5-0.5,0.5c-34.594,0-62.738,28.145-62.738,62.738
		C629.378,555.897,629.154,556.121,628.878,556.121z"/>
</g>
    <g>
	<line fill="#FFFFFF" x1="445.621" y1="555.621" x2="492.04" y2="555.621"/>
</g>
    <g>
	<path fill="#2887C8" d="M492.04,556.121h-46.419c-0.276,0-0.5-0.224-0.5-0.5s0.224-0.5,0.5-0.5h46.419c0.276,0,0.5,0.224,0.5,0.5
		S492.316,556.121,492.04,556.121z"/>
</g>
    <g>
	<line fill="#FFFFFF" x1="405.664" y1="555.621" x2="427.933" y2="555.621"/>
</g>
    <g>
	<path fill="#2887C8" d="M427.933,556.121h-22.269c-0.276,0-0.5-0.224-0.5-0.5s0.224-0.5,0.5-0.5h22.269c0.276,0,0.5,0.224,0.5,0.5
		S428.209,556.121,427.933,556.121z"/>
</g>
    <g>
	<path fill="#2887C8" d="M387.945,556.123H280.333c-0.276,0-0.5-0.224-0.5-0.5c0-34.595-28.145-62.74-62.74-62.74
		c-0.276,0-0.5-0.224-0.5-0.5v-53.938c0-0.276,0.224-0.5,0.5-0.5s0.5,0.224,0.5,0.5v53.44c34.75,0.27,62.969,28.488,63.238,63.238
		h107.114c0.276,0,0.5,0.224,0.5,0.5S388.222,556.123,387.945,556.123z"/>
</g>
    <g>
	<line fill="#FFFFFF" x1="217.093" y1="400.75" x2="217.093" y2="420.718"/>
</g>
    <g>
	<path fill="#2887C8" d="M217.093,421.218c-0.276,0-0.5-0.224-0.5-0.5V400.75c0-0.276,0.224-0.5,0.5-0.5s0.5,0.224,0.5,0.5v19.968
		C217.593,420.994,217.369,421.218,217.093,421.218z"/>
</g>
    <g>
	<line fill="#FFFFFF" x1="217.093" y1="341.093" x2="217.093" y2="383.032"/>
</g>
    <g>
	<path fill="#2887C8" d="M217.093,383.532c-0.276,0-0.5-0.224-0.5-0.5v-41.939c0-0.276,0.224-0.5,0.5-0.5s0.5,0.224,0.5,0.5v41.939
		C217.593,383.308,217.369,383.532,217.093,383.532z"/>
</g>
    <g>
	<path fill="#2887C8" d="M217.093,323.874c-0.276,0-0.5-0.224-0.5-0.5v-19.716c0-0.276,0.224-0.5,0.5-0.5
		c34.595,0,62.74-28.144,62.74-62.738c0-0.276,0.224-0.5,0.5-0.5h198.481c0.276,0,0.5,0.224,0.5,0.5s-0.224,0.5-0.5,0.5H280.831
		c-0.269,34.748-28.489,62.967-63.238,63.236v19.218C217.593,323.65,217.369,323.874,217.093,323.874z"/>
</g>
    <g>
	<line fill="#FFFFFF" x1="516.892" y1="240.42" x2="496.778" y2="240.42"/>
</g>
    <g>
	<path fill="#2887C8" d="M516.892,240.92h-20.113c-0.276,0-0.5-0.224-0.5-0.5s0.224-0.5,0.5-0.5h20.113c0.276,0,0.5,0.224,0.5,0.5
		S517.168,240.92,516.892,240.92z"/>
</g>
    <g>
	<line fill="#FFFFFF" x1="575.612" y1="240.42" x2="534.451" y2="240.42"/>
</g>
    <g>
	<path fill="#2887C8" d="M575.612,240.92h-41.161c-0.276,0-0.5-0.224-0.5-0.5s0.224-0.5,0.5-0.5h41.161c0.276,0,0.5,0.224,0.5,0.5
		S575.889,240.92,575.612,240.92z"/>
</g>
    <g>
	<path fill="#2887C8" d="M317.68,425.589l13.014-19.163c6.864,6.864,17.447,12.585,30.603,12.585c8.294,0,13.443-2.86,13.443-7.579
		c0-12.585-53.913-2.146-53.913-38.898c0-16.017,13.442-30.317,37.896-30.317c15.301,0,28.601,4.576,38.754,13.299l-13.443,18.448
		c-8.008-6.721-18.447-10.01-27.886-10.01c-7.15,0-10.296,2.431-10.296,6.578c0,11.727,53.913,2.86,53.913,38.326
		c0,19.162-14.158,31.89-39.755,31.89C340.704,440.747,327.261,434.598,317.68,425.589z"/>
        <path fill="#2887C8" d="M404.34,425.589l13.014-19.163c6.863,6.864,17.446,12.585,30.603,12.585c8.294,0,13.442-2.86,13.442-7.579
		c0-12.585-53.912-2.146-53.912-38.898c0-16.017,13.441-30.317,37.896-30.317c15.301,0,28.601,4.576,38.754,13.299l-13.442,18.448
		c-8.009-6.721-18.448-10.01-27.886-10.01c-7.15,0-10.297,2.431-10.297,6.578c0,11.727,53.913,2.86,53.913,38.326
		c0,19.162-14.157,31.89-39.756,31.89C427.363,440.747,413.921,434.598,404.34,425.589z"/>
        <path fill="#2887C8" d="M497.863,439.031v-95.385h40.042c30.031,0,51.625,18.019,51.625,47.621
		c0,29.602-21.594,47.764-51.482,47.764H497.863z M564.361,391.268c0-14.729-8.866-26.17-26.313-26.17H522.46v52.482h15.445
		C554.637,417.58,564.361,405.425,564.361,391.268z"/>
</g>
    <g>
	<path fill="#B6DDF5" d="M245.14,239.297c0,13.271-10.755,24.031-24.032,24.031c-13.271,0-24.034-10.76-24.034-24.031
		c0-13.274,10.763-24.04,24.034-24.04C234.385,215.257,245.14,226.022,245.14,239.297 M216.026,239.297H226.5"/>
</g>
    <g>
	<path fill="#FFFFFF" d="M246.065,245.27c0,10.484-8.5,18.982-18.982,18.982c-10.488,0-18.985-8.498-18.985-18.982
		c0-10.488,8.497-18.985,18.985-18.985C237.565,226.285,246.065,234.782,246.065,245.27 M223.068,245.27h8.271"/>
</g>
    <g>
	<path fill="#2887C8" d="M227.083,264.751c-10.744,0-19.485-8.74-19.485-19.482c0-10.744,8.741-19.485,19.485-19.485
		c10.742,0,19.482,8.741,19.482,19.485C246.565,256.012,237.826,264.751,227.083,264.751z M227.083,226.785
		c-10.192,0-18.485,8.292-18.485,18.485c0,10.191,8.292,18.482,18.485,18.482c10.191,0,18.482-8.291,18.482-18.482
		C245.565,235.077,237.274,226.785,227.083,226.785z M231.339,245.77h-8.271c-0.276,0-0.5-0.224-0.5-0.5s0.224-0.5,0.5-0.5h8.271
		c0.276,0,0.5,0.224,0.5,0.5S231.615,245.77,231.339,245.77z"/>
</g>
    <g>
	<path fill="#B6DDF5" d="M709.595,238.881c0,13.271-10.761,24.037-24.031,24.037c-13.277,0-24.035-10.765-24.035-24.037
		c0-13.274,10.758-24.034,24.035-24.034C698.834,214.847,709.595,225.606,709.595,238.881 M680.481,238.881h10.474"/>
</g>
    <g>
	<path fill="#FFFFFF" d="M710.521,244.854c0,10.485-8.5,18.982-18.984,18.982c-10.485,0-18.985-8.498-18.985-18.982
		c0-10.487,8.5-18.985,18.985-18.985C702.021,225.869,710.521,234.366,710.521,244.854 M687.521,244.854h8.273"/>
</g>
    <g>
	<path fill="#2887C8" d="M691.536,264.336c-10.744,0-19.485-8.74-19.485-19.482c0-10.744,8.741-19.485,19.485-19.485
		s19.484,8.741,19.484,19.485C711.021,255.596,702.28,264.336,691.536,264.336z M691.536,226.369
		c-10.192,0-18.485,8.292-18.485,18.485c0,10.191,8.293,18.482,18.485,18.482s18.484-8.291,18.484-18.482
		C710.021,234.661,701.729,226.369,691.536,226.369z M695.794,245.354h-8.273c-0.276,0-0.5-0.224-0.5-0.5s0.224-0.5,0.5-0.5h8.273
		c0.276,0,0.5,0.224,0.5,0.5S696.07,245.354,695.794,245.354z"/>
</g>
    <g>
	<path fill="#B6DDF5" d="M245.14,549.621c0,13.273-10.755,24.034-24.032,24.034c-13.271,0-24.034-10.761-24.034-24.034
		c0-13.274,10.763-24.037,24.034-24.037C234.385,525.584,245.14,536.347,245.14,549.621 M216.026,549.621H226.5"/>
</g>
    <g>
	<path fill="#FFFFFF" d="M246.065,555.594c0,10.487-8.5,18.987-18.982,18.987c-10.488,0-18.985-8.5-18.985-18.987
		c0-10.482,8.497-18.982,18.985-18.982C237.565,536.611,246.065,545.111,246.065,555.594 M223.068,555.594h8.271"/>
</g>
    <g>
	<path fill="#2887C8" d="M227.083,575.081c-10.744,0-19.485-8.742-19.485-19.487c0-10.742,8.741-19.482,19.485-19.482
		c10.742,0,19.482,8.74,19.482,19.482C246.565,566.339,237.826,575.081,227.083,575.081z M227.083,537.111
		c-10.192,0-18.485,8.291-18.485,18.482c0,10.194,8.292,18.487,18.485,18.487c10.191,0,18.482-8.293,18.482-18.487
		C245.565,545.402,237.274,537.111,227.083,537.111z M231.339,556.094h-8.271c-0.276,0-0.5-0.224-0.5-0.5s0.224-0.5,0.5-0.5h8.271
		c0.276,0,0.5,0.224,0.5,0.5S231.615,556.094,231.339,556.094z"/>
</g>
    <g>
	<path fill="#B6DDF5" d="M709.595,549.205c0,13.273-10.761,24.034-24.031,24.034c-13.277,0-24.035-10.761-24.035-24.034
		c0-13.269,10.758-24.037,24.035-24.037C698.834,525.168,709.595,535.937,709.595,549.205 M680.481,549.205h10.474"/>
</g>
    <g>
	<path fill="#FFFFFF" d="M710.521,555.178c0,10.487-8.5,18.987-18.984,18.987c-10.485,0-18.985-8.5-18.985-18.987
		c0-10.482,8.5-18.982,18.985-18.982C702.021,536.195,710.521,544.695,710.521,555.178 M687.521,555.178h8.273"/>
</g>
    <g>
	<path fill="#2887C8" d="M691.536,574.665c-10.744,0-19.485-8.742-19.485-19.487c0-10.742,8.741-19.482,19.485-19.482
		s19.484,8.74,19.484,19.482C711.021,565.923,702.28,574.665,691.536,574.665z M691.536,536.695
		c-10.192,0-18.485,8.291-18.485,18.482c0,10.194,8.293,18.487,18.485,18.487s18.484-8.293,18.484-18.487
		C710.021,544.986,701.729,536.695,691.536,536.695z M695.794,555.678h-8.273c-0.276,0-0.5-0.224-0.5-0.5s0.224-0.5,0.5-0.5h8.273
		c0.276,0,0.5,0.224,0.5,0.5S696.07,555.678,695.794,555.678z"/>
</g>
</svg>
