<?xml version="1.0" encoding="utf-8"?>
<!-- Generator: Adobe Illustrator 16.0.0, SVG Export Plug-In . SVG Version: 6.00 Build 0)  -->
<!DOCTYPE svg PUBLIC "-//W3C//DTD SVG 1.0//EN" "http://www.w3.org/TR/2001/REC-SVG-20010904/DTD/svg10.dtd">
<svg version="1.0" id="Layer_1" xmlns="http://www.w3.org/2000/svg" x="0px" y="0px"
     width="800px" height="800px" viewBox="0 0 800 800" enable-background="new 0 0 800 800" xml:space="preserve">
<path fill="#2887C8" d="M602.895,369.101c0,27.489-24.229,39.606-37.546,44.139v-27.277c7.436-10.837,12.751-28.198,16.575-49.236
	C592.619,341.752,602.895,351.389,602.895,369.101"/>
    <path fill="#2887C8" d="M539.697,618c1.273,0.141,2.621,0.281,3.897,0.494c0.209,0,0.491,0,0.78,0.07
	C542.883,618.281,541.327,618.141,539.697,618 M440.933,697.994l-23.665-31.182l-2.76-3.683v0.218l26.28,34.646
	c0.353,0.488,0.78,0.847,1.206,1.193C441.642,698.841,441.285,698.411,440.933,697.994"/>
    <path fill="#2887C8" d="M524.536,602.627l-25.647-25.581c-2.413-2.405-6.311-2.829-9.069-0.847l-2.909,1.982v-24.868
	c75.528-36.276,78.361-116.694,78.432-117.683v-7.365c20.551-5.749,51.79-23.457,51.79-59.165c0-25.934-16.081-40.104-33.014-47.042
	c6.024-42.506,7.083-96.355,7.083-144.604c0-49.599-54.266-67.092-86.362-69.716c-21.397-1.707-87.642-4.886-96.426-5.248
	c-3.824-16.649-5.88-34.499-1.63-45.839c0.918-2.551,0.354-5.524-1.559-7.437c-1.982-1.985-4.822-2.694-7.372-1.841
	c-0.78,0.211-17.147,5.81-31.599,15.158c-4.606-5.309-11.69-16.22-10.269-32.449c0.282-2.977-1.421-5.88-4.187-7.154
	c-2.688-1.203-5.944-0.639-8.075,1.556c-0.783,0.783-19.271,20.053-32.943,49.808c-4.113,9.072-7.442,18.212-9.71,27.277
	c-17.994,3.404-76.376,20.9-76.376,105.001c0,41.307,5.171,81.692,10.843,113.996c-18.141,6.381-36.773,20.554-36.773,48.534
	c0,35.99,31.673,53.712,52.291,59.3c3.186,59.586,51.01,100.115,82.395,120.447v33.37l-8.784-6.019
	c-2.833-1.982-6.727-1.559-9.14,0.847l-25.648,25.581c-139.647,2.194-157.57,160.194-157.715,161.824
	c-0.208,2.047,0.427,4.029,1.774,5.524c1.348,1.481,3.26,2.329,5.316,2.329h535.906c2.057,0,3.969-0.848,5.315-2.329
	c1.348-1.495,2.057-3.478,1.842-5.524C682.104,762.821,664.181,604.821,524.536,602.627 M493.008,591.36l18.703,18.709
	l-64.687,72.476l-29.619-38.971l63.204-43.643h0.067l5.313-3.753L493.008,591.36z M602.895,369.101
	c0,27.489-24.229,39.609-37.553,44.142v-27.277c7.442-10.84,12.752-28.198,16.582-49.243
	C592.619,341.756,602.895,351.386,602.895,369.101 M250.554,413.172c-13.178-4.606-37.476-16.864-37.476-44.071
	c0-20.044,13.037-29.61,25.15-34.217c5.316,26.925,10.558,46.26,12.325,52.566V413.172z M250.91,286.417v30.611
	c-0.494,0-0.991,0.07-1.485,0.141c-0.991-5.743-1.982-11.693-2.977-17.92c-0.353-2.486-0.709-5.04-1.065-7.654
	c-3.683-26.004-6.378-55.267-6.378-85.025c0-42.724,16.374-65.533,33.087-77.72c9.499-6.945,19.129-10.417,25.937-12.188
	c-3.901,25.366-0.215,50.022,10.769,72.761c1.203,2.55,3.824,4.112,6.445,4.112c0.991,0,2.057-0.208,3.048-0.709
	c3.615-1.773,5.097-6.024,3.397-9.566c-27.345-56.541,3.548-111.019,21.397-135.467c2.55,10.561,7.654,18.423,11.834,23.383
	c-6.589,6.163-10.558,12.47-11.905,19.059c-0.776,3.972,1.7,7.654,5.669,8.431c3.76,0.783,7.583-1.7,8.356-5.524
	c0.927-4.607,4.896-9.71,11.34-14.738c6.872-5.315,15.302-9.637,22.036-12.678c-2.557,31.804,14.876,75.593,15.729,77.787
	c1.13,2.766,3.75,4.466,6.657,4.466c0.924,0,1.774-0.215,2.627-0.571c3.68-1.411,5.454-5.662,3.962-9.277
	c-1.912-4.821-4.606-12.402-7.228-21.253c17.429,0.921,72.771,3.68,91.611,5.171c0.712,0,73.116,6.375,73.116,55.405
	c0,27.204,0,90.546-6.66,140.427c-0.281,2.402-0.638,4.815-0.99,7.08c-0.421,2.486-0.777,4.818-1.133,7.083
	c-0.854,4.959-1.774,9.64-2.766,14.173v-71.416c0-8.081-2.412-14.6-6.232-19.697c-2.833-3.895-6.445-7.016-10.343-9.493
	c-7.726-4.959-16.583-7.301-22.957-7.866c-1.773-0.145-3.686,0.494-5.104,1.485c0,0-1.059,0.782-3.542,1.844
	c-8.995,4.036-37.126,13.175-107.27,13.175c-90.612,0-115.058-15.158-115.195-15.229c-1.209-0.85-2.621-1.276-4.042-1.276
	C262.032,237.746,252.113,269.203,250.91,286.417 M265.218,422.17v-34.575c0,0.709-0.138,1.347-0.347,1.985v-3.971
	c0.208,0.568,0.282,1.132,0.347,1.704l-0.064-91.894v-8.431c0.064-0.355,2.833-33.087,23.729-34.861
	c8.155,4.325,38.265,16.438,121.012,16.438c79.636,0,108.19-11.404,116.836-16.226c6.519,1.136,24.304,5.813,24.304,22.463v160.611
	c-0.073,0.859-2.486,70.858-68.157,103.939l-0.282,2.836c-0.856-0.359-1.848-0.565-2.839-0.565s-1.986,0.206-2.833,0.565
	c-0.07,0-0.144,0.07-0.208,0.07c-3.266,1.495-6.663,2.829-10.275,3.972c1.344-4.607,2.12-9.072,2.339-12.756
	c0.282-3.965-2.624-7.371-6.519-7.654c-3.831-0.211-7.372,2.695-7.654,6.59c-0.071,0.924-0.921,10.766-6.381,20.762
	c-0.064,0-0.064,0-0.064,0.071c-0.289,0.564-0.571,1.199-0.927,1.7c-0.064,0.064-0.064,0.141-0.138,0.211
	c-6.163,10.131-17.221,19.832-37.201,19.832c-20.752,0-33.222-10.406-40.523-21.031c0-0.077-0.07-0.147-0.144-0.219
	c-0.208-0.281-0.353-0.564-0.564-0.847c-0.709-1.064-1.274-2.053-1.838-3.054c-1.565-2.688-2.765-5.165-3.616-7.43
	c-0.779-1.912-1.418-3.541-1.918-4.966c-0.138-0.424-0.209-0.783-0.347-1.13c-0.145-0.5-0.289-0.924-0.427-1.347
	c-0.074-0.142-0.074-0.282-0.074-0.424c-0.138-0.5-0.282-0.994-0.353-1.347c-0.074-0.283-0.138-0.565-0.211-0.783
	c-0.074-0.205-0.074-0.359-0.074-0.494c-0.071-0.147-0.071-0.212-0.071-0.282c-0.709-3.83-4.388-6.378-8.286-5.665
	c-3.901,0.635-6.522,4.389-5.739,8.289c0.353,1.912,0.847,4.029,1.556,6.236c-3.26-1.988-6.728-4.26-10.487-6.736
	C307.024,513.284,265.218,475.166,265.218,422.17 M321.406,591.36l13.108,9.072l4.748,3.259h0.073l57.671,39.883l-11.623,15.302
	l-17.923,23.669l-64.76-72.476L321.406,591.36z M400.047,758.074H147.609c0.638-3.838,1.703-8.861,3.186-14.744
	c0.356-1.489,0.712-2.978,1.139-4.53c0.497-1.63,0.917-3.259,1.418-4.889c0.42-1.63,0.991-3.33,1.559-5.107
	c2.83-8.776,6.445-18.414,11.193-28.263c0.92-1.988,1.912-3.971,2.977-5.947c2.194-4.26,4.607-8.508,7.292-12.762
	c0.927-1.481,1.848-2.894,2.839-4.389c0.847-1.276,1.768-2.547,2.759-3.895c1.139-1.706,2.412-3.336,3.615-4.966
	c1.63-2.053,3.256-4.042,4.959-6.018c1.348-1.489,2.695-3.042,4.113-4.536c0.208-0.354,0.564-0.636,0.847-0.918
	c1.491-1.559,2.977-3.054,4.533-4.536c3.051-2.977,6.38-5.807,9.849-8.501c1.703-1.348,3.477-2.695,5.315-3.965
	c0.282-0.219,0.565-0.43,0.921-0.642c3.756-2.548,7.725-4.96,11.905-7.225c2.194-1.142,4.395-2.271,6.733-3.337
	c2.259-0.987,4.597-1.976,7.01-2.977c2.477-0.911,4.889-1.765,7.436-2.541c2.413-0.782,4.963-1.494,7.446-2.13
	c0.138-0.063,0.282-0.063,0.353-0.063c2.551-0.648,5.172-1.213,7.866-1.707c0.064-0.07,0.138-0.07,0.282-0.07
	c0.138,0,0.282-0.071,0.42-0.071c1.774-0.359,3.612-0.642,5.386-0.847c1.277-0.219,2.624-0.359,3.897-0.5
	c1.556-0.212,3.122-0.359,4.678-0.494c3.33-0.283,6.727-0.43,10.205-0.501l72.898,81.478c1.347,1.564,3.259,2.412,5.245,2.412h0.282
	c2.201-0.064,4.183-1.129,5.457-2.906l23.665-31.176l2.76-3.683V758.074z M347.763,592.137v-34.576
	c4.818,2.766,8.575,4.607,10.699,5.595c10.063,13.962,26.495,26.075,51.433,26.075c24.731,0,39.959-11.831,48.679-25.574
	c4.89-1.271,9.566-2.766,14.028-4.324v28.77l-65.398,45.207L347.763,592.137z M579.371,758.074h-77.509v-23.669h77.509V758.074z
	 M593.614,758.074v-30.823c0-3.965-3.188-7.16-7.083-7.16h-91.756c-3.962,0-7.156,3.195-7.156,7.16v30.823h-73.256V663.13
	l0.139,0.218v-0.218l2.766,3.683l23.665,31.176c0.356,0.43,0.709,0.853,1.059,1.212c0.427,0.282,0.782,0.629,1.28,0.847
	c0.42,0.283,0.92,0.494,1.414,0.629c0.564,0.154,1.136,0.219,1.701,0.219h0.281c0.428,0,0.921-0.064,1.348-0.142
	c0.501-0.141,0.991-0.282,1.418-0.5c0.921-0.354,1.768-0.918,2.406-1.771l72.908-81.478h0.07c1.418,0,2.833,0.071,4.251,0.147
	c1.065,0,2.124,0.07,3.186,0.135c0.356,0,0.712,0.07,1.065,0.07c0.564,0.078,1.129,0.078,1.703,0.148
	c1.556,0.135,3.111,0.282,4.671,0.494c1.636,0.141,3.191,0.281,4.677,0.564c1.273,0.141,2.551,0.353,3.757,0.642
	c0.282,0,0.564,0.077,0.851,0.141c0.144,0,0.281,0.071,0.426,0.071c0.071-0.071,0.139-0.071,0.209,0.07
	c2.339,0.424,4.678,0.847,7.016,1.424c0.212,0,0.356,0,0.494,0.135c2.412,0.494,4.751,1.129,7.016,1.842
	c2.406,0.705,4.815,1.488,7.084,2.335c2.482,0.854,4.889,1.849,7.16,2.836c2.688,1.206,5.309,2.406,7.93,3.824
	c2.557,1.348,5.107,2.759,7.584,4.324h0.07c2.412,1.489,4.745,3.054,7.016,4.748c0.142,0.07,0.212,0.142,0.356,0.218
	c1.979,1.412,3.824,2.9,5.736,4.453c0.708,0.5,1.347,1.064,2.056,1.707c1.912,1.629,3.824,3.323,5.662,5.171
	c1.986,1.835,3.83,3.747,5.672,5.735c1.065,1.136,2.057,2.266,3.048,3.4c0.847,0.925,1.63,1.849,2.339,2.836
	c1.129,1.277,2.193,2.618,3.188,3.966c0.636,0.782,1.273,1.63,1.838,2.412c1.136,1.553,2.269,3.048,3.33,4.677
	c0.639,0.918,1.276,1.842,1.912,2.83c0.991,1.424,1.912,2.906,2.839,4.466c1.557,2.477,3.041,5.03,4.463,7.647
	c14.878,27.14,21.186,54.484,23.453,67.6H593.614z"/>
    <path fill="#FFFFFF" d="M503.78,122.049c-18.851-1.492-74.182-4.25-91.614-5.174c2.621,8.854,5.316,16.438,7.229,21.253
	c1.484,3.618-0.283,7.869-3.969,9.284c-0.847,0.353-1.7,0.564-2.621,0.564c-2.903,0-5.527-1.697-6.663-4.463
	c-0.847-2.194-18.276-45.983-15.729-77.794c-6.728,3.048-15.164,7.372-22.036,12.685c-6.445,5.027-10.414,10.131-11.334,14.738
	c-0.78,3.824-4.604,6.307-8.363,5.524c-3.962-0.779-6.445-4.465-5.662-8.434c1.347-6.583,5.309-12.89,11.905-19.059
	c-4.187-4.957-9.284-12.819-11.831-23.377c-17.859,24.445-48.752,78.923-21.4,135.464c1.703,3.542,0.211,7.792-3.404,9.566
	c-0.991,0.494-2.056,0.706-3.047,0.706c-2.615,0-5.242-1.559-6.445-4.106c-10.978-22.741-14.664-47.398-10.769-72.764
	c-6.798,1.768-16.438,5.242-25.93,12.188c-16.72,12.187-33.087,34.999-33.087,77.723c0,29.754,2.695,59.018,6.381,85.015
	c0.346,2.621,0.703,5.178,1.055,7.654c0.995,6.233,1.986,12.188,2.977,17.923c0.5-0.067,0.991-0.138,1.492-0.138v-30.611
	c1.203-17.214,11.122-48.678,39.741-48.678c1.421,0,2.839,0.43,4.042,1.283c0.145,0.071,24.586,15.229,115.206,15.229
	c70.14,0,98.268-9.14,107.267-13.179c2.477-1.059,3.541-1.841,3.541-1.841c1.415-0.992,3.333-1.627,5.098-1.492
	c6.381,0.574,15.238,2.913,22.956,7.873c3.897,2.477,7.511,5.598,10.35,9.493c3.823,5.101,6.233,11.616,6.233,19.697v71.416
	c0.994-4.533,1.911-9.21,2.758-14.17c0.356-2.268,0.713-4.606,1.14-7.083c0.353-2.268,0.709-4.677,0.991-7.09
	c6.656-49.878,6.656-113.22,6.656-140.42C576.891,128.424,504.483,122.049,503.78,122.049 M379.855,210.042
	c-1.129,3.968-4.953,5.46-8.713,4.889c-12.043-1.768-22.883-6.519-29.898-16.72c-5.171-7.51,7.154-14.664,12.332-7.157
	c4.745,7.013,13.46,9.001,21.327,10.269C378.652,201.896,380.783,206.645,379.855,210.042 M389.496,178.02
	c-9.566-4.748-17.714-6.872-24.66-15.662c-6.163-7.722-9.775-16.858-13.316-25.927c-3.26-8.572,10.487-12.258,13.672-3.824
	c2.839,7.366,5.88,15.158,10.914,21.32c5.598,6.801,13.104,8.148,20.544,11.834C404.795,169.874,397.641,182.055,389.496,178.02
	 M448.866,193.96c-11.831-1.065-23.31-1.203-33.867-7.157c-8.004-4.533-0.847-16.72,7.153-12.325
	c8.22,4.671,17.577,4.462,26.714,5.239C457.936,180.496,457.936,194.739,448.866,193.96 M457.867,159.387
	c-8.789,0.064-17.502-0.144-26.222-0.638c-9.137-0.498-9.137-14.67,0-14.17c8.72,0.494,17.433,0.709,26.222,0.635
	C466.934,145.144,466.934,159.387,457.867,159.387 M484.93,191.054c-5.033,0.567-9.992,0.285-14.945-0.421
	c-3.904-0.497-5.887-5.318-5.033-8.716c1.129-3.968,4.959-5.46,8.709-4.889c3.687,0.49,7.584,0.355,11.27-0.145
	c3.824-0.427,7.084,3.612,7.084,7.083C492.014,188.15,488.754,190.633,484.93,191.054"/>
    <path fill="#FFFFFF" d="M250.557,387.45v25.722c-13.178-4.609-37.482-16.864-37.482-44.071c0-20.05,13.041-29.616,25.157-34.217
	C243.541,361.802,248.783,381.144,250.557,387.45"/>
    <polygon fill="#FFFFFF" points="397.002,643.574 385.38,658.876 367.46,682.545 302.703,610.063 321.409,591.36 334.517,600.433
	339.262,603.691 339.332,603.691 "/>
    <path fill="#E4F2FC" d="M400.05,663.13v22.886l-17.711,26.646c-4.745,6.795-12.399,11.536-17.358,11.536
	c-4.889,0-14.6-11.536-14.6-11.536l-85.227-93.25c0.138,0,0.282-0.064,0.42-0.064c1.774-0.359,3.616-0.642,5.389-0.847
	c1.274-0.219,2.621-0.359,3.895-0.5c1.56-0.219,3.115-0.354,4.678-0.501c3.327-0.282,6.73-0.423,10.198-0.494l72.908,81.478
	c1.344,1.559,3.256,2.412,5.242,2.412h0.282c2.201-0.07,4.187-1.136,5.46-2.9l23.666-31.176L400.05,663.13z"/>
    <path fill="#FFFFFF" d="M400.05,686.009v72.059H147.612c0.635-3.824,1.7-8.86,3.186-14.737c0.353-1.489,0.709-2.978,1.136-4.53
	c0.494-1.63,0.921-3.259,1.412-4.889c0.5-1.707,0.995-3.4,1.565-5.101c2.833-8.79,6.445-18.421,11.196-28.27
	c0.917-1.982,1.912-3.971,2.977-5.953c2.194-4.254,4.597-8.502,7.292-12.749c0.92-1.495,1.844-2.906,2.839-4.401
	c0.847-1.271,1.764-2.547,2.759-3.889c1.136-1.706,2.409-3.336,3.612-4.966c1.63-2.053,3.259-4.042,4.959-6.018
	c1.348-1.489,2.695-3.048,4.106-4.543c0.218-0.347,0.571-0.629,0.854-0.917c1.485-1.56,2.977-3.041,4.536-4.537
	c3.047-2.977,6.377-5.8,9.848-8.494c1.7-1.348,3.474-2.695,5.313-3.972c0.282-0.212,0.568-0.43,0.921-0.635
	c3.76-2.554,7.728-4.966,11.905-7.225c2.194-1.136,4.389-2.271,6.727-3.337c2.268-0.987,4.607-1.982,7.019-2.977
	c2.403-0.918,4.886-1.765,7.437-2.547c2.409-0.776,4.889-1.482,7.436-2.124c0.144-0.07,0.289-0.07,0.356-0.07
	c2.554-0.636,5.178-1.213,7.863-1.7c0.074-0.077,0.145-0.077,0.289-0.077l85.227,93.243c0,0,9.71,11.543,14.6,11.543
	c4.959,0,12.614-4.741,17.358-11.543L400.05,686.009z"/>
    <polygon fill="#FFFFFF" points="511.711,610.069 447.021,682.545 417.412,643.574 480.605,599.932 480.68,599.932 485.995,596.172
	493.005,591.36 "/>
    <rect x="501.865" y="734.405" fill="#FFFFFF" width="77.506" height="23.669"/>
    <path fill="#FFFFFF" d="M593.614,758.074v-30.823c0-3.965-3.188-7.16-7.083-7.16h-91.756c-3.962,0-7.156,3.195-7.156,7.16v30.823
	h-73.256V663.13l0.139,0.218l26.286,34.641c0.356,0.494,0.783,0.853,1.203,1.212c0.356,0.347,0.782,0.699,1.28,0.847
	c0.42,0.283,0.92,0.494,1.414,0.629c0.564,0.154,1.136,0.219,1.701,0.219h0.281c0.428,0,0.921-0.064,1.348-0.142
	c0.501-0.141,0.991-0.282,1.418-0.5c0.921-0.354,1.768-0.918,2.406-1.771l72.908-81.478h0.07c1.418,0,2.833,0.071,4.251,0.147
	c1.065,0,2.124,0.07,3.186,0.135c0.356,0,0.712,0.07,1.065,0.07c0.564,0.078,1.129,0.078,1.703,0.148
	c1.556,0.135,3.111,0.282,4.671,0.494c1.636,0.141,3.191,0.281,4.677,0.564c1.273,0.141,2.551,0.353,3.757,0.642
	c0.282,0,0.564,0.077,0.851,0.141c0.144,0,0.281,0.071,0.426,0.071c0.071-0.071,0.139-0.071,0.209,0.07
	c2.339,0.424,4.678,0.847,7.016,1.424c0.212,0,0.356,0,0.494,0.135c2.412,0.564,4.751,1.2,7.016,1.842
	c2.406,0.705,4.745,1.488,7.084,2.335c2.482,0.854,4.889,1.849,7.16,2.836c2.688,1.206,5.309,2.477,7.93,3.824
	c2.557,1.348,5.107,2.759,7.584,4.324h0.07c2.412,1.489,4.745,3.054,7.016,4.748c0.142,0.07,0.212,0.142,0.356,0.218
	c1.912,1.412,3.824,2.9,5.736,4.453c0.708,0.5,1.347,1.064,2.056,1.707c1.912,1.629,3.824,3.323,5.662,5.171
	c1.986,1.835,3.83,3.747,5.672,5.735c1.065,1.136,2.057,2.266,3.048,3.4c0.847,0.925,1.63,1.849,2.339,2.836
	c1.129,1.277,2.193,2.618,3.188,3.966c0.636,0.782,1.273,1.63,1.838,2.412c1.136,1.553,2.269,3.048,3.33,4.677
	c0.639,0.918,1.276,1.842,1.912,2.83c0.991,1.424,1.912,2.906,2.839,4.466c1.557,2.477,3.041,5.03,4.463,7.647
	c14.878,27.14,21.186,54.484,23.453,67.6H593.614z"/>
    <path fill="#2887C8" d="M482.874,539.353l-0.282,2.836c-0.848-0.359-1.842-0.565-2.833-0.565s-1.982,0.206-2.836,0.565
	C479.05,541.277,480.962,540.276,482.874,539.353"/>
    <path fill="#2887C8" d="M265.221,387.309v0.286c0,0.709-0.138,1.344-0.353,1.982v-3.968
	C265.083,386.174,265.15,386.745,265.221,387.309"/>
    <path fill="#2887C8" d="M370.546,363.441c-1.572,3.574-5.791,5.216-9.364,3.645c-34.585-15.296-49.092,7.003-49.733,7.93
	c-1.36,2.143-3.718,3.359-6.073,3.359c-1.287,0-2.573-0.356-3.718-1.071c-3.355-2.069-4.434-6.433-2.358-9.717
	c0.218-0.356,21.365-34.014,67.599-13.58C370.546,355.582,372.188,359.794,370.546,363.441"/>
    <path fill="#2887C8" d="M507.961,378.875c-1.143,0.712-2.429,1.001-3.645,1.001c-2.499,0-4.857-1.216-6.144-3.429
	c-15.796-26.511-46.597-11.648-47.876-11.006c-3.574,1.787-7.866,0.356-9.579-3.211c-1.787-3.503-0.282-7.792,3.221-9.579
	c15.142-7.503,48.518-13.717,66.454,16.438C512.461,372.517,511.319,376.874,507.961,378.875"/>
    <path fill="#2887C8" d="M265.221,387.309v0.286c0,0.709-0.138,1.344-0.353,1.982v-3.968
	C265.083,386.174,265.15,386.745,265.221,387.309"/>
    <path fill="#2887C8" d="M389.492,178.02c-9.566-4.745-17.711-6.875-24.656-15.658c-6.163-7.725-9.775-16.865-13.316-25.931
	c-3.26-8.575,10.483-12.261,13.672-3.824c2.835,7.366,5.88,15.164,10.91,21.32c5.598,6.804,13.108,8.151,20.544,11.837
	C404.801,169.871,397.641,182.058,389.492,178.02"/>
    <path fill="#2887C8" d="M457.864,159.384c-8.783,0.074-17.503-0.138-26.212-0.635c-9.141-0.501-9.141-14.67,0-14.173
	c8.709,0.5,17.429,0.709,26.212,0.638C466.934,145.147,466.934,159.384,457.864,159.384"/>
    <path fill="#2887C8" d="M448.866,193.957c-11.831-1.062-23.31-1.2-33.867-7.154c-8.004-4.533-0.851-16.72,7.153-12.325
	c8.22,4.677,17.574,4.462,26.714,5.242C457.932,180.496,457.932,194.739,448.866,193.957"/>
    <path fill="#2887C8" d="M492.014,183.967c0,4.187-3.26,6.663-7.084,7.09c-5.029,0.564-9.992,0.282-14.952-0.427
	c-3.895-0.497-5.88-5.315-5.026-8.71c1.132-3.978,4.956-5.46,8.713-4.895c3.686,0.497,7.584,0.359,11.266-0.138
	C488.754,176.46,492.014,180.499,492.014,183.967"/>
    <path fill="#2887C8" d="M379.858,210.042c-1.135,3.971-4.959,5.46-8.713,4.889c-12.049-1.768-22.889-6.516-29.898-16.72
	c-5.178-7.51,7.154-14.664,12.325-7.154c4.751,7.01,13.461,8.995,21.327,10.269C378.656,201.896,380.779,206.641,379.858,210.042"/>
    <path fill="#FFFFFF" d="M526.378,281.388c-5.315,0-82.684,20.691-118.317,20.691c-35.571,0-120.804-17.15-120.804-17.15
	c-9.566-1.838-17.147,4.325-22.106,10.487l0.07,91.893v34.861c0,52.996,41.807,91.107,71.561,111.588
	c3.756,2.477,7.228,4.748,10.487,6.73c-0.712-2.194-1.203-4.318-1.559-6.23c-0.783-3.9,1.841-7.66,5.736-8.296
	c3.895-0.712,7.581,1.842,8.293,5.665c0,0.077,0,0.142,0.07,0.289c0.074,0.282,0.138,0.635,0.282,1.277
	c0.074,0.346,0.212,0.847,0.356,1.347c0.138,0.564,0.282,1.13,0.491,1.771c0.144,0.354,0.218,0.706,0.356,1.13
	c0.5,1.418,1.136,3.048,1.912,4.96c0.854,2.265,2.056,4.754,3.612,7.436c0.571,0.994,1.139,1.989,1.848,3.054
	c0.208,0.282,0.353,0.565,0.564,0.847c0.071,0.064,0.145,0.142,0.145,0.219c7.292,10.625,19.761,21.038,40.523,21.038
	c19.979,0,31.031-9.708,37.2-19.845c0.063-0.064,0.063-0.135,0.138-0.205c0.215-0.571,0.5-1.207,0.921-1.707
	c0-0.064,0-0.064,0.07-0.064c5.46-9.989,6.307-19.838,6.381-20.762c0.282-3.9,3.823-6.801,7.647-6.583
	c3.895,0.282,6.798,3.677,6.516,7.647c-0.209,3.684-0.991,8.148-2.332,12.756c3.615-1.136,7.01-2.483,10.269-3.965
	c0.074,0,0.145-0.077,0.218-0.077c2.121-0.918,4.033-1.912,5.945-2.836c65.68-33.088,68.093-103.08,68.163-103.939V293.504
	C543.454,286.915,530.131,281.388,526.378,281.388 M311.416,374.984c-1.347,2.194-3.68,3.397-6.018,3.397
	c-1.277,0-2.625-0.35-3.76-1.059c-3.33-2.056-4.395-6.452-2.339-9.71c0.218-0.354,21.397-34.005,67.593-13.599
	c3.686,1.556,5.315,5.806,3.686,9.422c-1.63,3.612-5.81,5.241-9.422,3.679C326.577,351.813,312.125,374.063,311.416,374.984
	 M492.017,434.777c0,0.283-0.073,0.636-0.073,1.065c-0.145,2.342-0.709,7.09-2.054,13.179c-0.285,1.199-0.567,2.406-0.85,3.689
	c-2.265,9.059-6.452,20.325-13.679,30.887c-0.703,1.129-1.486,2.193-2.339,3.259c-1.13,1.56-2.403,3.041-3.751,4.53
	c-0.709,0.782-1.421,1.564-2.193,2.335c-0.928,0.924-1.848,1.848-2.84,2.771c-1.203,1.13-2.477,2.259-3.895,3.323
	c-1.421,1.143-2.906,2.271-4.462,3.26c-1.556,1.065-3.186,2.06-4.889,2.977c-1.063,0.643-2.201,1.207-3.404,1.771
	c-0.564,0.289-1.129,0.57-1.626,0.782c-0.921,0.501-1.774,0.918-2.769,1.206c-0.918,0.424-1.839,0.777-2.759,1.13
	c-1.982,0.782-4.177,1.424-6.378,2.053c-1.203,0.359-2.477,0.642-3.823,0.924c-0.851,0.212-1.704,0.424-2.695,0.565
	c-1.7,0.358-3.396,0.641-5.242,0.859c-2.55,0.346-5.171,0.564-7.865,0.699c-2.057,0.147-4.178,0.282-6.307,0.282
	c-3.26,0-6.59-0.212-9.631-0.494c-1.139-0.07-2.194-0.205-3.26-0.359c-17.855-2.194-32.096-9.136-42.724-20.685
	c-1.065-1.13-2.057-2.336-2.978-3.612c-0.847-1.059-1.629-2.124-2.338-3.188c-0.776-1.13-1.556-2.266-2.268-3.465
	c-0.564-0.86-1.062-1.848-1.482-2.771c-0.574-0.918-0.995-1.836-1.421-2.683c-0.92-1.925-1.774-3.76-2.477-5.749
	c-0.5-1.341-0.991-2.688-1.418-4.035c-1.985-5.736-3.121-11.401-3.76-16.367c-0.138-1.348-0.353-2.618-0.42-3.895
	c-0.145-1.277-0.215-2.483-0.282-3.612c-0.427-6.878-0.071-11.479,0-11.979c0.35-3.677,3.471-6.448,7.153-6.448h144.106
	c1.986,0,3.824,0.783,5.104,2.13c1.348,1.412,2.053,3.26,2.053,5.249C492.017,434.425,492.017,434.566,492.017,434.777
	 M507.957,378.878c-1.139,0.706-2.412,0.995-3.615,0.995c-2.551,0-4.889-1.209-6.162-3.404
	c-15.8-26.569-46.622-11.687-47.896-11.051c-3.542,1.841-7.863,0.356-9.566-3.192c-1.774-3.468-0.282-7.792,3.188-9.56
	c15.161-7.51,48.531-13.75,66.46,16.438C512.49,372.501,511.287,376.896,507.957,378.878"/>
    <path fill="#2887C8" d="M443.246,493.914c0,0,3.365,6.801,12.511,9.227c-1.536,1.052-3.077,2.027-4.751,2.932
	c-3.211,1.79-6.785,3.433-10.57,4.863c-2.005,0.783-4.145,1.425-6.361,2.072c-1.213,0.354-2.503,0.642-3.863,0.931
	c-0.853,0.212-1.713,0.43-2.64,0.571c-1.716,0.359-3.429,0.642-5.29,0.854c-2.502,0.365-5.143,0.57-7.863,0.712
	c-2.068,0.153-4.138,0.218-6.287,0.218c-3.285,0-6.57-0.141-9.646-0.43c-1.143-0.07-2.213-0.212-3.292-0.353
	c-17.792-2.22-32.08-9.149-42.657-20.724c-1.071-1.143-2.069-2.361-3.003-3.574c-0.853-1.071-1.642-2.143-2.357-3.221
	c-0.783-1.143-1.572-2.291-2.217-3.497c-0.571-0.859-1.068-1.79-1.498-2.72c-0.498-0.86-0.998-1.784-1.431-2.708
	c-0.927-1.938-1.787-3.798-2.496-5.723c-0.507-1.36-1.007-2.708-1.434-4.068c-1.931-5.723-3.073-11.356-3.711-16.367
	c-0.145-1.36-0.363-2.649-0.433-3.862c-0.138-1.283-0.212-2.496-0.283-3.638c-0.426-6.865-0.073-11.511,0-12.011
	c0.353-3.645,3.43-6.429,7.141-6.429h144.139c1.924,0,3.785,0.782,5.071,2.143c1.36,1.438,2.069,3.285,2.069,5.217
	c-0.064,0.07-0.064,0.212-0.064,0.43c0,0.282-0.073,0.642-0.073,1.065c-0.145,2.36-0.716,7.083-2.076,13.223
	c-0.282,1.148-0.571,2.367-0.853,3.645c-0.789,3.138-1.912,6.589-3.199,10.125l-14.631-0.822c0.228-0.558,0.51-1.116,0.677-1.655
	c0.433-0.93,0.786-1.931,1.077-2.854c0.564-1.438,0.998-2.785,1.352-4.074c0.073-0.135,0.144-0.354,0.144-0.501
	c0.719-2.432,1.29-4.716,1.717-6.788c0.144-0.789,0.282-1.571,0.427-2.29c0.145-0.924,0.288-1.784,0.433-2.566H347.817
	c0.074,3.138,0.362,7.147,1.071,11.645c0.145,1.29,0.433,2.638,0.715,3.934c0.218,1.142,0.5,2.284,0.789,3.496
	c0.074,0.147,0.074,0.354,0.145,0.501c0.709,2.855,1.716,5.787,2.932,8.643c0.353,0.937,0.779,1.86,1.213,2.797
	c0.856,1.995,1.928,3.856,3.07,5.711c0.715,1.142,1.504,2.36,2.358,3.432c0.927,1.283,1.931,2.573,3.076,3.785
	c10.144,11.146,25.292,16.791,44.944,16.791c1.713,0,3.361-0.07,4.934-0.141c1.498-0.064,2.93-0.142,4.283-0.359
	c1.434-0.07,2.794-0.282,4.147-0.501c0.786-0.063,1.505-0.212,2.284-0.358h0.145c1.434-0.283,2.721-0.565,4.004-0.854
	c3.573-0.854,6.929-1.925,10.076-3.285c1.142-0.43,2.287-1.008,3.358-1.495C442.033,494.671,442.623,494.279,443.246,493.914"/>
    <path fill="#FFFFFF" d="M477.02,441.265c-0.145,0.782-0.282,1.643-0.427,2.566c-0.145,0.719-0.289,1.501-0.433,2.29
	c-0.428,2.072-0.998,4.356-1.717,6.788c0,0.147-0.064,0.359-0.138,0.494c-0.359,1.296-0.786,2.644-1.36,4.081
	c-0.282,0.924-0.642,1.925-1.068,2.854H350.39c-0.283-1.212-0.571-2.354-0.783-3.496c-0.289-1.296-0.571-2.644-0.716-3.934
	c-0.715-4.497-0.998-8.501-1.071-11.645H477.02z"/>
    <path fill="#FFFFFF" d="M472.602,559.332v28.77l-65.392,45.207l-59.447-41.172v-34.576c4.818,2.766,8.575,4.607,10.699,5.602
	c10.063,13.955,26.495,26.068,51.433,26.068c24.731,0,39.959-11.831,48.679-25.574C463.463,562.386,468.14,560.891,472.602,559.332"
    />
    <rect x="501.865" y="705.212" fill="#B1D465" width="77.506" height="14.879"/>
    <path fill="#E4F2FC" d="M466.514,462.592l0.882-2.253H350.396c0.07,0.147,0.07,0.354,0.138,0.501
	c0.716,2.855,1.72,5.787,2.929,8.643c0.362,0.937,0.789,1.86,1.216,2.797c0.86,1.995,1.931,3.85,3.073,5.711
	c0.718,1.142,1.498,2.36,2.361,3.432c0.924,1.29,1.932,2.573,3.067,3.785c10.15,11.146,25.302,16.791,44.954,16.791
	c1.714,0,3.356-0.07,4.935-0.141c1.498-0.064,2.929-0.142,4.282-0.359c1.431-0.07,2.784-0.282,4.145-0.501
	c0.789-0.063,1.498-0.212,2.288-0.347h0.144c1.425-0.295,2.714-0.577,4.001-0.865c3.573-0.854,6.932-1.925,10.079-3.285
	c1.142-0.43,2.287-1.008,3.355-1.495c0.651-0.321,1.241-0.687,1.86-1.026C443.223,493.979,435.174,466.037,466.514,462.592"/>
    <path fill="#ED2224" d="M360.091,533.193c-0.074-0.283-0.138-0.565-0.211-0.783c-0.071-0.212-0.071-0.359-0.071-0.494
	C359.879,532.198,359.953,532.551,360.091,533.193"/>
    <path fill="#ED2224" d="M360.941,536.311c-0.138-0.5-0.283-0.924-0.427-1.347c-0.067-0.142-0.067-0.282-0.067-0.424
	C360.585,535.104,360.729,535.67,360.941,536.311"/>
    <path fill="#E4F2FC" d="M472.602,559.332v17.996c-12.398,10.49-38.967,30.182-65.392,30.182c-24.092,0-46.975-16.291-59.447-27.274
	v-22.675c4.818,2.766,8.575,4.607,10.699,5.602c10.063,13.955,26.495,26.068,51.433,26.068c24.731,0,39.959-11.831,48.679-25.574
	C463.463,562.386,468.14,560.891,472.602,559.332"/>
    <path fill="#ED2224" d="M482.874,539.353l-0.282,2.836c-0.848-0.359-1.842-0.565-2.833-0.565s-1.982,0.206-2.836,0.565
	C479.05,541.277,480.962,540.276,482.874,539.353"/>
    <path fill="#E4F2FC" d="M549.404,619.418l-85.232,93.23c0,0-9.711,11.549-14.6,11.549c-4.953,0-12.607-4.735-17.359-11.549
	l-17.711-26.633V663.13l2.766,3.683l23.665,31.176c0.356,0.43,0.709,0.853,1.065,1.212c0.42,0.282,0.772,0.629,1.273,0.847
	c0.42,0.283,0.92,0.494,1.411,0.629c0.574,0.154,1.139,0.219,1.704,0.219h0.281c0.428,0,0.921-0.064,1.348-0.142
	c0.498-0.077,0.991-0.212,1.418-0.5c0.921-0.354,1.768-0.924,2.412-1.771h0.064l72.908-81.478c1.418,0,2.833,0.071,4.251,0.147
	c1.065,0,2.12,0.07,3.186,0.135c0.356,0,0.709,0.07,1.065,0.07c0.564,0.078,1.135,0.078,1.699,0.148
	c1.56,0.135,3.115,0.282,4.681,0.494c1.274,0.141,2.621,0.281,3.895,0.5c1.485,0.205,3.042,0.417,4.533,0.706
	c0.282,0,0.564,0.077,0.847,0.141C549.119,619.347,549.257,619.418,549.404,619.418"/>
    <path fill="#E4F2FC" d="M551.031,274.798v18.706c-7.58-6.589-20.9-12.113-24.656-12.113c-5.316,0-82.684,20.688-118.318,20.688
	c-35.563,0-120.797-17.146-120.797-17.146c-9.566-1.842-17.146,4.321-22.106,10.483v-8.428c0.071-0.355,2.83-33.087,23.729-34.861
	c8.155,4.321,38.262,16.438,121.019,16.438c79.636,0,108.187-11.404,116.829-16.223
	C533.246,253.475,551.031,258.152,551.031,274.798"/>
    <path fill="#2887C8" d="M571.783,490.411h-67.679c-3.914,0-7.08-3.17-7.08-7.083c0-3.914,3.166-7.084,7.08-7.084h67.679
	c21.693,0,22.87-17.092,22.883-20.518v-56.528c0-3.914,3.166-7.09,7.084-7.09c3.913,0,7.086,3.176,7.086,7.09v56.509
	c0.01,0.52,0.029,14.539-10.019,24.682C592.229,487.036,583.131,490.411,571.783,490.411"/>
    <path fill="#2887C8" d="M495.914,495.352h-32.028c-6.156,0-11.147-4.998-11.147-11.151v-1.745c0-6.159,4.991-11.139,11.147-11.139
	h32.028c6.156,0,11.145,4.979,11.145,11.139v1.745C507.059,490.354,502.07,495.352,495.914,495.352"/>
</svg>
