<svg xmlns="http://www.w3.org/2000/svg" id="Layer_1" width="800" height="800" x="0" y="0" enable-background="new 0 0 800 800" version="1.0" viewBox="0 0 800 800" xml:space="preserve"><g><path fill="#E4F2FC" d="M713.049,370.885c0,173.813-140.905,314.711-314.715,314.711c-173.805,0-314.71-140.898-314.71-314.711 c0-173.809,140.905-314.714,314.71-314.714C572.144,56.171,713.049,197.076,713.049,370.885"/></g><g><path fill="#FFF" d="M611.607,370.885c0,117.783-95.486,213.272-213.27,213.272c-117.79,0-213.275-95.489-213.275-213.272 c0-117.787,95.485-213.266,213.275-213.266C516.121,157.619,611.607,253.098,611.607,370.885"/></g><g><path fill="#2887C8" d="M704.012,296.519c-0.337,0-0.644-0.229-0.728-0.571c-12.777-51.935-38.958-100.167-75.71-139.482 c-0.283-0.303-0.267-0.777,0.036-1.06c0.302-0.282,0.776-0.267,1.06,0.036c36.927,39.502,63.232,87.965,76.071,140.148 c0.099,0.402-0.147,0.809-0.55,0.908C704.132,296.512,704.071,296.519,704.012,296.519z"/></g><g><path fill="#2887C8" d="M663.229,540.628c-0.138,0-0.276-0.038-0.401-0.117c-0.35-0.222-0.453-0.686-0.23-1.035 c36.565-57.52,53.89-126.002,48.78-192.833c-0.031-0.413,0.278-0.773,0.69-0.805c0.414-0.023,0.774,0.278,0.806,0.691 c5.134,67.152-12.271,135.96-49.011,193.751C663.72,540.505,663.477,540.628,663.229,540.628z"/></g><g><path fill="#2887C8" d="M401.415,685.128c-9.14,0-18.289-0.402-27.441-1.209c-0.413-0.036-0.718-0.4-0.681-0.813 c0.036-0.412,0.402-0.716,0.813-0.682c73.85,6.508,147.146-13.333,206.379-55.867c0.338-0.24,0.806-0.164,1.047,0.172 c0.241,0.337,0.164,0.805-0.172,1.047c-29.587,21.245-62.783,36.912-98.667,46.565C456.014,681.52,428.774,685.128,401.415,685.128 z"/></g><g><path fill="#2887C8" d="M320.103,674.385c-0.065,0-0.13-0.008-0.196-0.026c-8.351-2.253-16.681-4.875-24.761-7.795 c-0.39-0.141-0.591-0.57-0.451-0.96s0.569-0.592,0.96-0.45c8.041,2.905,16.331,5.515,24.642,7.758 c0.4,0.107,0.637,0.52,0.529,0.919C320.736,674.165,320.433,674.385,320.103,674.385z"/></g><g><path fill="#2887C8" d="M264.854,653.705c-0.11,0-0.222-0.024-0.328-0.075c-71.791-34.955-129.496-97.179-158.321-170.719 c-0.151-0.386,0.039-0.82,0.424-0.972s0.821,0.038,0.972,0.425c28.689,73.193,86.125,135.125,157.581,169.916 c0.373,0.182,0.527,0.631,0.346,1.003C265.399,653.55,265.132,653.705,264.854,653.705z"/></g><g><path fill="#2887C8" d="M88.493,411.818c-0.371,0-0.693-0.275-0.743-0.652c-6.061-46.308-1.538-94.26,13.081-138.671 c20.087-61.017,59.996-113.842,115.413-152.766c53.342-37.466,118.139-58.993,182.454-60.616c0.391-0.024,0.758,0.316,0.769,0.731 c0.01,0.414-0.317,0.758-0.731,0.769c-134.521,3.394-256.437,90.715-296.479,212.351c-14.549,44.199-19.051,91.921-13.019,138.007 c0.054,0.411-0.236,0.787-0.646,0.841C88.559,411.816,88.525,411.818,88.493,411.818z"/></g><g><path fill="#2887C8" d="M576.864,112.5c-0.146,0-0.294-0.042-0.424-0.132c-37.178-25.534-80.993-42.426-126.709-48.852 c-0.41-0.058-0.696-0.437-0.639-0.847c0.058-0.411,0.445-0.693,0.848-0.638c45.944,6.458,89.98,23.437,127.35,49.101 c0.341,0.234,0.428,0.701,0.193,1.043C577.338,112.386,577.104,112.5,576.864,112.5z"/></g><g><path fill="#2887C8" d="M658.566,98.076c-0.186,0-0.371-0.068-0.517-0.206c-9.396-8.917-19.316-17.432-29.483-25.306 c-0.328-0.253-0.388-0.725-0.134-1.052c0.253-0.327,0.723-0.388,1.052-0.133c10.207,7.904,20.165,16.451,29.599,25.403 c0.3,0.285,0.313,0.76,0.027,1.06C658.963,97.998,658.765,98.076,658.566,98.076z"/></g><g><path fill="#2887C8" d="M744.224,221.221c-0.29,0-0.566-0.169-0.688-0.453c-8.752-20.321-19.311-39.915-31.384-58.235 c-0.229-0.346-0.133-0.811,0.213-1.039c0.349-0.227,0.813-0.131,1.039,0.214c12.122,18.394,22.723,38.064,31.509,58.466 c0.164,0.381-0.012,0.822-0.392,0.986C744.424,221.201,744.323,221.221,744.224,221.221z"/></g><g><path fill="#2887C8" d="M746.339,517c-0.097,0-0.194-0.019-0.289-0.058c-0.382-0.16-0.563-0.6-0.403-0.981 c28.688-68.678,36.231-143.965,21.814-217.723c-0.079-0.407,0.186-0.801,0.593-0.88c0.397-0.085,0.8,0.185,0.88,0.592 c7.138,36.521,8.888,73.839,5.2,110.918c-3.704,37.261-12.823,73.486-27.103,107.671C746.911,516.827,746.632,517,746.339,517z"/></g><g><path fill="#2887C8" d="M410.28,746.692c-0.401,0-0.733-0.318-0.748-0.723c-0.016-0.414,0.308-0.762,0.722-0.777 c114.945-4.189,223.707-60.64,290.938-151.005c0.247-0.332,0.717-0.403,1.049-0.154c0.333,0.247,0.401,0.717,0.154,1.049 c-33.148,44.557-77.754,82.076-128.992,108.503c-50.721,26.16-107.118,41.066-163.094,43.106 C410.299,746.692,410.29,746.692,410.28,746.692z"/></g><g><path fill="#2887C8" d="M311.046,736.952c-0.057,0-0.114-0.006-0.172-0.02c-62.217-14.629-119.988-44.896-167.068-87.531 C101.51,611.1,69.681,564.148,49.202,509.853C29.965,458.85,21.719,402.403,25.356,346.617 c3.664-56.19,19.358-111.575,45.387-160.166c27.662-51.639,65.65-94.417,112.911-127.144c0.339-0.236,0.807-0.151,1.043,0.189 c0.236,0.341,0.151,0.808-0.19,1.044C91.997,124.604,34.534,228.911,26.853,346.714c-7.62,116.869,35.375,226.789,117.96,301.576 c46.893,42.465,104.434,72.611,166.404,87.182c0.403,0.095,0.653,0.499,0.559,0.902 C311.695,736.72,311.387,736.952,311.046,736.952z"/></g><g><path fill="#2887C8" d="M260.984,423.152v-78.298l-17.957,18.28l-13.104-13.75l33.973-34.134h20.06v107.903H260.984z"/></g><g><path fill="#2887C8" d="M409.141,423.152v-49.341c0-7.28-3.236-12.457-11.648-12.457c-7.28,0-13.265,4.853-16.177,9.059v52.738 h-20.707v-49.341c0-7.28-3.235-12.457-11.647-12.457c-7.118,0-13.104,4.853-16.178,9.059v52.738h-20.545v-78.137h20.545v10.03 c3.397-4.529,13.589-11.971,25.561-11.971c11.486,0,18.927,5.339,21.678,14.074c4.529-6.956,14.883-14.074,26.854-14.074 c14.398,0,22.973,7.604,22.973,23.619v56.459H409.141z"/><path fill="#2887C8" d="M448.295,324.309c0-6.794,5.5-12.133,12.133-12.133c6.794,0,12.295,5.338,12.295,12.133 s-5.501,12.295-12.295,12.295C453.795,336.604,448.295,331.103,448.295,324.309z M450.236,423.152v-78.137h20.545v78.137H450.236z"/><path fill="#2887C8" d="M543.902,423.152v-47.238c0-10.839-5.662-14.56-14.397-14.56c-8.089,0-14.236,4.529-17.795,9.059v52.738 h-20.546v-78.137h20.546v10.03c5.015-5.824,14.721-11.971,27.34-11.971c17.31,0,25.56,9.707,25.56,24.913v55.165H543.902z"/></g><g><path fill="#2887C8" d="M153.159,331.12l-35.974-6.308l1.249-6.792l35.903,6.305C153.921,326.612,153.505,328.833,153.159,331.12 M438.015,125.689c2.288,0.345,4.575,0.761,6.862,1.178l6.309-35.903l-6.795-1.245L438.015,125.689z M531.93,153.342l22.799-39.504 l3.537-6.102c1.732-3.117,0.9-6.999-1.939-9.009c-0.21-0.207-0.416-0.345-0.626-0.484c-0.278-0.139-0.484-0.277-0.762-0.277 c0,0,0-0.071-0.067-0.071c-3.121-1.317-6.863-0.135-8.596,2.91l-3.533,6.169l-22.803,39.368l-6.932,12.062 c4.089,2.146,8.038,4.501,11.99,6.931L531.93,153.342z M668.397,518.809l-6.17-3.537l-39.368-22.731v-0.071l-12.058-6.931 c-2.149,4.088-4.505,8.041-6.931,11.99l11.99,6.931l39.507,22.803l6.099,3.533c1.109,0.626,2.287,0.903,3.465,0.903 c2.217,0,4.434-1.109,5.683-3.12c0.139-0.139,0.21-0.206,0.277-0.345c0.071-0.139,0.139-0.21,0.139-0.349 C672.763,524.629,671.585,520.608,668.397,518.809 M554.729,627.898l-22.799-39.508l-6.932-11.99 c-3.952,2.427-7.901,4.785-11.99,6.931l6.932,12.062h0.067l22.735,39.365l3.533,6.169c1.248,2.217,3.604,3.466,5.959,3.466 c0.904,0,1.732-0.139,2.637-0.555c0.277-0.068,0.551-0.274,0.829-0.417c0.139-0.067,0.277-0.135,0.416-0.277 c2.981-1.938,3.952-5.96,2.149-9.147L554.729,627.898z M603.871,244.207c2.426,3.879,4.781,7.899,6.931,11.99l12.058-7.001 l39.368-22.732l6.17-3.536c3.188-1.801,4.365-5.821,2.633-9.077c0-0.142-0.067-0.209-0.139-0.349 c-0.067-0.139-0.139-0.207-0.277-0.348c-1.872-3.046-6.031-4.018-9.147-2.217l-6.099,3.536l-39.507,22.803L603.871,244.207z M664.793,270.198l-34.309,12.474c0.832,2.149,1.665,4.298,2.358,6.515l34.377-12.474L664.793,270.198z M555.216,178.5 c1.801,1.458,3.533,2.914,5.267,4.437l23.566-28.068l-5.269-4.437L555.216,178.5z M555.216,563.232l23.564,28.072l5.269-4.437 l-23.566-28.072C558.749,560.322,557.017,561.777,555.216,563.232 M253.931,106.975l-3.533-6.169 c-1.732-3.045-5.546-4.227-8.663-2.91c-0.071,0-0.139,0.071-0.139,0.071c-0.21,0.068-0.417,0.139-0.623,0.277 c-0.139,0.068-0.277,0.207-0.416,0.346c-2.981,1.939-4.021,5.959-2.149,9.147l3.533,6.102l22.803,39.436l6.931,12.061 c3.881-2.43,7.902-4.785,11.99-6.931l-6.931-12.062L253.931,106.975z M177.901,190.422l28.068,23.564 c1.456-1.8,2.981-3.601,4.437-5.333l-28.069-23.568L177.901,190.422z M156.899,377.762c-0.068-2.285-0.068-4.644-0.068-6.932 c0-2.283,0-4.643,0.068-6.931H90.504c-3.814,0-6.931,3.12-6.931,6.931c0,3.886,3.117,6.932,6.931,6.932H156.899z M297.665,637.322 l6.515,2.427l12.478-34.306c-2.22-0.765-4.366-1.525-6.515-2.43L297.665,637.322z M586.266,533.083l28.069,23.567l4.437-5.34 l-28.068-23.564C589.248,529.55,587.722,531.35,586.266,533.083 M192.802,497.528c-2.426-3.949-4.782-7.902-6.931-11.99 l-12.062,6.931l-39.365,22.803l-6.169,3.537c-3.188,1.8-4.366,5.749-2.704,9.008c0,0.139,0.071,0.278,0.139,0.417 c0.071,0.139,0.139,0.206,0.278,0.345c1.316,2.011,3.537,3.12,5.753,3.12c1.178,0,2.359-0.277,3.465-0.903l6.099-3.533 l39.507-22.803L192.802,497.528z M618.771,190.422l-4.437-5.337l-28.069,23.568c1.456,1.732,2.982,3.533,4.438,5.333 L618.771,190.422z M391.37,612.304v66.397c0,3.811,3.12,6.932,6.931,6.932c3.882,0,6.931-3.121,6.931-6.932v-66.397 c-2.288,0.071-4.644,0.071-6.931,0.071S393.658,612.375,391.37,612.304 M642.336,417.407l35.902,6.309l1.249-6.792l-35.971-6.376 C643.168,412.835,642.752,415.119,642.336,417.407 M664.793,471.537l2.427-6.514l-34.377-12.479 c-0.693,2.221-1.526,4.369-2.358,6.519L664.793,471.537z M129.453,465.023l2.359,6.514l34.376-12.474 c-0.832-2.149-1.665-4.298-2.358-6.519L129.453,465.023z M128.275,222.928l6.169,3.536l39.365,22.732l12.062,7.001 c2.149-4.091,4.504-8.111,6.931-11.99l-12.061-6.931l-39.436-22.803l-6.099-3.536c-3.188-1.801-7.276-0.829-9.218,2.217 c-0.139,0.142-0.207,0.209-0.278,0.348c-0.067,0.139-0.139,0.278-0.139,0.417C123.91,217.174,125.087,221.127,128.275,222.928 M236.12,558.796l-23.564,28.072l5.337,4.437l23.564-28.072C239.653,561.777,237.853,560.322,236.12,558.796 M643.517,331.12 l35.971-6.308l-1.249-6.792l-35.902,6.305C642.752,326.612,643.168,328.833,643.517,331.12 M297.665,104.413l12.478,34.306 c2.149-0.9,4.294-1.662,6.515-2.427l-12.478-34.306L297.665,104.413z M177.901,551.311l4.437,5.34l28.069-23.567 c-1.456-1.733-2.981-3.533-4.437-5.337L177.901,551.311z M241.457,178.5l-23.564-28.069l-5.337,4.437l23.564,28.068 C237.853,181.414,239.653,179.958,241.457,178.5 M398.301,56.104c-3.811,0-6.931,3.117-6.931,6.931v66.398 c2.288-0.071,4.644-0.071,6.931-0.071s4.643,0,6.931,0.071V63.034C405.231,59.22,402.183,56.104,398.301,56.104 M345.49,90.964 l6.305,35.903c2.288-0.417,4.504-0.833,6.792-1.178l-6.308-35.971L345.49,90.964z M480.016,605.373l12.478,34.376l6.515-2.427 l-12.478-34.309C484.381,603.847,482.232,604.679,480.016,605.373 M480.016,136.363c2.217,0.693,4.365,1.522,6.515,2.355 l12.478-34.306l-6.515-2.427L480.016,136.363z M131.812,270.198l-2.359,6.515l34.377,12.474c0.693-2.216,1.526-4.365,2.358-6.515 L131.812,270.198z M438.015,616.047l6.376,35.971l6.795-1.249l-6.309-35.899C442.59,615.285,440.303,615.697,438.015,616.047 M264.743,588.391l-22.803,39.508l-3.533,6.098c-1.942,3.259-0.832,7.415,2.427,9.29c0,0,0.067,0.135,0.139,0.135 c0.277,0.143,0.555,0.349,0.829,0.417c0.833,0.416,1.733,0.555,2.636,0.555c2.355,0,4.711-1.249,5.959-3.466l3.533-6.169 l22.735-39.365h0.067l6.931-12.062c-4.088-2.146-8.109-4.504-11.99-6.931L264.743,588.391z M706.168,363.899h-66.395 c0.068,2.288,0.068,4.647,0.068,6.931c0,2.288,0,4.646-0.068,6.932h66.395c3.814,0,6.932-3.046,6.932-6.932 C713.1,367.02,709.982,363.899,706.168,363.899 M345.49,650.769l6.789,1.249l6.308-35.971c-2.288-0.35-4.504-0.762-6.792-1.178 L345.49,650.769z M153.159,410.548l-35.974,6.376l1.249,6.792l35.903-6.309C153.921,415.119,153.505,412.835,153.159,410.548"/></g><g><path fill="#2887C8" d="M186.653,113.241c-0.414,0-0.75-0.336-0.75-0.75V57.561h-54.934c-0.414,0-0.75-0.336-0.75-0.75 s0.336-0.75,0.75-0.75h55.684c0.414,0,0.75,0.336,0.75,0.75v55.681C187.403,112.905,187.067,113.241,186.653,113.241z"/></g></svg>