<?xml version="1.0" encoding="utf-8"?>
<!-- Generator: Adobe Illustrator 16.0.0, SVG Export Plug-In . SVG Version: 6.00 Build 0)  -->
<!DOCTYPE svg PUBLIC "-//W3C//DTD SVG 1.0//EN" "http://www.w3.org/TR/2001/REC-SVG-20010904/DTD/svg10.dtd">
<svg version="1.0" id="Layer_1" xmlns="http://www.w3.org/2000/svg" x="0px" y="0px"
     width="800px" height="800px" viewBox="0 0 800 800" enable-background="new 0 0 800 800" xml:space="preserve">
<g>
	<path fill="#E4F2FC" d="M773,148.267v145.035c0,12.912-9.966,23.379-22.256,23.379H166.553V148.267
		c0-12.859,10.03-23.379,22.462-23.379h561.523C762.963,124.888,773,135.408,773,148.267"/>
</g>
    <g>
	<path fill="#E4F2FC" d="M756.125,316.685c9.319,0,16.868,9.955,16.868,22.235v375.85c0,12.934-7.535,23.379-16.868,23.379h-23.55
		c-9.341,0-16.875-10.445-16.875-23.379V316.685H756.125z"/>
</g>
    <g>
	<path fill="#B6DDF5" d="M756.125,124.888c9.319,0,16.868,4.528,16.868,10.119V306.04c0,5.889-7.535,10.645-16.868,10.645h-23.55
		c-9.341,0-16.875-4.756-16.875-10.645V124.888H756.125z"/>
</g>
    <g>
	<path fill="#2887C8" d="M749.614,738.902H165.039c-13.309,0-24.136-10.826-24.136-24.133V561.816c0-0.414,0.336-0.75,0.75-0.75
		s0.75,0.336,0.75,0.75V714.77c0,12.479,10.155,22.633,22.636,22.633h584.576c12.478,0,22.629-10.153,22.629-22.633V317.435H142.402
		v57.467c0,0.414-0.336,0.75-0.75,0.75s-0.75-0.336-0.75-0.75v-58.217c0-0.414,0.336-0.75,0.75-0.75h631.341
		c0.414,0,0.75,0.336,0.75,0.75V714.77C773.743,728.076,762.919,738.902,749.614,738.902z"/>
</g>
    <g>
	<path fill="#2887C8" d="M141.652,529.447c-0.414,0-0.75-0.336-0.75-0.75v-63.086c0-0.414,0.336-0.75,0.75-0.75
		s0.75,0.336,0.75,0.75v63.086C142.402,529.111,142.066,529.447,141.652,529.447z"/>
</g>
    <g>
	<path fill="#2887C8" d="M141.652,433.244c-0.414,0-0.75-0.336-0.75-0.75v-24.41c0-0.414,0.336-0.75,0.75-0.75s0.75,0.336,0.75,0.75
		v24.41C142.402,432.908,142.066,433.244,141.652,433.244z"/>
</g>
    <g>
	<path fill="#2887C8" d="M426.271,338.261v0.606c14.953,0,28.594,2.932,40.923,8.791c12.324,5.864,22.531,13.745,30.616,23.644
		c8.283,10.107,14.649,21.726,19.098,34.86c4.442,13.139,6.668,27.387,6.668,42.742c0,15.359-2.226,29.607-6.668,42.741
		c-4.448,13.139-10.814,24.757-19.098,34.86c-8.085,9.903-18.292,17.785-30.616,23.644c-12.532,5.655-26.174,8.487-40.923,8.487
		c-14.754,0-28.395-2.832-40.923-8.487c-12.125-5.858-22.432-13.74-30.919-23.644c-8.487-9.899-14.853-21.622-19.097-35.164
		c-4.244-13.338-6.366-27.584-6.366-42.741c0-15.156,2.122-29.403,6.366-42.741c4.244-13.537,10.61-25.259,19.097-35.164
		c8.488-9.899,18.794-17.78,30.919-23.644C397.673,341.193,411.314,338.261,426.271,338.261z M426.574,379.184l-0.303,0.606
		c-9.094,0-16.975,1.819-23.645,5.456c-6.668,3.638-12.125,8.488-16.369,14.55c-4.448,6.266-7.683,13.542-9.7,21.826
		c-2.022,8.085-3.031,16.976-3.031,26.675c0,8.896,1.108,17.786,3.334,26.676c2.018,8.086,5.252,15.46,9.7,22.129
		c4.04,6.267,9.496,11.216,16.368,14.854c6.67,3.638,14.551,5.457,23.645,5.457s16.976-1.819,23.645-5.457
		c6.868-3.638,12.324-8.587,16.369-14.854c4.443-6.669,7.678-14.043,9.7-22.129c2.222-8.89,3.335-17.885,3.335-26.979
		s-1.113-18.084-3.335-26.979c-2.022-8.283-5.257-15.559-9.7-21.825c-4.244-6.063-9.7-10.913-16.369-14.55
		S435.668,379.184,426.574,379.184z"/>
        <path fill="#2887C8" d="M544.795,341.898h158.84l-0.909,25.463L597.539,554.697h-45.166l72.751-127.922
		c2.018-3.638,5.253-9.094,9.7-16.369c3.23-5.457,6.262-10.307,9.094-14.55c3.638-5.655,5.859-9.094,6.669-10.307l2.729-3.94
		l-0.303-0.303h-3.031h-7.579h-9.7h-9.094h-78.813V341.898z"/>
</g>
    <g>
	<path fill="#2887C8" d="M340.042,561.253h36.043l-0.119,0.239c6.046,0,11.655,0.996,16.828,2.983
		c5.171,1.989,9.746,4.854,13.725,8.593c3.978,3.741,7.081,8.157,9.31,13.248c2.307,5.252,3.461,10.98,3.461,17.186
		c0,6.287-1.115,11.936-3.342,16.947c-2.229,5.014-5.293,9.352-9.189,13.01c-3.741,3.502-8.276,6.287-13.606,8.355
		c-5.173,1.988-10.782,2.982-16.828,2.982h-36.282V561.253z M356.87,629.281h19.692h-0.239c3.5,0,6.803-0.596,9.906-1.789
		s5.848-2.865,8.235-5.014c2.387-2.148,4.297-4.852,5.729-8.115c1.432-3.262,2.148-6.922,2.148-10.98
		c0-4.057-0.717-7.717-2.148-10.979c-1.432-3.262-3.342-6.087-5.729-8.474c-2.387-2.387-5.132-4.178-8.235-5.371
		s-6.406-1.79-9.906-1.79H356.87V629.281z"/>
        <path fill="#2887C8" d="M487.436,644.916l-6.206-15.873h-36.163l-6.205,15.873h-17.902l34.372-83.424h15.635l34.372,83.424H487.436
		z M451.034,614.125h24.706l-8.475-20.887c-0.318-0.794-0.797-2.068-1.432-3.818c-0.16-0.479-0.559-1.75-1.193-3.82l-0.955-2.863
		l-0.358-1.193h-0.119l-0.358,1.074l-0.955,2.863c-0.477,1.593-0.876,2.826-1.193,3.7c-0.637,1.751-1.115,3.024-1.432,3.819
		L451.034,614.125z"/>
        <path fill="#2887C8" d="M560.478,561.253h18.737l-32.463,45.233v38.311h-16.471v-38.311l-32.104-45.233h18.618l17.187,23.989
		c1.829,2.625,2.864,4.059,3.103,4.297c0.955,1.193,1.473,1.79,1.553,1.79h0.119c0.078,0,0.596-0.597,1.551-1.79
		c0.239-0.238,1.272-1.672,3.104-4.297L560.478,561.253z"/>
        <path fill="#2887C8" d="M646.765,582.258l-15.993,4.416h-0.954c-0.478-1.909-1.274-3.699-2.388-5.37
		c-1.035-1.511-2.309-2.823-3.819-3.938c-1.512-1.113-3.144-1.91-4.893-2.387c-1.751-0.478-3.542-0.717-5.371-0.717
		c-3.741,0-6.764,0.836-9.07,2.507c-2.229,1.671-3.342,3.741-3.342,6.206c0,1.593,0.556,3.025,1.671,4.297
		c1.113,1.193,2.585,2.268,4.416,3.223c1.671,0.796,3.819,1.67,6.444,2.625l7.52,2.506c2.545,0.797,5.609,2.029,9.189,3.701
		c3.342,1.512,6.165,3.221,8.474,5.131c2.466,2.07,4.494,4.457,6.087,7.162c1.591,2.785,2.387,6.008,2.387,9.666
		c0,3.82-0.757,7.242-2.268,10.264c-1.512,3.025-3.66,5.689-6.444,7.998c-2.786,2.309-6.128,4.057-10.025,5.25
		c-3.819,1.271-8.157,1.91-13.009,1.91c-8.912,0-16.231-2.227-21.961-6.684c-5.889-4.535-9.946-10.623-12.173-18.26l15.992-4.297
		c0.478,1.99,1.233,3.818,2.268,5.49c1.033,1.83,2.347,3.383,3.938,4.654c1.511,1.273,3.381,2.348,5.609,3.223
		c2.068,0.795,4.455,1.193,7.161,1.193c4.535,0,7.955-0.955,10.265-2.865c2.307-1.908,3.461-4.256,3.461-7.041
		c0-2.227-0.638-4.018-1.91-5.371c-1.273-1.432-2.983-2.664-5.132-3.699c-2.069-1.033-4.535-1.988-7.399-2.865
		c-2.786-0.793-5.65-1.748-8.593-2.863c-1.99-0.637-4.536-1.672-7.639-3.104c-2.706-1.271-5.093-2.744-7.161-4.416
		c-2.148-1.83-3.938-3.979-5.37-6.445c-1.433-2.465-2.148-5.568-2.148-9.309c0-3.342,0.755-6.404,2.268-9.189
		c1.591-2.943,3.738-5.529,6.444-7.758c2.784-2.307,6.007-4.098,9.668-5.371c3.58-1.271,7.638-1.91,12.173-1.91
		c3.819,0,7.52,0.559,11.1,1.672c3.42,1.115,6.523,2.666,9.31,4.654c2.864,2.07,5.21,4.457,7.041,7.16
		C644.575,576.172,645.968,579.155,646.765,582.258z"/>
</g>
    <g>
	<path fill="#FFFFFF" d="M260.319,641.23c0,65.531-53.127,118.658-118.66,118.658C76.113,759.889,23,706.762,23,641.23
		c0-65.533,53.113-118.664,118.659-118.664C207.191,522.566,260.319,575.697,260.319,641.23"/>
</g>
    <g>
	<path fill="#2887C8" d="M141.659,760.639c-65.842,0-119.409-53.566-119.409-119.408c0-65.845,53.567-119.414,119.409-119.414
		c65.843,0,119.41,53.569,119.41,119.414C261.069,707.072,207.502,760.639,141.659,760.639z M141.659,523.316
		c-65.015,0-117.909,52.896-117.909,117.914c0,65.015,52.894,117.908,117.909,117.908c65.016,0,117.91-52.894,117.91-117.908
		C259.569,576.213,206.675,523.316,141.659,523.316z"/>
</g>
    <g>
	<path fill="#E4F0CC" d="M225.531,641.23c0,46.32-37.561,83.875-83.872,83.875c-46.325,0-83.878-37.555-83.878-83.875
		c0-46.326,37.553-83.871,83.878-83.871C187.97,557.359,225.531,594.904,225.531,641.23"/>
</g>
    <g>
	<path fill="#0B9D49" d="M198.945,614.467c0,1.973-0.696,3.646-2.068,5.029l-53.519,53.521l-10.065,10.059
		c-1.372,1.377-3.05,2.068-5.019,2.068c-1.976,0-3.654-0.691-5.025-2.068l-10.059-10.059L86.428,646.26
		c-1.379-1.383-2.068-3.057-2.068-5.029s0.689-3.646,2.068-5.029l10.051-10.051c1.386-1.377,3.063-2.068,5.04-2.068
		c1.955,0,3.64,0.691,5.019,2.068l21.737,21.811l48.5-48.578c1.372-1.375,3.057-2.068,5.019-2.068c1.976,0,3.661,0.693,5.033,2.068
		l10.051,10.059C198.249,610.828,198.945,612.502,198.945,614.467"/>
</g>
    <g>
	<path fill="#2887C8" d="M773.75,317.431H140.909V148.267c0-13.305,10.824-24.129,24.129-24.129h584.576
		c13.309,0,24.136,10.824,24.136,24.129V317.431z M142.409,315.931H772.25V148.267c0-12.478-10.154-22.629-22.636-22.629H165.039
		c-12.478,0-22.629,10.151-22.629,22.629V315.931z"/>
</g>
    <g>
	<path fill="#E4F0CC" d="M303.779,206.001h-4.834c-18.915,0-34.233-15.326-34.233-34.23V66.233C264.712,47.329,280.03,32,298.945,32
		h4.834c18.908,0,34.233,15.329,34.233,34.233v105.538C338.013,190.675,322.688,206.001,303.779,206.001"/>
</g>
    <g>
	<path fill="#0B9D49" d="M303.779,206.751h-4.834c-19.29,0-34.983-15.692-34.983-34.98V66.233c0-19.29,15.693-34.983,34.983-34.983
		h4.834c19.29,0,34.983,15.693,34.983,34.983v105.538C338.763,191.059,323.069,206.751,303.779,206.751z M298.945,32.75
		c-18.463,0-33.483,15.021-33.483,33.483v105.538c0,18.461,15.021,33.48,33.483,33.48h4.834c18.463,0,33.483-15.019,33.483-33.48
		V66.233c0-18.463-15.021-33.483-33.483-33.483H298.945z"/>
</g>
    <g>
	<path fill="#E4F0CC" d="M615.707,206.001h-4.848c-18.901,0-34.234-15.326-34.234-34.23V66.233
		c0-18.904,15.333-34.233,34.234-34.233h4.848c18.908,0,34.227,15.329,34.227,34.233v105.538
		C649.934,190.675,634.615,206.001,615.707,206.001"/>
</g>
    <g>
	<path fill="#0B9D49" d="M615.707,206.751h-4.848c-19.29,0-34.984-15.692-34.984-34.98V66.233c0-19.29,15.694-34.983,34.984-34.983
		h4.848c19.286,0,34.977,15.693,34.977,34.983v105.538C650.684,191.059,634.993,206.751,615.707,206.751z M610.859,32.75
		c-18.463,0-33.484,15.021-33.484,33.483v105.538c0,18.461,15.021,33.48,33.484,33.48h4.848c18.459,0,33.477-15.019,33.477-33.48
		V66.233c0-18.463-15.018-33.483-33.477-33.483H610.859z"/>
</g>
</svg>
