<?xml version="1.0" encoding="utf-8"?>
<!-- Generator: Adobe Illustrator 16.0.0, SVG Export Plug-In . SVG Version: 6.00 Build 0)  -->
<!DOCTYPE svg PUBLIC "-//W3C//DTD SVG 1.1//EN" "http://www.w3.org/Graphics/SVG/1.1/DTD/svg11.dtd">
<svg version="1.1" id="Layer_1" xmlns="http://www.w3.org/2000/svg" x="0px" y="0px"
     width="800px" height="800px" viewBox="0 0 800 800" enable-background="new 0 0 800 800" xml:space="preserve">
<g>
	<g>
		<polygon fill="#E4F0CC"
                 points="374.434,504.637 218.92,774 190.243,666.789 83,695.525 238.514,426.162 		"/>
	</g>
</g>
    <g>
	<g>
		<path fill="#0B9D49" d="M218.92,774.75c-0.033,0-0.065-0.002-0.099-0.007c-0.301-0.039-0.548-0.256-0.626-0.55l-28.483-106.485
			L83.194,696.25c-0.293,0.076-0.604-0.027-0.79-0.268c-0.185-0.241-0.206-0.569-0.054-0.832l155.514-269.363
			c0.099-0.172,0.263-0.298,0.455-0.35c0.192-0.052,0.396-0.024,0.569,0.074l135.92,78.476c0.359,0.207,0.481,0.666,0.274,1.023
			L219.569,774.375C219.435,774.609,219.186,774.75,218.92,774.75z M190.243,666.039c0.13,0,0.26,0.034,0.375,0.101
			c0.172,0.101,0.298,0.265,0.35,0.456l28.209,105.46L373.41,504.911l-134.622-77.726L84.555,694.332l105.494-28.268
			C190.112,666.048,190.178,666.039,190.243,666.039z"/>
	</g>
</g>
    <g>
	<g>
		<polygon fill="#E4F0CC"
                 points="427.641,504.637 583.161,774 611.831,666.789 719.074,695.525 563.561,426.162 		"/>
	</g>
</g>
    <g>
	<g>
		<path fill="#0B9D49" d="M583.161,774.75c-0.266,0-0.516-0.141-0.649-0.375L426.991,505.012c-0.101-0.172-0.127-0.377-0.075-0.568
			s0.178-0.355,0.35-0.455l135.92-78.476c0.173-0.101,0.376-0.125,0.569-0.075c0.192,0.053,0.355,0.179,0.455,0.351l155.438,269.233
			c0.122,0.133,0.196,0.311,0.196,0.505c0,0.414-0.336,0.75-0.75,0.75c-0.007-0.001-0.014-0.001-0.021,0
			c-0.064,0-0.13-0.01-0.194-0.025L612.36,667.709l-28.477,106.485c-0.078,0.294-0.326,0.511-0.627,0.55
			C583.227,774.748,583.193,774.75,583.161,774.75z M428.665,504.911l154.239,267.145l28.202-105.46
			c0.052-0.191,0.177-0.355,0.35-0.456s0.375-0.125,0.569-0.074l105.493,28.268L563.286,427.188L428.665,504.911z"/>
	</g>
</g>
    <g>
	<g>
		<path fill="#FFFFFF" d="M510.065,588.844c-34.126,14.236-81.811-40.094-116.623-40.022c-36.088,0.082-83.595,54.119-116.45,40.606
			c-32.851-13.518-28.593-85.342-54.182-110.785c-24.69-24.547-96.796-19.481-111.029-53.606
			c-14.237-34.137,40.093-81.817,40.012-116.626c-0.071-36.088-54.107-83.591-40.597-116.446
			c13.518-32.858,85.335-28.596,110.779-54.188c24.546-24.683,19.488-96.789,53.614-111.029
			c34.137-14.233,81.809,40.093,116.619,40.022c36.088-0.081,83.598-54.114,116.454-40.596
			c32.857,13.507,28.597,85.332,54.188,110.772c24.685,24.549,96.789,19.484,111.021,53.618
			c14.24,34.126-40.086,81.809-40.015,116.619c0.072,36.092,54.106,83.592,40.597,116.446
			c-13.508,32.858-85.332,28.593-110.772,54.188C539.134,502.498,544.192,574.604,510.065,588.844"/>
	</g>
</g>
    <g>
	<g>
		<path fill="#2887C8" d="M288.453,592.597c-4.235,0-8.219-0.755-11.84-2.244c-18.691-7.69-25.68-33.856-32.439-59.161
			c-5.346-20.014-10.873-40.708-22.067-51.84c-10.572-10.511-29.799-15.441-50.154-20.664
			c-25.994-6.666-52.874-13.562-61.092-33.268c-8.221-19.713,5.79-43.667,19.34-66.834c10.609-18.138,20.629-35.27,20.595-50.175
			c-0.031-15.79-10.848-34.279-21.309-52.159c-13.225-22.604-26.899-45.977-19.212-64.67c7.691-18.696,33.856-25.685,59.159-32.444
			c20.012-5.346,40.705-10.874,51.836-22.069c10.51-10.569,15.443-29.795,20.666-50.149c6.669-25.995,13.566-52.875,33.272-61.098
			c3.907-1.629,8.197-2.455,12.752-2.455c16.817,0,35.761,11.083,54.082,21.8c18.108,10.594,35.212,20.6,50.103,20.6
			c15.851-0.036,34.338-10.85,52.216-21.309C462.392,33.909,481.039,23,497.198,23c4.237,0,8.224,0.756,11.847,2.246
			c18.695,7.686,25.685,33.851,32.444,59.154c5.346,20.011,10.873,40.704,22.067,51.833c10.569,10.512,29.794,15.444,50.146,20.666
			c25.995,6.669,52.874,13.565,61.093,33.277c8.225,19.708-5.788,43.664-19.34,66.832c-10.608,18.136-20.628,35.266-20.598,50.17
			c0.031,15.791,10.849,34.279,21.31,52.16c13.225,22.604,26.898,45.977,19.212,64.668c-7.686,18.695-33.849,25.686-59.151,32.442
			c-20.013,5.346-40.706,10.873-51.837,22.07c-10.513,10.57-15.445,29.798-20.669,50.152c-6.67,25.993-13.566,52.872-33.272,61.095
			c-3.905,1.629-8.195,2.455-12.75,2.455c-16.813,0-35.758-11.082-54.079-21.799c-18.111-10.596-35.219-20.603-50.11-20.603
			c-15.852,0.036-34.34,10.854-52.219,21.313C323.259,581.686,304.612,592.596,288.453,592.597z M287.958,25.368
			c-4.29,0-8.321,0.774-11.982,2.3c-18.787,7.839-25.558,34.229-32.105,59.749c-5.292,20.625-10.29,40.107-21.185,51.062
			c-11.512,11.579-32.47,17.177-52.738,22.591c-24.833,6.633-50.511,13.493-57.826,31.272c-7.31,17.777,6.11,40.716,19.089,62.899
			c10.595,18.109,21.551,36.835,21.583,53.165c0.036,15.449-10.118,32.809-20.868,51.188
			c-13.303,22.744-27.058,46.262-19.221,65.056c7.835,18.785,34.224,25.555,59.744,32.101c20.626,5.29,40.109,10.288,51.067,21.183
			c11.577,11.513,17.175,32.473,22.589,52.741c6.633,24.834,13.492,50.515,31.268,57.828c3.379,1.39,7.106,2.094,11.079,2.094
			c15.617-0.001,34.026-10.771,51.829-21.188c18.108-10.595,36.833-21.551,53.159-21.588c15.503,0,32.838,10.141,51.19,20.876
			c18.091,10.583,36.798,21.524,53.069,21.524c4.289,0,8.32-0.772,11.979-2.301c18.786-7.839,25.559-34.228,32.105-59.746
			c5.293-20.627,10.292-40.108,21.188-51.064c11.512-11.581,32.471-17.18,52.739-22.594c24.831-6.633,50.509-13.49,57.817-31.271
			c7.311-17.777-6.11-40.716-19.088-62.899c-10.596-18.108-21.552-36.835-21.584-53.166c-0.031-15.448,10.122-32.806,20.871-51.184
			c13.304-22.744,27.061-46.263,19.221-65.051c-7.835-18.792-34.225-25.562-59.744-32.109c-20.624-5.292-40.104-10.29-51.061-21.185
			c-11.577-11.51-17.177-32.467-22.591-52.735c-6.633-24.833-13.491-50.512-31.271-57.821C504.856,25.686,501.23,25,497.198,25
			c-15.617,0-34.026,10.77-51.83,21.185c-18.106,10.593-36.83,21.546-53.155,21.583c-15.503,0-32.834-10.139-51.183-20.873
			C322.94,36.311,304.234,25.368,287.958,25.368z"/>
	</g>
</g>
    <g>
	<g>
		<path fill="#E4F2FC" d="M497.059,557.666c-29.432,12.273-73.697-50.279-103.713-50.213c-31.118,0.063-75.17,62.377-103.499,50.723
			c-28.332-11.647-15.79-86.92-37.853-108.865c-21.288-21.161-96.754-7.862-109.032-37.286
			c-12.278-29.428,50.275-73.697,50.212-103.721c-0.063-31.111-62.381-75.163-50.733-103.495
			c11.658-28.329,86.93-15.787,108.874-37.85c21.165-21.288,7.854-96.761,37.286-109.032
			c29.431-12.278,73.701,50.279,103.713,50.212c31.119-0.063,75.17-62.381,103.5-50.73c28.331,11.655,15.79,86.927,37.854,108.87
			c21.285,21.158,96.754,7.858,109.029,37.286c12.277,29.424-50.275,73.702-50.212,103.717
			c0.065,31.115,62.381,75.163,50.732,103.496c-11.658,28.328-86.931,15.789-108.874,37.854
			C513.183,469.914,526.489,545.387,497.059,557.666"/>
	</g>
</g>
    <g>
	<g>
		<path fill="#B6DDF5" d="M574.053,191.445c1.12,0.148,2.216,0.282,3.339,0.43c21.481,2.673,45.834,5.713,50.844,17.724
			c5.012,12.007-9.313,30.604-23.174,48.595c-0.481,0.634-0.957,1.254-1.439,1.881c4.942,0.204,9.422,2.909,12.269,6.632
			c0.031-0.039,0.061-0.081,0.08-0.116c16.252-21.102,33.054-42.914,24.974-62.29c-8.084-19.382-35.408-22.789-61.847-26.092
			c-0.729-0.092-1.458-0.187-2.193-0.278C577.941,182.386,576.909,187.535,574.053,191.445"/>
	</g>
</g>
    <g>
	<g>
		<path fill="#B6DDF5" d="M605.89,358.092c13.49,17.478,27.435,35.553,22.838,46.726c-4.604,11.176-27.223,14.212-49.103,17.14
			c-0.524,0.066-1.028,0.141-1.55,0.211c2.642,3.973,3.613,9.119,2.105,13.602c0.427-0.055,0.846-0.11,1.269-0.168
			c25.754-3.444,52.386-7.02,60.004-25.543c7.559-18.389-8.534-39.459-24.296-59.901c-3.139,3.561-8.246,5.61-13.293,5.294
			C604.541,356.332,605.203,357.205,605.89,358.092"/>
	</g>
</g>
    <g>
	<g>
		<path fill="#B6DDF5" d="M179.972,257.767c-0.071-0.088-0.137-0.176-0.201-0.268c-13.49-17.484-27.435-35.556-22.831-46.729
			c4.597-11.183,27.223-14.212,49.103-17.139c0.606-0.081,1.198-0.166,1.796-0.247c-2.814-3.67-3.762-8.851-2.649-13.532
			c-0.324,0.045-0.648,0.088-0.972,0.13c-25.761,3.448-52.393,7.02-60.011,25.55c-7.64,18.523,8.784,39.811,24.655,60.37
			c0.521,0.669,1.032,1.335,1.542,2.004C171.857,263.304,175.559,259.511,179.972,257.767"/>
	</g>
</g>
    <g>
	<g>
		<path fill="#B6DDF5" d="M294.633,72.389c12.003-5.008,30.607,9.313,48.605,23.169c0.765,0.591,1.515,1.169,2.272,1.754
			c0.786-4.804,3.814-8.989,7.696-11.451c-0.528-0.405-1.046-0.807-1.571-1.205c-21.101-16.258-42.921-33.059-62.304-24.979
			c-19.375,8.087-22.788,35.419-26.085,61.846c-0.028,0.253-0.063,0.507-0.102,0.761c4.635-1.271,9.696,0.599,13.349,4.206
			c0.134-1.092,0.271-2.167,0.409-3.262C279.716,100.693,282.629,77.394,294.633,72.389"/>
	</g>
</g>
    <g>
	<g>
		<path fill="#B6DDF5" d="M520.737,119.881c-0.031-0.236-0.066-0.465-0.096-0.704c-3.455-25.747-7.02-52.368-25.557-60.011
			c-18.53-7.622-39.805,8.795-60.377,24.673c-0.193,0.151-0.395,0.303-0.599,0.454c3.673,3.001,5.843,7.985,5.728,12.962
			c1.098-0.838,2.18-1.666,3.282-2.519c17.477-13.486,35.549-27.438,46.735-22.838c11.176,4.597,14.204,27.23,17.139,49.103
			c0.066,0.49,0.138,0.972,0.201,1.458C511.13,119.631,516.265,118.501,520.737,119.881"/>
	</g>
</g>
    <g>
	<g>
		<path fill="#B6DDF5" d="M209.396,423.858c-0.384-0.051-0.75-0.1-1.134-0.143c-22.535-2.813-45.834-5.719-50.839-17.723
			c-5.015-12.011,9.32-30.615,23.176-48.606c0.497-0.647,0.979-1.281,1.472-1.923c-4.833-0.824-9.271-3.667-11.349-7.826
			c-0.345,0.444-0.69,0.902-1.028,1.346c-16.255,21.107-33.059,42.928-24.982,62.311c8.087,19.369,35.412,22.777,61.842,26.082
			c0.669,0.08,1.342,0.168,2.011,0.254C206.885,433.279,207.079,428.064,209.396,423.858"/>
	</g>
</g>
    <g>
	<g>
		<path fill="#B6DDF5" d="M350.941,531.756c0.807-0.627,1.624-1.25,2.438-1.869c-4.322-1.99-7.668-6.022-8.887-10.539
			c-0.659,0.504-1.3,0.996-1.962,1.508c-17.473,13.49-35.549,27.435-46.721,22.83c-11.172-4.596-14.212-27.223-17.146-49.102
			c-0.123-0.938-0.254-1.846-0.377-2.775c-3.881,2.812-8.996,3.966-13.532,2.67c0.088,0.642,0.18,1.289,0.268,1.937
			c3.448,25.748,7.013,52.379,25.55,60.004C309.095,564.041,330.375,547.631,350.941,531.756"/>
	</g>
</g>
    <g>
	<g>
		<path fill="#B6DDF5" d="M522.414,494.063c0.06-0.459,0.116-0.924,0.173-1.381c-4.305,1.656-9.527,1.138-13.719-1.229
			c-0.035,0.303-0.074,0.604-0.116,0.908c-2.677,21.479-5.72,45.834-17.724,50.842c-12.003,5.006-30.607-9.313-48.604-23.168
			c-0.145-0.117-0.289-0.228-0.434-0.342c-1.392,4.465-5.148,8.194-9.699,9.909c0.574,0.441,1.158,0.89,1.736,1.328
			c21.102,16.252,42.918,33.06,62.304,24.98C515.704,547.824,519.118,520.492,522.414,494.063"/>
	</g>
</g>
    <g>
	<g>
		<path fill="#FFFFFF" d="M463.252,452.959c-82.369,34.361-177.002-4.563-211.364-86.938
			c-34.359-82.371,4.558-177.003,86.934-211.366c82.37-34.358,177.003,4.565,211.364,86.934
			C584.545,323.966,545.622,418.593,463.252,452.959"/>
	</g>
</g>
    <g>
	<g>
		<path fill="#2887C8" d="M447.42,143.241c-8.488-2.356-17.195-4.202-26.162-5.213c-0.281,4.487-0.511,8.975-0.641,13.469
			c8.541,1,16.828,2.811,24.891,5.142C446.146,152.173,446.787,147.707,447.42,143.241"/>
	</g>
</g>
    <g>
	<g>
		<path fill="#2887C8" d="M521.819,206.78c2.927-3.455,6.086-6.688,9.41-9.76c-17.375-20.545-39.482-36.961-64.717-47.37
			l-1.985,13.87C486.868,173.323,506.409,188.275,521.819,206.78"/>
	</g>
</g>
    <g>
	<g>
		<path fill="#2887C8" d="M564.606,259.437c-4.79-16.656-12.005-32.288-21.353-46.425c-3.205,3.117-6.27,6.361-9.091,9.844
			c-0.116,0.137-0.261,0.226-0.384,0.352c7.922,12.532,14.066,26.29,18.182,40.878C556.361,263.05,560.472,261.219,564.606,259.437"
        />
	</g>
</g>
    <g>
	<g>
		<path fill="#2887C8" d="M557.195,373.047c8.988-20.619,14.008-43.354,14.008-67.245c0-0.497-0.053-0.979-0.061-1.479
			c-4.227,1.226-8.799,1.603-13.388,1.536c-0.007,20.756-4.132,40.554-11.55,58.668
			C548.891,368.518,552.853,371.012,557.195,373.047"/>
	</g>
</g>
    <g>
	<g>
		<path fill="#2887C8" d="M532.53,408.847c0.669,0.585,1.334,1.159,2.011,1.737c5.005-6.313,9.622-12.948,13.705-19.947
			c-4.104-1.982-7.999-4.24-11.44-7.044c-3.44,5.921-7.263,11.584-11.426,16.978C527.12,403.982,529.275,406.019,532.53,408.847"/>
	</g>
</g>
    <g>
	<g>
		<path fill="#2887C8" d="M422.878,473.4c19.481-2.388,37.94-8.113,54.805-16.57c-3.258-3.326-5.956-7.035-8.337-11.035
			c-14.42,6.945-30.037,11.75-46.468,13.992V473.4z"/>
	</g>
</g>
    <g>
	<g>
		<path fill="#2887C8" d="M402.337,461.229c-34.637,0-66.65-11.399-92.51-30.639c-3.219,3.271-6.488,6.414-10.035,9.226
			c28.441,21.844,63.987,34.854,102.544,34.854c0.193,0,0.391-0.021,0.585-0.021v-13.435
			C402.729,461.215,402.529,461.229,402.337,461.229"/>
	</g>
</g>
    <g>
	<g>
		<path fill="#2887C8" d="M233.682,311.431c0.482,14.487,2.726,28.537,6.643,41.89c4.565-0.532,8.344-3.455,12.919-3.582
			c-4.083-12.986-5.604-24.116-6.118-38.308H233.682z"/>
	</g>
</g>
    <g>
	<g>
		<path fill="#2887C8" d="M249.503,234.429c-8.252,17.601-13.669,36.786-15.378,57.042h13.511
			c1.694-18.453,6.738-35.93,14.332-51.962C257.949,237.219,253.902,235.588,249.503,234.429"/>
	</g>
</g>
    <g>
	<g>
		<path fill="#2887C8" d="M300.219,171.523c4.899,1.754,2.807,9.827,7.984,10.503c0.159,0.014,0.289,0.074,0.44,0.102
			c25.645-19.548,57.468-31.351,92.065-31.71c0.166-4.487,0.374-8.967,0.642-13.451
			C360.169,137.204,329.389,146.699,300.219,171.523"/>
	</g>
</g>
    <g>
	<g>
		<path fill="#E4F0CC" d="M531.269,305.802c0,70.873-57.455,128.334-128.333,128.334c-70.873,0-128.327-57.461-128.327-128.334
			c0-70.876,57.454-128.33,128.327-128.33C473.813,177.472,531.269,234.926,531.269,305.802"/>
	</g>
</g>
    <g>
	<g>
		<path fill="#2887C8" d="M312.592,175.87c0,3.991-3.233,7.214-7.213,7.214c-3.984,0-7.214-3.223-7.214-7.214
			c0-3.98,3.23-7.213,7.214-7.213C309.358,168.656,312.592,171.89,312.592,175.87"/>
	</g>
</g>
    <g>
	<g>
		<path fill="#2887C8" d="M262.334,236.902c0,3.652-2.958,6.607-6.608,6.607c-3.642,0-6.601-2.955-6.601-6.607
			c0-3.642,2.959-6.597,6.601-6.597C259.376,230.305,262.334,233.26,262.334,236.902"/>
	</g>
</g>
    <g>
	<g>
		<path fill="#2887C8" d="M247.679,289.917c0,3.74-3.033,6.773-6.773,6.773c-3.744,0-6.784-3.033-6.784-6.773
			c0-3.744,3.04-6.776,6.784-6.776C244.646,283.141,247.679,286.173,247.679,289.917"/>
	</g>
</g>
    <g>
	<g>
		<path fill="#2887C8" d="M247.175,312.403c0,3.732-3.022,6.749-6.752,6.749c-3.723,0-6.745-3.016-6.745-6.749
			c0-3.728,3.022-6.748,6.745-6.748C244.153,305.655,247.175,308.676,247.175,312.403"/>
	</g>
</g>
    <g>
	<g>
		<path fill="#2887C8" d="M253.621,352.048c0,3.706-3.008,6.706-6.707,6.706c-3.708,0-6.709-3-6.709-6.706
			c0-3.709,3.001-6.709,6.709-6.709C250.612,345.339,253.621,348.339,253.621,352.048"/>
	</g>
</g>
    <g>
	<g>
		<path fill="#2887C8" d="M312.124,436.074c0,3.697-3.001,6.69-6.696,6.69c-3.702,0-6.702-2.993-6.702-6.69
			c0-3.703,3-6.697,6.702-6.697C309.123,429.377,312.124,432.371,312.124,436.074"/>
	</g>
</g>
    <g>
	<g>
		<path fill="#2887C8" d="M408.754,467.955c0,3.709-3.008,6.711-6.709,6.711c-3.706,0-6.714-3.002-6.714-6.711
			c0-3.705,3.008-6.713,6.714-6.713C405.746,461.242,408.754,464.25,408.754,467.955"/>
	</g>
</g>
    <g>
	<g>
		<path fill="#2887C8" d="M430.553,466.652c0,3.733-3.021,6.748-6.745,6.748c-3.729,0-6.751-3.015-6.751-6.748
			c0-3.728,3.021-6.748,6.751-6.748C427.531,459.904,430.553,462.926,430.553,466.652"/>
	</g>
</g>
    <g>
	<g>
		<path fill="#2887C8" d="M480.105,451.459c0,3.732-3.021,6.762-6.753,6.762c-3.726,0-6.752-3.028-6.752-6.762
			c0-3.727,3.026-6.75,6.752-6.75C477.084,444.709,480.105,447.732,480.105,451.459"/>
	</g>
</g>
    <g>
	<g>
		<path fill="#2887C8" d="M536.767,405.719c0,3.748-3.046,6.787-6.789,6.787c-3.747,0-6.795-3.039-6.795-6.787
			c0-3.75,3.048-6.791,6.795-6.791C533.721,398.928,536.767,401.969,536.767,405.719"/>
	</g>
</g>
    <g>
	<g>
		<path fill="#2887C8" d="M548.992,387.34c0,3.646-2.954,6.602-6.607,6.602c-3.642,0-6.601-2.955-6.601-6.602
			c0-3.642,2.959-6.604,6.601-6.604C546.038,380.736,548.992,383.699,548.992,387.34"/>
	</g>
</g>
    <g>
	<g>
		<path fill="#2887C8" d="M558.295,368.891c0,3.643-2.952,6.602-6.601,6.602c-3.636,0-6.595-2.958-6.595-6.602
			c0-3.642,2.959-6.593,6.595-6.593C555.343,362.298,558.295,365.25,558.295,368.891"/>
	</g>
</g>
    <g>
	<g>
		<path fill="#2887C8" d="M571.098,305.344c0,3.586-2.904,6.495-6.49,6.495c-3.587,0-6.491-2.909-6.491-6.495
			c0-3.582,2.904-6.486,6.491-6.486C568.193,298.857,571.098,301.762,571.098,305.344"/>
	</g>
</g>
    <g>
	<g>
		<path fill="#2887C8" d="M564.856,262.064c0,3.586-2.909,6.495-6.491,6.495c-3.586,0-6.495-2.909-6.495-6.495
			c0-3.582,2.909-6.487,6.495-6.487C561.947,255.577,564.856,258.482,564.856,262.064"/>
	</g>
</g>
    <g>
	<g>
		<path fill="#2887C8" d="M544.942,218.249c0,3.585-2.91,6.491-6.492,6.491c-3.585,0-6.494-2.906-6.494-6.491
			s2.909-6.495,6.494-6.495C542.032,211.753,544.942,214.663,544.942,218.249"/>
	</g>
</g>
    <g>
	<g>
		<path fill="#2887C8" d="M533.287,202.124c0,3.585-2.909,6.491-6.495,6.491c-3.585,0-6.491-2.906-6.491-6.491
			s2.906-6.495,6.491-6.495C530.378,195.629,533.287,198.539,533.287,202.124"/>
	</g>
</g>
    <g>
	<g>
		<path fill="#2887C8" d="M472.949,156.914c0,3.808-3.089,6.896-6.896,6.896c-3.807,0-6.896-3.089-6.896-6.896
			c0-3.811,3.089-6.903,6.896-6.903C469.86,150.011,472.949,153.103,472.949,156.914"/>
	</g>
</g>
    <g>
	<g>
		<path fill="#2887C8" d="M452.58,150.01c0,3.585-2.905,6.495-6.491,6.495c-3.585,0-6.491-2.909-6.491-6.495
			c0-3.582,2.906-6.488,6.491-6.488C449.675,143.522,452.58,146.428,452.58,150.01"/>
	</g>
</g>
    <g>
	<g>
		<path fill="#2887C8" d="M427.802,144.692c0,3.681-2.985,6.66-6.667,6.66c-3.678,0-6.656-2.979-6.656-6.66
			c0-3.677,2.979-6.664,6.656-6.664C424.815,138.028,427.802,141.015,427.802,144.692"/>
	</g>
</g>
    <g>
	<g>
		<path fill="#2887C8" d="M407.859,143.628c0,3.677-2.979,6.657-6.656,6.657c-3.682,0-6.661-2.979-6.661-6.657
			c0-3.681,2.979-6.661,6.661-6.661C404.88,136.967,407.859,139.947,407.859,143.628"/>
	</g>
</g>
    <g>
	<path fill="#0B9D49" d="M413.377,380.12v-36.425h-67.68V320.43l57.81-93.061h43.71v89.535h18.33v26.79h-18.33v36.425H413.377z
		 M413.377,316.905v-33.84c0-9.165,0.471-18.565,1.175-28.435h-0.939c-4.936,9.87-8.93,18.8-14.101,28.435l-20.444,33.37v0.47
		H413.377z"/>
</g>
</svg>
