<svg xmlns="http://www.w3.org/2000/svg" id="Layer_1" width="800" height="800" x="0" y="0" enable-background="new 0 0 800 800" version="1.0" viewBox="0 0 800 800" xml:space="preserve"><path fill="#FFF" d="M727.953,404.437c0,39.612-73.379,64.347-87.661,98.792c-14.808,35.713,19.029,104.963-7.886,131.872	c-26.916,26.915-96.156-6.919-131.868,7.893c-34.446,14.282-59.181,87.651-98.792,87.651c-39.612,0-64.351-73.369-98.803-87.651	c-35.706-14.812-104.956,19.022-131.868-7.893c-26.909-26.909,6.922-96.159-7.886-131.872	c-14.286-34.445-87.662-59.18-87.662-98.792c0-39.615,73.376-64.35,87.662-98.795c14.808-35.709-19.023-104.963,7.893-131.868	c26.905-26.916,96.155,6.915,131.861-7.893c34.452-14.286,59.19-87.655,98.803-87.655c39.611,0,64.346,73.369,98.792,87.655	c35.712,14.808,104.966-19.023,131.868,7.893c26.915,26.905-6.915,96.159,7.886,131.868	C654.574,340.086,727.953,364.821,727.953,404.437"/><path fill="none" stroke="#2887C8" stroke-miterlimit="10" stroke-width="2" d="M727.953,404.437	c0,39.612-73.379,64.347-87.661,98.792c-14.808,35.713,19.029,104.963-7.886,131.872c-26.916,26.915-96.156-6.919-131.868,7.893	c-34.446,14.282-59.181,87.651-98.792,87.651c-39.612,0-64.351-73.369-98.803-87.651c-35.706-14.812-104.956,19.022-131.868-7.893	c-26.909-26.909,6.922-96.159-7.886-131.872c-14.286-34.445-87.662-59.18-87.662-98.792c0-39.615,73.376-64.35,87.662-98.795	c14.808-35.709-19.023-104.963,7.893-131.868c26.905-26.916,96.155,6.915,131.861-7.893c34.452-14.286,59.19-87.655,98.803-87.655	c39.611,0,64.346,73.369,98.792,87.655c35.712,14.808,104.966-19.023,131.868,7.893c26.915,26.905-6.915,96.159,7.886,131.868	C654.574,340.086,727.953,364.821,727.953,404.437z"/><path fill="#E4F2FC" d="M660.851,404.437c0,30.517-71.567,46.57-82.568,73.11c-11.406,27.507,27.407,89.377,6.679,110.103	c-20.731,20.734-82.604-18.083-110.112-6.673c-26.533,11.004-42.587,82.568-73.103,82.568c-30.517,0-46.577-71.564-73.111-82.568	c-27.507-11.41-89.377,27.407-110.109,6.673c-20.735-20.732,18.082-82.596,6.679-110.103c-11.004-26.54-82.571-42.594-82.571-73.11	c0-30.52,71.567-46.574,82.571-73.113c11.403-27.507-27.407-89.377-6.679-110.103c20.732-20.732,82.602,18.085,110.109,6.672	c26.534-11.001,42.594-82.568,73.111-82.568c30.516,0,46.569,71.567,73.103,82.568c27.515,11.413,89.381-27.404,110.112-6.672	c20.729,20.732-18.085,82.595-6.679,110.103C589.283,357.863,660.851,373.917,660.851,404.437"/><path fill="#B6DDF5" d="M365.747,201.493c0.539-0.931,1.067-1.849,1.606-2.79c10.283-17.989,21.939-38.382,34.393-38.382	c12.443,0,23.597,19.508,34.382,38.375c0.382,0.668,0.755,1.307,1.13,1.968c2.002-4.292,6.048-7.251,10.377-8.395	c-0.021-0.037-0.047-0.076-0.067-0.116c-12.653-22.122-25.731-45.004-45.821-45.004c-20.101,0-33.18,22.883-45.83,45.011	c-0.356,0.611-0.705,1.227-1.057,1.838C359.175,194.721,363.351,197.527,365.747,201.493"/><path fill="#B6DDF5" d="M524.671,234.771c20.405-5.472,41.514-11.13,49.682-2.952c8.179,8.185,2.526,29.283-2.945,49.689	c-0.137,0.485-0.26,0.96-0.39,1.443c4.485-0.865,9.389,0.173,12.793,3.151c0.11-0.392,0.213-0.788,0.319-1.184	c6.443-24.013,13.103-48.857-0.462-62.415c-13.454-13.438-37.993-6.991-61.85-0.605c1.981,4.086,1.915,9.349-0.227,13.69	C522.623,235.317,523.637,235.051,524.671,234.771"/><path fill="#B6DDF5" d="M279.13,574.015c-0.11,0.027-0.207,0.054-0.316,0.08c-20.413,5.469-41.503,11.127-49.682,2.949	c-8.186-8.179-2.527-29.279,2.955-49.688c0.15-0.565,0.293-1.117,0.442-1.676c-4.282,1.13-9.199,0.06-12.929-2.644	c-0.083,0.3-0.156,0.605-0.239,0.908c-6.446,24.02-13.105,48.857,0.456,62.415c13.551,13.567,38.401,6.908,62.408,0.462	c0.778-0.206,1.553-0.409,2.337-0.618C281.028,583.224,279.04,578.557,279.13,574.015"/><path fill="#B6DDF5" d="M157.631,404.437c0-12.454,19.508-23.607,38.375-34.393c0.801-0.455,1.586-0.911,2.38-1.366	c-3.946-2.467-6.529-6.676-7.271-11.018c-0.552,0.319-1.094,0.632-1.646,0.944c-22.128,12.653-45.015,25.732-45.015,45.832	c0,20.091,22.887,33.179,45.015,45.822c0.209,0.13,0.422,0.249,0.632,0.366c0.585-4.555,4.105-8.342,8.634-10.233	c-0.914-0.522-1.812-1.04-2.729-1.565C177.139,428.041,157.631,416.881,157.631,404.437"/><path fill="#B6DDF5" d="M282.893,222.225c-0.216-0.063-0.442-0.116-0.661-0.179c-24.007-6.433-48.845-13.099-62.415,0.465	c-13.561,13.554-6.902,38.398-0.456,62.415l0.183,0.698c3.999-2.141,9.199-2.218,13.557-0.286c-0.339-1.27-0.675-2.537-1.014-3.823	c-5.476-20.406-11.141-41.507-2.955-49.692c8.178-8.182,29.282-2.517,49.682,2.949c0.466,0.123,0.908,0.239,1.363,0.362	C279.136,230.612,280.021,225.662,282.893,222.225"/><path fill="#B6DDF5" d="M436.673,609.222c-0.183,0.323-0.358,0.629-0.542,0.948c-10.791,18.866-21.938,38.375-34.385,38.375	c-12.461,0-23.605-19.509-34.396-38.375c-0.389-0.682-0.771-1.34-1.16-2.015c-2.497,3.969-6.649,6.842-11.091,7.145	c0.272,0.469,0.545,0.938,0.812,1.409c12.656,22.135,25.738,45.011,45.836,45.011c20.086,0,33.165-22.876,45.821-45.004	c0.319-0.565,0.648-1.124,0.968-1.689C444.07,614.91,439.535,612.819,436.673,609.222"/><path fill="#B6DDF5" d="M584.13,523.954c-0.253-0.947-0.505-1.896-0.758-2.839c-3.348,3.075-8.142,4.548-12.573,3.963	c0.203,0.761,0.398,1.516,0.605,2.287c5.472,20.406,11.13,41.504,2.955,49.682c-8.179,8.179-29.286,2.521-49.699-2.948	c-0.863-0.229-1.722-0.456-2.586-0.688c1.054,4.461,0.189,9.401-2.627,12.933c0.605,0.159,1.204,0.319,1.809,0.481	c24.018,6.44,48.848,13.099,62.416-0.455C597.235,572.805,590.576,547.967,584.13,523.954"/><path fill="#B6DDF5" d="M614.015,358.604c-0.386-0.216-0.771-0.439-1.157-0.665c-0.119,4.418-2.5,8.843-6.137,11.669	c0.259,0.143,0.498,0.286,0.765,0.436c17.985,10.283,38.372,21.939,38.372,34.393c0,12.447-19.509,23.604-38.372,34.39	c-0.153,0.082-0.306,0.169-0.459,0.259c3.431,2.872,5.339,7.563,5.173,12.222c0.605-0.346,1.217-0.702,1.815-1.048	c22.128-12.644,45.015-25.731,45.015-45.822C659.029,384.336,636.143,371.258,614.015,358.604"/><path fill="#FFF" d="M555.911,395.713c0,85.425-69.243,154.668-154.668,154.668c-85.414,0-154.664-69.243-154.664-154.668	c0-85.414,69.25-154.665,154.664-154.665C486.668,241.048,555.911,310.299,555.911,395.713"/><path fill="#2887C8" d="M444.25,240.656c-8.102-2.248-16.403-4.013-24.961-4.974c-0.266,4.278-0.485,8.554-0.605,12.836	c8.143,0.961,16.048,2.689,23.741,4.917C443.029,249.173,443.645,244.918,444.25,240.656"/><path fill="#2887C8" d="M515.213,301.256c2.799-3.285,5.808-6.376,8.976-9.305c-16.573-19.595-37.66-35.257-61.729-45.184	l-1.893,13.231C481.877,269.347,500.521,283.609,515.213,301.256"/><path fill="#2887C8" d="M556.027,351.49c-4.567-15.885-11.453-30.805-20.365-44.283c-3.056,2.965-5.984,6.064-8.674,9.388	c-0.107,0.126-0.25,0.216-0.359,0.339c7.557,11.955,13.418,25.063,17.341,38.987C548.165,354.934,552.085,353.186,556.027,351.49"/><path fill="#2887C8" d="M548.957,459.857c8.573-19.668,13.361-41.354,13.361-64.138c0-0.476-0.051-0.938-0.057-1.41	c-4.029,1.16-8.389,1.519-12.767,1.459c-0.007,19.798-3.942,38.688-11.015,55.959C541.034,455.535,544.817,457.918,548.957,459.857"/><path fill="#2887C8" d="M525.432,494c0.639,0.559,1.273,1.117,1.912,1.662c4.787-6.018,9.186-12.351,13.078-19.023	c-3.912-1.898-7.626-4.049-10.914-6.725c-3.274,5.651-6.925,11.057-10.895,16.196C520.27,489.365,522.327,491.307,525.432,494"/><path fill="#2887C8" d="M420.838,555.584c18.578-2.281,36.188-7.743,52.275-15.812c-3.111-3.172-5.678-6.706-7.945-10.525	c-13.761,6.626-28.658,11.213-44.33,13.345V555.584z"/><path fill="#2887C8" d="M401.243,543.975c-33.042,0-63.578-10.882-88.247-29.223c-3.062,3.118-6.18,6.107-9.565,8.797	c27.132,20.824,61.039,33.238,97.812,33.238c0.187,0,0.369-0.013,0.559-0.013v-12.813	C401.612,543.961,401.43,543.975,401.243,543.975"/><path fill="#2887C8" d="M240.369,401.086c0.462,13.82,2.6,27.221,6.34,39.957c4.349-0.508,8.713-0.814,13.079-0.943	c-3.893-12.378-6.101-25.48-6.592-39.014H240.369z"/><path fill="#2887C8" d="M255.462,327.633c-7.872,16.789-13.039,35.091-14.668,54.413h12.883c1.622-17.607,6.43-34.273,13.674-49.572	C263.524,330.292,259.654,328.743,255.462,327.633"/><path fill="#2887C8" d="M297.314,273.03c4.678,1.676,9.199,3.97,14.143,4.618c0.149,0.02,0.269,0.07,0.422,0.096	c24.455-18.644,54.809-29.904,87.812-30.247c0.156-4.275,0.358-8.558,0.611-12.826C361.017,234.898,325.135,249.353,297.314,273.03"/><path fill="#FFF" d="M524.229,395.713c0,67.611-54.802,122.417-122.413,122.417c-67.604,0-122.407-54.806-122.407-122.417	c0-67.601,54.802-122.41,122.407-122.41C469.427,273.303,524.229,328.112,524.229,395.713"/><path fill="none" stroke="#2887C8" stroke-miterlimit="10" stroke-width="2" d="M524.229,395.713	c0,67.611-54.802,122.417-122.413,122.417c-67.604,0-122.407-54.806-122.407-122.417c0-67.601,54.802-122.41,122.407-122.41	C469.427,273.303,524.229,328.112,524.229,395.713z"/><path fill="#2887C8" d="M526.755,712.722c-2.696,0-5.256-1.619-6.326-4.282c-1.394-3.49,0.31-7.453,3.8-8.85	c8.693-3.478,29.795-17.783,37.188-22.999c3.071-2.168,7.313-1.43,9.485,1.643c2.174,3.075,1.429,7.317-1.64,9.488	c-1.137,0.804-28.026,19.734-39.981,24.512C528.457,712.569,527.6,712.722,526.755,712.722"/><path fill="#2887C8" d="M522.221,756.413c-2.696,0-5.256-1.622-6.327-4.282c-1.396-3.494,0.306-7.457,3.8-8.854	c7.641-3.055,51.332-35.153,77.073-54.665c3.006-2.28,7.281-1.688,9.548,1.313c2.274,2.995,1.683,7.264-1.316,9.538	c-11.369,8.613-68.645,51.816-80.251,56.457C523.923,756.254,523.064,756.413,522.221,756.413"/><path fill="#2887C8" d="M482.492,774c-3.262,0-6.147-2.357-6.706-5.679c-0.571-3.424,1.503-6.676,4.744-7.652	c1.696-0.792,7.837-4.549,12.747-7.717c3.178-2.028,7.373-1.113,9.415,2.038c2.038,3.165,1.123,7.381-2.035,9.415	c-13.95,8.979-15.735,9.282-17.028,9.498C483.24,773.974,482.867,774,482.492,774"/><path fill="#2887C8" d="M231.489,122.648c-2.138,0-4.242-1.004-5.572-2.882c-2.171-3.075-1.43-7.324,1.642-9.492	c1.137-0.801,28.023-19.731,39.981-24.508c3.464-1.376,7.454,0.299,8.85,3.796c1.396,3.487-0.306,7.45-3.8,8.847	c-8.693,3.478-29.794,17.776-37.188,22.993C234.212,122.246,232.842,122.648,231.489,122.648"/><path fill="#2887C8" d="M195.949,110.772c-2.064,0-4.099-0.927-5.436-2.699c-2.274-2.992-1.679-7.261,1.316-9.538	c11.357-8.611,68.639-51.813,80.251-56.458c3.454-1.386,7.45,0.302,8.847,3.793c1.403,3.494-0.299,7.457-3.793,8.85	c-7.646,3.059-51.338,35.154-77.073,54.669C198.828,110.32,197.379,110.772,195.949,110.772"/><path fill="#2887C8" d="M299.861,46.13c-2.234,0-4.428-1.104-5.735-3.118c-2.035-3.162-1.124-7.38,2.038-9.412	c13.95-8.993,15.742-9.292,17.042-9.505c3.744-0.625,7.225,1.895,7.829,5.598c0.572,3.418-1.513,6.666-4.754,7.64	c-1.695,0.794-7.836,4.548-12.736,7.706C302.401,45.781,301.128,46.13,299.861,46.13"/><path fill="#FFF" d="M275.263,634.814c0,57.252-46.414,103.666-103.667,103.666c-57.255,0-103.669-46.414-103.669-103.666	c0-57.256,46.414-103.669,103.669-103.669C228.849,531.146,275.263,577.559,275.263,634.814"/><circle cx="171.595" cy="634.814" r="103.668" fill="none" stroke="#2887C8" stroke-miterlimit="10" stroke-width="2"/><path fill="#E4F0CC" d="M244.87,634.814c0,40.47-32.804,73.273-73.273,73.273c-40.473,0-73.276-32.804-73.276-73.273	c0-40.473,32.803-73.276,73.276-73.276C212.066,561.538,244.87,594.342,244.87,634.814"/><path fill="#0B9D49" d="M221.648,611.43c0,1.726-0.605,3.188-1.813,4.401l-46.753,46.753l-8.79,8.784	c-1.207,1.206-2.663,1.812-4.385,1.812c-1.723,0-3.192-0.605-4.392-1.812l-8.79-8.784l-23.375-23.381	c-1.204-1.204-1.809-2.66-1.809-4.382c0-1.732,0.604-3.195,1.809-4.402l8.776-8.783c1.207-1.203,2.676-1.809,4.398-1.809	c1.716,0,3.188,0.605,4.392,1.809l18.99,19.06l42.364-42.438c1.204-1.207,2.677-1.812,4.392-1.812c1.723,0,3.192,0.604,4.398,1.812	l8.773,8.783C221.043,608.251,221.648,609.714,221.648,611.43"/></svg>