<?xml version="1.0" encoding="utf-8"?>
<!-- Generator: Adobe Illustrator 16.0.0, SVG Export Plug-In . SVG Version: 6.00 Build 0)  -->
<!DOCTYPE svg PUBLIC "-//W3C//DTD SVG 1.0//EN" "http://www.w3.org/TR/2001/REC-SVG-20010904/DTD/svg10.dtd">
<svg version="1.0" id="Layer_1" xmlns="http://www.w3.org/2000/svg" x="0px" y="0px"
     width="800px" height="800px" viewBox="0 0 800 800" enable-background="new 0 0 800 800" xml:space="preserve">
<path fill="#E4F2FC" d="M788.619,192.011v517.284c0,66.621-213.164,66.709-377.325,66.709c-164.158,0-377.318,0.863-377.318-66.709
	V192.011c0-14.414,11.229-26.052,24.961-26.052h704.722C777.468,165.958,788.619,177.597,788.619,192.011"/>
    <rect x="294.798" y="226.402" fill="#E4F0CC" width="183.046" height="65.101"/>
    <rect x="294.798" y="226.402" fill="none" stroke="#0B9D49" stroke-width="1.5" stroke-linecap="round"
          stroke-linejoin="round" stroke-miterlimit="10" width="183.046" height="65.101"/>
    <path fill="none" stroke="#2887C8" stroke-width="1.5" stroke-linecap="round" stroke-linejoin="round"
          stroke-miterlimit="10" d="
	M763.644,190.919v55.078c0,0,0,212.168-377.325,212.168C9,458.166,9,245.998,9,245.998v-55.078c0-13.81,11.229-24.961,24.961-24.961
	h704.722C752.492,165.958,763.644,177.11,763.644,190.919z"/>
    <path fill="none" stroke="#2887C8" stroke-width="1.5" stroke-linecap="round" stroke-linejoin="round"
          stroke-miterlimit="10" stroke-dasharray="4,4" d="
	M722.017,187.719c0,0,0,212.167-335.698,212.167c-335.694,0-335.694-212.167-335.694-212.167"/>
    <path fill="none" stroke="#2887C8" stroke-width="1.5" stroke-linecap="round" stroke-linejoin="round"
          stroke-miterlimit="10" d="
	M763.644,245.998v440.475c0,63.809-213.164,63.896-377.325,63.896C222.161,750.369,9,751.174,9,686.473V245.998
	c0,0,0,212.168,377.318,212.168C763.644,458.166,763.644,245.998,763.644,245.998z"/>
    <line fill="none" stroke="#2887C8" stroke-width="1.5" stroke-linecap="round" stroke-linejoin="round" x1="50.624"
          y1="717.6" x2="50.624" y2="702.6"/>
    <line fill="none" stroke="#2887C8" stroke-width="1.5" stroke-linecap="round" stroke-linejoin="round"
          stroke-dasharray="4.067,4.067" x1="50.624" y1="672.088" x2="50.624" y2="382.301"/>
    <line fill="none" stroke="#2887C8" stroke-width="1.5" stroke-linecap="round" stroke-linejoin="round" x1="50.624"
          y1="367.052" x2="50.624" y2="352.052"/>
    <line fill="none" stroke="#2887C8" stroke-width="1.5" stroke-linecap="round" stroke-linejoin="round" x1="722.017"
          y1="351.95" x2="722.017" y2="366.95"/>
    <line fill="none" stroke="#2887C8" stroke-width="1.5" stroke-linecap="round" stroke-linejoin="round"
          stroke-dasharray="4.067,4.067" x1="722.017" y1="397.448" x2="722.017" y2="687.24"/>
    <line fill="none" stroke="#2887C8" stroke-width="1.5" stroke-linecap="round" stroke-linejoin="round" x1="722.017"
          y1="702.498" x2="722.017" y2="717.498"/>
    <line fill="none" stroke="#2887C8" stroke-width="1.5" stroke-linecap="round" stroke-linejoin="round"
          stroke-miterlimit="10" x1="386.322" y1="458.172" x2="386.322" y2="750.354"/>
    <rect x="294.798" y="366.642" fill="#E4F0CC" width="183.046" height="183.047"/>
    <rect x="294.798" y="366.642" fill="none" stroke="#0B9D49" stroke-width="1.5" stroke-linecap="round"
          stroke-linejoin="round" stroke-miterlimit="10" width="183.046" height="183.047"/>
    <path fill="#0B9D49" d="M387.731,499.115h-2.823c-7.115,0-12.891-5.771-12.891-12.891v-56.107c0-7.115,5.775-12.895,12.891-12.895
	h2.823c7.116,0,12.891,5.779,12.891,12.895v56.107C400.622,493.344,394.847,499.115,387.731,499.115"/>
    <path fill="#E4F2FC" d="M559.44,136.317h-56.824c0-52.676-24.295-53.057-24.961-53.057H340.036c0,0-24.961,0.864-24.961,53.057
	H258.25c0,0,4.16-110.317,80.369-110.317h140.445C555.276,26,559.44,136.317,559.44,136.317"/>
    <path fill="none" stroke="#2887C8" stroke-width="1.5" stroke-linecap="round" stroke-linejoin="round"
          stroke-miterlimit="10" d="
	M360.943,26h96.456c76.216,0,80.38,96.013,80.38,96.013H480.95c0-45.846-24.294-46.179-24.961-46.179H318.375
	c0,0-24.961,0.754-24.961,46.179h-56.828c0,0,1.318-30.425,16.065-57.022 M293.594,29.479c-11.408,3.666-20.545,9.954-27.858,17.578
	 M330.284,26l-5.508,0.022c-0.352,0,0.344-0.007,0,0"/>
    <rect x="213.199" y="121.984" fill="#FFFFFF" width="111.661" height="43.975"/>
    <rect x="213.199" y="121.984" fill="none" stroke="#2887C8" stroke-width="1.5" stroke-miterlimit="10" width="111.661"
          height="43.975"/>
    <rect x="447.786" y="121.984" fill="#FFFFFF" width="111.658" height="43.975"/>
    <rect x="447.786" y="121.984" fill="none" stroke="#2887C8" stroke-width="1.5" stroke-miterlimit="10" width="111.658"
          height="43.975"/>
</svg>
