<svg xmlns="http://www.w3.org/2000/svg" id="Layer_1" width="438" height="231" x="0" y="0" enable-background="new 0 0 438 231" version="1.0" viewBox="0 0 438 231" xml:space="preserve"><g><path fill="#ED1C24" d="M9.4,175.656c0-14.903,10.211-25.667,24.839-25.667c14.627,0,24.563,10.487,24.563,25.667 c0,14.627-9.936,25.391-24.839,25.391C19.611,201.047,9.4,190.283,9.4,175.656z"/><path d="M83.087,198.011c0.552-8.831,1.104-25.114,1.104-40.294V2.061h41.95v77h0.552c8.003-11.591,22.079-19.043,40.846-19.043 c32.291,0,56.025,26.771,55.75,68.168c0,48.573-30.911,72.86-61.821,72.86c-15.731,0-30.911-5.796-40.57-21.803h-0.552 l-1.656,18.767H83.087z M126.141,140.605c0,2.76,0.276,5.244,0.828,7.452c2.76,11.315,12.419,19.871,24.563,19.871 c17.939,0,28.979-13.8,28.979-38.087c0-20.975-9.384-37.533-28.979-37.533c-11.315,0-21.803,8.555-24.563,20.698 c-0.552,2.484-0.828,4.968-0.828,7.728V140.605z"/><path d="M292.56,25.52c0,11.591-8.832,20.975-22.631,20.975c-13.247,0-22.079-9.384-21.803-20.975 c-0.276-12.143,8.556-21.251,22.078-21.251C283.728,4.269,292.283,13.376,292.56,25.52z M249.229,198.011V63.054h41.95v134.957 H249.229z"/><path d="M314.083,174l42.502-53.266c7.728-9.107,13.8-15.73,21.527-24.011v-0.552h-59.337V63.054H429.17v25.115l-40.57,51.057 c-7.452,8.832-14.352,17.388-22.079,24.839v0.552h64.856v33.395H314.083V174z"/></g></svg>