<?xml version="1.0" encoding="utf-8"?>
<!-- Generator: Adobe Illustrator 16.0.0, SVG Export Plug-In . SVG Version: 6.00 Build 0)  -->
<!DOCTYPE svg PUBLIC "-//W3C//DTD SVG 1.1//EN" "http://www.w3.org/Graphics/SVG/1.1/DTD/svg11.dtd">
<svg version="1.1" id="Layer_1" xmlns="http://www.w3.org/2000/svg" x="0px" y="0px"
     width="403.5px" height="412.5px" viewBox="94.5 0 403.5 412.5" enable-background="new 94.5 0 403.5 412.5"
     xml:space="preserve">
<g>
	<g>
		<g>
			<g>
				<path fill="#0083D3" d="M231.75,115.75c-2.5-2.5-6.25-2.5-8.75,0l-24.375,24.375l-6.25-6.25c-2.5-2.5-6.25-2.5-8.75,0
					s-2.5,6.25,0,8.75l10.625,10.625c1.25,1.25,3.125,1.875,4.375,1.875c1.875,0,3.125-0.625,4.375-1.875l28.75-28.75
					C234.25,122,234.25,117.625,231.75,115.75z"/>
                <path fill="#0083D3" d="M341.75,219.5c-3.75,0-6.25,2.5-6.25,6.25s2.5,6.25,6.25,6.25h12.5c3.75,0,6.25-2.5,6.25-6.25
					s-2.5-6.25-6.25-6.25H341.75z"/>
                <path fill="#0083D3" d="M379.25,219.5c-3.75,0-6.25,2.5-6.25,6.25s2.5,6.25,6.25,6.25h37.5v89.375l-54.375,21.875l-62.5-68.75
					l-41.25,20.625c-6.875,3.125-14.375,3.75-21.25,1.25l-8.125-2.5c-1.25-0.625-1.875-1.875-1.875-2.5s0-1.875,1.25-2.5
					l53.125-38.75c0.625,0,1.875-0.625,2.5-1.25c0,0,0-0.625,0.625-0.625l22.5-16.25h9.375c3.75,0,6.25-2.5,6.25-6.25
					s-2.5-6.25-6.25-6.25h-14.375l-22.5,16.25L263,219.5h-77.5h-6.25H98V332h37.5c3.75,0,6.25-2.5,6.25-6.25s-2.5-6.25-6.25-6.25
					h-25V232H173v87.5h-12.5c-3.75,0-6.25,2.5-6.25,6.25s2.5,6.25,6.25,6.25h16.875L263,399.5c4.375,3.75,9.375,5.625,15,5.625
					c3.125,0,6.25-0.625,8.75-1.875s4.375-3.125,6.25-4.375l6.875,6.875c0.625,0.625,0.625,0.625,1.25,0.625L301.75,407
					c0.625,0,1.875,0,2.5,0s1.25,0,2.5-0.625c0,0,0.625,0,0.625-0.625c0.625,0,0.625-0.625,1.25-0.625l55.625-49.375l60.625-24.375
					H498V219.5H379.25z M344.25,357l-54.375-54.375c-2.5-2.5-6.25-2.5-8.75,0s-2.5,6.25,0,8.75l53.75,53.75L324.25,374.5
					l-53.125-53.125c-2.5-2.5-6.25-2.5-8.75,0s-2.5,6.25,0,8.75l52.5,52.5L304.25,392l-51.875-51.875c-2.5-2.5-6.25-2.5-8.75,0
					s-2.5,6.25,0,8.75L284.25,389.5c-1.25,0.625-1.875,1.25-3.125,1.875c-3.125,1.25-7.5,0.625-10.625-1.875l-85-66.875V232H258
					l11.25,11.25l-48.125,35.625c-4.375,3.125-6.875,9.375-6.25,15s5,10.625,10.625,12.5l7.5,2.5c10,3.125,21.25,2.5,31.25-2.5
					l33.125-16.25l55,60.625L344.25,357z M485.5,319.5h-56.25V232h56.25V319.5z"/>
                <path fill="#0083D3" d="M154.25,213.25c3.75,0,6.25-3.125,6.25-6.25V19.5H373v56.25c0,3.75,2.5,6.25,6.25,6.25h56.25v118.75
					c0,3.75,2.5,6.25,6.25,6.25s6.25-3.125,6.25-6.25v-125c0-1.875-0.625-3.125-1.875-4.375l-62.5-62.5
					c-1.25-1.25-2.5-1.875-4.375-1.875h-225c-3.75,0-6.25,3.125-6.25,6.25V207C148,210.75,150.5,213.25,154.25,213.25z
					 M385.5,28.875L426.125,69.5H385.5V28.875z"/>
                <path fill="#0083D3" d="M323,157c3.75,0,6.25-2.5,6.25-6.25s-2.5-6.25-6.25-6.25h-6.25c-3.75,0-6.25,2.5-6.25,6.25
					s2.5,6.25,6.25,6.25H323z"/>
                <path fill="#B1D465" d="M398,119.5H266.75c-3.75,0-6.25,2.5-6.25,6.25s2.5,6.25,6.25,6.25H398c3.75,0,6.25-2.5,6.25-6.25
					S401.75,119.5,398,119.5z"/>
                <path fill="#0083D3" d="M266.75,157H298c3.75,0,6.25-2.5,6.25-6.25s-2.5-6.25-6.25-6.25h-31.25c-3.75,0-6.25,2.5-6.25,6.25
					S263,157,266.75,157z"/>
			</g>
		</g>
	</g>
</g>
</svg>
