<svg xmlns="http://www.w3.org/2000/svg" id="Layer_1" width="692.888" height="677.889" x="0" y="0" enable-background="new 56.612 27.5 692.888 677.889" version="1.1" viewBox="56.612 27.5 692.888 677.889" xml:space="preserve"><path fill="#C7C7C7" d="M613.048,151.096H70.474c-7.65,0-13.862,6.207-13.862,13.861v81.066h570.287v-81.066	C626.899,157.303,620.697,151.096,613.048,151.096z"/><path fill="#FCD462" d="M104.058,158.931c8.651,0,15.65,7.009,15.65,15.655s-6.999,15.655-15.65,15.655s-15.65-7.009-15.65-15.655	S95.407,158.931,104.058,158.931z"/><path fill="#44C4A1" d="M147.334,158.931c8.651,0,15.66,7.009,15.66,15.655s-7.009,15.655-15.66,15.655s-15.65-7.009-15.65-15.655	S138.683,158.931,147.334,158.931z"/><circle cx="190.378" cy="174.586" r="15.655" fill="#E56353"/><path fill="#EBF0F3" d="M182.223,219.657h96.614l-5.677-16.817c-0.942-2.766-3.538-4.627-6.454-4.627h-91.988	c0.204,0.457,0.525,0.832,0.69,1.313L182.223,219.657z"/><path fill="#E6E6E6" d="M627.899,230.024H179.095c-2.927,0-5.531-1.861-6.477-4.627l-7.647-22.557	c-0.937-2.766-3.542-4.627-6.478-4.627H87.75c-2.926,0-5.531,1.862-6.467,4.627l-7.658,22.557c-0.937,2.766-3.531,4.627-6.467,4.627	H56.612v47.496h571.287V230.024z"/><path fill="#EBF0F3" d="M57.612,691.525c0,7.65,6.211,13.863,13.862,13.863h542.574c7.649,0,13.852-6.213,13.852-13.863V277.52	H57.612V691.525L57.612,691.525z"/><circle cx="145.245" cy="364.394" r="41.187" fill="#E56353"/><g><rect width="99.434" height="10.361" x="97.623" y="446.059" fill="#D5D6DB"/><rect width="99.434" height="10.383" x="97.623" y="482.549" fill="#D5D6DB"/><rect width="99.434" height="10.363" x="97.623" y="519.061" fill="#D5D6DB"/><rect width="99.434" height="10.361" x="97.623" y="555.553" fill="#D5D6DB"/><rect width="99.434" height="10.371" x="97.623" y="592.045" fill="#D5D6DB"/><rect width="99.434" height="10.363" x="97.623" y="628.555" fill="#D5D6DB"/></g><rect width="91.502" height="91.501" x="264.79" y="309.709" fill="#DDD"/><rect width="91.502" height="91.502" x="264.79" y="427.539" fill="#DDD"/><g><rect width="207.994" height="10.372" x="387.661" y="317.899" fill="#D5D6DB"/><rect width="207.994" height="10.367" x="387.661" y="350.25" fill="#D5D6DB"/><rect width="146.093" height="10.367" x="387.661" y="382.708" fill="#D5D6DB"/><rect width="207.994" height="10.363" x="387.661" y="435.695" fill="#D5D6DB"/><rect width="207.994" height="10.372" x="387.661" y="468.114" fill="#D5D6DB"/><rect width="146.093" height="10.371" x="387.661" y="500.484" fill="#D5D6DB"/></g><path fill="#2484C6" d="M600.704,61.56c77.32,0,140.002,62.68,140.002,140.002	c0,77.318-62.682,139.998-140.002,139.998c-77.319,0-139.996-62.68-139.996-139.998C460.708,124.24,523.385,61.56,600.704,61.56z" opacity=".5"/><path fill="#2484C6" d="M600.704,69.561c72.901,0,132.002,59.098,132.002,132.002	c0,72.9-59.101,131.998-132.002,131.998c-72.9,0-131.996-59.098-131.996-131.998C468.708,128.658,527.804,69.561,600.704,69.561z" opacity=".9"/><g opacity=".7"><g><path fill="#F7F0F0" d="M676.011,132.514c-48.774,0-70.585-25.228-70.795-25.474c-1.267-1.52-3.854-1.52-5.122,0 c-0.213,0.253-21.796,25.474-70.794,25.474c-1.841,0-3.335,1.494-3.335,3.334v63.636c0,34.787,15.639,67.847,41.833,88.43 c10.56,8.3,21.967,14.305,33.907,17.845c0.311,0.095,0.63,0.141,0.95,0.141c0.319,0,0.637-0.046,0.95-0.141 c11.94-3.544,23.348-9.545,33.906-17.845c26.195-20.586,41.833-53.643,41.833-88.43v-63.636 C679.345,134.007,677.852,132.514,676.011,132.514z M672.676,199.484c0,32.756-14.684,63.855-39.285,83.188 c-9.613,7.556-19.949,13.07-30.735,16.407c-10.787-3.334-21.124-8.852-30.735-16.407c-24.602-19.329-39.286-50.432-39.286-83.188 v-60.338c40.819-0.907,62.903-18.329,70.021-25.158c7.118,6.832,29.202,24.25,70.021,25.158V199.484z"/></g></g><g opacity=".8"><path fill="#F0F5F7" d="M611.726,146.666c-1.622-6.049-7.862-9.653-13.914-8.039c-6.05,1.621-9.653,7.862-8.032,13.912l1.022,3.816 l-0.075,0.02c-1.598,0.428-2.549,2.076-2.121,3.675l4.279,15.968c0.429,1.599,2.076,2.549,3.675,2.121l22.272-5.968 c1.597-0.428,2.548-2.076,2.121-3.674l-4.277-15.96c-0.429-1.599-2.077-2.55-3.675-2.122l-0.253,0.068L611.726,146.666z M603.251,164.096c-0.883-0.339-1.449-0.989-1.694-1.908c-0.34-1.326,0.294-2.632,1.545-3.255c1.122-0.557,2.565-0.224,3.387,0.782 c0.845,1.03,0.852,2.461,0.001,3.529c-0.167,0.214-0.178,0.384-0.114,0.623c0.323,1.17,0.637,2.343,0.95,3.516l0.003,0.007 c0.261,0.971-0.566,1.977-1.73,1.728c-0.491-0.1-0.866-0.511-0.974-1.003c-0.313-1.173-0.627-2.338-0.932-3.513 C603.621,164.34,603.52,164.2,603.251,164.096 M607.945,151.77l-12.339,3.307l-1.022-3.817c-0.911-3.398,1.11-6.909,4.517-7.822 c3.398-0.911,6.909,1.11,7.821,4.515L607.945,151.77z"/></g><g opacity=".8"><path fill="#EDF2F4" d="M584.907,254.254l2.038-2.899c1.228,1.28,3.134,2.377,5.538,2.377c2.063,0,3.03-0.915,3.03-1.933 c0-3.03-10.032-0.914-10.032-7.471c0-2.9,2.508-5.304,6.609-5.304c2.77,0,5.068,0.836,6.792,2.43l-2.063,2.769 c-1.41-1.306-3.291-1.907-5.067-1.907c-1.567,0-2.456,0.679-2.456,1.724c0,2.743,10.006,0.888,10.006,7.393 c0,3.188-2.3,5.591-6.976,5.591C588.956,257.024,586.553,255.9,584.907,254.254z"/><path fill="#EDF2F4" d="M601.582,254.254l2.037-2.899c1.229,1.28,3.136,2.377,5.539,2.377c2.063,0,3.03-0.915,3.03-1.933 c0-3.03-10.031-0.914-10.031-7.471c0-2.9,2.507-5.304,6.609-5.304c2.77,0,5.067,0.836,6.792,2.43l-2.063,2.769 c-1.411-1.306-3.292-1.907-5.069-1.907c-1.566,0-2.455,0.679-2.455,1.724c0,2.743,10.006,0.888,10.006,7.393 c0,3.188-2.299,5.591-6.976,5.591C605.631,257.024,603.228,255.9,601.582,254.254z"/><path fill="#EDF2F4" d="M619.302,256.71v-17.425h3.736v14.16h7.366v3.265H619.302z"/></g><g><path fill="#E4F0CC" d="M717.996,233.339H483.418c-1.294,0-2.346-1.051-2.346-2.345v-44.119c0-1.298,1.051-2.346,2.346-2.346 h234.578c1.294,0,2.346,1.048,2.346,2.346v44.119C720.342,232.288,719.29,233.339,717.996,233.339"/></g><g><line x1="542.179" x2="529.631" y1="184.183" y2="184.183" fill="none"/></g><g><path fill="#0B9D49" d="M542.179,184.43h-12.548c-0.136,0-0.246-0.111-0.246-0.247s0.11-0.246,0.246-0.246h12.548 c0.136,0,0.246,0.11,0.246,0.246S542.314,184.43,542.179,184.43z"/></g><g><line x1="575.313" x2="549.091" y1="184.183" y2="184.183" fill="none"/></g><g><path fill="#0B9D49" d="M575.313,184.43h-26.223c-0.136,0-0.246-0.111-0.246-0.247s0.11-0.246,0.246-0.246h26.223 c0.136,0,0.247,0.11,0.247,0.246S575.449,184.43,575.313,184.43z"/></g><g><path fill="#0B9D49" d="M720.34,233.934h-58.464c-0.136,0-0.245-0.11-0.245-0.246s0.109-0.247,0.245-0.247h58.218v-49.013h-137.94 c-0.136,0-0.246-0.11-0.246-0.247c0-0.135,0.11-0.246,0.246-0.246H720.34c0.137,0,0.247,0.111,0.247,0.246v49.507 C720.587,233.823,720.477,233.934,720.34,233.934z"/></g><g><line x1="629.281" x2="654.646" y1="233.688" y2="233.688" fill="none"/></g><g><path fill="#0B9D49" d="M654.646,233.934h-25.364c-0.137,0-0.247-0.11-0.247-0.246s0.11-0.247,0.247-0.247h25.364 c0.136,0,0.247,0.111,0.247,0.247S654.781,233.934,654.646,233.934z"/></g><g><path fill="#0B9D49" d="M622.291,233.935H481.074c-0.137,0-0.246-0.11-0.246-0.245v-49.507c0-0.136,0.109-0.246,0.246-0.246h41.459 c0.135,0,0.246,0.11,0.246,0.246s-0.111,0.247-0.246,0.247H481.32v49.013h140.971c0.136,0,0.246,0.11,0.246,0.247 C622.537,233.824,622.427,233.935,622.291,233.935z"/></g><g><path fill="#0B9D49" d="M579.299,218.189v-8.058c0-1.836-0.959-2.412-2.439-2.412c-1.371,0-2.439,0.768-3.016,1.535v8.935h-3.508 v-18.28h3.508v6.742c0.85-0.987,2.467-2.028,4.633-2.028c2.904,0,4.303,1.589,4.303,4.166v9.4H579.299z"/><path fill="#0B9D49" d="M586.945,214.873v-6.879h-2.192v-3.042h2.192v-3.617h3.48v3.617h2.686v3.042h-2.686v5.947 c0,0.85,0.438,1.479,1.205,1.479c0.521,0,1.015-0.191,1.207-0.41l0.74,2.658c-0.521,0.466-1.453,0.85-2.906,0.85 C588.233,218.519,586.945,217.258,586.945,214.873z"/><path fill="#0B9D49" d="M596.209,214.873v-6.879h-2.193v-3.042h2.193v-3.617h3.48v3.617h2.686v3.042h-2.686v5.947 c0,0.85,0.438,1.479,1.206,1.479c0.521,0,1.014-0.191,1.206-0.41l0.739,2.658c-0.521,0.466-1.452,0.85-2.905,0.85 C597.496,218.519,596.209,217.258,596.209,214.873z"/><path fill="#0B9D49" d="M608.24,216.49v6.741h-3.48v-18.279h3.48v1.672c1.014-1.288,2.467-2.001,4.084-2.001 c3.398,0,5.865,2.521,5.865,6.935c0,4.411-2.467,6.961-5.865,6.961C610.762,218.519,609.337,217.86,608.24,216.49z M614.599,211.558c0-2.275-1.37-3.838-3.371-3.838c-1.124,0-2.384,0.631-2.987,1.508v4.659c0.576,0.849,1.863,1.534,2.987,1.534 C613.229,215.421,614.599,213.859,614.599,211.558z"/><path fill="#0B9D49" d="M619.588,216.462l1.507-2.521c0.986,0.932,2.933,1.836,4.577,1.836c1.508,0,2.22-0.575,2.22-1.397 c0-2.165-7.839-0.384-7.839-5.591c0-2.22,1.92-4.166,5.428-4.166c2.219,0,4,0.768,5.316,1.809l-1.398,2.468 c-0.795-0.822-2.302-1.535-3.919-1.535c-1.261,0-2.083,0.548-2.083,1.288c0,1.945,7.865,0.302,7.865,5.646 c0,2.438-2.082,4.221-5.756,4.221C623.205,218.519,620.985,217.751,619.588,216.462z"/></g><g><path fill="#0B9D49" d="M633.373,206.98c0-1.206,1.015-2.22,2.221-2.22c1.205,0,2.22,1.014,2.22,2.22s-1.015,2.22-2.22,2.22 C634.388,209.2,633.373,208.187,633.373,206.98z M633.373,216.271c0-1.205,1.015-2.22,2.221-2.22c1.205,0,2.22,1.015,2.22,2.22 c0,1.207-1.015,2.221-2.22,2.221C634.388,218.491,633.373,217.477,633.373,216.271z"/></g><g><path fill="#0B9D49" d="M640.063,218.737l6.494-19.376h3.426l-6.494,19.376H640.063z"/></g><g><path fill="#0B9D49" d="M647.79,218.737l6.495-19.376h3.426l-6.495,19.376H647.79z"/></g><g><path fill="#0B9D49" d="M562.771,206.693c-0.325-0.325-0.725-0.489-1.191-0.489h-0.559v-3.362c0-2.15-0.772-3.995-2.313-5.536 c-1.541-1.542-3.386-2.312-5.534-2.312s-3.994,0.77-5.535,2.312c-1.541,1.541-2.313,3.386-2.313,5.536v3.362h-0.561 c-0.467,0-0.863,0.164-1.191,0.489c-0.326,0.329-0.49,0.726-0.49,1.192v10.089c0,0.468,0.164,0.865,0.49,1.192 c0.328,0.327,0.725,0.49,1.191,0.49h16.814c0.467,0,0.866-0.163,1.191-0.49c0.326-0.327,0.49-0.725,0.49-1.192v-10.089 C563.262,207.419,563.098,207.022,562.771,206.693 M557.658,206.204h-8.969v-3.362c0-1.239,0.438-2.297,1.313-3.171 c0.878-0.875,1.936-1.313,3.172-1.313c1.238,0,2.295,0.438,3.171,1.313c0.874,0.875,1.313,1.932,1.313,3.171V206.204z"/></g></svg>