<?xml version="1.0" encoding="utf-8"?>
<!-- Generator: Adobe Illustrator 16.0.0, SVG Export Plug-In . SVG Version: 6.00 Build 0)  -->
<!DOCTYPE svg PUBLIC "-//W3C//DTD SVG 1.1//EN" "http://www.w3.org/Graphics/SVG/1.1/DTD/svg11.dtd">
<svg version="1.1" id="Layer_1" xmlns="http://www.w3.org/2000/svg" x="0px" y="0px"
     width="800px" height="800px" viewBox="0 0 800 800" enable-background="new 0 0 800 800" xml:space="preserve">
<g>
	<path fill="#B1D465" d="M332.031,82.198c23.88-7.444,48.162-12.556,73.325-12.179c98.344,1.502,181.01,66.943,207.496,159.7
		c8.332,29.168,2.114,56.223-7.387,83.153c-11.22,31.788-29.735,58.985-55.818,82.778c4.662-14.597,8.308-27.996,10.157-41.769
		c6.293-46.846,4.187-93.476-20.299-134.625c-35.28-59.332-82.297-106.59-151.738-125.781c-17.858-4.935-35.938-8.167-54.445-9.053
		C332.287,84.037,331.563,83.466,332.031,82.198 M464.143,157.828c-3.479-4.583-6.711-9.492-11.558-12.877
		c-47.246-32.952-99.792-46.302-156.729-39.688c-57.529,6.671-104.95,33.21-142.015,77.862
		c-9.878,11.899-18.326,24.743-24.645,39.297c59.8-51.067,128.022-71.838,205.624-57.401
		c77.939,14.497,134.257,58.607,172.193,129.741C508.199,242.95,494.43,197.755,464.143,157.828 M508.832,503.12
		c48.982,0.843,93.335-12.803,132.537-42.451c5.851-4.42,11.566-8.878,15.779-15.172c31.107-46.475,43.843-97.375,35.847-152.822
		c-10.076-69.859-46.738-122.212-106.925-158.412c-3.519-2.123-7.09-4.661-12.008-5.169
		c107.055,114.702,77.32,299.708-68.199,373.523C507.657,502.928,508.24,503.113,508.832,503.12 M186.974,279.653
		c64.018-44.401,134.471-51.989,209.209-30.17c-0.625-1.638-0.692-2.105-0.946-2.418c-0.847-1.027-1.719-2.04-2.666-2.982
		c-26.881-26.794-58.509-45.376-95.261-55.078c-13.334-3.521-27.203-7.859-40.618-5.939c-47.479,6.791-88.188,28.065-121.648,62.474
		c-34.086,35.057-54.215,76.9-60.187,125.669c-3.907,31.851-0.345,62.7,9.772,93.102
		C90.545,386.918,122.962,324.038,186.974,279.653 M462.843,628.682c-76.39-14.577-131.199-59.204-168.386-128.5
		c-1.351,49.839,11.722,93.438,39.696,132.62c7.51,10.521,16.558,18.936,27.694,25.531c44.065,26.061,91.338,36.758,142.115,29.481
		c70.666-10.142,123.672-46.837,159.715-108.265c1.151-1.941,3.348-3.771,1.719-7.469
		C606.52,622.314,539.12,643.239,462.843,628.682 M715.912,332.108c-5.734,76.859-39.434,138.383-103.19,181.76
		c-63.519,43.208-133.297,50.259-206.752,29.505c5.94,7.667,12.521,13.604,19.396,19.232c31.8,26.032,68.239,41.168,108.939,46.1
		c16.123,1.944,31.283-2.981,46.188-8.021c114.353-38.642,173.6-160.416,137.761-271.246
		C715.632,328.714,716.816,331.334,715.912,332.108 M461.593,709.308c-5.972-0.578-12-0.874-17.924-1.784
		c-78.25-11.985-137.557-51.977-176.053-121.258c-25.549-45.99-33.148-95.594-25.581-147.628c2.007-13.823,5.643-27.21,9.821-41.598
		c-1.694,1.374-2.565,1.998-3.332,2.731c-28.896,27.51-48.49,60.554-58.312,99.233c-3.717,14.612-7.929,29.554-5.116,44.648
		c9.59,51.48,34.498,94.354,74.738,127.968c32.557,27.182,69.934,43.698,112.188,48.417c30.813,3.438,61.265,1.753,90.885-8.337
		C463.674,710.241,462.439,709.888,461.593,709.308 M161.86,509.944c0-3.15,0.008-6.31,0.008-9.459
		c-0.715-3.555-0.88-7.091,0.123-10.619c0.889-6.371,1.752-12.737,2.681-19.101c7.461-50.652,29.719-93.902,65.278-130.501
		c18.122-18.64,39.269-33.154,61.93-45.627c-6.622-1.838-13.458,0.354-20.087-1.156c-40.79,2.41-77.476,16.032-110.495,39.976
		c-9.319,6.766-17.109,14.633-23.129,24.545c-28.766,47.33-39.409,98.246-29.604,152.844
		c12.232,68.162,49.501,118.774,109.533,152.844c1.965,1.117,3.816,3.144,6.958,2.282c-2.435-2.907-4.663-5.634-6.942-8.304
		c-19.446-22.728-33.808-48.365-43.686-76.54c-6.729-19.197-9.903-39.145-12.413-59.223
		C160.916,517.94,161.228,513.944,161.86,509.944 M280.581,569.194c0.395-1.605,0.691-2.178,0.625-2.698
		c-0.148-1.316-0.428-2.62-0.715-3.916c-6.326-28.043-7.937-56.215-3.776-84.79c1.103-7.485,4.245-14.782,1.909-22.909
		c-4.681-16.266-7.174-32.968-8.045-49.975C251.808,460.611,255.591,514.998,280.581,569.194 M196.713,432.25
		c13.966-22.23,30.228-42.754,51.466-58.213c15.235-11.076,27.392-24.047,37.098-39.997c4.689-7.717,11.128-14.371,17.916-22.958
		c-3.052,1.484-4.458,2.065-5.75,2.825c-6.317,3.723-12.808,7.193-18.87,11.294c-38.964,26.305-67.137,61.188-83.276,105.538
		C194.721,432.217,195.47,432.459,196.713,432.25 M433.486,598.225c-21.813-13.765-42.14-29.614-57.3-50.504
		c-11.466-15.8-24.989-28.348-41.456-38.458c-7.51-4.606-13.984-10.909-22.34-17.57c6.44,13.302,13.202,24.208,20.976,34.467
		c25.77,33.979,58.302,58.978,98.6,73.516C433.454,600.22,433.707,599.48,433.486,598.225 M231.952,279.155
		c25.376-5.898,50.99-7.49,76.933-4.796c13.917,1.452,27.605,5.57,41.951,0.449c12.438-4.442,26.059-3.857,39.079-6.107
		c-55.244-18.06-109.12-14.595-163.154,10.047C229.442,280.13,230.661,279.448,231.952,279.155 M601.519,365.323
		c-11.456,17.668-24.453,34.383-41.11,47.066c-18.945,14.429-35.676,30.288-47.659,50.958c-1.77,3.042-4.434,5.551-6.704,8.307
		c-2.221,2.703-4.474,5.397-6.702,8.094c51.484-25.633,87.134-65.17,108.001-119.776
		C603.188,361.136,602.661,363.563,601.519,365.323 M520.472,224.04c0.058,1.189-0.031,2.081,0.181,2.909
		c7.479,29.962,8.637,60.192,3.834,90.675c-0.789,5.018-3.158,10.441-2.032,14.99c4.45,17.936,7.214,36.078,8.646,55.281
		C550.429,345.738,544.301,253.332,520.472,224.04 M368.101,193.812c29.662,18.202,53.951,41.914,73.017,71
		c0.898,1.365,2.032,2.25,3.407,3.047c15.537,9.04,30.081,19.465,43.487,32.01c-7.707-35.859-85.536-104.926-121.096-107.69
		C367.352,192.792,367.608,193.507,368.101,193.812 M413.612,524.38c52.209,16.333,137.351,10.117,159.963-12.018
		c-1.479,0.173-2.574,0.185-3.619,0.427c-28.025,6.605-56.222,8.151-84.805,4.085c-7.148-1.009-14.131-4.302-21.641-2.315
		c-15.951,4.205-32.105,7.099-48.622,7.634C413.818,522.546,413.209,523.168,413.612,524.38 M293.166,293.497
		c-0.048-0.131-0.344-0.235-0.542-0.235c-6.942,0.071-13.893,0.136-20.828,0.218c6.565,2.452,13.408,0.48,20.087,1.156
		C292.327,294.274,293.799,295.063,293.166,293.497 M161.86,509.944c-1.686,4.01-1.883,8.005,0.155,11.961
		C161.969,517.919,161.919,513.934,161.86,509.944 M161.993,489.866c-2.014,3.521-1.851,7.058-0.123,10.619
		C161.902,496.94,161.951,493.411,161.993,489.866 M715.912,324.823v7.284l2.343-2.669
		C718.495,327.587,717.787,326.214,715.912,324.823 M327.599,84.735c2.254-0.12,3.99-0.218,5.725-0.312
		c-0.428-0.741-0.855-1.485-1.292-2.226C330.288,82.157,328.857,82.67,327.599,84.735 M438.628,601.755
		c-1.457-2.073-3.2-2.949-5.142-3.53c-0.502,0.482-1.011,0.967-1.521,1.448C433.831,601.167,435.896,601.989,438.628,601.755
		 M467.673,709.308h-6.08c0.443,0.8,0.879,1.593,1.316,2.394C464.866,711.849,466.421,711.244,467.673,709.308 M193.372,436.358
		c2.354-0.881,2.83-2.501,3.341-4.108c-0.478-0.499-0.938-1.004-1.415-1.511C193.694,432.225,193.604,434.113,193.372,436.358
		 M410.363,522.192c-0.032,0.275-0.057,0.556-0.082,0.832l3.331,1.354c0.429-0.731,0.849-1.463,1.276-2.187L410.363,522.192
		L410.363,522.192z"/>
</g>
</svg>
