<svg xmlns="http://www.w3.org/2000/svg" id="Layer_1" width="800" height="800" x="0" y="0" enable-background="new 0 0 800 800" version="1.0" viewBox="0 0 800 800" xml:space="preserve"><path fill="#4D4D4D" d="M322.221,167.855c-0.649-0.908-1.241-1.888-1.624-2.929c-1.178-1.366-2.216-2.862-2.738-4.495	c-0.261-0.844-0.458-1.627-0.516-2.471c-2.935,2.149-5.73,4.422-8.463,6.835c-8.92,7.418-17.122,15.817-24.546,24.935	c0.133,0.122,0.197,0.188,0.331,0.319l0.197,0.197c1.103,1.105,1.879,2.41,2.535,3.776c0.063,0.191,0.197,0.261,0.261,0.453	c0.133,0.197,0.133,0.392,0.261,0.522c9.176-8.724,19.396-16.339,30.399-22.719c1.56-0.908,3.057-1.758,4.623-2.599	C322.545,169.155,322.418,168.508,322.221,167.855 M686.67,341.85c-12.104-8.921-25.579-16.011-40.097-20.895	c-1.688-0.13-3.382-0.13-5.069-0.13c-11.066,0-21.809,1.168-32.156,3.518c0.128-3.518,0.261-7.163,0.261-10.812	c-1.044-0.131-2.151-0.191-3.254-0.191c-5.145-78.563-59.823-143.073-131.814-159.871c-22.586-10.612-47.847-16.534-74.399-16.534	c-14.518,0-28.711,1.824-42.382,5.275c1.241,1.363,2.216,2.993,2.802,4.881c0.267,0.777,0.388,1.496,0.452,2.282	c0.592,1.685,0.789,3.509,0.719,5.331c12.436-3.057,25.254-4.75,38.409-4.75c4.941,0,9.895,0.197,14.709,0.719	c-24.216,3.254-46.865,11.908-66.726,24.732c-1.56,0.975-3.12,2.019-4.687,3.124c-3.637,2.41-7.088,5.014-10.475,7.816	c-28.253,22.844-49.279,54.736-59.238,91.585c-10.411-2.082-21.153-3.26-32.22-3.318l1.497-5.469	c0.719-2.604,1.566-5.212,2.407-7.746c-4.292-0.85-8.654-1.502-13.01-1.955c-4.234-0.522-8.468-0.914-12.766-1.041h-0.389	c-2.407-0.127-4.878-0.194-7.355-0.194c-16.078,0-31.698,2.149-46.61,6.183c-48.884,13.216-89.891,46.802-114.038,91.518	c-12.111,22.197-19.987,47.066-22.655,73.622c0.719-0.395,1.496-0.72,2.349-0.975c1.363-0.327,2.86-0.395,4.356-0.261	c1.891-0.589,3.839-0.786,5.794-0.525c0.847-23.43,6.705-45.56,16.531-65.481c22.261-45.625,65.287-79.35,116.775-88.79	c9.57-1.821,19.465-2.731,29.558-2.731c10.545,0,21.153,0.974,31.565,2.996l4.298,0.85c-23.108,0.13-45.172,5.075-65.159,13.993	c-38.34,16.922-69.452,48.037-87.096,87.093c-10.412,22.777-16.2,48.235-16.2,75.119c0,2.926,0.058,5.854,0.191,8.79	c0.197,4.422,0.586,8.718,1.108,13.013c0.649,5.788,1.63,11.455,2.929,17.053c6.769,31.704,21.866,60.212,42.892,82.931	c-30.92-19.07-55.067-48.298-67.694-82.931c-1.63-4.426-3.063-8.915-4.292-13.472c-4.298,0.783-8.469,1.952-12.633,3.188	c0.91,3.451,1.954,6.902,3.126,10.284c18.357,54.872,63.014,97.773,118.927,113.591c24.923,15.098,54.023,23.758,85.008,23.758	h395.179C714.465,627.02,778,561.013,778,479.65C778,416.704,740.05,362.942,686.67,341.85 M638.83,332.216	c-0.911-0.067-1.821-0.067-2.731-0.067c-10.156,0-20.052,1.108-29.616,3.257c0.128-2.929,0.255-5.928,0.255-8.988	C617.868,327.007,628.616,329.025,638.83,332.216 M263.639,221.035c-2.535,4.753-4.884,9.57-6.902,14.582	c2.61-4.75,5.406-9.307,8.399-13.729C264.613,221.626,264.097,221.362,263.639,221.035"/><path fill="#E4F2FC" d="M778,479.648c0,81.364-63.535,147.371-141.907,147.371H240.919c-30.979,0-60.079-8.66-85.014-23.758	c-13.862-8.335-26.426-18.615-37.359-30.596l-0.064-0.064c-21.026-22.719-36.129-51.227-42.898-82.931	c-1.305-5.598-2.28-11.256-2.929-17.053c-0.522-4.295-0.917-8.591-1.108-13.016c-0.128-2.933-0.197-5.861-0.197-8.787	c0-26.884,5.794-52.341,16.211-75.119c17.639-39.056,48.756-70.171,87.096-87.093c19.982-8.918,42.046-13.866,65.154-13.993h1.693	c11.067,0.058,21.809,1.236,32.22,3.318c9.959-36.849,30.991-68.741,59.238-91.585c3.381-2.802,6.832-5.406,10.475-7.816	c1.566-1.105,3.132-2.149,4.692-3.124c19.849-12.824,42.498-21.478,66.72-24.732c7.291-1.038,14.709-1.563,22.261-1.563	c12.889,0,25.383,1.499,37.43,4.359c71.985,16.797,126.67,81.307,131.809,159.871c0.262,3.97,0.395,8.007,0.395,12.041v1.038	c0,3.06-0.133,6.059-0.261,8.988c9.564-2.149,19.46-3.257,29.61-3.257c0.916,0,1.832,0,2.737,0.067	c16.861,0.322,32.934,3.646,47.846,9.634C740.055,362.942,778,416.704,778,479.648"/><path fill="#2887C8" d="M322.94,169.68c-1.566,0.841-3.063,1.69-4.623,2.602c-11.003,6.377-21.223,13.993-30.399,22.716	c-0.133-0.13-0.133-0.325-0.261-0.522c-0.063-0.191-0.197-0.261-0.261-0.453c-0.656-1.366-1.433-2.671-2.541-3.776l-0.191-0.197	c-0.133-0.13-0.197-0.194-0.331-0.325c-0.325-0.328-0.65-0.65-0.975-0.975l-0.975-0.98l-0.069,0.13	c-0.841-0.713-1.561-1.497-2.535-2.143c-0.197-0.133-0.458-0.197-0.656-0.328c8.66-8.202,18.097-15.426,28.259-21.739	c3.248-2.019,6.571-3.973,9.959-5.797v0.067c0.058,0.844,0.255,1.627,0.516,2.471c0.522,1.633,1.56,3.129,2.738,4.495	c0.383,1.042,0.975,2.021,1.624,2.929C322.412,168.508,322.545,169.158,322.94,169.68"/><path fill="#2887C8" d="M686.867,341.98c-0.452,0.646-0.905,1.366-1.229,2.082c-2.088,1.041-3.846,2.604-4.953,4.748	c-0.262,0.522-0.453,1.044-0.65,1.569c-0.516,0.646-0.91,1.299-1.299,1.946c-11.978-8.785-25.388-15.62-39.905-20.109	c-10.22-3.19-20.962-5.212-32.087-5.798c-2.471-0.191-5.081-0.261-7.615-0.261c-9.57,0-19.071,0.98-28.253,2.999l-8.266,1.757	l0.389-8.462c0.197-3.06,0.261-6.183,0.261-9.373c0-84.944-65.35-154.987-148.409-162.406c-4.82-0.525-9.762-0.719-14.715-0.719	c-13.149,0-25.968,1.694-38.403,4.75c0.07-1.815-0.127-3.646-0.713-5.333c-0.064-0.783-0.197-1.502-0.458-2.282	c-0.592-1.888-1.566-3.515-2.796-4.881c13.666-3.451,27.858-5.27,42.371-5.27c26.559,0,51.819,5.922,74.399,16.531	c60.084,28.058,101.746,89.05,101.746,159.61v1.818c7.482-1.172,15.168-1.755,22.848-1.755c2.407,0,4.814,0.066,7.221,0.197	c1.103,0,2.216,0.061,3.254,0.191c12.889,0.914,25.254,3.457,36.977,7.424c14.512,4.881,27.992,11.977,40.091,20.892	C686.739,341.914,686.804,341.914,686.867,341.98"/><path fill="#2887C8" d="M729.156,410.005c1.032-0.8,1.677-1.294,0.093-0.029c0.11-0.028,0.203-0.069,0.302-0.093	c2.338-1.682,4.843-2.781,7.384-3.054c-3.596-8.999-7.992-17.598-13.195-25.64c-0.76,0.476-1.601,0.855-2.512,1.157	c-1.062,1.865-2.546,3.512-4.501,4.652c-0.876,0.51-1.804,0.838-2.755,1.099c-0.244,0.29-0.533,0.539-0.801,0.806	c4.67,7.317,8.607,15.133,11.839,23.299C726.158,411.229,727.544,410.48,729.156,410.005"/><path fill="#2887C8" d="M744.486,432.115c-0.557,0.063-1.097,0.165-1.705,0.165c-0.534,0-0.998-0.096-1.497-0.147	c-0.028,0.012-0.058,0.035-0.086,0.046c-2.014,1.787-4.71,2.952-8.179,2.952c-0.435,0-0.801-0.09-1.212-0.118	c1.734,8.587,2.696,17.455,2.696,26.556c0,9.788-1.194,19.286-3.195,28.479c0.979,0.374,1.896,0.835,2.686,1.418	c0.62-0.125,1.247-0.255,1.873-0.284c3.179-0.143,5.882,1.047,8.016,2.935c2.355-10.483,3.632-21.364,3.632-32.548	C747.515,451.477,746.43,441.639,744.486,432.115"/><path fill="#2887C8" d="M733.414,524.564c-23.758,50.378-74.985,85.402-134.292,85.402H203.943c-16.658,0-32.806-2.347-48.037-6.705	C99.992,587.444,55.342,544.543,36.99,489.671c-1.178-3.382-2.216-6.833-3.132-10.284c4.17-1.235,8.334-2.404,12.627-3.188	c1.241,4.557,2.674,9.046,4.298,13.472c12.627,34.633,36.779,63.86,67.7,82.931l0.064,0.064	c24.865,15.426,54.093,24.279,85.396,24.279h395.179c53.443,0,99.525-31.246,121.531-76.29c1.299,0.458,2.668,0.72,4.229,0.72	c0.133,0,0.261,0,0.395-0.067C727.23,523.263,729.894,524.498,733.414,524.564"/><path fill="#2887C8" d="M265.135,221.881c-2.993,4.425-5.789,8.982-8.399,13.735c-0.197,0.261-0.325,0.522-0.452,0.847	c-4.298,7.877-7.946,16.212-10.875,24.93c-0.841,2.54-1.694,5.145-2.407,7.749l-1.497,5.466l-0.063,0.325l-1.63-0.325l-4.298-0.85	c-10.412-2.013-21.02-2.993-31.565-2.993c-10.092,0-19.987,0.913-29.558,2.731c-51.488,9.443-94.514,43.159-116.775,88.787	c-9.826,19.921-15.684,42.051-16.531,65.488c-1.955-0.262-3.903-0.064-5.794,0.519c-1.497-0.131-2.993-0.066-4.356,0.261	c-0.853,0.262-1.63,0.589-2.349,0.975c-0.197,0.131-0.389,0.2-0.586,0.325c0.649-27.795,7.749-54.09,19.918-77.265	c23.241-44.717,65.229-78.242,115.476-90.089c13.016-3.123,26.623-4.747,40.555-4.747c5.075,0,10.22,0.191,15.295,0.649h0.389	c4.234,0.392,8.398,0.908,12.569,1.561c0.064-0.194,0.127-0.325,0.197-0.522c5.197-16.397,12.882-31.634,22.325-45.43	c1.561,2.079,3.707,3.576,6.119,4.489c0.777,1.041,1.688,1.824,2.796,2.538C264.097,221.359,264.613,221.62,265.135,221.881"/><polygon fill="#E4F0CC" points="319.773 521.328 216.941 418.496 319.773 315.665 365.797 361.695 309.002 418.496 365.797 475.298"/><polygon fill="none" stroke="#0B9D49" stroke-linecap="round" stroke-linejoin="round" stroke-miterlimit="10" stroke-width="1.5" points="319.773 521.328 216.941 418.496 319.773 315.665 365.797 361.695 309.002 418.496 365.797 475.298"/><polygon fill="#E4F0CC" points="450.335 521.328 404.311 475.298 461.112 418.496 404.311 361.695 450.335 315.665 553.173 418.496"/><polygon fill="none" stroke="#0B9D49" stroke-linecap="round" stroke-linejoin="round" stroke-miterlimit="10" stroke-width="1.5" points="450.335 521.328 404.311 475.298 461.112 418.496 404.311 361.695 450.335 315.665 553.173 418.496"/></svg>