<svg xmlns="http://www.w3.org/2000/svg" id="Layer_1" width="800" height="800" x="0" y="0" enable-background="new 0 0 800 800" version="1.0" viewBox="0 0 800 800" xml:space="preserve"><rect width="338.299" height="478.723" x="228.472" y="152.089" fill="#B6DDF5"/><rect width="338.299" height="478.723" x="228.472" y="152.089" fill="none" stroke="#2887C8" stroke-linecap="round" stroke-linejoin="round" stroke-miterlimit="10"/><path fill="#FFF" d="M588.203,532.14v72.634c0,3.758-3.043,6.766-6.769,6.766H468.647c-0.067-3.689-3.043-6.664-6.766-6.664	H333.359c-3.718,0-6.698,2.975-6.763,6.664H213.804c-3.718,0-6.76-3.008-6.76-6.766V532.14c0-3.721,3.042-6.766,6.76-6.766h367.631	C585.16,525.374,588.203,528.419,588.203,532.14"/><path fill="none" stroke="#2887C8" stroke-miterlimit="10" d="M588.203,532.14v72.634c0,3.758-3.043,6.766-6.769,6.766H468.647	c-0.067-3.689-3.043-6.664-6.766-6.664H333.359c-3.718,0-6.698,2.975-6.763,6.664H213.804c-3.718,0-6.76-3.008-6.76-6.766V532.14	c0-3.721,3.042-6.766,6.76-6.766h367.631C585.16,525.374,588.203,528.419,588.203,532.14z"/><path fill="#E4F0CC" d="M568.975,565.074c0,6.354-5.153,11.511-11.511,11.511s-11.517-5.156-11.517-11.511	c0-6.358,5.159-11.517,11.517-11.517S568.975,558.716,568.975,565.074"/><path fill="#2887C8" d="M565.167,565.074c0,4.252-3.453,7.705-7.706,7.705c-4.255,0-7.7-3.453-7.7-7.705	c0-4.256,3.445-7.706,7.7-7.706C561.714,557.368,565.167,560.818,565.167,565.074"/><path fill="#E4F0CC" d="M531.737,565.074c0,6.354-5.152,11.511-11.511,11.511c-6.354,0-11.517-5.156-11.517-11.511	c0-6.358,5.162-11.517,11.517-11.517C526.585,553.558,531.737,558.716,531.737,565.074"/><path fill="#2887C8" d="M527.933,565.074c0,4.252-3.453,7.705-7.706,7.705c-4.255,0-7.708-3.453-7.708-7.705	c0-4.256,3.453-7.706,7.708-7.706C524.479,557.368,527.933,560.818,527.933,565.074"/><path fill="#2887C8" d="M242.846,554.554c0,3.734-3.034,6.766-6.769,6.766s-6.766-3.031-6.766-6.766	c0-3.735,3.031-6.766,6.766-6.766S242.846,550.818,242.846,554.554 M236.077,568.097c-3.735,0-6.766,3.028-6.766,6.769	c0,3.734,3.031,6.766,6.766,6.766s6.769-3.031,6.769-6.766C242.846,571.125,239.812,568.097,236.077,568.097"/><path fill="#2887C8" d="M271.051,554.554c0,3.734-3.031,6.766-6.766,6.766c-3.735,0-6.766-3.031-6.766-6.766	c0-3.735,3.031-6.766,6.766-6.766C268.02,547.788,271.051,550.818,271.051,554.554 M264.286,568.097	c-3.735,0-6.766,3.028-6.766,6.769c0,3.734,3.031,6.766,6.766,6.766c3.734,0,6.766-3.031,6.766-6.766	C271.051,571.125,268.02,568.097,264.286,568.097"/><path fill="#2887C8" d="M299.26,554.554c0,3.734-3.031,6.766-6.766,6.766c-3.734,0-6.766-3.031-6.766-6.766	c0-3.735,3.031-6.766,6.766-6.766C296.229,547.788,299.26,550.818,299.26,554.554 M292.494,568.097	c-3.734,0-6.766,3.028-6.766,6.769c0,3.734,3.031,6.766,6.766,6.766c3.735,0,6.766-3.031,6.766-6.766	C299.26,571.125,296.229,568.097,292.494,568.097"/><path fill="#2887C8" d="M327.469,554.554c0,3.734-3.031,6.766-6.766,6.766c-3.735,0-6.766-3.031-6.766-6.766	c0-3.735,3.031-6.766,6.766-6.766C324.438,547.788,327.469,550.818,327.469,554.554 M320.703,568.097	c-3.735,0-6.766,3.028-6.766,6.769c0,3.734,3.031,6.766,6.766,6.766c3.734,0,6.766-3.031,6.766-6.766	C327.469,571.125,324.438,568.097,320.703,568.097"/><path fill="#2887C8" d="M355.677,554.554c0,3.734-3.031,6.766-6.766,6.766s-6.769-3.031-6.769-6.766	c0-3.735,3.034-6.766,6.769-6.766S355.677,550.818,355.677,554.554 M348.912,568.097c-3.735,0-6.769,3.028-6.769,6.769	c0,3.734,3.034,6.766,6.769,6.766s6.766-3.031,6.766-6.766C355.677,571.125,352.646,568.097,348.912,568.097"/><path fill="#2887C8" d="M383.886,554.554c0,3.734-3.031,6.766-6.766,6.766c-3.734,0-6.766-3.031-6.766-6.766	c0-3.735,3.031-6.766,6.766-6.766C380.855,547.788,383.886,550.818,383.886,554.554 M377.12,568.097	c-3.734,0-6.766,3.028-6.766,6.769c0,3.734,3.031,6.766,6.766,6.766c3.735,0,6.766-3.031,6.766-6.766	C383.886,571.125,380.855,568.097,377.12,568.097"/><path fill="#2887C8" d="M412.095,554.554c0,3.734-3.031,6.766-6.766,6.766c-3.735,0-6.769-3.031-6.769-6.766	c0-3.735,3.033-6.766,6.769-6.766C409.063,547.788,412.095,550.818,412.095,554.554 M405.329,568.097	c-3.735,0-6.769,3.028-6.769,6.769c0,3.734,3.033,6.766,6.769,6.766c3.734,0,6.766-3.031,6.766-6.766	C412.095,571.125,409.063,568.097,405.329,568.097"/><path fill="#FFF" d="M588.203,426.701v72.64c0,3.751-3.043,6.761-6.769,6.761H468.647c-0.067-3.685-3.043-6.665-6.766-6.665	H333.359c-3.718,0-6.698,2.98-6.763,6.665H213.804c-3.718,0-6.76-3.01-6.76-6.761v-72.64c0-3.721,3.042-6.766,6.76-6.766h367.631	C585.16,419.936,588.203,422.98,588.203,426.701"/><path fill="none" stroke="#2887C8" stroke-miterlimit="10" d="M588.203,426.701v72.64c0,3.751-3.043,6.761-6.769,6.761H468.647	c-0.067-3.685-3.043-6.665-6.766-6.665H333.359c-3.718,0-6.698,2.98-6.763,6.665H213.804c-3.718,0-6.76-3.01-6.76-6.761v-72.64	c0-3.721,3.042-6.766,6.76-6.766h367.631C585.16,419.936,588.203,422.98,588.203,426.701z"/><path fill="#E4F0CC" d="M568.975,459.635c0,6.361-5.153,11.518-11.511,11.518s-11.517-5.156-11.517-11.518	c0-6.357,5.159-11.51,11.517-11.51S568.975,453.277,568.975,459.635"/><path fill="#0B9D49" d="M565.167,459.635c0,4.253-3.453,7.706-7.706,7.706c-4.255,0-7.7-3.453-7.7-7.706	c0-4.255,3.445-7.699,7.7-7.699C561.714,451.936,565.167,455.38,565.167,459.635"/><path fill="#E4F0CC" d="M531.737,459.635c0,6.361-5.152,11.518-11.511,11.518c-6.354,0-11.517-5.156-11.517-11.518	c0-6.357,5.162-11.51,11.517-11.51C526.585,448.125,531.737,453.277,531.737,459.635"/><path fill="#0B9D49" d="M527.933,459.635c0,4.253-3.453,7.706-7.706,7.706c-4.255,0-7.708-3.453-7.708-7.706	c0-4.255,3.453-7.699,7.708-7.699C524.479,451.936,527.933,455.38,527.933,459.635"/><path fill="#2887C8" d="M242.846,449.115c0,3.74-3.034,6.766-6.769,6.766s-6.766-3.025-6.766-6.766c0-3.734,3.031-6.76,6.766-6.76	S242.846,445.381,242.846,449.115 M236.077,462.658c-3.735,0-6.766,3.033-6.766,6.769c0,3.734,3.031,6.766,6.766,6.766	s6.769-3.031,6.769-6.766C242.846,465.691,239.812,462.658,236.077,462.658"/><path fill="#2887C8" d="M271.051,449.115c0,3.74-3.031,6.766-6.766,6.766c-3.735,0-6.766-3.025-6.766-6.766	c0-3.734,3.031-6.76,6.766-6.76C268.02,442.355,271.051,445.381,271.051,449.115 M264.286,462.658c-3.735,0-6.766,3.033-6.766,6.769	c0,3.734,3.031,6.766,6.766,6.766c3.734,0,6.766-3.031,6.766-6.766C271.051,465.691,268.02,462.658,264.286,462.658"/><path fill="#2887C8" d="M299.26,449.115c0,3.74-3.031,6.766-6.766,6.766c-3.734,0-6.766-3.025-6.766-6.766	c0-3.734,3.031-6.76,6.766-6.76C296.229,442.355,299.26,445.381,299.26,449.115 M292.494,462.658c-3.734,0-6.766,3.033-6.766,6.769	c0,3.734,3.031,6.766,6.766,6.766c3.735,0,6.766-3.031,6.766-6.766C299.26,465.691,296.229,462.658,292.494,462.658"/><path fill="#2887C8" d="M327.469,449.115c0,3.74-3.031,6.766-6.766,6.766c-3.735,0-6.766-3.025-6.766-6.766	c0-3.734,3.031-6.76,6.766-6.76C324.438,442.355,327.469,445.381,327.469,449.115 M320.703,462.658	c-3.735,0-6.766,3.033-6.766,6.769c0,3.734,3.031,6.766,6.766,6.766c3.734,0,6.766-3.031,6.766-6.766	C327.469,465.691,324.438,462.658,320.703,462.658"/><path fill="#2887C8" d="M355.677,449.115c0,3.74-3.031,6.766-6.766,6.766s-6.769-3.025-6.769-6.766c0-3.734,3.034-6.76,6.769-6.76	S355.677,445.381,355.677,449.115 M348.912,462.658c-3.735,0-6.769,3.033-6.769,6.769c0,3.734,3.034,6.766,6.769,6.766	s6.766-3.031,6.766-6.766C355.677,465.691,352.646,462.658,348.912,462.658"/><path fill="#2887C8" d="M383.886,449.115c0,3.74-3.031,6.766-6.766,6.766c-3.734,0-6.766-3.025-6.766-6.766	c0-3.734,3.031-6.76,6.766-6.76C380.855,442.355,383.886,445.381,383.886,449.115 M377.12,462.658c-3.734,0-6.766,3.033-6.766,6.769	c0,3.734,3.031,6.766,6.766,6.766c3.735,0,6.766-3.031,6.766-6.766C383.886,465.691,380.855,462.658,377.12,462.658"/><path fill="#2887C8" d="M412.095,449.115c0,3.74-3.031,6.766-6.766,6.766c-3.735,0-6.769-3.025-6.769-6.766	c0-3.734,3.033-6.76,6.769-6.76C409.063,442.355,412.095,445.381,412.095,449.115 M405.329,462.658	c-3.735,0-6.769,3.033-6.769,6.769c0,3.734,3.033,6.766,6.769,6.766c3.734,0,6.766-3.031,6.766-6.766	C412.095,465.691,409.063,462.658,405.329,462.658"/><path fill="#FFF" d="M588.203,321.269v72.634c0,3.754-3.043,6.763-6.769,6.763H468.647c-0.067-3.684-3.043-6.664-6.766-6.664	H333.359c-3.718,0-6.698,2.98-6.763,6.664H213.804c-3.718,0-6.76-3.008-6.76-6.763v-72.634c0-3.727,3.042-6.769,6.76-6.769h367.631	C585.16,314.5,588.203,317.542,588.203,321.269"/><path fill="none" stroke="#2887C8" stroke-miterlimit="10" d="M588.203,321.269v72.634c0,3.754-3.043,6.763-6.769,6.763H468.647	c-0.067-3.684-3.043-6.664-6.766-6.664H333.359c-3.718,0-6.698,2.98-6.763,6.664H213.804c-3.718,0-6.76-3.008-6.76-6.763v-72.634	c0-3.727,3.042-6.769,6.76-6.769h367.631C585.16,314.5,588.203,317.542,588.203,321.269z"/><path fill="#E4F0CC" d="M568.975,354.197c0,6.36-5.153,11.517-11.511,11.517s-11.517-5.156-11.517-11.517	c0-6.355,5.159-11.508,11.517-11.508S568.975,347.842,568.975,354.197"/><path fill="#0B9D49" d="M565.167,354.197c0,4.255-3.453,7.708-7.706,7.708c-4.255,0-7.7-3.453-7.7-7.708	c0-4.252,3.445-7.706,7.7-7.706C561.714,346.491,565.167,349.944,565.167,354.197"/><path fill="#E4F0CC" d="M531.737,354.197c0,6.36-5.152,11.517-11.511,11.517c-6.354,0-11.517-5.156-11.517-11.517	c0-6.355,5.162-11.508,11.517-11.508C526.585,342.688,531.737,347.842,531.737,354.197"/><path fill="#0B9D49" d="M527.933,354.197c0,4.255-3.453,7.708-7.706,7.708c-4.255,0-7.708-3.453-7.708-7.708	c0-4.252,3.453-7.706,7.708-7.706C524.479,346.491,527.933,349.944,527.933,354.197"/><path fill="#2887C8" d="M242.846,343.679c0,3.735-3.034,6.766-6.769,6.766s-6.766-3.031-6.766-6.766s3.031-6.769,6.766-6.769	S242.846,339.944,242.846,343.679 M236.077,357.225c-3.735,0-6.766,3.025-6.766,6.766c0,3.735,3.031,6.766,6.766,6.766	s6.769-3.031,6.769-6.766C242.846,360.25,239.812,357.225,236.077,357.225"/><path fill="#2887C8" d="M271.051,343.679c0,3.735-3.031,6.766-6.766,6.766c-3.735,0-6.766-3.031-6.766-6.766	s3.031-6.769,6.766-6.769C268.02,336.911,271.051,339.944,271.051,343.679 M264.286,357.225c-3.735,0-6.766,3.025-6.766,6.766	c0,3.735,3.031,6.766,6.766,6.766c3.734,0,6.766-3.031,6.766-6.766C271.051,360.25,268.02,357.225,264.286,357.225"/><path fill="#2887C8" d="M299.26,343.679c0,3.735-3.031,6.766-6.766,6.766c-3.734,0-6.766-3.031-6.766-6.766s3.031-6.769,6.766-6.769	C296.229,336.911,299.26,339.944,299.26,343.679 M292.494,357.225c-3.734,0-6.766,3.025-6.766,6.766	c0,3.735,3.031,6.766,6.766,6.766c3.735,0,6.766-3.031,6.766-6.766C299.26,360.25,296.229,357.225,292.494,357.225"/><path fill="#2887C8" d="M327.469,343.679c0,3.735-3.031,6.766-6.766,6.766c-3.735,0-6.766-3.031-6.766-6.766	s3.031-6.769,6.766-6.769C324.438,336.911,327.469,339.944,327.469,343.679 M320.703,357.225c-3.735,0-6.766,3.025-6.766,6.766	c0,3.735,3.031,6.766,6.766,6.766c3.734,0,6.766-3.031,6.766-6.766C327.469,360.25,324.438,357.225,320.703,357.225"/><path fill="#2887C8" d="M355.677,343.679c0,3.735-3.031,6.766-6.766,6.766s-6.769-3.031-6.769-6.766s3.034-6.769,6.769-6.769	S355.677,339.944,355.677,343.679 M348.912,357.225c-3.735,0-6.769,3.025-6.769,6.766c0,3.735,3.034,6.766,6.769,6.766	s6.766-3.031,6.766-6.766C355.677,360.25,352.646,357.225,348.912,357.225"/><path fill="#2887C8" d="M383.886,343.679c0,3.735-3.031,6.766-6.766,6.766c-3.734,0-6.766-3.031-6.766-6.766	s3.031-6.769,6.766-6.769C380.855,336.911,383.886,339.944,383.886,343.679 M377.12,357.225c-3.734,0-6.766,3.025-6.766,6.766	c0,3.735,3.031,6.766,6.766,6.766c3.735,0,6.766-3.031,6.766-6.766C383.886,360.25,380.855,357.225,377.12,357.225"/><path fill="#2887C8" d="M412.095,343.679c0,3.735-3.031,6.766-6.766,6.766c-3.735,0-6.769-3.031-6.769-6.766	s3.033-6.769,6.769-6.769C409.063,336.911,412.095,339.944,412.095,343.679 M405.329,357.225c-3.735,0-6.769,3.025-6.769,6.766	c0,3.735,3.033,6.766,6.769,6.766c3.734,0,6.766-3.031,6.766-6.766C412.095,360.25,409.063,357.225,405.329,357.225"/><path fill="#FFF" d="M588.203,215.83v72.634c0,3.757-3.043,6.766-6.769,6.766H468.647c-0.067-3.689-3.043-6.665-6.766-6.665	H333.359c-3.718,0-6.698,2.975-6.763,6.665H213.804c-3.718,0-6.76-3.009-6.76-6.766V215.83c0-3.72,3.042-6.766,6.76-6.766h367.631	C585.16,209.064,588.203,212.109,588.203,215.83"/><path fill="none" stroke="#2887C8" stroke-miterlimit="10" d="M588.203,215.83v72.634c0,3.757-3.043,6.766-6.769,6.766H468.647	c-0.067-3.689-3.043-6.665-6.766-6.665H333.359c-3.718,0-6.698,2.975-6.763,6.665H213.804c-3.718,0-6.76-3.009-6.76-6.766V215.83	c0-3.72,3.042-6.766,6.76-6.766h367.631C585.16,209.064,588.203,212.109,588.203,215.83z"/><path fill="#E4F0CC" d="M568.975,248.764c0,6.355-5.153,11.511-11.511,11.511s-11.517-5.156-11.517-11.511	c0-6.357,5.159-11.517,11.517-11.517S568.975,242.406,568.975,248.764"/><path fill="#0B9D49" d="M565.167,248.764c0,4.253-3.453,7.7-7.706,7.7c-4.255,0-7.7-3.447-7.7-7.7c0-4.255,3.445-7.706,7.7-7.706	C561.714,241.058,565.167,244.508,565.167,248.764"/><path fill="#E4F0CC" d="M531.737,248.764c0,6.355-5.152,11.511-11.511,11.511c-6.354,0-11.517-5.156-11.517-11.511	c0-6.357,5.162-11.517,11.517-11.517C526.585,237.247,531.737,242.406,531.737,248.764"/><path fill="#0B9D49" d="M527.933,248.764c0,4.253-3.453,7.7-7.706,7.7c-4.255,0-7.708-3.447-7.708-7.7	c0-4.255,3.453-7.706,7.708-7.706C524.479,241.058,527.933,244.508,527.933,248.764"/><path fill="#2887C8" d="M242.846,238.244c0,3.735-3.034,6.766-6.769,6.766s-6.766-3.031-6.766-6.766c0-3.74,3.031-6.766,6.766-6.766	S242.846,234.503,242.846,238.244 M236.077,251.787c-3.735,0-6.766,3.028-6.766,6.769c0,3.735,3.031,6.766,6.766,6.766	s6.769-3.031,6.769-6.766C242.846,254.815,239.812,251.787,236.077,251.787"/><path fill="#2887C8" d="M271.051,238.244c0,3.735-3.031,6.766-6.766,6.766c-3.735,0-6.766-3.031-6.766-6.766	c0-3.74,3.031-6.766,6.766-6.766C268.02,231.478,271.051,234.503,271.051,238.244 M264.286,251.787	c-3.735,0-6.766,3.028-6.766,6.769c0,3.735,3.031,6.766,6.766,6.766c3.734,0,6.766-3.031,6.766-6.766	C271.051,254.815,268.02,251.787,264.286,251.787"/><path fill="#2887C8" d="M299.26,238.244c0,3.735-3.031,6.766-6.766,6.766c-3.734,0-6.766-3.031-6.766-6.766	c0-3.74,3.031-6.766,6.766-6.766C296.229,231.478,299.26,234.503,299.26,238.244 M292.494,251.787c-3.734,0-6.766,3.028-6.766,6.769	c0,3.735,3.031,6.766,6.766,6.766c3.735,0,6.766-3.031,6.766-6.766C299.26,254.815,296.229,251.787,292.494,251.787"/><path fill="#2887C8" d="M327.469,238.244c0,3.735-3.031,6.766-6.766,6.766c-3.735,0-6.766-3.031-6.766-6.766	c0-3.74,3.031-6.766,6.766-6.766C324.438,231.478,327.469,234.503,327.469,238.244 M320.703,251.787	c-3.735,0-6.766,3.028-6.766,6.769c0,3.735,3.031,6.766,6.766,6.766c3.734,0,6.766-3.031,6.766-6.766	C327.469,254.815,324.438,251.787,320.703,251.787"/><path fill="#2887C8" d="M355.677,238.244c0,3.735-3.031,6.766-6.766,6.766s-6.769-3.031-6.769-6.766c0-3.74,3.034-6.766,6.769-6.766	S355.677,234.503,355.677,238.244 M348.912,251.787c-3.735,0-6.769,3.028-6.769,6.769c0,3.735,3.034,6.766,6.769,6.766	s6.766-3.031,6.766-6.766C355.677,254.815,352.646,251.787,348.912,251.787"/><path fill="#2887C8" d="M383.886,238.244c0,3.735-3.031,6.766-6.766,6.766c-3.734,0-6.766-3.031-6.766-6.766	c0-3.74,3.031-6.766,6.766-6.766C380.855,231.478,383.886,234.503,383.886,238.244 M377.12,251.787	c-3.734,0-6.766,3.028-6.766,6.769c0,3.735,3.031,6.766,6.766,6.766c3.735,0,6.766-3.031,6.766-6.766	C383.886,254.815,380.855,251.787,377.12,251.787"/><path fill="#2887C8" d="M412.095,238.244c0,3.735-3.031,6.766-6.766,6.766c-3.735,0-6.769-3.031-6.769-6.766	c0-3.74,3.033-6.766,6.769-6.766C409.063,231.478,412.095,234.503,412.095,238.244 M405.329,251.787	c-3.735,0-6.769,3.028-6.769,6.769c0,3.735,3.033,6.766,6.769,6.766c3.734,0,6.766-3.031,6.766-6.766	C412.095,254.815,409.063,251.787,405.329,251.787"/><path fill="#FFF" d="M575.788,189.791H219.455c-6.859,0-12.417-5.556-12.417-12.409v-51.968c0-6.856,5.558-12.415,12.417-12.415	h356.333c6.854,0,12.418,5.559,12.418,12.415v51.968C588.206,184.235,582.642,189.791,575.788,189.791"/><path fill="none" stroke="#2887C8" stroke-miterlimit="10" d="M575.788,189.791H219.455c-6.859,0-12.417-5.556-12.417-12.409	v-51.968c0-6.856,5.558-12.415,12.417-12.415h356.333c6.854,0,12.418,5.559,12.418,12.415v51.968	C588.206,184.235,582.642,189.791,575.788,189.791z"/><path fill="#E4F0CC" d="M325.127,173.405h-84.874c-4.587,0-8.339-3.749-8.339-8.344v-25.949c0-4.588,3.752-8.339,8.339-8.339h84.874	c4.588,0,8.348,3.751,8.348,8.339v25.949C333.475,169.657,329.715,173.405,325.127,173.405"/><path fill="#2887C8" d="M326.649,175.111h-87.916c-4.703,0-8.524-3.828-8.524-8.525v-28.994c0-4.703,3.822-8.53,8.524-8.53h87.916	c4.703,0,8.525,3.828,8.525,8.53v28.994C335.174,171.283,331.353,175.111,326.649,175.111 M238.733,132.473	c-2.825,0-5.119,2.296-5.119,5.119v28.994c0,2.817,2.294,5.117,5.119,5.117h87.916c2.82,0,5.12-2.3,5.12-5.117v-28.994	c0-2.823-2.299-5.119-5.12-5.119H238.733z"/><path fill="#0B9D49" d="M247.72,163.713h-1.671c-1.599,0-2.905-1.306-2.905-2.904v-1.672c0-1.602,1.306-2.91,2.905-2.91h1.671	c1.596,0,2.91,1.309,2.91,2.91v1.672C250.63,162.407,249.315,163.713,247.72,163.713"/><path fill="#0B9D49" d="M266.438,163.713h-1.672c-1.599,0-2.904-1.306-2.904-2.904v-17.441c0-1.596,1.306-2.905,2.904-2.905h1.672	c1.596,0,2.91,1.309,2.91,2.905v17.441C269.349,162.407,268.034,163.713,266.438,163.713"/><path fill="#0B9D49" d="M285.157,163.713h-1.672c-1.599,0-2.904-1.306-2.904-2.904v-6.226c0-1.596,1.306-2.904,2.904-2.904h1.672	c1.601,0,2.91,1.309,2.91,2.904v6.226C288.067,162.407,286.758,163.713,285.157,163.713"/><path fill="#0B9D49" d="M322.594,163.713h-1.672c-1.596,0-2.904-1.306-2.904-2.904v-17.441c0-1.596,1.309-2.905,2.904-2.905h1.672	c1.604,0,2.913,1.309,2.913,2.905v17.441C325.507,162.407,324.198,163.713,322.594,163.713"/><path fill="#0B9D49" d="M303.875,163.713h-1.671c-1.596,0-2.905-1.306-2.905-2.904v-17.441c0-1.596,1.309-2.905,2.905-2.905h1.671	c1.602,0,2.91,1.309,2.91,2.905v17.441C306.786,162.407,305.477,163.713,303.875,163.713"/><path fill="#E4F0CC" d="M412.362,152.089c0,6.355-5.153,11.511-11.511,11.511c-6.357,0-11.516-5.156-11.516-11.511	c0-6.358,5.159-11.517,11.516-11.517C407.209,140.573,412.362,145.731,412.362,152.089"/><path fill="#0B9D49" d="M408.555,152.089c0,4.252-3.453,7.706-7.706,7.706s-7.7-3.453-7.7-7.706c0-4.255,3.447-7.706,7.7-7.706	S408.555,147.834,408.555,152.089"/><path fill="#E4F0CC" d="M375.128,152.089c0,6.355-5.153,11.511-11.511,11.511s-11.517-5.156-11.517-11.511	c0-6.358,5.159-11.517,11.517-11.517S375.128,145.731,375.128,152.089"/><path fill="#0B9D49" d="M371.32,152.089c0,4.252-3.453,7.706-7.706,7.706c-4.256,0-7.706-3.453-7.706-7.706	c0-4.255,3.45-7.706,7.706-7.706C367.867,144.384,371.32,147.834,371.32,152.089"/><path fill="#2887C8" d="M503.028,166.24h-2.449c-1.385,0-2.519-1.137-2.519-2.519v-24.646c0-1.391,1.134-2.522,2.519-2.522h2.449	c1.385,0,2.519,1.131,2.519,2.522v24.646C505.547,165.103,504.413,166.24,503.028,166.24"/><path fill="#2887C8" d="M531.093,166.24h-2.451c-1.382,0-2.519-1.137-2.519-2.519v-24.646c0-1.391,1.137-2.522,2.519-2.522h2.451	c1.382,0,2.52,1.131,2.52,2.522v24.646C533.612,165.103,532.475,166.24,531.093,166.24"/><path fill="#2887C8" d="M559.155,166.24h-2.448c-1.385,0-2.521-1.137-2.521-2.519v-24.646c0-1.391,1.137-2.522,2.521-2.522h2.448	c1.385,0,2.52,1.131,2.52,2.522v24.646C561.675,165.103,560.54,166.24,559.155,166.24"/><path fill="#E4F0CC" d="M31.842,557.615c0,28.131,20.714,54.245,45.534,64.112h336.813c3.442-1.784,6.605-4.066,9.36-6.755	c7.563-7.277,12.271-17.479,12.271-28.727c0-22.099-18.088-40.076-40.348-40.076c-7.21,0-13.99,1.88-19.833,5.197	c0.935-3.742,1.441-7.635,1.441-11.651c0-26.646-21.829-48.314-48.672-48.314c-8.015,0-15.606,1.931-22.282,5.372	c-11.562-38.196-47.304-66.093-89.495-66.093c-42.171,0-77.916,27.896-89.472,66.065c-8.502-3.893-17.99-6.049-27.927-6.049	C62.074,490.697,31.842,520.73,31.842,557.615"/><path fill="#B6DDF5" d="M31.842,557.615c0,28.131,20.714,54.245,45.534,64.112h336.813c3.442-1.784,6.605-4.066,9.36-6.755	c7.563-7.277,12.271-17.479,12.271-28.727c0-22.099-18.088-40.076-40.348-40.076c-7.21,0-13.99,1.88-19.833,5.197	c0.935-3.742,1.441-7.635,1.441-11.651c0-26.646-21.829-48.314-48.672-48.314c-8.015,0-15.606,1.931-22.282,5.372	c-11.562-38.196-47.304-66.093-89.495-66.093c-42.171,0-77.916,27.896-89.472,66.065c-8.502-3.893-17.99-6.049-27.927-6.049	C62.074,490.697,31.842,520.73,31.842,557.615"/><path fill="#E4F0CC" d="M127.157,496.746c0,0,7.734,2.758,14.993,15.985"/><path fill="#E4F0CC" d="M149.137,522.289c0,0,6.831,10.245,6.935,12.699"/><path fill="#B6DDF5" d="M757.238,597.181c0,34.36-25.308,66.268-55.626,78.321l-359.464-19.788	c-4.202-2.178-55.443,10.23-51.669,7.425c12.335-9.152,72.648-29.473-26.79-30.98c-102.92-1.568,68.924-46.342,49.294-48.965	c-8.728-1.171,17.089,2.299,24.232,6.346c-1.143-4.57-1.765-9.326-1.765-14.232c0-32.554,26.675-59.025,59.46-59.025	c9.8,0,19.073,2.361,27.229,6.565c14.12-46.665,57.794-80.748,109.34-80.748c51.518,0,95.186,34.083,109.314,80.717	c10.379-4.759,21.972-7.394,34.116-7.394C720.311,515.422,757.238,552.113,757.238,597.181"/><path fill="#E4F0CC" d="M640.79,522.813c0,0-9.454,3.361-18.316,19.529"/><path fill="#E4F0CC" d="M613.935,554.019c0,0-8.339,12.516-8.471,15.514"/><path fill="#FFF" d="M22,572.38c0,28.122,20.717,54.236,45.537,64.112H404.35c3.439-1.787,6.605-4.07,9.357-6.758	c7.565-7.286,12.274-17.48,12.274-28.727c0-22.099-18.089-40.082-40.348-40.082c-7.21,0-13.99,1.885-19.833,5.201	c0.932-3.744,1.441-7.633,1.441-11.652c0-26.644-21.829-48.317-48.672-48.317c-8.018,0-15.608,1.937-22.281,5.378	c-11.564-38.196-47.305-66.096-89.503-66.096c-42.163,0-77.911,27.899-89.467,66.068c-8.502-3.893-17.99-6.055-27.924-6.055	C52.232,505.453,22,535.489,22,572.38"/><path fill="none" stroke="#2887C8" stroke-linecap="round" stroke-linejoin="round" stroke-miterlimit="10" d="M22,572.38	c0,20.542,11.401,40.69,26.348,54.272c9.8,8.899,19.003,9.84,31.09,9.84h28.335h88.707h102.151h80.5h25.217	c3.439-1.787,6.605-4.07,9.357-6.758c7.565-7.286,12.274-17.48,12.274-28.727c0-22.099-18.089-40.082-40.348-40.082	c-7.21,0-13.99,1.885-19.833,5.201c0.932-3.744,1.441-7.633,1.441-11.652c0-26.644-21.829-48.317-48.672-48.317	c-8.018,0-15.608,1.937-22.281,5.378c-11.564-38.196-47.305-66.096-89.503-66.096c-42.163,0-77.911,27.899-89.467,66.068	c-8.502-3.893-17.99-6.055-27.924-6.055C52.232,505.453,22,535.489,22,572.38z"/><path fill="none" stroke="#2887C8" stroke-linecap="round" stroke-linejoin="round" stroke-miterlimit="10" d="M117.315,511.51	c0,0,7.737,2.753,14.992,15.983"/><path fill="none" stroke="#2887C8" stroke-linecap="round" stroke-linejoin="round" stroke-miterlimit="10" d="M296.285,511.533	c0,0-18.074,15.26-21.274,29.433"/><path fill="none" stroke="#2887C8" stroke-linecap="round" stroke-linejoin="round" stroke-miterlimit="10" d="M139.298,537.054	c0,0,6.831,10.241,6.935,12.695"/><path fill="#FFF" d="M771.997,610.239c0,34.358-25.307,66.268-55.624,78.324H304.877c-4.208-2.178-8.069-4.97-11.435-8.254	c-9.239-8.894-14.992-21.351-14.992-35.096c0-26.999,22.099-48.965,49.292-48.965c8.809,0,17.092,2.299,24.232,6.352	c-1.14-4.57-1.765-9.326-1.765-14.235c0-32.551,26.678-59.028,59.463-59.028c9.797,0,19.07,2.364,27.226,6.563	c14.123-46.662,57.797-80.745,109.343-80.745c51.518,0,95.186,34.083,109.312,80.718c10.382-4.754,21.972-7.394,34.115-7.394	C735.069,528.479,771.997,565.17,771.997,610.239"/><path fill="none" stroke="#2887C8" stroke-linecap="round" stroke-linejoin="round" stroke-miterlimit="10" d="M771.997,610.239	c0,42.317-37.975,78.324-80.03,78.324H658.63h-93.339H458.429c-43.312,0-86.518,0.771-129.741,0.825	c-12.133,0.017-27.753-1.391-37.417-9.701c-8.93-7.678-12.82-23.078-12.82-34.474c0-26.999,22.099-48.965,49.292-48.965	c8.809,0,17.092,2.299,24.232,6.352c-1.14-4.57-1.765-9.326-1.765-14.235c0-32.551,26.678-59.028,59.463-59.028	c9.797,0,19.07,2.364,27.226,6.563c14.123-46.662,57.797-80.745,109.343-80.745c51.518,0,95.186,34.083,109.312,80.718	c10.382-4.754,21.972-7.394,34.115-7.394C735.069,528.479,771.997,565.17,771.997,610.239z"/><path fill="none" stroke="#2887C8" stroke-linecap="round" stroke-linejoin="round" stroke-miterlimit="10" d="M655.552,535.872	c0,0-9.454,3.36-18.319,19.528"/><path fill="none" stroke="#2887C8" stroke-linecap="round" stroke-linejoin="round" stroke-miterlimit="10" d="M436.897,535.899	c0,0,22.082,18.643,25.997,35.957"/><path fill="none" stroke="#2887C8" stroke-linecap="round" stroke-linejoin="round" stroke-miterlimit="10" d="M628.696,567.078	c0,0-8.342,12.516-8.475,15.513"/></svg>