<?xml version="1.0" encoding="utf-8"?>
<!-- Generator: Adobe Illustrator 16.0.0, SVG Export Plug-In . SVG Version: 6.00 Build 0)  -->
<!DOCTYPE svg PUBLIC "-//W3C//DTD SVG 1.0//EN" "http://www.w3.org/TR/2001/REC-SVG-20010904/DTD/svg10.dtd">
<svg xmlns:inkscape="http://www.inkscape.org/namespaces/inkscape"
     xmlns:sodipodi="http://sodipodi.sourceforge.net/DTD/sodipodi-0.dtd" version="1.0" id="svg2"
     inkscape:version="0.92.1 r15371"
     sodipodi:docname=".com.svg"
     xmlns="http://www.w3.org/2000/svg" x="0px" y="0px" width="2260.26px" height="742px"
     viewBox="0 -105.426 2260.26 742" enable-background="new 0 -105.426 2260.26 742" xml:space="preserve">
<sodipodi:namedview id="namedview103" inkscape:current-layer="svg2" inkscape:cy="1494.3221" inkscape:cx="-366.90843"
                    inkscape:zoom="0.08514284" fit-margin-left="0" fit-margin-top="0" showgrid="false"
                    guidetolerance="10" gridtolerance="10" objecttolerance="10" borderopacity="1" bordercolor="#666666"
                    pagecolor="#ffffff" inkscape:window-height="837" fit-margin-right="0" inkscape:window-width="1600"
                    inkscape:pagecheckerboard="true" fit-margin-bottom="0" inkscape:pageshadow="2"
                    inkscape:pageopacity="0" inkscape:window-maximized="1" inkscape:window-y="-8"
                    inkscape:window-x="-8">
	</sodipodi:namedview>
    <linearGradient id="path21_1_" gradientUnits="userSpaceOnUse" x1="-3878.5928" y1="-942.6108" x2="-3878.5879"
                    y2="-715.052" gradientTransform="matrix(1 0 0 -1 4039.8408 -406.3135)">
	<stop offset="0" style="stop-color:#128CD9"/>
        <stop offset="1" style="stop-color:#1FC7FD"/>
</linearGradient>
    <circle id="path21" fill="url(#path21_1_)" cx="161.25" cy="423.986" r="115.25"/>
    <g id="text25" transform="matrix(0.98077624,0,0,1.0196006,3937.5007,-926.50061)">
	<path id="path12" inkscape:connector-curvature="0" fill="#005AA1" d="M-3150.284,1233.527
		c-6.563,28.04-17.599,54.588-33.11,79.644s-34.602,46.832-57.272,65.325c-22.074,18.495-47.726,33.111-76.959,43.849
		c-28.636,10.739-59.658,16.108-93.066,16.108c-37.585,0-72.783-6.862-105.595-20.583c-32.215-13.721-60.254-32.513-84.117-56.377
		c-23.268-24.46-41.761-52.797-55.483-85.011c-13.721-32.216-20.581-66.817-20.581-103.806c0-36.392,6.562-70.695,19.687-102.91
		c13.721-32.215,32.215-60.255,55.482-84.118c23.863-23.863,51.604-42.656,83.223-56.377
		c32.215-13.721,66.817-20.582,103.805-20.582c32.812,0,63.834,5.369,93.067,16.108c29.232,10.142,55.184,24.46,77.854,42.953
		c23.266,17.898,42.655,39.673,58.166,65.326c16.107,25.652,27.443,53.692,34.005,84.118h-150.338
		c-4.176-8.352-9.247-16.704-15.213-25.057c-5.965-8.352-13.125-15.809-21.476-22.371c-8.352-6.562-18.494-11.932-30.426-16.108
		c-11.335-4.176-24.758-6.265-40.269-6.265c-17.898-0.596-34.005,2.386-48.323,8.949c-14.317,5.966-26.846,14.616-37.584,25.951
		c-10.142,11.334-18.196,25.056-24.162,41.164c-5.37,15.511-8.053,32.215-8.054,50.112c0.001,17.898,2.684,34.602,8.054,50.113
		c5.966,15.511,14.02,28.934,24.162,40.269c10.738,11.335,23.266,20.283,37.584,26.846c14.318,5.965,30.426,8.949,48.323,8.949
		c15.511,0,28.934-2.088,40.269-6.264c11.932-4.177,22.074-9.247,30.426-15.213c8.352-6.563,15.511-13.721,21.476-21.477
		c5.966-7.755,11.037-15.51,15.213-23.267H-3150.284z"/>
        <path id="path14" inkscape:connector-curvature="0" fill="#005AA1" d="M-2943.262,1173.571c0,17.897,2.983,34.601,8.948,50.113
		c6.563,15.51,15.213,28.933,25.951,40.268c11.335,10.738,24.162,19.389,38.48,25.951c14.318,5.965,29.531,8.949,45.638,8.949
		s31.321-2.984,45.638-8.949c14.318-6.563,26.846-15.214,37.585-25.951c11.335-11.335,19.986-24.758,25.951-40.268
		c6.563-15.512,9.844-32.216,9.844-50.113c0-17.897-3.281-34.602-9.844-50.113c-5.965-15.511-14.616-28.636-25.951-39.374
		c-10.739-11.335-23.267-19.985-37.585-25.951c-14.317-6.563-29.531-9.844-45.638-9.844s-31.32,3.281-45.638,9.844
		c-14.318,5.966-27.145,14.616-38.48,25.951c-10.738,10.738-19.388,23.863-25.951,39.374
		C-2940.279,1138.97-2943.262,1155.674-2943.262,1173.571z M-3091.811,1173.571c0-30.426,5.369-61.15,16.108-92.172
		c11.335-31.619,28.04-59.956,50.113-85.013c22.074-25.652,49.815-46.533,83.223-62.641c33.409-16.108,72.783-24.161,118.123-24.161
		s84.714,8.054,118.123,24.161c33.408,16.108,61.149,36.988,83.223,62.641c22.073,25.057,38.479,53.394,49.218,85.013
		c11.335,31.022,17.002,61.746,17.002,92.172c0,30.425-5.667,61.448-17.002,93.066c-10.739,31.023-27.145,59.36-49.218,85.013
		c-22.074,25.056-49.815,45.639-83.223,61.745c-33.409,16.108-72.783,24.163-118.123,24.163s-84.714-8.055-118.123-24.163
		c-33.408-16.106-61.149-36.689-83.223-61.745c-22.073-25.653-38.778-53.99-50.113-85.013
		C-3086.442,1235.019-3091.811,1203.996-3091.811,1173.571z"/>
        <path id="path16" inkscape:connector-curvature="0" fill="#005AA1" d="M-2472.547,925.692h138.706v52.797h1.79
		c2.983-5.369,7.457-11.932,13.423-19.687c5.965-7.756,14.02-15.213,24.161-22.372c10.74-7.755,24.162-14.318,40.27-19.687
		c16.107-5.369,35.794-8.054,59.061-8.054c10.738,0,22.371,1.193,34.899,3.579c13.125,2.386,25.952,6.861,38.48,13.423
		c12.528,6.562,24.758,15.511,36.69,26.846c11.932,11.335,22.968,26.25,33.11,44.744c15.511-24.46,36.093-45.34,61.747-62.641
		c25.652-17.301,57.57-25.951,95.751-25.951c8.948,0,18.792,0.597,29.531,1.79c10.739,1.193,21.775,3.58,33.11,7.159
		c11.932,3.58,23.565,8.651,34.9,15.213c11.932,6.562,22.968,15.213,33.11,25.951c11.335,12.528,20.582,24.46,27.741,35.795
		c7.158,10.738,12.528,23.267,16.106,37.585c4.176,14.318,6.861,31.022,8.054,50.112c1.194,18.494,1.789,41.463,1.789,68.905
		v271.146h-148.548v-263.987c0-10.142-0.596-21.477-1.789-34.005c-0.597-13.125-3.282-25.056-8.054-35.795
		c-4.772-11.335-12.23-20.88-22.373-28.636c-10.141-7.755-24.757-11.633-43.848-11.633c-20.881,0-36.988,4.176-48.323,12.528
		c-10.739,7.756-18.792,17.301-24.161,28.636c-4.773,11.335-7.756,22.67-8.949,34.005c-0.596,11.335-0.894,20.582-0.894,27.741
		v271.146h-148.549v-270.251c0-6.562-0.596-15.511-1.79-26.846c-0.596-11.932-3.281-23.565-8.053-34.9
		c-4.176-11.335-11.335-21.178-21.477-29.531c-10.141-8.352-24.459-12.528-42.954-12.528c-20.88,0-36.988,4.475-48.323,13.423
		c-11.335,8.352-19.687,18.494-25.057,30.426c-5.369,11.932-8.65,24.162-9.844,36.69c-0.596,12.528-0.895,22.372-0.895,29.531
		v263.987h-148.548L-2472.547,925.692z"/>
</g>
</svg>
