<svg xmlns="http://www.w3.org/2000/svg" id="Layer_1" width="1434" height="305" x="0" y="0" enable-background="new 0 0 1434 305" version="1.0" viewBox="0 0 1434 305" xml:space="preserve"><g><path fill="#FBB040" d="M910.339,214.732c0-23.547,16.134-40.553,39.244-40.553c23.111,0,38.809,16.57,38.809,40.553 c0,23.111-15.698,40.117-39.245,40.117C926.473,254.85,910.339,237.844,910.339,214.732z"/><path fill="#ED1C24" d="M1041.779,41.621l28.78,98.983c5.232,17.878,9.157,34.884,12.209,51.89h1.308 c3.489-17.441,6.977-33.575,11.773-51.89l27.471-98.983h69.768l-79.361,213.229h-66.28L969.831,41.621H1041.779z"/><path fill="#ED1C24" d="M1223.611,109.645c0-26.599-0.872-49.274-1.744-68.024h57.559l3.053,29.215h1.308 c8.722-13.518,30.524-34.012,65.843-34.012c43.605,0,76.311,28.779,76.311,91.571V254.85h-66.281V136.68 c0-27.471-9.592-46.222-33.574-46.222c-18.314,0-29.217,12.646-33.576,24.855c-1.744,3.924-2.617,10.465-2.617,16.57V254.85 h-66.279V109.645z"/></g><g><path fill="#0061A6" d="M9.83,214.733c0-23.597,16.168-40.64,39.328-40.64c23.16,0,38.892,16.605,38.892,40.64 c0,23.16-15.731,40.202-39.329,40.202C25.998,254.936,9.83,237.894,9.83,214.733z"/><path fill="#0061A6" d="M271.621,249.605c-11.798,5.244-34.084,9.614-59.429,9.614c-69.043,0-113.178-41.95-113.178-109.245 c0-62.489,42.824-113.616,122.354-113.616c17.479,0,36.707,3.059,50.69,8.303l-10.487,49.379 c-7.866-3.496-19.665-6.555-37.144-6.555c-34.958,0-57.682,24.908-57.245,59.867c0,39.328,26.219,59.866,58.556,59.866 c15.731,0,27.967-2.622,38.017-6.555L271.621,249.605z"/><path fill="#0061A6" d="M514.584,145.604c0,78.22-55.497,114.052-112.742,114.052c-62.488,0-110.556-41.076-110.556-110.119 S336.732,36.359,405.338,36.359C470.886,36.359,514.584,81.368,514.584,145.604z M359.892,147.789 c0,36.707,15.294,64.236,43.698,64.236c25.782,0,42.387-25.782,42.387-64.236c0-31.899-12.235-64.236-42.387-64.236 C371.69,83.553,359.892,116.327,359.892,147.789z"/><path fill="#0061A6" d="M555.658,109.335c0-26.656-0.874-49.379-1.748-68.169h55.934l3.059,28.84h1.311 c9.177-13.546,27.967-33.647,64.674-33.647c27.529,0,49.379,13.983,58.556,36.27h0.874c7.865-10.924,17.479-19.664,27.529-25.782 c11.799-6.992,24.908-10.488,40.64-10.488c41.076,0,72.102,28.841,72.102,92.64V254.85h-64.673V138.613 c0-31.026-10.051-48.942-31.463-48.942c-15.295,0-26.219,10.487-30.589,23.16c-1.748,4.807-2.622,11.799-2.622,17.042V254.85 h-64.673V135.117c0-27.093-9.613-45.446-30.589-45.446c-17.042,0-27.093,13.109-31.025,24.034 c-2.186,5.244-2.622,11.362-2.622,16.605v124.54h-64.673V109.335z"/></g></svg>