<?xml version="1.0" encoding="utf-8"?>
<!-- Generator: Adobe Illustrator 23.0.2, SVG Export Plug-In . SVG Version: 6.00 Build 0)  -->
<svg version="1.1" id="Layer_1" xmlns="http://www.w3.org/2000/svg" x="0px" y="0px"
     viewBox="0 0 80 80" style="enable-background:new 0 0 80 80;" xml:space="preserve">
<style type="text/css">
	.st0{fill:#B6DDF5;}
	.st1{fill:#0589D8;}
	.st2{fill:#E3F2FB;}
	.st3{fill:#B1D565;}
	.st4{fill:none;stroke:#FFFFFF;stroke-width:1.2;stroke-linecap:round;stroke-linejoin:round;stroke-miterlimit:10;}
	.st5{fill:#FFFFFF;}
	.st6{fill:#E5F1CC;}
	.st7{fill:#009D3D;}
</style>
    <g>
	<g>
		<path class="st0" d="M14.63,28.23h-0.2c-0.96,0-1.78,0.55-1.99,1.33L8.74,43.5h63.02l-3.7-13.94c-0.21-0.77-1.03-1.33-1.99-1.33
			h-0.35"/>
        <path class="st1" d="M71.77,43.83H8.74c-0.1,0-0.2-0.05-0.27-0.13c-0.06-0.08-0.09-0.19-0.06-0.29l3.7-13.94
			c0.25-0.93,1.2-1.58,2.31-1.58h0.2c0.19,0,0.34,0.15,0.34,0.34s-0.15,0.34-0.34,0.34h-0.2c-0.8,0-1.5,0.45-1.66,1.08L9.18,43.16
			h62.14l-3.58-13.51c-0.17-0.62-0.86-1.08-1.66-1.08h-0.35c-0.19,0-0.34-0.15-0.34-0.34s0.15-0.34,0.34-0.34h0.35
			c1.12,0,2.07,0.65,2.31,1.58l3.7,13.94c0.03,0.1,0.01,0.21-0.06,0.29C71.97,43.78,71.87,43.83,71.77,43.83z"/>
	</g>
        <g>
		<g>
			<g>
				<circle class="st2" cx="48.8" cy="30.43" r="14.96"/>
			</g>
            <g>
				<g>
					<path class="st3" d="M33.17,23.71c0.07-0.16,0.14-0.31,0.21-0.47c0,0,0,0-0.01,0c-0.44-0.33-0.72-0.86-0.72-1.46
						c0-1.01,0.82-1.83,1.83-1.83c0.28,0,0.54,0.06,0.78,0.17c0,0,0,0,0.01,0c0.19,0.09,0.37,0.22,0.52,0.37l0,0
						c0.33,0.33,0.53,0.78,0.53,1.28c0,1.01-0.82,1.84-1.84,1.84c-0.18,0-0.36-0.03-0.53-0.08h0c-0.07,0.15-0.14,0.31-0.21,0.46
						c-0.17,0.39-0.32,0.78-0.45,1.18c-0.19,0.57-0.36,1.16-0.49,1.76c0,0-0.12,0.12-0.31,0.1c-0.2-0.02-0.32-0.17-0.32-0.17
						c0.14-0.67,0.32-1.32,0.53-1.95C32.84,24.5,32.99,24.1,33.17,23.71z"/>
				</g>
                <g>
					<path class="st3" d="M48.8,15.56c-0.11,0-0.22-0.01-0.32-0.03v5.83h-3.49c-0.23,0-0.42,0.19-0.42,0.42
						c0,0.23,0.19,0.42,0.42,0.42h3.49v6.4c-0.72,0.12-1.29,0.67-1.46,1.38h-4.4c-0.23,0-0.42,0.19-0.42,0.42
						c0,0.23,0.19,0.42,0.42,0.42h4.4c0.17,0.71,0.74,1.25,1.46,1.38v6.4h-3.49c-0.23,0-0.42,0.19-0.42,0.42s0.19,0.42,0.42,0.42
						h3.49v5.88c0.1-0.02,0.21-0.03,0.32-0.03c0.11,0,0.22,0.01,0.33,0.03V31.55c-0.11,0.03-0.21,0.04-0.33,0.04
						c-0.11,0-0.22-0.01-0.32-0.04c-0.36-0.1-0.65-0.37-0.78-0.72c-0.05-0.13-0.08-0.27-0.08-0.42c0-0.15,0.03-0.29,0.08-0.42
						c0.13-0.35,0.42-0.62,0.78-0.72c0.1-0.03,0.21-0.04,0.32-0.04c0.11,0,0.22,0.02,0.33,0.04V15.53
						C49.02,15.55,48.91,15.56,48.8,15.56z M53.08,21.36h-2.22c-0.23,0-0.42,0.19-0.42,0.42c0,0.23,0.19,0.42,0.42,0.42h2.22
						c-0.03-0.14-0.05-0.28-0.05-0.42C53.03,21.64,53.04,21.49,53.08,21.36z M49.13,28.61v0.66c-0.11-0.03-0.21-0.04-0.33-0.04
						c-0.11,0-0.22,0.02-0.32,0.04c-0.36,0.1-0.65,0.37-0.78,0.72c-0.05,0.13-0.08,0.27-0.08,0.42c0,0.15,0.03,0.29,0.08,0.42
						c0.13,0.35,0.42,0.62,0.78,0.72c0.1,0.03,0.21,0.04,0.32,0.04c0.11,0,0.22-0.01,0.33-0.04v0.67c0.86-0.15,1.51-0.9,1.51-1.81
						C50.64,29.51,49.98,28.75,49.13,28.61z M65.74,28.64c-0.26-2.48-1.06-4.81-2.27-6.86c0-0.01-0.01-0.01-0.01-0.02l-0.25-0.41
						c-2.71-4.29-7.29-7.29-12.58-7.85v0c-0.11-0.91-0.89-1.61-1.82-1.61c-0.93,0-1.7,0.7-1.81,1.61v0
						c-0.12,0.01-0.24,0.03-0.36,0.04c-0.33,0.04-0.67,0.09-0.99,0.16c-0.33,0.06-0.65,0.13-0.97,0.21
						c-0.32,0.08-0.64,0.17-0.95,0.27c-0.31,0.1-0.62,0.2-0.92,0.32c-0.31,0.11-0.61,0.24-0.9,0.37c-0.3,0.13-0.59,0.27-0.87,0.42
						c-0.29,0.15-0.57,0.31-0.85,0.47c-0.28,0.16-0.55,0.33-0.81,0.51c-0.27,0.18-0.53,0.36-0.78,0.56
						c-0.26,0.19-0.51,0.39-0.75,0.6c-0.25,0.2-0.48,0.42-0.72,0.64c-0.23,0.22-0.46,0.44-0.67,0.68c0,0-0.02,0.19,0.1,0.31
						c0.11,0.11,0.39,0.08,0.39,0.08h0c0.11-0.12,0.23-0.24,0.35-0.36c0.23-0.23,0.47-0.44,0.7-0.66c0.24-0.21,0.49-0.42,0.75-0.61
						c0.25-0.2,0.51-0.39,0.78-0.57c0.26-0.18,0.53-0.36,0.81-0.53c0.28-0.17,0.56-0.33,0.84-0.48c0.29-0.15,0.58-0.3,0.87-0.43
						c0.3-0.14,0.6-0.26,0.9-0.38c0.31-0.12,0.61-0.23,0.92-0.33c0.32-0.1,0.63-0.19,0.95-0.27c0.32-0.08,0.64-0.15,0.97-0.22
						c0.33-0.06,0.66-0.11,0.99-0.15c0.08-0.01,0.17-0.02,0.25-0.03v0c0.06,0.23,0.16,0.45,0.3,0.64c-1.23,1.35-3.14,3.67-4.69,6.57
						h-4.61c-0.23,0-0.42,0.19-0.42,0.42c0,0.23,0.19,0.42,0.42,0.42h4.18c-1.14,2.33-1.99,4.99-2.06,7.78h-4.61
						c-0.23,0-0.42,0.19-0.42,0.42c0,0.23,0.19,0.42,0.42,0.42h4.61c0.08,2.81,0.94,5.48,2.09,7.83h-4.2
						c-0.23,0-0.42,0.19-0.42,0.42s0.19,0.42,0.42,0.42h4.63c1.53,2.89,3.44,5.21,4.67,6.56c-0.14,0.19-0.25,0.41-0.3,0.64v0
						C40,45.96,34.31,40.75,32.8,33.98c-0.09-0.41-0.17-0.83-0.23-1.25c-0.02-0.17-0.04-0.33-0.06-0.49c0,0,0,0,0.01,0
						c0.81-0.19,1.41-0.92,1.41-1.78c0-0.87-0.61-1.6-1.42-1.78h0c-0.14-0.03-0.27-0.05-0.42-0.05c-0.08,0-0.15,0-0.22,0.02h0
						c-0.9,0.11-1.6,0.88-1.6,1.82s0.7,1.71,1.61,1.81h0c0.02,0.17,0.03,0.34,0.06,0.51c0.06,0.43,0.14,0.86,0.23,1.28
						c1.54,7.08,7.49,12.52,14.82,13.3c0,0,0,0,0,0.01c0.11,0.9,0.88,1.61,1.81,1.61c0.93,0,1.71-0.7,1.82-1.61v0
						c5.34-0.57,9.96-3.62,12.65-7.97c0.07-0.11,0.13-0.21,0.19-0.31c1.21-2.03,2-4.34,2.26-6.8h0c0.9-0.11,1.61-0.88,1.61-1.81
						S66.64,28.75,65.74,28.64z M53.08,21.36h-2.22c-0.23,0-0.42,0.19-0.42,0.42c0,0.23,0.19,0.42,0.42,0.42h2.22
						c0.19,0.81,0.92,1.41,1.78,1.41c0.16,0,0.31-0.02,0.45-0.06c0.83,1.95,1.44,4.13,1.5,6.42h-4.48c-0.23,0-0.42,0.19-0.42,0.42
						c0,0.23,0.19,0.42,0.42,0.42h4.48c-0.06,2.28-0.67,4.48-1.52,6.47c-0.14-0.03-0.28-0.05-0.44-0.05c-0.84,0-1.56,0.58-1.77,1.36
						h-2.24c-0.23,0-0.42,0.19-0.42,0.42s0.19,0.42,0.42,0.42h2.21c0.08,0.4,0.3,0.76,0.6,1.02c-1.34,2.23-2.83,4.03-3.84,5.15
						c-0.2-0.14-0.44-0.24-0.7-0.29V32.21c0.86-0.15,1.51-0.9,1.51-1.81c0-0.9-0.65-1.65-1.51-1.8V15.53
						c0.26-0.05,0.5-0.15,0.71-0.29c0.78,0.85,1.83,2.09,2.87,3.62c0.32,0.47,0.65,0.97,0.98,1.52
						C53.39,20.63,53.17,20.97,53.08,21.36z M43.32,39.39c-0.13-0.24-0.26-0.48-0.38-0.72c-1.19-2.36-2.09-5.07-2.15-7.92v-0.67
						c0.06-2.87,0.99-5.59,2.13-7.87c0.12-0.25,0.25-0.5,0.39-0.74c0.52-0.96,1.07-1.84,1.59-2.59c1.05-1.53,2.11-2.78,2.89-3.63
						c0.21,0.14,0.44,0.25,0.71,0.29v5.83h-3.49c-0.23,0-0.42,0.19-0.42,0.42c0,0.23,0.19,0.42,0.42,0.42h3.49v6.4
						c-0.72,0.12-1.29,0.67-1.46,1.38h-4.4c-0.23,0-0.42,0.19-0.42,0.42c0,0.23,0.19,0.42,0.42,0.42h4.4
						c0.17,0.71,0.74,1.25,1.46,1.38v6.4h-3.49c-0.23,0-0.42,0.19-0.42,0.42s0.19,0.42,0.42,0.42h3.49v5.88
						c-0.26,0.05-0.5,0.14-0.7,0.29C46.6,44.33,44.8,42.13,43.32,39.39z M63,38.61h-4.53c-0.23,0-0.42,0.19-0.42,0.42
						s0.19,0.42,0.42,0.42h4c-2.63,3.97-6.93,6.73-11.9,7.27c0,0,0,0,0-0.01c-0.06-0.23-0.15-0.46-0.3-0.65
						c1.04-1.14,2.56-2.98,3.94-5.27c0.2,0.08,0.42,0.12,0.64,0.12c1.01,0,1.84-0.83,1.84-1.84c0-0.63-0.32-1.19-0.81-1.52
						c0.91-2.11,1.55-4.45,1.59-6.9c0-0.09,0-0.17,0-0.26c0-0.09,0-0.18,0-0.26c-0.04-2.43-0.68-4.75-1.57-6.85
						c0.48-0.33,0.79-0.88,0.79-1.51c0-1.01-0.82-1.84-1.84-1.84c-0.22,0-0.43,0.04-0.62,0.11c-1.38-2.28-2.9-4.12-3.95-5.27
						c0.14-0.19,0.24-0.41,0.29-0.64c0,0,0,0,0-0.01c4.93,0.53,9.21,3.26,11.84,7.19h-3.95c-0.23,0-0.42,0.19-0.42,0.42
						c0,0.23,0.19,0.42,0.42,0.42h4.48c1.14,1.95,1.89,4.15,2.14,6.5h-0.01c-0.66,0.15-1.18,0.66-1.35,1.31h-3.8
						c-0.23,0-0.42,0.19-0.42,0.42c0,0.23,0.19,0.42,0.42,0.42h3.77c0.14,0.7,0.68,1.25,1.37,1.41c0,0,0,0,0.01,0
						C64.84,34.54,64.11,36.7,63,38.61z M44.99,21.36c-0.23,0-0.42,0.19-0.42,0.42c0,0.23,0.19,0.42,0.42,0.42h3.49v-0.85H44.99z
						 M48.48,29.27v-0.66c-0.72,0.12-1.29,0.67-1.46,1.38h-4.4c-0.23,0-0.42,0.19-0.42,0.42c0,0.23,0.19,0.42,0.42,0.42h4.4
						c0.17,0.71,0.74,1.25,1.46,1.38v-0.67c-0.36-0.1-0.65-0.37-0.78-0.72c-0.05-0.13-0.08-0.27-0.08-0.42
						c0-0.15,0.03-0.29,0.08-0.42C47.83,29.64,48.12,29.37,48.48,29.27z M44.99,38.61c-0.23,0-0.42,0.19-0.42,0.42
						s0.19,0.42,0.42,0.42h3.49v-0.85H44.99z"/>
				</g>
                <g>
					<g>
						<g>
							<g>
								<path class="st1" d="M35.79,20.5L35.79,20.5c-0.15-0.16-0.33-0.28-0.52-0.38c0,0,0,0-0.01,0c-0.24-0.11-0.5-0.17-0.78-0.17
									c-1.01,0-1.83,0.82-1.83,1.83c0,0.59,0.28,1.12,0.72,1.46c0,0,0,0,0.01,0c0.17,0.13,0.36,0.23,0.56,0.29h0
									c0.17,0.06,0.35,0.08,0.53,0.08c1.01,0,1.84-0.83,1.84-1.84C36.31,21.28,36.11,20.83,35.79,20.5z M34.48,22.96
									c-0.08,0-0.16-0.01-0.24-0.02c0,0,0,0-0.01,0c-0.22-0.05-0.41-0.15-0.56-0.29l0,0c-0.22-0.22-0.37-0.52-0.37-0.86
									c0-0.65,0.53-1.18,1.18-1.18c0.14,0,0.27,0.02,0.39,0.06c0,0,0,0,0.01,0c0.2,0.07,0.39,0.2,0.52,0.36l0,0
									c0.17,0.21,0.27,0.47,0.27,0.75C35.66,22.43,35.13,22.96,34.48,22.96z"/>
							</g>
						</g>
					</g>
                    <g>
						<g>
							<g>
								<path class="st1" d="M53.69,20.38c-0.3,0.25-0.52,0.59-0.61,0.98h0.36c0.11,0,0.21,0.04,0.29,0.11
									c0.05-0.2,0.16-0.38,0.3-0.53C53.91,20.75,53.8,20.56,53.69,20.38z M54.86,19.95c-0.22,0-0.43,0.04-0.62,0.11
									c-0.2,0.07-0.39,0.18-0.55,0.32c-0.3,0.25-0.52,0.59-0.61,0.98c-0.03,0.14-0.05,0.28-0.05,0.42c0,0.14,0.02,0.29,0.05,0.42
									c0.19,0.81,0.92,1.41,1.78,1.41c0.16,0,0.31-0.02,0.45-0.06c0.22-0.06,0.41-0.14,0.59-0.27c0.48-0.33,0.79-0.88,0.79-1.51
									C56.7,20.77,55.87,19.95,54.86,19.95z M55.63,22.69c-0.16,0.14-0.36,0.23-0.58,0.26c-0.06,0.01-0.12,0.02-0.19,0.02
									c-0.55,0-1-0.37-1.14-0.87c-0.03-0.1-0.04-0.2-0.04-0.31c0-0.11,0.01-0.21,0.04-0.31c0.05-0.2,0.16-0.38,0.3-0.53
									c0.15-0.15,0.34-0.26,0.55-0.31c0.09-0.02,0.19-0.03,0.29-0.03c0.66,0,1.19,0.53,1.19,1.18
									C56.05,22.14,55.89,22.47,55.63,22.69z"/>
							</g>
						</g>
					</g>
                    <g>
						<g>
							<g>
								<path class="st1" d="M54.86,37.25c-0.84,0-1.56,0.58-1.77,1.36h0.34c0.11,0,0.22,0.05,0.3,0.12
									c0.16-0.47,0.6-0.83,1.13-0.83c0.06,0,0.11,0,0.17,0.01c0.09-0.2,0.19-0.4,0.27-0.61C55.16,37.27,55.01,37.25,54.86,37.25z
									 M55.89,37.57c-0.18-0.12-0.37-0.21-0.59-0.26c-0.14-0.03-0.28-0.05-0.44-0.05c-0.84,0-1.56,0.58-1.77,1.36
									c-0.05,0.15-0.07,0.31-0.07,0.47c0,0.13,0.01,0.25,0.04,0.37c0.08,0.4,0.3,0.76,0.6,1.02c0.17,0.14,0.35,0.25,0.56,0.33
									c0.2,0.08,0.42,0.12,0.64,0.12c1.01,0,1.84-0.83,1.84-1.84C56.7,38.46,56.37,37.9,55.89,37.57z M54.86,40.27
									c-0.11,0-0.21-0.01-0.31-0.04c-0.21-0.06-0.4-0.17-0.55-0.33c-0.14-0.15-0.24-0.34-0.29-0.55
									c-0.02-0.09-0.03-0.18-0.03-0.27c0-0.12,0.02-0.24,0.05-0.35v0c0.16-0.47,0.6-0.83,1.13-0.83c0.06,0,0.11,0,0.17,0.01
									c0.22,0.03,0.42,0.12,0.59,0.26c0.26,0.22,0.43,0.55,0.43,0.91C56.05,39.74,55.52,40.27,54.86,40.27z"/>
							</g>
						</g>
					</g>
                    <g>
						<g>
							<g>
								<path class="st1" d="M32.51,28.67L32.51,28.67c-0.14-0.03-0.28-0.05-0.42-0.05c-0.08,0-0.15,0-0.22,0.02h0
									c-0.9,0.11-1.6,0.88-1.6,1.82s0.7,1.71,1.61,1.81h0c0.07,0.01,0.14,0.02,0.22,0.02c0.14,0,0.29-0.02,0.42-0.05
									c0,0,0,0,0.01,0c0.81-0.19,1.41-0.92,1.41-1.78C33.93,29.59,33.32,28.86,32.51,28.67z M32.46,31.58
									C32.46,31.58,32.46,31.58,32.46,31.58c-0.12,0.04-0.25,0.06-0.37,0.06c-0.1,0-0.19-0.01-0.28-0.03h0
									c-0.52-0.13-0.9-0.6-0.9-1.15c0-0.56,0.38-1.03,0.9-1.15h0c0.09-0.03,0.18-0.04,0.28-0.04c0.12,0,0.25,0.02,0.36,0.05
									c0,0,0,0,0.01,0c0.47,0.16,0.82,0.61,0.82,1.13S32.94,31.43,32.46,31.58z"/>
							</g>
						</g>
					</g>
                    <g>
						<g>
							<g>
								<path class="st1" d="M65.09,28.67c-0.66,0.15-1.18,0.66-1.35,1.31h0.33c0.02,0,0.05,0,0.07,0.01c0.01,0,0.02,0,0.03,0
									c0.04,0.01,0.07,0.02,0.11,0.04c0.01,0,0.03,0.01,0.04,0.03c0.01,0.01,0.03,0.02,0.04,0.03l0.02,0.02h0
									c0.11-0.37,0.4-0.66,0.77-0.78C65.13,29.11,65.11,28.89,65.09,28.67z M65.09,28.67c-0.66,0.15-1.18,0.66-1.35,1.31h0.33
									c0.02,0,0.05,0,0.07,0.01c0.01,0,0.02,0,0.03,0c0.04,0.01,0.07,0.02,0.11,0.04c0.01,0,0.03,0.01,0.04,0.03
									c0.01,0.01,0.03,0.02,0.04,0.03l0.02,0.02h0c0.11-0.37,0.4-0.66,0.77-0.78C65.13,29.11,65.11,28.89,65.09,28.67z
									 M65.09,28.67c-0.66,0.15-1.18,0.66-1.35,1.31h0.33c0.02,0,0.05,0,0.07,0.01c0.01,0,0.02,0,0.03,0
									c0.04,0.01,0.07,0.02,0.11,0.04c0.01,0,0.03,0.01,0.04,0.03c0.01,0.01,0.03,0.02,0.04,0.03l0.02,0.02h0
									c0.11-0.37,0.4-0.66,0.77-0.78C65.13,29.11,65.11,28.89,65.09,28.67z M65.09,28.67c-0.66,0.15-1.18,0.66-1.35,1.31h0.33
									c0.02,0,0.05,0,0.07,0.01c0.01,0,0.02,0,0.03,0c0.04,0.01,0.07,0.02,0.11,0.04c0.01,0,0.03,0.01,0.04,0.03
									c0.01,0.01,0.03,0.02,0.04,0.03l0.02,0.02h0c0.11-0.37,0.4-0.66,0.77-0.78C65.13,29.11,65.11,28.89,65.09,28.67z
									 M65.09,28.67c-0.66,0.15-1.18,0.66-1.35,1.31h0.33c0.02,0,0.05,0,0.07,0.01c0.01,0,0.02,0,0.03,0
									c0.04,0.01,0.07,0.02,0.11,0.04c0.01,0,0.03,0.01,0.04,0.03c0.01,0.01,0.03,0.02,0.04,0.03l0.02,0.02h0
									c0.11-0.37,0.4-0.66,0.77-0.78C65.13,29.11,65.11,28.89,65.09,28.67z M65.09,28.67c-0.66,0.15-1.18,0.66-1.35,1.31h0.33
									c0.02,0,0.05,0,0.07,0.01c0.01,0,0.02,0,0.03,0c0.04,0.01,0.07,0.02,0.11,0.04c0.01,0,0.03,0.01,0.04,0.03
									c0.01,0.01,0.03,0.02,0.04,0.03l0.02,0.02h0c0.11-0.37,0.4-0.66,0.77-0.78C65.13,29.11,65.11,28.89,65.09,28.67z
									 M65.09,28.67c-0.66,0.15-1.18,0.66-1.35,1.31h0.33c0.02,0,0.05,0,0.07,0.01c0.01,0,0.02,0,0.03,0
									c0.04,0.01,0.07,0.02,0.11,0.04c0.01,0,0.03,0.01,0.04,0.03c0.01,0.01,0.03,0.02,0.04,0.03l0.02,0.02h0
									c0.11-0.37,0.4-0.66,0.77-0.78C65.13,29.11,65.11,28.89,65.09,28.67z M65.1,28.67h-0.01c-0.66,0.15-1.18,0.66-1.35,1.31
									h0.33c0.02,0,0.05,0,0.07,0.01c0.01,0,0.02,0,0.03,0c0.04,0.01,0.07,0.02,0.11,0.04c0.01,0,0.03,0.01,0.04,0.03
									c0.01,0.01,0.03,0.02,0.04,0.03l0.02,0.02h0c0.11-0.37,0.4-0.66,0.77-0.78c0,0,0.01,0,0.01,0
									C65.14,29.11,65.12,28.89,65.1,28.67z M65.1,28.67h-0.01c-0.66,0.15-1.18,0.66-1.35,1.31h0.33c0.02,0,0.05,0,0.07,0.01
									c0.01,0,0.02,0,0.03,0c0.04,0.01,0.07,0.02,0.11,0.04c0.01,0,0.03,0.01,0.04,0.03c0.01,0.01,0.03,0.02,0.04,0.03l0.02,0.02
									h0c0.11-0.37,0.4-0.66,0.77-0.78c0,0,0.01,0,0.01,0C65.14,29.11,65.12,28.89,65.1,28.67z M65.1,28.67h-0.01
									c-0.66,0.15-1.18,0.66-1.35,1.31h0.33c0.02,0,0.05,0,0.07,0.01c0.01,0,0.02,0,0.03,0c0.04,0.01,0.07,0.02,0.11,0.04
									c0.01,0,0.03,0.01,0.04,0.03c0.01,0.01,0.03,0.02,0.04,0.03l0.02,0.02h0c0.11-0.37,0.4-0.66,0.77-0.78c0,0,0.01,0,0.01,0
									C65.14,29.11,65.12,28.89,65.1,28.67z M65.74,28.64c-0.07-0.01-0.15-0.02-0.23-0.02c-0.14,0-0.28,0.02-0.41,0.05h-0.01
									c-0.66,0.15-1.18,0.66-1.35,1.31c-0.04,0.15-0.06,0.31-0.06,0.47c0,0.13,0.01,0.25,0.04,0.37c0.14,0.7,0.68,1.25,1.37,1.41
									c0,0,0,0,0.01,0c0.13,0.03,0.27,0.05,0.42,0.05c0.07,0,0.14,0,0.22-0.02h0c0.9-0.11,1.61-0.88,1.61-1.81
									S66.64,28.75,65.74,28.64z M65.79,31.61c-0.09,0.02-0.18,0.03-0.28,0.03c-0.12,0-0.24-0.02-0.35-0.06c0,0-0.01,0-0.02,0
									c-0.39-0.13-0.69-0.45-0.78-0.86v0c-0.03-0.08-0.03-0.17-0.03-0.26c0-0.12,0.02-0.23,0.05-0.34c0,0,0,0,0,0
									c0.11-0.37,0.4-0.66,0.77-0.78c0,0,0.01,0,0.01,0c0.11-0.03,0.23-0.05,0.35-0.05c0.1,0,0.19,0.01,0.28,0.04
									c0.52,0.12,0.9,0.59,0.9,1.15C66.69,31.01,66.3,31.48,65.79,31.61z M65.1,28.67h-0.01c-0.66,0.15-1.18,0.66-1.35,1.31h0.33
									c0.02,0,0.05,0,0.07,0.01c0.01,0,0.02,0,0.03,0c0.04,0.01,0.07,0.02,0.11,0.04c0.01,0,0.03,0.01,0.04,0.03
									c0.01,0.01,0.03,0.02,0.04,0.03l0.02,0.02h0c0.11-0.37,0.4-0.66,0.77-0.78c0,0,0.01,0,0.01,0
									C65.14,29.11,65.12,28.89,65.1,28.67z M65.1,28.67h-0.01c-0.66,0.15-1.18,0.66-1.35,1.31h0.33c0.02,0,0.05,0,0.07,0.01
									c0.01,0,0.02,0,0.03,0c0.04,0.01,0.07,0.02,0.11,0.04c0.01,0,0.03,0.01,0.04,0.03c0.01,0.01,0.03,0.02,0.04,0.03l0.02,0.02
									h0c0.11-0.37,0.4-0.66,0.77-0.78c0,0,0.01,0,0.01,0C65.14,29.11,65.12,28.89,65.1,28.67z M65.1,28.67h-0.01
									c-0.66,0.15-1.18,0.66-1.35,1.31h0.33c0.02,0,0.05,0,0.07,0.01c0.01,0,0.02,0,0.03,0c0.04,0.01,0.07,0.02,0.11,0.04
									c0.01,0,0.03,0.01,0.04,0.03c0.01,0.01,0.03,0.02,0.04,0.03l0.02,0.02h0c0.11-0.37,0.4-0.66,0.77-0.78c0,0,0.01,0,0.01,0
									C65.14,29.11,65.12,28.89,65.1,28.67z M65.09,28.67c-0.66,0.15-1.18,0.66-1.35,1.31h0.33c0.02,0,0.05,0,0.07,0.01
									c0.01,0,0.02,0,0.03,0c0.04,0.01,0.07,0.02,0.11,0.04c0.01,0,0.03,0.01,0.04,0.03c0.01,0.01,0.03,0.02,0.04,0.03l0.02,0.02
									h0c0.11-0.37,0.4-0.66,0.77-0.78C65.13,29.11,65.11,28.89,65.09,28.67z M65.09,28.67c-0.66,0.15-1.18,0.66-1.35,1.31h0.33
									c0.02,0,0.05,0,0.07,0.01c0.01,0,0.02,0,0.03,0c0.04,0.01,0.07,0.02,0.11,0.04c0.01,0,0.03,0.01,0.04,0.03
									c0.01,0.01,0.03,0.02,0.04,0.03l0.02,0.02h0c0.11-0.37,0.4-0.66,0.77-0.78C65.13,29.11,65.11,28.89,65.09,28.67z
									 M65.09,28.67c-0.66,0.15-1.18,0.66-1.35,1.31h0.33c0.02,0,0.05,0,0.07,0.01c0.01,0,0.02,0,0.03,0
									c0.04,0.01,0.07,0.02,0.11,0.04c0.01,0,0.03,0.01,0.04,0.03c0.01,0.01,0.03,0.02,0.04,0.03l0.02,0.02h0
									c0.11-0.37,0.4-0.66,0.77-0.78C65.13,29.11,65.11,28.89,65.09,28.67z M65.09,28.67c-0.66,0.15-1.18,0.66-1.35,1.31h0.33
									c0.02,0,0.05,0,0.07,0.01c0.01,0,0.02,0,0.03,0c0.04,0.01,0.07,0.02,0.11,0.04c0.01,0,0.03,0.01,0.04,0.03
									c0.01,0.01,0.03,0.02,0.04,0.03l0.02,0.02h0c0.11-0.37,0.4-0.66,0.77-0.78C65.13,29.11,65.11,28.89,65.09,28.67z
									 M65.09,28.67c-0.66,0.15-1.18,0.66-1.35,1.31h0.33c0.02,0,0.05,0,0.07,0.01c0.01,0,0.02,0,0.03,0
									c0.04,0.01,0.07,0.02,0.11,0.04c0.01,0,0.03,0.01,0.04,0.03c0.01,0.01,0.03,0.02,0.04,0.03l0.02,0.02h0
									c0.11-0.37,0.4-0.66,0.77-0.78C65.13,29.11,65.11,28.89,65.09,28.67z M65.09,28.67c-0.66,0.15-1.18,0.66-1.35,1.31h0.33
									c0.02,0,0.05,0,0.07,0.01c0.01,0,0.02,0,0.03,0c0.04,0.01,0.07,0.02,0.11,0.04c0.01,0,0.03,0.01,0.04,0.03
									c0.01,0.01,0.03,0.02,0.04,0.03l0.02,0.02h0c0.11-0.37,0.4-0.66,0.77-0.78C65.13,29.11,65.11,28.89,65.09,28.67z
									 M65.09,28.67c-0.66,0.15-1.18,0.66-1.35,1.31h0.33c0.02,0,0.05,0,0.07,0.01c0.01,0,0.02,0,0.03,0
									c0.04,0.01,0.07,0.02,0.11,0.04c0.01,0,0.03,0.01,0.04,0.03c0.01,0.01,0.03,0.02,0.04,0.03l0.02,0.02h0
									c0.11-0.37,0.4-0.66,0.77-0.78C65.13,29.11,65.11,28.89,65.09,28.67z M65.09,28.67c-0.66,0.15-1.18,0.66-1.35,1.31h0.33
									c0.02,0,0.05,0,0.07,0.01c0.01,0,0.02,0,0.03,0c0.04,0.01,0.07,0.02,0.11,0.04c0.01,0,0.03,0.01,0.04,0.03
									c0.01,0.01,0.03,0.02,0.04,0.03l0.02,0.02c0,0,0,0,0,0c0.11-0.37,0.4-0.66,0.77-0.78C65.13,29.11,65.11,28.89,65.09,28.67z"
                                />
							</g>
						</g>
					</g>
                    <g>
						<g>
							<g>
								<path class="st1" d="M49.38,14.76c-0.08,0.05-0.17,0.08-0.25,0.11c-0.11,0.03-0.21,0.05-0.33,0.05
									c-0.11,0-0.22-0.02-0.32-0.05c-0.09-0.03-0.18-0.06-0.26-0.11c-0.19-0.11-0.35-0.27-0.45-0.46
									c-0.04-0.07-0.07-0.14-0.09-0.21c-0.22,0.01-0.44,0.03-0.66,0.06c0.06,0.23,0.16,0.45,0.3,0.64
									c0.12,0.18,0.28,0.33,0.46,0.45c0.21,0.14,0.44,0.25,0.71,0.29c0.1,0.03,0.21,0.03,0.32,0.03c0.11,0,0.22-0.01,0.33-0.03
									c0.26-0.05,0.5-0.15,0.71-0.29C49.67,15.06,49.52,14.9,49.38,14.76z M49.38,14.76c-0.08,0.05-0.17,0.08-0.25,0.11
									c-0.11,0.03-0.21,0.05-0.33,0.05c-0.11,0-0.22-0.02-0.32-0.05c-0.09-0.03-0.18-0.06-0.26-0.11
									c-0.19-0.11-0.35-0.27-0.45-0.46c-0.04-0.07-0.07-0.14-0.09-0.21c-0.22,0.01-0.44,0.03-0.66,0.06
									c0.06,0.23,0.16,0.45,0.3,0.64c0.12,0.18,0.28,0.33,0.46,0.45c0.21,0.14,0.44,0.25,0.71,0.29c0.1,0.03,0.21,0.03,0.32,0.03
									c0.11,0,0.22-0.01,0.33-0.03c0.26-0.05,0.5-0.15,0.71-0.29C49.67,15.06,49.52,14.9,49.38,14.76z M49.38,14.76
									c-0.08,0.05-0.17,0.08-0.25,0.11c-0.11,0.03-0.21,0.05-0.33,0.05c-0.11,0-0.22-0.02-0.32-0.05
									c-0.09-0.03-0.18-0.06-0.26-0.11c-0.19-0.11-0.35-0.27-0.45-0.46c-0.04-0.07-0.07-0.14-0.09-0.21
									c-0.22,0.01-0.44,0.03-0.66,0.06c0.06,0.23,0.16,0.45,0.3,0.64c0.12,0.18,0.28,0.33,0.46,0.45
									c0.21,0.14,0.44,0.25,0.71,0.29c0.1,0.03,0.21,0.03,0.32,0.03c0.11,0,0.22-0.01,0.33-0.03c0.26-0.05,0.5-0.15,0.71-0.29
									C49.67,15.06,49.52,14.9,49.38,14.76z M49.38,14.76c-0.08,0.05-0.17,0.08-0.25,0.11c-0.11,0.03-0.21,0.05-0.33,0.05
									c-0.11,0-0.22-0.02-0.32-0.05c-0.09-0.03-0.18-0.06-0.26-0.11c-0.19-0.11-0.35-0.27-0.45-0.46
									c-0.04-0.07-0.07-0.14-0.09-0.21c-0.22,0.01-0.44,0.03-0.66,0.06c0.06,0.23,0.16,0.45,0.3,0.64
									c0.12,0.18,0.28,0.33,0.46,0.45c0.21,0.14,0.44,0.25,0.71,0.29c0.1,0.03,0.21,0.03,0.32,0.03c0.11,0,0.22-0.01,0.33-0.03
									c0.26-0.05,0.5-0.15,0.71-0.29C49.67,15.06,49.52,14.9,49.38,14.76z M49.38,14.76c-0.08,0.05-0.17,0.08-0.25,0.11
									c-0.11,0.03-0.21,0.05-0.33,0.05c-0.11,0-0.22-0.02-0.32-0.05c-0.09-0.03-0.18-0.06-0.26-0.11
									c-0.19-0.11-0.35-0.27-0.45-0.46c-0.04-0.07-0.07-0.14-0.09-0.21c-0.22,0.01-0.44,0.03-0.66,0.06
									c0.06,0.23,0.16,0.45,0.3,0.64c0.12,0.18,0.28,0.33,0.46,0.45c0.21,0.14,0.44,0.25,0.71,0.29c0.1,0.03,0.21,0.03,0.32,0.03
									c0.11,0,0.22-0.01,0.33-0.03c0.26-0.05,0.5-0.15,0.71-0.29C49.67,15.06,49.52,14.9,49.38,14.76z M49.38,14.76
									c-0.08,0.05-0.17,0.08-0.25,0.11c-0.11,0.03-0.21,0.05-0.33,0.05c-0.11,0-0.22-0.02-0.32-0.05
									c-0.09-0.03-0.18-0.06-0.26-0.11c-0.19-0.11-0.35-0.27-0.45-0.46c-0.04-0.07-0.07-0.14-0.09-0.21
									c-0.22,0.01-0.44,0.03-0.66,0.06c0.06,0.23,0.16,0.45,0.3,0.64c0.12,0.18,0.28,0.33,0.46,0.45
									c0.21,0.14,0.44,0.25,0.71,0.29c0.1,0.03,0.21,0.03,0.32,0.03c0.11,0,0.22-0.01,0.33-0.03c0.26-0.05,0.5-0.15,0.71-0.29
									C49.67,15.06,49.52,14.9,49.38,14.76z M49.38,14.76c-0.08,0.05-0.17,0.08-0.25,0.11c-0.11,0.03-0.21,0.05-0.33,0.05
									c-0.11,0-0.22-0.02-0.32-0.05c-0.09-0.03-0.18-0.06-0.26-0.11c-0.19-0.11-0.35-0.27-0.45-0.46
									c-0.04-0.07-0.07-0.14-0.09-0.21c-0.22,0.01-0.44,0.03-0.66,0.06c0.06,0.23,0.16,0.45,0.3,0.64
									c0.12,0.18,0.28,0.33,0.46,0.45c0.21,0.14,0.44,0.25,0.71,0.29c0.1,0.03,0.21,0.03,0.32,0.03c0.11,0,0.22-0.01,0.33-0.03
									c0.26-0.05,0.5-0.15,0.71-0.29C49.67,15.06,49.52,14.9,49.38,14.76z M49.38,14.76c-0.08,0.05-0.17,0.08-0.25,0.11
									c-0.11,0.03-0.21,0.05-0.33,0.05c-0.11,0-0.22-0.02-0.32-0.05c-0.09-0.03-0.18-0.06-0.26-0.11
									c-0.14,0.14-0.28,0.3-0.45,0.48c0.21,0.14,0.44,0.25,0.71,0.29c0.1,0.03,0.21,0.03,0.32,0.03c0.11,0,0.22-0.01,0.33-0.03
									c0.26-0.05,0.5-0.15,0.71-0.29C49.67,15.06,49.52,14.9,49.38,14.76z M49.38,14.76c-0.08,0.05-0.17,0.08-0.25,0.11
									c-0.11,0.03-0.21,0.05-0.33,0.05c-0.11,0-0.22-0.02-0.32-0.05c-0.09-0.03-0.18-0.06-0.26-0.11
									c-0.19-0.11-0.35-0.27-0.45-0.46c-0.04-0.07-0.07-0.14-0.09-0.21c-0.22,0.01-0.44,0.03-0.66,0.06
									c0.06,0.23,0.16,0.45,0.3,0.64c0.12,0.18,0.28,0.33,0.46,0.45c0.21,0.14,0.44,0.25,0.71,0.29c0.1,0.03,0.21,0.03,0.32,0.03
									c0.11,0,0.22-0.01,0.33-0.03c0.26-0.05,0.5-0.15,0.71-0.29C49.67,15.06,49.52,14.9,49.38,14.76z M49.38,14.76
									c-0.08,0.05-0.17,0.08-0.25,0.11c-0.11,0.03-0.21,0.05-0.33,0.05c-0.11,0-0.22-0.02-0.32-0.05
									c-0.09-0.03-0.18-0.06-0.26-0.11c-0.19-0.11-0.35-0.27-0.45-0.46c-0.04-0.07-0.07-0.14-0.09-0.21
									c-0.22,0.01-0.44,0.03-0.66,0.06c0.06,0.23,0.16,0.45,0.3,0.64c0.12,0.18,0.28,0.33,0.46,0.45
									c0.21,0.14,0.44,0.25,0.71,0.29c0.1,0.03,0.21,0.03,0.32,0.03c0.11,0,0.22-0.01,0.33-0.03c0.26-0.05,0.5-0.15,0.71-0.29
									C49.67,15.06,49.52,14.9,49.38,14.76z M49.38,14.76c-0.08,0.05-0.17,0.08-0.25,0.11c-0.11,0.03-0.21,0.05-0.33,0.05
									c-0.11,0-0.22-0.02-0.32-0.05c-0.09-0.03-0.18-0.06-0.26-0.11c-0.19-0.11-0.35-0.27-0.45-0.46
									c-0.04-0.07-0.07-0.14-0.09-0.21c-0.22,0.01-0.44,0.03-0.66,0.06c0.06,0.23,0.16,0.45,0.3,0.64
									c0.12,0.18,0.28,0.33,0.46,0.45c0.21,0.14,0.44,0.25,0.71,0.29c0.1,0.03,0.21,0.03,0.32,0.03c0.11,0,0.22-0.01,0.33-0.03
									c0.26-0.05,0.5-0.15,0.71-0.29C49.67,15.06,49.52,14.9,49.38,14.76z M49.38,14.76c-0.08,0.05-0.17,0.08-0.25,0.11
									c-0.11,0.03-0.21,0.05-0.33,0.05c-0.11,0-0.22-0.02-0.32-0.05c-0.09-0.03-0.18-0.06-0.26-0.11
									c-0.19-0.11-0.35-0.27-0.45-0.46c-0.04-0.07-0.07-0.14-0.09-0.21c-0.22,0.01-0.44,0.03-0.66,0.06
									c0.06,0.23,0.16,0.45,0.3,0.64c0.12,0.18,0.28,0.33,0.46,0.45c0.21,0.14,0.44,0.25,0.71,0.29c0.1,0.03,0.21,0.03,0.32,0.03
									c0.11,0,0.22-0.01,0.33-0.03c0.26-0.05,0.5-0.15,0.71-0.29C49.67,15.06,49.52,14.9,49.38,14.76z M49.38,14.76
									c-0.08,0.05-0.17,0.08-0.25,0.11c-0.11,0.03-0.21,0.05-0.33,0.05c-0.11,0-0.22-0.02-0.32-0.05
									c-0.09-0.03-0.18-0.06-0.26-0.11c-0.19-0.11-0.35-0.27-0.45-0.46c-0.04-0.07-0.07-0.14-0.09-0.21
									c-0.22,0.01-0.44,0.03-0.66,0.06c0.06,0.23,0.16,0.45,0.3,0.64c0.12,0.18,0.28,0.33,0.46,0.45
									c0.21,0.14,0.44,0.25,0.71,0.29c0.1,0.03,0.21,0.03,0.32,0.03c0.11,0,0.22-0.01,0.33-0.03c0.26-0.05,0.5-0.15,0.71-0.29
									C49.67,15.06,49.52,14.9,49.38,14.76z M49.38,14.76c-0.08,0.05-0.17,0.08-0.25,0.11c-0.11,0.03-0.21,0.05-0.33,0.05
									c-0.11,0-0.22-0.02-0.32-0.05c-0.09-0.03-0.18-0.06-0.26-0.11c-0.19-0.11-0.35-0.27-0.45-0.46
									c-0.04-0.07-0.07-0.14-0.09-0.21c-0.22,0.01-0.44,0.03-0.66,0.06c0.06,0.23,0.16,0.45,0.3,0.64
									c0.12,0.18,0.28,0.33,0.46,0.45c0.21,0.14,0.44,0.25,0.71,0.29c0.1,0.03,0.21,0.03,0.32,0.03c0.11,0,0.22-0.01,0.33-0.03
									c0.26-0.05,0.5-0.15,0.71-0.29C49.67,15.06,49.52,14.9,49.38,14.76z M49.38,14.76c-0.08,0.05-0.17,0.08-0.25,0.11
									c-0.11,0.03-0.21,0.05-0.33,0.05c-0.11,0-0.22-0.02-0.32-0.05c-0.09-0.03-0.18-0.06-0.26-0.11
									c-0.19-0.11-0.35-0.27-0.45-0.46c-0.04-0.07-0.07-0.14-0.09-0.21c-0.22,0.01-0.44,0.03-0.66,0.06
									c0.06,0.23,0.16,0.45,0.3,0.64c0.12,0.18,0.28,0.33,0.46,0.45c0.21,0.14,0.44,0.25,0.71,0.29c0.1,0.03,0.21,0.03,0.32,0.03
									c0.11,0,0.22-0.01,0.33-0.03c0.26-0.05,0.5-0.15,0.71-0.29C49.67,15.06,49.52,14.9,49.38,14.76z M49.38,14.76
									c-0.08,0.05-0.17,0.08-0.25,0.11c-0.11,0.03-0.21,0.05-0.33,0.05c-0.11,0-0.22-0.02-0.32-0.05
									c-0.09-0.03-0.18-0.06-0.26-0.11c-0.19-0.11-0.35-0.27-0.45-0.46c-0.04-0.07-0.07-0.14-0.09-0.21
									c-0.22,0.01-0.44,0.03-0.66,0.06c0.06,0.23,0.16,0.45,0.3,0.64c0.12,0.18,0.28,0.33,0.46,0.45
									c0.21,0.14,0.44,0.25,0.71,0.29c0.1,0.03,0.21,0.03,0.32,0.03c0.11,0,0.22-0.01,0.33-0.03c0.26-0.05,0.5-0.15,0.71-0.29
									C49.67,15.06,49.52,14.9,49.38,14.76z M49.38,14.76c-0.08,0.05-0.17,0.08-0.25,0.11c-0.11,0.03-0.21,0.05-0.33,0.05
									c-0.11,0-0.22-0.02-0.32-0.05c-0.09-0.03-0.18-0.06-0.26-0.11c-0.14,0.14-0.28,0.3-0.45,0.48c0.21,0.14,0.44,0.25,0.71,0.29
									c0.1,0.03,0.21,0.03,0.32,0.03c0.11,0,0.22-0.01,0.33-0.03c0.26-0.05,0.5-0.15,0.71-0.29
									C49.67,15.06,49.52,14.9,49.38,14.76z M49.38,14.76c-0.08,0.05-0.17,0.08-0.25,0.11c-0.11,0.03-0.21,0.05-0.33,0.05
									c-0.11,0-0.22-0.02-0.32-0.05c-0.09-0.03-0.18-0.06-0.26-0.11c-0.14,0.14-0.28,0.3-0.45,0.48c0.21,0.14,0.44,0.25,0.71,0.29
									c0.1,0.03,0.21,0.03,0.32,0.03c0.11,0,0.22-0.01,0.33-0.03c0.26-0.05,0.5-0.15,0.71-0.29
									C49.67,15.06,49.52,14.9,49.38,14.76z M49.38,14.76c-0.08,0.05-0.17,0.08-0.25,0.11c-0.11,0.03-0.21,0.05-0.33,0.05
									c-0.11,0-0.22-0.02-0.32-0.05c-0.09-0.03-0.18-0.06-0.26-0.11c-0.14,0.14-0.28,0.3-0.45,0.48c0.21,0.14,0.44,0.25,0.71,0.29
									c0.1,0.03,0.21,0.03,0.32,0.03c0.11,0,0.22-0.01,0.33-0.03c0.26-0.05,0.5-0.15,0.71-0.29
									C49.67,15.06,49.52,14.9,49.38,14.76z M50.62,13.51L50.62,13.51c-0.11-0.91-0.89-1.61-1.82-1.61c-0.93,0-1.7,0.7-1.81,1.61
									v0c-0.02,0.07-0.02,0.14-0.02,0.22c0,0.15,0.02,0.28,0.05,0.42v0c0.06,0.23,0.16,0.45,0.3,0.64
									c0.12,0.18,0.28,0.33,0.46,0.45c0.21,0.14,0.44,0.25,0.71,0.29c0.1,0.03,0.21,0.03,0.32,0.03c0.11,0,0.22-0.01,0.33-0.03
									c0.26-0.05,0.5-0.15,0.71-0.29c0.18-0.12,0.33-0.27,0.45-0.45c0.14-0.19,0.24-0.41,0.29-0.64c0,0,0,0,0-0.01
									c0.04-0.13,0.06-0.27,0.06-0.42C50.64,13.65,50.63,13.58,50.62,13.51z M49.93,14.09c-0.03,0.08-0.06,0.15-0.1,0.22
									c-0.11,0.19-0.26,0.35-0.45,0.45c-0.08,0.05-0.17,0.08-0.25,0.11c-0.11,0.03-0.21,0.05-0.33,0.05
									c-0.11,0-0.22-0.02-0.32-0.05c-0.09-0.03-0.18-0.06-0.26-0.11c-0.19-0.11-0.35-0.27-0.45-0.46
									c-0.04-0.07-0.07-0.14-0.09-0.21c0,0,0,0,0-0.01c-0.04-0.11-0.06-0.23-0.06-0.36c0-0.1,0.01-0.19,0.03-0.28v0
									c0.13-0.52,0.59-0.9,1.15-0.9c0.56,0,1.02,0.38,1.15,0.9v0c0.02,0.09,0.04,0.18,0.04,0.28
									C49.99,13.85,49.97,13.97,49.93,14.09C49.93,14.09,49.93,14.09,49.93,14.09z M49.38,14.76c-0.08,0.05-0.17,0.08-0.25,0.11
									c-0.11,0.03-0.21,0.05-0.33,0.05c-0.11,0-0.22-0.02-0.32-0.05c-0.09-0.03-0.18-0.06-0.26-0.11
									c-0.14,0.14-0.28,0.3-0.45,0.48c0.21,0.14,0.44,0.25,0.71,0.29c0.1,0.03,0.21,0.03,0.32,0.03c0.11,0,0.22-0.01,0.33-0.03
									c0.26-0.05,0.5-0.15,0.71-0.29C49.67,15.06,49.52,14.9,49.38,14.76z M49.38,14.76c-0.08,0.05-0.17,0.08-0.25,0.11
									c-0.11,0.03-0.21,0.05-0.33,0.05c-0.11,0-0.22-0.02-0.32-0.05c-0.09-0.03-0.18-0.06-0.26-0.11
									c-0.14,0.14-0.28,0.3-0.45,0.48c0.21,0.14,0.44,0.25,0.71,0.29c0.1,0.03,0.21,0.03,0.32,0.03c0.11,0,0.22-0.01,0.33-0.03
									c0.26-0.05,0.5-0.15,0.71-0.29C49.67,15.06,49.52,14.9,49.38,14.76z M49.38,14.76c-0.08,0.05-0.17,0.08-0.25,0.11
									c-0.11,0.03-0.21,0.05-0.33,0.05c-0.11,0-0.22-0.02-0.32-0.05c-0.09-0.03-0.18-0.06-0.26-0.11
									c-0.14,0.14-0.28,0.3-0.45,0.48c0.21,0.14,0.44,0.25,0.71,0.29c0.1,0.03,0.21,0.03,0.32,0.03c0.11,0,0.22-0.01,0.33-0.03
									c0.26-0.05,0.5-0.15,0.71-0.29C49.67,15.06,49.52,14.9,49.38,14.76z M49.38,14.76c-0.08,0.05-0.17,0.08-0.25,0.11
									c-0.11,0.03-0.21,0.05-0.33,0.05c-0.11,0-0.22-0.02-0.32-0.05c-0.09-0.03-0.18-0.06-0.26-0.11
									c-0.19-0.11-0.35-0.27-0.45-0.46c-0.04-0.07-0.07-0.14-0.09-0.21c-0.22,0.01-0.44,0.03-0.66,0.06
									c0.06,0.23,0.16,0.45,0.3,0.64c0.12,0.18,0.28,0.33,0.46,0.45c0.21,0.14,0.44,0.25,0.71,0.29c0.1,0.03,0.21,0.03,0.32,0.03
									c0.11,0,0.22-0.01,0.33-0.03c0.26-0.05,0.5-0.15,0.71-0.29C49.67,15.06,49.52,14.9,49.38,14.76z M49.38,14.76
									c-0.08,0.05-0.17,0.08-0.25,0.11c-0.11,0.03-0.21,0.05-0.33,0.05c-0.11,0-0.22-0.02-0.32-0.05
									c-0.09-0.03-0.18-0.06-0.26-0.11c-0.19-0.11-0.35-0.27-0.45-0.46c-0.04-0.07-0.07-0.14-0.09-0.21
									c-0.22,0.01-0.44,0.03-0.66,0.06c0.06,0.23,0.16,0.45,0.3,0.64c0.12,0.18,0.28,0.33,0.46,0.45
									c0.21,0.14,0.44,0.25,0.71,0.29c0.1,0.03,0.21,0.03,0.32,0.03c0.11,0,0.22-0.01,0.33-0.03c0.26-0.05,0.5-0.15,0.71-0.29
									C49.67,15.06,49.52,14.9,49.38,14.76z M49.38,14.76c-0.08,0.05-0.17,0.08-0.25,0.11c-0.11,0.03-0.21,0.05-0.33,0.05
									c-0.11,0-0.22-0.02-0.32-0.05c-0.09-0.03-0.18-0.06-0.26-0.11c-0.19-0.11-0.35-0.27-0.45-0.46
									c-0.04-0.07-0.07-0.14-0.09-0.21c-0.22,0.01-0.44,0.03-0.66,0.06c0.06,0.23,0.16,0.45,0.3,0.64
									c0.12,0.18,0.28,0.33,0.46,0.45c0.21,0.14,0.44,0.25,0.71,0.29c0.1,0.03,0.21,0.03,0.32,0.03c0.11,0,0.22-0.01,0.33-0.03
									c0.26-0.05,0.5-0.15,0.71-0.29C49.67,15.06,49.52,14.9,49.38,14.76z M49.38,14.76c-0.08,0.05-0.17,0.08-0.25,0.11
									c-0.11,0.03-0.21,0.05-0.33,0.05c-0.11,0-0.22-0.02-0.32-0.05c-0.09-0.03-0.18-0.06-0.26-0.11
									c-0.19-0.11-0.35-0.27-0.45-0.46c-0.04-0.07-0.07-0.14-0.09-0.21c-0.22,0.01-0.44,0.03-0.66,0.06
									c0.06,0.23,0.16,0.45,0.3,0.64c0.12,0.18,0.28,0.33,0.46,0.45c0.21,0.14,0.44,0.25,0.71,0.29c0.1,0.03,0.21,0.03,0.32,0.03
									c0.11,0,0.22-0.01,0.33-0.03c0.26-0.05,0.5-0.15,0.71-0.29C49.67,15.06,49.52,14.9,49.38,14.76z M49.38,14.76
									c-0.08,0.05-0.17,0.08-0.25,0.11c-0.11,0.03-0.21,0.05-0.33,0.05c-0.11,0-0.22-0.02-0.32-0.05
									c-0.09-0.03-0.18-0.06-0.26-0.11c-0.19-0.11-0.35-0.27-0.45-0.46c-0.04-0.07-0.07-0.14-0.09-0.21
									c-0.22,0.01-0.44,0.03-0.66,0.06c0.06,0.23,0.16,0.45,0.3,0.64c0.12,0.18,0.28,0.33,0.46,0.45
									c0.21,0.14,0.44,0.25,0.71,0.29c0.1,0.03,0.21,0.03,0.32,0.03c0.11,0,0.22-0.01,0.33-0.03c0.26-0.05,0.5-0.15,0.71-0.29
									C49.67,15.06,49.52,14.9,49.38,14.76z M49.38,14.76c-0.08,0.05-0.17,0.08-0.25,0.11c-0.11,0.03-0.21,0.05-0.33,0.05
									c-0.11,0-0.22-0.02-0.32-0.05c-0.09-0.03-0.18-0.06-0.26-0.11c-0.19-0.11-0.35-0.27-0.45-0.46
									c-0.04-0.07-0.07-0.14-0.09-0.21c-0.22,0.01-0.44,0.03-0.66,0.06c0.06,0.23,0.16,0.45,0.3,0.64
									c0.12,0.18,0.28,0.33,0.46,0.45c0.21,0.14,0.44,0.25,0.71,0.29c0.1,0.03,0.21,0.03,0.32,0.03c0.11,0,0.22-0.01,0.33-0.03
									c0.26-0.05,0.5-0.15,0.71-0.29C49.67,15.06,49.52,14.9,49.38,14.76z M49.38,14.76c-0.08,0.05-0.17,0.08-0.25,0.11
									c-0.11,0.03-0.21,0.05-0.33,0.05c-0.11,0-0.22-0.02-0.32-0.05c-0.09-0.03-0.18-0.06-0.26-0.11
									c-0.19-0.11-0.35-0.27-0.45-0.46c-0.04-0.07-0.07-0.14-0.09-0.21c-0.22,0.01-0.44,0.03-0.66,0.06
									c0.06,0.23,0.16,0.45,0.3,0.64c0.12,0.18,0.28,0.33,0.46,0.45c0.21,0.14,0.44,0.25,0.71,0.29c0.1,0.03,0.21,0.03,0.32,0.03
									c0.11,0,0.22-0.01,0.33-0.03c0.26-0.05,0.5-0.15,0.71-0.29C49.67,15.06,49.52,14.9,49.38,14.76z M49.38,14.76
									c-0.08,0.05-0.17,0.08-0.25,0.11c-0.11,0.03-0.21,0.05-0.33,0.05c-0.11,0-0.22-0.02-0.32-0.05
									c-0.09-0.03-0.18-0.06-0.26-0.11c-0.14,0.14-0.28,0.3-0.45,0.48c0.21,0.14,0.44,0.25,0.71,0.29
									c0.1,0.03,0.21,0.03,0.32,0.03c0.11,0,0.22-0.01,0.33-0.03c0.26-0.05,0.5-0.15,0.71-0.29
									C49.67,15.06,49.52,14.9,49.38,14.76z M49.38,14.76c-0.08,0.05-0.17,0.08-0.25,0.11c-0.11,0.03-0.21,0.05-0.33,0.05
									c-0.11,0-0.22-0.02-0.32-0.05c-0.09-0.03-0.18-0.06-0.26-0.11c-0.14,0.14-0.28,0.3-0.45,0.48c0.21,0.14,0.44,0.25,0.71,0.29
									c0.1,0.03,0.21,0.03,0.32,0.03c0.11,0,0.22-0.01,0.33-0.03c0.26-0.05,0.5-0.15,0.71-0.29
									C49.67,15.06,49.52,14.9,49.38,14.76z M49.38,14.76c-0.08,0.05-0.17,0.08-0.25,0.11c-0.11,0.03-0.21,0.05-0.33,0.05
									c-0.11,0-0.22-0.02-0.32-0.05c-0.09-0.03-0.18-0.06-0.26-0.11c-0.19-0.11-0.35-0.27-0.45-0.46
									c-0.04-0.07-0.07-0.14-0.09-0.21c-0.22,0.01-0.44,0.03-0.66,0.06c0.06,0.23,0.16,0.45,0.3,0.64
									c0.12,0.18,0.28,0.33,0.46,0.45c0.21,0.14,0.44,0.25,0.71,0.29c0.1,0.03,0.21,0.03,0.32,0.03c0.11,0,0.22-0.01,0.33-0.03
									c0.26-0.05,0.5-0.15,0.71-0.29C49.67,15.06,49.52,14.9,49.38,14.76z M49.38,14.76c-0.08,0.05-0.17,0.08-0.25,0.11
									c-0.11,0.03-0.21,0.05-0.33,0.05c-0.11,0-0.22-0.02-0.32-0.05c-0.09-0.03-0.18-0.06-0.26-0.11
									c-0.19-0.11-0.35-0.27-0.45-0.46c-0.04-0.07-0.07-0.14-0.09-0.21c-0.22,0.01-0.44,0.03-0.66,0.06
									c0.06,0.23,0.16,0.45,0.3,0.64c0.12,0.18,0.28,0.33,0.46,0.45c0.21,0.14,0.44,0.25,0.71,0.29c0.1,0.03,0.21,0.03,0.32,0.03
									c0.11,0,0.22-0.01,0.33-0.03c0.26-0.05,0.5-0.15,0.71-0.29C49.67,15.06,49.52,14.9,49.38,14.76z M49.38,14.76
									c-0.08,0.05-0.17,0.08-0.25,0.11c-0.11,0.03-0.21,0.05-0.33,0.05c-0.11,0-0.22-0.02-0.32-0.05
									c-0.09-0.03-0.18-0.06-0.26-0.11c-0.19-0.11-0.35-0.27-0.45-0.46c-0.04-0.07-0.07-0.14-0.09-0.21
									c-0.22,0.01-0.44,0.03-0.66,0.06c0.06,0.23,0.16,0.45,0.3,0.64c0.12,0.18,0.28,0.33,0.46,0.45
									c0.21,0.14,0.44,0.25,0.71,0.29c0.1,0.03,0.21,0.03,0.32,0.03c0.11,0,0.22-0.01,0.33-0.03c0.26-0.05,0.5-0.15,0.71-0.29
									C49.67,15.06,49.52,14.9,49.38,14.76z M49.38,14.76c-0.08,0.05-0.17,0.08-0.25,0.11c-0.11,0.03-0.21,0.05-0.33,0.05
									c-0.11,0-0.22-0.02-0.32-0.05c-0.09-0.03-0.18-0.06-0.26-0.11c-0.19-0.11-0.35-0.27-0.45-0.46
									c-0.04-0.07-0.07-0.14-0.09-0.21c-0.22,0.01-0.44,0.03-0.66,0.06c0.06,0.23,0.16,0.45,0.3,0.64
									c0.12,0.18,0.28,0.33,0.46,0.45c0.21,0.14,0.44,0.25,0.71,0.29c0.1,0.03,0.21,0.03,0.32,0.03c0.11,0,0.22-0.01,0.33-0.03
									c0.26-0.05,0.5-0.15,0.71-0.29C49.67,15.06,49.52,14.9,49.38,14.76z M49.38,14.76c-0.08,0.05-0.17,0.08-0.25,0.11
									c-0.11,0.03-0.21,0.05-0.33,0.05c-0.11,0-0.22-0.02-0.32-0.05c-0.09-0.03-0.18-0.06-0.26-0.11
									c-0.19-0.11-0.35-0.27-0.45-0.46c-0.04-0.07-0.07-0.14-0.09-0.21c-0.22,0.01-0.44,0.03-0.66,0.06
									c0.06,0.23,0.16,0.45,0.3,0.64c0.12,0.18,0.28,0.33,0.46,0.45c0.21,0.14,0.44,0.25,0.71,0.29c0.1,0.03,0.21,0.03,0.32,0.03
									c0.11,0,0.22-0.01,0.33-0.03c0.26-0.05,0.5-0.15,0.71-0.29C49.67,15.06,49.52,14.9,49.38,14.76z M49.38,14.76
									c-0.08,0.05-0.17,0.08-0.25,0.11c-0.11,0.03-0.21,0.05-0.33,0.05c-0.11,0-0.22-0.02-0.32-0.05
									c-0.09-0.03-0.18-0.06-0.26-0.11c-0.19-0.11-0.35-0.27-0.45-0.46c-0.04-0.07-0.07-0.14-0.09-0.21
									c-0.22,0.01-0.44,0.03-0.66,0.06c0.06,0.23,0.16,0.45,0.3,0.64c0.12,0.18,0.28,0.33,0.46,0.45
									c0.21,0.14,0.44,0.25,0.71,0.29c0.1,0.03,0.21,0.03,0.32,0.03c0.11,0,0.22-0.01,0.33-0.03c0.26-0.05,0.5-0.15,0.71-0.29
									C49.67,15.06,49.52,14.9,49.38,14.76z"/>
							</g>
						</g>
					</g>
                    <g>
						<g>
							<g>
								<path class="st1" d="M49.13,28.61c-0.11-0.02-0.22-0.03-0.33-0.03c-0.11,0-0.22,0.01-0.32,0.03
									c-0.72,0.12-1.29,0.67-1.46,1.38c-0.03,0.14-0.05,0.28-0.05,0.42c0,0.14,0.02,0.29,0.05,0.42c0.17,0.71,0.74,1.25,1.46,1.38
									c0.1,0.02,0.21,0.03,0.32,0.03c0.11,0,0.22-0.01,0.33-0.03c0.86-0.15,1.51-0.9,1.51-1.81
									C50.64,29.51,49.98,28.75,49.13,28.61z M49.13,31.55c-0.11,0.03-0.21,0.04-0.33,0.04c-0.11,0-0.22-0.01-0.32-0.04
									c-0.36-0.1-0.65-0.37-0.78-0.72c-0.05-0.13-0.08-0.27-0.08-0.42c0-0.15,0.03-0.29,0.08-0.42c0.13-0.35,0.42-0.62,0.78-0.72
									c0.1-0.03,0.21-0.04,0.32-0.04c0.11,0,0.22,0.02,0.33,0.04c0.49,0.14,0.86,0.6,0.86,1.14
									C49.99,30.95,49.62,31.41,49.13,31.55z"/>
							</g>
						</g>
					</g>
                    <g>
						<g>
							<g>
								<path class="st1" d="M49.13,45.33c-0.11-0.02-0.22-0.03-0.33-0.03c-0.11,0-0.22,0.01-0.32,0.03
									c-0.26,0.05-0.5,0.14-0.7,0.29c0.17,0.18,0.32,0.34,0.45,0.48c0.08-0.04,0.16-0.08,0.25-0.11c0.1-0.03,0.21-0.04,0.32-0.04
									c0.11,0,0.22,0.01,0.33,0.04c0.08,0.03,0.17,0.06,0.25,0.1c0.14-0.14,0.29-0.3,0.45-0.48
									C49.62,45.48,49.38,45.38,49.13,45.33z M49.13,45.33c-0.11-0.02-0.22-0.03-0.33-0.03c-0.11,0-0.22,0.01-0.32,0.03
									c-0.26,0.05-0.5,0.14-0.7,0.29c0.17,0.18,0.32,0.34,0.45,0.48c0.08-0.04,0.16-0.08,0.25-0.11c0.1-0.03,0.21-0.04,0.32-0.04
									c0.11,0,0.22,0.01,0.33,0.04c0.08,0.03,0.17,0.06,0.25,0.1c0.14-0.14,0.29-0.3,0.45-0.48
									C49.62,45.48,49.38,45.38,49.13,45.33z M49.13,45.33c-0.11-0.02-0.22-0.03-0.33-0.03c-0.11,0-0.22,0.01-0.32,0.03
									c-0.26,0.05-0.5,0.14-0.7,0.29c0.17,0.18,0.32,0.34,0.45,0.48c0.08-0.04,0.16-0.08,0.25-0.11c0.1-0.03,0.21-0.04,0.32-0.04
									c0.11,0,0.22,0.01,0.33,0.04c0.08,0.03,0.17,0.06,0.25,0.1c0.14-0.14,0.29-0.3,0.45-0.48
									C49.62,45.48,49.38,45.38,49.13,45.33z M49.13,45.33c-0.11-0.02-0.22-0.03-0.33-0.03c-0.11,0-0.22,0.01-0.32,0.03
									c-0.26,0.05-0.5,0.14-0.7,0.29c0.17,0.18,0.32,0.34,0.45,0.48c0.08-0.04,0.16-0.08,0.25-0.11c0.1-0.03,0.21-0.04,0.32-0.04
									c0.11,0,0.22,0.01,0.33,0.04c0.08,0.03,0.17,0.06,0.25,0.1c0.14-0.14,0.29-0.3,0.45-0.48
									C49.62,45.48,49.38,45.38,49.13,45.33z M49.13,45.33V46c0.08,0.03,0.17,0.06,0.25,0.1c0.14-0.14,0.29-0.3,0.45-0.48
									C49.62,45.48,49.38,45.38,49.13,45.33z M49.13,45.33c-0.11-0.02-0.22-0.03-0.33-0.03c-0.11,0-0.22,0.01-0.32,0.03
									c-0.26,0.05-0.5,0.14-0.7,0.29c0.17,0.18,0.32,0.34,0.45,0.48c0.08-0.04,0.16-0.08,0.25-0.11c0.1-0.03,0.21-0.04,0.32-0.04
									c0.11,0,0.22,0.01,0.33,0.04c0.08,0.03,0.17,0.06,0.25,0.1c0.14-0.14,0.29-0.3,0.45-0.48
									C49.62,45.48,49.38,45.38,49.13,45.33z M49.13,45.33c-0.11-0.02-0.22-0.03-0.33-0.03c-0.11,0-0.22,0.01-0.32,0.03
									c-0.26,0.05-0.5,0.14-0.7,0.29c0.17,0.18,0.32,0.34,0.45,0.48c0.08-0.04,0.16-0.08,0.25-0.11c0.1-0.03,0.21-0.04,0.32-0.04
									c0.11,0,0.22,0.01,0.33,0.04c0.08,0.03,0.17,0.06,0.25,0.1c0.14-0.14,0.29-0.3,0.45-0.48
									C49.62,45.48,49.38,45.38,49.13,45.33z M49.13,45.33c-0.11-0.02-0.22-0.03-0.33-0.03c-0.11,0-0.22,0.01-0.32,0.03
									c-0.26,0.05-0.5,0.14-0.7,0.29c0.17,0.18,0.32,0.34,0.45,0.48c0.08-0.04,0.16-0.08,0.25-0.11c0.1-0.03,0.21-0.04,0.32-0.04
									c0.11,0,0.22,0.01,0.33,0.04c0.08,0.03,0.17,0.06,0.25,0.1c0.14-0.14,0.29-0.3,0.45-0.48
									C49.62,45.48,49.38,45.38,49.13,45.33z M49.13,45.33c-0.11-0.02-0.22-0.03-0.33-0.03c-0.11,0-0.22,0.01-0.32,0.03
									c-0.26,0.05-0.5,0.14-0.7,0.29c0.17,0.18,0.32,0.34,0.45,0.48c0.08-0.04,0.16-0.08,0.25-0.11c0.1-0.03,0.21-0.04,0.32-0.04
									c0.11,0,0.22,0.01,0.33,0.04c0.08,0.03,0.17,0.06,0.25,0.1c0.14-0.14,0.29-0.3,0.45-0.48
									C49.62,45.48,49.38,45.38,49.13,45.33z M49.13,45.33c-0.11-0.02-0.22-0.03-0.33-0.03c-0.11,0-0.22,0.01-0.32,0.03
									c-0.26,0.05-0.5,0.14-0.7,0.29c0.17,0.18,0.32,0.34,0.45,0.48c0.08-0.04,0.16-0.08,0.25-0.11c0.1-0.03,0.21-0.04,0.32-0.04
									c0.11,0,0.22,0.01,0.33,0.04c0.08,0.03,0.17,0.06,0.25,0.1c0.14-0.14,0.29-0.3,0.45-0.48
									C49.62,45.48,49.38,45.38,49.13,45.33z M49.13,45.33c-0.11-0.02-0.22-0.03-0.33-0.03c-0.11,0-0.22,0.01-0.32,0.03
									c-0.26,0.05-0.5,0.14-0.7,0.29c0.17,0.18,0.32,0.34,0.45,0.48c0.08-0.04,0.16-0.08,0.25-0.11c0.1-0.03,0.21-0.04,0.32-0.04
									c0.11,0,0.22,0.01,0.33,0.04c0.08,0.03,0.17,0.06,0.25,0.1c0.14-0.14,0.29-0.3,0.45-0.48
									C49.62,45.48,49.38,45.38,49.13,45.33z M49.13,45.33c-0.11-0.02-0.22-0.03-0.33-0.03c-0.11,0-0.22,0.01-0.32,0.03
									c-0.26,0.05-0.5,0.14-0.7,0.29c0.17,0.18,0.32,0.34,0.45,0.48c0.08-0.04,0.16-0.08,0.25-0.11c0.1-0.03,0.21-0.04,0.32-0.04
									c0.11,0,0.22,0.01,0.33,0.04c0.08,0.03,0.17,0.06,0.25,0.1c0.14-0.14,0.29-0.3,0.45-0.48
									C49.62,45.48,49.38,45.38,49.13,45.33z M49.13,45.33c-0.11-0.02-0.22-0.03-0.33-0.03c-0.11,0-0.22,0.01-0.32,0.03
									c-0.26,0.05-0.5,0.14-0.7,0.29c0.17,0.18,0.32,0.34,0.45,0.48c0.08-0.04,0.16-0.08,0.25-0.11c0.1-0.03,0.21-0.04,0.32-0.04
									c0.11,0,0.22,0.01,0.33,0.04c0.08,0.03,0.17,0.06,0.25,0.1c0.14-0.14,0.29-0.3,0.45-0.48
									C49.62,45.48,49.38,45.38,49.13,45.33z M49.13,45.33V46c0.08,0.03,0.17,0.06,0.25,0.1c0.14-0.14,0.29-0.3,0.45-0.48
									C49.62,45.48,49.38,45.38,49.13,45.33z M49.13,45.33V46c0.08,0.03,0.17,0.06,0.25,0.1c0.14-0.14,0.29-0.3,0.45-0.48
									C49.62,45.48,49.38,45.38,49.13,45.33z M49.13,45.33V46c0.08,0.03,0.17,0.06,0.25,0.1c0.14-0.14,0.29-0.3,0.45-0.48
									C49.62,45.48,49.38,45.38,49.13,45.33z M50.58,46.72C50.58,46.72,50.58,46.72,50.58,46.72c-0.06-0.24-0.15-0.47-0.3-0.66
									c-0.12-0.17-0.28-0.33-0.46-0.45c-0.2-0.14-0.44-0.24-0.7-0.29c-0.11-0.02-0.22-0.03-0.33-0.03c-0.11,0-0.22,0.01-0.32,0.03
									c-0.26,0.05-0.5,0.14-0.7,0.29c-0.18,0.12-0.33,0.27-0.46,0.45c-0.14,0.19-0.25,0.41-0.3,0.64v0
									c-0.03,0.14-0.05,0.27-0.05,0.42c0,0.07,0,0.15,0.02,0.22c0,0,0,0,0,0.01c0.11,0.9,0.88,1.61,1.81,1.61
									c0.93,0,1.71-0.7,1.82-1.61v0c0.01-0.07,0.02-0.14,0.02-0.22C50.64,47,50.62,46.86,50.58,46.72z M49.95,47.42
									c-0.13,0.52-0.59,0.9-1.15,0.9c-0.56,0-1.02-0.38-1.15-0.9c0,0,0,0,0-0.01c-0.02-0.08-0.03-0.18-0.03-0.28
									c0-0.13,0.02-0.25,0.06-0.36v0c0.03-0.07,0.06-0.14,0.1-0.21c0.1-0.19,0.26-0.35,0.46-0.46c0.08-0.04,0.16-0.08,0.25-0.11
									c0.1-0.03,0.21-0.04,0.32-0.04c0.11,0,0.22,0.01,0.33,0.04c0.08,0.03,0.17,0.06,0.25,0.1v0c0.19,0.1,0.35,0.26,0.46,0.45
									c0.04,0.07,0.07,0.14,0.1,0.22c0,0,0,0,0,0.01c0.03,0.11,0.06,0.23,0.06,0.36C49.99,47.24,49.97,47.33,49.95,47.42
									L49.95,47.42z M49.13,45.33V46c0.08,0.03,0.17,0.06,0.25,0.1c0.14-0.14,0.29-0.3,0.45-0.48
									C49.62,45.48,49.38,45.38,49.13,45.33z M49.13,45.33V46c0.08,0.03,0.17,0.06,0.25,0.1c0.14-0.14,0.29-0.3,0.45-0.48
									C49.62,45.48,49.38,45.38,49.13,45.33z M49.13,45.33V46c0.08,0.03,0.17,0.06,0.25,0.1c0.14-0.14,0.29-0.3,0.45-0.48
									C49.62,45.48,49.38,45.38,49.13,45.33z M49.13,45.33c-0.11-0.02-0.22-0.03-0.33-0.03c-0.11,0-0.22,0.01-0.32,0.03
									c-0.26,0.05-0.5,0.14-0.7,0.29c0.17,0.18,0.32,0.34,0.45,0.48c0.08-0.04,0.16-0.08,0.25-0.11c0.1-0.03,0.21-0.04,0.32-0.04
									c0.11,0,0.22,0.01,0.33,0.04c0.08,0.03,0.17,0.06,0.25,0.1c0.14-0.14,0.29-0.3,0.45-0.48
									C49.62,45.48,49.38,45.38,49.13,45.33z M49.13,45.33c-0.11-0.02-0.22-0.03-0.33-0.03c-0.11,0-0.22,0.01-0.32,0.03
									c-0.26,0.05-0.5,0.14-0.7,0.29c0.17,0.18,0.32,0.34,0.45,0.48c0.08-0.04,0.16-0.08,0.25-0.11c0.1-0.03,0.21-0.04,0.32-0.04
									c0.11,0,0.22,0.01,0.33,0.04c0.08,0.03,0.17,0.06,0.25,0.1c0.14-0.14,0.29-0.3,0.45-0.48
									C49.62,45.48,49.38,45.38,49.13,45.33z M49.13,45.33c-0.11-0.02-0.22-0.03-0.33-0.03c-0.11,0-0.22,0.01-0.32,0.03
									c-0.26,0.05-0.5,0.14-0.7,0.29c0.17,0.18,0.32,0.34,0.45,0.48c0.08-0.04,0.16-0.08,0.25-0.11c0.1-0.03,0.21-0.04,0.32-0.04
									c0.11,0,0.22,0.01,0.33,0.04c0.08,0.03,0.17,0.06,0.25,0.1c0.14-0.14,0.29-0.3,0.45-0.48
									C49.62,45.48,49.38,45.38,49.13,45.33z M49.13,45.33c-0.11-0.02-0.22-0.03-0.33-0.03c-0.11,0-0.22,0.01-0.32,0.03
									c-0.26,0.05-0.5,0.14-0.7,0.29c0.17,0.18,0.32,0.34,0.45,0.48c0.08-0.04,0.16-0.08,0.25-0.11c0.1-0.03,0.21-0.04,0.32-0.04
									c0.11,0,0.22,0.01,0.33,0.04c0.08,0.03,0.17,0.06,0.25,0.1c0.14-0.14,0.29-0.3,0.45-0.48
									C49.62,45.48,49.38,45.38,49.13,45.33z M49.13,45.33c-0.11-0.02-0.22-0.03-0.33-0.03c-0.11,0-0.22,0.01-0.32,0.03
									c-0.26,0.05-0.5,0.14-0.7,0.29c0.17,0.18,0.32,0.34,0.45,0.48c0.08-0.04,0.16-0.08,0.25-0.11c0.1-0.03,0.21-0.04,0.32-0.04
									c0.11,0,0.22,0.01,0.33,0.04c0.08,0.03,0.17,0.06,0.25,0.1c0.14-0.14,0.29-0.3,0.45-0.48
									C49.62,45.48,49.38,45.38,49.13,45.33z M49.13,45.33c-0.11-0.02-0.22-0.03-0.33-0.03c-0.11,0-0.22,0.01-0.32,0.03
									c-0.26,0.05-0.5,0.14-0.7,0.29c0.17,0.18,0.32,0.34,0.45,0.48c0.08-0.04,0.16-0.08,0.25-0.11c0.1-0.03,0.21-0.04,0.32-0.04
									c0.11,0,0.22,0.01,0.33,0.04c0.08,0.03,0.17,0.06,0.25,0.1c0.14-0.14,0.29-0.3,0.45-0.48
									C49.62,45.48,49.38,45.38,49.13,45.33z M49.13,45.33c-0.11-0.02-0.22-0.03-0.33-0.03c-0.11,0-0.22,0.01-0.32,0.03
									c-0.26,0.05-0.5,0.14-0.7,0.29c0.17,0.18,0.32,0.34,0.45,0.48c0.08-0.04,0.16-0.08,0.25-0.11c0.1-0.03,0.21-0.04,0.32-0.04
									c0.11,0,0.22,0.01,0.33,0.04c0.08,0.03,0.17,0.06,0.25,0.1c0.14-0.14,0.29-0.3,0.45-0.48
									C49.62,45.48,49.38,45.38,49.13,45.33z M49.13,45.33V46c0.08,0.03,0.17,0.06,0.25,0.1c0.14-0.14,0.29-0.3,0.45-0.48
									C49.62,45.48,49.38,45.38,49.13,45.33z M49.13,45.33V46c0.08,0.03,0.17,0.06,0.25,0.1c0.14-0.14,0.29-0.3,0.45-0.48
									C49.62,45.48,49.38,45.38,49.13,45.33z M49.13,45.33c-0.11-0.02-0.22-0.03-0.33-0.03c-0.11,0-0.22,0.01-0.32,0.03
									c-0.26,0.05-0.5,0.14-0.7,0.29c0.17,0.18,0.32,0.34,0.45,0.48c0.08-0.04,0.16-0.08,0.25-0.11c0.1-0.03,0.21-0.04,0.32-0.04
									c0.11,0,0.22,0.01,0.33,0.04c0.08,0.03,0.17,0.06,0.25,0.1c0.14-0.14,0.29-0.3,0.45-0.48
									C49.62,45.48,49.38,45.38,49.13,45.33z M49.13,45.33c-0.11-0.02-0.22-0.03-0.33-0.03c-0.11,0-0.22,0.01-0.32,0.03
									c-0.26,0.05-0.5,0.14-0.7,0.29c0.17,0.18,0.32,0.34,0.45,0.48c0.08-0.04,0.16-0.08,0.25-0.11c0.1-0.03,0.21-0.04,0.32-0.04
									c0.11,0,0.22,0.01,0.33,0.04c0.08,0.03,0.17,0.06,0.25,0.1c0.14-0.14,0.29-0.3,0.45-0.48
									C49.62,45.48,49.38,45.38,49.13,45.33z M49.13,45.33c-0.11-0.02-0.22-0.03-0.33-0.03c-0.11,0-0.22,0.01-0.32,0.03
									c-0.26,0.05-0.5,0.14-0.7,0.29c0.17,0.18,0.32,0.34,0.45,0.48c0.08-0.04,0.16-0.08,0.25-0.11c0.1-0.03,0.21-0.04,0.32-0.04
									c0.11,0,0.22,0.01,0.33,0.04c0.08,0.03,0.17,0.06,0.25,0.1c0.14-0.14,0.29-0.3,0.45-0.48
									C49.62,45.48,49.38,45.38,49.13,45.33z"/>
							</g>
						</g>
					</g>
                    <g>
						<g>
							<g>
								<path class="st1" d="M48.23,46.11c-0.19,0.11-0.36,0.26-0.46,0.46c-0.14-0.15-0.29-0.31-0.45-0.49
									c-1.23-1.35-3.13-3.67-4.67-6.56c-0.15-0.28-0.29-0.56-0.43-0.85c-1.15-2.35-2.01-5.02-2.09-7.83
									c-0.01-0.14-0.01-0.28-0.01-0.42c0-0.14,0-0.28,0.01-0.42c0.08-2.79,0.93-5.45,2.06-7.78c0.14-0.29,0.28-0.57,0.43-0.85
									c1.54-2.89,3.45-5.22,4.69-6.57c0.16-0.18,0.31-0.34,0.45-0.49c0.11,0.19,0.26,0.35,0.45,0.46
									c-0.14,0.14-0.28,0.3-0.45,0.48c-0.78,0.85-1.84,2.1-2.89,3.63c-0.52,0.76-1.07,1.63-1.59,2.59
									c-0.13,0.24-0.26,0.49-0.39,0.74c-1.14,2.28-2.06,5-2.13,7.87v0c-0.01,0.11-0.01,0.22-0.01,0.33c0,0.11,0,0.22,0.01,0.33v0
									c0.06,2.85,0.97,5.56,2.15,7.92c0.12,0.25,0.25,0.49,0.38,0.72c1.48,2.74,3.28,4.94,4.46,6.23
									C47.94,45.8,48.09,45.96,48.23,46.11z"/>
							</g>
						</g>
					</g>
                    <g>
						<g>
							<g>
								<path class="st1" d="M54.55,40.23c-0.11,0.19-0.22,0.39-0.33,0.57c-1.37,2.29-2.89,4.13-3.94,5.27
									c-0.16,0.18-0.31,0.34-0.45,0.49c-0.11-0.19-0.27-0.35-0.46-0.45v0c0.14-0.14,0.29-0.3,0.45-0.48
									c1.02-1.12,2.5-2.92,3.84-5.15c0.11-0.19,0.22-0.38,0.33-0.57C54.15,40.06,54.34,40.18,54.55,40.23z"/>
							</g>
						</g>
                        <g>
							<g>
								<path class="st1" d="M54.57,20.63c-0.21,0.05-0.4,0.17-0.55,0.31c-0.11-0.19-0.22-0.39-0.33-0.57
									c-0.33-0.54-0.66-1.05-0.98-1.52c-1.05-1.53-2.1-2.77-2.87-3.62c-0.17-0.18-0.32-0.33-0.45-0.48
									c0.19-0.11,0.35-0.27,0.45-0.45c0.14,0.14,0.29,0.31,0.45,0.48c1.05,1.15,2.57,2.98,3.95,5.27
									C54.35,20.25,54.47,20.44,54.57,20.63z"/>
							</g>
						</g>
                        <g>
							<g>
								<path class="st1" d="M57.48,30.41c0,0.09,0,0.17,0,0.26c-0.04,2.44-0.68,4.78-1.59,6.9c-0.08,0.2-0.18,0.41-0.27,0.61
									c-0.17-0.14-0.36-0.23-0.59-0.26c0.09-0.2,0.19-0.4,0.27-0.61c0.86-2,1.46-4.19,1.52-6.47c0.01-0.14,0.01-0.28,0.01-0.42
									c0-0.14,0-0.28-0.01-0.42c-0.07-2.29-0.68-4.48-1.5-6.42c-0.08-0.21-0.17-0.41-0.27-0.61c0.22-0.03,0.42-0.13,0.58-0.26
									c0.09,0.2,0.18,0.4,0.27,0.61c0.89,2.1,1.53,4.42,1.57,6.85C57.48,30.23,57.48,30.32,57.48,30.41z"/>
							</g>
						</g>
					</g>
                    <g>
						<g>
							<g>
								<path class="st1" d="M49.13,14.87v14.4c-0.11-0.03-0.21-0.04-0.33-0.04c-0.11,0-0.22,0.02-0.32,0.04v-14.4
									c0.1,0.03,0.21,0.05,0.32,0.05C48.92,14.91,49.02,14.9,49.13,14.87z"/>
							</g>
						</g>
                        <g>
							<g>
								<path class="st1" d="M49.13,31.55V46c-0.11-0.03-0.21-0.04-0.33-0.04c-0.11,0-0.22,0.01-0.32,0.04V31.55
									c0.1,0.03,0.21,0.04,0.32,0.04C48.92,31.59,49.02,31.58,49.13,31.55z"/>
							</g>
						</g>
					</g>
                    <g>
						<g>
							<path class="st1" d="M47.62,30.41c0,0.15,0.03,0.29,0.08,0.42c-0.03,0-0.05,0.01-0.08,0.01h-5c-0.23,0-0.42-0.19-0.42-0.42
								c0-0.23,0.19-0.42,0.42-0.42h5c0.03,0,0.05,0,0.08,0.01C47.64,30.12,47.62,30.26,47.62,30.41z"/>
						</g>
					</g>
                    <g>
						<g>
							<path class="st1" d="M49.13,21.52v0.54c-0.08,0.09-0.19,0.15-0.33,0.15h-3.81c-0.23,0-0.42-0.19-0.42-0.42
								c0-0.23,0.19-0.42,0.42-0.42h3.81C48.93,21.36,49.05,21.42,49.13,21.52z"/>
						</g>
					</g>
                    <g>
						<g>
							<path class="st1" d="M53.72,21.47v0.62c-0.08,0.07-0.18,0.11-0.29,0.11h-2.58c-0.23,0-0.42-0.19-0.42-0.42
								c0-0.23,0.19-0.42,0.42-0.42h2.58C53.54,21.36,53.65,21.4,53.72,21.47z"/>
						</g>
					</g>
                    <g>
						<g>
							<path class="st1" d="M53.73,38.73L53.73,38.73l-0.02,0.63c-0.08,0.06-0.17,0.1-0.28,0.1h-2.58c-0.23,0-0.42-0.19-0.42-0.42
								s0.19-0.42,0.42-0.42h2.58C53.55,38.61,53.65,38.65,53.73,38.73z"/>
						</g>
					</g>
                    <g>
						<g>
							<path class="st1" d="M49.13,38.77v0.54c-0.08,0.09-0.19,0.15-0.33,0.15h-3.81c-0.23,0-0.42-0.19-0.42-0.42
								s0.19-0.42,0.42-0.42h3.81C48.93,38.61,49.05,38.67,49.13,38.77z"/>
						</g>
					</g>
                    <g>
						<g>
							<path class="st1" d="M40.78,30.07v0.67c-0.07,0.06-0.17,0.09-0.26,0.09h-5c-0.23,0-0.42-0.19-0.42-0.42
								c0-0.23,0.19-0.42,0.42-0.42h5C40.62,29.98,40.71,30.02,40.78,30.07z"/>
						</g>
					</g>
                    <g>
						<g>
							<path class="st1" d="M43.3,21.47c-0.13,0.24-0.26,0.49-0.39,0.74h-4.89c-0.23,0-0.42-0.19-0.42-0.42
								c0-0.23,0.19-0.42,0.42-0.42h5C43.12,21.36,43.22,21.4,43.3,21.47z"/>
						</g>
					</g>
                    <g>
						<g>
							<path class="st1" d="M43.32,39.39c-0.08,0.08-0.19,0.12-0.3,0.12h-5c-0.23,0-0.42-0.19-0.42-0.42s0.19-0.42,0.42-0.42h4.92
								C43.06,38.91,43.19,39.15,43.32,39.39z"/>
						</g>
					</g>
                    <g>
						<g>
							<path class="st1" d="M57.48,30.14v0.53c-0.08,0.1-0.19,0.16-0.33,0.16h-4.81c-0.23,0-0.42-0.19-0.42-0.42
								c0-0.23,0.19-0.42,0.42-0.42h4.81C57.28,29.98,57.4,30.05,57.48,30.14z"/>
						</g>
					</g>
                    <g>
						<g>
							<path class="st1" d="M64.38,30.12c-0.03,0.11-0.05,0.22-0.05,0.34c0,0.09,0.01,0.17,0.03,0.26v0
								c-0.08,0.07-0.18,0.11-0.29,0.11h-4.13c-0.23,0-0.42-0.19-0.42-0.42c0-0.23,0.19-0.42,0.42-0.42h4.13
								c0.02,0,0.05,0,0.07,0.01c0.01,0,0.02,0,0.03,0c0.04,0.01,0.07,0.02,0.11,0.04c0.01,0,0.03,0.01,0.04,0.03
								c0.01,0.01,0.03,0.02,0.04,0.03L64.38,30.12L64.38,30.12C64.38,30.12,64.38,30.12,64.38,30.12z"/>
						</g>
					</g>
                    <g>
						<g>
							<path class="st1" d="M63.47,21.78c-0.01,0.22-0.19,0.39-0.42,0.39h-4.57c-0.23,0-0.42-0.19-0.42-0.42
								c0-0.23,0.19-0.42,0.42-0.42h4.57c0.06,0,0.11,0.01,0.16,0.03l0.25,0.41C63.46,21.77,63.46,21.77,63.47,21.78z"/>
						</g>
					</g>
                    <g>
						<g>
							<path class="st1" d="M63.47,39.03c0,0.02,0,0.03,0,0.04c-0.06,0.11-0.12,0.21-0.19,0.31c-0.07,0.04-0.14,0.07-0.23,0.07
								h-4.57c-0.23,0-0.42-0.19-0.42-0.42s0.19-0.42,0.42-0.42h4.57C63.28,38.61,63.47,38.8,63.47,39.03z"/>
						</g>
					</g>
                    <g>
						<path class="st1" d="M32.51,28.67c-0.03,0.22-0.05,0.43-0.06,0.65c-0.11-0.03-0.23-0.05-0.36-0.05c-0.1,0-0.19,0.01-0.28,0.04
							c0.01-0.22,0.03-0.45,0.06-0.67c0.08-0.01,0.15-0.02,0.22-0.02C32.24,28.62,32.37,28.64,32.51,28.67z"/>
					</g>
                    <g>
						<path class="st1" d="M47.67,14.08c-0.22,0.01-0.44,0.03-0.66,0.06c-0.08,0-0.17,0.02-0.25,0.03
							c-0.33,0.04-0.67,0.09-0.99,0.15c-0.33,0.06-0.65,0.14-0.97,0.22c-0.32,0.08-0.64,0.17-0.95,0.27
							c-0.31,0.1-0.62,0.21-0.92,0.33c-0.31,0.11-0.61,0.24-0.9,0.38c-0.3,0.14-0.58,0.28-0.87,0.43c-0.28,0.15-0.57,0.31-0.84,0.48
							c-0.28,0.17-0.55,0.34-0.81,0.53c-0.27,0.18-0.53,0.37-0.78,0.57c-0.25,0.2-0.5,0.4-0.75,0.61c-0.24,0.22-0.47,0.43-0.7,0.66
							c-0.12,0.11-0.23,0.24-0.35,0.36h0c0,0-0.28,0.03-0.39-0.08c-0.12-0.11-0.1-0.31-0.1-0.31c0.22-0.23,0.44-0.46,0.67-0.68
							c0.23-0.22,0.47-0.44,0.72-0.64c0.24-0.21,0.49-0.41,0.75-0.6c0.25-0.19,0.52-0.38,0.78-0.56c0.27-0.18,0.54-0.35,0.81-0.51
							c0.28-0.17,0.56-0.32,0.85-0.47c0.28-0.15,0.58-0.29,0.87-0.42c0.3-0.13,0.6-0.26,0.9-0.37c0.31-0.11,0.61-0.22,0.92-0.32
							c0.31-0.1,0.63-0.19,0.95-0.27c0.32-0.08,0.64-0.15,0.97-0.21c0.33-0.06,0.66-0.11,0.99-0.16c0.12-0.02,0.25-0.03,0.36-0.04
							c0.22-0.03,0.43-0.04,0.64-0.06h0.03c-0.02,0.09-0.03,0.18-0.03,0.28C47.62,13.85,47.64,13.97,47.67,14.08z"/>
					</g>
                    <g>
						<path class="st1" d="M65.79,29.31c-0.09-0.03-0.19-0.04-0.28-0.04c-0.12,0-0.24,0.02-0.35,0.05
							c-0.01-0.22-0.03-0.43-0.06-0.65c-0.25-2.35-1-4.55-2.14-6.5c-0.17-0.29-0.35-0.57-0.53-0.85c-2.63-3.92-6.91-6.65-11.84-7.19
							c-0.22-0.03-0.43-0.04-0.65-0.06c0.03-0.11,0.06-0.23,0.06-0.36c0-0.1-0.02-0.19-0.04-0.28c0.22,0.02,0.45,0.03,0.67,0.06
							c5.29,0.56,9.87,3.56,12.58,7.85l0.25,0.41c0,0,0.01,0.01,0.01,0.02c1.21,2.05,2.01,4.37,2.27,6.86
							C65.76,28.86,65.78,29.09,65.79,29.31z"/>
					</g>
                    <g>
						<path class="st1" d="M47.62,47.14c0,0.09,0.01,0.19,0.03,0.28c-0.22-0.01-0.44-0.03-0.67-0.06
							c-7.33-0.78-13.28-6.22-14.82-13.3c-0.09-0.42-0.17-0.84-0.23-1.28c-0.03-0.17-0.04-0.34-0.06-0.51
							c-0.03-0.22-0.05-0.44-0.06-0.67c0.09,0.02,0.18,0.03,0.28,0.03c0.12,0,0.25-0.02,0.36-0.06c0.01,0.22,0.03,0.44,0.06,0.66
							c0.02,0.17,0.04,0.33,0.06,0.49c0.06,0.42,0.14,0.84,0.23,1.25c1.5,6.77,7.2,11.98,14.21,12.74c0.22,0.03,0.44,0.05,0.66,0.06
							C47.64,46.89,47.62,47.01,47.62,47.14z"/>
					</g>
                    <g>
						<path class="st1" d="M65.79,31.61c-0.01,0.22-0.03,0.44-0.06,0.67c-0.26,2.46-1.06,4.77-2.26,6.8
							c-0.06,0.11-0.12,0.21-0.19,0.31c-2.7,4.35-7.31,7.4-12.65,7.97c-0.22,0.03-0.44,0.04-0.67,0.06
							c0.02-0.09,0.04-0.18,0.04-0.28c0-0.12-0.02-0.25-0.06-0.36c0.22-0.02,0.44-0.03,0.65-0.06c4.96-0.54,9.27-3.3,11.9-7.27
							c0.18-0.28,0.36-0.56,0.53-0.85c1.11-1.91,1.84-4.07,2.09-6.37c0.03-0.22,0.05-0.43,0.06-0.65c0.11,0.03,0.23,0.06,0.35,0.06
							C65.61,31.64,65.7,31.63,65.79,31.61z"/>
					</g>
                    <g>
						<path class="st1" d="M34.23,22.94c-0.1,0.19-0.2,0.39-0.29,0.59c-0.07,0.15-0.14,0.31-0.21,0.46
							c-0.17,0.39-0.32,0.78-0.45,1.18c-0.19,0.57-0.36,1.16-0.49,1.76c0,0-0.12,0.12-0.31,0.1c-0.2-0.02-0.32-0.17-0.32-0.17
							c0.14-0.67,0.32-1.32,0.53-1.95c0.14-0.41,0.3-0.81,0.47-1.2c0.07-0.16,0.14-0.31,0.21-0.47c0.09-0.2,0.19-0.4,0.29-0.6
							C33.82,22.79,34.01,22.89,34.23,22.94z"/>
					</g>
                    <g>
						<path class="st1" d="M35.78,20.5c-0.14,0.17-0.26,0.35-0.39,0.53c-0.14-0.16-0.32-0.29-0.52-0.36
							c0.13-0.18,0.26-0.36,0.39-0.54C35.46,20.22,35.63,20.34,35.78,20.5z"/>
					</g>
				</g>
			</g>
		</g>
            <g>
			<g>
				<path class="st4" d="M42.46,33.13l-0.61-2.67l-0.61,2.67h-1.49l-1.35-4.7H40l0.61,2.88l0.71-2.88h1.07l0.71,2.88l0.6-2.88h1.6
					l-1.35,4.7H42.46z"/>
                <path class="st4" d="M49.41,33.13l-0.61-2.67l-0.61,2.67H46.7l-1.35-4.7h1.59l0.61,2.88l0.71-2.88h1.07l0.71,2.88l0.6-2.88h1.6
					l-1.35,4.7H49.41z"/>
                <path class="st4" d="M56.35,33.13l-0.61-2.67l-0.61,2.67h-1.49l-1.35-4.7h1.59l0.61,2.88l0.71-2.88h1.07l0.71,2.88l0.6-2.88h1.6
					l-1.35,4.7H56.35z"/>
			</g>
                <g>
				<path class="st1" d="M42.46,33.13l-0.61-2.67l-0.61,2.67h-1.49l-1.35-4.7H40l0.61,2.88l0.71-2.88h1.07l0.71,2.88l0.6-2.88h1.6
					l-1.35,4.7H42.46z"/>
                    <path class="st1" d="M49.41,33.13l-0.61-2.67l-0.61,2.67H46.7l-1.35-4.7h1.59l0.61,2.88l0.71-2.88h1.07l0.71,2.88l0.6-2.88h1.6
					l-1.35,4.7H49.41z"/>
                    <path class="st1" d="M56.35,33.13l-0.61-2.67l-0.61,2.67h-1.49l-1.35-4.7h1.59l0.61,2.88l0.71-2.88h1.07l0.71,2.88l0.6-2.88h1.6
					l-1.35,4.7H56.35z"/>
			</g>
		</g>
	</g>
        <g>
		<g>
			<g>
				<g>
					<g>
						<path class="st5" d="M26.21,29.74l-0.49-2.14l-0.49,2.14h-1.2l-1.08-3.77h1.28l0.49,2.31l0.57-2.31h0.86l0.57,2.31l0.48-2.31
							h1.28l-1.08,3.77H26.21z"/>
                        <path class="st5" d="M31.82,29.74l-0.49-2.14l-0.49,2.14h-1.2l-1.08-3.77h1.28l0.49,2.31l0.57-2.31h0.86l0.57,2.31l0.48-2.31
							h1.28l-1.08,3.77H31.82z"/>
                        <path class="st5" d="M37.42,29.74l-0.49-2.14l-0.49,2.14h-1.2l-1.08-3.77h1.28l0.49,2.31l0.57-2.31h0.86l0.57,2.31l0.48-2.31
							h1.28l-1.08,3.77H37.42z"/>
					</g>
                    <g>
						<path class="st5" d="M26.21,29.74l-0.49-2.14l-0.49,2.14h-1.2l-1.08-3.77h1.28l0.49,2.31l0.57-2.31h0.86l0.57,2.31l0.48-2.31
							h1.28l-1.08,3.77H26.21z"/>
                        <path class="st5" d="M31.82,29.74l-0.49-2.14l-0.49,2.14h-1.2l-1.08-3.77h1.28l0.49,2.31l0.57-2.31h0.86l0.57,2.31l0.48-2.31
							h1.28l-1.08,3.77H31.82z"/>
                        <path class="st5" d="M37.42,29.74l-0.49-2.14l-0.49,2.14h-1.2l-1.08-3.77h1.28l0.49,2.31l0.57-2.31h0.86l0.57,2.31l0.48-2.31
							h1.28l-1.08,3.77H37.42z"/>
					</g>
				</g>
                <g>
					<line class="st5" x1="27.01" y1="33.58" x2="35.54" y2="33.58"/>
				</g>
                <g>
					<line class="st5" x1="36.95" y1="33.58" x2="39.11" y2="33.58"/>
				</g>
                <g>
					<line class="st5" x1="27.01" y1="37.89" x2="35.54" y2="37.89"/>
				</g>
                <g>
					<line class="st5" x1="36.95" y1="37.89" x2="39.11" y2="37.89"/>
				</g>
			</g>
            <g>
				<path class="st5" d="M44.57,19.75V42.4c0,0.69-0.53,1.24-1.18,1.24H18.27c-0.65,0-1.18-0.55-1.18-1.24V19.75
					c0-0.96,0.76-1.73,1.69-1.73h24.11C43.81,18.02,44.57,18.79,44.57,19.75z"/>
			</g>
		</g>
            <g>
			<g>
				<path class="st2" d="M43.35,23.75H15.87v-1.38c0-1.66,1.34-3,3-3h21.48c1.66,0,3,1.34,3,3V23.75z"/>
                <path class="st1" d="M43.35,24.08H15.87c-0.19,0-0.34-0.15-0.34-0.34v-2.69c0-1.12,0.91-2.03,2.03-2.03h24.11
					c1.12,0,2.03,0.91,2.03,2.03v2.69C43.69,23.93,43.54,24.08,43.35,24.08z M16.2,23.41h26.81v-2.35c0-0.74-0.61-1.35-1.35-1.35
					H17.56c-0.74,0-1.35,0.61-1.35,1.35V23.41z"/>
			</g>
                <g>
				<path class="st0" d="M43.35,23.23h-9.9v-3.86h6.9c1.66,0,3,1.34,3,3V23.23z"/>
                    <path class="st1" d="M43.35,23.56h-9.9c-0.19,0-0.34-0.15-0.34-0.34v-3.86c0-0.19,0.15-0.34,0.34-0.34h8.21
					c1.12,0,2.03,0.91,2.03,2.03v2.17C43.69,23.41,43.54,23.56,43.35,23.56z M33.79,22.89h9.23v-1.83c0-0.74-0.61-1.35-1.35-1.35
					h-7.88V22.89z"/>
			</g>
                <g>
				<g>
					<path class="st5"
                          d="M43.35,35.1V23.23H15.87v19.88c0,0.67,0.53,1.21,1.18,1.21h25.12c0.65,0,1.18-0.54,1.18-1.21v-3.04"/>
                    <path class="st1" d="M42.17,44.66H17.05c-0.84,0-1.52-0.69-1.52-1.55V23.23c0-0.19,0.15-0.34,0.34-0.34h27.48
						c0.19,0,0.34,0.15,0.34,0.34V35.1c0,0.19-0.15,0.34-0.34,0.34c-0.19,0-0.34-0.15-0.34-0.34V23.56H16.2v19.54
						c0,0.48,0.38,0.87,0.84,0.87h25.12c0.46,0,0.84-0.39,0.84-0.87v-3.04c0-0.19,0.15-0.34,0.34-0.34c0.19,0,0.34,0.15,0.34,0.34
						v3.04C43.69,43.96,43.01,44.66,42.17,44.66z"/>
				</g>
                    <g>
					<line class="st5" x1="43.35" y1="38.45" x2="43.35" y2="36.61"/>
                        <path class="st1" d="M43.35,38.79c-0.19,0-0.34-0.15-0.34-0.34v-1.84c0-0.19,0.15-0.34,0.34-0.34c0.19,0,0.34,0.15,0.34,0.34
						v1.84C43.69,38.63,43.54,38.79,43.35,38.79z"/>
				</g>
			</g>
                <g>
				<g>
					<g>
						<path class="st4" d="M24.52,31.43l-0.49-2.14l-0.49,2.14h-1.2l-1.08-3.77h1.28l0.49,2.31l0.57-2.31h0.86l0.57,2.31l0.48-2.31
							h1.28l-1.08,3.77H24.52z"/>
                        <path class="st4" d="M30.13,31.43l-0.49-2.14l-0.49,2.14h-1.2l-1.08-3.77h1.28l0.49,2.31l0.57-2.31h0.86l0.57,2.31l0.48-2.31
							h1.28l-1.08,3.77H30.13z"/>
                        <path class="st4" d="M35.73,31.43l-0.49-2.14l-0.49,2.14h-1.2l-1.08-3.77h1.28l0.49,2.31l0.57-2.31h0.86l0.57,2.31l0.48-2.31
							h1.28l-1.08,3.77H35.73z"/>
					</g>
                    <g>
						<path class="st1" d="M24.52,31.43l-0.49-2.14l-0.49,2.14h-1.2l-1.08-3.77h1.28l0.49,2.31l0.57-2.31h0.86l0.57,2.31l0.48-2.31
							h1.28l-1.08,3.77H24.52z"/>
                        <path class="st1" d="M30.13,31.43l-0.49-2.14l-0.49,2.14h-1.2l-1.08-3.77h1.28l0.49,2.31l0.57-2.31h0.86l0.57,2.31l0.48-2.31
							h1.28l-1.08,3.77H30.13z"/>
                        <path class="st1" d="M35.73,31.43l-0.49-2.14l-0.49,2.14h-1.2l-1.08-3.77h1.28l0.49,2.31l0.57-2.31h0.86l0.57,2.31l0.48-2.31
							h1.28l-1.08,3.77H35.73z"/>
					</g>
				</g>
                    <g>
					<rect x="21.34" y="33.92" class="st5" width="2.61" height="2.61"/>
                        <path class="st1" d="M23.94,36.87h-2.61c-0.19,0-0.34-0.15-0.34-0.34v-2.61c0-0.19,0.15-0.34,0.34-0.34h2.61
						c0.19,0,0.34,0.15,0.34,0.34v2.61C24.28,36.71,24.13,36.87,23.94,36.87z M21.67,36.19h1.93v-1.93h-1.93V36.19z"/>
				</g>
                    <g>
					<path class="st1" d="M33.86,35.61h-8.53c-0.19,0-0.34-0.15-0.34-0.34c0-0.19,0.15-0.34,0.34-0.34h8.53
						c0.19,0,0.34,0.15,0.34,0.34C34.19,35.46,34.04,35.61,33.86,35.61z"/>
				</g>
                    <g>
					<path class="st1" d="M37.42,35.61h-2.16c-0.19,0-0.34-0.15-0.34-0.34c0-0.19,0.15-0.34,0.34-0.34h2.16
						c0.19,0,0.34,0.15,0.34,0.34C37.76,35.46,37.61,35.61,37.42,35.61z"/>
				</g>
                    <g>
					<rect x="21.34" y="38.22" class="st5" width="2.61" height="2.61"/>
                        <path class="st1" d="M23.94,41.17h-2.61c-0.19,0-0.34-0.15-0.34-0.34v-2.61c0-0.19,0.15-0.34,0.34-0.34h2.61
						c0.19,0,0.34,0.15,0.34,0.34v2.61C24.28,41.02,24.13,41.17,23.94,41.17z M21.67,40.49h1.93v-1.93h-1.93V40.49z"/>
				</g>
                    <g>
					<path class="st1" d="M33.86,39.92h-8.53c-0.19,0-0.34-0.15-0.34-0.34c0-0.19,0.15-0.34,0.34-0.34h8.53
						c0.19,0,0.34,0.15,0.34,0.34C34.19,39.76,34.04,39.92,33.86,39.92z"/>
				</g>
                    <g>
					<path class="st1" d="M37.42,39.92h-2.16c-0.19,0-0.34-0.15-0.34-0.34c0-0.19,0.15-0.34,0.34-0.34h2.16
						c0.19,0,0.34,0.15,0.34,0.34C37.76,39.76,37.61,39.92,37.42,39.92z"/>
				</g>
			</g>
                <g>
				<circle class="st1" cx="35.6" cy="21.3" r="0.49"/>
			</g>
                <g>
				<circle class="st1" cx="38.4" cy="21.3" r="0.49"/>
			</g>
                <g>
				<circle class="st1" cx="41.2" cy="21.3" r="0.49"/>
			</g>
		</g>
	</g>
        <g>
		<g>
			<path class="st2" d="M69.34,66.78H11.18c-1.44,0-2.6-1.16-2.6-2.6V45.53c0-1.44,1.16-2.6,2.6-2.6h58.16c1.44,0,2.6,1.16,2.6,2.6
				v18.65C71.94,65.62,70.77,66.78,69.34,66.78z"/>
            <path class="st1" d="M70.48,67.12H10.05c-0.99,0-1.8-0.81-1.8-1.8V44.4c0-0.99,0.81-1.8,1.8-1.8h60.43c0.99,0,1.8,0.81,1.8,1.8
				v20.92C72.28,66.31,71.47,67.12,70.48,67.12z M10.05,43.27c-0.62,0-1.13,0.51-1.13,1.13v20.92c0,0.62,0.5,1.13,1.13,1.13h60.43
				c0.62,0,1.13-0.51,1.13-1.13V44.4c0-0.62-0.5-1.13-1.13-1.13H10.05z"/>
		</g>
            <g>
			<g>
				<path class="st2" d="M58.15,46.33h-47.8c-0.97,0-1.76,0.66-1.76,1.46v17.53c0,0.81,0.79,1.46,1.76,1.46h59.83
					c0.97,0,1.76-0.66,1.76-1.46V47.79c0-0.81-0.79-1.46-1.76-1.46h-2.68"/>
                <path class="st1" d="M70.18,67.12H10.35c-1.16,0-2.1-0.81-2.1-1.8V47.79c0-0.99,0.94-1.8,2.1-1.8h47.8
					c0.19,0,0.34,0.15,0.34,0.34c0,0.19-0.15,0.34-0.34,0.34h-47.8c-0.79,0-1.42,0.5-1.42,1.13v17.53c0,0.62,0.64,1.13,1.42,1.13
					h59.83c0.79,0,1.42-0.51,1.42-1.13V47.79c0-0.62-0.64-1.13-1.42-1.13h-2.68c-0.19,0-0.34-0.15-0.34-0.34
					c0-0.19,0.15-0.34,0.34-0.34h2.68c1.16,0,2.1,0.81,2.1,1.8v17.53C72.28,66.31,71.33,67.12,70.18,67.12z"/>
			</g>
                <g>
				<line class="st2" x1="64.67" y1="46.33" x2="60.97" y2="46.33"/>
                    <path class="st1" d="M64.67,46.66h-3.71c-0.19,0-0.34-0.15-0.34-0.34c0-0.19,0.15-0.34,0.34-0.34h3.71
					c0.19,0,0.34,0.15,0.34,0.34C65.01,46.51,64.86,46.66,64.67,46.66z"/>
			</g>
		</g>
            <g>
			<path class="st6" d="M51.04,59.06H29.48c-1.35,0-2.44-1.09-2.44-2.44v-0.14c0-1.35,1.09-2.44,2.44-2.44h21.56
				c1.35,0,2.44,1.09,2.44,2.44v0.14C53.48,57.97,52.39,59.06,51.04,59.06z"/>
                <path class="st7" d="M50.97,59.4H29.55c-1.57,0-2.85-1.28-2.85-2.85c0-1.57,1.28-2.85,2.85-2.85h21.42
				c1.57,0,2.85,1.28,2.85,2.85C53.82,58.12,52.54,59.4,50.97,59.4z M29.55,54.38c-1.2,0-2.17,0.97-2.17,2.17
				c0,1.2,0.97,2.17,2.17,2.17h21.42c1.2,0,2.17-0.97,2.17-2.17c0-1.2-0.97-2.17-2.17-2.17H29.55z"/>
		</g>
	</g>
        <g>
		<g>
			<circle class="st5" cx="40.26" cy="56.55" r="7.12"/>
            <path class="st7" d="M40.26,64.01c-4.11,0-7.46-3.35-7.46-7.46s3.35-7.46,7.46-7.46c4.11,0,7.46,3.35,7.46,7.46
				S44.37,64.01,40.26,64.01z M40.26,49.77c-3.74,0-6.79,3.04-6.79,6.79c0,3.74,3.04,6.79,6.79,6.79c3.74,0,6.79-3.04,6.79-6.79
				C47.05,52.81,44,49.77,40.26,49.77z"/>
		</g>
            <g>
			<circle class="st6" cx="40.26" cy="56.55" r="5.41"/>
		</g>
            <g>
			<path class="st7" d="M39.36,58.18l-0.63-1.05l-0.63,1.05h-1.22l1.14-1.75l-1.07-1.67h1.22l0.55,0.97l0.54-0.97h1.23l-1.07,1.66
				l1.14,1.76H39.36z"/>
                <path class="st7" d="M41.65,58.18v-2.1l-0.58,0.57l-0.58-0.61l1.31-1.28h0.89v3.42H41.65z"/>
		</g>
	</g>
</g>
</svg>
