<svg xmlns="http://www.w3.org/2000/svg" id="Layer_1" x="0" y="0" version="1.1" viewBox="0 0 480 186" xml:space="preserve" style="enable-background:new 0 0 480 186"><style type="text/css">.st0{fill:#f26c32}.st1{font-family:&apos;MyriadPro-Regular&apos;}.st2{font-size:41.7458px}</style><g><path d="M45.09,33h27.94l-4.34,15.12c-0.61,1.98-1.92,3.73-3.73,4.97c-1.81,1.27-4.04,1.94-6.32,1.9H45.78 c-2.86-0.04-5.65,0.8-7.91,2.39c-2.31,1.63-3.99,3.89-4.79,6.44c-0.57,1.89-0.64,3.87-0.2,5.78c0.44,1.73,1.26,3.37,2.42,4.8 c1.18,1.42,2.73,2.57,4.5,3.34c1.86,0.84,3.91,1.26,5.98,1.25h7.8c1.44-0.03,2.81,0.58,3.67,1.64c0.92,1.02,1.21,2.39,0.79,3.65 L53.08,101h-8.63c-5.73,0.05-11.38-1.17-16.47-3.57c-4.86-2.24-9.12-5.42-12.47-9.32c-3.31-3.9-5.62-8.42-6.76-13.24 c-1.22-5.1-1.07-10.4,0.44-15.43l0.5-1.83c1.05-3.56,2.74-6.93,5.01-9.98c2.23-2.96,4.97-5.58,8.1-7.76 c3.13-2.18,6.64-3.89,10.38-5.05C37,33.61,41.03,32.99,45.09,33z M59.16,101l24.33-83.04c0.61-2.01,1.94-3.78,3.77-5.04 c1.8-1.29,4.04-1.97,6.33-1.92h25.91c5.65-0.03,11.22,1.18,16.25,3.53c9.89,4.56,17,12.93,19.35,22.78 c1.22,5.06,1.05,10.32-0.49,15.31l-0.49,1.68c-1.04,3.54-2.71,6.9-4.95,9.94c-2.16,3.01-4.85,5.67-7.96,7.89 c-6.36,4.45-14.16,6.86-22.18,6.87H96.65l4.29-15.21c0.59-1.95,1.87-3.66,3.64-4.89c1.79-1.25,3.99-1.92,6.24-1.9h7.45 c5.99-0.01,11.2-3.73,12.64-9.01c0.57-1.81,0.63-3.72,0.18-5.55c-0.43-1.74-1.25-3.38-2.43-4.81c-1.23-1.39-2.77-2.53-4.54-3.32 c-1.81-0.84-3.82-1.29-5.85-1.3h-13.9L86.39,94.11c-0.62,1.97-1.93,3.71-3.72,4.96c-1.76,1.27-3.94,1.95-6.19,1.92H59.16z M213.55,56.45l0.37-1.23c0.18-0.52,0.06-1.09-0.32-1.52c-0.36-0.44-0.92-0.7-1.53-0.71H171.8c-4.76,0.02-8.88-3.01-9.86-7.24 c-0.36-1.42-0.36-2.9,0-4.32L164.4,33h54.52c3.23-0.04,6.42,0.66,9.27,2.03c2.73,1.28,5.12,3.08,7.01,5.28 c1.88,2.21,3.2,4.77,3.87,7.5c0.7,2.88,0.63,5.86-0.2,8.71l-9.8,33.13c-1.95,6.74-8.69,11.41-16.36,11.35l-40.18-0.21 c-6.73,0.05-13.09-2.78-17.18-7.63c-1.94-2.36-3.29-5.07-3.97-7.95c-0.76-3.01-0.68-6.14,0.23-9.11l0.5-1.7 c0.6-2.1,1.58-4.08,2.92-5.88c1.33-1.76,2.96-3.32,4.81-4.64c1.85-1.23,3.91-2.19,6.1-2.83c2.28-0.71,4.67-1.07,7.09-1.06h33.63 l-2.42,8.27c-0.61,1.93-1.89,3.64-3.64,4.86c-1.73,1.22-3.87,1.88-6.07,1.86h-15.23c-1.29-0.07-2.44,0.75-2.67,1.9 c-0.27,0.75-0.08,1.57,0.49,2.16c0.52,0.61,1.33,0.95,2.18,0.94h24.45c0.84,0.01,1.66-0.23,2.33-0.68 c0.65-0.43,1.09-1.07,1.24-1.78l0.23-0.89L213.55,56.45z M285.62,33c5.76-0.06,11.45,1.17,16.57,3.57 c4.88,2.26,9.15,5.48,12.49,9.42c3.34,3.96,5.65,8.55,6.76,13.44c1.21,5.11,1.02,10.41-0.55,15.45l-6.21,21.16 c-0.38,1.46-1.33,2.74-2.68,3.6c-1.3,0.9-2.88,1.38-4.51,1.38h-13.38c-2.53,0.04-4.62-1.78-4.67-4.08 c-0.01-0.41,0.05-0.82,0.18-1.22l7.47-25.65c0.58-1.8,0.65-3.71,0.21-5.54c-0.43-1.74-1.27-3.37-2.45-4.79 c-2.49-2.96-6.34-4.7-10.44-4.72h-13.81l-12.03,41.02c-0.39,1.45-1.34,2.73-2.68,3.6c-1.34,0.91-2.99,1.4-4.66,1.38h-13.24 c-1.39-0.01-2.7-0.62-3.52-1.64c-0.94-1.02-1.25-2.4-0.81-3.67L251.9,33H285.62z M358.58,54.23c-0.95,0.67-1.67,1.58-2.07,2.61 l-5.52,18.93c-0.34,1-0.11,2.08,0.6,2.9c0.67,0.84,1.74,1.33,2.87,1.33h51.54l-4.13,13.86c-0.64,2.05-1.99,3.85-3.85,5.14 c-1.82,1.31-4.09,2.02-6.41,1.99h-46.37c-3.23,0.04-6.43-0.64-9.31-1.98c-2.74-1.27-5.14-3.07-7.01-5.29 c-1.86-2.24-3.19-4.82-3.87-7.56c-0.69-2.86-0.58-5.83,0.32-8.64l7.57-25.58c0.82-2.73,2.12-5.32,3.87-7.66 c3.38-4.6,8.33-8.06,14.08-9.86c2.92-0.95,6-1.43,9.11-1.43h33.13c3.2-0.03,6.37,0.66,9.2,2.01c2.7,1.26,5.07,3.05,6.93,5.22 c1.87,2.18,3.15,4.73,3.74,7.44c0.66,2.84,0.58,5.78-0.23,8.59l-2.21,7.57c-0.9,3.23-3,6.09-5.95,8.07 c-2.9,2.03-6.46,3.12-10.12,3.08h-37.4l2.44-8.23c0.53-1.95,1.79-3.68,3.56-4.89c1.78-1.25,3.97-1.91,6.22-1.88h15.17 c1.33,0.07,2.51-0.77,2.77-1.96l0.5-1.72c0.39-1.44-0.57-2.89-2.15-3.25L384.97,53h-23.06C360.68,53.04,359.5,53.48,358.58,54.23z M405.76,101l24.91-84.93c0.39-1.46,1.32-2.76,2.64-3.67c1.34-0.92,2.97-1.41,4.65-1.4h13.27c1.47-0.03,2.88,0.57,3.78,1.64 c0.9,1.02,1.18,2.39,0.73,3.64l-18.58,62.68c-0.88,3.21-2.37,6.25-4.41,8.99c-1.96,2.64-4.38,4.98-7.17,6.91 c-2.79,1.94-5.91,3.47-9.23,4.51C412.93,100.45,409.35,101,405.76,101z M459.99,18.91c-0.01-1.36,0.38-2.7,1.13-3.88 c0.75-1.18,1.82-2.16,3.11-2.85c1.31-0.67,2.79-1.03,4.3-1.03c1.49,0,2.95,0.35,4.24,1.03c1.3,0.68,2.38,1.65,3.14,2.82 c1.47,2.39,1.47,5.31,0,7.7c-0.72,1.19-1.78,2.17-3.08,2.85c-1.31,0.71-2.8,1.09-4.33,1.08C463.8,26.64,459.99,23.18,459.99,18.91z M461.18,18.91c-0.01,1.17,0.33,2.32,0.99,3.32c2.02,3.18,6.49,4.27,9.99,2.44l0.03-0.01c1.11-0.58,2.03-1.42,2.67-2.43 c0.66-1,1-2.15,0.99-3.32c0.01-1.18-0.33-2.34-0.99-3.35c-0.65-1-1.57-1.83-2.67-2.43c-1.11-0.6-2.37-0.91-3.66-0.9 c-1.3-0.01-2.57,0.3-3.69,0.9c-1.1,0.59-2.02,1.43-2.67,2.43C461.5,16.58,461.16,17.74,461.18,18.91z M471.98,17.01 c0,0.53-0.17,1.04-0.49,1.48c-0.33,0.43-0.81,0.76-1.36,0.92l2.7,3.59h-1.89l-2.35-3H467v3h-2v-9h3.26 c0.98,0.25,1.95,0.48,2.76,0.98C471.65,15.5,472,16.24,471.98,17.01z M467,19h1.24c0.53,0.03,1.06-0.12,1.47-0.43 c0.37-0.26,0.58-0.67,0.56-1.1c0.04-0.42-0.13-0.84-0.47-1.12c-0.47-0.25-1.02-0.38-1.56-0.35H467V19z" class="st0"/></g><text class="st0 st1 st2" transform="matrix(1.0519 0 0 1 59.9995 174.6172)">Authorized Partner</text></svg>