<?xml version="1.0" encoding="utf-8"?>
<!-- Generator: Adobe Illustrator 16.0.0, SVG Export Plug-In . SVG Version: 6.00 Build 0)  -->
<!DOCTYPE svg PUBLIC "-//W3C//DTD SVG 1.0//EN" "http://www.w3.org/TR/2001/REC-SVG-20010904/DTD/svg10.dtd">
<svg version="1.0" id="Layer_1" xmlns="http://www.w3.org/2000/svg" x="0px" y="0px"
     width="800px" height="800px" viewBox="0 0 800 800" enable-background="new 0 0 800 800" xml:space="preserve">
<g>
</g>
    <path fill="#E4F2FC" d="M684.668,93.263v639.263c0,23.479-19.005,42.475-42.467,42.475H185.594
	c-23.47,0-42.458-18.996-42.458-42.475V93.263c0-23.458,18.988-42.454,42.458-42.454h456.607
	C665.663,50.809,684.668,69.805,684.668,93.263"/>
    <line fill="none" stroke="#2887C8" stroke-width="1.2" stroke-linecap="round" stroke-linejoin="round"
          stroke-miterlimit="10" x1="658.864" y1="202.124" x2="658.864" y2="163.111"/>
    <line fill="none" stroke="#2887C8" stroke-width="1.2" stroke-linecap="round" stroke-linejoin="round"
          stroke-miterlimit="10" x1="658.864" y1="300.967" x2="658.864" y2="230.388"/>
    <line fill="none" stroke="#2887C8" stroke-width="1.2" stroke-linecap="round" stroke-linejoin="round"
          stroke-miterlimit="10" x1="658.864" y1="361.221" x2="658.864" y2="329.23"/>
    <path fill="none" stroke="#2887C8" stroke-width="1.2" stroke-linecap="round" stroke-linejoin="round"
          stroke-miterlimit="10" d="
	M465.745,749.188h150.678c23.437,0,42.433-19.005,42.433-42.433V389.337"/>
    <line fill="none" stroke="#2887C8" stroke-width="1.2" stroke-linecap="round" stroke-linejoin="round"
          stroke-miterlimit="10" x1="412.593" y1="749.188" x2="438.615" y2="749.188"/>
    <line fill="none" stroke="#2887C8" stroke-width="1.2" stroke-linecap="round" stroke-linejoin="round"
          stroke-miterlimit="10" x1="337.38" y1="749.188" x2="384.32" y2="749.188"/>
    <line fill="none" stroke="#2887C8" stroke-width="1.2" stroke-linecap="round" stroke-linejoin="round"
          stroke-miterlimit="10" x1="270.527" y1="749.188" x2="309.107" y2="749.188"/>
    <path fill="none" stroke="#2887C8" stroke-width="1.2" stroke-linecap="round" stroke-linejoin="round"
          stroke-miterlimit="10" d="
	M658.864,134.839V67.438c0-23.429-19.005-42.438-42.441-42.438H159.765c-23.429,0-42.433,19.009-42.433,42.438v639.309
	c0,23.445,19.004,42.45,42.433,42.45h82.138"/>
    <path fill="#B6DDF5" d="M572.521,297.525c0,101.86-82.575,184.431-184.423,184.431c-101.856,0-184.431-82.571-184.431-184.431
	c0-101.848,82.575-184.418,184.431-184.418C489.945,113.106,572.521,195.677,572.521,297.525"/>
    <path fill="none" stroke="#2887C8" stroke-width="1.2" stroke-linecap="round" stroke-linejoin="round"
          stroke-miterlimit="10" d="
	M572.521,297.525c0,101.86-82.575,184.431-184.423,184.431c-101.856,0-184.431-82.571-184.431-184.431
	c0-101.848,82.575-184.418,184.431-184.418C489.945,113.106,572.521,195.677,572.521,297.525z"/>
    <path fill="none" stroke="#2887C8" stroke-width="1.2" stroke-linecap="round" stroke-linejoin="round"
          stroke-miterlimit="10" d="
	M376.497,159.531c-68.506,5.691-122.733,61.152-126.611,130.149"/>
    <path fill="#FFFFFF" d="M444.634,297.525c0,31.231-25.317,56.544-56.536,56.544c-31.227,0-56.544-25.313-56.544-56.544
	c0-31.218,25.317-56.531,56.544-56.531C419.316,240.994,444.634,266.307,444.634,297.525"/>
    <path fill="none" stroke="#2887C8" stroke-width="1.2" stroke-linecap="round" stroke-linejoin="round"
          stroke-miterlimit="10" d="
	M444.634,297.525c0,31.231-25.317,56.544-56.536,56.544c-31.227,0-56.544-25.313-56.544-56.544
	c0-31.218,25.317-56.531,56.544-56.531C419.316,240.994,444.634,266.307,444.634,297.525z"/>
    <path fill="#B6DDF5" d="M614.719,97.724c0,16.411-13.306,29.724-29.725,29.724c-16.411,0-29.724-13.313-29.724-29.724
	c0-16.415,13.313-29.72,29.724-29.72C601.413,68.004,614.719,81.309,614.719,97.724 M578.707,97.724h12.944"/>
    <path fill="#FFFFFF" d="M615.86,105.115c0,12.961-10.519,23.475-23.487,23.475c-12.961,0-23.471-10.514-23.471-23.475
	c0-12.974,10.51-23.475,23.471-23.475C605.342,81.641,615.86,92.142,615.86,105.115 M587.412,105.115h10.232"/>
    <path fill="none" stroke="#2887C8" stroke-width="0.8" stroke-linecap="round" stroke-linejoin="round"
          stroke-miterlimit="10" d="
	M615.86,105.115c0,12.961-10.519,23.475-23.487,23.475c-12.961,0-23.471-10.514-23.471-23.475c0-12.974,10.51-23.475,23.471-23.475
	C605.342,81.641,615.86,92.142,615.86,105.115z M587.412,105.115h10.232"/>
    <path fill="#B6DDF5" d="M219.775,97.724c0,16.411-13.305,29.724-29.715,29.724c-16.419,0-29.733-13.313-29.733-29.724
	c0-16.415,13.313-29.72,29.733-29.72C206.471,68.004,219.775,81.309,219.775,97.724 M183.772,97.724h12.944"/>
    <path fill="#FFFFFF" d="M220.917,105.115c0,12.961-10.51,23.475-23.479,23.475c-12.961,0-23.479-10.514-23.479-23.475
	c0-12.974,10.518-23.475,23.479-23.475C210.408,81.641,220.917,92.142,220.917,105.115 M192.478,105.115h10.232"/>
    <path fill="none" stroke="#2887C8" stroke-width="0.8" stroke-linecap="round" stroke-linejoin="round"
          stroke-miterlimit="10" d="
	M220.917,105.115c0,12.961-10.51,23.475-23.479,23.475c-12.961,0-23.479-10.514-23.479-23.475c0-12.974,10.518-23.475,23.479-23.475
	C210.408,81.641,220.917,92.142,220.917,105.115z M192.478,105.115h10.232"/>
    <path fill="#B6DDF5" d="M614.719,675.318c0,16.419-13.306,29.724-29.725,29.724c-16.411,0-29.724-13.305-29.724-29.724
	c0-16.411,13.313-29.725,29.724-29.725C601.413,645.594,614.719,658.907,614.719,675.318 M578.707,675.318h12.944"/>
    <path fill="#FFFFFF" d="M615.86,682.705c0,12.978-10.519,23.479-23.487,23.479c-12.961,0-23.471-10.501-23.471-23.479
	c0-12.961,10.51-23.471,23.471-23.471C605.342,659.234,615.86,669.744,615.86,682.705 M587.412,682.705h10.232"/>
    <path fill="none" stroke="#2887C8" stroke-width="0.8" stroke-linecap="round" stroke-linejoin="round"
          stroke-miterlimit="10" d="
	M615.86,682.705c0,12.978-10.519,23.479-23.487,23.479c-12.961,0-23.471-10.501-23.471-23.479c0-12.961,10.51-23.471,23.471-23.471
	C605.342,659.234,615.86,669.744,615.86,682.705z M587.412,682.705h10.232"/>
    <path fill="#B6DDF5" d="M219.775,675.318c0,16.419-13.305,29.724-29.715,29.724c-16.419,0-29.733-13.305-29.733-29.724
	c0-16.411,13.313-29.725,29.733-29.725C206.471,645.594,219.775,658.907,219.775,675.318 M183.772,675.318h12.944"/>
    <path fill="#FFFFFF" d="M220.917,682.705c0,12.978-10.51,23.479-23.479,23.479c-12.961,0-23.479-10.501-23.479-23.479
	c0-12.961,10.518-23.471,23.479-23.471C210.408,659.234,220.917,669.744,220.917,682.705 M192.478,682.705h10.232"/>
    <path fill="none" stroke="#2887C8" stroke-width="0.8" stroke-linecap="round" stroke-linejoin="round"
          stroke-miterlimit="10" d="
	M220.917,682.705c0,12.978-10.51,23.479-23.479,23.479c-12.961,0-23.479-10.501-23.479-23.479c0-12.961,10.518-23.471,23.479-23.471
	C210.408,659.234,220.917,669.744,220.917,682.705z M192.478,682.705h10.232"/>
    <path fill="#E4F0CC" d="M275.656,547.725c0,19.887-16.117,35.995-35.986,35.995c-19.886,0-36.003-16.108-36.003-35.995
	c0-19.878,16.117-35.985,36.003-35.985C259.54,511.739,275.656,527.847,275.656,547.725"/>
    <path fill="none" stroke="#0B9D49" stroke-width="1.2" stroke-linecap="round" stroke-linejoin="round"
          stroke-miterlimit="10" d="
	M275.656,547.725c0,19.887-16.117,35.995-35.986,35.995c-19.886,0-36.003-16.108-36.003-35.995
	c0-19.878,16.117-35.985,36.003-35.985C259.54,511.739,275.656,527.847,275.656,547.725z"/>
    <path fill="#E4F0CC" d="M555.296,517.044c0.873,0.42,1.637,0.974,2.4,1.545c16.117,11.727,19.609,34.248,7.924,50.298
	c-11.685,16.059-34.189,19.668-50.315,7.933c-0.771-0.554-1.527-1.116-2.199-1.813l-0.101,0.15L349.031,409.656l206.373,107.253
	L555.296,517.044z"/>
    <path fill="none" stroke="#0B9D49" stroke-width="1.2" stroke-linecap="round" stroke-linejoin="round"
          stroke-miterlimit="10" d="
	M555.296,517.044c0.873,0.42,1.637,0.974,2.4,1.545c16.117,11.727,19.609,34.248,7.924,50.298
	c-11.685,16.059-34.189,19.668-50.315,7.933c-0.771-0.554-1.527-1.116-2.199-1.813l-0.101,0.15L349.031,409.656l206.373,107.253
	L555.296,517.044z"/>
    <path fill="#2887C8" d="M302.082,706.26L302.082,706.26c-4.29,0-7.807-3.509-7.807-7.79v-31.429c0-4.289,3.517-7.814,7.807-7.814
	c4.289,0,7.807,3.525,7.807,7.814v31.429C309.889,702.751,306.371,706.26,302.082,706.26"/>
    <path fill="#2887C8" d="M336.49,706.26L336.49,706.26c-4.29,0-7.807-3.509-7.807-7.79v-31.429c0-4.289,3.517-7.814,7.807-7.814
	c4.281,0,7.807,3.525,7.807,7.814v31.429C344.297,702.751,340.771,706.26,336.49,706.26"/>
    <path fill="#2887C8" d="M370.89,706.26L370.89,706.26c-4.29,0-7.807-3.509-7.807-7.79v-31.429c0-4.289,3.517-7.814,7.807-7.814
	c4.298,0,7.807,3.525,7.807,7.814v31.429C378.696,702.751,375.188,706.26,370.89,706.26"/>
    <path fill="#2887C8" d="M405.298,706.26L405.298,706.26c-4.29,0-7.807-3.509-7.807-7.79v-31.429c0-4.289,3.517-7.814,7.807-7.814
	s7.807,3.525,7.807,7.814v31.429C413.104,702.751,409.588,706.26,405.298,706.26"/>
    <path fill="#2887C8" d="M439.706,706.26L439.706,706.26c-4.298,0-7.807-3.509-7.807-7.79v-31.429c0-4.289,3.509-7.814,7.807-7.814
	c4.281,0,7.798,3.525,7.798,7.814v31.429C447.504,702.751,443.987,706.26,439.706,706.26"/>
    <path fill="#2887C8" d="M474.105,706.26L474.105,706.26c-4.289,0-7.807-3.509-7.807-7.79v-31.429c0-4.289,3.518-7.814,7.807-7.814
	c4.298,0,7.807,3.525,7.807,7.814v31.429C481.912,702.751,478.403,706.26,474.105,706.26"/>
</svg>
