<svg xmlns="http://www.w3.org/2000/svg" id="Capa_1" width="648" height="564" x="0" y="0" enable-background="new -132.5 -47.5 648 564" version="1.1" viewBox="-132.5 -47.5 648 564" xml:space="preserve"><path fill="#E4F2FC" d="M326.928,206.05c0,111.407-90.31,201.718-201.714,201.718c-111.402,0-201.712-90.311-201.712-201.718	c0-111.405,90.311-201.715,201.712-201.715C236.618,4.335,326.928,94.645,326.928,206.05"/><path fill="#B1D465" d="M-85.635,115.346c0.916-2.117,1.831-4.231,2.859-6.292c-0.059,0-0.059-0.054-0.115-0.054	c-5.945-4.516-9.773-11.66-9.773-19.66c0-13.665,11.028-24.696,24.691-24.696c3.774,0,7.314,0.807,10.52,2.347	c0.054,0,0.054,0.054,0.11,0.054c2.629,1.26,4.973,2.916,6.975,5.035l0.059,0.056c4.399,4.4,7.085,10.459,7.085,17.205	c0,13.599-11.089,24.751-24.748,24.751c-2.456,0-4.857-0.406-7.147-1.147h-0.056c-0.969,2.055-1.885,4.115-2.798,6.172	c-2.231,5.2-4.287,10.52-6.115,15.95c-2.577,7.714-4.8,15.6-6.575,23.72c0,0-1.655,1.653-4.232,1.371	c-2.686-0.287-4.285-2.347-4.285-2.347c1.832-8.97,4.347-17.774,7.201-26.29C-90.094,126.034-87.979,120.604-85.635,115.346"/><path fill="#B1D465" d="M125.216,5.49c-1.489,0-2.974-0.115-4.346-0.458V83.68H73.831c-3.145,0-5.715,2.569-5.715,5.713	c0,3.145,2.571,5.715,5.715,5.715h47.039v86.306c-9.658,1.66-17.433,9.089-19.657,18.58H41.881c-3.145,0-5.716,2.57-5.716,5.715	c0,3.14,2.572,5.715,5.716,5.715h59.332c2.224,9.546,10,16.913,19.657,18.628v86.253H73.831c-3.145,0-5.715,2.574-5.715,5.713	c0,3.145,2.571,5.713,5.715,5.713h47.039v79.277c1.373-0.225,2.857-0.4,4.346-0.4c1.484,0,2.971,0.176,4.4,0.4V221.084	c-1.429,0.4-2.86,0.571-4.4,0.571c-1.545,0-2.974-0.172-4.346-0.571c-4.858-1.376-8.804-5.03-10.573-9.773	c-0.686-1.717-1.03-3.6-1.03-5.601c0-2.004,0.344-3.884,1.03-5.605c1.77-4.738,5.715-8.4,10.573-9.771	c1.373-0.344,2.801-0.573,4.346-0.573c1.541,0,2.971,0.229,4.4,0.573V5.089C128.131,5.375,126.7,5.49,125.216,5.49 M182.887,83.68	h-29.952c-3.145,0-5.715,2.569-5.715,5.713c0,3.145,2.571,5.715,5.715,5.715h29.952c-0.46-1.824-0.691-3.77-0.691-5.715	C182.196,87.451,182.426,85.51,182.887,83.68 M129.616,181.416v8.918c-1.429-0.344-2.86-0.574-4.4-0.574	c-1.545,0-2.974,0.229-4.346,0.574c-4.858,1.37-8.804,5.032-10.573,9.771c-0.686,1.721-1.03,3.601-1.03,5.605	c0,2,0.344,3.883,1.03,5.601c1.77,4.744,5.715,8.398,10.573,9.773c1.373,0.4,2.801,0.57,4.346,0.57c1.541,0,2.971-0.171,4.4-0.57	v8.97c11.544-2.054,20.347-12.173,20.347-24.344C149.962,193.593,141.161,183.415,129.616,181.416 M353.611,181.875	c-3.543-33.496-14.289-64.871-30.639-92.481c-0.057-0.115-0.109-0.169-0.172-0.229l-3.369-5.483	c-36.58-57.842-98.31-98.311-169.694-105.912v-0.056c-1.492-12.234-11.946-21.665-24.521-21.665	c-12.575,0-22.978,9.431-24.465,21.665v0.056c-1.599,0.169-3.254,0.345-4.915,0.569c-4.514,0.576-8.976,1.26-13.375,2.119	c-4.402,0.796-8.745,1.772-13.091,2.856c-4.285,1.084-8.569,2.285-12.8,3.655c-4.229,1.316-8.345,2.744-12.458,4.291	C39.996-7.2,35.935-5.479,31.936-3.711c-4.001,1.772-7.947,3.662-11.775,5.657C16.274,3.949,12.5,6.064,8.73,8.291	c-3.716,2.172-7.375,4.514-10.974,6.918c-3.601,2.4-7.146,4.915-10.575,7.544c-3.485,2.571-6.855,5.317-10.116,8.115	c-3.314,2.742-6.515,5.657-9.661,8.63c-3.145,2.971-6.168,6.001-9.084,9.146c0,0-0.229,2.63,1.369,4.171	c1.546,1.545,5.262,1.144,5.262,1.144h0.054c1.545-1.599,3.086-3.259,4.685-4.8c3.091-3.086,6.292-6.001,9.49-8.916	c3.262-2.859,6.631-5.603,10.061-8.289c3.37-2.686,6.86-5.261,10.459-7.715c3.54-2.461,7.199-4.861,10.915-7.09	c3.717-2.286,7.544-4.461,11.375-6.459c3.888-2.056,7.777-4.001,11.776-5.831c4.001-1.826,8.062-3.54,12.175-5.084	c4.116-1.602,8.286-3.086,12.46-4.399c4.285-1.372,8.516-2.577,12.859-3.657c4.341-1.089,8.687-2.058,13.145-2.916	c4.403-0.803,8.861-1.489,13.376-2.058c1.14-0.115,2.224-0.286,3.37-0.344v0.059c0.744,3.14,2.114,6.056,4,8.631	C88.521,13.32,62.74,44.641,41.936,83.682h-62.127c-3.145,0-5.714,2.569-5.714,5.713c0,3.144,2.57,5.715,5.714,5.715h56.356	C20.845,126.545,9.36,162.386,8.33,199.995h-62.185c-3.145,0-5.715,2.571-5.715,5.716c0,3.14,2.571,5.714,5.715,5.714H8.33	c1.03,37.897,12.629,73.963,28.12,105.623h-56.641c-3.145,0-5.714,2.572-5.714,5.721c0,3.139,2.57,5.715,5.714,5.715H42.28	c20.691,38.977,46.355,70.246,62.93,88.473c-1.945,2.574-3.315,5.543-4.059,8.688v0.059C6.561,415.467-70.259,345.223-90.549,253.95	c-1.201-5.543-2.231-11.206-3.086-16.918c-0.292-2.232-0.574-4.403-0.798-6.631h0.11c10.859-2.57,18.979-12.344,18.979-24.005	c0-11.721-8.176-21.553-19.089-24.066h-0.061c-1.831-0.455-3.655-0.684-5.601-0.684c-1.03,0-2,0.059-3.03,0.229h-0.054	c-12.176,1.485-21.607,11.891-21.607,24.521c0,12.63,9.486,23.032,21.716,24.458h0.059c0.23,2.291,0.457,4.576,0.801,6.861	c0.854,5.829,1.885,11.546,3.086,17.205c20.75,95.449,101.056,168.898,199.874,179.357v0.117	c1.487,12.172,11.891,21.66,24.465,21.66c12.576,0,23.03-9.488,24.521-21.66v-0.059c72.015-7.656,134.254-48.813,170.666-107.512	c0.914-1.436,1.77-2.803,2.568-4.232c16.291-27.43,26.98-58.525,30.525-91.738h0.055c12.176-1.426,21.664-11.828,21.664-24.458	C375.217,193.765,365.787,183.415,353.611,181.875 M182.887,83.68h-29.952c-3.145,0-5.715,2.569-5.715,5.713	c0,3.145,2.571,5.715,5.715,5.715h29.952c2.571,10.92,12.401,18.979,24.06,18.979c2.115,0,4.176-0.229,6.113-0.745	c11.148,26.236,19.382,55.725,20.291,86.651h-60.469c-3.139,0-5.715,2.57-5.715,5.715c0,3.14,2.577,5.715,5.715,5.715h60.469	c-0.854,30.805-8.97,60.354-20.515,87.276c-1.89-0.4-3.828-0.686-5.889-0.686c-11.375,0-21.031,7.771-23.836,18.291h-30.175	c-3.145,0-5.715,2.574-5.715,5.713c0,3.145,2.571,5.713,5.715,5.713h29.836c1.084,5.43,4,10.234,8.06,13.721	c-18.12,30.123-38.125,54.355-51.846,69.443c-2.739-1.943-5.94-3.252-9.37-3.887V230.053c11.544-2.054,20.347-12.172,20.347-24.343	c0-12.118-8.801-22.295-20.347-24.294V5.089c3.486-0.63,6.746-2,9.545-3.945c10.459,11.492,24.636,28.235,38.75,48.811	c4.346,6.29,8.806,13.15,13.207,20.465C187.115,73.793,184.142,78.42,182.887,83.68 M51.256,326.824	c-1.776-3.203-3.489-6.455-5.144-9.775c-16.006-31.838-28.181-68.419-29.036-106.825v-9.028	C17.931,162.5,30.392,125.859,45.766,95.11c1.66-3.425,3.43-6.741,5.205-10c6.97-12.976,14.403-24.749,21.432-34.981	c14.175-20.688,28.41-37.493,38.925-48.985c2.854,1.945,5.999,3.315,9.543,3.888V83.68H73.833c-3.146,0-5.715,2.569-5.715,5.713	c0,3.145,2.57,5.715,5.715,5.715h47.038v86.306c-9.658,1.66-17.434,9.089-19.658,18.58H41.881c-3.144,0-5.715,2.57-5.715,5.715	c0,3.14,2.571,5.715,5.715,5.715h59.332c2.224,9.546,10,16.913,19.658,18.628v86.253H73.833c-3.146,0-5.715,2.574-5.715,5.713	c0,3.145,2.57,5.713,5.715,5.713h47.038v79.277c-3.484,0.635-6.689,1.943-9.489,3.887C95.551,393.412,71.202,363.748,51.256,326.824 M316.746,316.307h-61.1c-3.145,0-5.719,2.574-5.719,5.713c0,3.145,2.575,5.713,5.719,5.713h54.012	c-35.435,53.506-93.506,90.771-160.435,98.027v-0.117c-0.747-3.145-2.061-6.172-4.001-8.74	c14.06-15.375,34.575-40.186,53.097-71.045c2.684,1.084,5.6,1.66,8.63,1.66c13.659,0,24.749-11.152,24.749-24.814	c0-8.457-4.344-15.998-10.913-20.457c12.229-28.52,20.858-60.072,21.428-92.996c0.061-1.2,0.061-2.341,0.061-3.541	c0-1.199,0-2.405-0.061-3.545c-0.57-32.751-9.143-64.075-21.204-92.424c6.459-4.456,10.688-11.885,10.688-20.346	c0-13.604-11.09-24.75-24.749-24.75c-2.916,0-5.771,0.574-8.401,1.489c-18.575-30.811-39.155-55.56-53.27-71.044	c1.885-2.577,3.198-5.492,3.945-8.631v-0.115c66.47,7.2,124.253,44.012,159.691,96.937h-53.267c-3.146,0-5.72,2.574-5.72,5.713	c0,3.147,2.575,5.715,5.72,5.715h60.472c15.373,26.235,25.547,55.96,28.918,87.62h-0.168c-8.861,2.061-15.893,8.862-18.236,17.666	h-51.211c-3.144,0-5.715,2.571-5.715,5.715c0,3.141,2.571,5.715,5.715,5.715h50.873c1.938,9.371,9.199,16.804,18.512,18.975h0.115	C341.49,261.436,331.662,290.531,316.746,316.307 M73.832,83.68c-3.145,0-5.715,2.569-5.715,5.713c0,3.145,2.571,5.715,5.715,5.715	h47.038V83.68H73.832L73.832,83.68z M120.87,190.334v-8.918c-9.658,1.66-17.433,9.089-19.657,18.58H41.881	c-3.145,0-5.716,2.57-5.716,5.715c0,3.14,2.572,5.715,5.716,5.715h59.332c2.224,9.546,10,16.915,19.657,18.627v-8.969	c-4.858-1.376-8.804-5.03-10.573-9.773c-0.686-1.717-1.03-3.6-1.03-5.601c0-2.004,0.344-3.884,1.03-5.605	C112.066,195.366,116.012,191.704,120.87,190.334 M73.832,316.307c-3.145,0-5.715,2.574-5.715,5.713	c0,3.145,2.571,5.713,5.715,5.713h47.038v-11.426H73.832z"/><path fill="#2887C8" d="M-50.312,72.133l-0.056-0.054c-2-2.114-4.346-3.775-6.975-5.029c-0.054,0-0.054-0.062-0.115-0.062	c-3.201-1.541-6.746-2.341-10.515-2.341c-13.661,0-24.691,11.03-24.691,24.693c0,7.998,3.831,15.144,9.77,19.658	c0.062,0,0.062,0.056,0.116,0.056c2.29,1.774,4.861,3.088,7.605,3.889h0.056c2.285,0.745,4.685,1.144,7.144,1.144	c13.66,0,24.751-11.15,24.751-24.749C-43.222,82.595-45.913,76.533-50.312,72.133 M-67.973,105.282	c-1.084,0-2.171-0.106-3.202-0.283c-0.059,0-0.059,0-0.114-0.056c-2.916-0.63-5.544-2.004-7.6-3.943l-0.06-0.061	c-3.029-2.915-4.97-7.024-4.97-11.599c0-8.806,7.145-15.948,15.945-15.948c1.831,0,3.601,0.286,5.199,0.858	c0.062,0,0.062,0,0.115,0.059c2.747,0.969,5.201,2.686,7.032,4.856l0.054,0.059c2.231,2.801,3.606,6.287,3.606,10.117	C-51.967,98.139-59.172,105.282-67.973,105.282"/><path fill="#2887C8" d="M191.115,70.419c-4,3.372-6.969,8.002-8.23,13.262h4.8c1.486,0,2.861,0.569,3.887,1.541	c0.688-2.686,2.114-5.142,4.06-7.085C194.144,75.507,192.66,72.936,191.115,70.419 M206.95,64.645c-2.915,0-5.774,0.57-8.403,1.493	c-2.747,0.969-5.261,2.454-7.432,4.282c-4,3.372-6.969,8.002-8.23,13.262c-0.455,1.832-0.683,3.77-0.683,5.716	c0,1.945,0.229,3.883,0.683,5.714c2.57,10.919,12.407,18.976,24.066,18.976c2.112,0,4.169-0.225,6.116-0.748	c2.915-0.737,5.539-1.938,7.944-3.599c6.455-4.455,10.686-11.885,10.686-20.343C231.696,75.791,220.612,64.645,206.95,64.645 M217.35,101.571c-2.17,1.829-4.915,3.139-7.888,3.54c-0.801,0.173-1.655,0.229-2.512,0.229c-7.374,0-13.55-4.97-15.378-11.774	c-0.396-1.312-0.571-2.742-0.571-4.17c0-1.431,0.177-2.861,0.571-4.175c0.688-2.686,2.114-5.142,4.06-7.085	c2-2,4.575-3.547,7.429-4.231c1.261-0.287,2.515-0.459,3.889-0.459c8.855,0,16.001,7.148,16.001,15.95	C222.95,94.257,220.78,98.596,217.35,101.571"/><path fill="#2887C8" d="M206.947,298.014c-11.375,0-21.035,7.775-23.833,18.293h4.576c1.538,0,2.969,0.629,3.999,1.602	c2.114-6.402,8.115-11.15,15.259-11.15c0.747,0,1.545,0.063,2.232,0.178c1.255-2.689,2.514-5.432,3.654-8.236	C210.949,298.305,209.003,298.014,206.947,298.014 M220.778,302.244c-2.4-1.6-5.03-2.852-7.945-3.545	c-1.885-0.395-3.831-0.686-5.886-0.686c-11.375,0-21.035,7.775-23.833,18.293c-0.628,2.061-0.915,4.17-0.915,6.406	c0,1.709,0.173,3.428,0.573,5.02c1.087,5.43,4.002,10.234,8.057,13.721c2.229,1.943,4.744,3.428,7.49,4.404	c2.682,1.084,5.597,1.66,8.627,1.66c13.663,0,24.751-11.152,24.751-24.805C231.698,314.248,227.353,306.705,220.778,302.244 M206.947,338.768c-1.428,0-2.859-0.176-4.17-0.576c-2.859-0.736-5.434-2.334-7.433-4.453c-1.885-2.002-3.255-4.57-3.94-7.373	c-0.292-1.201-0.402-2.402-0.402-3.652c0-1.66,0.228-3.264,0.687-4.748v-0.057c2.114-6.404,8.115-11.15,15.259-11.15	c0.747,0,1.545,0.061,2.232,0.176c3.03,0.396,5.714,1.656,7.944,3.486c3.54,2.969,5.83,7.373,5.83,12.293	C222.953,331.57,215.807,338.768,206.947,338.768"/><path fill="#2887C8" d="M-94.436,182.33h-0.056c-1.832-0.454-3.66-0.684-5.605-0.684c-1.025,0-2,0.059-3.025,0.229h-0.059	c-12.175,1.483-21.606,11.89-21.606,24.518c0,12.63,9.489,23.035,21.721,24.46h0.055c0.977,0.176,1.945,0.23,2.915,0.23	c1.946,0,3.892-0.23,5.661-0.684h0.116c10.858-2.57,18.975-12.348,18.975-24.007C-75.346,194.675-83.523,184.849-94.436,182.33 M-95.121,221.539h-0.115c-1.545,0.517-3.201,0.801-4.861,0.801c-1.309,0-2.515-0.169-3.713-0.454h-0.056	c-7.029-1.714-12.175-8.062-12.175-15.492c0-7.482,5.146-13.831,12.119-15.491h0.056c1.255-0.339,2.461-0.508,3.77-0.508	c1.66,0,3.315,0.283,4.805,0.679c0.056,0.061,0.056,0.061,0.115,0.061c6.402,2.114,11.086,8.174,11.086,15.259	C-84.092,213.483-88.722,219.485-95.121,221.539"/><path fill="#2887C8" d="M344.865,182.33c-8.861,2.061-15.889,8.861-18.23,17.666h4.514c0.287,0,0.627,0,0.91,0.11	c0.178,0,0.293,0,0.406,0.061c0.51,0.115,0.971,0.283,1.426,0.57c0.17,0.056,0.402,0.171,0.574,0.343	c0.17,0.112,0.342,0.227,0.51,0.401l0.23,0.225h0.061c1.541-5.024,5.371-8.915,10.344-10.569	C345.436,188.16,345.209,185.244,344.865,182.33 M344.865,182.33c-8.861,2.061-15.889,8.861-18.23,17.666h4.514	c0.287,0,0.627,0,0.91,0.11c0.178,0,0.293,0,0.406,0.061c0.51,0.115,0.971,0.283,1.426,0.57c0.17,0.056,0.402,0.171,0.574,0.343	c0.17,0.112,0.342,0.227,0.51,0.401l0.23,0.225h0.061c1.541-5.024,5.371-8.915,10.344-10.569	C345.436,188.16,345.209,185.244,344.865,182.33 M344.865,182.33c-8.861,2.061-15.889,8.861-18.23,17.666h4.514	c0.287,0,0.627,0,0.91,0.11c0.178,0,0.293,0,0.406,0.061c0.51,0.115,0.971,0.283,1.426,0.57c0.17,0.056,0.402,0.171,0.574,0.343	c0.17,0.112,0.342,0.227,0.51,0.401l0.23,0.225h0.061c1.541-5.024,5.371-8.915,10.344-10.569	C345.436,188.16,345.209,185.244,344.865,182.33 M344.865,182.33c-8.861,2.061-15.889,8.861-18.23,17.666h4.514	c0.287,0,0.627,0,0.91,0.11c0.178,0,0.293,0,0.406,0.061c0.51,0.115,0.971,0.283,1.426,0.57c0.17,0.056,0.402,0.171,0.574,0.343	c0.17,0.112,0.342,0.227,0.51,0.401l0.23,0.225h0.061c1.541-5.024,5.371-8.915,10.344-10.569	C345.436,188.16,345.209,185.244,344.865,182.33 M344.865,182.33c-8.861,2.061-15.889,8.861-18.23,17.666h4.514	c0.287,0,0.627,0,0.91,0.11c0.178,0,0.293,0,0.406,0.061c0.51,0.115,0.971,0.283,1.426,0.57c0.17,0.056,0.402,0.171,0.574,0.343	c0.17,0.112,0.342,0.227,0.51,0.401l0.23,0.225h0.061c1.541-5.024,5.371-8.915,10.344-10.569	C345.436,188.16,345.209,185.244,344.865,182.33 M344.865,182.33c-8.861,2.061-15.889,8.861-18.23,17.666h4.514	c0.287,0,0.627,0,0.91,0.11c0.178,0,0.293,0,0.406,0.061c0.51,0.115,0.971,0.283,1.426,0.57c0.17,0.056,0.402,0.171,0.574,0.343	c0.17,0.112,0.342,0.227,0.51,0.401l0.23,0.225h0.061c1.541-5.024,5.371-8.915,10.344-10.569	C345.436,188.16,345.209,185.244,344.865,182.33 M344.865,182.33c-8.861,2.061-15.889,8.861-18.23,17.666h4.514	c0.287,0,0.627,0,0.91,0.11c0.178,0,0.293,0,0.406,0.061c0.51,0.115,0.971,0.283,1.426,0.57c0.17,0.056,0.402,0.171,0.574,0.343	c0.17,0.112,0.342,0.227,0.51,0.401l0.23,0.225h0.061c1.541-5.024,5.371-8.915,10.344-10.569	C345.436,188.16,345.209,185.244,344.865,182.33 M345.035,182.33h-0.172c-8.859,2.061-15.887,8.861-18.229,17.666h4.512	c0.287,0,0.629,0,0.912,0.11c0.176,0,0.291,0,0.406,0.061c0.51,0.115,0.969,0.283,1.426,0.57c0.168,0.056,0.4,0.171,0.574,0.343	c0.17,0.112,0.342,0.227,0.51,0.401l0.229,0.225h0.063c1.539-5.024,5.371-8.915,10.344-10.569c0.057,0,0.115-0.061,0.172-0.061	C345.609,188.16,345.326,185.244,345.035,182.33 M345.035,182.33h-0.172c-8.859,2.061-15.887,8.861-18.229,17.666h4.512	c0.287,0,0.629,0,0.912,0.11c0.176,0,0.291,0,0.406,0.061c0.51,0.115,0.969,0.283,1.426,0.57c0.168,0.056,0.4,0.171,0.574,0.343	c0.17,0.112,0.342,0.227,0.51,0.401l0.229,0.225h0.063c1.539-5.024,5.371-8.915,10.344-10.569c0.057,0,0.115-0.061,0.172-0.061	C345.609,188.16,345.326,185.244,345.035,182.33 M345.035,182.33h-0.172c-8.859,2.061-15.887,8.861-18.229,17.666h4.512	c0.287,0,0.629,0,0.912,0.11c0.176,0,0.291,0,0.406,0.061c0.51,0.115,0.969,0.283,1.426,0.57c0.168,0.056,0.4,0.171,0.574,0.343	c0.17,0.112,0.342,0.227,0.51,0.401l0.229,0.225h0.063c1.539-5.024,5.371-8.915,10.344-10.569c0.057,0,0.115-0.061,0.172-0.061	C345.609,188.16,345.326,185.244,345.035,182.33 M353.609,181.875c-0.969-0.116-2.061-0.229-3.082-0.229	c-1.889,0-3.717,0.229-5.49,0.684h-0.172c-8.861,2.061-15.889,8.861-18.23,17.666c-0.574,2.055-0.859,4.169-0.859,6.401	c0,1.714,0.17,3.428,0.516,5.03c1.939,9.371,9.199,16.803,18.52,18.975h0.109c1.775,0.453,3.66,0.685,5.605,0.685	c0.969,0,1.939-0.056,2.969-0.231h0.061c12.168-1.429,21.66-11.828,21.66-24.458C375.217,193.765,365.785,183.415,353.609,181.875 M354.295,221.885c-1.201,0.285-2.455,0.455-3.768,0.455c-1.66,0-3.201-0.285-4.746-0.738c-0.057,0-0.172-0.063-0.23-0.063	c-5.256-1.715-9.316-6.115-10.514-11.602v-0.057c-0.346-1.146-0.461-2.286-0.461-3.484c0-1.601,0.23-3.145,0.689-4.631v-0.061	c1.541-5.025,5.371-8.914,10.344-10.569c0.057,0,0.115-0.061,0.172-0.061c1.484-0.399,3.086-0.684,4.746-0.684	c1.314,0,2.629,0.171,3.826,0.515c6.973,1.655,12.117,8.001,12.117,15.49C366.471,213.825,361.271,220.171,354.295,221.885 M345.035,182.33h-0.172c-8.859,2.061-15.887,8.861-18.229,17.666h4.512c0.287,0,0.629,0,0.912,0.11c0.176,0,0.291,0,0.406,0.061	c0.51,0.115,0.969,0.283,1.426,0.57c0.168,0.056,0.4,0.171,0.574,0.343c0.17,0.112,0.342,0.227,0.51,0.401l0.229,0.225h0.063	c1.539-5.024,5.371-8.915,10.344-10.569c0.057,0,0.115-0.061,0.172-0.061C345.609,188.16,345.326,185.244,345.035,182.33 M345.035,182.33h-0.172c-8.859,2.061-15.887,8.861-18.229,17.666h4.512c0.287,0,0.629,0,0.912,0.11c0.176,0,0.291,0,0.406,0.061	c0.51,0.115,0.969,0.283,1.426,0.57c0.168,0.056,0.4,0.171,0.574,0.343c0.17,0.112,0.342,0.227,0.51,0.401l0.229,0.225h0.063	c1.539-5.024,5.371-8.915,10.344-10.569c0.057,0,0.115-0.061,0.172-0.061C345.609,188.16,345.326,185.244,345.035,182.33 M345.035,182.33h-0.172c-8.859,2.061-15.887,8.861-18.229,17.666h4.512c0.287,0,0.629,0,0.912,0.11c0.176,0,0.291,0,0.406,0.061	c0.51,0.115,0.969,0.283,1.426,0.57c0.168,0.056,0.4,0.171,0.574,0.343c0.17,0.112,0.342,0.227,0.51,0.401l0.229,0.225h0.063	c1.539-5.024,5.371-8.915,10.344-10.569c0.057,0,0.115-0.061,0.172-0.061C345.609,188.16,345.326,185.244,345.035,182.33 M344.865,182.33c-8.861,2.061-15.889,8.861-18.23,17.666h4.514c0.287,0,0.627,0,0.91,0.11c0.178,0,0.293,0,0.406,0.061	c0.51,0.115,0.971,0.283,1.426,0.57c0.17,0.056,0.402,0.171,0.574,0.343c0.17,0.112,0.342,0.227,0.51,0.401l0.23,0.225h0.061	c1.541-5.024,5.371-8.915,10.344-10.569C345.436,188.16,345.209,185.244,344.865,182.33 M344.865,182.33	c-8.861,2.061-15.889,8.861-18.23,17.666h4.514c0.287,0,0.627,0,0.91,0.11c0.178,0,0.293,0,0.406,0.061	c0.51,0.115,0.971,0.283,1.426,0.57c0.17,0.056,0.402,0.171,0.574,0.343c0.17,0.112,0.342,0.227,0.51,0.401l0.23,0.225h0.061	c1.541-5.024,5.371-8.915,10.344-10.569C345.436,188.16,345.209,185.244,344.865,182.33 M344.865,182.33	c-8.861,2.061-15.889,8.861-18.23,17.666h4.514c0.287,0,0.627,0,0.91,0.11c0.178,0,0.293,0,0.406,0.061	c0.51,0.115,0.971,0.283,1.426,0.57c0.17,0.056,0.402,0.171,0.574,0.343c0.17,0.112,0.342,0.227,0.51,0.401l0.23,0.225h0.061	c1.541-5.024,5.371-8.915,10.344-10.569C345.436,188.16,345.209,185.244,344.865,182.33 M344.865,182.33	c-8.861,2.061-15.889,8.861-18.23,17.666h4.514c0.287,0,0.627,0,0.91,0.11c0.178,0,0.293,0,0.406,0.061	c0.51,0.115,0.971,0.283,1.426,0.57c0.17,0.056,0.402,0.171,0.574,0.343c0.17,0.112,0.342,0.227,0.51,0.401l0.23,0.225h0.061	c1.541-5.024,5.371-8.915,10.344-10.569C345.436,188.16,345.209,185.244,344.865,182.33 M344.865,182.33	c-8.861,2.061-15.889,8.861-18.23,17.666h4.514c0.287,0,0.627,0,0.91,0.11c0.178,0,0.293,0,0.406,0.061	c0.51,0.115,0.971,0.283,1.426,0.57c0.17,0.056,0.402,0.171,0.574,0.343c0.17,0.112,0.342,0.227,0.51,0.401l0.23,0.225h0.061	c1.541-5.024,5.371-8.915,10.344-10.569C345.436,188.16,345.209,185.244,344.865,182.33 M344.865,182.33	c-8.861,2.061-15.889,8.861-18.23,17.666h4.514c0.287,0,0.627,0,0.91,0.11c0.178,0,0.293,0,0.406,0.061	c0.51,0.115,0.971,0.283,1.426,0.57c0.17,0.056,0.402,0.171,0.574,0.343c0.17,0.112,0.342,0.227,0.51,0.401l0.23,0.225h0.061	c1.541-5.024,5.371-8.915,10.344-10.569C345.436,188.16,345.209,185.244,344.865,182.33 M344.865,182.33	c-8.861,2.061-15.889,8.861-18.23,17.666h4.514c0.287,0,0.627,0,0.91,0.11c0.178,0,0.293,0,0.406,0.061	c0.51,0.115,0.971,0.283,1.426,0.57c0.17,0.056,0.402,0.171,0.574,0.343c0.17,0.112,0.342,0.227,0.51,0.401l0.23,0.225h0.061	c1.541-5.024,5.371-8.915,10.344-10.569C345.436,188.16,345.209,185.244,344.865,182.33 M344.865,182.33	c-8.861,2.061-15.889,8.861-18.23,17.666h4.514c0.287,0,0.627,0,0.91,0.11c0.178,0,0.293,0,0.406,0.061	c0.51,0.115,0.971,0.283,1.426,0.57c0.17,0.056,0.402,0.171,0.574,0.343c0.17,0.112,0.342,0.227,0.51,0.401l0.291,0.286v-0.061	c1.541-5.024,5.371-8.915,10.344-10.569C345.436,188.16,345.209,185.244,344.865,182.33"/><path fill="#2887C8" d="M133.045-5.314c-1.084,0.632-2.229,1.087-3.429,1.431c-1.432,0.401-2.86,0.631-4.401,0.631	c-1.545,0-2.976-0.229-4.346-0.631c-1.255-0.343-2.401-0.798-3.485-1.431c-2.576-1.428-4.689-3.599-6.116-6.166	c-0.514-0.918-0.916-1.836-1.26-2.861c-2.971,0.171-5.945,0.454-8.86,0.801c0.745,3.139,2.114,6.055,4.004,8.628	c1.602,2.402,3.77,4.459,6.169,6.062c2.861,1.938,6,3.313,9.546,3.884c1.371,0.344,2.861,0.459,4.346,0.459s2.916-0.115,4.4-0.4	c3.484-0.631,6.746-2.004,9.545-3.944C136.93-1.251,134.876-3.368,133.045-5.314 M133.045-5.314	c-1.084,0.632-2.229,1.087-3.429,1.431c-1.432,0.401-2.86,0.631-4.401,0.631c-1.545,0-2.976-0.229-4.346-0.631	c-1.255-0.343-2.401-0.798-3.485-1.431c-2.576-1.428-4.689-3.599-6.116-6.166c-0.514-0.918-0.916-1.836-1.26-2.861	c-2.971,0.171-5.945,0.454-8.86,0.801c0.745,3.139,2.114,6.055,4.004,8.628c1.602,2.402,3.77,4.459,6.169,6.062	c2.861,1.938,6,3.313,9.546,3.884c1.371,0.344,2.861,0.459,4.346,0.459s2.916-0.115,4.4-0.4c3.484-0.631,6.746-2.004,9.545-3.944	C136.93-1.251,134.876-3.368,133.045-5.314 M133.045-5.314c-1.084,0.632-2.229,1.087-3.429,1.431	c-1.432,0.401-2.86,0.631-4.401,0.631c-1.545,0-2.976-0.229-4.346-0.631c-1.255-0.343-2.401-0.798-3.485-1.431	c-2.576-1.428-4.689-3.599-6.116-6.166c-0.514-0.918-0.916-1.836-1.26-2.861c-2.971,0.171-5.945,0.454-8.86,0.801	c0.745,3.139,2.114,6.055,4.004,8.628c1.602,2.402,3.77,4.459,6.169,6.062c2.861,1.938,6,3.313,9.546,3.884	c1.371,0.344,2.861,0.459,4.346,0.459s2.916-0.115,4.4-0.4c3.484-0.631,6.746-2.004,9.545-3.944	C136.93-1.251,134.876-3.368,133.045-5.314 M133.045-5.314c-1.084,0.632-2.229,1.087-3.429,1.431	c-1.432,0.401-2.86,0.631-4.401,0.631c-1.545,0-2.976-0.229-4.346-0.631c-1.255-0.343-2.401-0.798-3.485-1.431	c-2.576-1.428-4.689-3.599-6.116-6.166c-0.514-0.918-0.916-1.836-1.26-2.861c-2.971,0.171-5.945,0.454-8.86,0.801	c0.745,3.139,2.114,6.055,4.004,8.628c1.602,2.402,3.77,4.459,6.169,6.062c2.861,1.938,6,3.313,9.546,3.884	c1.371,0.344,2.861,0.459,4.346,0.459s2.916-0.115,4.4-0.4c3.484-0.631,6.746-2.004,9.545-3.944	C136.93-1.251,134.876-3.368,133.045-5.314 M133.045-5.314c-1.084,0.632-2.229,1.087-3.429,1.431	c-1.432,0.401-2.86,0.631-4.401,0.631c-1.545,0-2.976-0.229-4.346-0.631c-1.255-0.343-2.401-0.798-3.485-1.431	c-2.576-1.428-4.689-3.599-6.116-6.166c-0.514-0.918-0.916-1.836-1.26-2.861c-2.971,0.171-5.945,0.454-8.86,0.801	c0.745,3.139,2.114,6.055,4.004,8.628c1.602,2.402,3.77,4.459,6.169,6.062c2.861,1.938,6,3.313,9.546,3.884	c1.371,0.344,2.861,0.459,4.346,0.459s2.916-0.115,4.4-0.4c3.484-0.631,6.746-2.004,9.545-3.944	C136.93-1.251,134.876-3.368,133.045-5.314 M133.045-5.314c-1.084,0.632-2.229,1.087-3.429,1.431	c-1.432,0.401-2.86,0.631-4.401,0.631c-1.545,0-2.976-0.229-4.346-0.631c-1.255-0.343-2.401-0.798-3.485-1.431	c-2.576-1.428-4.689-3.599-6.116-6.166c-0.514-0.918-0.916-1.836-1.26-2.861c-2.971,0.171-5.945,0.454-8.86,0.801	c0.745,3.139,2.114,6.055,4.004,8.628c1.602,2.402,3.77,4.459,6.169,6.062c2.861,1.938,6,3.313,9.546,3.884	c1.371,0.344,2.861,0.459,4.346,0.459s2.916-0.115,4.4-0.4c3.484-0.631,6.746-2.004,9.545-3.944	C136.93-1.251,134.876-3.368,133.045-5.314 M133.045-5.314c-1.084,0.632-2.229,1.087-3.429,1.431	c-1.432,0.401-2.86,0.631-4.401,0.631c-1.545,0-2.976-0.229-4.346-0.631c-1.255-0.343-2.401-0.798-3.485-1.431	c-2.576-1.428-4.689-3.599-6.116-6.166c-0.514-0.918-0.916-1.836-1.26-2.861c-2.971,0.171-5.945,0.454-8.86,0.801	c0.745,3.139,2.114,6.055,4.004,8.628c1.602,2.402,3.77,4.459,6.169,6.062c2.861,1.938,6,3.313,9.546,3.884	c1.371,0.344,2.861,0.459,4.346,0.459s2.916-0.115,4.4-0.4c3.484-0.631,6.746-2.004,9.545-3.944	C136.93-1.251,134.876-3.368,133.045-5.314 M133.045-5.314c-1.084,0.632-2.229,1.087-3.429,1.431	c-1.432,0.401-2.86,0.631-4.401,0.631c-1.545,0-2.976-0.229-4.346-0.631c-1.255-0.343-2.401-0.798-3.485-1.431	c-1.831,1.947-3.831,4.063-6.061,6.462c2.861,1.938,6,3.313,9.546,3.884c1.37,0.344,2.86,0.459,4.346,0.459	c1.485,0,2.916-0.115,4.401-0.4c3.483-0.63,6.745-2.004,9.544-3.943C136.93-1.251,134.876-3.368,133.045-5.314 M133.045-5.314	c-1.084,0.632-2.229,1.087-3.429,1.431c-1.432,0.401-2.86,0.631-4.401,0.631c-1.545,0-2.976-0.229-4.346-0.631	c-1.255-0.343-2.401-0.798-3.485-1.431c-2.576-1.428-4.689-3.599-6.116-6.166c-0.514-0.918-0.916-1.836-1.26-2.861	c-2.971,0.171-5.945,0.454-8.86,0.801c0.745,3.139,2.114,6.055,4.004,8.628c1.602,2.402,3.77,4.459,6.169,6.062	c2.861,1.938,6,3.313,9.546,3.884c1.371,0.344,2.861,0.459,4.346,0.459s2.916-0.115,4.4-0.4c3.484-0.631,6.746-2.004,9.545-3.944	C136.93-1.251,134.876-3.368,133.045-5.314 M133.045-5.314c-1.084,0.632-2.229,1.087-3.429,1.431	c-1.432,0.401-2.86,0.631-4.401,0.631c-1.545,0-2.976-0.229-4.346-0.631c-1.255-0.343-2.401-0.798-3.485-1.431	c-2.576-1.428-4.689-3.599-6.116-6.166c-0.514-0.918-0.916-1.836-1.26-2.861c-2.971,0.171-5.945,0.454-8.86,0.801	c0.745,3.139,2.114,6.055,4.004,8.628c1.602,2.402,3.77,4.459,6.169,6.062c2.861,1.938,6,3.313,9.546,3.884	c1.371,0.344,2.861,0.459,4.346,0.459s2.916-0.115,4.4-0.4c3.484-0.631,6.746-2.004,9.545-3.944	C136.93-1.251,134.876-3.368,133.045-5.314 M133.045-5.314c-1.084,0.632-2.229,1.087-3.429,1.431	c-1.432,0.401-2.86,0.631-4.401,0.631c-1.545,0-2.976-0.229-4.346-0.631c-1.255-0.343-2.401-0.798-3.485-1.431	c-2.576-1.428-4.689-3.599-6.116-6.166c-0.514-0.918-0.916-1.836-1.26-2.861c-2.971,0.171-5.945,0.454-8.86,0.801	c0.745,3.139,2.114,6.055,4.004,8.628c1.602,2.402,3.77,4.459,6.169,6.062c2.861,1.938,6,3.313,9.546,3.884	c1.371,0.344,2.861,0.459,4.346,0.459s2.916-0.115,4.4-0.4c3.484-0.631,6.746-2.004,9.545-3.944	C136.93-1.251,134.876-3.368,133.045-5.314 M133.045-5.314c-1.084,0.632-2.229,1.087-3.429,1.431	c-1.432,0.401-2.86,0.631-4.401,0.631c-1.545,0-2.976-0.229-4.346-0.631c-1.255-0.343-2.401-0.798-3.485-1.431	c-2.576-1.428-4.689-3.599-6.116-6.166c-0.514-0.918-0.916-1.836-1.26-2.861c-2.971,0.171-5.945,0.454-8.86,0.801	c0.745,3.139,2.114,6.055,4.004,8.628c1.602,2.402,3.77,4.459,6.169,6.062c2.861,1.938,6,3.313,9.546,3.884	c1.371,0.344,2.861,0.459,4.346,0.459s2.916-0.115,4.4-0.4c3.484-0.631,6.746-2.004,9.545-3.944	C136.93-1.251,134.876-3.368,133.045-5.314 M133.045-5.314c-1.084,0.632-2.229,1.087-3.429,1.431	c-1.432,0.401-2.86,0.631-4.401,0.631c-1.545,0-2.976-0.229-4.346-0.631c-1.255-0.343-2.401-0.798-3.485-1.431	c-2.576-1.428-4.689-3.599-6.116-6.166c-0.514-0.918-0.916-1.836-1.26-2.861c-2.971,0.171-5.945,0.454-8.86,0.801	c0.745,3.139,2.114,6.055,4.004,8.628c1.602,2.402,3.77,4.459,6.169,6.062c2.861,1.938,6,3.313,9.546,3.884	c1.371,0.344,2.861,0.459,4.346,0.459s2.916-0.115,4.4-0.4c3.484-0.631,6.746-2.004,9.545-3.944	C136.93-1.251,134.876-3.368,133.045-5.314 M133.045-5.314c-1.084,0.632-2.229,1.087-3.429,1.431	c-1.432,0.401-2.86,0.631-4.401,0.631c-1.545,0-2.976-0.229-4.346-0.631c-1.255-0.343-2.401-0.798-3.485-1.431	c-2.576-1.428-4.689-3.599-6.116-6.166c-0.514-0.918-0.916-1.836-1.26-2.861c-2.971,0.171-5.945,0.454-8.86,0.801	c0.745,3.139,2.114,6.055,4.004,8.628c1.602,2.402,3.77,4.459,6.169,6.062c2.861,1.938,6,3.313,9.546,3.884	c1.371,0.344,2.861,0.459,4.346,0.459s2.916-0.115,4.4-0.4c3.484-0.631,6.746-2.004,9.545-3.944	C136.93-1.251,134.876-3.368,133.045-5.314 M133.045-5.314c-1.084,0.632-2.229,1.087-3.429,1.431	c-1.432,0.401-2.86,0.631-4.401,0.631c-1.545,0-2.976-0.229-4.346-0.631c-1.255-0.343-2.401-0.798-3.485-1.431	c-2.576-1.428-4.689-3.599-6.116-6.166c-0.514-0.918-0.916-1.836-1.26-2.861c-2.971,0.171-5.945,0.454-8.86,0.801	c0.745,3.139,2.114,6.055,4.004,8.628c1.602,2.402,3.77,4.459,6.169,6.062c2.861,1.938,6,3.313,9.546,3.884	c1.371,0.344,2.861,0.459,4.346,0.459s2.916-0.115,4.4-0.4c3.484-0.631,6.746-2.004,9.545-3.944	C136.93-1.251,134.876-3.368,133.045-5.314 M133.045-5.314c-1.084,0.632-2.229,1.087-3.429,1.431	c-1.432,0.401-2.86,0.631-4.401,0.631c-1.545,0-2.976-0.229-4.346-0.631c-1.255-0.343-2.401-0.798-3.485-1.431	c-2.576-1.428-4.689-3.599-6.116-6.166c-0.514-0.918-0.916-1.836-1.26-2.861c-2.971,0.171-5.945,0.454-8.86,0.801	c0.745,3.139,2.114,6.055,4.004,8.628c1.602,2.402,3.77,4.459,6.169,6.062c2.861,1.938,6,3.313,9.546,3.884	c1.371,0.344,2.861,0.459,4.346,0.459s2.916-0.115,4.4-0.4c3.484-0.631,6.746-2.004,9.545-3.944	C136.93-1.251,134.876-3.368,133.045-5.314 M133.045-5.314c-1.084,0.632-2.229,1.087-3.429,1.431	c-1.432,0.401-2.86,0.631-4.401,0.631c-1.545,0-2.976-0.229-4.346-0.631c-1.255-0.343-2.401-0.798-3.485-1.431	c-1.831,1.947-3.831,4.063-6.061,6.462c2.861,1.938,6,3.313,9.546,3.884c1.37,0.344,2.86,0.459,4.346,0.459	c1.485,0,2.916-0.115,4.401-0.4c3.483-0.63,6.745-2.004,9.544-3.943C136.93-1.251,134.876-3.368,133.045-5.314 M133.045-5.314	c-1.084,0.632-2.229,1.087-3.429,1.431c-1.432,0.401-2.86,0.631-4.401,0.631c-1.545,0-2.976-0.229-4.346-0.631	c-1.255-0.343-2.401-0.798-3.485-1.431c-1.831,1.947-3.831,4.063-6.061,6.462c2.861,1.938,6,3.313,9.546,3.884	c1.37,0.344,2.86,0.459,4.346,0.459c1.485,0,2.916-0.115,4.401-0.4c3.483-0.63,6.745-2.004,9.544-3.943	C136.93-1.251,134.876-3.368,133.045-5.314 M133.045-5.314c-1.084,0.632-2.229,1.087-3.429,1.431	c-1.432,0.401-2.86,0.631-4.401,0.631c-1.545,0-2.976-0.229-4.346-0.631c-1.255-0.343-2.401-0.798-3.485-1.431	c-1.831,1.947-3.831,4.063-6.061,6.462c2.861,1.938,6,3.313,9.546,3.884c1.37,0.344,2.86,0.459,4.346,0.459	c1.485,0,2.916-0.115,4.401-0.4c3.483-0.63,6.745-2.004,9.544-3.943C136.93-1.251,134.876-3.368,133.045-5.314 M149.735-22.232	v-0.054c-1.485-12.231-11.943-21.665-24.519-21.665c-12.575,0-22.976,9.434-24.465,21.665v0.054	c-0.225,0.977-0.225,1.945-0.225,2.976c0,2,0.225,3.831,0.625,5.653v0.062c0.745,3.139,2.115,6.054,4.004,8.627	c1.602,2.402,3.77,4.46,6.169,6.062c2.861,1.938,6.001,3.313,9.546,3.884c1.371,0.344,2.861,0.459,4.347,0.459s2.915-0.115,4.4-0.4	c3.484-0.63,6.745-2.004,9.545-3.943c2.4-1.602,4.459-3.659,6.113-6.062c1.885-2.573,3.201-5.488,3.945-8.628v-0.117	c0.515-1.768,0.745-3.652,0.745-5.598C149.964-20.287,149.906-21.256,149.735-22.232 M140.476-14.342	c-0.401,1.025-0.798,2-1.314,2.915c-1.43,2.515-3.544,4.685-6.116,6.114c-1.084,0.631-2.229,1.086-3.429,1.43	c-1.432,0.401-2.86,0.631-4.401,0.631c-1.545,0-2.976-0.229-4.346-0.631c-1.255-0.343-2.401-0.798-3.485-1.43	c-2.576-1.429-4.689-3.6-6.116-6.167c-0.514-0.919-0.916-1.837-1.26-2.861v-0.117c-0.515-1.486-0.74-3.144-0.74-4.799	c0-1.316,0.168-2.518,0.454-3.772v-0.059c1.717-6.976,8.001-12.12,15.491-12.12c7.486,0,13.775,5.144,15.492,12.12v0.059	c0.283,1.254,0.512,2.456,0.512,3.772c0,1.655-0.283,3.313-0.744,4.799v0.116H140.476z M133.045-5.314	c-1.084,0.632-2.229,1.087-3.429,1.431c-1.432,0.401-2.86,0.631-4.401,0.631c-1.545,0-2.976-0.229-4.346-0.631	c-1.255-0.343-2.401-0.798-3.485-1.431c-1.831,1.947-3.831,4.063-6.061,6.462c2.861,1.938,6,3.313,9.546,3.884	c1.37,0.344,2.86,0.459,4.346,0.459c1.485,0,2.916-0.115,4.401-0.4c3.483-0.63,6.745-2.004,9.544-3.943	C136.93-1.251,134.876-3.368,133.045-5.314 M133.045-5.314c-1.084,0.632-2.229,1.087-3.429,1.431	c-1.432,0.401-2.86,0.631-4.401,0.631c-1.545,0-2.976-0.229-4.346-0.631c-1.255-0.343-2.401-0.798-3.485-1.431	c-1.831,1.947-3.831,4.063-6.061,6.462c2.861,1.938,6,3.313,9.546,3.884c1.37,0.344,2.86,0.459,4.346,0.459	c1.485,0,2.916-0.115,4.401-0.4c3.483-0.63,6.745-2.004,9.544-3.943C136.93-1.251,134.876-3.368,133.045-5.314 M133.045-5.314	c-1.084,0.632-2.229,1.087-3.429,1.431c-1.432,0.401-2.86,0.631-4.401,0.631c-1.545,0-2.976-0.229-4.346-0.631	c-1.255-0.343-2.401-0.798-3.485-1.431c-1.831,1.947-3.831,4.063-6.061,6.462c2.861,1.938,6,3.313,9.546,3.884	c1.37,0.344,2.86,0.459,4.346,0.459c1.485,0,2.916-0.115,4.401-0.4c3.483-0.63,6.745-2.004,9.544-3.943	C136.93-1.251,134.876-3.368,133.045-5.314 M133.045-5.314c-1.084,0.632-2.229,1.087-3.429,1.431	c-1.432,0.401-2.86,0.631-4.401,0.631c-1.545,0-2.976-0.229-4.346-0.631c-1.255-0.343-2.401-0.798-3.485-1.431	c-2.576-1.428-4.689-3.599-6.116-6.166c-0.514-0.918-0.916-1.836-1.26-2.861c-2.971,0.171-5.945,0.454-8.86,0.801	c0.745,3.139,2.114,6.055,4.004,8.628c1.602,2.402,3.77,4.459,6.169,6.062c2.861,1.938,6,3.313,9.546,3.884	c1.371,0.344,2.861,0.459,4.346,0.459s2.916-0.115,4.4-0.4c3.484-0.631,6.746-2.004,9.545-3.944	C136.93-1.251,134.876-3.368,133.045-5.314 M133.045-5.314c-1.084,0.632-2.229,1.087-3.429,1.431	c-1.432,0.401-2.86,0.631-4.401,0.631c-1.545,0-2.976-0.229-4.346-0.631c-1.255-0.343-2.401-0.798-3.485-1.431	c-2.576-1.428-4.689-3.599-6.116-6.166c-0.514-0.918-0.916-1.836-1.26-2.861c-2.971,0.171-5.945,0.454-8.86,0.801	c0.745,3.139,2.114,6.055,4.004,8.628c1.602,2.402,3.77,4.459,6.169,6.062c2.861,1.938,6,3.313,9.546,3.884	c1.371,0.344,2.861,0.459,4.346,0.459s2.916-0.115,4.4-0.4c3.484-0.631,6.746-2.004,9.545-3.944	C136.93-1.251,134.876-3.368,133.045-5.314 M133.045-5.314c-1.084,0.632-2.229,1.087-3.429,1.431	c-1.432,0.401-2.86,0.631-4.401,0.631c-1.545,0-2.976-0.229-4.346-0.631c-1.255-0.343-2.401-0.798-3.485-1.431	c-2.576-1.428-4.689-3.599-6.116-6.166c-0.514-0.918-0.916-1.836-1.26-2.861c-2.971,0.171-5.945,0.454-8.86,0.801	c0.745,3.139,2.114,6.055,4.004,8.628c1.602,2.402,3.77,4.459,6.169,6.062c2.861,1.938,6,3.313,9.546,3.884	c1.371,0.344,2.861,0.459,4.346,0.459s2.916-0.115,4.4-0.4c3.484-0.631,6.746-2.004,9.545-3.944	C136.93-1.251,134.876-3.368,133.045-5.314 M133.045-5.314c-1.084,0.632-2.229,1.087-3.429,1.431	c-1.432,0.401-2.86,0.631-4.401,0.631c-1.545,0-2.976-0.229-4.346-0.631c-1.255-0.343-2.401-0.798-3.485-1.431	c-2.576-1.428-4.689-3.599-6.116-6.166c-0.514-0.918-0.916-1.836-1.26-2.861c-2.971,0.171-5.945,0.454-8.86,0.801	c0.745,3.139,2.114,6.055,4.004,8.628c1.602,2.402,3.77,4.459,6.169,6.062c2.861,1.938,6,3.313,9.546,3.884	c1.371,0.344,2.861,0.459,4.346,0.459s2.916-0.115,4.4-0.4c3.484-0.631,6.746-2.004,9.545-3.944	C136.93-1.251,134.876-3.368,133.045-5.314 M133.045-5.314c-1.084,0.632-2.229,1.087-3.429,1.431	c-1.432,0.401-2.86,0.631-4.401,0.631c-1.545,0-2.976-0.229-4.346-0.631c-1.255-0.343-2.401-0.798-3.485-1.431	c-2.576-1.428-4.689-3.599-6.116-6.166c-0.514-0.918-0.916-1.836-1.26-2.861c-2.971,0.171-5.945,0.454-8.86,0.801	c0.745,3.139,2.114,6.055,4.004,8.628c1.602,2.402,3.77,4.459,6.169,6.062c2.861,1.938,6,3.313,9.546,3.884	c1.371,0.344,2.861,0.459,4.346,0.459s2.916-0.115,4.4-0.4c3.484-0.631,6.746-2.004,9.545-3.944	C136.93-1.251,134.876-3.368,133.045-5.314 M133.045-5.314c-1.084,0.632-2.229,1.087-3.429,1.431	c-1.432,0.401-2.86,0.631-4.401,0.631c-1.545,0-2.976-0.229-4.346-0.631c-1.255-0.343-2.401-0.798-3.485-1.431	c-2.576-1.428-4.689-3.599-6.116-6.166c-0.514-0.918-0.916-1.836-1.26-2.861c-2.971,0.171-5.945,0.454-8.86,0.801	c0.745,3.139,2.114,6.055,4.004,8.628c1.602,2.402,3.77,4.459,6.169,6.062c2.861,1.938,6,3.313,9.546,3.884	c1.371,0.344,2.861,0.459,4.346,0.459s2.916-0.115,4.4-0.4c3.484-0.631,6.746-2.004,9.545-3.944	C136.93-1.251,134.876-3.368,133.045-5.314 M133.045-5.314c-1.084,0.632-2.229,1.087-3.429,1.431	c-1.432,0.401-2.86,0.631-4.401,0.631c-1.545,0-2.976-0.229-4.346-0.631c-1.255-0.343-2.401-0.798-3.485-1.431	c-2.576-1.428-4.689-3.599-6.116-6.166c-0.514-0.918-0.916-1.836-1.26-2.861c-2.971,0.171-5.945,0.454-8.86,0.801	c0.745,3.139,2.114,6.055,4.004,8.628c1.602,2.402,3.77,4.459,6.169,6.062c2.861,1.938,6,3.313,9.546,3.884	c1.371,0.344,2.861,0.459,4.346,0.459s2.916-0.115,4.4-0.4c3.484-0.631,6.746-2.004,9.545-3.944	C136.93-1.251,134.876-3.368,133.045-5.314 M133.045-5.314c-1.084,0.632-2.229,1.087-3.429,1.431	c-1.432,0.401-2.86,0.631-4.401,0.631c-1.545,0-2.976-0.229-4.346-0.631c-1.255-0.343-2.401-0.798-3.485-1.431	c-1.831,1.947-3.831,4.063-6.061,6.462c2.861,1.938,6,3.313,9.546,3.884c1.37,0.344,2.86,0.459,4.346,0.459	c1.485,0,2.916-0.115,4.401-0.4c3.483-0.63,6.745-2.004,9.544-3.943C136.93-1.251,134.876-3.368,133.045-5.314 M133.045-5.314	c-1.084,0.632-2.229,1.087-3.429,1.431c-1.432,0.401-2.86,0.631-4.401,0.631c-1.545,0-2.976-0.229-4.346-0.631	c-1.255-0.343-2.401-0.798-3.485-1.431c-1.831,1.947-3.831,4.063-6.061,6.462c2.861,1.938,6,3.313,9.546,3.884	c1.37,0.344,2.86,0.459,4.346,0.459c1.485,0,2.916-0.115,4.401-0.4c3.483-0.63,6.745-2.004,9.544-3.943	C136.93-1.251,134.876-3.368,133.045-5.314 M133.045-5.314c-1.084,0.632-2.229,1.087-3.429,1.431	c-1.432,0.401-2.86,0.631-4.401,0.631c-1.545,0-2.976-0.229-4.346-0.631c-1.255-0.343-2.401-0.798-3.485-1.431	c-2.576-1.428-4.689-3.599-6.116-6.166c-0.514-0.918-0.916-1.836-1.26-2.861c-2.971,0.171-5.945,0.454-8.86,0.801	c0.745,3.139,2.114,6.055,4.004,8.628c1.602,2.402,3.77,4.459,6.169,6.062c2.861,1.938,6,3.313,9.546,3.884	c1.371,0.344,2.861,0.459,4.346,0.459s2.916-0.115,4.4-0.4c3.484-0.631,6.746-2.004,9.545-3.944	C136.93-1.251,134.876-3.368,133.045-5.314 M133.045-5.314c-1.084,0.632-2.229,1.087-3.429,1.431	c-1.432,0.401-2.86,0.631-4.401,0.631c-1.545,0-2.976-0.229-4.346-0.631c-1.255-0.343-2.401-0.798-3.485-1.431	c-2.576-1.428-4.689-3.599-6.116-6.166c-0.514-0.918-0.916-1.836-1.26-2.861c-2.971,0.171-5.945,0.454-8.86,0.801	c0.745,3.139,2.114,6.055,4.004,8.628c1.602,2.402,3.77,4.459,6.169,6.062c2.861,1.938,6,3.313,9.546,3.884	c1.371,0.344,2.861,0.459,4.346,0.459s2.916-0.115,4.4-0.4c3.484-0.631,6.746-2.004,9.545-3.944	C136.93-1.251,134.876-3.368,133.045-5.314 M133.045-5.314c-1.084,0.632-2.229,1.087-3.429,1.431	c-1.432,0.401-2.86,0.631-4.401,0.631c-1.545,0-2.976-0.229-4.346-0.631c-1.255-0.343-2.401-0.798-3.485-1.431	c-2.576-1.428-4.689-3.599-6.116-6.166c-0.514-0.918-0.916-1.836-1.26-2.861c-2.971,0.171-5.945,0.454-8.86,0.801	c0.745,3.139,2.114,6.055,4.004,8.628c1.602,2.402,3.77,4.459,6.169,6.062c2.861,1.938,6,3.313,9.546,3.884	c1.371,0.344,2.861,0.459,4.346,0.459s2.916-0.115,4.4-0.4c3.484-0.631,6.746-2.004,9.545-3.944	C136.93-1.251,134.876-3.368,133.045-5.314 M133.045-5.314c-1.084,0.632-2.229,1.087-3.429,1.431	c-1.432,0.401-2.86,0.631-4.401,0.631c-1.545,0-2.976-0.229-4.346-0.631c-1.255-0.343-2.401-0.798-3.485-1.431	c-2.576-1.428-4.689-3.599-6.116-6.166c-0.514-0.918-0.916-1.836-1.26-2.861c-2.971,0.171-5.945,0.454-8.86,0.801	c0.745,3.139,2.114,6.055,4.004,8.628c1.602,2.402,3.77,4.459,6.169,6.062c2.861,1.938,6,3.313,9.546,3.884	c1.371,0.344,2.861,0.459,4.346,0.459s2.916-0.115,4.4-0.4c3.484-0.631,6.746-2.004,9.545-3.944	C136.93-1.251,134.876-3.368,133.045-5.314 M133.045-5.314c-1.084,0.632-2.229,1.087-3.429,1.431	c-1.432,0.401-2.86,0.631-4.401,0.631c-1.545,0-2.976-0.229-4.346-0.631c-1.255-0.343-2.401-0.798-3.485-1.431	c-2.576-1.428-4.689-3.599-6.116-6.166c-0.514-0.918-0.916-1.836-1.26-2.861c-2.971,0.171-5.945,0.454-8.86,0.801	c0.745,3.139,2.114,6.055,4.004,8.628c1.602,2.402,3.77,4.459,6.169,6.062c2.861,1.938,6,3.313,9.546,3.884	c1.371,0.344,2.861,0.459,4.346,0.459s2.916-0.115,4.4-0.4c3.484-0.631,6.746-2.004,9.545-3.944	C136.93-1.251,134.876-3.368,133.045-5.314 M133.045-5.314c-1.084,0.632-2.229,1.087-3.429,1.431	c-1.432,0.401-2.86,0.631-4.401,0.631c-1.545,0-2.976-0.229-4.346-0.631c-1.255-0.343-2.401-0.798-3.485-1.431	c-2.576-1.428-4.689-3.599-6.116-6.166c-0.514-0.918-0.916-1.836-1.26-2.861c-2.971,0.171-5.945,0.454-8.86,0.801	c0.745,3.139,2.114,6.055,4.004,8.628c1.602,2.402,3.77,4.459,6.169,6.062c2.861,1.938,6,3.313,9.546,3.884	c1.371,0.344,2.861,0.459,4.346,0.459s2.916-0.115,4.4-0.4c3.484-0.631,6.746-2.004,9.545-3.944	C136.93-1.251,134.876-3.368,133.045-5.314"/><path fill="#2887C8" d="M129.616,181.418c-1.485-0.286-2.916-0.4-4.4-0.4s-2.976,0.115-4.346,0.4	c-9.658,1.655-17.429,9.084-19.657,18.574c-0.461,1.831-0.686,3.777-0.686,5.714c0,1.946,0.225,3.889,0.686,5.716	c2.229,9.543,10,16.918,19.657,18.634c1.37,0.225,2.862,0.34,4.346,0.34s2.915-0.115,4.4-0.34	c11.544-2.061,20.347-12.175,20.347-24.351C149.962,193.593,141.161,183.417,129.616,181.418 M129.616,221.084	c-1.429,0.4-2.86,0.568-4.4,0.568c-1.545,0-2.976-0.168-4.346-0.568c-4.858-1.373-8.798-5.033-10.573-9.776	c-0.686-1.712-1.03-3.601-1.03-5.601c0-1.999,0.344-3.884,1.03-5.6c1.774-4.744,5.715-8.398,10.573-9.775	c1.37-0.339,2.801-0.57,4.346-0.57c1.541,0,2.971,0.23,4.4,0.57c6.63,1.89,11.605,8.062,11.605,15.375	C141.222,213.022,136.246,219.2,129.616,221.084"/><path fill="#2887C8" d="M129.616,407.01c-1.429-0.225-2.916-0.4-4.4-0.4s-2.976,0.176-4.346,0.4	c-3.484,0.635-6.685,1.943-9.489,3.887c2.231,2.404,4.289,4.576,6.12,6.523c1.025-0.576,2.171-1.094,3.369-1.436	c1.371-0.4,2.8-0.566,4.347-0.566c1.541,0,2.971,0.166,4.4,0.566c1.145,0.344,2.285,0.801,3.315,1.373	c1.884-1.938,3.884-4.057,6.06-6.459C136.246,408.953,133.045,407.645,129.616,407.01 M129.616,407.01	c-1.429-0.225-2.916-0.4-4.4-0.4s-2.976,0.176-4.346,0.4c-3.484,0.635-6.685,1.943-9.489,3.887c2.231,2.404,4.289,4.576,6.12,6.523	c1.025-0.576,2.171-1.094,3.369-1.436c1.371-0.4,2.8-0.566,4.347-0.566c1.541,0,2.971,0.166,4.4,0.566	c1.145,0.344,2.285,0.801,3.315,1.373c1.884-1.938,3.884-4.057,6.06-6.459C136.246,408.953,133.045,407.645,129.616,407.01 M129.616,407.01c-1.429-0.225-2.916-0.4-4.4-0.4s-2.976,0.176-4.346,0.4c-3.484,0.635-6.685,1.943-9.489,3.887	c2.231,2.404,4.289,4.576,6.12,6.523c1.025-0.576,2.171-1.094,3.369-1.436c1.371-0.4,2.8-0.566,4.347-0.566	c1.541,0,2.971,0.166,4.4,0.566c1.145,0.344,2.285,0.801,3.315,1.373c1.884-1.938,3.884-4.057,6.06-6.459	C136.246,408.953,133.045,407.645,129.616,407.01 M129.616,407.01c-1.429-0.225-2.916-0.4-4.4-0.4s-2.976,0.176-4.346,0.4	c-3.484,0.635-6.685,1.943-9.489,3.887c2.231,2.404,4.289,4.576,6.12,6.523c1.025-0.576,2.171-1.094,3.369-1.436	c1.371-0.4,2.8-0.566,4.347-0.566c1.541,0,2.971,0.166,4.4,0.566c1.145,0.344,2.285,0.801,3.315,1.373	c1.884-1.938,3.884-4.057,6.06-6.459C136.246,408.953,133.045,407.645,129.616,407.01 M129.616,407.01v8.975	c1.144,0.344,2.285,0.801,3.315,1.373c1.885-1.938,3.883-4.057,6.06-6.459C136.246,408.953,133.045,407.645,129.616,407.01 M129.616,407.01c-1.429-0.225-2.916-0.4-4.4-0.4s-2.976,0.176-4.346,0.4c-3.484,0.635-6.685,1.943-9.489,3.887	c2.231,2.404,4.289,4.576,6.12,6.523c1.025-0.576,2.171-1.094,3.369-1.436c1.371-0.4,2.8-0.566,4.347-0.566	c1.541,0,2.971,0.166,4.4,0.566c1.145,0.344,2.285,0.801,3.315,1.373c1.884-1.938,3.884-4.057,6.06-6.459	C136.246,408.953,133.045,407.645,129.616,407.01 M129.616,407.01c-1.429-0.225-2.916-0.4-4.4-0.4s-2.976,0.176-4.346,0.4	c-3.484,0.635-6.685,1.943-9.489,3.887c2.231,2.404,4.289,4.576,6.12,6.523c1.025-0.576,2.171-1.094,3.369-1.436	c1.371-0.4,2.8-0.566,4.347-0.566c1.541,0,2.971,0.166,4.4,0.566c1.145,0.344,2.285,0.801,3.315,1.373	c1.884-1.938,3.884-4.057,6.06-6.459C136.246,408.953,133.045,407.645,129.616,407.01 M129.616,407.01	c-1.429-0.225-2.916-0.4-4.4-0.4s-2.976,0.176-4.346,0.4c-3.484,0.635-6.685,1.943-9.489,3.887c2.231,2.404,4.289,4.576,6.12,6.523	c1.025-0.576,2.171-1.094,3.369-1.436c1.371-0.4,2.8-0.566,4.347-0.566c1.541,0,2.971,0.166,4.4,0.566	c1.145,0.344,2.285,0.801,3.315,1.373c1.884-1.938,3.884-4.057,6.06-6.459C136.246,408.953,133.045,407.645,129.616,407.01 M129.616,407.01c-1.429-0.225-2.916-0.4-4.4-0.4s-2.976,0.176-4.346,0.4c-3.484,0.635-6.685,1.943-9.489,3.887	c2.231,2.404,4.289,4.576,6.12,6.523c1.025-0.576,2.171-1.094,3.369-1.436c1.371-0.4,2.8-0.566,4.347-0.566	c1.541,0,2.971,0.166,4.4,0.566c1.145,0.344,2.285,0.801,3.315,1.373c1.884-1.938,3.884-4.057,6.06-6.459	C136.246,408.953,133.045,407.645,129.616,407.01 M129.616,407.01c-1.429-0.225-2.916-0.4-4.4-0.4s-2.976,0.176-4.346,0.4	c-3.484,0.635-6.685,1.943-9.489,3.887c2.231,2.404,4.289,4.576,6.12,6.523c1.025-0.576,2.171-1.094,3.369-1.436	c1.371-0.4,2.8-0.566,4.347-0.566c1.541,0,2.971,0.166,4.4,0.566c1.145,0.344,2.285,0.801,3.315,1.373	c1.884-1.938,3.884-4.057,6.06-6.459C136.246,408.953,133.045,407.645,129.616,407.01 M129.616,407.01	c-1.429-0.225-2.916-0.4-4.4-0.4s-2.976,0.176-4.346,0.4c-3.484,0.635-6.685,1.943-9.489,3.887c2.231,2.404,4.289,4.576,6.12,6.523	c1.025-0.576,2.171-1.094,3.369-1.436c1.371-0.4,2.8-0.566,4.347-0.566c1.541,0,2.971,0.166,4.4,0.566	c1.145,0.344,2.285,0.801,3.315,1.373c1.884-1.938,3.884-4.057,6.06-6.459C136.246,408.953,133.045,407.645,129.616,407.01 M129.616,407.01c-1.429-0.225-2.916-0.4-4.4-0.4s-2.976,0.176-4.346,0.4c-3.484,0.635-6.685,1.943-9.489,3.887	c2.231,2.404,4.289,4.576,6.12,6.523c1.025-0.576,2.171-1.094,3.369-1.436c1.371-0.4,2.8-0.566,4.347-0.566	c1.541,0,2.971,0.166,4.4,0.566c1.145,0.344,2.285,0.801,3.315,1.373c1.884-1.938,3.884-4.057,6.06-6.459	C136.246,408.953,133.045,407.645,129.616,407.01 M129.616,407.01c-1.429-0.225-2.916-0.4-4.4-0.4s-2.976,0.176-4.346,0.4	c-3.484,0.635-6.685,1.943-9.489,3.887c2.231,2.404,4.289,4.576,6.12,6.523c1.025-0.576,2.171-1.094,3.369-1.436	c1.371-0.4,2.8-0.566,4.347-0.566c1.541,0,2.971,0.166,4.4,0.566c1.145,0.344,2.285,0.801,3.315,1.373	c1.884-1.938,3.884-4.057,6.06-6.459C136.246,408.953,133.045,407.645,129.616,407.01 M129.616,407.01v8.975	c1.144,0.344,2.285,0.801,3.315,1.373c1.885-1.938,3.883-4.057,6.06-6.459C136.246,408.953,133.045,407.645,129.616,407.01 M129.616,407.01v8.975c1.144,0.344,2.285,0.801,3.315,1.373c1.885-1.938,3.883-4.057,6.06-6.459	C136.246,408.953,133.045,407.645,129.616,407.01 M129.616,407.01v8.975c1.144,0.344,2.285,0.801,3.315,1.373	c1.885-1.938,3.883-4.057,6.06-6.459C136.246,408.953,133.045,407.645,129.616,407.01 M149.22,425.76v-0.117	c-0.745-3.145-2.058-6.172-3.999-8.74c-1.659-2.344-3.774-4.402-6.229-6.006c-2.745-1.943-5.946-3.252-9.375-3.887	c-1.43-0.225-2.916-0.4-4.401-0.4c-1.485,0-2.976,0.176-4.346,0.4c-3.485,0.635-6.685,1.943-9.49,3.887	c-2.4,1.602-4.514,3.662-6.169,6.061c-1.945,2.572-3.315,5.543-4.059,8.686v0.059c-0.401,1.885-0.626,3.664-0.626,5.666	c0,0.967,0,1.992,0.225,2.91v0.117c1.485,12.172,11.891,21.66,24.465,21.66c12.576,0,23.034-9.488,24.519-21.66v-0.059	c0.172-0.977,0.227-1.943,0.227-2.969C149.962,429.418,149.735,427.586,149.22,425.76 M140.707,435.195	c-1.715,6.967-8.004,12.109-15.491,12.109c-7.49,0-13.775-5.143-15.49-12.109v-0.117c-0.283-1.143-0.459-2.453-0.459-3.711	c0-1.719,0.23-3.32,0.745-4.865v-0.059c0.344-0.971,0.8-1.943,1.315-2.855c1.37-2.623,3.545-4.746,6.175-6.168	c1.025-0.576,2.17-1.094,3.369-1.436c1.371-0.4,2.8-0.566,4.347-0.566c1.54,0,2.971,0.166,4.399,0.566	c1.145,0.344,2.286,0.801,3.316,1.373v0.064c2.571,1.367,4.746,3.545,6.23,6.113c0.514,0.912,0.915,1.938,1.316,2.91v0.117	c0.455,1.484,0.745,3.145,0.745,4.805c0,1.309-0.232,2.568-0.514,3.77v0.059H140.707z M129.616,407.01v8.975	c1.144,0.344,2.285,0.801,3.315,1.373c1.885-1.938,3.883-4.057,6.06-6.459C136.246,408.953,133.045,407.645,129.616,407.01 M129.616,407.01v8.975c1.144,0.344,2.285,0.801,3.315,1.373c1.885-1.938,3.883-4.057,6.06-6.459	C136.246,408.953,133.045,407.645,129.616,407.01 M129.616,407.01v8.975c1.144,0.344,2.285,0.801,3.315,1.373	c1.885-1.938,3.883-4.057,6.06-6.459C136.246,408.953,133.045,407.645,129.616,407.01 M129.616,407.01	c-1.429-0.225-2.916-0.4-4.4-0.4s-2.976,0.176-4.346,0.4c-3.484,0.635-6.685,1.943-9.489,3.887c2.231,2.404,4.289,4.576,6.12,6.523	c1.025-0.576,2.171-1.094,3.369-1.436c1.371-0.4,2.8-0.566,4.347-0.566c1.541,0,2.971,0.166,4.4,0.566	c1.145,0.344,2.285,0.801,3.315,1.373c1.884-1.938,3.884-4.057,6.06-6.459C136.246,408.953,133.045,407.645,129.616,407.01 M129.616,407.01c-1.429-0.225-2.916-0.4-4.4-0.4s-2.976,0.176-4.346,0.4c-3.484,0.635-6.685,1.943-9.489,3.887	c2.231,2.404,4.289,4.576,6.12,6.523c1.025-0.576,2.171-1.094,3.369-1.436c1.371-0.4,2.8-0.566,4.347-0.566	c1.541,0,2.971,0.166,4.4,0.566c1.145,0.344,2.285,0.801,3.315,1.373c1.884-1.938,3.884-4.057,6.06-6.459	C136.246,408.953,133.045,407.645,129.616,407.01 M129.616,407.01c-1.429-0.225-2.916-0.4-4.4-0.4s-2.976,0.176-4.346,0.4	c-3.484,0.635-6.685,1.943-9.489,3.887c2.231,2.404,4.289,4.576,6.12,6.523c1.025-0.576,2.171-1.094,3.369-1.436	c1.371-0.4,2.8-0.566,4.347-0.566c1.541,0,2.971,0.166,4.4,0.566c1.145,0.344,2.285,0.801,3.315,1.373	c1.884-1.938,3.884-4.057,6.06-6.459C136.246,408.953,133.045,407.645,129.616,407.01 M129.616,407.01	c-1.429-0.225-2.916-0.4-4.4-0.4s-2.976,0.176-4.346,0.4c-3.484,0.635-6.685,1.943-9.489,3.887c2.231,2.404,4.289,4.576,6.12,6.523	c1.025-0.576,2.171-1.094,3.369-1.436c1.371-0.4,2.8-0.566,4.347-0.566c1.541,0,2.971,0.166,4.4,0.566	c1.145,0.344,2.285,0.801,3.315,1.373c1.884-1.938,3.884-4.057,6.06-6.459C136.246,408.953,133.045,407.645,129.616,407.01 M129.616,407.01c-1.429-0.225-2.916-0.4-4.4-0.4s-2.976,0.176-4.346,0.4c-3.484,0.635-6.685,1.943-9.489,3.887	c2.231,2.404,4.289,4.576,6.12,6.523c1.025-0.576,2.171-1.094,3.369-1.436c1.371-0.4,2.8-0.566,4.347-0.566	c1.541,0,2.971,0.166,4.4,0.566c1.145,0.344,2.285,0.801,3.315,1.373c1.884-1.938,3.884-4.057,6.06-6.459	C136.246,408.953,133.045,407.645,129.616,407.01 M129.616,407.01c-1.429-0.225-2.916-0.4-4.4-0.4s-2.976,0.176-4.346,0.4	c-3.484,0.635-6.685,1.943-9.489,3.887c2.231,2.404,4.289,4.576,6.12,6.523c1.025-0.576,2.171-1.094,3.369-1.436	c1.371-0.4,2.8-0.566,4.347-0.566c1.541,0,2.971,0.166,4.4,0.566c1.145,0.344,2.285,0.801,3.315,1.373	c1.884-1.938,3.884-4.057,6.06-6.459C136.246,408.953,133.045,407.645,129.616,407.01 M129.616,407.01	c-1.429-0.225-2.916-0.4-4.4-0.4s-2.976,0.176-4.346,0.4c-3.484,0.635-6.685,1.943-9.489,3.887c2.231,2.404,4.289,4.576,6.12,6.523	c1.025-0.576,2.171-1.094,3.369-1.436c1.371-0.4,2.8-0.566,4.347-0.566c1.541,0,2.971,0.166,4.4,0.566	c1.145,0.344,2.285,0.801,3.315,1.373c1.884-1.938,3.884-4.057,6.06-6.459C136.246,408.953,133.045,407.645,129.616,407.01 M129.616,407.01v8.975c1.144,0.344,2.285,0.801,3.315,1.373c1.885-1.938,3.883-4.057,6.06-6.459	C136.246,408.953,133.045,407.645,129.616,407.01 M129.616,407.01v8.975c1.144,0.344,2.285,0.801,3.315,1.373	c1.885-1.938,3.883-4.057,6.06-6.459C136.246,408.953,133.045,407.645,129.616,407.01 M129.616,407.01	c-1.429-0.225-2.916-0.4-4.4-0.4s-2.976,0.176-4.346,0.4c-3.484,0.635-6.685,1.943-9.489,3.887c2.231,2.404,4.289,4.576,6.12,6.523	c1.025-0.576,2.171-1.094,3.369-1.436c1.371-0.4,2.8-0.566,4.347-0.566c1.541,0,2.971,0.166,4.4,0.566	c1.145,0.344,2.285,0.801,3.315,1.373c1.884-1.938,3.884-4.057,6.06-6.459C136.246,408.953,133.045,407.645,129.616,407.01 M129.616,407.01c-1.429-0.225-2.916-0.4-4.4-0.4s-2.976,0.176-4.346,0.4c-3.484,0.635-6.685,1.943-9.489,3.887	c2.231,2.404,4.289,4.576,6.12,6.523c1.025-0.576,2.171-1.094,3.369-1.436c1.371-0.4,2.8-0.566,4.347-0.566	c1.541,0,2.971,0.166,4.4,0.566c1.145,0.344,2.285,0.801,3.315,1.373c1.884-1.938,3.884-4.057,6.06-6.459	C136.246,408.953,133.045,407.645,129.616,407.01 M129.616,407.01c-1.429-0.225-2.916-0.4-4.4-0.4s-2.976,0.176-4.346,0.4	c-3.484,0.635-6.685,1.943-9.489,3.887c2.231,2.404,4.289,4.576,6.12,6.523c1.025-0.576,2.171-1.094,3.369-1.436	c1.371-0.4,2.8-0.566,4.347-0.566c1.541,0,2.971,0.166,4.4,0.566c1.145,0.344,2.285,0.801,3.315,1.373	c1.884-1.938,3.884-4.057,6.06-6.459C136.246,408.953,133.045,407.645,129.616,407.01"/><path fill="#2887C8" d="M117.499,417.41c-2.63,1.436-4.8,3.551-6.17,6.182c-1.892-2.006-3.891-4.18-6.12-6.631	c-16.576-18.236-42.236-49.502-62.926-88.48c-1.999-3.717-3.945-7.545-5.83-11.432c-15.491-31.664-27.094-67.731-28.12-105.626	c-0.115-1.886-0.115-3.771-0.115-5.716c0-1.884,0-3.827,0.115-5.712c1.025-37.612,12.514-73.448,27.829-104.883	c1.89-3.889,3.831-7.714,5.777-11.434c20.803-39.036,46.58-70.356,63.212-88.592c2.17-2.4,4.231-4.629,6.116-6.569	c1.431,2.57,3.544,4.74,6.116,6.168c-1.831,1.947-3.831,4.063-6.055,6.461c-10.52,11.487-24.751,28.292-38.926,48.981	c-7.029,10.229-14.46,22.004-21.436,34.979c-1.77,3.262-3.544,6.577-5.199,10.004C30.394,125.858,17.933,162.5,17.073,201.193v0.061	c-0.11,1.479-0.11,2.969-0.11,4.452c0,1.545,0,2.971,0.11,4.461v0.056c0.859,38.408,13.035,74.991,29.036,106.825	c1.658,3.316,3.374,6.572,5.144,9.775c19.949,36.924,44.294,66.582,60.13,84.072C113.614,413.299,115.668,415.467,117.499,417.41"/><path fill="#2887C8" d="M202.777,338.191c-1.43,2.637-2.971,5.205-4.459,7.666c-18.516,30.859-39.036,55.664-53.097,71.045	c-2.175,2.451-4.231,4.629-6.06,6.631c-1.484-2.572-3.659-4.746-6.23-6.117v-0.055c1.884-1.943,3.884-4.063,6.061-6.465	c13.715-15.088,33.72-39.32,51.84-69.443c1.541-2.51,3.03-5.146,4.514-7.715C197.345,335.857,199.916,337.459,202.777,338.191"/><path fill="#2887C8" d="M203.063,73.905c-2.861,0.687-5.432,2.231-7.432,4.232c-1.485-2.629-2.974-5.201-4.515-7.715	c-4.399-7.319-8.859-14.176-13.205-20.464c-14.114-20.576-28.289-37.322-38.751-48.811c-2.229-2.401-4.284-4.514-6.115-6.46	c2.571-1.427,4.685-3.6,6.115-6.114c1.885,1.885,3.945,4.115,6.117,6.515c14.114,15.491,34.695,40.239,53.269,71.044	C200.092,68.703,201.632,71.279,203.063,73.905"/><path fill="#2887C8" d="M242.272,205.708c0,1.203,0,2.342-0.056,3.541c-0.576,32.928-9.204,64.48-21.436,92.996	c-1.145,2.748-2.4,5.488-3.659,8.178c-2.229-1.83-4.914-3.09-7.944-3.486c1.259-2.689,2.514-5.43,3.659-8.236	c11.545-26.918,19.661-56.469,20.521-87.273c0.115-1.885,0.115-3.831,0.115-5.718c0-1.884-0.062-3.827-0.115-5.713	c-0.916-30.925-9.146-60.415-20.291-86.65c-1.146-2.801-2.345-5.544-3.604-8.23c2.974-0.401,5.718-1.716,7.888-3.545	c1.255,2.686,2.46,5.431,3.66,8.175c12.061,28.351,20.629,59.671,21.206,92.419C242.272,203.31,242.272,204.509,242.272,205.708"/><path fill="#2887C8" d="M129.616-3.884v194.215c-1.429-0.339-2.86-0.571-4.4-0.571c-1.545,0-2.976,0.232-4.346,0.571V-3.884	c1.37,0.401,2.801,0.631,4.346,0.631C126.756-3.253,128.187-3.482,129.616-3.884"/><path fill="#2887C8" d="M129.616,221.084v194.9c-1.429-0.4-2.86-0.57-4.4-0.57c-1.545,0-2.976,0.172-4.346,0.57v-194.9	c1.37,0.4,2.801,0.568,4.346,0.568C126.756,221.653,128.187,221.485,129.616,221.084"/><path fill="#2887C8" d="M109.269,205.708c0,2.003,0.344,3.887,1.029,5.601c-0.347,0.056-0.685,0.117-1.029,0.117H41.883	c-3.145,0-5.715-2.576-5.715-5.718c0-3.144,2.571-5.712,5.715-5.712h67.386c0.344,0,0.683,0.054,1.029,0.11	C109.613,201.823,109.269,203.71,109.269,205.708"/><path fill="#2887C8" d="M129.616,85.795v7.258c-1.085,1.255-2.629,2.056-4.4,2.056H73.832c-3.145,0-5.715-2.57-5.715-5.715	s2.571-5.715,5.715-5.715h51.384C126.986,83.679,128.586,84.479,129.616,85.795"/><path fill="#2887C8" d="M191.574,85.224v8.344c-1.03,0.969-2.4,1.543-3.884,1.543h-34.751c-3.145,0-5.72-2.573-5.72-5.718	c0-3.139,2.576-5.715,5.72-5.715h34.751C189.174,83.679,190.543,84.252,191.574,85.224"/><path fill="#2887C8" d="M191.688,317.908v0.055l-0.286,8.402c-1.03,0.859-2.285,1.373-3.716,1.373h-34.749	c-3.145,0-5.72-2.574-5.72-5.719c0-3.143,2.576-5.713,5.72-5.713h34.749C189.228,316.307,190.658,316.938,191.688,317.908"/><path fill="#2887C8" d="M129.616,318.418v7.264c-1.085,1.25-2.629,2.051-4.4,2.051H73.832c-3.145,0-5.715-2.568-5.715-5.713	c0-3.139,2.571-5.713,5.715-5.713h51.384C126.986,316.307,128.586,317.107,129.616,318.418"/><path fill="#2887C8" d="M17.075,201.191v9.031c-0.972,0.745-2.231,1.201-3.544,1.201h-67.386c-3.145,0-5.715-2.57-5.715-5.715	c0-3.144,2.571-5.715,5.715-5.715h67.386C14.844,199.992,16.104,200.454,17.075,201.191"/><path fill="#2887C8" d="M50.97,85.107c-1.77,3.262-3.544,6.577-5.2,10h-65.96c-3.145,0-5.715-2.568-5.715-5.712	c0-3.14,2.571-5.715,5.715-5.715h67.386C48.624,83.679,49.94,84.194,50.97,85.107"/><path fill="#2887C8" d="M51.256,326.824c-1.03,1.025-2.515,1.66-4.06,1.66H-20.19c-3.145,0-5.715-2.578-5.715-5.723	c0-3.137,2.571-5.713,5.715-5.713h66.299C47.77,320.359,49.486,323.621,51.256,326.824"/><path fill="#2887C8" d="M242.213,202.163v7.087c-1.03,1.318-2.629,2.175-4.46,2.175h-64.871c-3.145,0-5.712-2.576-5.712-5.715	c0-3.147,2.568-5.715,5.712-5.715h64.871C239.584,199.995,241.183,200.849,242.213,202.163"/><path fill="#2887C8" d="M335.262,201.762c-0.453,1.487-0.684,3.032-0.684,4.631c0,1.199,0.115,2.347,0.455,3.489v0.056	c-1.023,0.916-2.398,1.484-3.883,1.484h-55.73c-3.141,0-5.715-2.573-5.715-5.715c0-3.144,2.574-5.712,5.715-5.712h55.73	c0.283,0,0.629,0,0.916,0.11c0.168,0,0.283,0,0.396,0.059c0.514,0.115,0.973,0.286,1.432,0.571c0.17,0.059,0.4,0.174,0.57,0.345	c0.17,0.114,0.346,0.229,0.516,0.4l0.23,0.229h0.053v0.053H335.262z"/><path fill="#2887C8" d="M322.975,89.394c-0.17,2.971-2.631,5.317-5.66,5.317h-61.67c-3.146,0-5.715-2.571-5.715-5.715	c0-3.139,2.57-5.715,5.715-5.715h61.67c0.746,0,1.43,0.17,2.117,0.4l3.373,5.483C322.859,89.225,322.918,89.282,322.975,89.394"/><path fill="#2887C8" d="M323.031,322.02c0,0.234,0,0.4-0.055,0.572c-0.805,1.43-1.658,2.797-2.574,4.232	c-0.916,0.572-1.941,0.908-3.086,0.908h-61.67c-3.145,0-5.715-2.568-5.715-5.713c0-3.135,2.571-5.713,5.715-5.713h61.67	C320.463,316.307,323.031,318.885,323.031,322.02"/><path fill="#2887C8" d="M-94.495,182.33c-0.344,2.915-0.63,5.83-0.798,8.745c-1.487-0.399-3.145-0.684-4.8-0.684	c-1.316,0-2.517,0.171-3.777,0.515c0.176-3.029,0.401-6.059,0.748-9.03c1.028-0.171,1.999-0.229,3.029-0.229	C-98.154,181.645-96.323,181.875-94.495,182.33"/><path fill="#2887C8" d="M110.01-14.459c-2.968,0.17-5.944,0.457-8.859,0.857c-1.141,0.061-2.229,0.229-3.37,0.344	c-4.516,0.571-8.975,1.26-13.376,2.061c-4.458,0.854-8.804,1.832-13.145,2.916c-4.343,1.084-8.574,2.285-12.859,3.654	c-4.175,1.317-8.345,2.8-12.46,4.399c-4.114,1.545-8.174,3.259-12.175,5.091c-3.999,1.826-7.888,3.77-11.776,5.83	c-3.831,2-7.658,4.17-11.375,6.46C6.899,19.379,3.24,21.782-0.3,24.238c-3.599,2.456-7.09,5.029-10.459,7.715	c-3.43,2.685-6.799,5.43-10.061,8.291c-3.198,2.916-6.399,5.83-9.49,8.914c-1.599,1.545-3.14,3.201-4.685,4.802h-0.054	c0,0-3.716,0.399-5.262-1.143c-1.599-1.542-1.369-4.175-1.369-4.175c2.916-3.145,5.939-6.169,9.084-9.145	c3.146-2.97,6.346-5.885,9.661-8.629c3.26-2.799,6.631-5.547,10.116-8.115c3.429-2.632,6.974-5.146,10.575-7.544	c3.599-2.403,7.258-4.746,10.974-6.916c3.77-2.23,7.544-4.347,11.431-6.346c3.828-2,7.774-3.888,11.775-5.659	c3.999-1.77,8.059-3.485,12.176-5.029c4.114-1.545,8.229-2.971,12.458-4.287c4.231-1.371,8.515-2.573,12.8-3.66	c4.347-1.084,8.69-2.053,13.091-2.854c4.399-0.859,8.861-1.545,13.375-2.114c1.659-0.232,3.315-0.405,4.915-0.576	c2.915-0.338,5.776-0.571,8.63-0.796h0.344c-0.283,1.255-0.459,2.456-0.459,3.77C109.267-17.599,109.496-15.944,110.01-14.459"/><path fill="#2887C8" d="M354.354,190.903c-1.201-0.339-2.516-0.513-3.83-0.513c-1.654,0-3.254,0.288-4.746,0.684	c-0.168-2.915-0.453-5.83-0.738-8.745c-3.375-31.661-13.549-61.386-28.922-87.62c-2.291-3.885-4.689-7.714-7.205-11.429	c-35.433-52.928-93.22-89.737-159.69-96.937c-2.915-0.344-5.835-0.57-8.75-0.801c0.461-1.488,0.746-3.144,0.746-4.799	c0-1.316-0.23-2.515-0.515-3.775c3.032,0.23,6.062,0.459,9.031,0.799c71.39,7.607,133.12,48.071,169.7,105.911l3.371,5.486	c0.055,0.059,0.115,0.114,0.168,0.229c16.352,27.61,27.096,58.985,30.635,92.48C353.898,184.849,354.184,187.875,354.354,190.903"/><path fill="#2887C8" d="M109.269,431.367c0,1.25,0.168,2.568,0.458,3.711c-3.03-0.178-6.006-0.402-8.975-0.801	C1.927,423.816-78.379,350.369-99.124,254.921c-1.199-5.659-2.229-11.377-3.083-17.203c-0.347-2.292-0.576-4.577-0.801-6.862	c-0.344-2.97-0.63-6-0.8-8.977c1.201,0.292,2.399,0.461,3.716,0.461c1.655,0,3.315-0.286,4.854-0.801	c0.176,2.972,0.46,5.886,0.8,8.859c0.229,2.229,0.515,4.402,0.801,6.633c0.859,5.714,1.89,11.373,3.088,16.917	c20.291,91.28,97.108,161.524,191.703,171.752c2.915,0.4,5.884,0.631,8.86,0.801C109.498,428.045,109.269,429.648,109.269,431.367"/><path fill="#2887C8" d="M354.295,221.885c-0.17,3.029-0.453,5.997-0.801,8.969c-3.543,33.208-14.229,64.306-30.52,91.742	c-0.797,1.426-1.658,2.799-2.572,4.229c-36.406,58.701-98.65,99.854-170.667,107.512c-2.974,0.342-5.999,0.566-9.028,0.801	c0.283-1.201,0.513-2.461,0.513-3.77c0-1.66-0.283-3.32-0.745-4.807c2.971-0.234,5.886-0.457,8.745-0.801	c66.932-7.26,125-44.52,160.436-98.027c2.459-3.711,4.801-7.539,7.09-11.426c14.916-25.779,24.744-54.875,28.176-85.91	c0.344-2.911,0.629-5.826,0.859-8.798c1.541,0.455,3.086,0.74,4.746,0.74C351.84,222.339,353.094,222.168,354.295,221.885"/><path fill="#2887C8" d="M-71.288,104.94c-1.371,2.632-2.686,5.317-3.884,8.003c-0.974,2.058-1.891,4.113-2.801,6.173	c-2.228,5.199-4.289,10.516-6.121,15.945c-2.568,7.715-4.799,15.606-6.569,23.722c0,0-1.66,1.66-4.229,1.369	c-2.685-0.285-4.287-2.341-4.287-2.341c1.826-8.975,4.341-17.773,7.202-26.294c1.885-5.486,3.999-10.916,6.343-16.171	c0.916-2.114,1.831-4.233,2.856-6.29c1.199-2.744,2.515-5.43,3.889-8.058C-76.833,102.943-74.204,104.311-71.288,104.94"/><path fill="#2887C8" d="M-50.368,72.08c-1.831,2.338-3.545,4.683-5.261,7.084c-1.824-2.169-4.285-3.887-7.029-4.856	c1.714-2.458,3.489-4.862,5.316-7.261C-54.714,68.305-52.368,69.962-50.368,72.08"/><g><path fill="#35B4FF" d="M512,83.955v413.026c0,8.168-6.683,14.851-14.851,14.851H214.833c-8.168,0-14.851-6.683-14.851-14.851 V83.955c0-8.167,6.683-14.85,14.851-14.85h282.316C505.317,69.105,512,75.788,512,83.955z"/><path fill="#0083D3" d="M199.982,214.623V83.955c0-8.167,6.683-14.85,14.851-14.85h282.316c8.168,0,14.851,6.683,14.851,14.85 v130.668H199.982z"/><g><path fill="#FFF" d="M443.833,313.7H268.148c-5.125,0-9.281-4.156-9.281-9.282s4.156-9.281,9.281-9.281h175.687 c5.125,0,9.281,4.155,9.281,9.281S448.959,313.7,443.833,313.7z"/></g><g><path fill="#FFF" d="M443.833,371.324H268.148c-5.125,0-9.281-4.156-9.281-9.281c0-5.126,4.156-9.282,9.281-9.282h175.687 c5.125,0,9.281,4.156,9.281,9.282C453.116,367.168,448.959,371.324,443.833,371.324z"/></g><g><path fill="#FFF" d="M443.833,428.949H268.148c-5.125,0-9.281-4.155-9.281-9.281s4.156-9.281,9.281-9.281h175.687 c5.125,0,9.281,4.155,9.281,9.281S448.959,428.949,443.833,428.949z"/></g><circle cx="355.991" cy="141.451" r="36.325" fill="#35B4FF"/></g><path fill="#FDFEFF" d="M344.453,167.565c0.992-1.62,6.515-5.224,8.334-2.479c2.943,4.497,11.771,3.405,16.104,3.339	c-4.86,2.613-10.35,2.812-15.873,2.877C349.017,171.368,345.016,170.31,344.453,167.565z"/><path fill="#FDFEFF" d="M377.059,126.23c6.779,3.902-20.469,10.35-43.98,13.293c-7.705,0.959-9.854,14.518-0.363,17.824	c-10.715-6.514,38.557-7.175,48.609-14.549C385.889,139.424,389.492,130.86,377.059,126.23z"/><path fill="#FDFEFF" d="M383.771,150.833c-0.628,8.035-35.416,0.496-42.592,11.54c-1.355,2.051-0.728,4.465,0.33,5.424	c1.588,1.455,5.324,3.34,8.83,3.34c-4.861-1.985,15.938-5.49,21.824-6.68C378.58,163.167,384.467,154.372,383.771,150.833z"/><path fill="#FDFEFF" d="M361.252,115.946c-0.1,0.298-0.43,0.529-0.694,0.529h-4.86c-0.298,0-0.43-0.231-0.332-0.529l1.688-4.993	c0.1-0.298,0.43-0.529,0.694-0.529h4.861c0.298,0,0.429,0.231,0.331,0.529L361.252,115.946z"/><path fill="#FDFEFF" d="M356.986,125.635c-0.1,0.331-0.463,0.595-0.793,0.595h-5.523c-0.33,0-0.496-0.264-0.396-0.595l1.918-5.688	c0.1-0.331,0.463-0.595,0.794-0.595h5.522c0.33,0,0.496,0.264,0.396,0.595L356.986,125.635z"/><path fill="#FDFEFF" d="M365.121,123.981c-0.066,0.232-0.297,0.397-0.529,0.397h-3.604c-0.199,0-0.331-0.165-0.266-0.397	l1.258-3.704c0.065-0.231,0.297-0.396,0.528-0.396h3.604c0.198,0,0.33,0.165,0.265,0.396L365.121,123.981z"/><path fill="#FDFEFF" d="M372.132,122.063c-0.066,0.199-0.298,0.396-0.496,0.396h-3.473c-0.198,0-0.297-0.165-0.231-0.396	l1.224-3.538c0.066-0.198,0.298-0.397,0.497-0.397h3.471c0.199,0,0.298,0.166,0.232,0.397L372.132,122.063z"/><path fill="#FDFEFF" d="M374.811,116.674c-0.066,0.198-0.299,0.363-0.496,0.363h-3.406c-0.198,0-0.297-0.166-0.231-0.363l1.19-3.506	c0.066-0.198,0.297-0.364,0.496-0.364h3.406c0.198,0,0.297,0.166,0.231,0.364L374.811,116.674z"/><path fill="#FDFEFF" d="M378.382,119.484c-0.066,0.166-0.231,0.298-0.397,0.298h-2.678c-0.166,0-0.232-0.132-0.199-0.298	l0.926-2.744c0.066-0.166,0.232-0.297,0.397-0.297h2.679c0.165,0,0.231,0.131,0.197,0.297L378.382,119.484z"/><path fill="#FDFEFF" d="M383.738,112.904c-0.033,0.132-0.165,0.231-0.297,0.231h-2.084c-0.132,0-0.198-0.099-0.132-0.231	l0.728-2.117c0.033-0.132,0.165-0.231,0.297-0.231h2.084c0.133,0,0.199,0.099,0.133,0.231L383.738,112.904z"/><path fill="#FDFEFF" d="M379.406,115.384c-0.065,0.165-0.23,0.298-0.396,0.298h-2.679c-0.165,0-0.231-0.133-0.198-0.298l0.926-2.778	c0.066-0.165,0.232-0.298,0.396-0.298h2.68c0.165,0,0.23,0.133,0.197,0.298L379.406,115.384z"/><path fill="#FDFEFF" d="M368.759,116.508c-0.099,0.265-0.364,0.463-0.628,0.463h-4.233c-0.265,0-0.396-0.198-0.298-0.463	l1.488-4.365c0.1-0.264,0.363-0.463,0.629-0.463h4.232c0.264,0,0.396,0.199,0.297,0.463L368.759,116.508z"/><path fill="#FDFEFF" d="M350.307,111.945c-12.434,2.811-20.998,10.185-23.016,21.064c1.29-3.77,11.178-5.886,19.113-6.779	c1.29-4.167,3.274-10.78,4.432-14.385L350.307,111.945z"/><path fill="#FDFEFF" d="M349.314,125.536c0.033-0.133,0.165-0.563,0.298-0.993l1.421-4.133c0.133-0.43,0.464-1.058,0.762-1.389	c0.265-0.331,1.588-0.628,2.051-0.628h3.901c0.43,0,1.157,0.099,1.587,0.198c0,0,0.1,0.034,0.331,0.364	c0.265,0.364,0.265,0.529,0.265,0.529c-0.033,0.43-0.198,1.158-0.331,1.587l-1.157,3.274c-0.133,0.43,0.1,0.662,0.529,0.563	l0.165-0.034c0.43-0.132,0.761-0.363,0.694-0.529c-0.033-0.166,0.166-0.992,0.298-1.422l0.728-2.149	c0.133-0.43,0.43-0.992,0.662-1.29c0.23-0.297,1.389-0.529,1.852-0.529h1.852c0.43,0,0.826-0.231,0.826-0.496	s-0.33-0.496-0.793-0.496h-0.529c-0.43,0-1.158-0.099-1.588-0.198c0,0-0.033,0-0.264-0.331c-0.232-0.331-0.232-0.396-0.232-0.396	c0.033-0.43,0.199-1.157,0.331-1.587l0.431-1.256c0.132-0.43,0.164-0.827,0.065-0.926c-0.099-0.1-0.331,0.198-0.463,0.628	l-0.562,1.621c-0.133,0.43-0.463,1.025-0.729,1.355c-0.264,0.331-1.521,0.596-1.983,0.596h-3.241c-0.43,0-1.157-0.099-1.588-0.199	c0,0-0.065,0-0.297-0.363c-0.265-0.364-0.231-0.463-0.231-0.463c0.033-0.431,0.198-1.158,0.331-1.587l0.959-2.844	c0.133-0.43-0.1-0.728-0.529-0.661l-3.67,0.43c-0.432,0.066-0.895,0.132-0.992,0.198c-0.1,0.066-0.365,0.628-0.496,1.059	l-3.869,12.136c-0.133,0.43-0.232,0.86-0.232,0.926c0,0.1,0.596,0.1,1.025,0.066l1.588-0.165c0.43-0.033,0.793-0.066,0.793-0.066	S349.281,125.635,349.314,125.536z"/></svg>