<svg xmlns="http://www.w3.org/2000/svg" xmlns:xlink="http://www.w3.org/1999/xlink" id="Layer_1" width="800" height="800" x="0" y="0" enable-background="new 0 0 800 800" version="1.0" viewBox="0 0 800 800" xml:space="preserve"><g><path fill="#E4F2FC" d="M545.292,250.038V428.91c0,5.457-4.431,9.888-9.888,9.888H270.291c-5.458,0-9.888-4.431-9.888-9.888 l0.159-180.108c0-0.85-0.217,0.79,0,0l0.158-34.123c0-5.458,4.429-9.888,9.888-9.888h96.565l35.359,35.359h132.873 C540.861,240.15,545.292,244.581,545.292,250.038"/></g><g><path fill="#2887C8" d="M535.404,439.548H270.291c-5.866,0-10.638-4.772-10.638-10.638l0.158-179.565 c-0.062-0.118-0.096-0.254-0.096-0.38c0-0.271,0.038-0.479,0.099-0.639l0.156-33.65c0-5.862,4.772-10.634,10.638-10.634h96.565 c0.199,0,0.39,0.079,0.53,0.22l35.139,35.139h132.563c5.865,0,10.638,4.772,10.638,10.638V428.91 C546.042,434.775,541.27,439.548,535.404,439.548z M270.607,205.542c-5.039,0-9.138,4.099-9.138,9.138l-0.158,34.126 l-0.159,180.105c0,5.037,4.099,9.137,9.138,9.137h265.114c5.038,0,9.138-4.1,9.138-9.138V250.038c0-5.039-4.1-9.138-9.138-9.138 H402.531c-0.199,0-0.39-0.079-0.53-0.22l-35.139-35.139H270.607z"/></g><g><path fill="#B6DDF5" d="M507.165,326.161H298.531c-4.369,0-7.91-3.54-7.91-7.91v-50.428c0-4.369,3.542-7.91,7.91-7.91h208.634 c4.368,0,7.91,3.542,7.91,7.91v50.428C515.075,322.621,511.533,326.161,507.165,326.161"/></g><g><path fill="#2887C8" d="M507.165,326.911H298.531c-4.775,0-8.66-3.885-8.66-8.66v-50.428c0-4.775,3.885-8.66,8.66-8.66h208.634 c4.775,0,8.66,3.885,8.66,8.66v50.428C515.825,323.026,511.94,326.911,507.165,326.911z M298.531,260.663 c-3.948,0-7.16,3.212-7.16,7.16v50.428c0,3.948,3.212,7.16,7.16,7.16h208.634c3.948,0,7.16-3.212,7.16-7.16v-50.428 c0-3.948-3.212-7.16-7.16-7.16H298.531z"/></g><g><path fill="#FFF" d="M245.96,483.763v26.644c0,5.459,4.428,9.888,9.888,9.888H462.37"/></g><g><path fill="#2887C8" d="M462.37,521.044H255.848c-5.866,0-10.638-4.772-10.638-10.638v-26.644c0-0.414,0.336-0.75,0.75-0.75 s0.75,0.336,0.75,0.75v26.644c0,5.038,4.099,9.138,9.138,9.138H462.37c0.414,0,0.75,0.336,0.75,0.75 S462.784,521.044,462.37,521.044z"/></g><g><line x1="245.96" x2="245.96" y1="461.862" y2="473.106" fill="#FFF"/></g><g><path fill="#2887C8" d="M245.96,473.856c-0.414,0-0.75-0.336-0.75-0.75v-11.244c0-0.414,0.336-0.75,0.75-0.75s0.75,0.336,0.75,0.75 v11.244C246.71,473.521,246.374,473.856,245.96,473.856z"/></g><g><path fill="#FFF" d="M559.715,437.778c0.006,0.004,0.014,0.008,0.02,0.014V292.214c0-5.461-4.426-9.888-9.888-9.888H255.849 c-5.462,0-9.888,4.426-9.888,9.888v158.664"/></g><g><path fill="#2887C8" d="M245.961,451.628c-0.414,0-0.75-0.336-0.75-0.75V292.214c0-5.866,4.772-10.638,10.638-10.638h293.998 c5.865,0,10.638,4.772,10.638,10.638v145.578c0,0.304-0.183,0.577-0.463,0.693c-0.279,0.115-0.603,0.052-0.817-0.163l0.503-0.53 h-0.723V292.214c0-5.039-4.1-9.138-9.138-9.138H255.849c-5.039,0-9.138,4.099-9.138,9.138v158.664 C246.711,451.292,246.375,451.628,245.961,451.628z"/></g><g><path fill="#2887C8" d="M311.068,236.676h-27.522c-1.228,0-2.225-0.995-2.225-2.225c0-1.229,0.997-2.225,2.225-2.225h27.522 c1.227,0,2.225,0.996,2.225,2.225C313.293,235.681,312.295,236.676,311.068,236.676"/></g><g><path fill="#2887C8" d="M328.207,236.676h4.285c1.229,0,2.225-0.995,2.225-2.225c0-1.229-0.997-2.225-2.225-2.225h-4.285 c-1.229,0-2.225,0.996-2.225,2.225C325.982,235.681,326.979,236.676,328.207,236.676"/></g><g><path fill="#2887C8" d="M350.373,236.676h11.181c1.229,0,2.225-0.995,2.225-2.225c0-1.229-0.997-2.225-2.225-2.225h-11.181 c-1.228,0-2.225,0.996-2.225,2.225C348.148,235.681,349.145,236.676,350.373,236.676"/></g><g><path fill="#FFF" d="M315.354,356.723h-18.091c-3.668,0-6.642-2.974-6.642-6.644V331.99c0-3.669,2.974-6.644,6.642-6.644h18.091 c3.668,0,6.643,2.974,6.643,6.644v18.089C321.996,353.749,319.022,356.723,315.354,356.723"/></g><g><path fill="#2887C8" d="M315.354,357.473h-18.091c-4.076,0-7.392-3.317-7.392-7.394V331.99c0-4.077,3.316-7.394,7.392-7.394h18.091 c4.076,0,7.393,3.317,7.393,7.394v18.089C322.746,354.156,319.43,357.473,315.354,357.473z M297.263,326.096 c-3.249,0-5.892,2.644-5.892,5.894v18.089c0,3.25,2.643,5.894,5.892,5.894h18.091c3.249,0,5.893-2.644,5.893-5.894V331.99 c0-3.25-2.644-5.894-5.893-5.894H297.263z"/></g><g><path fill="#B6DDF5" d="M415.962,335.151h-76.775c-0.943,0-1.708-0.765-1.708-1.709v-1.534c0-0.944,0.765-1.711,1.708-1.711h76.775 c0.945,0,1.711,0.767,1.711,1.711v1.534C417.673,334.386,416.907,335.151,415.962,335.151"/></g><g><path fill="#B6DDF5" d="M514.995,350.427H339.189c-0.945,0-1.711-0.765-1.711-1.709v-1.537c0-0.942,0.766-1.707,1.711-1.707 h175.806c0.945,0,1.711,0.765,1.711,1.707v1.537C516.706,349.662,515.94,350.427,514.995,350.427"/></g><g><path fill="#FFF" d="M315.354,416.998h-18.091c-3.668,0-6.642-2.974-6.642-6.643v-18.09c0-3.669,2.974-6.644,6.642-6.644h18.091 c3.668,0,6.643,2.974,6.643,6.644v18.09C321.996,414.024,319.022,416.998,315.354,416.998"/></g><g><path fill="#2887C8" d="M315.354,417.748h-18.091c-4.076,0-7.392-3.316-7.392-7.393v-18.09c0-4.077,3.316-7.394,7.392-7.394h18.091 c4.076,0,7.393,3.317,7.393,7.394v18.09C322.746,414.432,319.43,417.748,315.354,417.748z M297.263,386.372 c-3.249,0-5.892,2.644-5.892,5.894v18.09c0,3.249,2.643,5.893,5.892,5.893h18.091c3.249,0,5.893-2.644,5.893-5.893v-18.09 c0-3.25-2.644-5.894-5.893-5.894H297.263z"/></g><g><path fill="#B6DDF5" d="M415.962,395.426h-76.775c-0.943,0-1.708-0.765-1.708-1.709v-1.535c0-0.944,0.765-1.709,1.708-1.709h76.775 c0.945,0,1.711,0.765,1.711,1.709v1.535C417.673,394.662,416.907,395.426,415.962,395.426"/></g><g><path fill="#B6DDF5" d="M514.995,410.703H339.189c-0.945,0-1.711-0.768-1.711-1.712v-1.533c0-0.944,0.766-1.711,1.711-1.711 h175.806c0.945,0,1.711,0.767,1.711,1.711v1.533C516.706,409.936,515.94,410.703,514.995,410.703"/></g><g><path fill="#FFF" d="M315.354,477.271h-18.091c-3.668,0-6.642-2.974-6.642-6.642v-18.091c0-3.668,2.974-6.642,6.642-6.642 h18.091c3.668,0,6.643,2.974,6.643,6.642v18.091C321.996,474.298,319.022,477.271,315.354,477.271"/></g><g><path fill="#2887C8" d="M315.354,478.021h-18.091c-4.076,0-7.392-3.315-7.392-7.392v-18.091c0-4.076,3.316-7.392,7.392-7.392 h18.091c4.076,0,7.393,3.315,7.393,7.392v18.091C322.746,474.706,319.43,478.021,315.354,478.021z M297.263,446.647 c-3.249,0-5.892,2.643-5.892,5.892v18.091c0,3.249,2.643,5.892,5.892,5.892h18.091c3.249,0,5.893-2.643,5.893-5.892v-18.091 c0-3.249-2.644-5.892-5.893-5.892H297.263z"/></g><g><path fill="#B6DDF5" d="M415.962,455.702h-76.775c-0.943,0-1.708-0.767-1.708-1.711v-1.536c0-0.942,0.765-1.707,1.708-1.707h76.775 c0.945,0,1.711,0.765,1.711,1.707v1.536C417.673,454.936,416.907,455.702,415.962,455.702"/></g><g><path fill="#B6DDF5" d="M514.995,470.976H339.189c-0.945,0-1.711-0.765-1.711-1.709v-1.533c0-0.944,0.766-1.711,1.711-1.711 h175.806c0.945,0,1.711,0.767,1.711,1.711v1.533C516.706,470.211,515.94,470.976,514.995,470.976"/></g><g><path fill="#FFF" d="M568.967,484.363c0,28.613-23.197,51.809-51.811,51.809s-51.811-23.195-51.811-51.809 c0-28.615,23.197-51.811,51.811-51.811S568.967,455.748,568.967,484.363"/></g><g><path fill="#2887C8" d="M517.156,536.922c-28.982,0-52.561-23.578-52.561-52.559c0-28.982,23.578-52.561,52.561-52.561 s52.561,23.578,52.561,52.561C569.717,513.344,546.139,536.922,517.156,536.922z M517.156,433.303 c-28.155,0-51.061,22.905-51.061,51.061c0,28.153,22.905,51.059,51.061,51.059s51.061-22.905,51.061-51.059 C568.217,456.208,545.312,433.303,517.156,433.303z"/></g><g><path fill="#E4F0CC" d="M557.664,484.363c0,22.371-18.136,40.506-40.508,40.506c-22.373,0-40.51-18.135-40.51-40.506 c0-22.373,18.137-40.51,40.51-40.51C539.528,443.854,557.664,461.99,557.664,484.363"/></g><g><path fill="#0B9D49" d="M529.306,493.22c-0.532,0-0.976-0.42-0.998-0.957c-0.023-0.552,0.404-1.019,0.956-1.042 c6.199-0.266,11.056-4.469,11.056-9.57c0-4.196-3.415-7.971-8.305-9.179c-0.29-0.071-0.533-0.269-0.662-0.538 c-0.13-0.27-0.132-0.583-0.006-0.854c0.446-0.962,0.673-1.952,0.673-2.943c0-4.821-5.234-8.744-11.668-8.744 c-5.372,0-10.025,2.734-11.314,6.65c-0.158,0.478-0.649,0.76-1.137,0.67c-0.479-0.091-0.966-0.135-1.49-0.135 c-4.596,0-8.427,3.596-8.721,8.188c-0.019,0.282-0.155,0.544-0.377,0.72c-2.109,1.67-3.318,4.168-3.318,6.854 c0,4.822,3.923,8.745,8.745,8.745l3.411,0.02c0.552,0.003,0.997,0.453,0.994,1.006c-0.003,0.55-0.45,0.994-1,0.994 c-0.002,0-0.004,0-0.006,0l-3.405-0.02c-5.919,0-10.739-4.82-10.739-10.745c0-3.153,1.356-6.096,3.736-8.142 c0.571-5.429,5.18-9.619,10.68-9.619c0.354,0,0.694,0.017,1.028,0.05c1.874-4.299,7.042-7.235,12.913-7.235 c7.536,0,13.668,4.819,13.668,10.744c0,0.912-0.146,1.818-0.434,2.707c5.195,1.704,8.733,6.017,8.733,10.807 c0,6.176-5.697,11.257-12.97,11.568C529.335,493.22,529.32,493.22,529.306,493.22z"/></g><g><path fill="#0B9D49" d="M517.156,511.877c-0.553,0-1-0.447-1-1v-21.371c0-0.553,0.447-1,1-1s1,0.447,1,1v21.371 C518.156,511.43,517.709,511.877,517.156,511.877z"/></g><g><path fill="#0B9D49" d="M517.156,511.859c-0.266,0-0.52-0.105-0.707-0.293l-10.668-10.668c-0.391-0.391-0.391-1.023,0-1.414 s1.023-0.391,1.414,0l9.961,9.961l9.96-9.961c0.391-0.391,1.023-0.391,1.414,0s0.391,1.023,0,1.414l-10.667,10.668 C517.676,511.754,517.422,511.859,517.156,511.859z"/></g><g><path fill="#E4F2FC" d="M169.768,284.485c0,24.345-19.736,44.08-44.08,44.08s-44.08-19.735-44.08-44.08 c0-24.345,19.736-44.08,44.08-44.08S169.768,260.14,169.768,284.485"/></g><g><path fill="#2887C8" d="M125.688,329.166c-24.637,0-44.68-20.043-44.68-44.68s20.043-44.68,44.68-44.68s44.68,20.043,44.68,44.68 S150.325,329.166,125.688,329.166z M125.688,241.005c-23.975,0-43.48,19.505-43.48,43.48s19.505,43.48,43.48,43.48 s43.48-19.505,43.48-43.48S149.663,241.005,125.688,241.005z"/></g><g><defs><path id="SVGID_1_" d="M83.061,284.483c0,23.547,19.085,42.632,42.628,42.632c23.542,0,42.627-19.084,42.627-42.632 c0-23.542-19.085-42.626-42.627-42.626C102.146,241.857,83.061,260.942,83.061,284.483"/></defs><clipPath id="SVGID_2_"><use overflow="visible" xlink:href="#SVGID_1_"/></clipPath><g clip-path="url(#SVGID_2_)"><path fill="#B6DDF5" d="M77.902,284.58v13.458c0,5.286,4.283,9.569,9.57,9.569h14.415l10.119,10.12v-10.12h1.666 c5.295,0,9.579-4.284,9.579-9.569V284.58c0-5.284-4.284-9.581-9.579-9.581H87.472C82.185,274.999,77.902,279.296,77.902,284.58"/></g><g clip-path="url(#SVGID_2_)"><path fill="#2887C8" d="M112.005,318.328c-0.156,0-0.31-0.061-0.424-0.176l-9.943-9.944H87.472c-5.608,0-10.17-4.562-10.17-10.169 V284.58c0-5.614,4.563-10.181,10.17-10.181h26.199c5.613,0,10.179,4.567,10.179,10.181v13.458c0,5.607-4.566,10.169-10.179,10.169 h-1.065v9.52c0,0.243-0.146,0.461-0.371,0.554C112.161,318.313,112.083,318.328,112.005,318.328z M87.472,275.599 c-4.946,0-8.97,4.029-8.97,8.981v13.458c0,4.946,4.024,8.969,8.97,8.969h14.415c0.159,0,0.312,0.063,0.424,0.176l9.094,9.095 v-8.671c0-0.332,0.269-0.6,0.6-0.6h1.666c4.951,0,8.979-4.023,8.979-8.969V284.58c0-4.952-4.028-8.981-8.979-8.981H87.472z"/></g></g><g><path fill="#FFF" d="M174.137,267.672v13.646c0,5.357-4.342,9.7-9.702,9.7h-14.614l-10.26,10.261v-10.261h-1.687 c-5.372,0-9.714-4.343-9.714-9.7v-13.646c0-5.359,4.342-9.714,9.714-9.714h26.561C169.794,257.958,174.137,262.313,174.137,267.672"/></g><g><path fill="#2887C8" d="M139.561,301.879c-0.078,0-0.155-0.015-0.229-0.046c-0.224-0.093-0.371-0.312-0.371-0.554v-9.661h-1.087 c-5.687,0-10.314-4.621-10.314-10.3v-13.646c0-5.687,4.627-10.314,10.314-10.314h26.561c5.68,0,10.302,4.627,10.302,10.314v13.646 c0,5.68-4.622,10.3-10.302,10.3h-14.366l-10.084,10.085C139.871,301.818,139.717,301.879,139.561,301.879z M137.874,258.558 c-5.025,0-9.114,4.088-9.114,9.114v13.646c0,5.018,4.088,9.1,9.114,9.1h1.687c0.332,0,0.6,0.269,0.6,0.6v8.812l9.235-9.236 c0.113-0.112,0.265-0.176,0.424-0.176h14.614c5.019,0,9.102-4.082,9.102-9.1v-13.646c0-5.025-4.083-9.114-9.102-9.114H137.874z"/></g><g><path fill="#E4F2FC" d="M147.429,476.57c0,33.809-27.407,61.215-61.215,61.215C52.407,537.785,25,510.379,25,476.57 c0-33.808,27.407-61.215,61.214-61.215C120.022,415.355,147.429,442.763,147.429,476.57"/></g><g><path fill="#2887C8" d="M86.214,538.385c-34.084,0-61.814-27.729-61.814-61.814s27.729-61.814,61.814-61.814 c34.085,0,61.815,27.729,61.815,61.814S120.299,538.385,86.214,538.385z M86.214,415.955c-33.422,0-60.614,27.192-60.614,60.615 s27.191,60.615,60.614,60.615c33.423,0,60.615-27.192,60.615-60.615S119.637,415.955,86.214,415.955z"/></g><g><path fill="#FFF" d="M132.656,416.056v100.396c-10.922,13.577-27.667,21.333-46.443,21.333c-18.777,0-35.523-7.76-46.443-21.339 V416.056c0-9.303,7.546-16.838,16.849-16.838h59.201C125.121,399.217,132.656,406.753,132.656,416.056"/></g><g><path fill="#2887C8" d="M86.213,538.385c-18.792,0-35.891-7.859-46.911-21.563c-0.085-0.106-0.132-0.239-0.132-0.376V416.056 c0-9.615,7.828-17.438,17.449-17.438h59.201c9.614,0,17.437,7.823,17.437,17.438v100.396c0,0.137-0.047,0.27-0.133,0.376 C122.103,530.528,105.004,538.385,86.213,538.385z M40.37,516.234c10.796,13.317,27.492,20.951,45.843,20.951 c18.351,0,35.047-7.632,45.843-20.945V416.056c0-8.954-7.284-16.238-16.236-16.238H56.619c-8.96,0-16.249,7.284-16.249,16.238 V516.234z"/></g><g><path fill="#B6DDF5" d="M132.654,426.573h-92.88v-10.521c0-9.299,7.539-16.838,16.839-16.838h59.203 c9.3,0,16.838,7.539,16.838,16.838V426.573z"/></g><g><path fill="#2887C8" d="M132.654,427.173h-92.88c-0.332,0-0.6-0.269-0.6-0.6v-10.521c0-9.615,7.823-17.438,17.439-17.438h59.203 c9.616,0,17.438,7.823,17.438,17.438v10.521C133.254,426.904,132.985,427.173,132.654,427.173z M40.374,425.974h91.68v-9.922 c0-8.953-7.284-16.238-16.238-16.238H56.613c-8.955,0-16.239,7.285-16.239,16.238V425.974z"/></g><g><path fill="#FFF" d="M95.881,414.532H82.105c-0.903,0-1.637-0.733-1.637-1.638c0-0.906,0.734-1.64,1.637-1.64h13.776 c0.906,0,1.64,0.733,1.64,1.64C97.521,413.799,96.787,414.532,95.881,414.532"/></g><g><path fill="#FFF" d="M76.547,414.532L76.547,414.532c-0.906,0-1.64-0.733-1.64-1.638c0-0.906,0.734-1.64,1.64-1.64 s1.64,0.733,1.64,1.64C78.187,413.799,77.453,414.532,76.547,414.532"/></g><g><path fill="#E4F2FC" d="M775,474.73c0,34.487-27.958,62.446-62.446,62.446c-34.487,0-62.446-27.959-62.446-62.446 c0-34.488,27.959-62.446,62.446-62.446C747.042,412.284,775,440.242,775,474.73"/></g><g><path fill="#2887C8" d="M712.554,537.776c-34.764,0-63.046-28.282-63.046-63.046s28.282-63.046,63.046-63.046 S775.6,439.967,775.6,474.73S747.317,537.776,712.554,537.776z M712.554,412.884c-34.103,0-61.847,27.744-61.847,61.847 s27.744,61.847,61.847,61.847S774.4,508.833,774.4,474.73S746.656,412.884,712.554,412.884z"/></g><g><rect width="15.01" height="18.05" x="705.05" y="483.216" fill="#FFF"/></g><g><path fill="#2887C8" d="M720.06,501.865h-15.01c-0.331,0-0.6-0.269-0.6-0.6v-18.05c0-0.331,0.269-0.6,0.6-0.6h15.01 c0.331,0,0.6,0.269,0.6,0.6v18.05C720.659,501.597,720.391,501.865,720.06,501.865z M705.649,500.666h13.811v-16.851h-13.811 V500.666z"/></g><g><path fill="#E4F0CC" d="M726.995,507.163v28.341c-4.627,1.095-9.473,1.677-14.444,1.677c-4.969,0-9.803-0.582-14.432-1.677v-28.341 c0-4.092,3.01-7.478,6.931-8.059c0.411-0.081,0.82-0.114,1.242-0.114h12.518c0.421,0,0.845,0.033,1.255,0.114 C723.997,499.686,726.995,503.071,726.995,507.163"/></g><g><path fill="#0B9D49" d="M712.551,537.78c-4.918,0-9.82-0.569-14.569-1.692c-0.271-0.064-0.462-0.306-0.462-0.584v-28.341 c0-4.304,3.199-8.023,7.442-8.652c0.4-0.079,0.845-0.12,1.33-0.12h12.518c0.488,0,0.949,0.042,1.371,0.125 c4.215,0.622,7.414,4.342,7.414,8.647v28.341c0,0.278-0.19,0.52-0.462,0.584C722.386,537.211,717.479,537.78,712.551,537.78z M698.719,535.027c9.04,2.065,18.658,2.06,27.677,0v-27.864c0-3.715-2.76-6.925-6.419-7.465c-0.374-0.073-0.757-0.108-1.167-0.108 h-12.518c-0.406,0-0.774,0.034-1.126,0.104c-3.688,0.547-6.447,3.756-6.447,7.47V535.027z"/></g><g><path fill="#FFF" d="M756.882,442.117c0,24.482-19.847,44.328-44.329,44.328c-24.48,0-44.327-19.846-44.327-44.328 c0-24.481,19.847-44.329,44.327-44.329C737.035,397.788,756.882,417.636,756.882,442.117"/></g><g><path fill="#2887C8" d="M712.553,487.045c-24.772,0-44.927-20.154-44.927-44.928c0-24.774,20.154-44.929,44.927-44.929 c24.774,0,44.929,20.155,44.929,44.929C757.481,466.891,737.327,487.045,712.553,487.045z M712.553,398.388 c-24.111,0-43.728,19.617-43.728,43.729c0,24.111,19.616,43.729,43.728,43.729c24.112,0,43.729-19.617,43.729-43.729 C756.282,418.005,736.665,398.388,712.553,398.388z"/></g><g><path fill="#B6DDF5" d="M747.522,442.117c0,19.313-15.656,34.967-34.968,34.967c-19.313,0-34.97-15.654-34.97-34.967 c0-19.313,15.656-34.969,34.97-34.969C731.866,407.148,747.522,422.804,747.522,442.117"/></g><g><path fill="#2887C8" d="M712.555,477.684c-19.613,0-35.569-15.955-35.569-35.566c0-19.612,15.956-35.568,35.569-35.568 c19.612,0,35.567,15.956,35.567,35.568C748.122,461.729,732.167,477.684,712.555,477.684z M712.555,407.748 c-18.951,0-34.37,15.418-34.37,34.369c0,18.95,15.419,34.367,34.37,34.367c18.95,0,34.368-15.417,34.368-34.367 C746.923,423.166,731.505,407.748,712.555,407.748z"/></g><g><path fill="#E4F2FC" d="M716.318,285.408c0,24.376-19.76,44.137-44.135,44.137c-24.376,0-44.137-19.761-44.137-44.137 c0-24.375,19.761-44.136,44.137-44.136C696.559,241.272,716.318,261.033,716.318,285.408"/></g><g><path fill="#2887C8" d="M672.184,330.145c-24.668,0-44.736-20.069-44.736-44.737c0-24.667,20.068-44.736,44.736-44.736 c24.667,0,44.734,20.068,44.734,44.736C716.918,310.076,696.851,330.145,672.184,330.145z M672.184,241.873 c-24.006,0-43.537,19.53-43.537,43.536c0,24.006,19.531,43.537,43.537,43.537c24.005,0,43.535-19.53,43.535-43.537 C715.719,261.402,696.188,241.873,672.184,241.873z"/></g><g><defs><path id="SVGID_3_" d="M629.204,285.408c0,23.737,19.243,42.979,42.979,42.979c23.738,0,42.98-19.243,42.98-42.979 c0-23.736-19.242-42.977-42.98-42.977C648.447,242.431,629.204,261.672,629.204,285.408"/></defs><clipPath id="SVGID_4_"><use overflow="visible" xlink:href="#SVGID_3_"/></clipPath><g clip-path="url(#SVGID_4_)"><path fill="#FFF" d="M702.896,280.745v45.316c0,3.984-3.231,7.215-7.217,7.215h-46.993c-3.984,0-7.214-3.231-7.214-7.215 v-56.428c0-3.986,3.229-7.217,7.214-7.217h37.291v11.112c0,3.986,3.229,7.217,7.217,7.217H702.896z"/></g><g clip-path="url(#SVGID_4_)"><path fill="#2887C8" d="M695.679,333.876h-46.993c-4.309,0-7.813-3.506-7.813-7.815v-56.428c0-4.311,3.505-7.817,7.813-7.817 h37.291c0.331,0,0.6,0.269,0.6,0.6v11.112c0,3.649,2.969,6.617,6.617,6.617h9.702c0.331,0,0.6,0.269,0.6,0.6v45.316 C703.495,330.37,699.989,333.876,695.679,333.876z M648.686,263.015c-3.646,0-6.614,2.968-6.614,6.617v56.428 c0,3.648,2.968,6.615,6.614,6.615h46.993c3.648,0,6.617-2.967,6.617-6.615v-44.716h-9.103c-4.311,0-7.816-3.507-7.816-7.817 v-10.512H648.686z"/></g><g clip-path="url(#SVGID_4_)"><path fill="#B6DDF5" d="M702.896,280.745h-9.702c-3.987,0-7.217-3.231-7.217-7.217v-11.112L702.896,280.745z"/></g><g clip-path="url(#SVGID_4_)"><path fill="#2887C8" d="M702.915,281.345c-0.004,0-0.012,0.001-0.02,0h-9.702c-4.311,0-7.816-3.507-7.816-7.817v-11.112 c0-0.247,0.151-0.469,0.381-0.559c0.23-0.089,0.493-0.031,0.659,0.152l16.839,18.242c0.157,0.108,0.26,0.289,0.26,0.494 C703.516,281.076,703.247,281.345,702.915,281.345z M686.576,263.95v9.578c0,3.649,2.969,6.617,6.617,6.617h8.332L686.576,263.95z"/></g></g></svg>