<svg xmlns:xlink="http://www.w3.org/1999/xlink" width="140px" height="148px" viewBox="0 0 140 148" version="1.1"
     xmlns="http://www.w3.org/2000/svg">
    <defs>
        <polygon id="path-1" points="0 0.0116542969 152.997609 0.0116542969 152.997609 153 0 153"></polygon>
    </defs>
    <g id="Home" stroke="none" stroke-width="1" fill="none" fill-rule="evenodd" opacity="0.702334449">
        <g id="Home-Version-02---Desktops---12-col" transform="translate(-660.000000, -996.000000)">
            <g id="Featured-Products" transform="translate(270.000000, 864.000000)">
                <g id="Item-3_Ads" transform="translate(390.000000, 132.000000)">
                    <g id="Group-3"
                       transform="translate(164.349906, 103.965510) rotate(-18.000000) translate(-164.349906, -103.965510) translate(-138.650094, -42.034490)">
                        <g id="Group-10"
                           transform="translate(218.025952, 76.395014) rotate(36.000000) translate(-218.025952, -76.395014) translate(141.025952, -0.604986)">
                            <g id="Group-3" transform="translate(0.106298, 0.830997)">
                                <mask id="mask-2" fill="white">
                                    <use xlink:href="#path-1"></use>
                                </mask>
                                <g id="Clip-2"></g>
                                <path
                                    d="M147.897211,143.917 L81.1431914,92.0733082 C78.4110059,89.9462496 74.5833164,89.9462496 71.8511309,92.0733082 L5.09711133,143.917 L5.09711133,62.5335504 L46.884041,94.9824 C47.9974746,95.8460133 49.599791,95.643109 50.4631055,94.5296754 C51.3264199,93.4162418 51.1238145,91.8142242 50.0103809,90.9506109 L7.55796094,57.9847887 L25.4972109,44.0462496 L25.4972109,63.7500797 C25.4972109,65.1584566 26.6390332,66.3002789 28.0471113,66.3002789 C29.4554883,66.3002789 30.5970117,65.1581578 30.5970117,63.7500797 L30.5970117,17.8500797 C30.5970117,16.4420016 31.7385352,15.3001793 33.1469121,15.3001793 L119.846812,15.3001793 C121.255189,15.3001793 122.396713,16.4420016 122.396713,17.8500797 L122.396713,63.7500797 C122.396713,65.1584566 123.538236,66.3002789 124.946613,66.3002789 C126.35499,66.3002789 127.496215,65.1581578 127.496215,63.7500797 L127.496215,44.0462496 L145.435764,57.9847887 L102.907441,91.0094801 C101.794904,91.873691 101.593494,93.4757086 102.457406,94.5888434 C103.321318,95.7010816 104.923635,95.9024918 106.036471,95.0388785 L147.897211,62.5338492 L147.897211,143.917 Z M8.27963086,147.90008 L74.9673105,96.0994195 C75.858416,95.396277 77.1158848,95.396277 78.0069902,96.0994195 L144.714691,147.90008 L8.27963086,147.90008 Z M74.9670117,5.63338828 C75.8575195,4.92546445 77.1185742,4.92546445 78.009082,5.63338828 L83.8918125,10.2000797 L69.1019121,10.2000797 L74.9670117,5.63338828 Z M152.997012,58.6499801 C152.997012,58.5964898 152.968922,58.5504703 152.966531,58.4996695 C152.950693,58.3230621 152.91573,58.1485465 152.861941,57.9794098 C152.82668,57.8285016 152.777971,57.6808805 152.716711,57.5383395 C152.643797,57.4032691 152.558631,57.2753707 152.461811,57.1558395 C152.360807,57.0100113 152.244563,56.874941 152.114871,56.7530191 C152.073932,56.7171598 152.056301,56.6687496 152.012971,56.6358785 L127.49741,37.590068 L127.49741,17.8500797 C127.49741,13.6252477 124.072242,10.2000797 119.84741,10.2000797 L92.2129805,10.2000797 L81.1482715,1.60906992 C78.414293,-0.520976953 74.5824199,-0.520976953 71.8484414,1.60906992 L60.7816406,10.2000797 L33.1472109,10.2000797 C28.9223789,10.2000797 25.4972109,13.6249488 25.4972109,17.8500797 L25.4972109,37.590068 L0.984041016,56.6358785 C0.940710938,56.6687496 0.92278125,56.7171598 0.882140625,56.7530191 C0.752449219,56.874941 0.636205078,57.0100113 0.535201172,57.1558395 C0.438380859,57.2753707 0.352916016,57.4032691 0.280300781,57.5383395 C0.218443359,57.6805816 0.169734375,57.8282027 0.135070312,57.9794098 C0.0818789063,58.1455582 0.0469160156,58.3164879 0.0304804688,58.4895094 C0.0304804688,58.5409078 0,58.5863297 0,58.6401188 L0,145.350179 C0.0101601563,146.17106 0.153896484,146.985068 0.425830078,147.75963 C-0.159574219,148.642369 -0.132082031,149.796742 0.494261719,150.650494 C1.12060547,151.504843 2.21312109,151.877781 3.23092969,151.58463 C4.51947656,152.50532 6.06382031,153.000179 7.64760938,153.000179 L145.347609,153.000179 C146.937973,152.996892 148.487098,152.494562 149.77684,151.564609 C149.994387,151.631248 150.220002,151.668004 150.44741,151.67398 C151.378857,151.679658 152.237689,151.171949 152.682346,150.353459 C153.127002,149.535267 153.085465,148.538675 152.57417,147.759929 C152.845207,146.985367 152.988047,146.171359 152.997609,145.350478 L152.997609,58.6499801 L152.997012,58.6499801 Z"
                                    id="Fill-1" fill="#FFFFFF" mask="url(#mask-2)"></path>
                            </g>
                            <path
                                d="M51.345229,33.5037636 L102.25451,33.5037636 C103.660379,33.5037636 104.799869,32.3845792 104.799869,31.0037636 C104.799869,29.6229479 103.660379,28.5037636 102.25451,28.5037636 L51.345229,28.5037636 C49.93936,28.5037636 48.7998693,29.6229479 48.7998693,31.0037636 C48.7998693,32.3845792 49.93936,33.5037636 51.345229,33.5037636"
                                id="Fill-4" fill="#FFFFFF"></path>
                            <path
                                d="M104.679842,46.8146963 C104.679842,45.4338806 103.540643,44.3146963 102.134767,44.3146963 L51.2249166,44.3146963 C49.8190401,44.3146963 48.6798417,45.4341736 48.6798417,46.8146963 C48.6798417,48.1955119 49.8190401,49.3146963 51.2249166,49.3146963 L102.134767,49.3146963 C103.540643,49.3146963 104.679842,48.195219 104.679842,46.8146963"
                                id="Fill-6" fill="#FFFFFF"></path>
                            <path
                                d="M104.159617,62.4126341 C104.159617,61.0318185 103.020418,59.9126341 101.614542,59.9126341 L78.7049899,59.9126341 C77.2991134,59.9126341 76.1596167,61.0318185 76.1596167,62.4126341 C76.1596167,63.7934498 77.2991134,64.9126341 78.7049899,64.9126341 L101.614542,64.9126341 C103.020418,64.9126341 104.159617,63.7931568 104.159617,62.4126341"
                                id="Fill-8" fill="#FFFFFF"></path>
                        </g>
                    </g>
                </g>
            </g>
        </g>
    </g>
</svg>
