<?xml version="1.0" encoding="utf-8"?>
<!-- Generator: Adobe Illustrator 16.0.0, SVG Export Plug-In . SVG Version: 6.00 Build 0)  -->
<!DOCTYPE svg PUBLIC "-//W3C//DTD SVG 1.0//EN" "http://www.w3.org/TR/2001/REC-SVG-20010904/DTD/svg10.dtd">
<svg version="1.0" id="Layer_1" xmlns="http://www.w3.org/2000/svg" x="0px" y="0px"
     width="800px" height="800px" viewBox="0 0 800 800" enable-background="new 0 0 800 800" xml:space="preserve">
<rect x="156.643" y="141.864" fill="#B6DDF5" width="388.3" height="549.48"/>
    <rect x="156.643" y="141.864" fill="none" stroke="#2887C8" stroke-linecap="round" stroke-linejoin="round"
          stroke-miterlimit="10" width="388.3" height="549.48"/>
    <path fill="#FFFFFF" d="M569.541,578.087v83.369c0,4.313-3.496,7.77-7.766,7.77H432.318c-0.078-4.233-3.496-7.652-7.766-7.652
	H277.037c-4.272,0-7.69,3.419-7.77,7.652H139.806c-4.27,0-7.762-3.457-7.762-7.77v-83.369c0-4.267,3.492-7.765,7.762-7.765h421.969
	C566.045,570.322,569.541,573.82,569.541,578.087"/>
    <path fill="none" stroke="#2887C8" stroke-miterlimit="10" d="M569.541,578.087v83.369c0,4.313-3.496,7.77-7.766,7.77H432.318
	c-0.078-4.233-3.496-7.652-7.766-7.652H277.037c-4.272,0-7.69,3.419-7.77,7.652H139.806c-4.27,0-7.762-3.457-7.762-7.77v-83.369
	c0-4.267,3.492-7.765,7.762-7.765h421.969C566.045,570.322,569.541,573.82,569.541,578.087z"/>
    <path fill="#B1D465" d="M547.471,615.889c0,7.299-5.912,13.211-13.213,13.211c-7.297,0-13.213-5.912-13.213-13.211
	c0-7.3,5.916-13.213,13.213-13.213C541.559,602.676,547.471,608.589,547.471,615.889"/>
    <path fill="#0B9D49" d="M543.102,615.889c0,4.883-3.959,8.842-8.844,8.842c-4.883,0-8.844-3.959-8.844-8.842
	c0-4.885,3.961-8.844,8.844-8.844C539.143,607.045,543.102,611.004,543.102,615.889"/>
    <path fill="#B1D465" d="M504.732,615.889c0,7.299-5.912,13.211-13.213,13.211c-7.297,0-13.211-5.912-13.211-13.211
	c0-7.3,5.914-13.213,13.211-13.213C498.82,602.676,504.732,608.589,504.732,615.889"/>
    <path fill="#0B9D49" d="M500.363,615.889c0,4.883-3.959,8.842-8.844,8.842c-4.883,0-8.842-3.959-8.842-8.842
	c0-4.885,3.959-8.844,8.842-8.844C496.404,607.045,500.363,611.004,500.363,615.889"/>
    <path fill="#2887C8" d="M173.139,603.816c0,4.285-3.477,7.765-7.767,7.765s-7.767-3.479-7.767-7.765c0-4.292,3.477-7.77,7.767-7.77
	S173.139,599.524,173.139,603.816 M165.372,619.361c-4.29,0-7.767,3.475-7.767,7.765c0,4.292,3.477,7.77,7.767,7.77
	s7.767-3.478,7.767-7.77C173.139,622.836,169.662,619.361,165.372,619.361"/>
    <path fill="#2887C8" d="M205.515,603.816c0,4.285-3.474,7.765-7.764,7.765c-4.293,0-7.767-3.479-7.767-7.765
	c0-4.292,3.474-7.77,7.767-7.77C202.041,596.047,205.515,599.524,205.515,603.816 M197.75,619.361c-4.293,0-7.767,3.475-7.767,7.765
	c0,4.292,3.474,7.77,7.767,7.77c4.29,0,7.764-3.478,7.764-7.77C205.515,622.836,202.041,619.361,197.75,619.361"/>
    <path fill="#2887C8" d="M237.896,603.816c0,4.285-3.477,7.765-7.767,7.765s-7.767-3.479-7.767-7.765c0-4.292,3.477-7.77,7.767-7.77
	S237.896,599.524,237.896,603.816 M230.129,619.361c-4.29,0-7.767,3.475-7.767,7.765c0,4.292,3.477,7.77,7.767,7.77
	s7.767-3.478,7.767-7.77C237.896,622.836,234.419,619.361,230.129,619.361"/>
    <path fill="#2887C8" d="M270.272,603.816c0,4.285-3.477,7.765-7.767,7.765s-7.767-3.479-7.767-7.765c0-4.292,3.477-7.77,7.767-7.77
	S270.272,599.524,270.272,603.816 M262.505,619.361c-4.29,0-7.767,3.475-7.767,7.765c0,4.292,3.477,7.77,7.767,7.77
	s7.767-3.478,7.767-7.77C270.272,622.836,266.795,619.361,262.505,619.361"/>
    <path fill="#2887C8" d="M302.651,603.816c0,4.285-3.478,7.765-7.767,7.765c-4.29,0-7.767-3.479-7.767-7.765
	c0-4.292,3.477-7.77,7.767-7.77C299.173,596.047,302.651,599.524,302.651,603.816 M294.884,619.361c-4.29,0-7.767,3.475-7.767,7.765
	c0,4.292,3.477,7.77,7.767,7.77c4.29,0,7.767-3.478,7.767-7.77C302.651,622.836,299.173,619.361,294.884,619.361"/>
    <path fill="#2887C8" d="M335.029,603.816c0,4.285-3.477,7.765-7.767,7.765s-7.767-3.479-7.767-7.765c0-4.292,3.477-7.77,7.767-7.77
	S335.029,599.524,335.029,603.816 M327.262,619.361c-4.29,0-7.767,3.475-7.767,7.765c0,4.292,3.477,7.77,7.767,7.77
	s7.767-3.478,7.767-7.77C335.029,622.836,331.552,619.361,327.262,619.361"/>
    <path fill="#2887C8" d="M367.405,603.816c0,4.285-3.477,7.765-7.767,7.765s-7.767-3.479-7.767-7.765c0-4.292,3.477-7.77,7.767-7.77
	S367.405,599.524,367.405,603.816 M359.638,619.361c-4.29,0-7.767,3.475-7.767,7.765c0,4.292,3.477,7.77,7.767,7.77
	s7.767-3.478,7.767-7.77C367.405,622.836,363.928,619.361,359.638,619.361"/>
    <path fill="#FFFFFF" d="M569.541,457.07v83.369c0,4.311-3.496,7.764-7.766,7.764H432.318c-0.078-4.23-3.496-7.648-7.766-7.648
	H277.037c-4.272,0-7.69,3.418-7.77,7.648H139.806c-4.27,0-7.762-3.453-7.762-7.764V457.07c0-4.271,3.492-7.767,7.762-7.767h421.969
	C566.045,449.304,569.541,452.799,569.541,457.07"/>
    <path fill="none" stroke="#2887C8" stroke-miterlimit="10" d="M569.541,457.07v83.369c0,4.311-3.496,7.764-7.766,7.764H432.318
	c-0.078-4.23-3.496-7.648-7.766-7.648H277.037c-4.272,0-7.69,3.418-7.77,7.648H139.806c-4.27,0-7.762-3.453-7.762-7.764V457.07
	c0-4.271,3.492-7.767,7.762-7.767h421.969C566.045,449.304,569.541,452.799,569.541,457.07z"/>
    <path fill="#B1D465" d="M547.471,494.867c0,7.301-5.912,13.214-13.213,13.214c-7.297,0-13.213-5.913-13.213-13.214
	c0-7.298,5.916-13.211,13.213-13.211C541.559,481.656,547.471,487.569,547.471,494.867"/>
    <path fill="#0B9D49" d="M543.102,494.867c0,4.885-3.959,8.844-8.844,8.844c-4.883,0-8.844-3.959-8.844-8.844
	c0-4.882,3.961-8.842,8.844-8.842C539.143,486.025,543.102,489.985,543.102,494.867"/>
    <path fill="#B1D465" d="M504.732,494.867c0,7.301-5.912,13.214-13.213,13.214c-7.297,0-13.211-5.913-13.211-13.214
	c0-7.298,5.914-13.211,13.211-13.211C498.82,481.656,504.732,487.569,504.732,494.867"/>
    <path fill="#0B9D49" d="M500.363,494.867c0,4.885-3.959,8.844-8.844,8.844c-4.883,0-8.842-3.959-8.842-8.844
	c0-4.882,3.959-8.842,8.842-8.842C496.404,486.025,500.363,489.985,500.363,494.867"/>
    <path fill="#2887C8" d="M173.139,482.797c0,4.285-3.477,7.768-7.767,7.768s-7.767-3.482-7.767-7.768
	c0-4.292,3.477-7.767,7.767-7.767S173.139,478.505,173.139,482.797 M165.372,498.342c-4.29,0-7.767,3.475-7.767,7.768
	c0,4.285,3.477,7.767,7.767,7.767s7.767-3.481,7.767-7.767C173.139,501.816,169.662,498.342,165.372,498.342"/>
    <path fill="#2887C8" d="M205.515,482.797c0,4.285-3.474,7.768-7.764,7.768c-4.293,0-7.767-3.482-7.767-7.768
	c0-4.292,3.474-7.767,7.767-7.767C202.041,475.03,205.515,478.505,205.515,482.797 M197.75,498.342
	c-4.293,0-7.767,3.475-7.767,7.768c0,4.285,3.474,7.767,7.767,7.767c4.29,0,7.764-3.481,7.764-7.767
	C205.515,501.816,202.041,498.342,197.75,498.342"/>
    <path fill="#2887C8" d="M237.896,482.797c0,4.285-3.477,7.768-7.767,7.768s-7.767-3.482-7.767-7.768
	c0-4.292,3.477-7.767,7.767-7.767S237.896,478.505,237.896,482.797 M230.129,498.342c-4.29,0-7.767,3.475-7.767,7.768
	c0,4.285,3.477,7.767,7.767,7.767s7.767-3.481,7.767-7.767C237.896,501.816,234.419,498.342,230.129,498.342"/>
    <path fill="#2887C8" d="M270.272,482.797c0,4.285-3.477,7.768-7.767,7.768s-7.767-3.482-7.767-7.768
	c0-4.292,3.477-7.767,7.767-7.767S270.272,478.505,270.272,482.797 M262.505,498.342c-4.29,0-7.767,3.475-7.767,7.768
	c0,4.285,3.477,7.767,7.767,7.767s7.767-3.481,7.767-7.767C270.272,501.816,266.795,498.342,262.505,498.342"/>
    <path fill="#2887C8" d="M302.651,482.797c0,4.285-3.478,7.768-7.767,7.768c-4.29,0-7.767-3.482-7.767-7.768
	c0-4.292,3.477-7.767,7.767-7.767C299.173,475.03,302.651,478.505,302.651,482.797 M294.884,498.342
	c-4.29,0-7.767,3.475-7.767,7.768c0,4.285,3.477,7.767,7.767,7.767c4.29,0,7.767-3.481,7.767-7.767
	C302.651,501.816,299.173,498.342,294.884,498.342"/>
    <path fill="#2887C8" d="M335.029,482.797c0,4.285-3.477,7.768-7.767,7.768s-7.767-3.482-7.767-7.768
	c0-4.292,3.477-7.767,7.767-7.767S335.029,478.505,335.029,482.797 M327.262,498.342c-4.29,0-7.767,3.475-7.767,7.768
	c0,4.285,3.477,7.767,7.767,7.767s7.767-3.481,7.767-7.767C335.029,501.816,331.552,498.342,327.262,498.342"/>
    <path fill="#2887C8" d="M367.405,482.797c0,4.285-3.477,7.768-7.767,7.768s-7.767-3.482-7.767-7.768
	c0-4.292,3.477-7.767,7.767-7.767S367.405,478.505,367.405,482.797 M359.638,498.342c-4.29,0-7.767,3.475-7.767,7.768
	c0,4.285,3.477,7.767,7.767,7.767s7.767-3.481,7.767-7.767C367.405,501.816,363.928,498.342,359.638,498.342"/>
    <path fill="#FFFFFF" d="M569.541,336.049v83.368c0,4.311-3.496,7.768-7.766,7.768H432.318c-0.078-4.233-3.496-7.651-7.766-7.651
	H277.037c-4.272,0-7.69,3.418-7.77,7.651H139.806c-4.27,0-7.762-3.457-7.762-7.768v-83.368c0-4.27,3.492-7.767,7.762-7.767h421.969
	C566.045,328.282,569.541,331.779,569.541,336.049"/>
    <path fill="none" stroke="#2887C8" stroke-miterlimit="10" d="M569.541,336.049v83.368c0,4.311-3.496,7.768-7.766,7.768H432.318
	c-0.078-4.233-3.496-7.651-7.766-7.651H277.037c-4.272,0-7.69,3.418-7.77,7.651H139.806c-4.27,0-7.762-3.457-7.762-7.768v-83.368
	c0-4.27,3.492-7.767,7.762-7.767h421.969C566.045,328.282,569.541,331.779,569.541,336.049z"/>
    <path fill="#B1D465" d="M547.471,373.846c0,7.3-5.912,13.213-13.213,13.213c-7.297,0-13.213-5.913-13.213-13.213
	c0-7.298,5.916-13.211,13.213-13.211C541.559,360.635,547.471,366.548,547.471,373.846"/>
    <path fill="#0B9D49" d="M543.102,373.846c0,4.885-3.959,8.844-8.844,8.844c-4.883,0-8.844-3.959-8.844-8.844
	c0-4.882,3.961-8.842,8.844-8.842C539.143,365.004,543.102,368.963,543.102,373.846"/>
    <path fill="#B1D465" d="M504.732,373.846c0,7.3-5.912,13.213-13.213,13.213c-7.297,0-13.211-5.913-13.211-13.213
	c0-7.298,5.914-13.211,13.211-13.211C498.82,360.635,504.732,366.548,504.732,373.846"/>
    <path fill="#0B9D49" d="M500.363,373.846c0,4.885-3.959,8.844-8.844,8.844c-4.883,0-8.842-3.959-8.842-8.844
	c0-4.882,3.959-8.842,8.842-8.842C496.404,365.004,500.363,368.963,500.363,373.846"/>
    <path fill="#2887C8" d="M173.139,361.773c0,4.287-3.477,7.767-7.767,7.767s-7.767-3.479-7.767-7.767c0-4.29,3.477-7.768,7.767-7.768
	S173.139,357.483,173.139,361.773 M165.372,377.317c-4.29,0-7.767,3.478-7.767,7.768c0,4.287,3.477,7.767,7.767,7.767
	s7.767-3.479,7.767-7.767C173.139,380.795,169.662,377.317,165.372,377.317"/>
    <path fill="#2887C8" d="M205.515,361.773c0,4.287-3.474,7.767-7.764,7.767c-4.293,0-7.767-3.479-7.767-7.767
	c0-4.29,3.474-7.768,7.767-7.768C202.041,354.006,205.515,357.483,205.515,361.773 M197.75,377.317
	c-4.293,0-7.767,3.478-7.767,7.768c0,4.287,3.474,7.767,7.767,7.767c4.29,0,7.764-3.479,7.764-7.767
	C205.515,380.795,202.041,377.317,197.75,377.317"/>
    <path fill="#2887C8" d="M237.896,361.773c0,4.287-3.477,7.767-7.767,7.767s-7.767-3.479-7.767-7.767c0-4.29,3.477-7.768,7.767-7.768
	S237.896,357.483,237.896,361.773 M230.129,377.317c-4.29,0-7.767,3.478-7.767,7.768c0,4.287,3.477,7.767,7.767,7.767
	s7.767-3.479,7.767-7.767C237.896,380.795,234.419,377.317,230.129,377.317"/>
    <path fill="#2887C8" d="M270.272,361.773c0,4.287-3.477,7.767-7.767,7.767s-7.767-3.479-7.767-7.767c0-4.29,3.477-7.768,7.767-7.768
	S270.272,357.483,270.272,361.773 M262.505,377.317c-4.29,0-7.767,3.478-7.767,7.768c0,4.287,3.477,7.767,7.767,7.767
	s7.767-3.479,7.767-7.767C270.272,380.795,266.795,377.317,262.505,377.317"/>
    <path fill="#2887C8" d="M302.651,361.773c0,4.287-3.478,7.767-7.767,7.767c-4.29,0-7.767-3.479-7.767-7.767
	c0-4.29,3.477-7.768,7.767-7.768C299.173,354.006,302.651,357.483,302.651,361.773 M294.884,377.317
	c-4.29,0-7.767,3.478-7.767,7.768c0,4.287,3.477,7.767,7.767,7.767c4.29,0,7.767-3.479,7.767-7.767
	C302.651,380.795,299.173,377.317,294.884,377.317"/>
    <path fill="#2887C8" d="M335.029,361.773c0,4.287-3.477,7.767-7.767,7.767s-7.767-3.479-7.767-7.767c0-4.29,3.477-7.768,7.767-7.768
	S335.029,357.483,335.029,361.773 M327.262,377.317c-4.29,0-7.767,3.478-7.767,7.768c0,4.287,3.477,7.767,7.767,7.767
	s7.767-3.479,7.767-7.767C335.029,380.795,331.552,377.317,327.262,377.317"/>
    <path fill="#2887C8" d="M367.405,361.773c0,4.287-3.477,7.767-7.767,7.767s-7.767-3.479-7.767-7.767c0-4.29,3.477-7.768,7.767-7.768
	S367.405,357.483,367.405,361.773 M359.638,377.317c-4.29,0-7.767,3.478-7.767,7.768c0,4.287,3.477,7.767,7.767,7.767
	s7.767-3.479,7.767-7.767C367.405,380.795,363.928,377.317,359.638,377.317"/>
    <path fill="#FFFFFF" d="M569.541,215.027v83.369c0,4.313-3.496,7.77-7.766,7.77H432.318c-0.078-4.233-3.496-7.651-7.766-7.651
	H277.037c-4.272,0-7.69,3.418-7.77,7.651H139.806c-4.27,0-7.762-3.457-7.762-7.77v-83.369c0-4.267,3.492-7.764,7.762-7.764h421.969
	C566.045,207.263,569.541,210.76,569.541,215.027"/>
    <path fill="none" stroke="#2887C8" stroke-miterlimit="10" d="M569.541,215.027v83.369c0,4.313-3.496,7.77-7.766,7.77H432.318
	c-0.078-4.233-3.496-7.651-7.766-7.651H277.037c-4.272,0-7.69,3.418-7.77,7.651H139.806c-4.27,0-7.762-3.457-7.762-7.77v-83.369
	c0-4.267,3.492-7.764,7.762-7.764h421.969C566.045,207.263,569.541,210.76,569.541,215.027z"/>
    <path fill="#B1D465" d="M547.471,252.829c0,7.298-5.912,13.211-13.213,13.211c-7.297,0-13.213-5.913-13.213-13.211
	c0-7.301,5.916-13.219,13.213-13.219C541.559,239.61,547.471,245.528,547.471,252.829"/>
    <path fill="#0B9D49" d="M543.102,252.829c0,4.882-3.959,8.841-8.844,8.841c-4.883,0-8.844-3.959-8.844-8.841
	c0-4.885,3.961-8.844,8.844-8.844C539.143,243.985,543.102,247.944,543.102,252.829"/>
    <path fill="#B1D465" d="M504.732,252.829c0,7.298-5.912,13.211-13.213,13.211c-7.297,0-13.211-5.913-13.211-13.211
	c0-7.301,5.914-13.219,13.211-13.219C498.82,239.61,504.732,245.528,504.732,252.829"/>
    <path fill="#0B9D49" d="M500.363,252.829c0,4.882-3.959,8.841-8.844,8.841c-4.883,0-8.842-3.959-8.842-8.841
	c0-4.885,3.959-8.844,8.842-8.844C496.404,243.985,500.363,247.944,500.363,252.829"/>
    <path fill="#2887C8" d="M173.139,240.757c0,4.285-3.477,7.764-7.767,7.764s-7.767-3.479-7.767-7.764c0-4.293,3.477-7.77,7.767-7.77
	S173.139,236.464,173.139,240.757 M165.372,256.301c-4.29,0-7.767,3.475-7.767,7.765c0,4.288,3.477,7.77,7.767,7.77
	s7.767-3.482,7.767-7.77C173.139,259.775,169.662,256.301,165.372,256.301"/>
    <path fill="#2887C8" d="M205.515,240.757c0,4.285-3.474,7.764-7.764,7.764c-4.293,0-7.767-3.479-7.767-7.764
	c0-4.293,3.474-7.77,7.767-7.77C202.041,232.987,205.515,236.464,205.515,240.757 M197.75,256.301c-4.293,0-7.767,3.475-7.767,7.765
	c0,4.288,3.474,7.77,7.767,7.77c4.29,0,7.764-3.482,7.764-7.77C205.515,259.775,202.041,256.301,197.75,256.301"/>
    <path fill="#2887C8" d="M237.896,240.757c0,4.285-3.477,7.764-7.767,7.764s-7.767-3.479-7.767-7.764c0-4.293,3.477-7.77,7.767-7.77
	S237.896,236.464,237.896,240.757 M230.129,256.301c-4.29,0-7.767,3.475-7.767,7.765c0,4.288,3.477,7.77,7.767,7.77
	s7.767-3.482,7.767-7.77C237.896,259.775,234.419,256.301,230.129,256.301"/>
    <path fill="#2887C8" d="M270.272,240.757c0,4.285-3.477,7.764-7.767,7.764s-7.767-3.479-7.767-7.764c0-4.293,3.477-7.77,7.767-7.77
	S270.272,236.464,270.272,240.757 M262.505,256.301c-4.29,0-7.767,3.475-7.767,7.765c0,4.288,3.477,7.77,7.767,7.77
	s7.767-3.482,7.767-7.77C270.272,259.775,266.795,256.301,262.505,256.301"/>
    <path fill="#2887C8" d="M302.651,240.757c0,4.285-3.478,7.764-7.767,7.764c-4.29,0-7.767-3.479-7.767-7.764
	c0-4.293,3.477-7.77,7.767-7.77C299.173,232.987,302.651,236.464,302.651,240.757 M294.884,256.301c-4.29,0-7.767,3.475-7.767,7.765
	c0,4.288,3.477,7.77,7.767,7.77c4.29,0,7.767-3.482,7.767-7.77C302.651,259.775,299.173,256.301,294.884,256.301"/>
    <path fill="#2887C8" d="M335.029,240.757c0,4.285-3.477,7.764-7.767,7.764s-7.767-3.479-7.767-7.764c0-4.293,3.477-7.77,7.767-7.77
	S335.029,236.464,335.029,240.757 M327.262,256.301c-4.29,0-7.767,3.475-7.767,7.765c0,4.288,3.477,7.77,7.767,7.77
	s7.767-3.482,7.767-7.77C335.029,259.775,331.552,256.301,327.262,256.301"/>
    <path fill="#2887C8" d="M367.405,240.757c0,4.285-3.477,7.764-7.767,7.764s-7.767-3.479-7.767-7.764c0-4.293,3.477-7.77,7.767-7.77
	S367.405,236.464,367.405,240.757 M359.638,256.301c-4.29,0-7.767,3.475-7.767,7.765c0,4.288,3.477,7.77,7.767,7.77
	s7.767-3.482,7.767-7.77C367.405,259.775,363.928,256.301,359.638,256.301"/>
    <path fill="#FFFFFF" d="M562.1,185.144H139.486c-4.113,0-7.441-3.336-7.441-7.441v-73.261c0-4.107,3.328-7.441,7.441-7.441H562.1
	c4.111,0,7.441,3.334,7.441,7.441v73.261C569.541,181.808,566.211,185.144,562.1,185.144"/>
    <path fill="none" stroke="#2887C8" stroke-miterlimit="10" d="M562.1,185.144H139.486c-4.113,0-7.441-3.336-7.441-7.441v-73.261
	c0-4.107,3.328-7.441,7.441-7.441H562.1c4.111,0,7.441,3.334,7.441,7.441v73.261C569.541,181.808,566.211,185.144,562.1,185.144z"/>
    <path fill="#E4F0CC" d="M272.159,166.335H165.595c-2.754,0-5.005-2.254-5.005-5.006v-38.93c0-2.751,2.251-5.005,5.005-5.005h106.564
	c2.751,0,5.003,2.254,5.003,5.005v38.93C277.162,164.081,274.911,166.335,272.159,166.335"/>
    <path fill="#2887C8" d="M269.329,168.291H168.42c-5.397,0-9.788-4.39-9.788-9.79v-33.273c0-5.398,4.39-9.788,9.788-9.788h100.908
	c5.4,0,9.79,4.39,9.79,9.788v33.273C279.119,163.901,274.729,168.291,269.329,168.291 M168.42,119.35
	c-3.236,0-5.872,2.639-5.872,5.877v33.273c0,3.241,2.636,5.872,5.872,5.872h100.908c3.241,0,5.877-2.631,5.877-5.872v-33.273
	c0-3.239-2.636-5.877-5.877-5.877H168.42z"/>
    <path fill="#0B9D49" d="M179.329,155.208h-3.105c-1.505,0-2.747-1.233-2.747-2.739v-3.11c0-1.508,1.241-2.741,2.747-2.741h3.105
	c1.508,0,2.741,1.233,2.741,2.741v3.11C182.07,153.975,180.836,155.208,179.329,155.208"/>
    <path fill="#0B9D49" d="M200.814,155.208h-3.105c-1.508,0-2.747-1.233-2.747-2.739v-21.206c0-1.508,1.239-2.746,2.747-2.746h3.105
	c1.505,0,2.747,1.238,2.747,2.746v21.206C203.561,153.975,202.32,155.208,200.814,155.208"/>
    <path fill="#0B9D49" d="M222.3,155.208h-3.105c-1.505,0-2.746-1.233-2.746-2.739v-8.331c0-1.51,1.241-2.746,2.746-2.746h3.105
	c1.508,0,2.746,1.236,2.746,2.746v8.331C225.046,153.975,223.808,155.208,222.3,155.208"/>
    <path fill="#0B9D49" d="M265.272,155.208h-3.105c-1.505,0-2.746-1.233-2.746-2.739v-21.206c0-1.508,1.241-2.746,2.746-2.746h3.105
	c1.513,0,2.746,1.238,2.746,2.746v21.206C268.018,153.975,266.785,155.208,265.272,155.208"/>
    <path fill="#0B9D49" d="M243.786,155.208h-3.105c-1.508,0-2.746-1.233-2.746-2.739v-21.206c0-1.508,1.238-2.746,2.746-2.746h3.105
	c1.505,0,2.746,1.238,2.746,2.746v21.206C246.532,153.975,245.292,155.208,243.786,155.208"/>
    <path fill="#B1D465" d="M367.713,141.864c0,7.298-5.914,13.216-13.214,13.216s-13.213-5.918-13.213-13.216
	c0-7.3,5.913-13.214,13.213-13.214S367.713,134.564,367.713,141.864"/>
    <path fill="#0B9D49" d="M363.344,141.864c0,4.882-3.959,8.841-8.844,8.841s-8.844-3.959-8.844-8.841
	c0-4.885,3.959-8.844,8.844-8.844S363.344,136.979,363.344,141.864"/>
    <path fill="#B1D465" d="M324.975,141.864c0,7.298-5.916,13.216-13.214,13.216c-7.3,0-13.213-5.918-13.213-13.216
	c0-7.3,5.913-13.214,13.213-13.214C319.059,128.65,324.975,134.564,324.975,141.864"/>
    <path fill="#0B9D49" d="M320.603,141.864c0,4.882-3.959,8.841-8.844,8.841c-4.882,0-8.844-3.959-8.844-8.841
	c0-4.885,3.962-8.844,8.844-8.844C316.644,133.02,320.603,136.979,320.603,141.864"/>
    <path fill="#2887C8" d="M473.16,158.108h-5.572c-0.828,0-1.514-0.679-1.514-1.513v-31.053c0-0.828,0.686-1.508,1.514-1.508h5.572
	c0.83,0,1.512,0.68,1.512,1.508v31.053C474.672,157.429,473.99,158.108,473.16,158.108"/>
    <path fill="#2887C8" d="M505.371,158.108h-5.572c-0.828,0-1.512-0.679-1.512-1.513v-31.053c0-0.828,0.684-1.508,1.512-1.508h5.572
	c0.832,0,1.508,0.68,1.508,1.508v31.053C506.879,157.429,506.203,158.108,505.371,158.108"/>
    <path fill="#2887C8" d="M537.584,158.108h-5.572c-0.83,0-1.514-0.679-1.514-1.513v-31.053c0-0.828,0.684-1.508,1.514-1.508h5.572
	c0.828,0,1.514,0.68,1.514,1.508v31.053C539.098,157.429,538.412,158.108,537.584,158.108"/>
    <line fill="none" stroke="#2887C8" stroke-linecap="round" stroke-linejoin="round" stroke-miterlimit="10"
          x1="116.916" y1="691.345" x2="629.514" y2="691.345"/>
    <line fill="none" stroke="#2887C8" stroke-linecap="round" stroke-linejoin="round" stroke-miterlimit="10"
          x1="663.553" y1="691.345" x2="691.428" y2="691.345"/>
    <line fill="none" stroke="#2887C8" stroke-linecap="round" stroke-linejoin="round" stroke-miterlimit="10"
          x1="721.824" y1="691.345" x2="724.949" y2="691.345"/>
    <line fill="none" stroke="#2887C8" stroke-linecap="round" stroke-linejoin="round" stroke-miterlimit="10" x1="89.283"
          y1="691.345" x2="61.415" y2="691.345"/>
    <line fill="none" stroke="#2887C8" stroke-linecap="round" stroke-linejoin="round" stroke-miterlimit="10" x1="27.126"
          y1="691.345" x2="24" y2="691.345"/>
    <path fill="#FFFFFF" d="M442.266,598.334c0,0-21.463-47.697,36.736-117.25l34.49-49.543l9.482-20.244V372.62v-44.651l8.834-37.858
	l15.576-11.259l25.029-8.539l13.686-5.908h20.66l27.408,8.883l16.021,21.77l9.947,26.417l2.209,60.645l10.107,40.612l23.752,29.196
	l31.055,48.921l10.143,20.211l6.117,21.657l1.02,23.548l-4.592,13.76l-17.574,74.017l-79.766,48.477l-17.203-7.636l-28.895-3.965
	l-19.369,3.224l-21.232,0.741l-16.307,4.185l-29.215-6.113l-108.459-18.106l1.334-11.905L442.266,598.334z"/>
    <path fill="#E4F2FC" d="M655.781,567.461c-2.945,7.698-15.834,34.453-16.264,42.546c-0.508,10.962-1.41,21.763-4.908,32.215
	c-0.199,0.587-0.236,1.528-0.51,2.2c-0.436,0.31-0.867,0.587-1.299,0.861c-0.156,0-0.314-0.08-0.51-0.151
	c-4.4-2.049-6.836,1.175-9.861,2.902c-22.666,13.083-46.039,17.599-70.791,6.288c-4.127-1.85-8.055-5.7-12.178-1.098
	c-0.551-0.279-1.104-0.554-1.613-0.867c0,0,0.043-0.043,0-0.043c-2.199-4.239-5.732-7.583-8.049-11.862
	c15.123-3.457,19.719-11.865,14.572-26.438c-3.85-11.003-11.354-19.288-20.43-26.204c-5.732-4.323-11.785-8.367-17.129-13.082
	c-3.492-2.988-6.834-6.209-8.838-10.329c0.119-1.418,0.275-2.831,0.471-4.244c3.578,0.587,5.463-0.905,5.262-5.856
	c-0.115-2.867,0.867-5.813,1.418-8.721c3.184-17.047,11.506-32.172,18.422-47.813c8.373-18.895,16.66-37.79,19.92-58.411
	c0.273-1.692,1.455-3.698-1.807-3.929c-0.395-0.043-0.824-0.08-1.217-0.08c0.51-1.805,0.902-3.303,1.176-4.399
	c4.717,3.062,9.432,6.716,14.422,11.116c4.787,4.287,10.76,6.248,18.736,6.207c5.498,0,11.627-1.964,17.283-5.538
	c6.014-3.772,11.195-6.677,16.973-8.839c3.418-1.298,6.4-2.946,8.959-5.031c0.195,0.746,0.152,1.648,0.314,2.2
	c7.184,24.278,16.539,47.694,28.123,70.165c7.389,14.337,14.068,28.832,16.264,44.979c0.314,2.238,1.221,2.631,2.479,2.631
	c0.316,1.733,0.588,3.421,0.824,5.031c-5.855,1.218-9.309,4.323-11.037,9.311C654.484,564.671,652.6,566.794,655.781,567.461"/>
    <path fill="#B6DDF5" d="M662.35,582.642c-0.482-0.813-0.887-1.659-1.293-2.618"/>
    <path fill="#FFFFFF" d="M488.768,558.42c0.893-7.037,2.184-14.078,3.875-20.983c1.559-6.372,3.389-12.698,5.566-18.892
	c0.803-2.314,1.52-4.989,2.68-7.125c16.836-30.387,30.516-76.494,35.506-94.539c0.445,0,0.934,0.041,1.379,0.09
	c3.697,0.268,2.359,2.536,2.049,4.451c-3.695,23.392-13.096,44.823-22.586,66.25c-7.842,17.734-17.287,34.887-20.896,54.224
	c-0.625,3.292-1.738,6.636-1.602,9.888C494.959,557.396,492.822,559.089,488.768,558.42"/>
    <path fill="#FFFFFF" d="M524.318,649.486c2.631,4.856,6.639,8.644,9.133,13.451c-1.334-0.666-2.584-1.42-3.875-2.182
	c0,0-0.041,0-0.041-0.044c-3.613-2.274-7.131-4.721-10.43-7.441c-1.959-1.6-3.83-3.298-5.609-5.121
	c-6.506-6.374-11.943-13.856-16.037-22.099c-1.432-2.851-2.68-5.792-3.744-8.779c-2.365-6.413-3.967-13.14-4.99-19.955
	c-0.139-0.762-0.225-1.472-0.314-2.229c-0.09-0.849-0.18-1.648-0.27-2.492c-0.668-6.198-0.887-12.432-0.668-18.67
	c0.09-3.252,0.316-6.46,0.627-9.668c0.041-0.358,0.041-0.669,0.131-1.025c2.273,4.68,6.061,8.329,10.025,11.716
	c6.059,5.347,12.924,9.937,19.424,14.837c10.293,7.842,18.801,17.242,23.166,29.72C546.688,636.031,541.471,645.563,524.318,649.486
	"/>
    <path fill="#FFFFFF" d="M554.08,424.5c-5.654-4.99-11.004-9.135-16.348-12.611c0.486-1.733,0.707-2.672,0.707-2.672
	c0.139-0.221,0.227-0.446,0.359-0.621c0.533-1.027,1.113-1.964,1.779-2.852c1.16-1.738,2.451-3.256,3.834-4.59
	c0.934-0.892,1.869-1.694,2.852-2.405c15.996-11.988,41.922-5.792,61.615,0.043c1.65,0.487,3.209,0.982,4.721,1.423
	c1.871,0.582,3.609,1.118,5.307,1.605c1.023,0.311,1.959,0.667,2.756,1.157c1.023,0.582,1.916,1.248,2.678,2.094
	c0.131,0.09,0.264,0.227,0.4,0.357c0.625,0.715,1.16,1.518,1.602,2.363c2.582,4.722,2.852,11.135,4.727,16.663
	c2.715,7.926,5.654,15.771,8.727,23.563c2.988,7.665,5.395,18.671,10.342,25.355c15.859,21.38,23.787,50.205,27.705,72.214
	c-1.422,0-2.445-0.441-2.803-2.982c-2.494-18.311-10.066-34.748-18.443-51.013c-13.145-25.48-23.748-52.033-31.9-79.565
	c-0.176-0.626-0.135-1.651-0.355-2.5c-2.898,2.361-6.285,4.238-10.162,5.703c-6.549,2.451-12.43,5.748-19.248,10.023
	c-6.41,4.062-13.363,6.282-19.596,6.282C566.285,431.582,559.516,429.356,554.08,424.5"/>
    <path fill="#FFFFFF" d="M640.557,654.789c0.219,0.087,0.398,0.177,0.576,0.177c-14.877,10.067-32.652,16.927-50.031,20.224
	c-3.162,0.582-6.369,0.982-9.576,1.203c-11.629,0.715-22.143-2.18-32.834-6.28c-4.59-1.782-9.092-3.787-13.412-6.144
	c4.68-5.216,9.131-0.852,13.811,1.243c28.07,12.829,54.574,7.708,80.281-7.131C632.799,656.122,635.568,652.471,640.557,654.789"/>
    <path fill="#FFFFFF" d="M678.781,551.291c0.396,2.454,0.713,4.723,0.979,6.908c-3.207,0.666-5.748,2.492-6.725,6.189
	c-1.029,4.014-3.609,2.765-5.84,2.323c-3.607-0.764-1.471-3.169-0.936-4.858C668.225,556.191,672.143,552.673,678.781,551.291"/>
    <path fill="#FFFFFF" d="M679.984,596.647c-0.449,2.582-1.027,5.123-1.693,7.661c-0.934,3.519-2.055,6.952-3.428,10.334
	c-2.766,6.906-6.465,13.324-10.92,19.158c-3.518,4.639-7.482,8.913-11.895,12.741c-0.844,0.803-1.779,1.56-2.672,2.32
	c-2.186,1.78-4.455,3.519-6.77,5.121c0.311-0.757,0.352-1.828,0.576-2.495c3.965-11.85,4.99-24.102,5.568-36.53
	c0.488-9.18,1.869-18.27,5.215-26.999c2.982-7.841,8.465-13.144,17.014-15.995c0.625,5.749,1.072,11.139,3.166,16.126
	c0.49,1.162,0.979,2.186,1.563,3.167C676.953,593.485,678.381,595.312,679.984,596.647"/>
    <path fill="#E4F2FC" d="M590.328,335.223c8.91-12.496,24.484-12.942,34.211-1.026c9.307,11.439,9.859,30.968,1.293,43.015
	c-0.924,1.267-1.66,1.633-3.188,0.946c-2.795-1.262-5.693-2.341-8.623-3.372c-1.369-0.502-1.344-0.923-0.629-2.136
	c3.85-6.639,4.375-13.624,1.686-20.824c-0.475-1.285-1.137-2.583-1.949-3.69c-3.799-5.347-9.836-5.531-13.916-0.369
	c-3.641,4.59-4.564,9.967-4.354,15.66c0.025,0.71,0.713,1.659-0.709,1.818c-2.77-1.187-5.51-2.375-8.436-3.108
	c-0.924-0.238-1.605-0.554-1.686-1.792C583.342,351.25,584.922,342.736,590.328,335.223"/>
    <path fill="#2887C8" d="M597.254,366.228c-0.037,0.431-0.17,0.892-0.49,1.349c-0.51,0.726-1.309,1.151-2.367,1.271l-0.584,0.067
	l-0.533-0.236c-2.891-1.233-5.426-2.315-8.111-2.998c-0.791-0.2-3.172-0.815-3.361-3.808c-0.787-10.478,1.402-19.173,6.713-26.553
	c4.701-6.595,11.266-10.359,18.475-10.593c7.217-0.271,14.096,3.121,19.27,9.455c9.971,12.257,10.586,32.763,1.381,45.71
	c-0.758,1.039-1.887,2.226-3.678,2.226c-0.65,0-1.391-0.159-2.23-0.536c-2.959-1.339-6.066-2.47-8.451-3.303
	c-0.604-0.221-1.939-0.71-2.432-2.085c-0.492-1.377,0.232-2.61,0.621-3.277c0.057-0.1,0.115-0.2,0.172-0.3 M615.734,374.415
	c2.436,0.882,5.182,1.91,7.822,3.113c0.102,0.231,0.227,0.121,0.482-0.236c7.971-11.213,7.416-29.681-1.221-40.3
	c-4.277-5.231-9.836-7.977-15.678-7.821c-5.797,0.19-11.123,3.292-15.002,8.734v0.005c-4.645,6.449-6.576,14.116-5.908,23.438"/>
    <path fill="#E4F2FC" d="M535.002,340.546c0.34-0.844,0.793-1.685,1.289-2.477c5.852-9.7,15.977-10.598,23.17-1.844
	c5.748,7.011,7.326,15.419,7.117,24.273c-0.025,1.238-0.688,1.584-1.635,1.874c-2.609,0.788-4.982,2.134-7.352,3.452
	c-1.297,0.026-0.816-1-0.871-1.608c-0.156-1.372,0.186-2.795-0.211-4.164c-0.396-3.213-1.373-6.218-3.297-8.854
	c-3.502-4.8-8.383-4.244-10.859,1.287c-2.926,6.511-1.975,17.029,3.979,22.617c-0.629,0.5-1.264,1.057-1.92,1.528
	c-4.322,3.241-4.453,3.297-7.248-1.528C530.732,363.981,530.201,352.406,535.002,340.546"/>
    <path fill="#2887C8" d="M547.855,373.481l1.881,1.764l-2.631,2.098c-0.459,0.372-0.922,0.749-1.398,1.092
	c-2.17,1.631-3.607,2.713-5.205,2.713c-0.24,0-0.486-0.025-0.738-0.077c-1.943-0.4-2.969-2.169-4.523-4.854
	c-6.67-11.526-7.441-23.804-2.305-36.507h0.004c0.395-0.967,0.9-1.928,1.477-2.836c3.219-5.336,7.809-8.503,12.904-8.87
	c4.91-0.364,9.941,2.046,13.861,6.811c5.453,6.659,7.879,14.842,7.621,25.737c-0.068,2.99-2.436,3.713-3.213,3.949
	c-2.295,0.695-4.428,1.882-6.682,3.136l-0.482,0.267l-0.787,0.144c-1.229,0.01-2.014-0.49-2.426-0.931
	c-0.883-0.954-0.771-2.149-0.727-2.651c-0.051-0.651-0.035-1.329-0.02-2c0.02-0.71,0.041-1.318-0.096-1.798
	c-0.455-3.469-1.396-6.028-2.955-8.159 M558.916,362.563c1.746-0.923,3.494-1.746,5.377-2.321c0.031-0.005,0.047-0.005,0.061-0.01
	c0.191-9.71-1.914-16.868-6.609-22.596c-2.963-3.607-6.561-5.426-10.104-5.2c-3.615,0.264-6.965,2.669-9.443,6.78
	c-0.457,0.726-0.844,1.443-1.139,2.164c-4.596,11.365-3.914,22.334,2.027,32.612c0.482,0.823,1.16,2,1.596,2.557
	c0.566-0.326,1.559-1.069,2.395-1.695l0.01-0.005"/>
    <path fill="#2887C8" d="M544.324,364.445c1.07,6.413,5.945,9.995,8.154,10.521c3.072,0.723,3.789-6.052,3.699-12.557
	c-0.08-5.262-3.131-11.596-7.584-10.667C545.508,352.388,543.254,358.035,544.324,364.445"/>
    <path fill="#2887C8" d="M679.717,545.501c-0.67,0.044-1.293,0.09-1.869,0.09c-1.432,0-2.455-0.446-2.811-2.987
	c-2.494-18.312-10.066-34.751-18.445-51.008c-13.145-25.486-23.746-52.039-31.896-79.574c-0.18-0.623-0.139-1.643-0.357-2.492
	c-0.268-1.025-0.98-1.781-3.029-1.071c0.178-0.175,0.311-0.356,0.486-0.531c0.676-0.757,1.383-1.559,2.096-2.32
	c0.311-0.085,0.58-0.131,0.846-0.175c1.52-0.267,2.721-0.226,3.699,0.175c1.783,0.713,2.855,2.541,3.742,5.618
	c8.33,28.999,20.004,56.67,33.994,83.399c7.709,14.7,13.545,30.07,15.902,46.603C682.438,543.537,683.014,545.324,679.717,545.501"
    />
    <path fill="#E4F0CC" d="M767.793,669.174c-0.486,0.405-0.936,0.762-1.424,1.115c-5.838,4.28-12.34,7.352-18.666,10.739
	c-11.408,6.149-22.012,13.229-30.566,23.212c-7.395,8.644-16.348,15.37-27.756,20.134c-1.068,0.356-2.938,0.937-4.896,1.47
	c-11.539,3.298-21.521,0.446-28.291-7.793c-0.578-0.623-1.072-1.249-1.52-1.915c-2.225-3.167-3.518-6.509-4.053-10.026
	c-0.531-2.897-0.531-5.883-0.221-9c0.982-9.176,3.518-17.999,6.281-26.732c3.695-11.668,6.953-23.389,7.221-35.73
	c0-0.264,0-0.577,0.041-0.846c0.131-4.585,0.758-9.086,1.334-13.586c1.031-7.842,2.5-15.549,6.107-22.594
	c0.18-0.44,0.4-0.843,0.621-1.243c1.119-2.005,2.361-3.744,3.703-5.121c1.244,2.229,2.672,4.055,4.271,5.391
	c4.369,3.743,10.072,4.369,17.422,2.005c3.564-1.162,6.861-2.762,9.982-4.77c0.531,0.315,1.066,0.626,1.604,0.982
	c1.779,1.156,3.654,2.139,5.564,2.852c4.057,1.557,8.377,2.139,12.926,1.822c3.469-0.174,6.947-0.355,10.377-0.174
	c0.578,0.044,1.16,0.09,1.695,0.174c3.473,0.405,6.369,1.649,8.729,3.703c2.186,1.82,3.875,4.321,5.127,7.482
	c1.332,3.388,2.225,6.949,2.938,10.514c0.4,2.008,0.846,3.964,1.383,5.882c1.602,5.793,4.053,11.181,8.555,15.681
	c1.648,1.648,2.939,3.697,4.143,5.793c0.311,0.489,0.621,0.936,0.887,1.428C775.771,657.773,774.742,663.52,767.793,669.174"/>
    <path fill="#2887C8" d="M486.586,557.84h0.088v0.18l-0.178-0.221C486.537,557.799,486.537,557.799,486.586,557.84"/>
    <path fill="#2887C8" d="M539.824,421.422c-3.697,23.392-13.098,44.823-22.588,66.25c-7.838,17.734-17.287,34.887-20.896,54.219
	c-0.625,3.297-1.738,6.641-1.6,9.893c0.221,5.613-1.918,7.306-5.973,6.639c-0.672-0.131-1.338-0.315-2.094-0.577
	c1.648-19.605,7.707-37.827,15.906-55.604c11.139-24.059,22.854-47.937,28.646-74.043c0.621-2.672,1.555-5.35,1.555-8.019
	c0.049-3.298,1.607-3.478,3.613-3.298c0.441,0,0.936,0.041,1.381,0.09C541.475,417.238,540.133,419.507,539.824,421.422"/>
    <path fill="#2887C8" d="M634.26,696.602c-1.813,0.912-0.535,5.954-5.174,3.769c-19.809-9.336-40.109-6.107-60.414-2.235
	c-6.994,1.333-13.99,2.672-20.936,4.2c-2.768,0.61-3.871-0.321-4.08-2.967c-0.148-1.844-0.936-3.708,2.072-4.175
	c17.768-2.757,35.166-7.91,53.361-7.946c11.033-0.021,21.721,1.413,31.818,6.071C633.98,694.734,634.313,695.083,634.26,696.602"/>
    <path fill="#2887C8" d="M697.273,526.623c-0.025,6.298-0.701,12.49-2.541,18.56c-0.641,2.113-1.277,3.583-3.766,2.226
	c-1.596-0.858-4.205-0.377-3.268-3.931c7.313-27.624-3.484-49.795-21.457-69.667c-2.463-2.721-3.75-4.832,0.354-7.186
	c1.555-0.893,2.227-0.828,3.564,0.395C685.412,480.967,697.184,506.709,697.273,526.623"/>
    <path fill="#2887C8" d="M725.248,581.943c-2.096-0.046-5.479,0.49-5.348-3.563c0.09-2.452-0.803-4.632-2.631-6.149
	c-9.846-8.241-20.76-14.075-33.945-14.342c-1.25-0.049-2.451,0.09-3.566,0.311c-3.203,0.666-5.744,2.492-6.727,6.189
	c-1.025,4.014-3.607,2.762-5.836,2.321c-3.605-0.762-1.469-3.167-0.934-4.856c1.959-5.662,5.883-9.181,12.52-10.563
	c2.27-0.487,4.811-0.713,7.705-0.713c12.52,1.249,25.086,6.951,35.863,16.49c3.078,2.713,4.857,6.365,4.727,10.604
	C727.029,579.226,728.189,582.033,725.248,581.943"/>
    <path fill="#2887C8" d="M744.477,580.098c-0.689,1.893-0.26,5.574-4.596,3.962c-3.531-1.303-3.4-2.987-2.303-6.083
	c5.953-16.782,4.268-33.435-1.43-49.885c-7.967-22.99-20.488-43.451-35.223-62.662c-9.303-12.134-19.006-23.935-27.594-36.633
	c-10.367-15.377-15.68-32.004-15.527-50.776c0.152-19.853,1.045-39.851-3.701-59.444c-1.33-5.519-2.941-10.908-5.166-16.122
	c-8.248-19.362-22.811-30.676-43.652-33.438c-12.773-1.685-25.545-0.993-38.008,2.605c-21.102,6.083-33.619,20.334-38.705,41.361
	c-2.756,11.465-3.729,23.14-2.811,34.943v16.911c0,9.58,0.029,19.158,0.029,28.737c0.025,1.585,0.051,3.167,0.08,4.751
	c-3.221,20.104-11.676,37.754-24.475,53.593c-16.605,20.511-32.596,41.507-44.346,65.365c-9.297,18.906-14.893,38.647-12.902,60.006
	c0.258,2.705,0.08,4.139-3.164,4.595c-3.604,0.516-3.631-1.402-3.908-3.854c-2.275-20.846,2.705-40.359,11.238-59.109
	c12.158-26.744,29.992-49.814,48.23-72.523c11.799-14.739,19.516-31.135,22.246-49.836c1.818-12.311,0.713-24.676-0.029-37.013
	c-0.838-13.844-1.098-27.666,1.482-41.356c6.725-35.738,28.254-54.665,64.658-56.913c9.043-0.562,18.059-0.382,26.918,1.557
	c22.1,4.826,36.531,18.442,44.734,39.187c6.41,16.247,8.018,33.31,8.322,50.551c0.18,9.426,0.516,18.881,0.311,28.302
	c-0.311,14.078,3.676,26.771,10.934,38.702c8.324,13.639,18.465,25.927,28.248,38.468c16.838,21.584,31.215,44.604,39.65,70.861
	C749.453,545.845,750.557,563.01,744.477,580.098"/>
    <path fill="#E4F0CC" d="M533.176,386.062c2.125-1.726,4.416-3.27,6.6-4.946c3.219-2.477,6.596-4.736,9.553-7.583
	c13.518-13.065,27.219-15.25,43.635-6.044c8.33,4.685,17.084,8.013,25.896,11.416c2.553,0.987,5.025,2.185,7.186,3.913
	c5.104,4.149,6.359,9.657,3.297,15.485c-3.541,6.785-9.395,11.203-16.338,13.814c-7.105,2.631-13.492,6.359-19.824,10.323
	c-5.883,3.698-12.293,5.829-18.15,5.747c-7.742,0-13.752-1.729-18.732-6.173c-5.451-4.847-11.148-9.341-17.293-13.306
	c-3.99-2.61-7.295-6.066-8.994-10.698C528.229,393.221,529.236,389.257,533.176,386.062"/>
    <path fill="#2887C8" d="M628.127,380.215c-0.672-0.534-1.379-1.069-2.186-1.559c-0.625-0.356-1.248-0.757-1.963-1.113
	c-1.154-0.625-2.492-1.159-3.918-1.738l-1.023-0.405c-2.406-0.933-4.768-1.826-7.086-2.762c-0.041,0-0.086-0.041-0.131-0.041
	c-0.715-0.269-1.381-0.582-2.094-0.846c-4.811-1.959-9.49-4.1-14.121-6.595c-0.357-0.179-0.672-0.4-1.023-0.577
	c-0.18-0.09-0.406-0.226-0.586-0.315c-0.219-0.131-0.439-0.221-0.619-0.311c-3.791-2.049-7.441-3.518-11.006-4.41
	c-0.756-0.18-1.473-0.359-2.227-0.441c-4.453-0.852-8.732-0.806-12.918,0.13c-0.764,0.131-1.473,0.356-2.234,0.577
	c-3.34,0.982-6.59,2.541-9.84,4.721c-0.762,0.446-1.471,0.982-2.186,1.472c-2.006,1.516-4.014,3.208-5.973,5.126
	c-0.533,0.487-1.068,0.979-1.6,1.426c-0.227,0.221-0.492,0.441-0.713,0.621c-0.313,0.27-0.67,0.536-0.984,0.805
	c-1.023,0.844-2.137,1.649-3.25,2.493c-0.936,0.667-1.781,1.341-2.674,1.959c0,0.049-0.041,0.049-0.041,0.049
	c-0.584,0.441-1.162,0.843-1.738,1.29c-0.268,0.22-0.582,0.446-0.893,0.669c-1.334,0.982-2.721,1.956-4.014,3.028
	c-3.469,2.805-5.256,6.239-5.297,10.11c0,0.446,0.041,0.939,0.041,1.475c0.18,1.333,0.494,2.667,1.027,4.098
	c1.824,4.897,5.301,9.042,10.338,12.383c0.176,0.136,0.355,0.226,0.535,0.356c5.342,3.477,10.693,7.621,16.348,12.608
	c5.436,4.859,12.205,7.085,21.254,7.039c6.232,0,13.186-2.224,19.6-6.282c6.814-4.275,12.697-7.572,19.244-10.023
	c3.877-1.467,7.264-3.342,10.164-5.701c0.709-0.533,1.379-1.112,2-1.736c0.758-0.669,1.428-1.428,2.096-2.184
	c1.469-1.739,2.807-3.652,3.875-5.747C636.055,392.731,634.496,385.385,628.127,380.215 M575.285,424.854
	c-7.393-0.088-12.607-1.6-16.793-5.344c-6.061-5.391-11.854-9.847-17.688-13.586c-0.09-0.049-0.137-0.095-0.227-0.18
	c-3.65-2.451-6.191-5.436-7.436-8.913c-0.445-1.159-0.625-2.185-0.625-3.118c0-1.959,0.893-3.562,2.764-5.077
	c1.199-0.977,2.492-1.918,3.744-2.811c0.934-0.71,1.869-1.377,2.803-2.049c0.846-0.667,1.691-1.333,2.584-1.959
	c1.916-1.423,3.918-2.897,5.834-4.59c0.445-0.397,0.941-0.844,1.383-1.29c0.85-0.805,1.648-1.562,2.494-2.274
	c6.555-5.657,13.104-8.418,19.961-8.418c5.436,0,11.139,1.739,17.24,5.167c1.869,1.023,3.744,2.005,5.662,2.941
	c3.16,1.559,6.369,2.987,9.578,4.274c3.383,1.428,6.77,2.721,10.066,4.013l1.023,0.356c2.715,1.067,4.723,2.136,6.283,3.429
	c3.922,3.167,4.721,6.995,2.451,11.318c-1.203,2.362-2.811,4.451-4.727,6.234c-2.625,2.541-5.924,4.546-9.797,6.018
	c-7.486,2.762-14.26,6.727-20.453,10.601C586.025,422.986,580.322,424.854,575.285,424.854"/>
    <path fill="#2887C8" d="M624.139,395.098c-5.666,1.726-10.482,5.162-15.539,8.138c-6.09,3.594-12.32,6.976-19.025,9.396
	c-13.996,5.107-26.77,2.687-38.609-5.988c-4.154-3.035-7.719-6.731-11.627-10.031c-1.57-1.3-0.189-2.792-0.988-4.551
	c3.117,0.877,4.553,2.715,6.203,4.231c4.496,4.203,9.152,8.221,14.637,11.178c11.863,6.385,23.549,4.631,35.174-0.746
	c7.131-3.298,13.732-7.585,20.518-11.496c2.631-1.487,5.27-2.977,8.246-3.697c0.691-0.156,1.918-0.826,1.994,0.615
	C625.152,393.101,626.162,394.482,624.139,395.098"/>
    <path fill="#E4F0CC" d="M546.709,700.832c-2.781,11.811-11.51,19.193-24.633,20.561c-2.045,0.226-4.055,0.346-5.227,0.423
	c-12.604-0.197-23.689-3.183-33.955-8.58c-11.938-6.239-24.664-8.975-37.844-10.468c-7.285-0.817-14.643-1.264-21.778-3.107
	c-0.593-0.174-1.192-0.346-1.787-0.521c-8.726-2.736-11.909-7.808-10.591-16.878c0.447-2.982,0.847-6.018,2.037-8.779
	c3.43-7.952,2.784-16.061,1.266-24.237c-0.666-3.654-1.166-7.362-1.191-11.091c-0.049-7.757,3.381-13.424,10.467-16.68
	c3.182-1.47,6.537-2.611,9.893-3.729c6.518-2.142,11.811-5.867,15.814-11.465c2.535-3.528,5.098-7.031,7.908-10.339
	c7.977-9.326,18.221-10.121,27.744-2.265c6.686,5.498,11.285,12.632,15.439,20.088c2.41,4.301,4.846,8.629,6.785,13.176
	c4.947,11.639,12.482,21.531,20.385,31.204c5.945,7.259,11.686,14.67,16.111,22.993
	C546.836,687.383,548.375,693.793,546.709,700.832"/>
    <path fill="#2887C8" d="M537.063,668.953c0.979-2.541-1.693-2.631-2.631-3.918c-0.268-0.713-0.576-1.385-0.977-2.051
	c0,0,0.041-0.044,0-0.044c-2.5-4.811-6.508-8.601-9.139-13.454c17.152-3.924,22.367-13.455,16.535-29.986
	c-4.371-12.473-12.879-21.873-23.172-29.712c-6.502-4.905-13.365-9.49-19.426-14.837c-3.959-3.388-7.75-7.041-10.02-11.716
	c-0.805-1.698-1.428-3.478-1.787-5.437l0.227,0.221c-0.047-0.046-0.088-0.131-0.088-0.177c-4.412-7.085-4.191-14.973-3.072-22.635
	c2.488-16.796,8.863-32.21,17.104-46.913c1.381-2.451,2.186-3.918-0.977-5.923c-3.744-2.364-4.234,0.446-5.393,2.451
	c-5.346,9.265-9.49,19.111-12.877,29.269c-8.824,26.332-7.617,43.751,6.102,59.831c4.727,5.528,10.92,10.916,18.758,16.488
	c7.045,4.989,13.99,10.067,19.469,16.837c4.459,5.615,8.066,11.721,9.625,18.801c1.023,4.856,0.758,9.4-3.207,13.413
	c-2.941,2.982-8.555-0.131-10.473,5.126c-0.486,1.375-1.244,1.154-7.842-7.936c-2.492-3.383-4.896-6.859-7.082-10.514
	c-0.09-0.131-0.174-0.265-0.27-0.4c-3.113-5.347-5.875-10.869-8.727-16.352c-2.988-5.703-6.02-11.401-9.58-16.796
	c-0.045-0.131-0.139-0.221-0.225-0.356c-3.518-5.298-7.396-10.113-12.783-13.545c-6.775-4.364-13.145-5.566-18.979-3.697
	c-4.102,1.292-7.979,4.103-11.584,8.467c-1.918,2.27-3.836,4.459-5.438,6.906c-4.811,7.352-11.229,11.895-19.646,14.656
	c-17.509,5.839-21.919,13.676-18.801,31.945c1.557,9.4,1.65,18.442-1.605,27.797c-5.169,14.837-0.49,24.063,13.098,27.938
	c1.38,0.358,2.809,0.71,4.37,0.977c1.022,0.226,2.046,0.315,3.118,0.446c21.068,2.229,41.746,5.657,60.943,15.771
	c8.33,4.369,17.955,5.661,27.445,5.571c11.941-0.046,21.338-4.767,27-12.031c6.148-7.792,7.928-18.711,3.828-30.068
	C538.396,671.895,537.779,670.426,537.063,668.953 M530.734,696.889c-0.803,1.289-1.648,2.451-2.625,3.475
	c-5.352,5.836-12.744,7.615-19.293,8.021c-11.141-0.448-20.361-2.008-28.512-6.328c-17.242-9.265-35.865-12.473-54.932-14.391
	c-2.898-0.311-5.84-0.757-8.691-1.334c-2.314-0.492-4.363-1.071-6.012-1.784c-6.419-2.762-8.068-7.485-5.127-15.998
	c3.924-11.357,3.834-22.406,2.055-34.033c-2.098-13.944,0.441-18.047,13.805-22.452c9.984-3.257,17.955-8.69,23.658-17.555
	c1.025-1.603,2.275-3.031,3.432-4.501c2.719-3.341,5.438-5.746,8.244-7.125c6.059-3.031,12.342-1.162,19.111,5.697
	c0.135,0.136,0.266,0.271,0.355,0.402c7.086,7.306,11.762,16.439,16.086,25.439c0.441,0.982,0.934,1.916,1.424,2.852
	c5.482,11.05,12.121,21.253,19.783,30.874c0.576,0.715,1.152,1.472,1.738,2.185c5.344,6.508,10.375,13.145,14.607,20.408
	C534.922,679.38,536.213,688.111,530.734,696.889"/>
    <path fill="#2887C8" d="M770.426,648.594c-0.625-2.495-2.053-5.211-4.232-8.152c-3.209-4.32-6.018-8.73-8.465-13.321
	c-4.145-7.53-7.264-15.462-9.449-23.88c-0.396-1.29-0.713-2.583-1.023-3.921c-0.27-1.426-0.936-2.765-1.648-4.057
	c0-0.041-0.043-0.041-0.043-0.087c-5.791-10.558-22.854-13.676-31.945-5.883c-2.006,1.695-4.055,3.257-6.24,4.59
	c-3.117,2.005-6.41,3.607-9.977,4.767c-7.352,2.364-13.055,1.739-17.418-2.005c-1.609-1.333-3.031-3.162-4.275-5.388
	c-0.584-0.981-1.072-2.005-1.559-3.167c-2.098-4.989-2.545-10.377-3.168-16.126c-8.551,2.852-14.033,8.154-17.016,15.995
	c-3.346,8.729-4.727,17.819-5.213,26.997c-0.58,12.431-1.604,24.683-5.57,36.535c-0.225,0.661-0.266,1.733-0.582,2.495
	c-0.221,0.71-0.666,1.156-1.469,0.977c-0.18,0-0.354-0.09-0.58-0.18c-4.986-2.315-7.748,1.342-11.18,3.301
	c-25.703,14.834-52.215,19.96-80.285,7.126c-4.674-2.09-9.133-6.46-13.813-1.246c-0.262,0.31-0.576,0.666-0.846,1.071
	c-0.088,2,2.008,2.449,2.631,3.918c2.049-1.559,3.521,0.137,5.129,0.982c17.906,9.531,36.797,11.67,56.621,7.842
	c15.014-2.941,28.422-9.4,41.922-18.404c-1.779,8.111-3.785,15.104-4.77,22.319c-1.244,8.824,0.627,16.886,4.635,23.351
	c3.652,5.877,9.049,10.423,15.598,13.008c5.875,2.315,12.697,2.982,19.865,1.513c13.77-2.764,24.949-9.937,33.994-20.142
	c9.756-11.091,21.432-19.149,34.707-25.343c5.125-2.364,10.115-5.036,15.014-7.888C768.549,661.025,772.338,655.589,770.426,648.594
	 M750.465,662.981c-18.623,9.09-35.82,19.517-49.766,35.376c-7.441,8.419-17.596,13.501-29.18,14.526
	c-8.422,0.754-15.73-1.872-20.898-6.774c-0.041-0.044-0.131-0.09-0.178-0.134c-5.877-5.569-8.906-14.121-7.395-23.878
	c1.918-12.121,5.881-23.747,9.002-35.553c0.221-0.713,0.398-1.429,0.578-2.142c3.518-14.124,2.225-28.822,5.035-43.033
	c1.244-6.107,2.447-12.298,7.086-17.198c1.82,3.918,3.25,7.888,5.297,11.406c0.447,0.71,0.846,1.423,1.338,2.049
	c2.004,2.852,4.324,5.077,6.908,6.685c5.209,3.252,11.578,3.965,18.623,2.003c6.459-1.738,12.338-4.68,17.639-8.598
	c1.113-0.803,2.186-1.649,3.207-2.541c6.775-5.703,17.869-3.388,21.783,4.363c0.27,0.403,0.449,0.803,0.627,1.249
	c0.756,1.916,1.381,3.88,1.914,5.883c0.848,2.808,1.563,5.613,2.229,8.505c1.916,8.111,5.527,15.242,10.961,21.612
	C767.129,650.819,766.59,655.188,750.465,662.981"/>
    <path fill="#2887C8" d="M614.221,361.876c0,6.852-3.342,12.403-7.461,12.403s-7.457-5.552-7.457-12.403
	c0-6.849,3.338-12.406,7.457-12.406S614.221,355.027,614.221,361.876"/>
</svg>
