<?xml version="1.0" encoding="utf-8"?>
<!-- Generator: Adobe Illustrator 16.0.0, SVG Export Plug-In . SVG Version: 6.00 Build 0)  -->
<!DOCTYPE svg PUBLIC "-//W3C//DTD SVG 1.0//EN" "http://www.w3.org/TR/2001/REC-SVG-20010904/DTD/svg10.dtd">
<svg version="1.0" id="Layer_1" xmlns="http://www.w3.org/2000/svg" x="0px" y="0px"
     width="800px" height="800px" viewBox="0 0 800 800" enable-background="new 0 0 800 800" xml:space="preserve">
<rect x="165.927" y="118.019" fill="#B6DDF5" width="418.003" height="591.515"/>
    <rect x="165.927" y="118.019" fill="none" stroke="#2887C8" stroke-width="1.2" stroke-linecap="round"
          stroke-linejoin="round" stroke-miterlimit="10" width="418.003" height="591.515"/>
    <path fill="#FFFFFF" d="M610.407,587.61v89.749c0,4.638-3.754,8.357-8.358,8.357H462.688c-0.082-4.554-3.765-8.236-8.357-8.236
	H295.527c-4.596,0-8.276,3.683-8.361,8.236H147.802c-4.596,0-8.356-3.72-8.356-8.357V587.61c0-4.593,3.76-8.358,8.356-8.358h454.247
	C606.653,579.252,610.407,583.018,610.407,587.61"/>
    <path fill="none" stroke="#2887C8" stroke-width="0.945" stroke-miterlimit="10" d="M610.407,587.61v89.749
	c0,4.638-3.754,8.357-8.358,8.357H462.688c-0.082-4.554-3.765-8.236-8.357-8.236H295.527c-4.596,0-8.276,3.683-8.361,8.236H147.802
	c-4.596,0-8.356-3.72-8.356-8.357V587.61c0-4.593,3.76-8.358,8.356-8.358h454.247C606.653,579.252,610.407,583.018,610.407,587.61z"
    />
    <path fill="#B1D465" d="M586.651,628.302c0,7.858-6.366,14.224-14.228,14.224c-7.851,0-14.221-6.365-14.221-14.224
	c0-7.856,6.37-14.222,14.221-14.222C580.285,614.08,586.651,620.445,586.651,628.302"/>
    <path fill="#0B9D49" d="M581.947,628.302c0,5.258-4.262,9.521-9.523,9.521c-5.255,0-9.518-4.263-9.518-9.521
	c0-5.256,4.263-9.519,9.518-9.519C577.686,618.783,581.947,623.046,581.947,628.302"/>
    <path fill="#B1D465" d="M540.647,628.302c0,7.858-6.372,14.224-14.229,14.224c-7.855,0-14.221-6.365-14.221-14.224
	c0-7.856,6.365-14.222,14.221-14.222C534.275,614.08,540.647,620.445,540.647,628.302"/>
    <path fill="#0B9D49" d="M535.942,628.302c0,5.258-4.267,9.521-9.523,9.521c-5.261,0-9.522-4.263-9.522-9.521
	c0-5.256,4.262-9.519,9.522-9.519C531.676,618.783,535.942,623.046,535.942,628.302"/>
    <path fill="#2887C8" d="M183.685,615.308c0,4.613-3.744,8.358-8.361,8.358c-4.619,0-8.361-3.745-8.361-8.358
	c0-4.62,3.743-8.363,8.361-8.363C179.941,606.944,183.685,610.688,183.685,615.308 M175.323,632.042
	c-4.619,0-8.361,3.74-8.361,8.358s3.743,8.361,8.361,8.361c4.618,0,8.361-3.743,8.361-8.361S179.941,632.042,175.323,632.042"/>
    <path fill="#2887C8" d="M218.537,615.308c0,4.613-3.74,8.358-8.358,8.358c-4.621,0-8.361-3.745-8.361-8.358
	c0-4.62,3.74-8.363,8.361-8.363C214.797,606.944,218.537,610.688,218.537,615.308 M210.179,632.042c-4.621,0-8.361,3.74-8.361,8.358
	s3.74,8.361,8.361,8.361c4.618,0,8.358-3.743,8.358-8.361S214.797,632.042,210.179,632.042"/>
    <path fill="#2887C8" d="M253.393,615.308c0,4.613-3.743,8.358-8.361,8.358s-8.361-3.745-8.361-8.358c0-4.62,3.743-8.363,8.361-8.363
	S253.393,610.688,253.393,615.308 M245.031,632.042c-4.618,0-8.361,3.74-8.361,8.358s3.743,8.361,8.361,8.361
	s8.361-3.743,8.361-8.361S249.649,632.042,245.031,632.042"/>
    <path fill="#2887C8" d="M288.248,615.308c0,4.613-3.743,8.358-8.361,8.358c-4.618,0-8.361-3.745-8.361-8.358
	c0-4.62,3.743-8.363,8.361-8.363C284.505,606.944,288.248,610.688,288.248,615.308 M279.886,632.042
	c-4.618,0-8.361,3.74-8.361,8.358s3.743,8.361,8.361,8.361c4.619,0,8.361-3.743,8.361-8.361S284.505,632.042,279.886,632.042"/>
    <path fill="#2887C8" d="M323.1,615.308c0,4.613-3.74,8.358-8.358,8.358c-4.621,0-8.361-3.745-8.361-8.358
	c0-4.62,3.74-8.363,8.361-8.363C319.36,606.944,323.1,610.688,323.1,615.308 M314.742,632.042c-4.621,0-8.361,3.74-8.361,8.358
	s3.74,8.361,8.361,8.361c4.618,0,8.358-3.743,8.358-8.361S319.36,632.042,314.742,632.042"/>
    <path fill="#2887C8" d="M357.959,615.308c0,4.613-3.743,8.358-8.361,8.358c-4.619,0-8.361-3.745-8.361-8.358
	c0-4.62,3.743-8.363,8.361-8.363C354.216,606.944,357.959,610.688,357.959,615.308 M349.598,632.042
	c-4.619,0-8.361,3.74-8.361,8.358s3.743,8.361,8.361,8.361c4.618,0,8.361-3.743,8.361-8.361S354.216,632.042,349.598,632.042"/>
    <path fill="#2887C8" d="M392.812,615.308c0,4.613-3.743,8.358-8.361,8.358c-4.619,0-8.361-3.745-8.361-8.358
	c0-4.62,3.743-8.363,8.361-8.363C389.068,606.944,392.812,610.688,392.812,615.308 M384.45,632.042c-4.619,0-8.361,3.74-8.361,8.358
	s3.743,8.361,8.361,8.361c4.618,0,8.361-3.743,8.361-8.361S389.068,632.042,384.45,632.042"/>
    <path fill="#FFFFFF" d="M610.407,457.337v89.746c0,4.634-3.754,8.361-8.358,8.361H462.688c-0.082-4.558-3.765-8.237-8.357-8.237
	H295.527c-4.596,0-8.276,3.68-8.361,8.237H147.802c-4.596,0-8.356-3.728-8.356-8.361v-89.746c0-4.596,3.76-8.361,8.356-8.361
	h454.247C606.653,448.976,610.407,452.741,610.407,457.337"/>
    <path fill="none" stroke="#2887C8" stroke-width="0.945" stroke-miterlimit="10" d="M610.407,457.337v89.746
	c0,4.634-3.754,8.361-8.358,8.361H462.688c-0.082-4.558-3.765-8.237-8.357-8.237H295.527c-4.596,0-8.276,3.68-8.361,8.237H147.802
	c-4.596,0-8.356-3.728-8.356-8.361v-89.746c0-4.596,3.76-8.361,8.356-8.361h454.247
	C606.653,448.976,610.407,452.741,610.407,457.337z"/>
    <path fill="#B1D465" d="M586.651,498.025c0,7.855-6.366,14.222-14.228,14.222c-7.851,0-14.221-6.366-14.221-14.222
	c0-7.859,6.37-14.225,14.221-14.225C580.285,483.801,586.651,490.166,586.651,498.025"/>
    <path fill="#0B9D49" d="M581.947,498.025c0,5.256-4.262,9.517-9.523,9.517c-5.255,0-9.518-4.261-9.518-9.517
	c0-5.259,4.263-9.521,9.518-9.521C577.686,488.504,581.947,492.767,581.947,498.025"/>
    <path fill="#B1D465" d="M540.647,498.025c0,7.855-6.372,14.222-14.229,14.222c-7.855,0-14.221-6.366-14.221-14.222
	c0-7.859,6.365-14.225,14.221-14.225C534.275,483.801,540.647,490.166,540.647,498.025"/>
    <path fill="#0B9D49" d="M535.942,498.025c0,5.256-4.267,9.517-9.523,9.517c-5.261,0-9.522-4.261-9.522-9.517
	c0-5.259,4.262-9.521,9.522-9.521C531.676,488.504,535.942,492.767,535.942,498.025"/>
    <path fill="#2887C8" d="M183.685,485.029c0,4.612-3.744,8.361-8.361,8.361c-4.619,0-8.361-3.749-8.361-8.361
	c0-4.621,3.743-8.361,8.361-8.361C179.941,476.668,183.685,480.408,183.685,485.029 M175.323,501.763
	c-4.619,0-8.361,3.743-8.361,8.361c0,4.617,3.743,8.361,8.361,8.361c4.618,0,8.361-3.744,8.361-8.361
	C183.685,505.506,179.941,501.763,175.323,501.763"/>
    <path fill="#2887C8" d="M218.537,485.029c0,4.612-3.74,8.361-8.358,8.361c-4.621,0-8.361-3.749-8.361-8.361
	c0-4.621,3.74-8.361,8.361-8.361C214.797,476.668,218.537,480.408,218.537,485.029 M210.179,501.763
	c-4.621,0-8.361,3.743-8.361,8.361c0,4.617,3.74,8.361,8.361,8.361c4.618,0,8.358-3.744,8.358-8.361
	C218.537,505.506,214.797,501.763,210.179,501.763"/>
    <path fill="#2887C8" d="M253.393,485.029c0,4.612-3.743,8.361-8.361,8.361s-8.361-3.749-8.361-8.361
	c0-4.621,3.743-8.361,8.361-8.361S253.393,480.408,253.393,485.029 M245.031,501.763c-4.618,0-8.361,3.743-8.361,8.361
	c0,4.617,3.743,8.361,8.361,8.361s8.361-3.744,8.361-8.361C253.393,505.506,249.649,501.763,245.031,501.763"/>
    <path fill="#2887C8" d="M288.248,485.029c0,4.612-3.743,8.361-8.361,8.361c-4.618,0-8.361-3.749-8.361-8.361
	c0-4.621,3.743-8.361,8.361-8.361C284.505,476.668,288.248,480.408,288.248,485.029 M279.886,501.763
	c-4.618,0-8.361,3.743-8.361,8.361c0,4.617,3.743,8.361,8.361,8.361c4.619,0,8.361-3.744,8.361-8.361
	C288.248,505.506,284.505,501.763,279.886,501.763"/>
    <path fill="#2887C8" d="M323.1,485.029c0,4.612-3.74,8.361-8.358,8.361c-4.621,0-8.361-3.749-8.361-8.361
	c0-4.621,3.74-8.361,8.361-8.361C319.36,476.668,323.1,480.408,323.1,485.029 M314.742,501.763c-4.621,0-8.361,3.743-8.361,8.361
	c0,4.617,3.74,8.361,8.361,8.361c4.618,0,8.358-3.744,8.358-8.361C323.1,505.506,319.36,501.763,314.742,501.763"/>
    <path fill="#2887C8" d="M357.959,485.029c0,4.612-3.743,8.361-8.361,8.361c-4.619,0-8.361-3.749-8.361-8.361
	c0-4.621,3.743-8.361,8.361-8.361C354.216,476.668,357.959,480.408,357.959,485.029 M349.598,501.763
	c-4.619,0-8.361,3.743-8.361,8.361c0,4.617,3.743,8.361,8.361,8.361c4.618,0,8.361-3.744,8.361-8.361
	C357.959,505.506,354.216,501.763,349.598,501.763"/>
    <path fill="#2887C8" d="M392.812,485.029c0,4.612-3.743,8.361-8.361,8.361c-4.619,0-8.361-3.749-8.361-8.361
	c0-4.621,3.743-8.361,8.361-8.361C389.068,476.668,392.812,480.408,392.812,485.029 M384.45,501.763
	c-4.619,0-8.361,3.743-8.361,8.361c0,4.617,3.743,8.361,8.361,8.361c4.618,0,8.361-3.744,8.361-8.361
	C392.812,505.506,389.068,501.763,384.45,501.763"/>
    <path fill="#FFFFFF" d="M610.407,327.055v89.746c0,4.643-3.754,8.361-8.358,8.361H462.688c-0.082-4.555-3.765-8.237-8.357-8.237
	H295.527c-4.596,0-8.276,3.683-8.361,8.237H147.802c-4.596,0-8.356-3.719-8.356-8.361v-89.746c0-4.596,3.76-8.361,8.356-8.361
	h454.247C606.653,318.693,610.407,322.459,610.407,327.055"/>
    <path fill="none" stroke="#2887C8" stroke-width="0.945" stroke-miterlimit="10" d="M610.407,327.055v89.746
	c0,4.643-3.754,8.361-8.358,8.361H462.688c-0.082-4.555-3.765-8.237-8.357-8.237H295.527c-4.596,0-8.276,3.683-8.361,8.237H147.802
	c-4.596,0-8.356-3.719-8.356-8.361v-89.746c0-4.596,3.76-8.361,8.356-8.361h454.247
	C606.653,318.693,610.407,322.459,610.407,327.055z"/>
    <path fill="#B1D465" d="M586.651,367.746c0,7.859-6.366,14.225-14.228,14.225c-7.851,0-14.221-6.366-14.221-14.225
	c0-7.856,6.37-14.222,14.221-14.222C580.285,353.524,586.651,359.89,586.651,367.746"/>
    <path fill="#0B9D49" d="M581.947,367.746c0,5.259-4.262,9.521-9.523,9.521c-5.255,0-9.518-4.262-9.518-9.521
	c0-5.256,4.263-9.518,9.518-9.518C577.686,358.228,581.947,362.49,581.947,367.746"/>
    <path fill="#B1D465" d="M540.647,367.746c0,7.859-6.372,14.225-14.229,14.225c-7.855,0-14.221-6.366-14.221-14.225
	c0-7.856,6.365-14.222,14.221-14.222C534.275,353.524,540.647,359.89,540.647,367.746"/>
    <path fill="#0B9D49" d="M535.942,367.746c0,5.259-4.267,9.521-9.523,9.521c-5.261,0-9.522-4.262-9.522-9.521
	c0-5.256,4.262-9.518,9.522-9.518C531.676,358.228,535.942,362.49,535.942,367.746"/>
    <path fill="#2887C8" d="M183.685,354.75c0,4.616-3.744,8.364-8.361,8.364c-4.619,0-8.361-3.749-8.361-8.364
	c0-4.618,3.743-8.358,8.361-8.358C179.941,346.392,183.685,350.132,183.685,354.75 M175.323,371.483
	c-4.619,0-8.361,3.743-8.361,8.364c0,4.612,3.743,8.358,8.361,8.358c4.618,0,8.361-3.746,8.361-8.358
	C183.685,375.226,179.941,371.483,175.323,371.483"/>
    <path fill="#2887C8" d="M218.537,354.75c0,4.616-3.74,8.364-8.358,8.364c-4.621,0-8.361-3.749-8.361-8.364
	c0-4.618,3.74-8.358,8.361-8.358C214.797,346.392,218.537,350.132,218.537,354.75 M210.179,371.483
	c-4.621,0-8.361,3.743-8.361,8.364c0,4.612,3.74,8.358,8.361,8.358c4.618,0,8.358-3.746,8.358-8.358
	C218.537,375.226,214.797,371.483,210.179,371.483"/>
    <path fill="#2887C8" d="M253.393,354.75c0,4.616-3.743,8.364-8.361,8.364s-8.361-3.749-8.361-8.364c0-4.618,3.743-8.358,8.361-8.358
	S253.393,350.132,253.393,354.75 M245.031,371.483c-4.618,0-8.361,3.743-8.361,8.364c0,4.612,3.743,8.358,8.361,8.358
	s8.361-3.746,8.361-8.358C253.393,375.226,249.649,371.483,245.031,371.483"/>
    <path fill="#2887C8" d="M288.248,354.75c0,4.616-3.743,8.364-8.361,8.364c-4.618,0-8.361-3.749-8.361-8.364
	c0-4.618,3.743-8.358,8.361-8.358C284.505,346.392,288.248,350.132,288.248,354.75 M279.886,371.483
	c-4.618,0-8.361,3.743-8.361,8.364c0,4.612,3.743,8.358,8.361,8.358c4.619,0,8.361-3.746,8.361-8.358
	C288.248,375.226,284.505,371.483,279.886,371.483"/>
    <path fill="#2887C8" d="M323.1,354.75c0,4.616-3.74,8.364-8.358,8.364c-4.621,0-8.361-3.749-8.361-8.364
	c0-4.618,3.74-8.358,8.361-8.358C319.36,346.392,323.1,350.132,323.1,354.75 M314.742,371.483c-4.621,0-8.361,3.743-8.361,8.364
	c0,4.612,3.74,8.358,8.361,8.358c4.618,0,8.358-3.746,8.358-8.358C323.1,375.226,319.36,371.483,314.742,371.483"/>
    <path fill="#2887C8" d="M357.959,354.75c0,4.616-3.743,8.364-8.361,8.364c-4.619,0-8.361-3.749-8.361-8.364
	c0-4.618,3.743-8.358,8.361-8.358C354.216,346.392,357.959,350.132,357.959,354.75 M349.598,371.483
	c-4.619,0-8.361,3.743-8.361,8.364c0,4.612,3.743,8.358,8.361,8.358c4.618,0,8.361-3.746,8.361-8.358
	C357.959,375.226,354.216,371.483,349.598,371.483"/>
    <path fill="#2887C8" d="M392.812,354.75c0,4.616-3.743,8.364-8.361,8.364c-4.619,0-8.361-3.749-8.361-8.364
	c0-4.618,3.743-8.358,8.361-8.358C389.068,346.392,392.812,350.132,392.812,354.75 M384.45,371.483
	c-4.619,0-8.361,3.743-8.361,8.364c0,4.612,3.743,8.358,8.361,8.358c4.618,0,8.361-3.746,8.361-8.358
	C392.812,375.226,389.068,371.483,384.45,371.483"/>
    <path fill="#FFFFFF" d="M610.407,196.778v89.746c0,4.641-3.754,8.359-8.358,8.359H462.688c-0.082-4.555-3.765-8.234-8.357-8.234
	H295.527c-4.596,0-8.276,3.679-8.361,8.234H147.802c-4.596,0-8.356-3.718-8.356-8.359v-89.746c0-4.599,3.76-8.361,8.356-8.361
	h454.247C606.653,188.417,610.407,192.179,610.407,196.778"/>
    <path fill="none" stroke="#2887C8" stroke-width="0.945" stroke-miterlimit="10" d="M610.407,196.778v89.746
	c0,4.641-3.754,8.359-8.358,8.359H462.688c-0.082-4.555-3.765-8.234-8.357-8.234H295.527c-4.596,0-8.276,3.679-8.361,8.234H147.802
	c-4.596,0-8.356-3.718-8.356-8.359v-89.746c0-4.599,3.76-8.361,8.356-8.361h454.247
	C606.653,188.417,610.407,192.179,610.407,196.778z"/>
    <path fill="#B1D465" d="M586.651,237.469c0,7.856-6.366,14.224-14.228,14.224c-7.851,0-14.221-6.368-14.221-14.224
	c0-7.859,6.37-14.224,14.221-14.224C580.285,223.245,586.651,229.61,586.651,237.469"/>
    <path fill="#0B9D49" d="M581.947,237.469c0,5.256-4.262,9.521-9.523,9.521c-5.255,0-9.518-4.265-9.518-9.521
	c0-5.259,4.263-9.521,9.518-9.521C577.686,227.948,581.947,232.21,581.947,237.469"/>
    <path fill="#B1D465" d="M540.647,237.469c0,7.856-6.372,14.224-14.229,14.224c-7.855,0-14.221-6.368-14.221-14.224
	c0-7.859,6.365-14.224,14.221-14.224C534.275,223.245,540.647,229.61,540.647,237.469"/>
    <path fill="#0B9D49" d="M535.942,237.469c0,5.256-4.267,9.521-9.523,9.521c-5.261,0-9.522-4.265-9.522-9.521
	c0-5.259,4.262-9.521,9.522-9.521C531.676,227.948,535.942,232.21,535.942,237.469"/>
    <path fill="#2887C8" d="M183.685,224.47c0,4.616-3.744,8.364-8.361,8.364c-4.619,0-8.361-3.749-8.361-8.364
	c0-4.618,3.743-8.358,8.361-8.358C179.941,216.112,183.685,219.853,183.685,224.47 M175.323,241.204
	c-4.619,0-8.361,3.743-8.361,8.364c0,4.618,3.743,8.358,8.361,8.358c4.618,0,8.361-3.74,8.361-8.358
	C183.685,244.947,179.941,241.204,175.323,241.204"/>
    <path fill="#2887C8" d="M218.537,224.47c0,4.616-3.74,8.364-8.358,8.364c-4.621,0-8.361-3.749-8.361-8.364
	c0-4.618,3.74-8.358,8.361-8.358C214.797,216.112,218.537,219.853,218.537,224.47 M210.179,241.204
	c-4.621,0-8.361,3.743-8.361,8.364c0,4.618,3.74,8.358,8.361,8.358c4.618,0,8.358-3.74,8.358-8.358
	C218.537,244.947,214.797,241.204,210.179,241.204"/>
    <path fill="#2887C8" d="M253.393,224.47c0,4.616-3.743,8.364-8.361,8.364s-8.361-3.749-8.361-8.364c0-4.618,3.743-8.358,8.361-8.358
	S253.393,219.853,253.393,224.47 M245.031,241.204c-4.618,0-8.361,3.743-8.361,8.364c0,4.618,3.743,8.358,8.361,8.358
	s8.361-3.74,8.361-8.358C253.393,244.947,249.649,241.204,245.031,241.204"/>
    <path fill="#2887C8" d="M288.248,224.47c0,4.616-3.743,8.364-8.361,8.364c-4.618,0-8.361-3.749-8.361-8.364
	c0-4.618,3.743-8.358,8.361-8.358C284.505,216.112,288.248,219.853,288.248,224.47 M279.886,241.204
	c-4.618,0-8.361,3.743-8.361,8.364c0,4.618,3.743,8.358,8.361,8.358c4.619,0,8.361-3.74,8.361-8.358
	C288.248,244.947,284.505,241.204,279.886,241.204"/>
    <path fill="#2887C8" d="M323.1,224.47c0,4.616-3.74,8.364-8.358,8.364c-4.621,0-8.361-3.749-8.361-8.364
	c0-4.618,3.74-8.358,8.361-8.358C319.36,216.112,323.1,219.853,323.1,224.47 M314.742,241.204c-4.621,0-8.361,3.743-8.361,8.364
	c0,4.618,3.74,8.358,8.361,8.358c4.618,0,8.358-3.74,8.358-8.358C323.1,244.947,319.36,241.204,314.742,241.204"/>
    <path fill="#2887C8" d="M357.959,224.47c0,4.616-3.743,8.364-8.361,8.364c-4.619,0-8.361-3.749-8.361-8.364
	c0-4.618,3.743-8.358,8.361-8.358C354.216,216.112,357.959,219.853,357.959,224.47 M349.598,241.204
	c-4.619,0-8.361,3.743-8.361,8.364c0,4.618,3.743,8.358,8.361,8.358c4.618,0,8.361-3.74,8.361-8.358
	C357.959,244.947,354.216,241.204,349.598,241.204"/>
    <path fill="#2887C8" d="M392.812,224.47c0,4.616-3.743,8.364-8.361,8.364c-4.619,0-8.361-3.749-8.361-8.364
	c0-4.618,3.743-8.358,8.361-8.358C389.068,216.112,392.812,219.853,392.812,224.47 M384.45,241.204
	c-4.619,0-8.361,3.743-8.361,8.364c0,4.618,3.743,8.358,8.361,8.358c4.618,0,8.361-3.74,8.361-8.358
	C392.812,244.947,389.068,241.204,384.45,241.204"/>
    <path fill="#FFFFFF" d="M602.402,164.603H147.457c-4.427,0-8.011-3.583-8.011-8.011V77.731c0-4.422,3.583-8.011,8.011-8.011h454.945
	c4.422,0,8.005,3.589,8.005,8.011v78.861C610.407,161.02,606.824,164.603,602.402,164.603"/>
    <path fill="none" stroke="#2887C8" stroke-width="0.945" stroke-miterlimit="10" d="M602.402,164.603H147.457
	c-4.427,0-8.011-3.583-8.011-8.011V77.731c0-4.422,3.583-8.011,8.011-8.011h454.945c4.422,0,8.005,3.589,8.005,8.011v78.861
	C610.407,161.02,606.824,164.603,602.402,164.603z"/>
    <path fill="#E4F0CC" d="M290.279,144.359H175.563c-2.965,0-5.389-2.424-5.389-5.386V97.059c0-2.961,2.424-5.382,5.389-5.382h114.716
	c2.962,0,5.386,2.421,5.386,5.382v41.914C295.665,141.935,293.241,144.359,290.279,144.359"/>
    <path fill="#2887C8" d="M287.232,146.467H178.605c-5.811,0-10.537-4.731-10.537-10.539v-35.824c0-5.805,4.726-10.537,10.537-10.537
	h108.626c5.814,0,10.539,4.731,10.539,10.537v35.824C297.771,141.736,293.046,146.467,287.232,146.467 M178.605,93.785
	c-3.489,0-6.322,2.832-6.322,6.319v35.824c0,3.489,2.833,6.321,6.322,6.321h108.626c3.489,0,6.322-2.832,6.322-6.321v-35.824
	c0-3.487-2.833-6.319-6.322-6.319H178.605z"/>
    <path fill="#0B9D49" d="M190.345,132.384h-3.34c-1.624,0-2.957-1.328-2.957-2.954v-3.343c0-1.623,1.333-2.951,2.957-2.951h3.34
	c1.628,0,2.957,1.328,2.957,2.951v3.343C193.302,131.056,191.974,132.384,190.345,132.384"/>
    <path fill="#0B9D49" d="M213.475,132.384h-3.34c-1.623,0-2.956-1.328-2.956-2.954v-22.823c0-1.629,1.333-2.957,2.956-2.957h3.34
	c1.628,0,2.957,1.328,2.957,2.957v22.823C216.431,131.056,215.103,132.384,213.475,132.384"/>
    <path fill="#0B9D49" d="M236.607,132.384h-3.343c-1.621,0-2.957-1.328-2.957-2.954v-8.968c0-1.621,1.336-2.951,2.957-2.951h3.343
	c1.623,0,2.951,1.33,2.951,2.951v8.968C239.558,131.056,238.229,132.384,236.607,132.384"/>
    <path fill="#0B9D49" d="M282.865,132.384h-3.343c-1.62,0-2.957-1.328-2.957-2.954v-22.823c0-1.629,1.336-2.957,2.957-2.957h3.343
	c1.623,0,2.956,1.328,2.956,2.957v22.823C285.821,131.056,284.488,132.384,282.865,132.384"/>
    <path fill="#0B9D49" d="M259.736,132.384h-3.343c-1.623,0-2.957-1.328-2.957-2.954v-22.823c0-1.629,1.333-2.957,2.957-2.957h3.343
	c1.62,0,2.95,1.328,2.95,2.957v22.823C262.687,131.056,261.356,132.384,259.736,132.384"/>
    <path fill="#B1D465" d="M393.143,118.019c0,7.856-6.366,14.222-14.224,14.222c-7.859,0-14.224-6.366-14.224-14.222
	c0-7.859,6.365-14.224,14.224-14.224C386.777,103.795,393.143,110.16,393.143,118.019"/>
    <path fill="#0B9D49" d="M388.436,118.019c0,5.255-4.262,9.518-9.521,9.518c-5.256,0-9.518-4.262-9.518-9.518
	c0-5.259,4.262-9.521,9.518-9.521C384.174,108.498,388.436,112.76,388.436,118.019"/>
    <path fill="#B1D465" d="M347.132,118.019c0,7.856-6.365,14.222-14.224,14.222c-7.856,0-14.224-6.366-14.224-14.222
	c0-7.859,6.368-14.224,14.224-14.224C340.767,103.795,347.132,110.16,347.132,118.019"/>
    <path fill="#0B9D49" d="M342.429,118.019c0,5.255-4.262,9.518-9.521,9.518c-5.256,0-9.521-4.262-9.521-9.518
	c0-5.259,4.265-9.521,9.521-9.521C338.167,108.498,342.429,112.76,342.429,118.019"/>
    <path fill="#2887C8" d="M506.655,135.5h-5.999c-0.891,0-1.628-0.729-1.628-1.626v-33.423c0-0.895,0.737-1.628,1.628-1.628h5.999
	c0.895,0,1.629,0.734,1.629,1.628v33.423C508.284,134.771,507.55,135.5,506.655,135.5"/>
    <path fill="#2887C8" d="M541.331,135.5h-5.995c-0.895,0-1.634-0.729-1.634-1.626v-33.423c0-0.895,0.739-1.628,1.634-1.628h5.995
	c0.895,0,1.629,0.734,1.629,1.628v33.423C542.96,134.771,542.226,135.5,541.331,135.5"/>
    <path fill="#2887C8" d="M576.007,135.5h-6.001c-0.895,0-1.623-0.729-1.623-1.626v-33.423c0-0.895,0.729-1.628,1.623-1.628h6.001
	c0.89,0,1.623,0.734,1.623,1.628v33.423C577.63,134.771,576.896,135.5,576.007,135.5"/>
    <line fill="none" stroke="#2887C8" stroke-width="0.945" stroke-linecap="round" stroke-linejoin="round"
          stroke-miterlimit="10" x1="123.16" y1="709.534" x2="674.967" y2="709.534"/>
    <line fill="none" stroke="#2887C8" stroke-width="0.945" stroke-linecap="round" stroke-linejoin="round"
          stroke-miterlimit="10" x1="711.614" y1="709.534" x2="741.614" y2="709.534"/>
    <line fill="none" stroke="#2887C8" stroke-width="0.945" stroke-linecap="round" stroke-linejoin="round"
          stroke-miterlimit="10" x1="93.414" y1="709.534" x2="63.415" y2="709.534"/>
    <line fill="none" stroke="#2887C8" stroke-width="0.945" stroke-linecap="round" stroke-linejoin="round"
          stroke-miterlimit="10" x1="26.502" y1="709.534" x2="23.137" y2="709.534"/>
    <polygon fill="#FFFFFF" points="401.289,433.415 759.54,380.617 759.54,742.272 401.289,688.185 "/>
    <polygon fill="#B6DDF5" points="545.848,573.284 545.848,709.998 414.883,690.234 414.883,573.284 "/>
    <polyline fill="#E4F0CC" points="773.137,624.483 773.137,573.281 584.581,573.281 584.581,713.796 773.137,742.272
	773.137,686.479 "/>
    <line fill="#B6DDF5" x1="759.54" y1="636.938" x2="759.54" y2="654.211"/>
    <line fill="#B6DDF5" x1="759.54" y1="666.957" x2="759.54" y2="674.024"/>
    <polygon fill="#E4F0CC" points="414.887,431.411 414.887,546.851 545.848,546.851 545.848,412.11 "/>
    <line fill="#B6DDF5" x1="650.239" y1="396.729" x2="637.84" y2="398.555"/>
    <line fill="#B6DDF5" x1="662.91" y1="394.864" x2="660.172" y2="395.264"/>
    <polyline fill="#B6DDF5" points="641.357,400.042 584.581,408.408 584.581,546.851 773.137,546.851 773.137,380.617 690.414,392.81
	"/>
    <path fill="none" stroke="#2887C8" stroke-linecap="round" stroke-linejoin="round" stroke-miterlimit="10" d="M545.848,573.284
	v136.708L401.285,688.18V573.284H545.848z M759.54,624.48v-51.196H570.983v140.512l188.557,28.472v-55.789 M759.54,636.941v17.264
	 M759.54,666.957v7.067 M401.285,433.412v113.438h144.563V412.11L401.285,433.412z M650.239,396.727l-12.399,1.828 M662.91,394.864
	l-2.738,0.4 M627.765,400.042l-56.781,8.366v138.442H759.54V380.617l-82.729,12.193"/>
</svg>
