<?xml version="1.0" encoding="utf-8"?>
<!-- Generator: Adobe Illustrator 16.0.0, SVG Export Plug-In . SVG Version: 6.00 Build 0)  -->
<!DOCTYPE svg PUBLIC "-//W3C//DTD SVG 1.0//EN" "http://www.w3.org/TR/2001/REC-SVG-20010904/DTD/svg10.dtd">
<svg version="1.0" id="Layer_1" xmlns="http://www.w3.org/2000/svg" x="0px" y="0px"
     width="800px" height="800px" viewBox="0 0 800 800" enable-background="new 0 0 800 800" xml:space="preserve">
<g>
	<rect x="175.762" y="129.114" fill="#B6DDF5" width="412.168" height="583.258"/>
</g>
    <g>
	<path fill="#2887C8" d="M587.931,712.972H175.762c-0.332,0-0.6-0.269-0.6-0.6V129.114c0-0.332,0.269-0.6,0.6-0.6h412.168
		c0.331,0,0.6,0.269,0.6,0.6v583.258C588.53,712.703,588.262,712.972,587.931,712.972z M176.362,711.772h410.969V129.714H176.362
		V711.772z"/>
</g>
    <g>
	<path fill="#FFFFFF" d="M614.045,592.16v88.494c0,4.575-3.707,8.242-8.248,8.242H468.386c-0.084-4.491-3.712-8.12-8.244-8.12
		H303.555c-4.529,0-8.16,3.629-8.242,8.12H157.891c-4.532,0-8.239-3.667-8.239-8.242V592.16c0-4.534,3.707-8.244,8.239-8.244
		h447.906C610.338,583.916,614.045,587.626,614.045,592.16"/>
</g>
    <g>
	<path fill="#2887C8" d="M605.797,689.369H467.922l-0.009-0.464c-0.08-4.293-3.494-7.656-7.771-7.656H303.555
		c-4.278,0-7.691,3.363-7.77,7.656l-0.008,0.464H157.891c-4.804,0-8.712-3.909-8.712-8.715V592.16c0-4.807,3.908-8.717,8.712-8.717
		h447.906c4.809,0,8.721,3.91,8.721,8.717v88.494C614.518,685.46,610.605,689.369,605.797,689.369z M468.838,688.424h136.959
		c4.287,0,7.775-3.485,7.775-7.77V592.16c0-4.285-3.488-7.771-7.775-7.771H157.891c-4.283,0-7.767,3.486-7.767,7.771v88.494
		c0,4.284,3.484,7.77,7.767,7.77h136.97c0.316-4.59,4.051-8.12,8.694-8.12h156.587C464.784,680.304,468.52,683.834,468.838,688.424z
		"/>
</g>
    <g>
	<path fill="#B1D465" d="M590.62,632.281c0,7.749-6.282,14.025-14.023,14.025c-7.751,0-14.028-6.276-14.028-14.025
		c0-7.747,6.277-14.023,14.028-14.023C584.338,618.258,590.62,624.534,590.62,632.281"/>
</g>
    <g>
	<path fill="#0B9D49" d="M585.982,632.281c0,5.185-4.203,9.388-9.391,9.388c-5.183,0-9.385-4.203-9.385-9.388
		c0-5.183,4.202-9.386,9.385-9.386C581.779,622.896,585.982,627.099,585.982,632.281"/>
</g>
    <g>
	<path fill="#B1D465" d="M545.252,632.281c0,7.749-6.276,14.025-14.023,14.025c-7.752,0-14.028-6.276-14.028-14.025
		c0-7.747,6.276-14.023,14.028-14.023C538.976,618.258,545.252,624.534,545.252,632.281"/>
</g>
    <g>
	<path fill="#0B9D49" d="M540.613,632.281c0,5.185-4.202,9.388-9.385,9.388c-5.182,0-9.391-4.203-9.391-9.388
		c0-5.183,4.209-9.386,9.391-9.386C536.411,622.896,540.613,627.099,540.613,632.281"/>
</g>
    <g>
	<path fill="#2887C8" d="M193.272,619.467c0,4.551-3.691,8.247-8.245,8.247s-8.244-3.696-8.244-8.247
		c0-4.554,3.69-8.242,8.244-8.242S193.272,614.913,193.272,619.467 M185.027,635.967c-4.554,0-8.244,3.69-8.244,8.247
		c0,4.548,3.69,8.241,8.244,8.241s8.245-3.693,8.245-8.241C193.272,639.657,189.581,635.967,185.027,635.967"/>
</g>
    <g>
	<path fill="#2887C8" d="M227.642,619.467c0,4.551-3.691,8.247-8.245,8.247s-8.244-3.696-8.244-8.247
		c0-4.554,3.69-8.242,8.244-8.242S227.642,614.913,227.642,619.467 M219.396,635.967c-4.554,0-8.244,3.69-8.244,8.247
		c0,4.548,3.69,8.241,8.244,8.241s8.245-3.693,8.245-8.241C227.642,639.657,223.95,635.967,219.396,635.967"/>
</g>
    <g>
	<path fill="#2887C8" d="M262.008,619.467c0,4.551-3.688,8.247-8.242,8.247c-4.556,0-8.244-3.696-8.244-8.247
		c0-4.554,3.688-8.242,8.244-8.242C258.319,611.225,262.008,614.913,262.008,619.467 M253.766,635.967
		c-4.556,0-8.244,3.69-8.244,8.247c0,4.548,3.688,8.241,8.244,8.241c4.554,0,8.242-3.693,8.242-8.241
		C262.008,639.657,258.319,635.967,253.766,635.967"/>
</g>
    <g>
	<path fill="#2887C8" d="M296.377,619.467c0,4.551-3.691,8.247-8.245,8.247s-8.245-3.696-8.245-8.247
		c0-4.554,3.691-8.242,8.245-8.242S296.377,614.913,296.377,619.467 M288.132,635.967c-4.554,0-8.245,3.69-8.245,8.247
		c0,4.548,3.691,8.241,8.245,8.241s8.245-3.693,8.245-8.241C296.377,639.657,292.686,635.967,288.132,635.967"/>
</g>
    <g>
	<path fill="#2887C8" d="M330.746,619.467c0,4.551-3.691,8.247-8.245,8.247s-8.245-3.696-8.245-8.247
		c0-4.554,3.691-8.242,8.245-8.242S330.746,614.913,330.746,619.467 M322.501,635.967c-4.554,0-8.245,3.69-8.245,8.247
		c0,4.548,3.691,8.241,8.245,8.241s8.245-3.693,8.245-8.241C330.746,639.657,327.055,635.967,322.501,635.967"/>
</g>
    <g>
	<path fill="#2887C8" d="M365.112,619.467c0,4.551-3.688,8.247-8.242,8.247c-4.556,0-8.245-3.696-8.245-8.247
		c0-4.554,3.688-8.242,8.245-8.242C361.424,611.225,365.112,614.913,365.112,619.467 M356.871,635.967
		c-4.556,0-8.245,3.69-8.245,8.247c0,4.548,3.688,8.241,8.245,8.241c4.554,0,8.242-3.693,8.242-8.241
		C365.112,639.657,361.424,635.967,356.871,635.967"/>
</g>
    <g>
	<path fill="#2887C8" d="M399.484,619.467c0,4.551-3.691,8.247-8.245,8.247s-8.245-3.696-8.245-8.247
		c0-4.554,3.691-8.242,8.245-8.242S399.484,614.913,399.484,619.467 M391.24,635.967c-4.554,0-8.245,3.69-8.245,8.247
		c0,4.548,3.691,8.241,8.245,8.241s8.245-3.693,8.245-8.241C399.484,639.657,395.793,635.967,391.24,635.967"/>
</g>
    <g>
	<path fill="#FFFFFF" d="M614.045,463.699v88.493c0,4.573-3.707,8.247-8.248,8.247H468.386c-0.084-4.499-3.712-8.122-8.244-8.122
		H303.555c-4.529,0-8.16,3.623-8.242,8.122H157.891c-4.532,0-8.239-3.674-8.239-8.247v-88.493c0-4.529,3.707-8.242,8.239-8.242
		h447.906C610.338,455.457,614.045,459.17,614.045,463.699"/>
</g>
    <g>
	<path fill="#2887C8" d="M605.797,560.912H467.922l-0.009-0.464c-0.08-4.294-3.494-7.658-7.771-7.658H303.555
		c-4.278,0-7.691,3.363-7.77,7.658l-0.008,0.464H157.891c-4.804,0-8.712-3.912-8.712-8.72v-88.493c0-4.806,3.908-8.715,8.712-8.715
		h447.906c4.809,0,8.721,3.909,8.721,8.715v88.493C614.518,557,610.605,560.912,605.797,560.912z M468.838,559.967h136.959
		c4.287,0,7.775-3.487,7.775-7.774v-88.493c0-4.284-3.488-7.77-7.775-7.77H157.891c-4.283,0-7.767,3.485-7.767,7.77v88.493
		c0,4.287,3.484,7.774,7.767,7.774h136.97c0.316-4.591,4.051-8.122,8.694-8.122h156.587
		C464.784,551.845,468.52,555.376,468.838,559.967z"/>
</g>
    <g>
	<path fill="#B1D465" d="M590.62,503.822c0,7.746-6.282,14.025-14.023,14.025c-7.751,0-14.028-6.279-14.028-14.025
		c0-7.75,6.277-14.026,14.028-14.026C584.338,489.796,590.62,496.072,590.62,503.822"/>
</g>
    <g>
	<path fill="#0B9D49" d="M585.982,503.822c0,5.182-4.203,9.388-9.391,9.388c-5.183,0-9.385-4.206-9.385-9.388
		c0-5.186,4.202-9.389,9.385-9.389C581.779,494.434,585.982,498.637,585.982,503.822"/>
</g>
    <g>
	<path fill="#B1D465" d="M545.252,503.822c0,7.746-6.276,14.025-14.023,14.025c-7.752,0-14.028-6.279-14.028-14.025
		c0-7.75,6.276-14.026,14.028-14.026C538.976,489.796,545.252,496.072,545.252,503.822"/>
</g>
    <g>
	<path fill="#0B9D49" d="M540.613,503.822c0,5.182-4.202,9.388-9.385,9.388c-5.182,0-9.391-4.206-9.391-9.388
		c0-5.186,4.209-9.389,9.391-9.389C536.411,494.434,540.613,498.637,540.613,503.822"/>
</g>
    <g>
	<path fill="#2887C8" d="M193.272,491.005c0,4.551-3.691,8.247-8.245,8.247s-8.244-3.696-8.244-8.247
		c0-4.554,3.69-8.242,8.244-8.242S193.272,486.451,193.272,491.005 M185.027,507.505c-4.554,0-8.244,3.69-8.244,8.247
		c0,4.554,3.69,8.242,8.244,8.242s8.245-3.688,8.245-8.242C193.272,511.195,189.581,507.505,185.027,507.505"/>
</g>
    <g>
	<path fill="#2887C8" d="M227.642,491.005c0,4.551-3.691,8.247-8.245,8.247s-8.244-3.696-8.244-8.247
		c0-4.554,3.69-8.242,8.244-8.242S227.642,486.451,227.642,491.005 M219.396,507.505c-4.554,0-8.244,3.69-8.244,8.247
		c0,4.554,3.69,8.242,8.244,8.242s8.245-3.688,8.245-8.242C227.642,511.195,223.95,507.505,219.396,507.505"/>
</g>
    <g>
	<path fill="#2887C8" d="M262.008,491.005c0,4.551-3.688,8.247-8.242,8.247c-4.556,0-8.244-3.696-8.244-8.247
		c0-4.554,3.688-8.242,8.244-8.242C258.319,482.763,262.008,486.451,262.008,491.005 M253.766,507.505
		c-4.556,0-8.244,3.69-8.244,8.247c0,4.554,3.688,8.242,8.244,8.242c4.554,0,8.242-3.688,8.242-8.242
		C262.008,511.195,258.319,507.505,253.766,507.505"/>
</g>
    <g>
	<path fill="#2887C8" d="M296.377,491.005c0,4.551-3.691,8.247-8.245,8.247s-8.245-3.696-8.245-8.247
		c0-4.554,3.691-8.242,8.245-8.242S296.377,486.451,296.377,491.005 M288.132,507.505c-4.554,0-8.245,3.69-8.245,8.247
		c0,4.554,3.691,8.242,8.245,8.242s8.245-3.688,8.245-8.242C296.377,511.195,292.686,507.505,288.132,507.505"/>
</g>
    <g>
	<path fill="#2887C8" d="M330.746,491.005c0,4.551-3.691,8.247-8.245,8.247s-8.245-3.696-8.245-8.247
		c0-4.554,3.691-8.242,8.245-8.242S330.746,486.451,330.746,491.005 M322.501,507.505c-4.554,0-8.245,3.69-8.245,8.247
		c0,4.554,3.691,8.242,8.245,8.242s8.245-3.688,8.245-8.242C330.746,511.195,327.055,507.505,322.501,507.505"/>
</g>
    <g>
	<path fill="#2887C8" d="M365.112,491.005c0,4.551-3.688,8.247-8.242,8.247c-4.556,0-8.245-3.696-8.245-8.247
		c0-4.554,3.688-8.242,8.245-8.242C361.424,482.763,365.112,486.451,365.112,491.005 M356.871,507.505
		c-4.556,0-8.245,3.69-8.245,8.247c0,4.554,3.688,8.242,8.245,8.242c4.554,0,8.242-3.688,8.242-8.242
		C365.112,511.195,361.424,507.505,356.871,507.505"/>
</g>
    <g>
	<path fill="#2887C8" d="M399.484,491.005c0,4.551-3.691,8.247-8.245,8.247s-8.245-3.696-8.245-8.247
		c0-4.554,3.691-8.242,8.245-8.242S399.484,486.451,399.484,491.005 M391.24,507.505c-4.554,0-8.245,3.69-8.245,8.247
		c0,4.554,3.691,8.242,8.245,8.242s8.245-3.688,8.245-8.242C399.484,511.195,395.793,507.505,391.24,507.505"/>
</g>
    <g>
	<path fill="#FFFFFF" d="M614.045,335.24v88.494c0,4.575-3.707,8.245-8.248,8.245H468.386c-0.084-4.494-3.712-8.123-8.244-8.123
		H303.555c-4.529,0-8.16,3.629-8.242,8.123H157.891c-4.532,0-8.239-3.67-8.239-8.245V335.24c0-4.532,3.707-8.245,8.239-8.245
		h447.906C610.338,326.995,614.045,330.708,614.045,335.24"/>
</g>
    <g>
	<path fill="#2887C8" d="M605.797,432.451H467.922l-0.009-0.464c-0.08-4.295-3.494-7.659-7.771-7.659H303.555
		c-4.278,0-7.691,3.364-7.77,7.659l-0.008,0.464H157.891c-4.804,0-8.712-3.911-8.712-8.718V335.24c0-4.807,3.908-8.717,8.712-8.717
		h447.906c4.809,0,8.721,3.911,8.721,8.717v88.494C614.518,428.54,610.605,432.451,605.797,432.451z M468.838,431.506h136.959
		c4.287,0,7.775-3.486,7.775-7.772V335.24c0-4.286-3.488-7.772-7.775-7.772H157.891c-4.283,0-7.767,3.486-7.767,7.772v88.494
		c0,4.286,3.484,7.772,7.767,7.772h136.97c0.316-4.591,4.051-8.123,8.694-8.123h156.587
		C464.784,423.383,468.52,426.915,468.838,431.506z"/>
</g>
    <g>
	<path fill="#B1D465" d="M590.62,375.363c0,7.747-6.282,14.023-14.023,14.023c-7.751,0-14.028-6.276-14.028-14.023
		c0-7.749,6.277-14.026,14.028-14.026C584.338,361.337,590.62,367.614,590.62,375.363"/>
</g>
    <g>
	<path fill="#0B9D49" d="M585.982,375.363c0,5.183-4.203,9.385-9.391,9.385c-5.183,0-9.385-4.203-9.385-9.385
		c0-5.185,4.202-9.388,9.385-9.388C581.779,365.975,585.982,370.178,585.982,375.363"/>
</g>
    <g>
	<path fill="#B1D465" d="M545.252,375.363c0,7.747-6.276,14.023-14.023,14.023c-7.752,0-14.028-6.276-14.028-14.023
		c0-7.749,6.276-14.026,14.028-14.026C538.976,361.337,545.252,367.614,545.252,375.363"/>
</g>
    <g>
	<path fill="#0B9D49" d="M540.613,375.363c0,5.183-4.202,9.385-9.385,9.385c-5.182,0-9.391-4.203-9.391-9.385
		c0-5.185,4.209-9.388,9.391-9.388C536.411,365.975,540.613,370.178,540.613,375.363"/>
</g>
    <g>
	<path fill="#2887C8" d="M193.272,362.545c0,4.548-3.691,8.245-8.245,8.245s-8.244-3.696-8.244-8.245
		c0-4.554,3.69-8.245,8.244-8.245S193.272,357.992,193.272,362.545 M185.027,379.045c-4.554,0-8.244,3.691-8.244,8.245
		c0,4.551,3.69,8.245,8.244,8.245s8.245-3.694,8.245-8.245C193.272,382.736,189.581,379.045,185.027,379.045"/>
</g>
    <g>
	<path fill="#2887C8" d="M227.642,362.545c0,4.548-3.691,8.245-8.245,8.245s-8.244-3.696-8.244-8.245
		c0-4.554,3.69-8.245,8.244-8.245S227.642,357.992,227.642,362.545 M219.396,379.045c-4.554,0-8.244,3.691-8.244,8.245
		c0,4.551,3.69,8.245,8.244,8.245s8.245-3.694,8.245-8.245C227.642,382.736,223.95,379.045,219.396,379.045"/>
</g>
    <g>
	<path fill="#2887C8" d="M262.008,362.545c0,4.548-3.688,8.245-8.242,8.245c-4.556,0-8.244-3.696-8.244-8.245
		c0-4.554,3.688-8.245,8.244-8.245C258.319,354.301,262.008,357.992,262.008,362.545 M253.766,379.045
		c-4.556,0-8.244,3.691-8.244,8.245c0,4.551,3.688,8.245,8.244,8.245c4.554,0,8.242-3.694,8.242-8.245
		C262.008,382.736,258.319,379.045,253.766,379.045"/>
</g>
    <g>
	<path fill="#2887C8" d="M296.377,362.545c0,4.548-3.691,8.245-8.245,8.245s-8.245-3.696-8.245-8.245
		c0-4.554,3.691-8.245,8.245-8.245S296.377,357.992,296.377,362.545 M288.132,379.045c-4.554,0-8.245,3.691-8.245,8.245
		c0,4.551,3.691,8.245,8.245,8.245s8.245-3.694,8.245-8.245C296.377,382.736,292.686,379.045,288.132,379.045"/>
</g>
    <g>
	<path fill="#2887C8" d="M330.746,362.545c0,4.548-3.691,8.245-8.245,8.245s-8.245-3.696-8.245-8.245
		c0-4.554,3.691-8.245,8.245-8.245S330.746,357.992,330.746,362.545 M322.501,379.045c-4.554,0-8.245,3.691-8.245,8.245
		c0,4.551,3.691,8.245,8.245,8.245s8.245-3.694,8.245-8.245C330.746,382.736,327.055,379.045,322.501,379.045"/>
</g>
    <g>
	<path fill="#2887C8" d="M365.112,362.545c0,4.548-3.688,8.245-8.242,8.245c-4.556,0-8.245-3.696-8.245-8.245
		c0-4.554,3.688-8.245,8.245-8.245C361.424,354.301,365.112,357.992,365.112,362.545 M356.871,379.045
		c-4.556,0-8.245,3.691-8.245,8.245c0,4.551,3.688,8.245,8.245,8.245c4.554,0,8.242-3.694,8.242-8.245
		C365.112,382.736,361.424,379.045,356.871,379.045"/>
</g>
    <g>
	<path fill="#2887C8" d="M399.484,362.545c0,4.548-3.691,8.245-8.245,8.245s-8.245-3.696-8.245-8.245
		c0-4.554,3.691-8.245,8.245-8.245S399.484,357.992,399.484,362.545 M391.24,379.045c-4.554,0-8.245,3.691-8.245,8.245
		c0,4.551,3.691,8.245,8.245,8.245s8.245-3.694,8.245-8.245C399.484,382.736,395.793,379.045,391.24,379.045"/>
</g>
    <g>
	<path fill="#FFFFFF" d="M614.045,206.775v88.494c0,4.578-3.707,8.245-8.248,8.245H468.386c-0.084-4.491-3.712-8.12-8.244-8.12
		H303.555c-4.529,0-8.16,3.628-8.242,8.12H157.891c-4.532,0-8.239-3.667-8.239-8.245v-88.494c0-4.532,3.707-8.242,8.239-8.242
		h447.906C610.338,198.533,614.045,202.243,614.045,206.775"/>
</g>
    <g>
	<path fill="#2887C8" d="M605.797,303.986H467.922l-0.009-0.464c-0.08-4.293-3.494-7.656-7.771-7.656H303.555
		c-4.278,0-7.691,3.363-7.77,7.656l-0.008,0.464H157.891c-4.804,0-8.712-3.911-8.712-8.717v-88.494c0-4.805,3.908-8.715,8.712-8.715
		h447.906c4.809,0,8.721,3.91,8.721,8.715v88.494C614.518,300.076,610.605,303.986,605.797,303.986z M468.838,303.041h136.959
		c4.287,0,7.775-3.486,7.775-7.772v-88.494c0-4.284-3.488-7.77-7.775-7.77H157.891c-4.283,0-7.767,3.485-7.767,7.77v88.494
		c0,4.286,3.484,7.772,7.767,7.772h136.97c0.316-4.589,4.051-8.12,8.694-8.12h156.587
		C464.784,294.921,468.52,298.452,468.838,303.041z"/>
</g>
    <g>
	<path fill="#B1D465" d="M590.62,246.901c0,7.746-6.282,14.023-14.023,14.023c-7.751,0-14.028-6.277-14.028-14.023
		c0-7.75,6.277-14.026,14.028-14.026C584.338,232.875,590.62,239.152,590.62,246.901"/>
</g>
    <g>
	<path fill="#0B9D49" d="M585.982,246.901c0,5.182-4.203,9.385-9.391,9.385c-5.183,0-9.385-4.203-9.385-9.385
		c0-5.186,4.202-9.388,9.385-9.388C581.779,237.513,585.982,241.716,585.982,246.901"/>
</g>
    <g>
	<path fill="#B1D465" d="M545.252,246.901c0,7.746-6.276,14.023-14.023,14.023c-7.752,0-14.028-6.277-14.028-14.023
		c0-7.75,6.276-14.026,14.028-14.026C538.976,232.875,545.252,239.152,545.252,246.901"/>
</g>
    <g>
	<path fill="#0B9D49" d="M540.613,246.901c0,5.182-4.202,9.385-9.385,9.385c-5.182,0-9.391-4.203-9.391-9.385
		c0-5.186,4.209-9.388,9.391-9.388C536.411,237.513,540.613,241.716,540.613,246.901"/>
</g>
    <g>
	<path fill="#2887C8" d="M193.272,234.086c0,4.548-3.691,8.242-8.245,8.242s-8.244-3.693-8.244-8.242
		c0-4.556,3.69-8.247,8.244-8.247S193.272,229.53,193.272,234.086 M185.027,250.586c-4.554,0-8.244,3.688-8.244,8.242
		c0,4.551,3.69,8.248,8.244,8.248s8.245-3.696,8.245-8.248C193.272,254.274,189.581,250.586,185.027,250.586"/>
</g>
    <g>
	<path fill="#2887C8" d="M227.642,234.086c0,4.548-3.691,8.242-8.245,8.242s-8.244-3.693-8.244-8.242
		c0-4.556,3.69-8.247,8.244-8.247S227.642,229.53,227.642,234.086 M219.396,250.586c-4.554,0-8.244,3.688-8.244,8.242
		c0,4.551,3.69,8.248,8.244,8.248s8.245-3.696,8.245-8.248C227.642,254.274,223.95,250.586,219.396,250.586"/>
</g>
    <g>
	<path fill="#2887C8" d="M262.008,234.086c0,4.548-3.688,8.242-8.242,8.242c-4.556,0-8.244-3.693-8.244-8.242
		c0-4.556,3.688-8.247,8.244-8.247C258.319,225.839,262.008,229.53,262.008,234.086 M253.766,250.586
		c-4.556,0-8.244,3.688-8.244,8.242c0,4.551,3.688,8.248,8.244,8.248c4.554,0,8.242-3.696,8.242-8.248
		C262.008,254.274,258.319,250.586,253.766,250.586"/>
</g>
    <g>
	<path fill="#2887C8" d="M296.377,234.086c0,4.548-3.691,8.242-8.245,8.242s-8.245-3.693-8.245-8.242
		c0-4.556,3.691-8.247,8.245-8.247S296.377,229.53,296.377,234.086 M288.132,250.586c-4.554,0-8.245,3.688-8.245,8.242
		c0,4.551,3.691,8.248,8.245,8.248s8.245-3.696,8.245-8.248C296.377,254.274,292.686,250.586,288.132,250.586"/>
</g>
    <g>
	<path fill="#2887C8" d="M330.746,234.086c0,4.548-3.691,8.242-8.245,8.242s-8.245-3.693-8.245-8.242
		c0-4.556,3.691-8.247,8.245-8.247S330.746,229.53,330.746,234.086 M322.501,250.586c-4.554,0-8.245,3.688-8.245,8.242
		c0,4.551,3.691,8.248,8.245,8.248s8.245-3.696,8.245-8.248C330.746,254.274,327.055,250.586,322.501,250.586"/>
</g>
    <g>
	<path fill="#2887C8" d="M365.112,234.086c0,4.548-3.688,8.242-8.242,8.242c-4.556,0-8.245-3.693-8.245-8.242
		c0-4.556,3.688-8.247,8.245-8.247C361.424,225.839,365.112,229.53,365.112,234.086 M356.871,250.586
		c-4.556,0-8.245,3.688-8.245,8.242c0,4.551,3.688,8.248,8.245,8.248c4.554,0,8.242-3.696,8.242-8.248
		C365.112,254.274,361.424,250.586,356.871,250.586"/>
</g>
    <g>
	<path fill="#2887C8" d="M399.484,234.086c0,4.548-3.691,8.242-8.245,8.242s-8.245-3.693-8.245-8.242
		c0-4.556,3.691-8.247,8.245-8.247S399.484,229.53,399.484,234.086 M391.24,250.586c-4.554,0-8.245,3.688-8.245,8.242
		c0,4.551,3.691,8.248,8.245,8.248s8.245-3.696,8.245-8.248C399.484,254.274,395.793,250.586,391.24,250.586"/>
</g>
    <g>
	<path fill="#FFFFFF" d="M606.146,175.055H157.553c-4.366,0-7.901-3.536-7.901-7.899V89.392c0-4.36,3.536-7.899,7.901-7.899h448.593
		c4.36,0,7.899,3.539,7.899,7.899v77.764C614.045,171.519,610.506,175.055,606.146,175.055"/>
</g>
    <g>
	<path fill="#2887C8" d="M606.146,175.527H157.553c-4.617,0-8.374-3.756-8.374-8.372V89.392c0-4.616,3.757-8.372,8.374-8.372
		h448.593c4.616,0,8.372,3.755,8.372,8.372v77.764C614.518,171.771,610.762,175.527,606.146,175.527z M157.553,81.965
		c-4.096,0-7.429,3.332-7.429,7.426v77.764c0,4.095,3.333,7.427,7.429,7.427h448.593c4.096,0,7.427-3.332,7.427-7.427V89.392
		c0-4.095-3.331-7.426-7.427-7.426H157.553z"/>
</g>
    <g>
	<path fill="#E4F0CC" d="M298.38,155.092H185.265c-2.921,0-5.313-2.393-5.313-5.313V108.45c0-2.921,2.393-5.308,5.313-5.308H298.38
		c2.92,0,5.308,2.387,5.308,5.308v41.329C303.688,152.7,301.301,155.092,298.38,155.092"/>
</g>
    <g>
	<path fill="#2887C8" d="M295.378,157.169H188.267c-5.732,0-10.392-4.665-10.392-10.392v-35.325c0-5.724,4.66-10.389,10.392-10.389
		h107.111c5.729,0,10.392,4.665,10.392,10.389v35.325C305.77,152.504,301.107,157.169,295.378,157.169 M188.267,105.222
		c-3.44,0-6.233,2.793-6.233,6.23v35.325c0,3.44,2.792,6.233,6.233,6.233h107.111c3.44,0,6.233-2.792,6.233-6.233v-35.325
		c0-3.438-2.793-6.23-6.233-6.23H188.267z"/>
</g>
    <g>
	<path fill="#0B9D49" d="M199.843,143.285h-3.296c-1.601,0-2.916-1.312-2.916-2.918v-3.293c0-1.601,1.315-2.91,2.916-2.91h3.296
		c1.598,0,2.915,1.309,2.915,2.91v3.293C202.758,141.973,201.44,143.285,199.843,143.285"/>
</g>
    <g>
	<path fill="#0B9D49" d="M222.649,143.285h-3.296c-1.598,0-2.916-1.312-2.916-2.918v-22.501c0-1.606,1.317-2.916,2.916-2.916h3.296
		c1.601,0,2.915,1.31,2.915,2.916v22.501C225.564,141.973,224.25,143.285,222.649,143.285"/>
</g>
    <g>
	<path fill="#0B9D49" d="M245.456,143.285h-3.296c-1.6,0-2.915-1.312-2.915-2.918v-8.84c0-1.601,1.315-2.91,2.915-2.91h3.296
		c1.603,0,2.915,1.31,2.915,2.91v8.84C248.371,141.973,247.059,143.285,245.456,143.285"/>
</g>
    <g>
	<path fill="#0B9D49" d="M291.069,143.285h-3.296c-1.6,0-2.915-1.312-2.915-2.918v-22.501c0-1.606,1.315-2.916,2.915-2.916h3.296
		c1.603,0,2.915,1.31,2.915,2.916v22.501C293.984,141.973,292.672,143.285,291.069,143.285"/>
</g>
    <g>
	<path fill="#0B9D49" d="M268.263,143.285h-3.296c-1.598,0-2.915-1.312-2.915-2.918v-22.501c0-1.606,1.317-2.916,2.915-2.916h3.296
		c1.606,0,2.915,1.31,2.915,2.916v22.501C271.178,141.973,269.869,143.285,268.263,143.285"/>
</g>
    <g>
	<path fill="#B1D465" d="M399.809,129.114c0,7.75-6.282,14.026-14.026,14.026c-7.746,0-14.023-6.277-14.023-14.026
		c0-7.746,6.277-14.023,14.023-14.023C393.526,115.091,399.809,121.368,399.809,129.114"/>
</g>
    <g>
	<path fill="#0B9D49" d="M395.17,129.114c0,5.186-4.205,9.388-9.388,9.388c-5.185,0-9.388-4.203-9.388-9.388
		c0-5.182,4.203-9.385,9.388-9.385C390.965,119.729,395.17,123.932,395.17,129.114"/>
</g>
    <g>
	<path fill="#B1D465" d="M354.443,129.114c0,7.75-6.277,14.026-14.026,14.026s-14.026-6.277-14.026-14.026
		c0-7.746,6.277-14.023,14.026-14.023S354.443,121.368,354.443,129.114"/>
</g>
    <g>
	<path fill="#0B9D49" d="M349.805,129.114c0,5.186-4.203,9.388-9.388,9.388c-5.186,0-9.388-4.203-9.388-9.388
		c0-5.182,4.202-9.385,9.388-9.385C345.602,119.729,349.805,123.932,349.805,129.114"/>
</g>
    <g>
	<path fill="#2887C8" d="M511.74,146.355h-5.912c-0.882,0-1.611-0.719-1.611-1.603v-32.957c0-0.882,0.729-1.605,1.611-1.605h5.912
		c0.882,0,1.601,0.724,1.601,1.605v32.957C513.341,145.636,512.622,146.355,511.74,146.355"/>
</g>
    <g>
	<path fill="#2887C8" d="M545.927,146.355h-5.912c-0.882,0-1.605-0.719-1.605-1.603v-32.957c0-0.882,0.724-1.605,1.605-1.605h5.912
		c0.882,0,1.611,0.724,1.611,1.605v32.957C547.538,145.636,546.809,146.355,545.927,146.355"/>
</g>
    <g>
	<path fill="#2887C8" d="M580.125,146.355h-5.918c-0.882,0-1.605-0.719-1.605-1.603v-32.957c0-0.882,0.724-1.605,1.605-1.605h5.918
		c0.876,0,1.6,0.724,1.6,1.605v32.957C581.725,145.636,581.001,146.355,580.125,146.355"/>
</g>
    <g>
	<path fill="#2887C8" d="M677.704,712.845H133.592c-0.261,0-0.473-0.212-0.473-0.473s0.212-0.473,0.473-0.473h544.112
		c0.261,0,0.473,0.212,0.473,0.473S677.965,712.845,677.704,712.845z"/>
</g>
    <g>
	<path fill="#2887C8" d="M743.416,712.845h-29.582c-0.261,0-0.473-0.212-0.473-0.473s0.212-0.473,0.473-0.473h29.582
		c0.261,0,0.473,0.212,0.473,0.473S743.677,712.845,743.416,712.845z"/>
</g>
    <g>
	<path fill="#2887C8" d="M104.261,712.845H74.677c-0.261,0-0.473-0.212-0.473-0.473s0.212-0.473,0.473-0.473h29.584
		c0.261,0,0.473,0.212,0.473,0.473S104.522,712.845,104.261,712.845z"/>
</g>
    <g>
	<path fill="#2887C8" d="M38.283,712.845h-3.318c-0.261,0-0.473-0.212-0.473-0.473s0.212-0.473,0.473-0.473h3.318
		c0.261,0,0.473,0.212,0.473,0.473S38.544,712.845,38.283,712.845z"/>
</g>
    <g>
	<path fill="#2887C8" d="M784.963,712.845h-3.316c-0.261,0-0.473-0.212-0.473-0.473s0.212-0.473,0.473-0.473h3.316
		c0.261,0,0.473,0.212,0.473,0.473S785.224,712.845,784.963,712.845z"/>
</g>
    <g>
	<path fill="#FFFFFF" d="M748.969,601.584c0,80.817-65.516,146.325-146.329,146.325c-80.817,0-146.333-65.508-146.333-146.325
		c0-80.818,65.516-146.328,146.333-146.328C683.453,455.256,748.969,520.766,748.969,601.584"/>
</g>
    <g>
	<path fill="#2887C8" d="M602.64,748.409c-80.964,0-146.833-65.865-146.833-146.825c0-80.961,65.869-146.828,146.833-146.828
		c80.962,0,146.829,65.867,146.829,146.828C749.469,682.544,683.602,748.409,602.64,748.409z M602.64,455.756
		c-80.412,0-145.833,65.418-145.833,145.828c0,80.408,65.421,145.825,145.833,145.825c80.41,0,145.829-65.417,145.829-145.825
		C748.469,521.174,683.05,455.756,602.64,455.756z"/>
</g>
    <g>
	<path fill="#E4F0CC" d="M715.815,601.584c0,62.508-50.67,113.184-113.176,113.184c-62.516,0-113.184-50.676-113.184-113.184
		c0-62.506,50.668-113.176,113.184-113.176C665.146,488.408,715.815,539.078,715.815,601.584"/>
</g>
    <g>
	<path fill="#0B9D49" d="M702.468,556.825v5.914c0,9.979-1.851,23.308-7.393,37.35l-27.371,82.09
		c-1.481,4.063-4.432,7.022-8.134,8.5c-7.021,3.691-13.304-0.373-16.266-7.393l-25.885-72.479l-24.394,72.479
		c-2.973,9.238-12.586,14.412-21.824,12.197c-5.912-1.481-10.719-5.921-12.939-11.83l-45.825-126.001
		c-0.735-0.152-1.498-0.302-2.232-0.457c-2.047,0-3.876-0.827-5.227-2.175c-1.344-1.345-2.166-3.171-2.166-5.218
		c0-2.042,0.822-3.868,2.166-5.213c1.351-1.355,3.18-2.175,5.227-2.175c6.086,1.302,12.281,1.936,18.471,1.936
		c6.2,0,12.396-0.634,18.503-1.936c2.025,0,3.888,0.819,5.216,2.175c1.35,1.345,2.177,3.171,2.177,5.213
		c0,2.047-0.827,3.873-2.177,5.218c-1.328,1.348-3.19,2.175-5.216,2.175c-3.756,0.8-7.566,1.348-11.366,1.655
		c2.085-0.134,4.148-0.308,6.173-0.548l38.455,107.224l22.199-65.81l-15.917-41.414c4.301,0.458,8.65,0.743,13.043,0.809
		c-6.435-0.155-12.869-0.786-19.325-1.916c-4.062,0-7.393-3.323-7.393-7.393c0-2.042,0.827-3.868,2.177-5.213
		c1.323-1.355,3.19-2.175,5.216-2.175c14.807,2.583,29.593,2.583,44.372,0c4.066,0,7.393,3.324,7.393,7.388
		c0,2.047-0.833,3.873-2.172,5.218c-1.351,1.348-3.18,2.175-5.221,2.175c-2.722,0.479-5.46,0.868-8.177,1.176
		c0.262-0.021,0.522-0.046,0.784-0.068l36.979,104.265l15.89-46.585c1.476-6.288,2.586-11.462,2.586-16.266
		c0-12.191-3.32-17.761-7.393-25.889c-4.431-9.61-11.083-17.738-11.083-25.871c0-11.086,8.873-18.5,18.476-18.5
		c20.35,0,23.305,4.063,27.002,13.696C701.722,547.59,702.468,552.021,702.468,556.825"/>
</g>
</svg>
