<?xml version="1.0" encoding="utf-8"?>
<!-- Generator: Adobe Illustrator 16.0.0, SVG Export Plug-In . SVG Version: 6.00 Build 0)  -->
<!DOCTYPE svg PUBLIC "-//W3C//DTD SVG 1.0//EN" "http://www.w3.org/TR/2001/REC-SVG-20010904/DTD/svg10.dtd">
<svg version="1.0" id="Layer_1" xmlns="http://www.w3.org/2000/svg" x="0px" y="0px"
     width="800px" height="800px" viewBox="0 0 800 800" enable-background="new 0 0 800 800" xml:space="preserve">
<g>
	<path fill="#B6DDF5" d="M723.292,347.886c1.352,85.555-31.996,162.44-87.117,217.547L420.865,780.75L198.222,558.1
		c-56.91-57.021-92.973-134.962-94.381-220.447C101.054,166.571,237.368,30.257,408.436,33.038
		C579.462,35.874,720.448,176.861,723.292,347.886"/>
</g>
    <g>
	<path fill="#2887C8" d="M108.078,184.297c-0.127,0-0.255-0.032-0.373-0.1c-0.359-0.207-0.483-0.665-0.277-1.024
		c8.47-14.735,18.307-28.925,29.238-42.177c0.263-0.32,0.735-0.365,1.056-0.102c0.32,0.264,0.365,0.736,0.102,1.056
		c-10.878,13.188-20.667,27.309-29.094,41.97C108.59,184.162,108.337,184.297,108.078,184.297z"/>
</g>
    <g>
	<path fill="#2887C8" d="M78.083,256.916c-0.064,0-0.128-0.008-0.193-0.025c-0.4-0.106-0.638-0.517-0.532-0.917
		c1.521-5.723,3.245-11.485,5.123-17.125c0.131-0.393,0.554-0.607,0.948-0.475c0.393,0.131,0.605,0.555,0.475,0.948
		c-1.868,5.612-3.583,11.344-5.096,17.038C78.718,256.694,78.414,256.916,78.083,256.916z"/>
</g>
    <g>
	<path fill="#2887C8" d="M371.964,765.826c-0.199,0-0.39-0.078-0.53-0.219L156.35,550.523c-0.042-0.043-0.079-0.09-0.11-0.139
		c-51.225-51.355-82.574-119.207-88.28-191.079C67.323,351.26,67,343.071,67,334.964c0-0.414,0.336-0.75,0.75-0.75
		s0.75,0.336,0.75,0.75c0,8.067,0.321,16.217,0.955,24.223c5.683,71.575,36.925,139.143,87.971,190.26
		c0.042,0.043,0.079,0.09,0.109,0.139l214.43,214.43l40.713-40.713c0.293-0.293,0.768-0.293,1.061,0s0.293,0.768,0,1.061
		l-41.244,41.244C372.354,765.748,372.163,765.826,371.964,765.826z"/>
</g>
    <g>
	<path fill="#2887C8" d="M443.387,694.404c-0.191,0-0.384-0.074-0.53-0.221c-0.293-0.293-0.293-0.768,0-1.061l46.986-46.986
		c0.293-0.293,0.768-0.293,1.061,0s0.293,0.768,0,1.061l-46.986,46.986C443.771,694.33,443.578,694.404,443.387,694.404z"/>
</g>
    <g>
	<path fill="#2887C8" d="M515.442,622.34c-0.191,0-0.383-0.072-0.529-0.219c-0.293-0.293-0.293-0.768,0-1.061l33.486-33.48
		c0.293-0.293,0.768-0.293,1.061,0s0.293,0.768,0,1.061l-33.486,33.48C515.827,622.268,515.635,622.34,515.442,622.34z"/>
</g>
    <g>
	<path fill="#2887C8" d="M586.992,550.791c-0.192,0-0.384-0.072-0.53-0.219c-0.293-0.293-0.293-0.768,0-1.061
		c57.28-57.287,88.855-133.504,88.91-214.611C675.358,167.605,539.25,31.5,371.964,31.5
		c-72.416,0.014-142.524,25.944-197.409,73.016c-0.314,0.27-0.787,0.233-1.058-0.081c-0.27-0.314-0.233-0.788,0.081-1.058
		C228.735,56.073,299.19,30.014,371.964,30c81.43,0,157.994,31.719,215.587,89.314c57.593,57.593,89.313,134.157,89.32,215.587
		c-0.055,81.507-31.786,158.101-89.35,215.671C587.376,550.719,587.185,550.791,586.992,550.791z"/>
</g>
    <g>
	<path fill="#E4F0CC" d="M554.546,334.021c0,100.855-81.768,182.609-182.61,182.609c-100.856,0-182.596-81.754-182.596-182.609
		c0-100.856,81.74-182.596,182.596-182.596C472.778,151.425,554.546,233.166,554.546,334.021"/>
</g>
    <g>
	<path fill="#0B9D49" d="M371.936,517.381c-101.098,0-183.346-82.254-183.346-183.359c0-101.098,82.249-183.346,183.346-183.346
		c101.105,0,183.36,82.249,183.36,183.346C555.296,435.127,473.041,517.381,371.936,517.381z M371.936,152.175
		c-100.271,0-181.846,81.576-181.846,181.846c0,100.277,81.576,181.859,181.846,181.859c100.278,0,181.86-81.582,181.86-181.859
		C553.796,233.751,472.214,152.175,371.936,152.175z"/>
</g>
    <g>
	<rect x="293.236" y="234.721" fill="#0B9D49" width="37.738" height="198.607"/>
</g>
    <g>
	<path fill="#0B9D49" d="M426.58,234.714c22.113,0,39.428,5.673,51.913,17.032c12.485,11.634,18.721,27.808,18.721,49.083
		c0,20.425-6.235,36.31-18.721,47.958c-12.768,11.627-30.067,17.581-51.913,17.581h-25.844v66.954h-37.71V234.714H426.58z
		 M426.58,332.881c21.846,0,32.896-10.487,32.896-31.489c0-21.276-11.05-31.77-32.896-31.77h-25.844v63.258H426.58z"/>
</g>
</svg>
