<svg xmlns="http://www.w3.org/2000/svg" id="Layer_1" x="0" y="0" version="1.1" viewBox="0 0 511.5 412.5" xml:space="preserve" style="enable-background:new 0 0 511.5 412.5"><style type="text/css">.st0{fill:#0b9d49}.st1{fill:#0083d3}.st2{fill:#f5be9a}.st3{fill:#35b4ff}.st4{fill:#7ecce6}.st5{fill:#92e57f}.st6{fill:#ed865d}.st7{fill:#e5e57f}</style><g><path d="M338.9,172c0.5,0.2,0.9,0.6,1.2,1.1c3.2-3.1,6.7-5.9,10.5-8.2c-0.8-0.5-1.4-1.3-1.7-2.1c0,0,0,0,0-0.1 c-4.1,2.5-7.9,5.5-11.3,8.9C338.1,171.7,338.5,171.8,338.9,172" class="st0"/></g><g><path d="M399.9,267.9c-0.2-0.1-0.3-0.2-0.5-0.3c-1,3.5-1.9,7.1-2.8,10.7c-0.6,2.5-1.7,2.5-4.3,2.6l-0.2,0 c-4.6,0.2-8.9,0.1-12.8-0.2l-2-0.1l0,0.1c-31.1-1.1-56.1-28.4-56.1-61.8c0-13.4,4-25.8,10.8-36c-0.3-0.2-0.6-0.3-0.9-0.6 c-0.5-0.4-0.8-1-0.9-1.7c-7.4,10.7-11.7,23.9-11.7,38.2c0,35.6,27.3,64.6,60.7,64.6h0c2.5,0.2,5.2,0.3,8,0.3c1.6,0,3.3,0,5-0.1 l0.2,0c2.7-0.1,5.8-0.2,6.9-4.7c0.8-3.5,1.8-7.1,2.8-10.6C401.3,268.4,400.5,268.3,399.9,267.9" class="st0"/></g><path d="M135.9,55.8h239.6v296.3H135.9V55.8z" class="st1"/><path d="M438.6,352.2l-18.9-18.9v-56.7c0-10.4-8.5-18.9-18.9-18.9h-25.2v25.2l-15.8-15.8c-5.2-5.2-13.7-5.2-18.9,0	c-5.2,5.2-5.2,13.7,0,18.9l28.4,28.4c-13.9,13.9-13.9,36.5,0,50.4l31.5,31.5L438.6,352.2z" class="st2"/><path d="M167.5,87.4h44.1v56.7h-44.1V87.4z" class="st3"/><g><path d="M236.8,81.1h12.6v12.6h-12.6V81.1z" class="st3"/><path d="M262,81.1h88.3v12.6H262L262,81.1L262,81.1z" class="st3"/><path d="M236.8,106.3h94.6v12.6h-94.6L236.8,106.3L236.8,106.3z" class="st3"/><path d="M161.2,175.6h12.6v12.6h-12.6C161.2,188.3,161.2,175.6,161.2,175.6z" class="st4"/><path d="M186.4,175.6h163.9v12.6H186.4V175.6z" class="st3"/><path d="M161.2,200.9h12.6v12.6h-12.6C161.2,213.5,161.2,200.9,161.2,200.9z" class="st4"/><path d="M186.4,200.9h163.9v12.6H186.4V200.9z" class="st3"/><path d="M161.2,226.1h12.6v12.6h-12.6C161.2,238.7,161.2,226.1,161.2,226.1z" class="st4"/><path d="M186.4,226.1h163.9v12.6H186.4V226.1z" class="st3"/><path d="M325.1,314.4h12.6V327h-12.6V314.4z" class="st5"/><path d="M299.9,314.4h12.6V327h-12.6V314.4z" class="st6"/><path d="M274.7,314.4h12.6V327h-12.6V314.4z" class="st7"/></g><path d="M72.9,352.2l18.9-18.9v-56.7c0-10.4,8.5-18.9,18.9-18.9h25.2v25.2l15.8-15.8c5.2-5.2,13.7-5.2,18.9,0	c5.2,5.2,5.2,13.7,0,18.9l-28.4,28.4c13.9,13.9,13.9,36.5,0,50.4l-31.5,31.5L72.9,352.2z" class="st2"/><path d="M204.7,334.5c1.4-2.3,9.1-7.3,11.6-3.5c4.1,6.3,16.4,4.7,22.5,4.7c-6.8,3.6-14.4,3.9-22.1,4	C211.1,339.8,205.5,338.3,204.7,334.5z" class="st4"/><path d="M250.2,276.9c9.5,5.4-28.5,14.4-61.3,18.5c-10.7,1.3-13.7,20.2-0.5,24.9c-14.9-9.1,53.8-10,67.8-20.3	C262.5,295.3,267.5,283.3,250.2,276.9z" class="st3"/><path d="M259.5,311.2c-0.9,11.2-49.4,0.7-59.4,16.1c-1.9,2.9-1,6.2,0.5,7.6c2.2,2,7.4,4.7,12.3,4.7	c-6.8-2.8,22.2-7.7,30.4-9.3C252.3,328.4,260.5,316.1,259.5,311.2z" class="st3"/><path d="M228.1,262.5c-0.1,0.4-0.6,0.7-1,0.7h-6.8c-0.4,0-0.6-0.3-0.5-0.7l2.4-7c0.1-0.4,0.6-0.7,1-0.7h6.8	c0.4,0,0.6,0.3,0.5,0.7L228.1,262.5z" class="st4"/><path d="M222.2,276.1c-0.1,0.5-0.6,0.8-1.1,0.8h-7.7c-0.5,0-0.7-0.4-0.6-0.8l2.7-7.9c0.1-0.5,0.6-0.8,1.1-0.8h7.7	c0.5,0,0.7,0.4,0.6,0.8L222.2,276.1z" class="st4"/><path d="M233.5,273.7c-0.1,0.3-0.4,0.6-0.7,0.6h-5c-0.3,0-0.5-0.2-0.4-0.6l1.8-5.2c0.1-0.3,0.4-0.6,0.7-0.6h5	c0.3,0,0.5,0.2,0.4,0.6L233.5,273.7z" class="st4"/><path d="M243.3,271.1c-0.1,0.3-0.4,0.6-0.7,0.6h-4.8c-0.3,0-0.4-0.2-0.3-0.6l1.7-4.9c0.1-0.3,0.4-0.6,0.7-0.6h4.8	c0.3,0,0.4,0.2,0.3,0.6L243.3,271.1z" class="st4"/><path d="M247,263.6c-0.1,0.3-0.4,0.5-0.7,0.5h-4.7c-0.3,0-0.4-0.2-0.3-0.5l1.7-4.9c0.1-0.3,0.4-0.5,0.7-0.5h4.7	c0.3,0,0.4,0.2,0.3,0.5L247,263.6z" class="st4"/><path d="M252,267.5c-0.1,0.2-0.3,0.4-0.6,0.4h-3.7c-0.2,0-0.3-0.2-0.3-0.4l1.3-3.8c0.1-0.2,0.3-0.4,0.6-0.4h3.7	c0.2,0,0.3,0.2,0.3,0.4L252,267.5z" class="st4"/><path d="M259.5,258.3c0,0.2-0.2,0.3-0.4,0.3h-2.9c-0.2,0-0.3-0.1-0.2-0.3l1-3c0-0.2,0.2-0.3,0.4-0.3h2.9	c0.2,0,0.3,0.1,0.2,0.3L259.5,258.3z" class="st4"/><path d="M253.5,261.8c-0.1,0.2-0.3,0.4-0.6,0.4h-3.7c-0.2,0-0.3-0.2-0.3-0.4l1.3-3.9c0.1-0.2,0.3-0.4,0.6-0.4h3.7	c0.2,0,0.3,0.2,0.3,0.4L253.5,261.8z" class="st4"/><path d="M238.6,263.3c-0.1,0.4-0.5,0.6-0.9,0.6h-5.9c-0.4,0-0.6-0.3-0.4-0.6l2.1-6.1c0.1-0.4,0.5-0.6,0.9-0.6h5.9	c0.4,0,0.6,0.3,0.4,0.6L238.6,263.3z" class="st4"/><path d="M212.9,257c-17.3,3.9-29.3,14.2-32.1,29.4c1.8-5.3,15.6-8.2,26.6-9.5c1.8-5.8,4.6-15,6.2-20.1L212.9,257z" class="st4"/><path d="M211.5,275.9c0-0.2,0.2-0.8,0.4-1.4l2-5.8c0.2-0.6,0.6-1.5,1.1-1.9c0.4-0.5,2.2-0.9,2.9-0.9h5.4	c0.6,0,1.6,0.1,2.2,0.3c0,0,0.1,0,0.5,0.5c0.4,0.5,0.4,0.7,0.4,0.7c0,0.6-0.3,1.6-0.5,2.2l-1.6,4.6c-0.2,0.6,0.1,0.9,0.7,0.8l0.2,0	c0.6-0.2,1.1-0.5,1-0.7c0-0.2,0.2-1.4,0.4-2l1-3c0.2-0.6,0.6-1.4,0.9-1.8c0.3-0.4,1.9-0.7,2.6-0.7h2.6c0.6,0,1.2-0.3,1.2-0.7	s-0.5-0.7-1.1-0.7H233c-0.6,0-1.6-0.1-2.2-0.3c0,0,0,0-0.4-0.5c-0.3-0.5-0.3-0.6-0.3-0.6c0-0.6,0.3-1.6,0.5-2.2l0.6-1.8	c0.2-0.6,0.2-1.1,0.1-1.3c-0.1-0.1-0.5,0.3-0.6,0.9l-0.8,2.3c-0.2,0.6-0.6,1.4-1,1.9c-0.4,0.5-2.1,0.8-2.8,0.8h-4.5	c-0.6,0-1.6-0.1-2.2-0.3c0,0-0.1,0-0.4-0.5c-0.4-0.5-0.3-0.6-0.3-0.6c0-0.6,0.3-1.6,0.5-2.2l1.3-4c0.2-0.6-0.1-1-0.7-0.9l-5.1,0.6	c-0.6,0.1-1.2,0.2-1.4,0.3c-0.1,0.1-0.5,0.9-0.7,1.5l-5.4,16.9c-0.2,0.6-0.3,1.2-0.3,1.3c0,0.1,0.8,0.1,1.4,0.1l2.2-0.2	c0.6,0,1.1-0.1,1.1-0.1S211.5,276.1,211.5,275.9z" class="st4"/></svg>