<?xml version="1.0" encoding="utf-8"?>
<!-- Generator: Adobe Illustrator 16.0.0, SVG Export Plug-In . SVG Version: 6.00 Build 0)  -->
<!DOCTYPE svg PUBLIC "-//W3C//DTD SVG 1.0//EN" "http://www.w3.org/TR/2001/REC-SVG-20010904/DTD/svg10.dtd">
<svg version="1.0" id="Layer_1" xmlns="http://www.w3.org/2000/svg" x="0px" y="0px"
     width="800px" height="800px" viewBox="0 0 800 800" enable-background="new 0 0 800 800" xml:space="preserve">
<path fill="#E4F2FC" d="M516.275,518.031c-4.738,12.389-25.475,55.428-26.168,68.451c-0.818,17.631-2.274,35.014-7.902,51.82
	c-0.314,0.951-0.377,2.463-0.814,3.541c-0.704,0.508-1.396,0.945-2.086,1.39c-0.26,0-0.508-0.13-0.822-0.249
	c-7.084-3.289-11.004,1.891-15.872,4.673c-36.46,21.044-74.068,28.315-113.884,10.11c-6.636-2.968-12.956-9.158-19.595-1.771
	c-0.879-0.441-1.768-0.879-2.586-1.39c0,0,0.056-0.063,0-0.063c-3.542-6.825-9.232-12.193-12.959-19.088
	c24.333-5.561,31.732-19.088,23.444-42.532c-6.191-17.694-18.261-31.028-32.862-42.157c-9.225-6.947-18.958-13.46-27.557-21.044
	c-5.621-4.802-10.996-9.985-14.223-16.62c0.196-2.275,0.444-4.554,0.763-6.824c5.753,0.944,8.784-1.457,8.469-9.418
	c-0.192-4.616,1.393-9.355,2.275-14.034c5.124-27.431,18.521-51.765,29.643-76.913c13.46-30.399,26.801-60.805,32.043-93.982
	c0.441-2.716,2.338-5.942-2.908-6.32c-0.63-0.063-1.327-0.129-1.957-0.129c0.819-2.901,1.449-5.309,1.894-7.073
	c7.584,4.924,15.164,10.807,23.192,17.884c7.714,6.887,17.317,10.048,30.147,9.988c8.851,0,18.706-3.16,27.809-8.914
	c9.67-6.065,18.014-10.744,27.309-14.219c5.498-2.086,10.299-4.739,14.408-8.084c0.314,1.197,0.248,2.649,0.508,3.531
	c11.559,39.054,26.604,76.728,45.248,112.88c11.885,23.074,22.629,46.389,26.168,72.363c0.5,3.605,1.955,4.235,3.979,4.235
	c0.508,2.778,0.951,5.498,1.326,8.091c-9.41,1.957-14.975,6.955-17.754,14.979C514.189,513.544,511.156,516.96,516.275,518.031"/>
    <path fill="#B6DDF5" d="M526.838,542.459c-0.773-1.313-1.424-2.674-2.08-4.214"/>
    <path fill="#FFFFFF" d="M247.581,503.486c1.435-11.322,3.514-22.646,6.236-33.759c2.51-10.247,5.446-20.425,8.959-30.388
	c1.292-3.728,2.436-8.029,4.301-11.469c27.091-48.881,49.094-123.064,57.123-152.091c0.717,0,1.505,0.07,2.222,0.14
	c5.949,0.434,3.797,4.088,3.297,7.167c-5.95,37.629-21.072,72.108-36.338,106.581c-12.616,28.529-27.809,56.121-33.615,87.227
	c-1.004,5.307-2.796,10.682-2.579,15.914C257.544,501.841,254.104,504.564,247.581,503.486"/>
    <path fill="#FFFFFF" d="M304.777,649.991c4.228,7.812,10.681,13.904,14.691,21.643c-2.148-1.071-4.154-2.292-6.233-3.511
	c0,0-0.074,0-0.074-0.073c-5.802-3.653-11.465-7.595-16.771-11.969c-3.153-2.579-6.163-5.302-9.029-8.242
	c-10.464-10.251-19.21-22.29-25.803-35.55c-2.296-4.588-4.301-9.316-6.023-14.121c-3.797-10.317-6.376-21.143-8.028-32.107
	c-0.214-1.218-0.357-2.365-0.5-3.583c-0.144-1.365-0.287-2.653-0.431-4.015c-1.074-9.964-1.431-19.997-1.074-30.031
	c0.143-5.235,0.5-10.394,1.004-15.553c0.07-0.574,0.07-1.078,0.213-1.651c3.657,7.528,9.747,13.403,16.126,18.85
	c9.747,8.603,20.785,15.986,31.249,23.868c16.561,12.616,30.248,27.738,37.272,47.806
	C340.757,628.346,332.372,643.685,304.777,649.991"/>
    <path fill="#FFFFFF" d="M352.656,288.036c-9.103-8.028-17.705-14.695-26.307-20.284c0.791-2.796,1.147-4.301,1.147-4.301
	c0.217-0.361,0.357-0.717,0.574-1.004c0.861-1.648,1.792-3.153,2.866-4.585c1.865-2.796,3.944-5.235,6.163-7.384
	c1.505-1.435,3.013-2.723,4.588-3.871c25.733-19.28,67.447-9.316,99.126,0.073c2.652,0.788,5.162,1.575,7.598,2.292
	c3.01,0.931,5.807,1.792,8.529,2.58c1.648,0.504,3.152,1.074,4.444,1.865c1.647,0.931,3.083,2.005,4.302,3.367
	c0.213,0.144,0.426,0.36,0.643,0.574c1.005,1.148,1.862,2.436,2.58,3.801c4.158,7.595,4.588,17.918,7.598,26.805
	c4.371,12.756,9.104,25.373,14.048,37.916c4.802,12.329,8.673,30.031,16.632,40.782c25.512,34.401,38.271,80.776,44.578,116.184
	c-2.291,0-3.939-0.714-4.514-4.802c-4.016-29.457-16.201-55.904-29.674-82.068c-21.143-40.996-38.204-83.713-51.317-128.009
	c-0.287-1.004-0.218-2.649-0.573-4.014c-4.662,3.801-10.107,6.811-16.344,9.176c-10.535,3.94-19.998,9.246-30.963,16.126
	c-10.32,6.523-21.502,10.107-31.536,10.107C372.293,299.431,361.398,295.848,352.656,288.036"/>
    <path fill="#FFFFFF" d="M491.777,658.523c0.357,0.141,0.645,0.287,0.931,0.287c-23.941,16.197-52.538,27.234-80.489,32.541
	c-5.09,0.931-10.252,1.574-15.41,1.932c-18.709,1.147-35.624-3.511-52.825-10.104c-7.381-2.867-14.622-6.094-21.576-9.895
	c7.528-8.385,14.695-1.357,22.22,2.009c45.157,20.642,87.801,12.399,129.157-11.468
	C479.305,660.672,483.748,654.797,491.777,658.523"/>
    <path fill="#FFFFFF" d="M553.271,492.021c0.643,3.939,1.146,7.594,1.578,11.107c-5.162,1.074-9.246,4.014-10.824,9.964
	c-1.648,6.45-5.807,4.44-9.391,3.728c-5.807-1.219-2.361-5.089-1.504-7.812C536.283,499.902,542.59,494.24,553.271,492.021"/>
    <path fill="#FFFFFF" d="M555.207,564.983c-0.719,4.157-1.648,8.245-2.723,12.329c-1.506,5.662-3.297,11.182-5.52,16.627
	c-4.445,11.111-10.395,21.433-17.563,30.822c-5.662,7.455-12.039,14.335-19.137,20.498c-1.361,1.291-2.865,2.51-4.301,3.727
	c-3.51,2.867-7.168,5.663-10.895,8.242c0.504-1.218,0.574-2.936,0.935-4.011c6.376-19.066,8.024-38.776,8.96-58.774
	c0.787-14.765,3.01-29.387,8.385-43.435c4.801-12.616,13.617-21.142,27.379-25.729c1.004,9.242,1.721,17.918,5.088,25.943
	c0.791,1.865,1.578,3.514,2.51,5.088C550.332,559.895,552.627,562.834,555.207,564.983"/>
    <path fill="#E4F2FC" d="M410.969,144.408c14.334-20.096,39.393-20.82,55.04-1.645c14.972,18.398,15.86,49.818,2.079,69.2
	c-1.484,2.037-2.667,2.632-5.135,1.525c-4.493-2.033-9.151-3.776-13.861-5.431c-2.205-0.801-2.164-1.484-1.016-3.433
	c6.191-10.688,7.038-21.919,2.709-33.493c-0.76-2.079-1.82-4.165-3.133-5.942c-6.107-8.609-15.818-8.903-22.391-0.595
	c-5.855,7.381-7.34,16.032-6.996,25.191c0.035,1.141,1.141,2.667-1.148,2.926c-4.451-1.908-8.864-3.815-13.564-5.005
	c-1.484-0.385-2.59-0.885-2.719-2.887C399.731,170.19,402.275,156.496,410.969,144.408"/>
    <path fill="#2887C8" d="M422.119,194.286c-0.063,0.696-0.28,1.442-0.795,2.173c-0.826,1.162-2.1,1.858-3.808,2.04l-0.938,0.109
	l-0.867-0.371c-4.645-1.984-8.722-3.734-13.037-4.819c-1.283-0.329-5.113-1.316-5.414-6.132
	c-1.267-16.862,2.261-30.843,10.796-42.71c7.57-10.618,18.125-16.673,29.73-17.047c11.611-0.444,22.671,5.012,31,15.203
	c16.039,19.717,17.029,52.709,2.219,73.54c-1.225,1.676-3.037,3.583-5.918,3.583c-1.046,0-2.236-0.252-3.59-0.861
	c-4.753-2.149-9.762-3.972-13.598-5.32c-0.961-0.35-3.117-1.141-3.912-3.353c-0.791-2.208,0.379-4.2,1.001-5.271
	c0.095-0.154,0.188-0.322,0.28-0.486 M451.842,207.458c3.92,1.421,8.336,3.076,12.585,5.012c0.168,0.364,0.368,0.196,0.784-0.378
	c12.816-18.041,11.927-47.75-1.975-64.836c-6.873-8.417-15.825-12.83-25.219-12.582c-9.319,0.308-17.891,5.288-24.134,14.048
	l-0.007,0.014c-7.461,10.366-10.566,22.703-9.498,37.703"/>
    <path fill="#E4F2FC" d="M321.96,152.975c0.553-1.351,1.267-2.715,2.079-3.982c9.411-15.602,25.695-17.051,37.272-2.968
	c9.246,11.283,11.787,24.806,11.451,39.057c-0.042,1.992-1.103,2.534-2.628,3.003c-4.203,1.274-8.014,3.44-11.833,5.561
	c-2.072,0.042-1.313-1.613-1.4-2.593c-0.252-2.201,0.301-4.486-0.336-6.695c-0.637-5.176-2.208-10.006-5.306-14.251
	c-5.642-7.717-13.481-6.828-17.467,2.079c-4.707,10.475-3.181,27.396,6.401,36.383c-1.015,0.809-2.037,1.698-3.094,2.467
	c-6.954,5.208-7.167,5.295-11.661-2.467C315.094,190.677,314.24,172.056,321.96,152.975"/>
    <path fill="#2887C8" d="M342.637,205.964l3.023,2.832l-4.228,3.377c-0.738,0.602-1.477,1.211-2.243,1.764
	c-3.497,2.614-5.806,4.357-8.378,4.357c-0.389,0-0.78-0.042-1.19-0.123c-3.125-0.644-4.774-3.489-7.276-7.811
	c-10.73-18.538-11.969-38.297-3.706-58.722l0.007-0.007c0.633-1.557,1.449-3.097,2.373-4.56
	c5.183-8.588,12.563-13.684,20.757-14.279c7.898-0.581,15.997,3.297,22.307,10.961c8.77,10.713,12.669,23.872,12.256,41.405
	c-0.102,4.809-3.913,5.971-5.169,6.349c-3.692,1.12-7.119,3.027-10.744,5.047l-0.773,0.43l-1.278,0.231
	c-1.97,0.014-3.23-0.78-3.898-1.491c-1.417-1.537-1.239-3.447-1.158-4.266c-0.088-1.054-0.066-2.135-0.039-3.227
	c0.039-1.13,0.066-2.114-0.158-2.88c-0.731-5.589-2.243-9.705-4.752-13.131 M360.433,188.399c2.817-1.491,5.627-2.81,8.658-3.738
	c0.035-0.007,0.067-0.014,0.095-0.014c0.301-15.623-3.083-27.141-10.639-36.358c-4.767-5.799-10.548-8.732-16.253-8.365
	c-5.806,0.423-11.206,4.301-15.188,10.909c-0.739,1.169-1.361,2.324-1.834,3.486c-7.392,18.283-6.292,35.928,3.262,52.458
	c0.773,1.34,1.869,3.223,2.565,4.119c0.917-0.529,2.516-1.726,3.853-2.723c0.007-0.007,0.014-0.014,0.014-0.014"/>
    <path fill="#2887C8" d="M336.96,191.423c1.729,10.317,9.561,16.085,13.124,16.925c4.938,1.169,6.086-9.74,5.942-20.197
	c-0.123-8.473-5.04-18.664-12.193-17.166C338.867,172.031,335.231,181.113,336.96,191.423"/>
    <path fill="#2887C8" d="M554.775,482.705c-1.074,0.069-2.078,0.14-3.01,0.14c-2.295,0-3.939-0.714-4.514-4.802
	c-4.016-29.457-16.201-55.904-29.674-82.065c-21.143-41-38.204-83.717-51.32-128.009c-0.284-1.004-0.215-2.653-0.57-4.014
	c-0.435-1.648-1.579-2.866-4.876-1.722c0.287-0.287,0.501-0.574,0.788-0.857c1.074-1.221,2.222-2.513,3.369-3.73
	c0.501-0.14,0.932-0.213,1.361-0.287c2.437-0.427,4.371-0.357,5.95,0.287c2.866,1.148,4.585,4.088,6.02,9.033
	c13.403,46.662,32.183,91.171,54.687,134.176c12.4,23.651,21.789,48.38,25.59,74.971
	C559.15,479.548,560.082,482.418,554.775,482.705"/>
    <path fill="#E4F0CC" d="M696.477,681.671c-0.789,0.647-1.506,1.222-2.293,1.792c-9.391,6.884-19.854,11.829-30.031,17.274
	c-18.35,9.89-35.406,21.289-49.172,37.342c-11.895,13.908-26.303,24.729-44.652,32.397c-1.719,0.573-4.729,1.508-7.881,2.365
	c-18.566,5.306-34.619,0.718-45.514-12.543c-0.936-1.004-1.723-2.005-2.439-3.083c-3.584-5.089-5.662-10.464-6.52-16.127
	c-0.861-4.658-0.861-9.46-0.361-14.475c1.578-14.766,5.662-28.957,10.107-43.005c5.949-18.779,11.182-37.629,11.611-57.486
	c0-0.427,0-0.931,0.07-1.357c0.217-7.385,1.219-14.622,2.152-21.863c1.648-12.616,4.016-25.012,9.816-36.338
	c0.287-0.717,0.648-1.364,1.006-2.008c1.791-3.224,3.797-6.02,5.949-8.242c2.006,3.584,4.301,6.523,6.881,8.672
	c7.023,6.023,16.199,7.024,28.025,3.227c5.732-1.865,11.037-4.444,16.053-7.668c0.861,0.501,1.723,1.002,2.582,1.575
	c2.867,1.862,5.877,3.44,8.961,4.589c6.52,2.509,13.473,3.439,20.783,2.936c5.59-0.287,11.182-0.574,16.697-0.287
	c0.936,0.074,1.865,0.147,2.727,0.287c5.59,0.647,10.252,2.652,14.049,5.949c3.51,2.94,6.236,6.954,8.242,12.043
	c2.148,5.445,3.582,11.182,4.73,16.914c0.645,3.227,1.361,6.38,2.223,9.463c2.58,9.316,6.52,17.989,13.762,25.227
	c2.648,2.652,4.727,5.949,6.666,9.319c0.5,0.788,1,1.505,1.432,2.293C709.307,663.325,707.658,672.571,696.477,681.671"/>
    <path fill="#2887C8" d="M244.07,502.555h0.14v0.287l-0.284-0.357C243.997,502.484,243.997,502.484,244.07,502.555"/>
    <path fill="#2887C8" d="M329.719,283.087c-5.95,37.629-21.072,72.108-36.338,106.581c-12.616,28.529-27.809,56.121-33.615,87.227
	c-1.004,5.307-2.796,10.682-2.583,15.914c0.36,9.032-3.08,11.756-9.604,10.678c-1.074-0.214-2.149-0.501-3.37-0.932
	c2.653-31.535,12.403-60.85,25.59-89.449c17.918-38.703,36.768-77.12,46.084-119.12c1.004-4.301,2.509-8.602,2.509-12.903
	c0.073-5.302,2.579-5.589,5.806-5.302c0.717,0,1.505,0.07,2.222,0.14C332.372,276.354,330.219,280.008,329.719,283.087"/>
    <path fill="#2887C8" d="M481.648,725.788c-2.918,1.478-0.867,9.583-8.322,6.068c-31.865-15.021-64.527-9.827-97.197-3.598
	c-11.255,2.149-22.507,4.294-33.688,6.762c-4.444,0.979-6.219-0.519-6.558-4.773c-0.235-2.968-1.505-5.964,3.335-6.72
	c28.589-4.441,56.58-12.729,85.851-12.784c17.744-0.035,34.941,2.271,51.188,9.768C481.205,722.793,481.727,723.349,481.648,725.788
	"/>
    <path fill="#2887C8" d="M583.025,452.334c-0.041,10.135-1.127,20.096-4.084,29.859c-1.033,3.395-2.051,5.761-6.072,3.584
	c-2.559-1.393-6.758-0.609-5.246-6.331c11.764-44.437-5.609-80.115-34.525-112.075c-3.957-4.381-6.025-7.772,0.574-11.563
	c2.492-1.431,3.578-1.34,5.74,0.641C563.938,378.875,582.883,420.294,583.025,452.334"/>
    <path fill="#2887C8" d="M628.029,541.332c-3.371-0.07-8.816,0.791-8.604-5.732c0.145-3.941-1.291-7.455-4.227-9.891
	c-15.84-13.26-33.402-22.65-54.617-23.077c-2.006-0.073-3.945,0.14-5.736,0.501c-5.158,1.074-9.242,4.014-10.82,9.963
	c-1.648,6.45-5.807,4.441-9.391,3.725c-5.807-1.219-2.365-5.089-1.504-7.812c3.152-9.103,9.459-14.766,20.141-16.987
	c3.652-0.788,7.74-1.145,12.398-1.145c20.141,2.005,40.352,11.182,57.701,26.517c4.941,4.375,7.811,10.251,7.594,17.058
	C630.895,536.961,632.756,541.479,628.029,541.332"/>
    <path fill="#2887C8" d="M658.963,538.364c-1.109,3.038-0.406,8.959-7.398,6.369c-5.67-2.093-5.467-4.809-3.695-9.781
	c9.574-27.001,6.859-53.794-2.303-80.256c-12.824-36.988-32.961-69.903-56.672-100.81c-14.957-19.514-30.576-38.504-44.381-58.928
	c-16.686-24.743-25.236-51.499-24.986-81.705c0.244-31.931,1.686-64.104-5.965-95.626c-2.135-8.875-4.721-17.548-8.297-25.933
	c-13.275-31.147-36.699-49.353-70.236-53.791c-20.547-2.716-41.09-1.606-61.144,4.192c-33.943,9.778-54.084,32.712-62.263,66.53
	c-4.438,18.454-5.999,37.233-4.522,56.219v27.207c0,15.413,0.042,30.822,0.042,46.231c0.042,2.551,0.084,5.096,0.123,7.647
	c-5.176,32.341-18.78,60.738-39.372,86.215c-26.707,33.002-52.437,66.782-71.335,105.163c-14.961,30.409-23.962,62.177-20.76,96.54
	c0.417,4.347,0.123,6.649-5.096,7.388c-5.789,0.822-5.834-2.257-6.286-6.201c-3.653-33.534,4.357-64.931,18.083-95.099
	c19.561-43.025,48.244-80.136,77.589-116.67c18.986-23.71,31.4-50.091,35.792-80.175c2.919-19.802,1.155-39.701-0.042-59.544
	c-1.354-22.279-1.764-44.513,2.387-66.537c10.811-57.49,45.451-87.944,104.015-91.563c14.541-0.907,29.059-0.613,43.313,2.509
	c35.551,7.769,58.764,29.67,71.961,63.037c10.314,26.139,12.9,53.587,13.395,81.333c0.287,15.161,0.826,30.371,0.496,45.535
	c-0.496,22.643,5.914,43.064,17.59,62.256c13.395,21.947,29.705,41.717,45.447,61.893c27.088,34.724,50.221,71.751,63.783,113.997
	C666.977,483.258,668.748,510.877,658.963,538.364"/>
    <path fill="#E4F0CC" d="M319.024,226.203c3.426-2.782,7.101-5.264,10.615-7.965c5.179-3.976,10.622-7.619,15.367-12.2
	c21.75-21.019,43.799-24.526,70.211-9.715c13.395,7.532,27.48,12.886,41.65,18.367c4.112,1.585,8.092,3.507,11.561,6.289
	c8.213,6.677,10.229,15.539,5.305,24.921c-5.693,10.916-15.107,18.017-26.283,22.216c-11.434,4.238-21.705,10.23-31.889,16.61
	c-9.467,5.949-19.781,9.372-29.199,9.246c-12.459,0-22.136-2.782-30.14-9.936c-8.773-7.791-17.932-15.024-27.822-21.401
	c-6.426-4.193-11.728-9.764-14.475-17.211C311.059,237.721,312.686,231.341,319.024,226.203"/>
    <path fill="#2887C8" d="M471.776,216.792c-1.075-0.861-2.22-1.722-3.511-2.509c-1.004-0.574-2.005-1.218-3.152-1.792
	c-1.865-1.004-4.015-1.862-6.307-2.796l-1.652-0.644c-3.871-1.505-7.668-2.939-11.395-4.444c-0.07,0-0.145-0.074-0.214-0.074
	c-1.147-0.427-2.222-0.931-3.37-1.358c-7.742-3.157-15.266-6.597-22.721-10.611c-0.574-0.287-1.074-0.644-1.648-0.931
	c-0.287-0.144-0.644-0.357-0.931-0.5c-0.36-0.213-0.718-0.36-1.005-0.5c-6.092-3.297-11.969-5.663-17.701-7.098
	c-1.222-0.287-2.366-0.574-3.584-0.717c-7.167-1.361-14.051-1.292-20.788,0.213c-1.218,0.217-2.366,0.574-3.584,0.935
	c-5.375,1.579-10.607,4.084-15.84,7.598c-1.218,0.714-2.366,1.575-3.51,2.366c-3.227,2.436-6.45,5.158-9.606,8.242
	c-0.861,0.788-1.718,1.575-2.58,2.292c-0.357,0.357-0.787,0.717-1.148,1.004c-0.5,0.43-1.074,0.857-1.575,1.292
	c-1.648,1.357-3.44,2.649-5.232,4.011c-1.505,1.078-2.87,2.152-4.301,3.156c0,0.07-0.073,0.07-0.073,0.07
	c-0.931,0.717-1.862,1.361-2.793,2.079c-0.431,0.357-0.931,0.718-1.435,1.075c-2.149,1.578-4.371,3.153-6.45,4.875
	c-5.589,4.515-8.459,10.034-8.529,16.27c0,0.718,0.07,1.505,0.07,2.362c0.287,2.152,0.791,4.301,1.648,6.597
	c2.939,7.885,8.529,14.548,16.631,19.924c0.287,0.217,0.57,0.357,0.857,0.574c8.602,5.592,17.204,12.256,26.307,20.284
	c8.742,7.812,19.637,11.395,34.189,11.325c10.033,0,21.215-3.584,31.536-10.107c10.965-6.88,20.428-12.186,30.963-16.126
	c6.236-2.366,11.682-5.375,16.344-9.176c1.144-0.857,2.219-1.792,3.223-2.793c1.218-1.078,2.292-2.296,3.37-3.514
	c2.366-2.793,4.515-5.876,6.236-9.246C484.536,236.933,482.027,225.104,471.776,216.792 M386.771,288.61
	c-11.896-0.144-20.284-2.583-27.021-8.603c-9.747-8.672-19.067-15.84-28.453-21.859c-0.144-0.073-0.217-0.144-0.36-0.287
	c-5.876-3.944-9.964-8.746-11.969-14.334c-0.717-1.866-1.004-3.514-1.004-5.019c0-3.153,1.435-5.732,4.445-8.168
	c1.935-1.579,4.014-3.083,6.02-4.519c1.505-1.144,3.01-2.222,4.518-3.296c1.361-1.075,2.723-2.149,4.154-3.153
	c3.083-2.296,6.31-4.658,9.39-7.384c0.717-0.644,1.508-1.358,2.222-2.079c1.362-1.288,2.653-2.506,4.014-3.653
	c10.538-9.103,21.072-13.544,32.11-13.544c8.746,0,17.918,2.792,27.738,8.312c3.01,1.648,6.02,3.227,9.104,4.731
	c5.088,2.51,10.25,4.802,15.409,6.881c5.446,2.292,10.896,4.371,16.196,6.45l1.652,0.574c4.371,1.722,7.594,3.44,10.104,5.519
	c6.311,5.088,7.598,11.251,3.944,18.206c-1.935,3.797-4.515,7.167-7.598,10.034c-4.231,4.084-9.534,7.311-15.771,9.677
	c-12.042,4.441-22.934,10.821-32.896,17.058C404.047,285.601,394.87,288.61,386.771,288.61"/>
    <path fill="#2887C8" d="M465.368,240.734c-9.116,2.786-16.865,8.305-25.002,13.1c-9.803,5.778-19.819,11.216-30.612,15.108
	c-22.51,8.225-43.06,4.333-62.113-9.631c-6.678-4.872-12.414-10.828-18.706-16.134c-2.523-2.1-0.301-4.501-1.585-7.325
	c5.012,1.417,7.318,4.371,9.971,6.807c7.241,6.761,14.73,13.232,23.553,17.978c19.087,10.279,37.877,7.455,56.587-1.197
	c11.475-5.302,22.09-12.2,33.006-18.493c4.241-2.394,8.479-4.794,13.273-5.949c1.109-0.256,3.08-1.327,3.21,0.983
	C466.996,237.521,468.619,239.75,465.368,240.734"/>
    <path fill="#E4F0CC" d="M340.799,732.599c-4.479,18.993-18.521,30.874-39.635,33.076c-3.282,0.36-6.523,0.56-8.399,0.683
	c-20.277-0.322-38.119-5.117-54.638-13.8c-19.196-10.041-39.673-14.443-60.874-16.845c-11.717-1.315-23.56-2.04-35.043-4.994
	c-0.952-0.279-1.915-0.56-2.873-0.836c-14.041-4.402-19.158-12.567-17.037-27.158c0.717-4.801,1.354-9.684,3.275-14.128
	c5.52-12.795,4.48-25.831,2.044-38.99c-1.085-5.88-1.886-11.843-1.925-17.842c-0.077-12.477,5.442-21.601,16.837-26.832
	c5.12-2.366,10.524-4.203,15.92-6.002c10.478-3.437,19-9.438,25.436-18.44c4.081-5.684,8.2-11.318,12.725-16.634
	c12.837-15.004,29.313-16.288,44.635-3.644c10.758,8.837,18.157,20.313,24.838,32.32c3.877,6.915,7.797,13.873,10.916,21.194
	c7.961,18.72,20.082,34.64,32.799,50.192c9.561,11.683,18.8,23.603,25.916,36.999C340.999,710.96,343.48,721.28,340.799,732.599"/>
    <path fill="#2887C8" d="M325.274,681.313c1.579-4.087-2.723-4.231-4.228-6.306c-0.431-1.148-0.931-2.227-1.579-3.301
	c0,0,0.074-0.07,0-0.07c-4.011-7.741-10.464-13.834-14.691-21.646c27.595-6.307,35.98-21.646,26.591-48.236
	c-7.024-20.071-20.715-35.193-37.272-47.807c-10.464-7.885-21.502-15.269-31.249-23.868c-6.38-5.449-12.469-11.324-16.126-18.853
	c-1.292-2.724-2.292-5.589-2.866-8.743l0.357,0.357c-0.07-0.07-0.14-0.213-0.14-0.287c-7.097-11.395-6.74-24.081-4.949-36.407
	c4.015-27.021,14.265-51.82,27.525-75.475c2.223-3.94,3.51-6.306-1.578-9.53c-6.02-3.801-6.811,0.714-8.672,3.941
	c-8.603,14.909-15.266,30.749-20.715,47.088c-14.191,42.361-12.256,70.383,9.82,96.26c7.598,8.887,17.562,17.563,30.174,26.521
	c11.325,8.024,22.507,16.196,31.323,27.091c7.167,9.029,12.973,18.85,15.479,30.248c1.652,7.812,1.222,15.122-5.158,21.572
	c-4.732,4.802-13.761-0.217-16.844,8.242c-0.788,2.223-2.005,1.865-12.613-12.757c-4.014-5.449-7.885-11.038-11.398-16.917
	c-0.14-0.214-0.287-0.427-0.427-0.645c-5.019-8.603-9.463-17.487-14.048-26.304c-4.805-9.176-9.677-18.349-15.413-27.021
	c-0.07-0.213-0.213-0.36-0.357-0.574c-5.663-8.528-11.899-16.27-20.571-21.789c-10.895-7.023-21.146-8.959-30.532-5.949
	c-6.593,2.079-12.83,6.597-18.636,13.617c-3.083,3.657-6.163,7.168-8.746,11.111c-7.741,11.826-18.062,19.137-31.609,23.582
	c-28.166,9.39-35.263,22.002-30.245,51.39c2.509,15.122,2.653,29.674-2.579,44.723c-8.315,23.868-0.788,38.707,21.072,44.943
	c2.222,0.57,4.515,1.145,7.024,1.575c1.648,0.356,3.297,0.504,5.015,0.717c33.905,3.584,67.16,9.104,98.051,25.373
	c13.404,7.024,28.884,9.104,44.153,8.96c19.21-0.073,34.332-7.668,43.435-19.354c9.89-12.543,12.756-30.102,6.163-48.38
	C327.427,686.042,326.422,683.68,325.274,681.313 M315.097,726.25c-1.292,2.079-2.653,3.944-4.228,5.593
	c-8.603,9.39-20.498,12.256-31.036,12.899c-17.918-0.713-32.754-3.223-45.871-10.177c-27.739-14.909-57.7-20.067-88.375-23.15
	c-4.658-0.501-9.39-1.218-13.978-2.149c-3.727-0.787-7.024-1.722-9.673-2.865c-10.324-4.445-12.974-12.043-8.245-25.734
	c6.307-18.275,6.167-36.051,3.297-54.76c-3.367-22.434,0.717-29.026,22.22-36.121c16.057-5.231,28.887-13.978,38.059-28.238
	c1.648-2.583,3.654-4.876,5.519-7.241c4.371-5.376,8.746-9.247,13.261-11.469c9.747-4.872,19.854-1.862,30.749,9.177
	c0.213,0.213,0.43,0.427,0.574,0.644c11.395,11.755,18.919,26.447,25.874,40.926c0.717,1.578,1.505,3.083,2.292,4.588
	c8.815,17.775,19.497,34.188,31.823,49.672c0.935,1.144,1.865,2.362,2.796,3.51c8.603,10.464,16.701,21.142,23.511,32.827
	C321.834,698.084,323.913,712.133,315.097,726.25"/>
    <path fill="#2887C8" d="M700.707,648.557c-1.004-4.011-3.297-8.386-6.811-13.113c-5.158-6.954-9.676-14.049-13.617-21.433
	c-6.668-12.112-11.682-24.869-15.195-38.417c-0.645-2.078-1.145-4.157-1.648-6.306c-0.432-2.296-1.506-4.445-2.652-6.524
	c0-0.069-0.07-0.069-0.07-0.143c-9.316-16.988-36.77-22.003-51.391-9.46c-3.227,2.723-6.523,5.231-10.037,7.381
	c-5.016,3.227-10.32,5.806-16.053,7.668c-11.826,3.801-21.002,2.796-28.025-3.224c-2.58-2.152-4.873-5.088-6.881-8.672
	c-0.932-1.578-1.719-3.227-2.51-5.089c-3.367-8.028-4.084-16.7-5.088-25.946c-13.762,4.588-22.578,13.116-27.379,25.729
	c-5.375,14.052-7.598,28.67-8.385,43.435c-0.936,19.998-2.58,39.708-8.96,58.774c-0.36,1.075-0.431,2.793-0.935,4.015
	c-0.357,1.145-1.074,1.861-2.362,1.574c-0.286,0-0.573-0.143-0.935-0.287c-8.025-3.727-12.469,2.152-17.988,5.307
	c-41.356,23.867-84,32.109-129.157,11.468c-7.524-3.37-14.692-10.394-22.22-2.009c-0.431,0.504-0.931,1.078-1.361,1.723
	c-0.144,3.223,3.227,3.94,4.231,6.306c3.297-2.509,5.659,0.218,8.242,1.575c28.813,15.34,59.201,18.779,91.097,12.616
	c24.152-4.731,45.728-15.122,67.443-29.601c-2.866,13.044-6.09,24.299-7.668,35.907c-2.006,14.191,1.004,27.165,7.455,37.56
	c5.875,9.459,14.549,16.771,25.086,20.928c9.459,3.728,20.428,4.802,31.967,2.436c22.146-4.44,40.137-15.982,54.686-32.396
	c15.697-17.845,34.477-30.818,55.834-40.782c8.242-3.797,16.271-8.099,24.156-12.687
	C697.697,668.554,703.787,659.812,700.707,648.557 M668.598,671.711c-29.961,14.621-57.627,31.393-80.064,56.908
	c-11.969,13.548-28.309,21.716-46.943,23.364c-13.549,1.222-25.301-3.01-33.615-10.895c-0.074-0.069-0.215-0.144-0.287-0.214
	c-9.461-8.959-14.336-22.72-11.9-38.416c3.084-19.497,9.465-38.203,14.479-57.199c0.361-1.145,0.648-2.293,0.932-3.437
	c5.662-22.724,3.584-46.375,8.102-69.239c2.006-9.82,3.941-19.783,11.395-27.668c2.941,6.31,5.232,12.689,8.529,18.353
	c0.719,1.144,1.361,2.292,2.152,3.296c3.223,4.585,6.951,8.169,11.109,10.752c8.385,5.229,18.635,6.376,29.961,3.223
	c10.391-2.796,19.854-7.524,28.383-13.834c1.791-1.288,3.51-2.649,5.158-4.084c10.895-9.173,28.742-5.449,35.049,7.023
	c0.432,0.645,0.719,1.291,1.004,2.009c1.219,3.08,2.223,6.233,3.08,9.46c1.365,4.515,2.51,9.033,3.584,13.688
	c3.084,13.047,8.889,24.516,17.633,34.766C695.402,652.141,694.541,659.168,668.598,671.711"/>
    <path fill="#2887C8" d="M449.41,187.286c0,11.024-5.377,19.956-12.004,19.956c-6.633,0-12.002-8.931-12.002-19.956
	c0-11.021,5.369-19.952,12.002-19.952C444.033,167.334,449.41,176.266,449.41,187.286"/>
</svg>
