<?xml version="1.0" encoding="utf-8"?>
<!-- Generator: Adobe Illustrator 16.0.0, SVG Export Plug-In . SVG Version: 6.00 Build 0)  -->
<!DOCTYPE svg PUBLIC "-//W3C//DTD SVG 1.1//EN" "http://www.w3.org/Graphics/SVG/1.1/DTD/svg11.dtd">
<svg version="1.1" id="Layer_1" xmlns="http://www.w3.org/2000/svg" x="0px" y="0px"
     width="800px" height="800px" viewBox="0 0 800 800" enable-background="new 0 0 800 800" xml:space="preserve">
<g>
	<polygon fill="#E4F0CC" points="261.074,768.335 356.27,554.076 293.282,554.076 394.04,327.353 302.849,327.353 587.988,32.6
		487.257,259.287 550.236,259.287 455.031,473.546 546.224,473.546 	"/>
</g>
    <g>
	<path fill="#B1D465" d="M218.276,775.464c-1.393,0-2.776-0.397-3.993-1.218c-2.87-1.929-3.929-5.647-2.534-8.806l90.728-204.232
		h-51.99c-2.416,0-4.672-1.217-5.982-3.245c-1.318-2.026-1.513-4.584-0.539-6.788l96.292-216.692h-80.205
		c-2.862,0-5.462-1.709-6.577-4.346c-1.105-2.633-0.539-5.684,1.45-7.742l285.14-294.749c2.403-2.504,6.26-2.894,9.11-0.961
		c2.869,1.941,3.94,5.646,2.535,8.813l-96.271,216.656h52.01c2.411,0,4.652,1.227,5.978,3.25c1.319,2.025,1.509,4.574,0.54,6.779
		l-90.755,204.222h80.204c2.861,0,5.463,1.716,6.576,4.348c1.115,2.645,0.54,5.69-1.446,7.751L223.405,773.296
		C222.021,774.73,220.143,775.464,218.276,775.464 M261.463,546.942h52.001c2.414,0,4.653,1.216,5.98,3.242
		c1.311,2.024,1.514,4.573,0.529,6.789l-78.842,177.461l245.475-253.763h-74.373c-2.415,0-4.671-1.216-5.98-3.239
		c-1.319-2.028-1.523-4.584-0.537-6.783l90.756-204.23h-52.009c-2.417,0-4.654-1.218-5.983-3.241
		c-1.308-2.03-1.503-4.579-0.528-6.785l84.375-189.899L276.88,320.216h74.355c2.414,0,4.672,1.229,5.981,3.245
		c1.319,2.025,1.524,4.583,0.549,6.789L261.463,546.942z"/>
</g>
</svg>
