<?xml version="1.0" encoding="utf-8"?>
<!-- Generator: Adobe Illustrator 16.0.0, SVG Export Plug-In . SVG Version: 6.00 Build 0)  -->
<!DOCTYPE svg PUBLIC "-//W3C//DTD SVG 1.0//EN" "http://www.w3.org/TR/2001/REC-SVG-20010904/DTD/svg10.dtd">
<svg version="1.0" id="Layer_1" xmlns="http://www.w3.org/2000/svg" x="0px" y="0px"
     width="800px" height="800px" viewBox="0 0 800 800" enable-background="new 0 0 800 800" xml:space="preserve">
<g>
	<polygon fill="#E4F0CC" points="331.083,528.527 389.841,396.279 350.963,396.279 413.154,256.337 356.868,256.337 532.867,74.405
		470.691,214.324 509.564,214.324 450.801,346.573 507.088,346.573 	"/>
</g>
    <g>
	<path fill="#B1D465" d="M304.667,532.928c-0.86,0-1.714-0.246-2.465-0.752c-1.771-1.191-2.425-3.486-1.564-5.436l56-126.059h-32.09
		c-1.491,0-2.884-0.751-3.692-2.003c-0.814-1.25-0.934-2.829-0.333-4.19l59.435-133.75h-49.506c-1.766,0-3.371-1.055-4.059-2.683
		c-0.682-1.625-0.333-3.508,0.895-4.778l175.999-181.93c1.484-1.545,3.863-1.786,5.623-0.593c1.771,1.198,2.432,3.485,1.565,5.44
		l-59.423,133.728h32.102c1.49,0,2.872,0.757,3.691,2.006c0.814,1.25,0.93,2.823,0.333,4.185L431.16,342.167h49.506
		c1.766,0,3.371,1.058,4.059,2.683c0.688,1.631,0.333,3.511-0.894,4.784L307.832,531.59
		C306.978,532.475,305.819,532.928,304.667,532.928 M331.323,391.876h32.097c1.49,0,2.872,0.751,3.691,2.001
		c0.809,1.25,0.935,2.823,0.327,4.19l-48.664,109.536l151.516-156.631h-45.906c-1.49,0-2.883-0.751-3.691-2
		c-0.814-1.252-0.94-2.829-0.332-4.188l56.018-126.058h-32.102c-1.491,0-2.873-0.751-3.692-2c-0.809-1.253-0.929-2.826-0.327-4.188
		l52.08-117.213L340.839,251.932h45.895c1.49,0,2.883,0.759,3.692,2.003c0.814,1.25,0.94,2.829,0.338,4.19L331.323,391.876z"/>
</g>
    <g>
	<path fill="#2887C8" d="M28.228,665.057v-81.268H45.46v67.037h32.963v14.23H28.228z"/>
        <path fill="#2887C8" d="M86.045,586.846c0-5.521,3.075-8.283,9.228-8.283c6.151,0,9.227,2.762,9.227,8.283
		c0,2.631-0.77,4.678-2.307,6.143c-1.538,1.463-3.845,2.195-6.92,2.195C89.121,595.184,86.045,592.404,86.045,586.846z
		 M103.722,665.057H86.768V602.91h16.954V665.057z"/>
        <path fill="#2887C8" d="M143.138,652.66c2.964,0,6.522-0.648,10.673-1.945v12.617c-4.225,1.891-9.413,2.836-15.564,2.836
		c-6.782,0-11.72-1.713-14.814-5.143c-3.094-3.426-4.642-8.568-4.642-15.424v-29.963h-8.115v-7.17l9.338-5.67l4.892-13.119h10.839
		v13.23h17.399v12.729h-17.399v29.963c0,2.408,0.676,4.188,2.029,5.336C139.126,652.086,140.915,652.66,143.138,652.66z"/>
        <path fill="#2887C8" d="M189.946,666.168c-10.006,0-17.825-2.76-23.458-8.283c-5.633-5.521-8.449-13.34-8.449-23.457
		c0-10.412,2.603-18.463,7.81-24.152c5.206-5.688,12.405-8.533,21.596-8.533c8.783,0,15.62,2.502,20.512,7.504
		c4.892,5.004,7.337,11.916,7.337,20.734v8.227h-40.078c0.185,4.818,1.612,8.58,4.28,11.285c2.668,2.705,6.411,4.057,11.229,4.057
		c3.742,0,7.282-0.389,10.617-1.166c3.335-0.779,6.818-2.02,10.451-3.725v13.119c-2.965,1.482-6.134,2.584-9.505,3.307
		C198.914,665.807,194.8,666.168,189.946,666.168z M187.556,613.805c-3.595,0-6.412,1.141-8.449,3.418
		c-2.039,2.279-3.206,5.514-3.502,9.701h23.791c-0.075-4.188-1.167-7.422-3.28-9.701
		C194.004,614.945,191.15,613.805,187.556,613.805z"/>
        <path fill="#2887C8" d="M273.945,642.488c0,7.338-2.641,13.117-7.921,17.342s-12.628,6.338-22.04,6.338
		c-8.672,0-16.343-1.631-23.013-4.893v-16.008c5.484,2.445,10.125,4.168,13.925,5.17c3.798,1,7.272,1.5,10.422,1.5
		c3.78,0,6.679-0.723,8.699-2.168c2.02-1.445,3.03-3.594,3.03-6.447c0-1.594-0.445-3.012-1.334-4.254
		c-0.889-1.24-2.195-2.436-3.918-3.584c-1.724-1.148-5.235-2.982-10.534-5.504c-4.966-2.334-8.69-4.576-11.173-6.727
		c-2.483-2.148-4.466-4.648-5.948-7.504c-1.482-2.854-2.224-6.188-2.224-10.006c0-7.188,2.437-12.84,7.31-16.953
		c4.873-4.113,11.608-6.17,20.206-6.17c4.225,0,8.255,0.5,12.09,1.5c3.835,1.002,7.846,2.41,12.035,4.225l-5.559,13.396
		c-4.335-1.777-7.921-3.02-10.756-3.725c-2.835-0.703-5.624-1.055-8.366-1.055c-3.262,0-5.763,0.76-7.504,2.279
		c-1.742,1.52-2.612,3.502-2.612,5.947c0,1.52,0.352,2.844,1.056,3.975c0.703,1.131,1.825,2.223,3.363,3.279
		c1.537,1.057,5.178,2.955,10.923,5.697c7.596,3.633,12.803,7.273,15.62,10.924C272.536,632.715,273.945,637.189,273.945,642.488z"
        />
        <path fill="#2887C8" d="M317.032,666.168c-7.301,0-13.026-2.648-17.176-7.949h-0.89c0.592,5.189,0.89,8.189,0.89,9.006v25.18
		h-16.954V602.91h13.786l2.39,8.061h0.778c3.965-6.152,9.839-9.229,17.621-9.229c7.338,0,13.082,2.836,17.232,8.506
		c4.15,5.67,6.226,13.545,6.226,23.623c0,6.635-0.973,12.396-2.918,17.289c-1.945,4.891-4.716,8.615-8.31,11.172
		C326.111,664.889,321.886,666.168,317.032,666.168z M312.029,615.307c-4.188,0-7.246,1.287-9.172,3.863
		c-1.927,2.576-2.928,6.828-3.001,12.756v1.834c0,6.672,0.991,11.451,2.974,14.342c1.982,2.891,5.123,4.336,9.422,4.336
		c7.596,0,11.396-6.262,11.396-18.787c0-6.115-0.937-10.701-2.807-13.758C318.968,616.834,316.032,615.307,312.029,615.307z"/>
        <path fill="#2887C8" d="M378.63,666.168c-10.006,0-17.825-2.76-23.458-8.283c-5.633-5.521-8.449-13.34-8.449-23.457
		c0-10.412,2.603-18.463,7.81-24.152c5.206-5.688,12.405-8.533,21.596-8.533c8.783,0,15.62,2.502,20.512,7.504
		c4.891,5.004,7.337,11.916,7.337,20.734v8.227h-40.078c0.185,4.818,1.612,8.58,4.28,11.285c2.668,2.705,6.411,4.057,11.229,4.057
		c3.742,0,7.282-0.389,10.617-1.166c3.335-0.779,6.818-2.02,10.451-3.725v13.119c-2.965,1.482-6.134,2.584-9.505,3.307
		C387.598,665.807,383.484,666.168,378.63,666.168z M376.24,613.805c-3.595,0-6.412,1.141-8.449,3.418
		c-2.039,2.279-3.206,5.514-3.502,9.701h23.791c-0.075-4.188-1.167-7.422-3.28-9.701
		C382.688,614.945,379.833,613.805,376.24,613.805z"/>
        <path fill="#2887C8" d="M441.45,666.168c-10.006,0-17.825-2.76-23.458-8.283c-5.633-5.521-8.449-13.34-8.449-23.457
		c0-10.412,2.604-18.463,7.811-24.152c5.205-5.688,12.404-8.533,21.596-8.533c8.782,0,15.619,2.502,20.512,7.504
		c4.891,5.004,7.337,11.916,7.337,20.734v8.227H426.72c0.185,4.818,1.612,8.58,4.28,11.285s6.41,4.057,11.229,4.057
		c3.742,0,7.281-0.389,10.617-1.166c3.335-0.779,6.818-2.02,10.45-3.725v13.119c-2.966,1.482-6.134,2.584-9.505,3.307
		C450.418,665.807,446.305,666.168,441.45,666.168z M439.061,613.805c-3.596,0-6.412,1.141-8.449,3.418
		c-2.039,2.279-3.207,5.514-3.502,9.701H450.9c-0.075-4.188-1.168-7.422-3.28-9.701
		C445.508,614.945,442.654,613.805,439.061,613.805z"/>
        <path fill="#2887C8" d="M495.821,666.168c-7.302,0-13.035-2.836-17.204-8.504c-4.169-5.67-6.254-13.527-6.254-23.57
		c0-10.189,2.121-18.129,6.365-23.818c4.242-5.688,10.089-8.533,17.537-8.533c7.818,0,13.785,3.039,17.899,9.117h0.556
		c-0.854-4.633-1.278-8.764-1.278-12.396v-19.9h17.009v86.494h-13.007l-3.279-8.061h-0.723
		C509.588,663.111,503.715,666.168,495.821,666.168z M501.77,652.66c4.336,0,7.512-1.26,9.533-3.779
		c2.019-2.52,3.121-6.801,3.307-12.842v-1.834c0-6.67-1.028-11.451-3.085-14.342s-5.401-4.336-10.033-4.336
		c-3.78,0-6.718,1.604-8.811,4.809c-2.095,3.207-3.141,7.865-3.141,13.98s1.056,10.701,3.169,13.758
		C494.82,651.131,497.84,652.66,501.77,652.66z"/>
</g>
    <g>
	<path fill="#2887C8" d="M570.348,665.057h-9.45v-72.875H535.16v-8.393h60.924v8.393h-25.736V665.057z"/>
        <path fill="#2887C8" d="M626.969,666.168c-9.006,0-16.112-2.742-21.318-8.227c-5.207-5.484-7.81-13.1-7.81-22.846
		c0-9.82,2.418-17.621,7.254-23.402s11.33-8.672,19.483-8.672c7.634,0,13.674,2.51,18.121,7.531s6.671,11.646,6.671,19.873v5.836
		h-41.969c0.186,7.152,1.992,12.582,5.42,16.287c3.428,3.707,8.255,5.559,14.48,5.559c6.56,0,13.044-1.371,19.455-4.113v8.227
		c-3.261,1.41-6.346,2.418-9.255,3.029S631.082,666.168,626.969,666.168z M624.467,610.748c-4.892,0-8.792,1.594-11.701,4.779
		c-2.909,3.188-4.623,7.598-5.142,13.23h31.852c0-5.818-1.298-10.273-3.892-13.369C632.99,612.295,629.284,610.748,624.467,610.748z
		"/>
        <path fill="#2887C8" d="M683.755,666.168c-8.819,0-15.647-2.715-20.483-8.145c-4.836-5.428-7.254-13.107-7.254-23.039
		c0-10.191,2.454-18.066,7.365-23.625c4.91-5.559,11.904-8.338,20.984-8.338c2.927,0,5.854,0.314,8.782,0.945
		c2.927,0.631,5.226,1.371,6.893,2.223l-2.835,7.838c-2.038-0.814-4.262-1.492-6.67-2.029c-2.409-0.537-4.54-0.805-6.393-0.805
		c-12.378,0-18.566,7.893-18.566,23.68c0,7.486,1.51,13.229,4.53,17.23c3.021,4.004,7.495,6.004,13.425,6.004
		c5.076,0,10.283-1.092,15.62-3.279V663C695.076,665.111,689.943,666.168,683.755,666.168z"/>
        <path fill="#2887C8" d="M749.604,665.057v-39.412c0-4.965-1.131-8.672-3.391-11.117c-2.261-2.445-5.801-3.668-10.617-3.668
		c-6.412,0-11.09,1.742-14.036,5.225c-2.946,3.484-4.419,9.191-4.419,17.121v31.852h-9.228v-86.494h9.228v26.182
		c0,3.15-0.148,5.764-0.444,7.838h0.556c1.815-2.928,4.399-5.234,7.754-6.92c3.354-1.686,7.18-2.529,11.479-2.529
		c7.449,0,13.035,1.77,16.76,5.309s5.587,9.162,5.587,16.871v39.744H749.604z"/>
</g>
</svg>
