<svg xmlns="http://www.w3.org/2000/svg" id="Layer_1" width="800" height="800" x="0" y="0" enable-background="new 0 0 800 800" version="1.1" viewBox="0 0 800 800" xml:space="preserve"><path fill="#4185C6" d="M259.229,724.922c12.223-19.958,80.251-64.352,102.655-30.545c36.257,55.396,145.021,41.952,198.391,41.141	c-59.883,32.186-127.506,34.627-195.539,35.447C315.445,771.775,266.154,758.738,259.229,724.922z"/><path fill="#4185C6" d="M660.895,215.719c83.508,48.07-252.16,127.506-541.799,163.764C24.18,391.295-2.296,558.32,114.618,599.047	c-131.988-80.246,474.986-88.392,598.824-179.234C769.658,378.257,814.061,272.746,660.895,215.719z"/><path fill="#4185C6" d="M743.586,518.801c-7.74,98.988-436.286,6.109-524.687,142.166c-16.7,25.265-8.961,54.999,4.077,66.812	c19.553,17.922,65.587,41.149,108.765,41.149c-59.883-24.453,196.349-67.631,268.861-82.291	C679.631,670.752,752.143,562.393,743.586,518.801z"/><path fill="#4185C6" d="M466.17,89.024c-1.221,3.676-5.293,6.523-8.555,6.523h-59.878c-3.667,0-5.298-2.848-4.077-6.523	l20.778-61.505c1.221-3.667,5.294-6.519,8.555-6.519h59.883c3.664,0,5.295,2.852,4.074,6.519L466.17,89.024z"/><path fill="#4185C6" d="M413.623,208.393c-1.222,4.073-5.705,7.326-9.777,7.326h-68.033c-4.072,0-6.109-3.253-4.888-7.326	l23.629-70.073c1.221-4.073,5.704-7.326,9.776-7.326h68.028c4.077,0,6.113,3.253,4.889,7.326L413.623,208.393z"/><path fill="#4185C6" d="M513.836,188.021c-0.816,2.856-3.668,4.892-6.52,4.892h-44.402c-2.447,0-4.074-2.036-3.258-4.892	l15.48-45.62c0.811-2.856,3.662-4.893,6.514-4.893h44.402c2.447,0,4.074,2.036,3.262,4.893L513.836,188.021z"/><path fill="#4185C6" d="M600.195,164.387c-0.814,2.451-3.668,4.893-6.109,4.893h-42.775c-2.443,0-3.664-2.036-2.854-4.893	l15.074-43.583c0.816-2.442,3.668-4.893,6.109-4.893h42.777c2.441,0,3.662,2.036,2.848,4.893L600.195,164.387z"/><path fill="#4185C6" d="M633.191,97.998c-0.816,2.434-3.668,4.47-6.109,4.47h-41.961c-2.441,0-3.662-2.036-2.852-4.47l14.668-43.187	c0.813-2.446,3.664-4.482,6.109-4.482h41.957c2.447,0,3.668,2.036,2.852,4.482L633.191,97.998z"/><path fill="#4185C6" d="M677.189,132.616c-0.816,2.036-2.852,3.667-4.889,3.667h-33c-2.037,0-2.852-1.631-2.441-3.667l11.406-33.807	c0.816-2.037,2.852-3.667,4.889-3.667h32.996c2.035,0,2.852,1.631,2.441,3.667L677.189,132.616z"/><path fill="#4185C6" d="M743.182,51.554c-0.41,1.626-2.037,2.852-3.668,2.852h-25.666c-1.627,0-2.441-1.226-1.627-2.852	l8.961-26.072c0.406-1.63,2.037-2.852,3.668-2.852h25.662c1.631,0,2.445,1.221,1.631,2.852L743.182,51.554z"/><path fill="#4185C6" d="M689.816,82.104c-0.814,2.037-2.852,3.667-4.887,3.667h-33.002c-2.035,0-2.846-1.631-2.441-3.667	l11.408-34.217c0.811-2.037,2.852-3.667,4.887-3.667h32.996c2.037,0,2.852,1.631,2.443,3.667L689.816,82.104z"/><path fill="#4185C6" d="M558.645,95.962c-1.221,3.253-4.482,5.694-7.74,5.694h-52.143c-3.258,0-4.889-2.441-3.668-5.694	l18.332-53.778c1.221-3.257,4.482-5.704,7.74-5.704h52.143c3.258,0,4.889,2.446,3.668,5.704L558.645,95.962z"/><path fill="#4185C6" d="M331.335,39.737C178.164,74.364,72.656,165.207,47.81,299.235c15.886-46.439,137.688-72.515,235.455-83.517	c15.89-51.332,40.331-132.799,54.589-177.202L331.335,39.737z"/><path fill="#4185C6" d="M319.113,207.168c0.41-1.631,2.036-6.929,3.667-12.218l17.516-50.926c1.631-5.298,5.704-13.029,9.371-17.102	c3.257-4.082,19.553-7.749,25.256-7.749h48.07c5.295,0,14.256,1.225,19.553,2.45c0,0,1.221,0.406,4.072,4.479	c3.258,4.479,3.258,6.515,3.258,6.515c-0.404,5.298-2.441,14.255-4.072,19.553l-14.259,40.33c-1.626,5.298,1.226,8.146,6.519,6.929	l2.037-0.405c5.297-1.64,9.371-4.487,8.555-6.523c-0.406-2.036,2.037-12.218,3.668-17.516l8.961-26.473	c1.631-5.298,5.297-12.227,8.148-15.894c2.852-3.658,17.107-6.515,22.811-6.515h22.814c5.293,0,10.182-2.856,10.182-6.118	c0-3.253-4.072-6.109-9.777-6.109h-6.518c-5.295,0-14.256-1.217-19.553-2.434c0,0-0.406,0-3.258-4.081	c-2.852-4.073-2.852-4.893-2.852-4.893c0.406-5.29,2.441-14.25,4.072-19.548l5.299-15.48c1.627-5.293,2.035-10.186,0.811-11.407	c-1.221-1.221-4.072,2.446-5.699,7.74l-6.928,19.962c-1.627,5.29-5.699,12.624-8.961,16.697c-3.258,4.072-18.738,7.334-24.441,7.334	h-39.92c-5.299,0-14.259-1.217-19.557-2.442c0,0-0.815,0-3.663-4.478c-3.262-4.487-2.852-5.704-2.852-5.704	c0.405-5.298,2.441-14.259,4.072-19.552l11.813-35.037c1.631-5.294-1.221-8.961-6.519-8.146l-45.214,5.294	c-5.298,0.815-11.001,1.631-12.222,2.446c-1.221,0.815-4.483,7.74-6.109,13.033l-47.665,149.5	c-1.626,5.298-2.852,10.597-2.852,11.407c0,1.226,7.334,1.226,12.628,0.82l19.557-2.037c5.293-0.405,9.776-0.819,9.776-0.819	S318.707,208.393,319.113,207.168z"/></svg>