<svg id="Layer_1" data-name="Layer 1" xmlns="http://www.w3.org/2000/svg" viewBox="0 0 757.69 184.11"><defs><style>.cls-1{fill:#fff;}</style></defs><title>logo-htvietnam-white</title><path class="cls-1" d="M54.6,188.7c3-4.9,19.7-15.8,25.2-7.5,8.9,13.6,35.6,10.3,48.7,10.1-14.7,7.9-31.3,8.5-48,8.7C68.4,200.2,56.3,197,54.6,188.7Z" transform="translate(-0.05 -15.9)"/><path class="cls-1" d="M173.5,138.1c-1.9,24.3-107.1,1.5-128.8,34.9-4.1,6.2-2.2,13.5,1,16.4,4.8,4.4,16.1,10.1,26.7,10.1-14.7-6,48.2-16.6,66-20.2C157.8,175.4,175.6,148.8,173.5,138.1Z" transform="translate(-0.05 -15.9)"/><path class="cls-1" d="M105.4,32.6a2.47,2.47,0,0,1-2.1,1.6H88.6c-.9,0-1.3-.7-1-1.6l5.1-15.1a2.47,2.47,0,0,1,2.1-1.6h14.7c.9,0,1.3.7,1,1.6Z" transform="translate(-0.05 -15.9)"/><path class="cls-1" d="M92.5,61.9a2.69,2.69,0,0,1-2.4,1.8H73.4a1.26,1.26,0,0,1-1.2-1.8L78,44.7a2.69,2.69,0,0,1,2.4-1.8H97.1a1.26,1.26,0,0,1,1.2,1.8Z" transform="translate(-0.05 -15.9)"/><path class="cls-1" d="M117.1,56.9a1.71,1.71,0,0,1-1.6,1.2H104.6a.85.85,0,0,1-.8-1.2l3.8-11.2a1.71,1.71,0,0,1,1.6-1.2h10.9a.85.85,0,0,1,.8,1.2Z" transform="translate(-0.05 -15.9)"/><path class="cls-1" d="M138.3,51.1a1.85,1.85,0,0,1-1.5,1.2H126.3c-.6,0-.9-.5-.7-1.2l3.7-10.7a1.85,1.85,0,0,1,1.5-1.2h10.5c.6,0,.9.5.7,1.2Z" transform="translate(-0.05 -15.9)"/><path class="cls-1" d="M146.4,34.8a1.74,1.74,0,0,1-1.5,1.1H134.6c-.6,0-.9-.5-.7-1.1l3.6-10.6a1.74,1.74,0,0,1,1.5-1.1h10.3c.6,0,.9.5.7,1.1Z" transform="translate(-0.05 -15.9)"/><path class="cls-1" d="M157.2,43.3a1.4,1.4,0,0,1-1.2.9h-8.1c-.5,0-.7-.4-.6-.9l2.8-8.3a1.4,1.4,0,0,1,1.2-.9h8.1c.5,0,.7.4.6.9Z" transform="translate(-0.05 -15.9)"/><path class="cls-1" d="M173.4,23.4a1,1,0,0,1-.9.7h-6.3c-.4,0-.6-.3-.4-.7L168,17a1,1,0,0,1,.9-.7h6.3c.4,0,.6.3.4.7Z" transform="translate(-0.05 -15.9)"/><path class="cls-1" d="M160.3,30.9a1.4,1.4,0,0,1-1.2.9H151c-.5,0-.7-.4-.6-.9l2.8-8.4a1.4,1.4,0,0,1,1.2-.9h8.1c.5,0,.7.4.6.9Z" transform="translate(-0.05 -15.9)"/><path class="cls-1" d="M128.1,34.3a2.15,2.15,0,0,1-1.9,1.4H113.4c-.8,0-1.2-.6-.9-1.4L117,21.1a2.15,2.15,0,0,1,1.9-1.4h12.8c.8,0,1.2.6.9,1.4Z" transform="translate(-0.05 -15.9)"/><path class="cls-1" d="M72.3,20.5C34.7,29,8.8,51.3,2.7,84.2,6.6,72.8,36.5,66.4,60.5,63.7c3.9-12.6,9.9-32.6,13.4-43.5Z" transform="translate(-0.05 -15.9)"/><path class="cls-1" d="M69.3,61.6c.1-.4.5-1.7.9-3l4.3-12.5a13.23,13.23,0,0,1,2.3-4.2c.8-1,4.8-1.9,6.2-1.9H94.8a26.26,26.26,0,0,1,4.8.6s.3.1,1,1.1a3.34,3.34,0,0,1,.8,1.6,27.34,27.34,0,0,1-1,4.8L96.9,58c-.4,1.3.3,2,1.6,1.7l.5-.1c1.3-.4,2.3-1.1,2.1-1.6a19.38,19.38,0,0,1,.9-4.3l2.2-6.5a14.31,14.31,0,0,1,2-3.9c.7-.9,4.2-1.6,5.6-1.6h5.6c1.3,0,2.5-.7,2.5-1.5s-1-1.5-2.4-1.5h-1.6a26.26,26.26,0,0,1-4.8-.6s-.1,0-.8-1-.7-1.2-.7-1.2a27.34,27.34,0,0,1,1-4.8l1.3-3.8c.4-1.3.5-2.5.2-2.8s-1,.6-1.4,1.9L109,31.3a14.69,14.69,0,0,1-2.2,4.1c-.8,1-4.6,1.8-6,1.8H91a26.26,26.26,0,0,1-4.8-.6s-.2,0-.9-1.1-.7-1.4-.7-1.4a27.34,27.34,0,0,1,1-4.8l2.9-8.6c.4-1.3-.3-2.2-1.6-2L75.8,20a15,15,0,0,0-3,.6,10.6,10.6,0,0,0-1.5,3.2L59.6,60.5a20.83,20.83,0,0,0-.7,2.8c0,.3,1.8.3,3.1.2l4.8-.5,2.4-.2A6.25,6.25,0,0,1,69.3,61.6Z" transform="translate(-0.05 -15.9)"/><path class="cls-1" d="M200,158.69h5.91v13.4h.1c.51-1.2,1-2.6,1.53-3.9l4.07-9.6h6.52l-6.83,13,6.93,16.9H211.8l-4.38-12.4-1.32,2.4v9.9h-5.91v-29.7Z" transform="translate(-0.05 -15.9)"/><path class="cls-1" d="M237,175.39H230v8.1h7.84v5.1H224.12v-29.9h13.24v5.1H230v6.9H237Zm-4.08-23.2,3.36,4.9h-3.87l-1.52-2.4h-.11l-1.52,2.4h-3.77l3.26-4.9Zm9.47-3.7-5,5.1h-3l2.75-5.1Z" transform="translate(-0.05 -15.9)"/><path class="cls-1" d="M248.57,164h-5.4v-5.4h16.7V164h-5.4v24.6h-5.9V164Z" transform="translate(-0.05 -15.9)"/><path class="cls-1" d="M277,188.59v-29.9h5.39l4.69,11.7c.92,2.3,2.44,6.2,3.26,8.7h.1c-.2-3.1-.61-8.3-.61-13.8v-6.6H295v29.9h-5.4l-4.68-11.4a66.6,66.6,0,0,1-3.05-9h0c.1,3,.4,7.6.4,13.6v6.7H277Z" transform="translate(-0.05 -15.9)"/><path class="cls-1" d="M321.68,173.09c0,11.3-4.07,15.8-9.88,15.8-6.92,0-9.67-7.2-9.67-15.4s3.26-15.2,10.08-15.2C319.65,158.29,321.68,166.19,321.68,173.09Zm-7.23-20.9,3.36,4.9h-4l-1.42-2.5h-.11l-1.52,2.4H307l3.16-4.9h4.27Zm-6.11,21.4c0,6.8,1.33,10.2,3.67,10.2s3.46-4.4,3.46-10.5c0-5.2-.81-10-3.46-10C309.67,163.39,308.34,167.19,308.34,173.59Zm15.58-25.1-5,5.1H316l2.75-5.1Z" transform="translate(-0.05 -15.9)"/><path class="cls-1" d="M334.82,158.69v29.9h-5.91v-29.9Z" transform="translate(-0.05 -15.9)"/><path class="cls-1" d="M368.63,188.09a12.07,12.07,0,0,1-4.58.7c-7.74,0-11.51-6.3-11.51-14.8,0-11.3,6.41-15.7,12.32-15.7a7.91,7.91,0,0,1,4.07.8l-1,4.9a6.23,6.23,0,0,0-2.75-.6c-3.36,0-6.42,2.8-6.42,10.2,0,7.1,2.75,9.9,6.42,9.9a11.57,11.57,0,0,0,2.85-.4Z" transform="translate(-0.05 -15.9)"/><path class="cls-1" d="M392.66,173.09c0,11.3-4.07,15.8-9.88,15.8-6.92,0-9.67-7.2-9.67-15.4s3.26-15.2,10.08-15.2C390.62,158.29,392.66,166.19,392.66,173.09Zm-7.43-20.9,3.87,4.9h-4.38l-1.73-2.3h-.1l-1.74,2.3H377l3.67-4.9Zm-5.81,21.4c0,6.8,1.33,10.2,3.67,10.2s3.46-4.4,3.46-10.5c0-5.2-.81-10-3.46-10C380.65,163.39,379.42,167.19,379.42,173.59Z" transform="translate(-0.05 -15.9)"/><path class="cls-1" d="M399.89,188.59v-29.9h5.4l4.68,11.7c.92,2.3,2.45,6.2,3.26,8.7h.1c-.2-3.1-.61-8.3-.61-13.8v-6.6h5.2v29.9h-5.4l-4.68-11.4a66.64,66.64,0,0,1-3.06-9h-.1c.1,3,.41,7.6.41,13.6v6.7h-5.2Z" transform="translate(-0.05 -15.9)"/><path class="cls-1" d="M443.48,187.79a21.08,21.08,0,0,1-6.32,1.1,11,11,0,0,1-8.14-3c-2.65-2.5-4-6.9-4-12.1.1-10.9,6.41-15.4,12.93-15.4a11.57,11.57,0,0,1,5,.9l-1,5a8.1,8.1,0,0,0-3.46-.7c-4,0-7.23,2.7-7.23,10.5,0,7.2,2.85,9.8,5.6,9.8a4.27,4.27,0,0,0,1.22-.1v-7.2h-2.75v-4.7h8.15Z" transform="translate(-0.05 -15.9)"/><path class="cls-1" d="M461.81,188.59v-29.9h5.39l4.69,11.7c.92,2.3,2.44,6.2,3.26,8.7h.1c-.2-3.1-.61-8.3-.61-13.8v-6.6h5.19v29.9h-5.39l-4.69-11.4a66.6,66.6,0,0,1-3.05-9h-.11c.11,3,.41,7.6.41,13.6v6.7h-5.19Z" transform="translate(-0.05 -15.9)"/><path class="cls-1" d="M505.49,187.79a21,21,0,0,1-6.31,1.1,11,11,0,0,1-8.15-3c-2.64-2.5-4-6.9-4-12.1.1-10.9,6.42-15.4,12.94-15.4a11.57,11.57,0,0,1,5,.9l-1,5a8.15,8.15,0,0,0-3.47-.7c-4,0-7.23,2.7-7.23,10.5,0,7.2,2.86,9.8,5.61,9.8a4.3,4.3,0,0,0,1.22-.1v-7.2h-2.75v-4.7h8.14Z" transform="translate(-0.05 -15.9)"/><path class="cls-1" d="M519.14,158.69v12h6.21v-12h5.91v29.9h-5.91v-12.5h-6.21v12.5h-5.91v-29.9Z" transform="translate(-0.05 -15.9)"/><path class="cls-1" d="M552.85,175.39h-6.93v8.1h7.84v5.1H540v-29.9h13.24v5.1h-7.34v6.9h6.93Zm-4.18-23.2,3.77,4.9h-4.38l-1.73-2.3h-.1l-1.73,2.3h-4.18l3.67-4.9Zm-5.09,42.7a2.85,2.85,0,1,1,2.85,2.8A2.7,2.7,0,0,1,543.58,194.89Z" transform="translate(-0.05 -15.9)"/><path class="cls-1" d="M574.54,164h-5.4v-5.4h16.7V164h-5.39v24.6h-5.91V164Z" transform="translate(-0.05 -15.9)"/><path class="cls-1" d="M613,154.09a9.09,9.09,0,0,1,.92,3.8,3.83,3.83,0,0,1-3.57,4.1h-.5v15c0,7.7-3,11.8-8.86,11.8-6.42,0-8.86-4.3-8.86-11.8v-18.5h5.9v19.4c0,4.4,1.33,5.7,2.85,5.7,1.74,0,3-1.2,3-5.7v-19.4h4.27c1,0,1.53-.2,1.53-1.2a5.57,5.57,0,0,0-.81-2.8Z" transform="translate(-0.05 -15.9)"/><path class="cls-1" d="M638.49,155.79a8.06,8.06,0,0,1,.92,3.8,4,4,0,0,1-3.46,4.3,22.78,22.78,0,0,1,1.62,9.2c0,11.3-4.07,15.8-9.87,15.8-6.93,0-9.68-7.2-9.68-15.4s3.26-15.2,10.08-15.2a7.72,7.72,0,0,1,3.57.8c1.53.8,2.14,1.4,2.65,1.4s.81-.4.81-1.1a7.37,7.37,0,0,0-.92-3Zm-7,17.5c0-5.2-.81-10-3.46-10s-3.66,4.7-3.66,10.1c0,5.9,1,10.4,3.66,10.4C630.45,183.89,631.46,179.39,631.46,173.29Z" transform="translate(-0.05 -15.9)"/><path class="cls-1" d="M644.8,188.59v-29.9h5.4l4.69,11.7c.91,2.3,2.44,6.2,3.26,8.7h.1c-.21-3.1-.61-8.3-.61-13.8v-6.6h5.19v29.9h-5.4l-4.68-11.4a66.64,66.64,0,0,1-3.06-9h-.1c.1,3,.41,7.6.41,13.6v6.7h-5.2Z" transform="translate(-0.05 -15.9)"/><path class="cls-1" d="M688.39,187.79a21,21,0,0,1-6.31,1.1,11,11,0,0,1-8.15-3c-2.65-2.5-4-6.9-4-12.1.1-10.9,6.41-15.4,12.93-15.4a11.57,11.57,0,0,1,5,.9l-1,5a8.06,8.06,0,0,0-3.46-.7c-4,0-7.23,2.7-7.23,10.5,0,7.2,2.85,9.8,5.6,9.8a4.23,4.23,0,0,0,1.22-.1v-7.2h-2.75v-4.7h8.15Z" transform="translate(-0.05 -15.9)"/><path class="cls-1" d="M706.82,158.69h5.91v25h7.84v4.9H706.82Z" transform="translate(-0.05 -15.9)"/><path class="cls-1" d="M732.48,181.69l-1.32,6.8h-5.7l6.62-29.9h7.13l5.9,29.9h-5.7l-1.32-6.8Zm5-4.5-1-6.3c-.31-1.8-.72-4.8-1-6.8h-.1c-.31,2-.82,5.1-1.12,6.8l-1.12,6.2h4.37Z" transform="translate(-0.05 -15.9)"/><path class="cls-1" d="M757.74,158.69v29.9h-5.91v-29.9Z" transform="translate(-0.05 -15.9)"/><path class="cls-1" d="M153.2,63.7c7.28,4.19,1.57,9.36-12,14.67a5.87,5.87,0,0,1,4.19.93,21.47,21.47,0,0,1,3.42,3.31l6.44,7.53a50.13,50.13,0,0,1,5.27,7.08c-1.35-4.48-2.25-7.78-2.7-9.93l-2.3-11.12,8.59-1.78,6.52,31.41a5.25,5.25,0,0,1-.47,3.73,4.25,4.25,0,0,1-3,2,4.92,4.92,0,0,1-3.64-.6,13.88,13.88,0,0,1-2.82-2.61L151.1,97.22q-2.19-2.53-2.93-3.45a34.38,34.38,0,0,1-2.58-3.7,90,90,0,0,1,3.42,11.5l2.62,12.62L143,116v0h0l-6.26-30.19a7,7,0,0,1,.41-4.67,4.68,4.68,0,0,1,1.55-1.8c-25.43,9.36-74.16,19-118.5,24.58-23.3,2.9-29.8,43.9-1.1,53.9-32.4-19.7,116.6-21.7,147-44C179.9,103.6,190.8,77.7,153.2,63.7ZM43.47,138l-1.11-13.75-9,.73,1.11,13.77-8.53.69v0L23.2,105.33l8.53-.69,1,12.08,9-.73-1-12.08,8.43-.68,2.75,34.1Zm35.38-4.82-8.54.69-2.13-26.39-7.39.59-.65-8,23.3-1.88.65,8-7.36.6Zm41.53-15.54a15.36,15.36,0,0,1-1.87,5.73,6.15,6.15,0,0,1-5,2.93,6.3,6.3,0,0,1-5.43-2.09,15.46,15.46,0,0,1-2.8-5.35L95.9,91.72l8.76-.7,6.17,18.28q.73,2.22,1.81,6.14c.12-1.39.39-3.51.74-6.34l3.16-19,8.76-.7Z" transform="translate(-0.05 -15.9)"/><path class="cls-1" d="M275,114.85h-15V75.14H243.29v39.71H228.15v-83h15.14V64.44h16.62V31.8h15Z" transform="translate(-0.05 -15.9)"/><path class="cls-1" d="M336.14,43.11H320.19v71.74H305.14V43.11H289.2V31.8h46.94Z" transform="translate(-0.05 -15.9)"/><path class="cls-1" d="M398.53,31.8l-18.15,83.05H363.05l-17.25-83h15.68l11.83,64.67L385.22,31.8Z" transform="translate(-0.05 -15.9)"/><path class="cls-1" d="M433.41,114.85H409.09v-11h4.57V42.77h-4.57v-11h24.32v11H428.8v61.11h4.61Z" transform="translate(-0.05 -15.9)"/><path class="cls-1" d="M485.14,114.85H448.63v-83h36.15v11h-21V64.44h16.8V75.36h-16.8v28.52h21.37Z" transform="translate(-0.05 -15.9)"/><path class="cls-1" d="M543.31,43.11H527.37v71.74h-15V43.11h-16V31.8h46.94Z" transform="translate(-0.05 -15.9)"/><path class="cls-1" d="M607.54,114.85H595.26L572.33,60.21v54.64H557.55v-83h13.12L592.8,84.38V31.8h14.74Z" transform="translate(-0.05 -15.9)"/><path class="cls-1" d="M674.67,114.85h-16l-3.31-17.21H637.18l-3.4,17.21H620.11l18.68-83h18.37ZM653.48,86.67l-7.16-39-7.3,39Z" transform="translate(-0.05 -15.9)"/><path class="cls-1" d="M746,114.85H731V59.76L719.45,87.84h-5.51L702.39,59.76v55.09h-15v-83h13.21l16.13,39.27L732.85,31.8H746Z" transform="translate(-0.05 -15.9)"/></svg>