<svg xmlns="http://www.w3.org/2000/svg" id="Layer_1" width="800" height="800" x="0" y="0" enable-background="new 0 0 800 800" version="1.0" viewBox="0 0 800 800" xml:space="preserve"><rect width="224.189" height="78.475" x="288.909" y="656.273" fill="#FFF"/><rect width="224.189" height="78.475" x="288.909" y="656.273" fill="none" stroke="#2887C8" stroke-miterlimit="10" stroke-width="1.4"/><path fill="#FFF" d="M776,142.282v443.708c0,38.808-31.474,70.281-70.285,70.281H96.282C57.474,656.271,26,624.797,26,585.989	V142.282C26,103.474,57.474,72,96.282,72h609.433C744.526,72,776,103.474,776,142.282"/><path fill="none" stroke="#2887C8" stroke-miterlimit="10" stroke-width="1.4" d="M776,142.282v443.708	c0,38.808-31.474,70.281-70.285,70.281H96.282C57.474,656.271,26,624.797,26,585.989V142.282C26,103.474,57.474,72,96.282,72	h609.433C744.526,72,776,103.474,776,142.282z"/><path fill="#E4F2FC" d="M776,142.282v436.755H26V142.282C26,103.474,57.474,72,96.282,72h609.433	C744.526,72,776,103.474,776,142.282"/><path fill="none" stroke="#2887C8" stroke-miterlimit="10" stroke-width="1.4" d="M776,142.282v436.755H26V142.282	C26,103.474,57.474,72,96.282,72h609.433C744.526,72,776,103.474,776,142.282z"/><rect width="635.03" height="391.41" x="83.481" y="138.495" fill="#FFF"/><rect width="635.03" height="391.41" x="83.481" y="138.495" fill="none" stroke="#2887C8" stroke-linecap="round" stroke-linejoin="round" stroke-miterlimit="10" stroke-width="1.4"/><line x1="183.782" x2="618.218" y1="734.748" y2="734.748" fill="none" stroke="#2887C8" stroke-linecap="round" stroke-linejoin="round" stroke-miterlimit="10" stroke-width="1.4"/><line x1="656.856" x2="678.578" y1="734.748" y2="734.748" fill="none" stroke="#2887C8" stroke-linecap="round" stroke-linejoin="round" stroke-miterlimit="10" stroke-width="1.4"/><line x1="714.383" x2="716.818" y1="734.748" y2="734.748" fill="none" stroke="#2887C8" stroke-linecap="round" stroke-linejoin="round" stroke-miterlimit="10" stroke-width="1.4"/><line x1="145.14" x2="123.418" y1="734.748" y2="734.748" fill="none" stroke="#2887C8" stroke-linecap="round" stroke-linejoin="round" stroke-miterlimit="10" stroke-width="1.4"/><line x1="87.614" x2="85.182" y1="734.748" y2="734.748" fill="none" stroke="#2887C8" stroke-linecap="round" stroke-linejoin="round" stroke-miterlimit="10" stroke-width="1.4"/><rect width="58.085" height="248.343" x="124.751" y="237.632" fill="#B6DDF5"/><rect width="40.131" height="20.113" x="133.72" y="261.497" fill="#2887C8"/><rect width="40.131" height="20.113" x="133.72" y="344.664" fill="#2887C8"/><rect width="74.216" height="63.686" x="232.386" y="237.632" fill="#B6DDF5"/><rect width="27.422" height="14.217" x="239.796" y="246.699" fill="#2887C8"/><rect width="74.216" height="59.084" x="232.386" y="332.26" fill="#B6DDF5"/><rect width="27.422" height="13.196" x="239.796" y="340.672" fill="#2887C8"/><rect width="74.216" height="61.413" x="232.386" y="424.562" fill="#B6DDF5"/><rect width="27.422" height="13.715" x="239.796" y="433.301" fill="#2887C8"/><rect width="71.036" height="63.686" x="356.513" y="237.632" fill="#B6DDF5"/><rect width="26.254" height="14.217" x="365.78" y="246.699" fill="#0B9D49"/><rect width="71.036" height="59.084" x="356.513" y="332.26" fill="#B6DDF5"/><rect width="26.254" height="13.196" x="365.78" y="340.672" fill="#0B9D49"/><rect width="71.036" height="61.413" x="356.513" y="424.562" fill="#B6DDF5"/><rect width="26.254" height="13.715" x="365.78" y="433.301" fill="#0B9D49"/><rect width="72.671" height="63.686" x="476.759" y="237.632" fill="#B6DDF5"/><rect width="26.856" height="14.217" x="486.241" y="246.699" fill="#B1D465"/><rect width="72.671" height="59.084" x="476.759" y="332.26" fill="#B6DDF5"/><rect width="26.856" height="13.196" x="486.241" y="340.672" fill="#B1D465"/><rect width="72.671" height="61.413" x="476.759" y="424.562" fill="#B6DDF5"/><rect width="26.856" height="13.715" x="486.241" y="433.301" fill="#B1D465"/><rect width="74.305" height="63.686" x="602.951" y="237.632" fill="#B6DDF5"/><rect width="27.457" height="14.217" x="612.644" y="246.699" fill="#2887C8"/><rect width="74.305" height="59.084" x="602.951" y="332.26" fill="#B6DDF5"/><rect width="27.457" height="13.196" x="612.644" y="340.672" fill="#2887C8"/><rect width="74.305" height="61.413" x="602.951" y="424.562" fill="#B6DDF5"/><rect width="27.457" height="13.715" x="612.644" y="433.301" fill="#2887C8"/><rect width="552.505" height="26.819" x="124.751" y="182.422" fill="#B6DDF5"/><rect width="58.085" height="26.819" x="124.751" y="182.422" fill="#2887C8"/><path fill="#FFF" d="M508.268,334.199c0,59.245-48.026,107.274-107.271,107.274c-59.242,0-107.271-48.029-107.271-107.274	c0-59.242,48.029-107.271,107.271-107.271C460.241,226.928,508.268,274.957,508.268,334.199"/><path fill="none" stroke="#2887C8" stroke-miterlimit="10" stroke-width="1.5" d="M508.268,334.199	c0,59.245-48.026,107.274-107.271,107.274c-59.242,0-107.271-48.029-107.271-107.274c0-59.242,48.029-107.271,107.271-107.271	C460.241,226.928,508.268,274.957,508.268,334.199z"/><path fill="#E4F0CC" d="M476.819,334.199c0,41.875-33.943,75.819-75.822,75.819c-41.876,0-75.819-33.943-75.819-75.819	c0-41.873,33.943-75.822,75.819-75.822C442.876,258.376,476.819,292.326,476.819,334.199"/><path fill="#0B9D49" d="M452.79,310.01c0,1.782-0.622,3.293-1.873,4.544l-48.377,48.384l-9.095,9.088	c-1.251,1.251-2.756,1.873-4.538,1.873c-1.782,0-3.309-0.622-4.544-1.873l-9.095-9.088l-24.186-24.192	c-1.25-1.248-1.873-2.763-1.873-4.544s0.623-3.293,1.873-4.544l9.079-9.088c1.25-1.248,2.769-1.873,4.55-1.873	c1.779,0,3.297,0.625,4.544,1.873l19.651,19.717l43.836-43.915c1.248-1.242,2.766-1.873,4.545-1.873c1.781,0,3.3,0.631,4.551,1.873	l9.078,9.095C452.168,306.713,452.79,308.231,452.79,310.01"/></svg>