<svg xmlns="http://www.w3.org/2000/svg" id="Layer_1" width="783" height="337.833" x="0" y="0" enable-background="new 0 0 783 337.833" version="1.0" viewBox="0 0 783 337.833" xml:space="preserve"><g><g><path d="M121.42,138.752c0-28.594-0.939-52.967-1.874-73.126h61.874l3.28,31.407h1.407c9.374-14.533,32.813-36.561,70.78-36.561 c46.878,0,82.033,30.935,82.033,98.435v135.939h-71.248V167.813c0-29.528-10.313-49.687-36.099-49.687 c-19.687,0-31.401,13.594-36.093,26.72c-1.874,4.22-2.808,11.252-2.808,17.813v132.188H121.42V138.752z"/></g><g><path d="M450.929,202.972c2.341,29.527,31.407,43.594,64.687,43.594c24.374,0,44.061-3.281,63.28-9.374l9.374,48.28 c-23.434,9.374-52.033,14.061-82.967,14.061c-77.813,0-122.346-45-122.346-116.72c0-58.121,36.094-122.341,115.785-122.341 c74.061,0,102.187,57.654,102.187,114.374c0,12.187-1.407,22.967-2.346,28.126H450.929z M534.836,154.22 c0-17.341-7.5-46.407-40.313-46.407c-30,0-42.187,27.187-44.065,46.407H534.836z"/></g><g><path d="M723.246,0v65.626h51.094v52.5h-51.094v82.972c0,27.654,6.565,40.309,28.127,40.309c8.906,0,15.938-0.935,21.093-1.874 l0.468,53.906c-9.374,3.753-26.248,6.094-46.407,6.094c-22.967,0-42.187-7.967-53.435-19.687 c-13.126-13.594-19.687-35.627-19.687-67.968v-93.752h-30.472v-52.5h30.472V15.939L723.246,0z"/></g></g><g><g><path fill="#FBB040" d="M8.854,256.878c0-25.313,17.341-43.594,42.187-43.594c24.841,0,41.72,17.813,41.72,43.594 C92.76,281.719,75.881,300,50.568,300C26.194,300,8.854,281.719,8.854,256.878z"/></g></g></svg>