<svg xmlns="http://www.w3.org/2000/svg" id="Layer_1" width="570" height="247" x="0" y="0" enable-background="new 0 0 570 247" version="1.0" viewBox="0 0 570 247" xml:space="preserve"><g><path fill="#FBB040" d="M18.847,153.431c0-17.388,11.914-29.945,28.979-29.945s28.657,12.235,28.657,29.945 c0,17.065-11.592,29.623-28.979,29.623C30.761,183.054,18.847,170.496,18.847,153.431z"/><path fill="#173B4F" d="M250.625,99.014c0,57.637-40.893,84.04-83.073,84.04c-46.045,0-81.464-30.268-81.464-81.142 c0-50.875,33.487-83.396,84.04-83.396C218.426,18.517,250.625,51.682,250.625,99.014z M136.641,100.624 c0,27.047,11.27,47.333,32.199,47.333c18.997,0,31.232-18.998,31.232-47.333c0-23.505-9.016-47.333-31.232-47.333 C145.334,53.291,136.641,77.44,136.641,100.624z"/><path fill="#173B4F" d="M280.889,73.898c0-23.183-0.645-38.316-1.288-51.84h42.181l1.609,28.979h1.288 c8.05-22.861,27.369-32.521,42.503-32.521c4.508,0,6.762,0,10.304,0.644v46.045c-3.542-0.644-7.728-1.288-13.202-1.288 c-18.031,0-30.267,9.66-33.486,24.793c-0.645,3.22-0.966,7.084-0.966,10.948v79.854h-48.942V73.898z"/><path fill="#173B4F" d="M551.035,22.059c-0.645,9.981-1.288,23.184-1.288,46.688v87.903c0,30.268-6.118,55.061-23.828,70.838 c-17.387,14.812-40.893,19.319-64.076,19.319c-20.607,0-42.502-4.186-56.67-12.235l9.659-37.029 c9.982,5.796,27.37,11.914,45.724,11.914c23.183,0,40.893-12.558,40.893-41.537v-10.304h-0.645 c-9.337,13.202-24.471,20.607-42.503,20.607c-38.96,0-66.651-31.555-66.651-76.956c0-50.552,32.843-82.751,71.481-82.751 c21.573,0,35.098,9.338,43.147,22.217h0.644l1.61-18.675H551.035z M500.804,86.135c0-3.22-0.321-6.44-0.966-9.016 c-3.542-12.88-12.88-21.573-26.403-21.573c-17.709,0-32.199,16.099-32.199,44.756c0,23.506,11.592,41.859,32.199,41.859 c12.558,0,22.54-8.372,25.76-19.964c1.288-3.542,1.609-8.693,1.609-12.88V86.135z"/></g></svg>