<svg xmlns="http://www.w3.org/2000/svg" id="Layer_1" width="800" height="800" x="0" y="0" enable-background="new 0 0 800 800" version="1.1" viewBox="0 0 800 800" xml:space="preserve"><g><path fill="#B1D465" d="M529.396,406.267c-0.067,55.34-39.118,103.545-93.187,115.02c-66.484,14.121-131.394-31.116-140.814-98.624 c-4.583-32.875,3.576-62.758,24.018-89.089c1.27-1.647,1.848-3.21,1.72-5.276c-1.67-25.265-7.674-49.375-19.351-71.935 c-4.046-7.824-10.92-13.033-17.877-18.01c-15.408-11.025-32.041-19.938-49.17-27.901c-5.425-2.522-11.591-3.015-17.238-5.23 c-32.247-12.631-52.508-46.146-48.72-80.848c3.851-35.134,31.362-63.696,66.009-68.516c42.245-5.881,80.343,21.438,88.125,63.325 c1.747,9.36,1.96,18.883-0.281,28.161c-2.282,9.455-3.397,19.015-4.003,28.661c-0.91,14.329-1.225,28.638-0.521,43.016 c0.733,14.684,6.013,26.906,16.047,37.65c13.286,14.241,28.158,26.119,45.796,34.448c1.747,0.83,3.323,1.064,5.214,0.622 c62.293-14.687,125.286,23.868,140.702,86.134c0.929,3.747,1.646,7.563,2.241,11.378 C528.986,394.88,529.192,400.572,529.396,406.267 M776.418,381.636c0.062-43.11-34.824-78.082-77.863-78.065 c-42.841,0.027-77.786,34.921-77.896,77.797c-0.111,42.938,34.928,77.979,77.965,77.969 C741.594,459.321,776.359,424.601,776.418,381.636 M99.29,471.427c42.926,0.078,78.11-35.043,78.11-77.953 c0-42.883-34.859-77.762-77.769-77.812c-43.2-0.056-77.993,34.665-77.993,77.83C21.647,436.409,56.466,471.354,99.29,471.427 M171.388,657.011c-0.042,43.077,34.87,78.042,77.906,77.986c42.9-0.043,77.795-34.873,77.879-77.739 c0.087-43.038-34.852-77.949-77.974-77.926C206.153,579.364,171.439,614.018,171.388,657.011 M608.775,132.855 c0.009-43.016-35.116-78.021-78.095-77.854c-43.223,0.167-77.811,34.963-77.684,78.154c0.119,42.91,35.03,77.595,77.982,77.51 C573.898,210.574,608.76,175.705,608.775,132.855 M560.961,579.334c-43.198-0.091-77.981,34.619-77.981,77.802 c0.008,42.991,34.571,77.656,77.64,77.863c42.876,0.21,78.069-34.871,78.096-77.863 C638.757,614.235,603.972,579.433,560.961,579.334"/></g></svg>