<svg xmlns="http://www.w3.org/2000/svg" id="Layer_1" width="800" height="800" x="0" y="0" enable-background="new 0 0 800 800" version="1.0" viewBox="0 0 800 800" xml:space="preserve"><g><path fill="#2887C8" d="M518.41,699.039h-86.15c-0.276,0-0.5-0.224-0.5-0.5s0.224-0.5,0.5-0.5h86.15c0.276,0,0.5,0.224,0.5,0.5 S518.687,699.039,518.41,699.039z"/></g><g><path fill="#2887C8" d="M518.41,724.334h-86.15c-0.276,0-0.5-0.224-0.5-0.5s0.224-0.5,0.5-0.5h86.15c0.276,0,0.5,0.224,0.5,0.5 S518.687,724.334,518.41,724.334z"/></g><g><path fill="#2887C8" d="M363.741,699.039H277.59c-0.276,0-0.5-0.224-0.5-0.5s0.224-0.5,0.5-0.5h86.151c0.276,0,0.5,0.224,0.5,0.5 S364.017,699.039,363.741,699.039z"/></g><g><path fill="#2887C8" d="M363.741,724.334H277.59c-0.276,0-0.5-0.224-0.5-0.5s0.224-0.5,0.5-0.5h86.151c0.276,0,0.5,0.224,0.5,0.5 S364.017,724.334,363.741,724.334z"/></g><g><path fill="#B1D465" d="M432.26,711.188c0,18.922-15.34,34.262-34.26,34.262c-18.922,0-34.262-15.34-34.262-34.262 c0-18.92,15.34-34.26,34.262-34.26C416.92,676.928,432.26,692.268,432.26,711.188"/></g><g><path fill="#2887C8" d="M398,745.949c-19.168,0-34.762-15.594-34.762-34.762c0-19.167,15.594-34.76,34.762-34.76 c19.167,0,34.76,15.593,34.76,34.76C432.76,730.355,417.167,745.949,398,745.949z M398,677.428 c-18.617,0-33.762,15.145-33.762,33.76c0,18.616,15.146,33.762,33.762,33.762c18.615,0,33.76-15.146,33.76-33.762 C431.76,692.572,416.615,677.428,398,677.428z"/></g><g><path fill="#2887C8" d="M398,677.428c-0.276,0-0.5-0.224-0.5-0.5v-32.451c0-0.276,0.224-0.5,0.5-0.5s0.5,0.224,0.5,0.5v32.451 C398.5,677.204,398.276,677.428,398,677.428z"/></g><g><rect width="349.844" height="495.059" x="223.078" y="149.416" fill="#B6DDF5"/></g><g><path fill="#2887C8" d="M572.922,644.975H223.078c-0.276,0-0.5-0.224-0.5-0.5V149.416c0-0.276,0.224-0.5,0.5-0.5h349.844 c0.276,0,0.5,0.224,0.5,0.5v495.059C573.422,644.751,573.198,644.975,572.922,644.975z M223.578,643.975h348.844V149.916H223.578 V643.975z"/></g><g><path fill="#FFF" d="M595.082,542.439v75.113c0,3.885-3.148,6.994-6.992,6.994H471.447c-0.072-3.813-3.146-6.893-6.996-6.893 H331.548c-3.85,0-6.93,3.08-7.001,6.893H207.91c-3.851,0-6.992-3.109-6.992-6.994v-75.113c0-3.844,3.142-6.994,6.992-6.994h380.18 C591.934,535.445,595.082,538.596,595.082,542.439"/></g><g><path fill="#2887C8" d="M588.09,625.047H471.447c-0.272,0-0.495-0.218-0.5-0.49c-0.068-3.59-2.922-6.402-6.496-6.402H331.548 c-3.578,0-6.434,2.813-6.501,6.402c-0.005,0.272-0.228,0.49-0.5,0.49H207.91c-4.131,0-7.492-3.362-7.492-7.494v-75.113 c0-4.132,3.361-7.494,7.492-7.494h380.18c4.131,0,7.492,3.362,7.492,7.494v75.113C595.582,621.685,592.221,625.047,588.09,625.047z M471.923,624.047H588.09c3.58,0,6.492-2.913,6.492-6.494v-75.113c0-3.581-2.912-6.494-6.492-6.494H207.91 c-3.58,0-6.492,2.913-6.492,6.494v75.113c0,3.581,2.913,6.494,6.492,6.494h116.162c0.317-3.903,3.513-6.893,7.477-6.893h132.903 C468.412,617.154,471.604,620.144,471.923,624.047z"/></g><g><path fill="#B1D465" d="M575.199,576.494c0,6.576-5.326,11.902-11.902,11.902c-6.582,0-11.908-5.326-11.908-11.902 c0-6.572,5.326-11.906,11.908-11.906C569.873,564.588,575.199,569.922,575.199,576.494"/></g><g><path fill="#0B9D49" d="M571.262,576.494c0,4.4-3.57,7.965-7.967,7.965c-4.398,0-7.969-3.564-7.969-7.965 c0-4.395,3.57-7.969,7.969-7.969C567.691,568.525,571.262,572.1,571.262,576.494"/></g><g><path fill="#B1D465" d="M536.691,576.494c0,6.576-5.326,11.902-11.902,11.902c-6.578,0-11.904-5.326-11.904-11.902 c0-6.572,5.326-11.906,11.904-11.906C531.365,564.588,536.691,569.922,536.691,576.494"/></g><g><path fill="#0B9D49" d="M532.754,576.494c0,4.4-3.564,7.965-7.967,7.965c-4.398,0-7.969-3.564-7.969-7.965 c0-4.395,3.57-7.969,7.969-7.969C529.189,568.525,532.754,572.1,532.754,576.494"/></g><g><path fill="#2887C8" d="M237.939,565.613c0,3.869-3.132,7.002-6.995,7.002s-6.995-3.133-6.995-7.002 c0-3.863,3.132-6.994,6.995-6.994S237.939,561.75,237.939,565.613 M230.944,579.619c-3.863,0-6.995,3.133-6.995,7.006 c0,3.859,3.132,6.992,6.995,6.992s6.995-3.133,6.995-6.992C237.939,582.752,234.807,579.619,230.944,579.619"/></g><g><path fill="#2887C8" d="M267.108,565.613c0,3.869-3.129,7.002-6.996,7.002c-3.863,0-6.992-3.133-6.992-7.002 c0-3.863,3.129-6.994,6.992-6.994C263.979,558.619,267.108,561.75,267.108,565.613 M260.112,579.619 c-3.863,0-6.992,3.133-6.992,7.006c0,3.859,3.129,6.992,6.992,6.992c3.866,0,6.996-3.133,6.996-6.992 C267.108,582.752,263.979,579.619,260.112,579.619"/></g><g><path fill="#2887C8" d="M296.28,565.613c0,3.869-3.133,7.002-6.996,7.002s-6.996-3.133-6.996-7.002 c0-3.863,3.133-6.994,6.996-6.994S296.28,561.75,296.28,565.613 M289.284,579.619c-3.863,0-6.996,3.133-6.996,7.006 c0,3.859,3.133,6.992,6.996,6.992s6.996-3.133,6.996-6.992C296.28,582.752,293.147,579.619,289.284,579.619"/></g><g><path fill="#2887C8" d="M325.452,565.613c0,3.869-3.133,7.002-6.996,7.002s-6.996-3.133-6.996-7.002 c0-3.863,3.133-6.994,6.996-6.994S325.452,561.75,325.452,565.613 M318.456,579.619c-3.863,0-6.996,3.133-6.996,7.006 c0,3.859,3.133,6.992,6.996,6.992s6.996-3.133,6.996-6.992C325.452,582.752,322.319,579.619,318.456,579.619"/></g><g><path fill="#2887C8" d="M354.623,565.613c0,3.869-3.132,7.002-6.996,7.002c-3.862,0-6.995-3.133-6.995-7.002 c0-3.863,3.133-6.994,6.995-6.994C351.491,558.619,354.623,561.75,354.623,565.613 M347.627,579.619 c-3.862,0-6.995,3.133-6.995,7.006c0,3.859,3.133,6.992,6.995,6.992c3.863,0,6.996-3.133,6.996-6.992 C354.623,582.752,351.491,579.619,347.627,579.619"/></g><g><path fill="#2887C8" d="M383.792,565.613c0,3.869-3.129,7.002-6.992,7.002c-3.863,0-6.995-3.133-6.995-7.002 c0-3.863,3.132-6.994,6.995-6.994C380.663,558.619,383.792,561.75,383.792,565.613 M376.799,579.619 c-3.863,0-6.995,3.133-6.995,7.006c0,3.859,3.132,6.992,6.995,6.992c3.863,0,6.992-3.133,6.992-6.992 C383.792,582.752,380.663,579.619,376.799,579.619"/></g><g><path fill="#2887C8" d="M412.963,565.613c0,3.869-3.129,7.002-6.994,7.002c-3.863,0-6.993-3.133-6.993-7.002 c0-3.863,3.129-6.994,6.993-6.994C409.834,558.619,412.963,561.75,412.963,565.613 M405.969,579.619 c-3.863,0-6.993,3.133-6.993,7.006c0,3.859,3.129,6.992,6.993,6.992c3.865,0,6.994-3.133,6.994-6.992 C412.963,582.752,409.834,579.619,405.969,579.619"/></g><g><path fill="#FFF" d="M595.082,433.404v75.109c0,3.887-3.148,7.002-6.992,7.002H471.447c-0.072-3.814-3.146-6.894-6.996-6.894 H331.548c-3.85,0-6.93,3.079-7.001,6.894H207.91c-3.851,0-6.992-3.115-6.992-7.002v-75.109c0-3.848,3.142-6.999,6.992-6.999h380.18 C591.934,426.405,595.082,429.557,595.082,433.404"/></g><g><path fill="#2887C8" d="M588.09,516.016H471.447c-0.272,0-0.495-0.218-0.5-0.49c-0.068-3.591-2.922-6.403-6.496-6.403H331.548 c-3.578,0-6.434,2.813-6.501,6.403c-0.005,0.272-0.228,0.49-0.5,0.49H207.91c-4.131,0-7.492-3.365-7.492-7.502v-75.109 c0-4.135,3.361-7.499,7.492-7.499h380.18c4.131,0,7.492,3.364,7.492,7.499v75.109C595.582,512.65,592.221,516.016,588.09,516.016z M471.923,515.016H588.09c3.58,0,6.492-2.917,6.492-6.502v-75.109c0-3.584-2.912-6.499-6.492-6.499H207.91 c-3.58,0-6.492,2.915-6.492,6.499v75.109c0,3.585,2.913,6.502,6.492,6.502h116.162c0.317-3.903,3.513-6.894,7.477-6.894h132.903 C468.412,508.122,471.604,511.112,471.923,515.016z"/></g><g><path fill="#B1D465" d="M575.199,467.458c0,6.575-5.326,11.908-11.902,11.908c-6.582,0-11.908-5.333-11.908-11.908 c0-6.573,5.326-11.905,11.908-11.905C569.873,455.553,575.199,460.885,575.199,467.458"/></g><g><path fill="#0B9D49" d="M571.262,467.458c0,4.4-3.57,7.972-7.967,7.972c-4.398,0-7.969-3.571-7.969-7.972 c0-4.395,3.57-7.968,7.969-7.968C567.691,459.49,571.262,463.063,571.262,467.458"/></g><g><path fill="#B1D465" d="M536.691,467.458c0,6.575-5.326,11.908-11.902,11.908c-6.578,0-11.904-5.333-11.904-11.908 c0-6.573,5.326-11.905,11.904-11.905C531.365,455.553,536.691,460.885,536.691,467.458"/></g><g><path fill="#0B9D49" d="M532.754,467.458c0,4.4-3.564,7.972-7.967,7.972c-4.398,0-7.969-3.571-7.969-7.972 c0-4.395,3.57-7.968,7.969-7.968C529.189,459.49,532.754,463.063,532.754,467.458"/></g><g><path fill="#2887C8" d="M237.939,456.581c0,3.862-3.132,6.995-6.995,6.995s-6.995-3.133-6.995-6.995s3.132-6.995,6.995-6.995 S237.939,452.719,237.939,456.581 M230.944,470.59c-3.863,0-6.995,3.13-6.995,6.992c0,3.873,3.132,7.002,6.995,7.002 s6.995-3.129,6.995-7.002C237.939,473.72,234.807,470.59,230.944,470.59"/></g><g><path fill="#2887C8" d="M267.108,456.581c0,3.862-3.129,6.995-6.996,6.995c-3.863,0-6.992-3.133-6.992-6.995 s3.129-6.995,6.992-6.995C263.979,449.586,267.108,452.719,267.108,456.581 M260.112,470.59c-3.863,0-6.992,3.13-6.992,6.992 c0,3.873,3.129,7.002,6.992,7.002c3.866,0,6.996-3.129,6.996-7.002C267.108,473.72,263.979,470.59,260.112,470.59"/></g><g><path fill="#2887C8" d="M296.28,456.581c0,3.862-3.133,6.995-6.996,6.995s-6.996-3.133-6.996-6.995s3.133-6.995,6.996-6.995 S296.28,452.719,296.28,456.581 M289.284,470.59c-3.863,0-6.996,3.13-6.996,6.992c0,3.873,3.133,7.002,6.996,7.002 s6.996-3.129,6.996-7.002C296.28,473.72,293.147,470.59,289.284,470.59"/></g><g><path fill="#2887C8" d="M325.452,456.581c0,3.862-3.133,6.995-6.996,6.995s-6.996-3.133-6.996-6.995s3.133-6.995,6.996-6.995 S325.452,452.719,325.452,456.581 M318.456,470.59c-3.863,0-6.996,3.13-6.996,6.992c0,3.873,3.133,7.002,6.996,7.002 s6.996-3.129,6.996-7.002C325.452,473.72,322.319,470.59,318.456,470.59"/></g><g><path fill="#2887C8" d="M354.623,456.581c0,3.862-3.132,6.995-6.996,6.995c-3.862,0-6.995-3.133-6.995-6.995 s3.133-6.995,6.995-6.995C351.491,449.586,354.623,452.719,354.623,456.581 M347.627,470.59c-3.862,0-6.995,3.13-6.995,6.992 c0,3.873,3.133,7.002,6.995,7.002c3.863,0,6.996-3.129,6.996-7.002C354.623,473.72,351.491,470.59,347.627,470.59"/></g><g><path fill="#2887C8" d="M383.792,456.581c0,3.862-3.129,6.995-6.992,6.995c-3.863,0-6.995-3.133-6.995-6.995 s3.132-6.995,6.995-6.995C380.663,449.586,383.792,452.719,383.792,456.581 M376.799,470.59c-3.863,0-6.995,3.13-6.995,6.992 c0,3.873,3.132,7.002,6.995,7.002c3.863,0,6.992-3.129,6.992-7.002C383.792,473.72,380.663,470.59,376.799,470.59"/></g><g><path fill="#2887C8" d="M412.963,456.581c0,3.862-3.129,6.995-6.994,6.995c-3.863,0-6.993-3.133-6.993-6.995 s3.129-6.995,6.993-6.995C409.834,449.586,412.963,452.719,412.963,456.581 M405.969,470.59c-3.863,0-6.993,3.13-6.993,6.992 c0,3.873,3.129,7.002,6.993,7.002c3.865,0,6.994-3.129,6.994-7.002C412.963,473.72,409.834,470.59,405.969,470.59"/></g><g><path fill="#FFF" d="M595.082,324.368v75.116c0,3.881-3.148,6.995-6.992,6.995H471.447c-0.072-3.813-3.146-6.892-6.996-6.892 H331.548c-3.85,0-6.93,3.08-7.001,6.892H207.91c-3.851,0-6.992-3.113-6.992-6.995v-75.116c0-3.841,3.142-6.993,6.992-6.993h380.18 C591.934,317.375,595.082,320.527,595.082,324.368"/></g><g><path fill="#2887C8" d="M588.09,406.979H471.447c-0.272,0-0.495-0.218-0.5-0.49c-0.068-3.59-2.922-6.402-6.496-6.402H331.548 c-3.578,0-6.434,2.812-6.501,6.402c-0.005,0.272-0.228,0.49-0.5,0.49H207.91c-4.131,0-7.492-3.362-7.492-7.495v-75.116 c0-4.131,3.361-7.493,7.492-7.493h380.18c4.131,0,7.492,3.361,7.492,7.493v75.116C595.582,403.616,592.221,406.979,588.09,406.979z M471.923,405.979H588.09c3.58,0,6.492-2.913,6.492-6.495v-75.116c0-3.58-2.912-6.493-6.492-6.493H207.91 c-3.58,0-6.492,2.913-6.492,6.493v75.116c0,3.582,2.913,6.495,6.492,6.495h116.162c0.317-3.902,3.513-6.892,7.477-6.892h132.903 C468.412,399.086,471.604,402.076,471.923,405.979z"/></g><g><path fill="#B1D465" d="M575.199,358.422c0,6.576-5.326,11.909-11.902,11.909c-6.582,0-11.908-5.333-11.908-11.909 c0-6.573,5.326-11.899,11.908-11.899C569.873,346.523,575.199,351.849,575.199,358.422"/></g><g><path fill="#0B9D49" d="M571.262,358.422c0,4.407-3.57,7.971-7.967,7.971c-4.398,0-7.969-3.564-7.969-7.971 c0-4.394,3.57-7.962,7.969-7.962C567.691,350.46,571.262,354.028,571.262,358.422"/></g><g><path fill="#B1D465" d="M536.691,358.422c0,6.576-5.326,11.909-11.902,11.909c-6.578,0-11.904-5.333-11.904-11.909 c0-6.573,5.326-11.899,11.904-11.899C531.365,346.523,536.691,351.849,536.691,358.422"/></g><g><path fill="#0B9D49" d="M532.754,358.422c0,4.407-3.564,7.971-7.967,7.971c-4.398,0-7.969-3.564-7.969-7.971 c0-4.394,3.57-7.962,7.969-7.962C529.189,350.46,532.754,354.028,532.754,358.422"/></g><g><path fill="#2887C8" d="M237.939,347.545c0,3.869-3.132,7.001-6.995,7.001s-6.995-3.132-6.995-7.001 c0-3.863,3.132-6.995,6.995-6.995S237.939,343.682,237.939,347.545 M230.944,361.554c-3.863,0-6.995,3.13-6.995,6.999 c0,3.866,3.132,6.995,6.995,6.995s6.995-3.129,6.995-6.995C237.939,364.684,234.807,361.554,230.944,361.554"/></g><g><path fill="#2887C8" d="M267.108,347.545c0,3.869-3.129,7.001-6.996,7.001c-3.863,0-6.992-3.132-6.992-7.001 c0-3.863,3.129-6.995,6.992-6.995C263.979,340.55,267.108,343.682,267.108,347.545 M260.112,361.554 c-3.863,0-6.992,3.13-6.992,6.999c0,3.866,3.129,6.995,6.992,6.995c3.866,0,6.996-3.129,6.996-6.995 C267.108,364.684,263.979,361.554,260.112,361.554"/></g><g><path fill="#2887C8" d="M296.28,347.545c0,3.869-3.133,7.001-6.996,7.001s-6.996-3.132-6.996-7.001 c0-3.863,3.133-6.995,6.996-6.995S296.28,343.682,296.28,347.545 M289.284,361.554c-3.863,0-6.996,3.13-6.996,6.999 c0,3.866,3.133,6.995,6.996,6.995s6.996-3.129,6.996-6.995C296.28,364.684,293.147,361.554,289.284,361.554"/></g><g><path fill="#2887C8" d="M325.452,347.545c0,3.869-3.133,7.001-6.996,7.001s-6.996-3.132-6.996-7.001 c0-3.863,3.133-6.995,6.996-6.995S325.452,343.682,325.452,347.545 M318.456,361.554c-3.863,0-6.996,3.13-6.996,6.999 c0,3.866,3.133,6.995,6.996,6.995s6.996-3.129,6.996-6.995C325.452,364.684,322.319,361.554,318.456,361.554"/></g><g><path fill="#2887C8" d="M354.623,347.545c0,3.869-3.132,7.001-6.996,7.001c-3.862,0-6.995-3.132-6.995-7.001 c0-3.863,3.133-6.995,6.995-6.995C351.491,340.55,354.623,343.682,354.623,347.545 M347.627,361.554 c-3.862,0-6.995,3.13-6.995,6.999c0,3.866,3.133,6.995,6.995,6.995c3.863,0,6.996-3.129,6.996-6.995 C354.623,364.684,351.491,361.554,347.627,361.554"/></g><g><path fill="#2887C8" d="M383.792,347.545c0,3.869-3.129,7.001-6.992,7.001c-3.863,0-6.995-3.132-6.995-7.001 c0-3.863,3.132-6.995,6.995-6.995C380.663,340.55,383.792,343.682,383.792,347.545 M376.799,361.554 c-3.863,0-6.995,3.13-6.995,6.999c0,3.866,3.132,6.995,6.995,6.995c3.863,0,6.992-3.129,6.992-6.995 C383.792,364.684,380.663,361.554,376.799,361.554"/></g><g><path fill="#2887C8" d="M412.963,347.545c0,3.869-3.129,7.001-6.994,7.001c-3.863,0-6.993-3.132-6.993-7.001 c0-3.863,3.129-6.995,6.993-6.995C409.834,340.55,412.963,343.682,412.963,347.545 M405.969,361.554 c-3.863,0-6.993,3.13-6.993,6.999c0,3.866,3.129,6.995,6.993,6.995c3.865,0,6.994-3.129,6.994-6.995 C412.963,364.684,409.834,361.554,405.969,361.554"/></g><g><path fill="#FFF" d="M595.082,215.338v75.106c0,3.891-3.148,7.001-6.992,7.001H471.447c-0.072-3.813-3.146-6.893-6.996-6.893 H331.548c-3.85,0-6.93,3.08-7.001,6.893H207.91c-3.851,0-6.992-3.111-6.992-7.001v-75.106c0-3.854,3.142-7.001,6.992-7.001h380.18 C591.934,208.337,595.082,211.485,595.082,215.338"/></g><g><path fill="#2887C8" d="M588.09,297.946H471.447c-0.272,0-0.495-0.218-0.5-0.491c-0.068-3.59-2.922-6.402-6.496-6.402H331.548 c-3.578,0-6.434,2.813-6.501,6.402c-0.005,0.272-0.228,0.491-0.5,0.491H207.91c-4.131,0-7.492-3.365-7.492-7.501v-75.106 c0-4.136,3.361-7.501,7.492-7.501h380.18c4.131,0,7.492,3.365,7.492,7.501v75.106C595.582,294.581,592.221,297.946,588.09,297.946z M471.923,296.946H588.09c3.58,0,6.492-2.917,6.492-6.501v-75.106c0-3.585-2.912-6.501-6.492-6.501H207.91 c-3.58,0-6.492,2.917-6.492,6.501v75.106c0,3.585,2.913,6.501,6.492,6.501h116.162c0.317-3.903,3.513-6.893,7.477-6.893h132.903 C468.412,290.053,471.604,293.043,471.923,296.946z"/></g><g><path fill="#B1D465" d="M575.199,249.392c0,6.573-5.326,11.909-11.902,11.909c-6.582,0-11.908-5.336-11.908-11.909 c0-6.576,5.326-11.908,11.908-11.908C569.873,237.484,575.199,242.816,575.199,249.392"/></g><g><path fill="#0B9D49" d="M571.262,249.392c0,4.397-3.57,7.968-7.967,7.968c-4.398,0-7.969-3.571-7.969-7.968 c0-4.4,3.57-7.968,7.969-7.968C567.691,241.424,571.262,244.992,571.262,249.392"/></g><g><path fill="#B1D465" d="M536.691,249.392c0,6.573-5.326,11.909-11.902,11.909c-6.578,0-11.904-5.336-11.904-11.909 c0-6.576,5.326-11.908,11.904-11.908C531.365,237.484,536.691,242.816,536.691,249.392"/></g><g><path fill="#0B9D49" d="M532.754,249.392c0,4.397-3.564,7.968-7.967,7.968c-4.398,0-7.969-3.571-7.969-7.968 c0-4.4,3.57-7.968,7.969-7.968C529.189,241.424,532.754,244.992,532.754,249.392"/></g><g><path fill="#2887C8" d="M237.939,238.512c0,3.863-3.132,6.996-6.995,6.996s-6.995-3.133-6.995-6.996s3.132-6.995,6.995-6.995 S237.939,234.649,237.939,238.512 M230.944,252.519c-3.863,0-6.995,3.132-6.995,6.999s3.132,6.999,6.995,6.999 s6.995-3.132,6.995-6.999S234.807,252.519,230.944,252.519"/></g><g><path fill="#2887C8" d="M267.108,238.512c0,3.863-3.129,6.996-6.996,6.996c-3.863,0-6.992-3.133-6.992-6.996 s3.129-6.995,6.992-6.995C263.979,231.517,267.108,234.649,267.108,238.512 M260.112,252.519c-3.863,0-6.992,3.132-6.992,6.999 s3.129,6.999,6.992,6.999c3.866,0,6.996-3.132,6.996-6.999S263.979,252.519,260.112,252.519"/></g><g><path fill="#2887C8" d="M296.28,238.512c0,3.863-3.133,6.996-6.996,6.996s-6.996-3.133-6.996-6.996s3.133-6.995,6.996-6.995 S296.28,234.649,296.28,238.512 M289.284,252.519c-3.863,0-6.996,3.132-6.996,6.999s3.133,6.999,6.996,6.999 s6.996-3.132,6.996-6.999S293.147,252.519,289.284,252.519"/></g><g><path fill="#2887C8" d="M325.452,238.512c0,3.863-3.133,6.996-6.996,6.996s-6.996-3.133-6.996-6.996s3.133-6.995,6.996-6.995 S325.452,234.649,325.452,238.512 M318.456,252.519c-3.863,0-6.996,3.132-6.996,6.999s3.133,6.999,6.996,6.999 s6.996-3.132,6.996-6.999S322.319,252.519,318.456,252.519"/></g><g><path fill="#2887C8" d="M354.623,238.512c0,3.863-3.132,6.996-6.996,6.996c-3.862,0-6.995-3.133-6.995-6.996 s3.133-6.995,6.995-6.995C351.491,231.517,354.623,234.649,354.623,238.512 M347.627,252.519c-3.862,0-6.995,3.132-6.995,6.999 s3.133,6.999,6.995,6.999c3.863,0,6.996-3.132,6.996-6.999S351.491,252.519,347.627,252.519"/></g><g><path fill="#2887C8" d="M383.792,238.512c0,3.863-3.129,6.996-6.992,6.996c-3.863,0-6.995-3.133-6.995-6.996 s3.132-6.995,6.995-6.995C380.663,231.517,383.792,234.649,383.792,238.512 M376.799,252.519c-3.863,0-6.995,3.132-6.995,6.999 s3.132,6.999,6.995,6.999c3.863,0,6.992-3.132,6.992-6.999S380.663,252.519,376.799,252.519"/></g><g><path fill="#2887C8" d="M412.963,238.512c0,3.863-3.129,6.996-6.994,6.996c-3.863,0-6.993-3.133-6.993-6.996 s3.129-6.995,6.993-6.995C409.834,231.517,412.963,234.649,412.963,238.512 M405.969,252.519c-3.863,0-6.993,3.132-6.993,6.999 s3.129,6.999,6.993,6.999c3.865,0,6.994-3.132,6.994-6.999S409.834,252.519,405.969,252.519"/></g><g><path fill="#FFF" d="M586.064,188.407H209.933c-4.979,0-9.019-4.034-9.019-9.019v-61.37c0-4.985,4.04-9.019,9.019-9.019h376.131 c4.98,0,9.018,4.034,9.018,9.019v61.37C595.082,184.374,591.045,188.407,586.064,188.407"/></g><g><path fill="#2887C8" d="M586.064,188.907H209.933c-5.249,0-9.519-4.27-9.519-9.519v-61.37c0-5.249,4.27-9.519,9.519-9.519h376.131 c5.248,0,9.518,4.27,9.518,9.519v61.37C595.582,184.637,591.313,188.907,586.064,188.907z M209.933,109.5 c-4.697,0-8.519,3.821-8.519,8.519v61.37c0,4.697,3.821,8.519,8.519,8.519h376.131c4.696,0,8.518-3.821,8.518-8.519v-61.37 c0-4.697-3.821-8.519-8.518-8.519H209.933z"/></g><g><path fill="#E4F0CC" d="M325.597,171.464h-92.9c-3.329,0-6.06-2.729-6.06-6.063v-31.968c0-3.338,2.731-6.06,6.06-6.06h92.9 c3.335,0,6.066,2.722,6.066,6.06v31.968C331.664,168.736,328.932,171.464,325.597,171.464"/></g><g><path fill="#2887C8" d="M324.606,173.229h-90.915c-4.863,0-8.816-3.959-8.816-8.82v-29.977c0-4.87,3.953-8.823,8.816-8.823h90.915 c4.863,0,8.816,3.953,8.816,8.823v29.977C333.422,169.27,329.469,173.229,324.606,173.229 M233.691,129.138 c-2.915,0-5.289,2.375-5.289,5.295v29.977c0,2.915,2.374,5.296,5.289,5.296h90.915c2.915,0,5.289-2.381,5.289-5.296v-29.977 c0-2.921-2.374-5.295-5.289-5.295H233.691z"/></g><g><path fill="#0B9D49" d="M242.765,161.439h-1.292c-1.774,0-3.226-1.448-3.226-3.22v-1.293c0-1.774,1.452-3.226,3.226-3.226h1.292 c1.775,0,3.226,1.451,3.226,3.226v1.293C245.991,159.991,244.54,161.439,242.765,161.439"/></g><g><path fill="#0B9D49" d="M262.123,161.439h-1.292c-1.774,0-3.226-1.448-3.226-3.22v-17.596c0-1.777,1.452-3.229,3.226-3.229h1.292 c1.774,0,3.226,1.451,3.226,3.229v17.596C265.349,159.991,263.897,161.439,262.123,161.439"/></g><g><path fill="#0B9D49" d="M281.481,161.439h-1.293c-1.774,0-3.226-1.448-3.226-3.22v-6.001c0-1.774,1.451-3.226,3.226-3.226h1.293 c1.777,0,3.22,1.451,3.22,3.226v6.001C284.701,159.991,283.258,161.439,281.481,161.439"/></g><g><path fill="#0B9D49" d="M320.196,161.439h-1.292c-1.775,0-3.226-1.448-3.226-3.22v-17.596c0-1.777,1.451-3.229,3.226-3.229h1.292 c1.778,0,3.229,1.451,3.229,3.229v17.596C323.425,159.991,321.974,161.439,320.196,161.439"/></g><g><path fill="#0B9D49" d="M300.838,161.439h-1.292c-1.775,0-3.226-1.448-3.226-3.22v-17.596c0-1.777,1.451-3.229,3.226-3.229h1.292 c1.778,0,3.22,1.451,3.22,3.229v17.596C304.058,159.991,302.616,161.439,300.838,161.439"/></g><g><path fill="#B1D465" d="M413.243,149.418c0,6.573-5.327,11.909-11.902,11.909c-6.582,0-11.909-5.336-11.909-11.909 c0-6.576,5.327-11.902,11.909-11.902C407.916,137.516,413.243,142.842,413.243,149.418"/></g><g><path fill="#0B9D49" d="M409.306,149.418c0,4.397-3.571,7.968-7.968,7.968c-4.398,0-7.968-3.57-7.968-7.968 c0-4.4,3.57-7.968,7.968-7.968C405.734,141.45,409.306,145.018,409.306,149.418"/></g><g><path fill="#B1D465" d="M374.739,149.418c0,6.573-5.329,11.909-11.902,11.909c-6.582,0-11.908-5.336-11.908-11.909 c0-6.576,5.326-11.902,11.908-11.902C369.41,137.516,374.739,142.842,374.739,149.418"/></g><g><path fill="#0B9D49" d="M370.798,149.418c0,4.397-3.562,7.968-7.968,7.968c-4.397,0-7.968-3.57-7.968-7.968 c0-4.4,3.571-7.968,7.968-7.968C367.237,141.45,370.798,145.018,370.798,149.418"/></g><g><path fill="#2887C8" d="M507.779,164.049h-4.082c-1.006,0-1.832-0.82-1.832-1.831v-27.037c0-1.007,0.826-1.827,1.832-1.827h4.082 c1.004,0,1.832,0.82,1.832,1.827v27.037C509.611,163.229,508.783,164.049,507.779,164.049"/></g><g><path fill="#2887C8" d="M536.799,164.049h-4.082c-1.004,0-1.83-0.82-1.83-1.831v-27.037c0-1.007,0.826-1.827,1.83-1.827h4.082 c1.006,0,1.826,0.82,1.826,1.827v27.037C538.625,163.229,537.805,164.049,536.799,164.049"/></g><g><path fill="#2887C8" d="M565.82,164.049h-4.08c-1.014,0-1.834-0.82-1.834-1.831v-27.037c0-1.007,0.82-1.827,1.834-1.827h4.08 c1.004,0,1.828,0.82,1.828,1.827v27.037C567.648,163.229,566.824,164.049,565.82,164.049"/></g><g><path fill="#FFF" d="M166.587,405.224H29.365c-3.515,0-6.365-2.851-6.365-6.365v-54.104c0-3.518,2.85-6.364,6.365-6.364h137.222 c3.515,0,6.365,2.846,6.365,6.364v54.104C172.952,402.373,170.102,405.224,166.587,405.224"/></g><g><path fill="#2887C8" d="M166.587,405.724H29.365c-3.785,0-6.865-3.079-6.865-6.865v-54.104c0-3.785,3.08-6.864,6.865-6.864h137.222 c3.785,0,6.865,3.079,6.865,6.864v54.104C173.452,402.645,170.372,405.724,166.587,405.724z M29.365,338.89 c-3.234,0-5.865,2.631-5.865,5.864v54.104c0,3.234,2.631,5.865,5.865,5.865h137.222c3.234,0,5.865-2.631,5.865-5.865v-54.104 c0-3.233-2.631-5.864-5.865-5.864H29.365z"/></g><g><path fill="#B6DDF5" d="M156.493,446.624H39.48c-3.512,0-6.364-2.851-6.364-6.364v-28.672c0-3.512,2.853-6.364,6.364-6.364h117.013 c3.512,0,6.365,2.853,6.365,6.364v28.672C162.858,443.773,160.005,446.624,156.493,446.624"/></g><g><path fill="#2887C8" d="M156.493,447.124H39.48c-3.785,0-6.864-3.079-6.864-6.864v-28.672c0-3.785,3.079-6.864,6.864-6.864h117.013 c3.785,0,6.865,3.079,6.865,6.864v28.672C163.358,444.045,160.278,447.124,156.493,447.124z M39.48,405.724 c-3.233,0-5.864,2.631-5.864,5.864v28.672c0,3.233,2.631,5.864,5.864,5.864h117.013c3.234,0,5.865-2.631,5.865-5.864v-28.672 c0-3.233-2.631-5.864-5.865-5.864H39.48z"/></g><g><polyline fill="#FFF" points="162.858 296.989 162.858 338.387 33.097 338.387 33.097 296.989"/></g><g><path fill="#2887C8" d="M162.858,338.887H33.097c-0.276,0-0.5-0.224-0.5-0.5v-41.397c0-0.276,0.224-0.5,0.5-0.5s0.5,0.224,0.5,0.5 v40.897h128.761v-40.897c0-0.276,0.224-0.5,0.5-0.5s0.5,0.224,0.5,0.5v41.397C163.358,338.663,163.134,338.887,162.858,338.887z"/></g><g><polyline fill="#B6DDF5" points="162.858 317.375 162.858 338.39 33.097 338.39 33.097 317.375"/></g><g><path fill="#2887C8" d="M162.858,338.89H33.097c-0.276,0-0.5-0.224-0.5-0.5v-21.015c0-0.276,0.224-0.5,0.5-0.5s0.5,0.224,0.5,0.5 v20.515h128.761v-20.515c0-0.276,0.224-0.5,0.5-0.5s0.5,0.224,0.5,0.5v21.015C163.358,338.667,163.134,338.89,162.858,338.89z"/></g><g><path fill="#FFF" d="M76.906,296.989h85.934c0.05,0,0-11.977,0-12.866c0-1.224,0.019-2.445-0.006-3.661 c-0.031-1.495-0.177-2.999-0.432-4.5c-1.358-8.089-5.609-16.253-9.376-23.637c-4.729-9.248-10.386-18.205-16.592-26.909 c-4.96-6.958-10.597-13.851-17.872-19.507c-5.485-4.257-12.536-8.186-20.62-8.186c-12.617,0-22.475,8.935-29.19,16.197 c-4.454,4.817-8.375,9.923-11.912,15.178c-5.908,8.761-11.203,17.835-15.358,27.192c-3.794,8.266-8.363,17.303-8.363,26.176v14.522 h25.75"/></g><g><path fill="#2887C8" d="M162.839,297.489H76.906c-0.276,0-0.5-0.224-0.5-0.5s0.224-0.5,0.5-0.5h85.448 c0.019-1.768-0.002-8.182-0.01-10.788l-0.004-1.578l0.003-1.101c0.004-0.852,0.008-1.702-0.01-2.549 c-0.03-1.455-0.173-2.944-0.425-4.427c-1.305-7.776-5.39-15.779-8.995-22.84l-0.333-0.654c-4.417-8.636-9.831-17.417-16.554-26.846 c-4.158-5.833-9.936-13.31-17.772-19.402c-7.005-5.437-13.65-8.08-20.313-8.08c-12.544,0-22.458,9.152-28.823,16.037 c-4.18,4.521-8.061,9.466-11.864,15.118c-6.454,9.57-11.464,18.44-15.316,27.116l-0.983,2.128 c-3.607,7.785-7.337,15.835-7.337,23.844v14.022h25.25c0.276,0,0.5,0.224,0.5,0.5s-0.224,0.5-0.5,0.5h-25.75 c-0.276,0-0.5-0.224-0.5-0.5v-14.522c0-8.229,3.777-16.381,7.429-24.265l0.979-2.12c3.874-8.725,8.911-17.644,15.398-27.264 c3.833-5.694,7.745-10.679,11.959-15.237c6.493-7.022,16.621-16.358,29.557-16.358c6.893,0,13.738,2.712,20.926,8.291 c7.939,6.172,13.775,13.723,17.973,19.612c6.751,9.469,12.19,18.292,16.63,26.972l0.333,0.654c3.637,7.125,7.76,15.201,9.09,23.128 c0.26,1.53,0.407,3.068,0.439,4.573c0.018,0.855,0.014,1.714,0.01,2.574l-0.003,1.097l0.004,1.575 c0.036,11.457,0.036,11.457-0.15,11.644C163.1,297.436,162.972,297.489,162.839,297.489z"/></g><g><rect width="27.957" height="31.319" x="172.958" y="356.147" fill="#FFF"/></g><g><path fill="#2887C8" d="M200.915,387.966h-27.957c-0.276,0-0.5-0.224-0.5-0.5v-31.319c0-0.276,0.224-0.5,0.5-0.5h27.957 c0.276,0,0.5,0.224,0.5,0.5v31.319C201.415,387.743,201.191,387.966,200.915,387.966z M173.458,386.966h26.957v-30.319h-26.957 V386.966z"/></g><g><path fill="#2887C8" d="M53.698,535.945c-0.276,0-0.5-0.224-0.5-0.5v-22.467c0-0.276,0.224-0.5,0.5-0.5s0.5,0.224,0.5,0.5v22.467 C54.198,535.722,53.974,535.945,53.698,535.945z"/></g><g><path fill="#2887C8" d="M53.698,496.552c-0.276,0-0.5-0.224-0.5-0.5v-31.509c0-0.276,0.224-0.5,0.5-0.5s0.5,0.224,0.5,0.5v31.509 C54.198,496.328,53.974,496.552,53.698,496.552z"/></g><g><path fill="#2887C8" d="M142.276,535.945c-0.276,0-0.5-0.224-0.5-0.5v-14c0-0.276,0.224-0.5,0.5-0.5s0.5,0.224,0.5,0.5v14 C142.776,535.722,142.552,535.945,142.276,535.945z"/></g><g><path fill="#2887C8" d="M142.276,504.457c-0.276,0-0.5-0.224-0.5-0.5v-14c0-0.276,0.224-0.5,0.5-0.5s0.5,0.224,0.5,0.5v14 C142.776,504.233,142.552,504.457,142.276,504.457z"/></g><g><path fill="#2887C8" d="M142.276,471.756c-0.276,0-0.5-0.224-0.5-0.5v-22.469c0-0.276,0.224-0.5,0.5-0.5s0.5,0.224,0.5,0.5v22.469 C142.776,471.532,142.552,471.756,142.276,471.756z"/></g><g><path fill="#2887C8" d="M112.75,535.941c-0.276,0-0.5-0.224-0.5-0.5v-32.823c0-0.276,0.224-0.5,0.5-0.5s0.5,0.224,0.5,0.5v32.823 C113.25,535.718,113.026,535.941,112.75,535.941z"/></g><g><path fill="#2887C8" d="M112.75,483.732c-0.276,0-0.5-0.224-0.5-0.5v-13.711c0-0.276,0.224-0.5,0.5-0.5s0.5,0.224,0.5,0.5v13.711 C113.25,483.509,113.026,483.732,112.75,483.732z"/></g><g><path fill="#2887C8" d="M83.224,514.076c-0.276,0-0.5-0.224-0.5-0.5v-13.711c0-0.276,0.224-0.5,0.5-0.5s0.5,0.224,0.5,0.5v13.711 C83.724,513.853,83.5,514.076,83.224,514.076z"/></g><g><path fill="#2887C8" d="M83.224,483.223c-0.276,0-0.5-0.224-0.5-0.5v-33.936c0-0.276,0.224-0.5,0.5-0.5s0.5,0.224,0.5,0.5v33.936 C83.724,482.999,83.5,483.223,83.224,483.223z"/></g><g><path fill="#FFF" d="M629.41,405.224h137.225c3.512,0,6.365-2.851,6.365-6.365v-54.104c0-3.518-2.854-6.364-6.365-6.364H629.41 c-3.516,0-6.365,2.846-6.365,6.364v54.104C623.045,402.373,625.895,405.224,629.41,405.224"/></g><g><path fill="#2887C8" d="M766.635,405.724H629.41c-3.785,0-6.865-3.079-6.865-6.865v-54.104c0-3.785,3.08-6.864,6.865-6.864h137.225 c3.785,0,6.865,3.079,6.865,6.864v54.104C773.5,402.645,770.42,405.724,766.635,405.724z M629.41,338.89 c-3.234,0-5.865,2.631-5.865,5.864v54.104c0,3.234,2.631,5.865,5.865,5.865h137.225c3.234,0,5.865-2.631,5.865-5.865v-54.104 c0-3.233-2.631-5.864-5.865-5.864H629.41z"/></g><g><path fill="#B6DDF5" d="M639.506,446.624h117.012c3.514,0,6.363-2.851,6.363-6.364v-28.672c0-3.512-2.85-6.364-6.363-6.364H639.506 c-3.514,0-6.363,2.853-6.363,6.364v28.672C633.143,443.773,635.992,446.624,639.506,446.624"/></g><g><path fill="#2887C8" d="M756.518,447.124H639.506c-3.784,0-6.863-3.079-6.863-6.864v-28.672c0-3.785,3.079-6.864,6.863-6.864 h117.012c3.784,0,6.863,3.079,6.863,6.864v28.672C763.381,444.045,760.302,447.124,756.518,447.124z M639.506,405.724 c-3.233,0-5.863,2.631-5.863,5.864v28.672c0,3.233,2.63,5.864,5.863,5.864h117.012c3.233,0,5.863-2.631,5.863-5.864v-28.672 c0-3.233-2.63-5.864-5.863-5.864H639.506z"/></g><g><polyline fill="#FFF" points="633.143 296.989 633.143 338.387 762.902 338.387 762.902 296.989"/></g><g><path fill="#2887C8" d="M762.902,338.887h-129.76c-0.276,0-0.5-0.224-0.5-0.5v-41.397c0-0.276,0.224-0.5,0.5-0.5s0.5,0.224,0.5,0.5 v40.897h128.76v-40.897c0-0.276,0.224-0.5,0.5-0.5s0.5,0.224,0.5,0.5v41.397C763.402,338.663,763.179,338.887,762.902,338.887z"/></g><g><polyline fill="#B6DDF5" points="633.143 317.68 633.143 338.38 762.9 338.38 762.9 317.68"/></g><g><path fill="#2887C8" d="M762.9,338.88H633.143c-0.276,0-0.5-0.224-0.5-0.5v-20.7c0-0.276,0.224-0.5,0.5-0.5s0.5,0.224,0.5,0.5v20.2 H762.4v-20.2c0-0.276,0.224-0.5,0.5-0.5s0.5,0.224,0.5,0.5v20.7C763.4,338.657,763.177,338.88,762.9,338.88z"/></g><g><path fill="#FFF" d="M719.092,296.989h-85.934c-0.051,0,0-11.977,0-12.866c0-1.224-0.02-2.445,0.006-3.661 c0.031-1.495,0.178-2.999,0.432-4.5c1.357-8.089,5.609-16.253,9.375-23.637c4.73-9.248,10.387-18.205,16.594-26.909 c4.965-6.958,10.596-13.851,17.871-19.507c5.484-4.257,12.539-8.186,20.619-8.186c12.617,0,22.475,8.935,29.191,16.197 c4.453,4.817,8.375,9.923,11.912,15.178c5.906,8.761,11.203,17.835,15.357,27.192c3.795,8.266,8.363,17.303,8.363,26.176v14.522 h-25.75"/></g><g><path fill="#2887C8" d="M762.879,297.489h-25.75c-0.276,0-0.5-0.224-0.5-0.5s0.224-0.5,0.5-0.5h25.25v-14.022 c0-8.01-3.73-16.061-7.338-23.847l-0.979-2.121c-3.852-8.674-8.861-17.543-15.318-27.122c-3.804-5.652-7.685-10.597-11.864-15.118 c-6.367-6.884-16.282-16.037-28.824-16.037c-6.664,0-13.308,2.643-20.313,8.081c-7.815,6.076-13.603,13.561-17.771,19.402 c-6.722,9.425-12.137,18.207-16.556,26.846l-0.339,0.665c-3.603,7.058-7.685,15.057-8.988,22.828 c-0.252,1.488-0.395,2.977-0.425,4.428c-0.018,0.843-0.014,1.688-0.01,2.535l0.004,1.115l-0.005,1.578 c-0.008,2.605-0.029,9.02-0.01,10.788h85.448c0.276,0,0.5,0.224,0.5,0.5s-0.224,0.5-0.5,0.5h-85.934 c-0.133,0-0.261-0.053-0.354-0.147c-0.188-0.188-0.188-0.188-0.15-11.644l0.005-1.575l-0.004-1.11 c-0.004-0.856-0.008-1.71,0.01-2.561c0.031-1.5,0.179-3.038,0.438-4.573c1.33-7.922,5.449-15.994,9.084-23.116l0.339-0.665 c4.441-8.684,9.882-17.507,16.632-26.973c4.208-5.897,10.053-13.455,17.972-19.611c7.187-5.579,14.031-8.291,20.926-8.291 c12.935,0,23.064,9.335,29.559,16.358c4.214,4.559,8.126,9.543,11.96,15.238c6.489,9.626,11.527,18.546,15.399,27.269l0.976,2.111 c3.653,7.884,7.431,16.037,7.431,24.267v14.522C763.379,297.266,763.155,297.489,762.879,297.489z"/></g><g><rect width="27.961" height="31.319" x="595.082" y="356.147" fill="#FFF"/></g><g><path fill="#2887C8" d="M623.043,387.966h-27.961c-0.276,0-0.5-0.224-0.5-0.5v-31.319c0-0.276,0.224-0.5,0.5-0.5h27.961 c0.276,0,0.5,0.224,0.5,0.5v31.319C623.543,387.743,623.319,387.966,623.043,387.966z M595.582,386.966h26.961v-30.319h-26.961 V386.966z"/></g><g><path fill="#2887C8" d="M742.299,538.918c-0.276,0-0.5-0.224-0.5-0.5V515.18c0-0.276,0.224-0.5,0.5-0.5s0.5,0.224,0.5,0.5v23.238 C742.799,538.694,742.575,538.918,742.299,538.918z"/></g><g><path fill="#2887C8" d="M742.299,498.177c-0.276,0-0.5-0.224-0.5-0.5v-32.593c0-0.276,0.224-0.5,0.5-0.5s0.5,0.224,0.5,0.5v32.593 C742.799,497.953,742.575,498.177,742.299,498.177z"/></g><g><path fill="#2887C8" d="M653.725,538.922c-0.276,0-0.5-0.224-0.5-0.5v-14.479c0-0.276,0.224-0.5,0.5-0.5s0.5,0.224,0.5,0.5v14.479 C654.225,538.698,654.001,538.922,653.725,538.922z"/></g><g><path fill="#2887C8" d="M653.725,506.354c-0.276,0-0.5-0.224-0.5-0.5v-14.479c0-0.276,0.224-0.5,0.5-0.5s0.5,0.224,0.5,0.5v14.479 C654.225,506.13,654.001,506.354,653.725,506.354z"/></g><g><path fill="#2887C8" d="M653.725,472.529c-0.276,0-0.5-0.224-0.5-0.5v-23.236c0-0.276,0.224-0.5,0.5-0.5s0.5,0.224,0.5,0.5v23.236 C654.225,472.306,654.001,472.529,653.725,472.529z"/></g><g><path fill="#2887C8" d="M683.248,538.918c-0.276,0-0.5-0.224-0.5-0.5v-33.947c0-0.276,0.224-0.5,0.5-0.5s0.5,0.224,0.5,0.5v33.947 C683.748,538.694,683.524,538.918,683.248,538.918z"/></g><g><path fill="#2887C8" d="M683.248,484.92c-0.276,0-0.5-0.224-0.5-0.5v-14.184c0-0.276,0.224-0.5,0.5-0.5s0.5,0.224,0.5,0.5v14.184 C683.748,484.696,683.524,484.92,683.248,484.92z"/></g><g><path fill="#2887C8" d="M712.773,516.301c-0.276,0-0.5-0.224-0.5-0.5v-14.178c0-0.276,0.224-0.5,0.5-0.5s0.5,0.224,0.5,0.5v14.178 C713.273,516.077,713.05,516.301,712.773,516.301z"/></g><g><path fill="#2887C8" d="M712.773,484.391c-0.276,0-0.5-0.224-0.5-0.5v-35.098c0-0.276,0.224-0.5,0.5-0.5s0.5,0.224,0.5,0.5v35.098 C713.273,484.167,713.05,484.391,712.773,484.391z"/></g></svg>