<?xml version="1.0" encoding="utf-8"?>
<!-- Generator: Adobe Illustrator 16.0.0, SVG Export Plug-In . SVG Version: 6.00 Build 0)  -->
<!DOCTYPE svg PUBLIC "-//W3C//DTD SVG 1.0//EN" "http://www.w3.org/TR/2001/REC-SVG-20010904/DTD/svg10.dtd">
<svg version="1.0" id="Layer_1" xmlns="http://www.w3.org/2000/svg" x="0px" y="0px"
     width="800px" height="800px" viewBox="0 0 800 800" enable-background="new 0 0 800 800" xml:space="preserve">
<path fill="#B6DDF5" d="M384.057,26v368.177L123.646,654.588C65.763,591.461,29.189,508.48,25.402,417.023
	C25.08,411.691,25,406.281,25,400.879c0-5.413,0.081-10.822,0.403-16.147c3.787-91.457,40.361-174.445,98.323-237.572
	c7.259-7.907,14.848-15.496,22.759-22.839C209.611,66.441,292.597,29.794,384.057,26"/>
    <path fill="none" stroke="#2887C8" stroke-width="1.5" stroke-linecap="round" stroke-linejoin="round"
          stroke-miterlimit="10" d="
	M384.057,26v368.177L123.646,654.588C65.763,591.461,29.189,508.48,25.402,417.023C25.08,411.691,25,406.281,25,400.879
	c0-5.413,0.081-10.822,0.403-16.147c3.787-91.457,40.361-174.445,98.323-237.572c7.259-7.907,14.848-15.496,22.759-22.839
	C209.611,66.441,292.597,29.794,384.057,26z"/>
    <path fill="#E4F0CC" d="M775,384.735H416.346V26c91.459,3.794,174.438,40.438,237.564,98.32
	c7.918,7.343,15.499,14.928,22.766,22.839C734.639,210.286,771.205,293.275,775,384.735"/>
    <path fill="none" stroke="#0B9D49" stroke-width="1.5" stroke-linecap="round" stroke-linejoin="round"
          stroke-miterlimit="10" d="
	M775,384.735H416.346V26c91.459,3.794,174.438,40.438,237.564,98.32c7.918,7.343,15.499,14.928,22.766,22.839
	C734.639,210.286,771.205,293.275,775,384.735z"/>
    <path fill="#E4F2FC" d="M653.91,677.357c-63.127,57.956-146.105,94.522-237.564,98.316c-5.333,0.322-10.739,0.41-16.152,0.41
	c-5.406,0-10.812-0.088-16.137-0.41c-91.46-3.794-174.445-40.36-237.572-98.316l253.709-253.719L653.91,677.357z"/>
    <path fill="none" stroke="#2887C8" stroke-width="1.5" stroke-linecap="round" stroke-linejoin="round"
          stroke-miterlimit="10" d="
	M653.91,677.357c-63.127,57.956-146.105,94.522-237.564,98.316c-5.333,0.322-10.739,0.41-16.152,0.41
	c-5.406,0-10.812-0.088-16.137-0.41c-91.46-3.794-174.445-40.36-237.572-98.316l253.709-253.719L653.91,677.357z"/>
    <path fill="#E4F2FC" d="M653.91,677.357c-63.127,57.956-146.105,94.522-237.564,98.316c-5.333,0.322-10.739,0.41-16.152,0.41
	c-5.406,0-10.812-0.088-16.137-0.41c-91.46-3.794-174.445-40.36-237.572-98.316l253.709-253.719L653.91,677.357z"/>
    <path fill="none" stroke="#2887C8" stroke-width="1.5" stroke-linecap="round" stroke-linejoin="round"
          stroke-miterlimit="10" d="
	M653.91,677.357c-63.127,57.956-146.105,94.522-237.564,98.316c-5.333,0.322-10.739,0.41-16.152,0.41
	c-5.406,0-10.812-0.088-16.137-0.41c-91.46-3.794-174.445-40.36-237.572-98.316l253.709-253.719L653.91,677.357z"/>
    <path fill="#FFFFFF" d="M775,417.023c-3.795,91.457-40.361,174.438-98.243,237.564L439.185,417.023H775z"/>
    <path fill="none" stroke="#2887C8" stroke-width="1.5" stroke-linecap="round" stroke-linejoin="round"
          stroke-miterlimit="10" d="
	M775,417.023c-3.795,91.457-40.361,174.438-98.243,237.564L439.185,417.023H775z"/>
</svg>
