<?xml version="1.0" encoding="utf-8"?>
<!-- Generator: Adobe Illustrator 16.0.0, SVG Export Plug-In . SVG Version: 6.00 Build 0)  -->
<!DOCTYPE svg PUBLIC "-//W3C//DTD SVG 1.0//EN" "http://www.w3.org/TR/2001/REC-SVG-20010904/DTD/svg10.dtd">
<svg version="1.0" id="Layer_1" xmlns="http://www.w3.org/2000/svg" x="0px" y="0px"
     width="800px" height="800px" viewBox="0 0 800 800" enable-background="new 0 0 800 800" xml:space="preserve">
<g>
</g>
    <rect x="457.787" y="259.383" fill="#B6DDF5" width="216.74" height="306.705"/>
    <rect x="457.787" y="259.383" fill="none" stroke="#2887C8" stroke-linecap="round" stroke-linejoin="round"
          stroke-miterlimit="10" width="216.74" height="306.705"/>
    <path fill="#FFFFFF" d="M688.26,502.869V549.4c0,2.406-1.951,4.336-4.336,4.336h-72.26c-0.047-2.36-1.953-4.27-4.336-4.27h-82.34
	c-2.383,0-4.291,1.909-4.336,4.27h-72.258c-2.387,0-4.336-1.93-4.336-4.336v-46.531c0-2.386,1.949-4.331,4.336-4.331h235.529
	C686.309,498.538,688.26,500.483,688.26,502.869"/>
    <path fill="none" stroke="#2887C8" stroke-miterlimit="10" d="M688.26,502.869V549.4c0,2.406-1.951,4.336-4.336,4.336h-72.26
	c-0.047-2.36-1.953-4.27-4.336-4.27h-82.34c-2.383,0-4.291,1.909-4.336,4.27h-72.258c-2.387,0-4.336-1.93-4.336-4.336v-46.531
	c0-2.386,1.949-4.331,4.336-4.331h235.529C686.309,498.538,688.26,500.483,688.26,502.869z"/>
    <path fill="#B1D465" d="M675.938,523.97c0,4.074-3.303,7.371-7.373,7.371c-4.072,0-7.375-3.297-7.375-7.371
	c0-4.075,3.303-7.377,7.375-7.377C672.635,516.593,675.938,519.895,675.938,523.97"/>
    <path fill="#0B9D49" d="M673.5,523.97c0,2.723-2.211,4.935-4.934,4.935c-2.729,0-4.939-2.212-4.939-4.935
	c0-2.729,2.211-4.94,4.939-4.94C671.289,519.029,673.5,521.241,673.5,523.97"/>
    <path fill="#B1D465" d="M652.082,523.97c0,4.074-3.301,7.371-7.375,7.371c-4.072,0-7.375-3.297-7.375-7.371
	c0-4.075,3.303-7.377,7.375-7.377C648.781,516.593,652.082,519.895,652.082,523.97"/>
    <path fill="#0B9D49" d="M649.645,523.97c0,2.723-2.209,4.935-4.936,4.935c-2.729,0-4.938-2.212-4.938-4.935
	c0-2.729,2.209-4.94,4.938-4.94C647.436,519.029,649.645,521.241,649.645,523.97"/>
    <path fill="#2887C8" d="M466.996,517.228c0,2.396-1.941,4.336-4.334,4.336c-2.395,0-4.334-1.94-4.334-4.336s1.939-4.336,4.334-4.336
	C465.055,512.892,466.996,514.832,466.996,517.228 M462.662,525.904c-2.395,0-4.334,1.94-4.334,4.336s1.939,4.336,4.334,4.336
	c2.393,0,4.334-1.94,4.334-4.336S465.055,525.904,462.662,525.904"/>
    <path fill="#2887C8" d="M485.068,517.228c0,2.396-1.941,4.336-4.334,4.336s-4.334-1.94-4.334-4.336s1.941-4.336,4.334-4.336
	S485.068,514.832,485.068,517.228 M480.734,525.904c-2.393,0-4.334,1.94-4.334,4.336s1.941,4.336,4.334,4.336
	s4.334-1.94,4.334-4.336S483.127,525.904,480.734,525.904"/>
    <path fill="#2887C8" d="M503.141,517.228c0,2.396-1.941,4.336-4.334,4.336s-4.336-1.94-4.336-4.336s1.943-4.336,4.336-4.336
	S503.141,514.832,503.141,517.228 M498.807,525.904c-2.393,0-4.336,1.94-4.336,4.336s1.943,4.336,4.336,4.336
	s4.334-1.94,4.334-4.336S501.199,525.904,498.807,525.904"/>
    <path fill="#2887C8" d="M521.213,517.228c0,2.396-1.941,4.336-4.334,4.336s-4.336-1.94-4.336-4.336s1.943-4.336,4.336-4.336
	S521.213,514.832,521.213,517.228 M516.879,525.904c-2.393,0-4.336,1.94-4.336,4.336s1.943,4.336,4.336,4.336
	s4.334-1.94,4.334-4.336S519.271,525.904,516.879,525.904"/>
    <path fill="#2887C8" d="M539.287,517.228c0,2.396-1.943,4.336-4.336,4.336s-4.336-1.94-4.336-4.336s1.943-4.336,4.336-4.336
	S539.287,514.832,539.287,517.228 M534.951,525.904c-2.393,0-4.336,1.94-4.336,4.336s1.943,4.336,4.336,4.336
	s4.336-1.94,4.336-4.336S537.344,525.904,534.951,525.904"/>
    <path fill="#2887C8" d="M557.359,517.228c0,2.396-1.943,4.336-4.336,4.336c-2.395,0-4.334-1.94-4.334-4.336s1.939-4.336,4.334-4.336
	C555.416,512.892,557.359,514.832,557.359,517.228 M553.023,525.904c-2.395,0-4.334,1.94-4.334,4.336s1.939,4.336,4.334,4.336
	c2.393,0,4.336-1.94,4.336-4.336S555.416,525.904,553.023,525.904"/>
    <path fill="#2887C8" d="M575.432,517.228c0,2.396-1.943,4.336-4.336,4.336s-4.334-1.94-4.334-4.336s1.941-4.336,4.334-4.336
	S575.432,514.832,575.432,517.228 M571.096,525.904c-2.393,0-4.334,1.94-4.334,4.336s1.941,4.336,4.334,4.336
	s4.336-1.94,4.336-4.336S573.488,525.904,571.096,525.904"/>
    <path fill="#FFFFFF" d="M688.26,435.32v46.53c0,2.405-1.951,4.336-4.336,4.336h-72.26c-0.047-2.36-1.953-4.27-4.336-4.27h-82.34
	c-2.383,0-4.291,1.909-4.336,4.27h-72.258c-2.387,0-4.336-1.931-4.336-4.336v-46.53c0-2.386,1.949-4.333,4.336-4.333h235.529
	C686.309,430.987,688.26,432.935,688.26,435.32"/>
    <path fill="none" stroke="#2887C8" stroke-miterlimit="10" d="M688.26,435.32v46.53c0,2.405-1.951,4.336-4.336,4.336h-72.26
	c-0.047-2.36-1.953-4.27-4.336-4.27h-82.34c-2.383,0-4.291,1.909-4.336,4.27h-72.258c-2.387,0-4.336-1.931-4.336-4.336v-46.53
	c0-2.386,1.949-4.333,4.336-4.333h235.529C686.309,430.987,688.26,432.935,688.26,435.32z"/>
    <path fill="#B1D465" d="M675.938,456.419c0,4.075-3.303,7.372-7.373,7.372c-4.072,0-7.375-3.297-7.375-7.372
	c0-4.074,3.303-7.376,7.375-7.376C672.635,449.043,675.938,452.345,675.938,456.419"/>
    <path fill="#0B9D49" d="M673.5,456.419c0,2.724-2.211,4.935-4.934,4.935c-2.729,0-4.939-2.211-4.939-4.935
	c0-2.729,2.211-4.939,4.939-4.939C671.289,451.479,673.5,453.69,673.5,456.419"/>
    <path fill="#B1D465" d="M652.082,456.419c0,4.075-3.301,7.372-7.375,7.372c-4.072,0-7.375-3.297-7.375-7.372
	c0-4.074,3.303-7.376,7.375-7.376C648.781,449.043,652.082,452.345,652.082,456.419"/>
    <path fill="#0B9D49" d="M649.645,456.419c0,2.724-2.209,4.935-4.936,4.935c-2.729,0-4.938-2.211-4.938-4.935
	c0-2.729,2.209-4.939,4.938-4.939C647.436,451.479,649.645,453.69,649.645,456.419"/>
    <path fill="#2887C8" d="M466.996,449.678c0,2.396-1.941,4.336-4.334,4.336c-2.395,0-4.334-1.94-4.334-4.336s1.939-4.336,4.334-4.336
	C465.055,445.342,466.996,447.282,466.996,449.678 M462.662,458.354c-2.395,0-4.334,1.939-4.334,4.336
	c0,2.396,1.939,4.335,4.334,4.335c2.393,0,4.334-1.939,4.334-4.335C466.996,460.294,465.055,458.354,462.662,458.354"/>
    <path fill="#2887C8" d="M485.068,449.678c0,2.396-1.941,4.336-4.334,4.336s-4.334-1.94-4.334-4.336s1.941-4.336,4.334-4.336
	S485.068,447.282,485.068,449.678 M480.734,458.354c-2.393,0-4.334,1.939-4.334,4.336c0,2.396,1.941,4.335,4.334,4.335
	s4.334-1.939,4.334-4.335C485.068,460.294,483.127,458.354,480.734,458.354"/>
    <path fill="#2887C8" d="M503.141,449.678c0,2.396-1.941,4.336-4.334,4.336s-4.336-1.94-4.336-4.336s1.943-4.336,4.336-4.336
	S503.141,447.282,503.141,449.678 M498.807,458.354c-2.393,0-4.336,1.939-4.336,4.336c0,2.396,1.943,4.335,4.336,4.335
	s4.334-1.939,4.334-4.335C503.141,460.294,501.199,458.354,498.807,458.354"/>
    <path fill="#2887C8" d="M521.213,449.678c0,2.396-1.941,4.336-4.334,4.336s-4.336-1.94-4.336-4.336s1.943-4.336,4.336-4.336
	S521.213,447.282,521.213,449.678 M516.879,458.354c-2.393,0-4.336,1.939-4.336,4.336c0,2.396,1.943,4.335,4.336,4.335
	s4.334-1.939,4.334-4.335C521.213,460.294,519.271,458.354,516.879,458.354"/>
    <path fill="#2887C8" d="M539.287,449.678c0,2.396-1.943,4.336-4.336,4.336s-4.336-1.94-4.336-4.336s1.943-4.336,4.336-4.336
	S539.287,447.282,539.287,449.678 M534.951,458.354c-2.393,0-4.336,1.939-4.336,4.336c0,2.396,1.943,4.335,4.336,4.335
	s4.336-1.939,4.336-4.335C539.287,460.294,537.344,458.354,534.951,458.354"/>
    <path fill="#2887C8" d="M557.359,449.678c0,2.396-1.943,4.336-4.336,4.336c-2.395,0-4.334-1.94-4.334-4.336s1.939-4.336,4.334-4.336
	C555.416,445.342,557.359,447.282,557.359,449.678 M553.023,458.354c-2.395,0-4.334,1.939-4.334,4.336
	c0,2.396,1.939,4.335,4.334,4.335c2.393,0,4.336-1.939,4.336-4.335C557.359,460.294,555.416,458.354,553.023,458.354"/>
    <path fill="#2887C8" d="M575.432,449.678c0,2.396-1.943,4.336-4.336,4.336s-4.334-1.94-4.334-4.336s1.941-4.336,4.334-4.336
	S575.432,447.282,575.432,449.678 M571.096,458.354c-2.393,0-4.334,1.939-4.334,4.336c0,2.396,1.941,4.335,4.334,4.335
	s4.336-1.939,4.336-4.335C575.432,460.294,573.488,458.354,571.096,458.354"/>
    <path fill="#FFFFFF" d="M688.26,367.771v46.53c0,2.408-1.951,4.336-4.336,4.336h-72.26c-0.047-2.362-1.953-4.27-4.336-4.27h-82.34
	c-2.383,0-4.291,1.907-4.336,4.27h-72.258c-2.387,0-4.336-1.928-4.336-4.336v-46.53c0-2.386,1.949-4.336,4.336-4.336h235.529
	C686.309,363.436,688.26,365.386,688.26,367.771"/>
    <path fill="none" stroke="#2887C8" stroke-miterlimit="10" d="M688.26,367.771v46.53c0,2.408-1.951,4.336-4.336,4.336h-72.26
	c-0.047-2.362-1.953-4.27-4.336-4.27h-82.34c-2.383,0-4.291,1.907-4.336,4.27h-72.258c-2.387,0-4.336-1.928-4.336-4.336v-46.53
	c0-2.386,1.949-4.336,4.336-4.336h235.529C686.309,363.436,688.26,365.386,688.26,367.771z"/>
    <path fill="#B1D465" d="M675.938,388.868c0,4.074-3.303,7.374-7.373,7.374c-4.072,0-7.375-3.299-7.375-7.374
	c0-4.075,3.303-7.374,7.375-7.374C672.635,381.494,675.938,384.793,675.938,388.868"/>
    <path fill="#0B9D49" d="M673.5,388.868c0,2.726-2.211,4.937-4.934,4.937c-2.729,0-4.939-2.211-4.939-4.937
	c0-2.726,2.211-4.938,4.939-4.938C671.289,383.931,673.5,386.142,673.5,388.868"/>
    <path fill="#B1D465" d="M652.082,388.868c0,4.074-3.301,7.374-7.375,7.374c-4.072,0-7.375-3.299-7.375-7.374
	c0-4.075,3.303-7.374,7.375-7.374C648.781,381.494,652.082,384.793,652.082,388.868"/>
    <path fill="#0B9D49" d="M649.645,388.868c0,2.726-2.209,4.937-4.936,4.937c-2.729,0-4.938-2.211-4.938-4.937
	c0-2.726,2.209-4.938,4.938-4.938C647.436,383.931,649.645,386.142,649.645,388.868"/>
    <path fill="#2887C8" d="M466.996,382.129c0,2.396-1.941,4.333-4.334,4.333c-2.395,0-4.334-1.938-4.334-4.333
	c0-2.396,1.939-4.336,4.334-4.336C465.055,377.793,466.996,379.733,466.996,382.129 M462.662,390.806
	c-2.395,0-4.334,1.94-4.334,4.335c0,2.393,1.939,4.336,4.334,4.336c2.393,0,4.334-1.943,4.334-4.336
	C466.996,392.746,465.055,390.806,462.662,390.806"/>
    <path fill="#2887C8" d="M485.068,382.129c0,2.396-1.941,4.333-4.334,4.333s-4.334-1.938-4.334-4.333
	c0-2.396,1.941-4.336,4.334-4.336S485.068,379.733,485.068,382.129 M480.734,390.806c-2.393,0-4.334,1.94-4.334,4.335
	c0,2.393,1.941,4.336,4.334,4.336s4.334-1.943,4.334-4.336C485.068,392.746,483.127,390.806,480.734,390.806"/>
    <path fill="#2887C8" d="M503.141,382.129c0,2.396-1.941,4.333-4.334,4.333s-4.336-1.938-4.336-4.333
	c0-2.396,1.943-4.336,4.336-4.336S503.141,379.733,503.141,382.129 M498.807,390.806c-2.393,0-4.336,1.94-4.336,4.335
	c0,2.393,1.943,4.336,4.336,4.336s4.334-1.943,4.334-4.336C503.141,392.746,501.199,390.806,498.807,390.806"/>
    <path fill="#2887C8" d="M521.213,382.129c0,2.396-1.941,4.333-4.334,4.333s-4.336-1.938-4.336-4.333
	c0-2.396,1.943-4.336,4.336-4.336S521.213,379.733,521.213,382.129 M516.879,390.806c-2.393,0-4.336,1.94-4.336,4.335
	c0,2.393,1.943,4.336,4.336,4.336s4.334-1.943,4.334-4.336C521.213,392.746,519.271,390.806,516.879,390.806"/>
    <path fill="#2887C8" d="M539.287,382.129c0,2.396-1.943,4.333-4.336,4.333s-4.336-1.938-4.336-4.333
	c0-2.396,1.943-4.336,4.336-4.336S539.287,379.733,539.287,382.129 M534.951,390.806c-2.393,0-4.336,1.94-4.336,4.335
	c0,2.393,1.943,4.336,4.336,4.336s4.336-1.943,4.336-4.336C539.287,392.746,537.344,390.806,534.951,390.806"/>
    <path fill="#2887C8" d="M557.359,382.129c0,2.396-1.943,4.333-4.336,4.333c-2.395,0-4.334-1.938-4.334-4.333
	c0-2.396,1.939-4.336,4.334-4.336C555.416,377.793,557.359,379.733,557.359,382.129 M553.023,390.806
	c-2.395,0-4.334,1.94-4.334,4.335c0,2.393,1.939,4.336,4.334,4.336c2.393,0,4.336-1.943,4.336-4.336
	C557.359,392.746,555.416,390.806,553.023,390.806"/>
    <path fill="#2887C8" d="M575.432,382.129c0,2.396-1.943,4.333-4.336,4.333s-4.334-1.938-4.334-4.333
	c0-2.396,1.941-4.336,4.334-4.336S575.432,379.733,575.432,382.129 M571.096,390.806c-2.393,0-4.334,1.94-4.334,4.335
	c0,2.393,1.941,4.336,4.334,4.336s4.336-1.943,4.336-4.336C575.432,392.746,573.488,390.806,571.096,390.806"/>
    <path fill="#FFFFFF" d="M688.26,300.22v46.533c0,2.406-1.951,4.334-4.336,4.334h-72.26c-0.047-2.361-1.953-4.27-4.336-4.27h-82.34
	c-2.383,0-4.291,1.908-4.336,4.27h-72.258c-2.387,0-4.336-1.929-4.336-4.334V300.22c0-2.384,1.949-4.334,4.336-4.334h235.529
	C686.309,295.885,688.26,297.836,688.26,300.22"/>
    <path fill="none" stroke="#2887C8" stroke-miterlimit="10" d="M688.26,300.22v46.533c0,2.406-1.951,4.334-4.336,4.334h-72.26
	c-0.047-2.361-1.953-4.27-4.336-4.27h-82.34c-2.383,0-4.291,1.908-4.336,4.27h-72.258c-2.387,0-4.336-1.929-4.336-4.334V300.22
	c0-2.384,1.949-4.334,4.336-4.334h235.529C686.309,295.885,688.26,297.836,688.26,300.22z"/>
    <path fill="#B1D465" d="M675.938,321.318c0,4.073-3.303,7.374-7.373,7.374c-4.072,0-7.375-3.301-7.375-7.374
	c0-4.075,3.303-7.374,7.375-7.374C672.635,313.944,675.938,317.243,675.938,321.318"/>
    <path fill="#0B9D49" d="M673.5,321.318c0,2.726-2.211,4.936-4.934,4.936c-2.729,0-4.939-2.21-4.939-4.936
	c0-2.725,2.211-4.938,4.939-4.938C671.289,316.38,673.5,318.593,673.5,321.318"/>
    <path fill="#B1D465" d="M652.082,321.318c0,4.073-3.301,7.374-7.375,7.374c-4.072,0-7.375-3.301-7.375-7.374
	c0-4.075,3.303-7.374,7.375-7.374C648.781,313.944,652.082,317.243,652.082,321.318"/>
    <path fill="#0B9D49" d="M649.645,321.318c0,2.726-2.209,4.936-4.936,4.936c-2.729,0-4.938-2.21-4.938-4.936
	c0-2.725,2.209-4.938,4.938-4.938C647.436,316.38,649.645,318.593,649.645,321.318"/>
    <path fill="#2887C8" d="M466.996,314.579c0,2.396-1.941,4.334-4.334,4.334c-2.395,0-4.334-1.938-4.334-4.334
	c0-2.396,1.939-4.335,4.334-4.335C465.055,310.243,466.996,312.183,466.996,314.579 M462.662,323.255
	c-2.395,0-4.334,1.94-4.334,4.333c0,2.396,1.939,4.337,4.334,4.337c2.393,0,4.334-1.941,4.334-4.337
	C466.996,325.195,465.055,323.255,462.662,323.255"/>
    <path fill="#2887C8" d="M485.068,314.579c0,2.396-1.941,4.334-4.334,4.334s-4.334-1.938-4.334-4.334
	c0-2.396,1.941-4.335,4.334-4.335S485.068,312.183,485.068,314.579 M480.734,323.255c-2.393,0-4.334,1.94-4.334,4.333
	c0,2.396,1.941,4.337,4.334,4.337s4.334-1.941,4.334-4.337C485.068,325.195,483.127,323.255,480.734,323.255"/>
    <path fill="#2887C8" d="M503.141,314.579c0,2.396-1.941,4.334-4.334,4.334s-4.336-1.938-4.336-4.334
	c0-2.396,1.943-4.335,4.336-4.335S503.141,312.183,503.141,314.579 M498.807,323.255c-2.393,0-4.336,1.94-4.336,4.333
	c0,2.396,1.943,4.337,4.336,4.337s4.334-1.941,4.334-4.337C503.141,325.195,501.199,323.255,498.807,323.255"/>
    <path fill="#2887C8" d="M521.213,314.579c0,2.396-1.941,4.334-4.334,4.334s-4.336-1.938-4.336-4.334
	c0-2.396,1.943-4.335,4.336-4.335S521.213,312.183,521.213,314.579 M516.879,323.255c-2.393,0-4.336,1.94-4.336,4.333
	c0,2.396,1.943,4.337,4.336,4.337s4.334-1.941,4.334-4.337C521.213,325.195,519.271,323.255,516.879,323.255"/>
    <path fill="#2887C8" d="M539.287,314.579c0,2.396-1.943,4.334-4.336,4.334s-4.336-1.938-4.336-4.334
	c0-2.396,1.943-4.335,4.336-4.335S539.287,312.183,539.287,314.579 M534.951,323.255c-2.393,0-4.336,1.94-4.336,4.333
	c0,2.396,1.943,4.337,4.336,4.337s4.336-1.941,4.336-4.337C539.287,325.195,537.344,323.255,534.951,323.255"/>
    <path fill="#2887C8" d="M557.359,314.579c0,2.396-1.943,4.334-4.336,4.334c-2.395,0-4.334-1.938-4.334-4.334
	c0-2.396,1.939-4.335,4.334-4.335C555.416,310.243,557.359,312.183,557.359,314.579 M553.023,323.255
	c-2.395,0-4.334,1.94-4.334,4.333c0,2.396,1.939,4.337,4.334,4.337c2.393,0,4.336-1.941,4.336-4.337
	C557.359,325.195,555.416,323.255,553.023,323.255"/>
    <path fill="#2887C8" d="M575.432,314.579c0,2.396-1.943,4.334-4.336,4.334s-4.334-1.938-4.334-4.334
	c0-2.396,1.941-4.335,4.334-4.335S575.432,312.183,575.432,314.579 M571.096,323.255c-2.393,0-4.334,1.94-4.334,4.333
	c0,2.396,1.941,4.337,4.334,4.337s4.336-1.941,4.336-4.337C575.432,325.195,573.488,323.255,571.096,323.255"/>
    <path fill="#FFFFFF" d="M684.543,283.537H447.771c-2.049,0-3.713-1.664-3.713-3.714v-41.768c0-2.053,1.664-3.714,3.713-3.714
	h236.771c2.053,0,3.713,1.661,3.713,3.714v41.768C688.256,281.874,686.596,283.537,684.543,283.537"/>
    <path fill="none" stroke="#2887C8" stroke-miterlimit="10" d="M684.543,283.537H447.771c-2.049,0-3.713-1.664-3.713-3.714v-41.768
	c0-2.053,1.664-3.714,3.713-3.714h236.771c2.053,0,3.713,1.661,3.713,3.714v41.768C688.256,281.874,686.596,283.537,684.543,283.537
	z"/>
    <path fill="#E4F0CC" d="M522.563,273.038h-60.074c-1.373,0-2.494-1.121-2.494-2.494v-22.325c0-1.371,1.121-2.496,2.494-2.496h60.074
	c1.373,0,2.498,1.125,2.498,2.496v22.325C525.061,271.917,523.936,273.038,522.563,273.038"/>
    <path fill="#2887C8" d="M520.689,274.132h-56.326c-3.012,0-5.461-2.451-5.461-5.462v-18.576c0-3.011,2.449-5.464,5.461-5.464h56.326
	c3.012,0,5.461,2.453,5.461,5.464v18.576C526.15,271.682,523.701,274.132,520.689,274.132 M464.363,246.816
	c-1.809,0-3.277,1.47-3.277,3.278v18.576c0,1.806,1.469,3.276,3.277,3.276h56.326c1.807,0,3.275-1.47,3.275-3.276v-18.576
	c0-1.808-1.469-3.278-3.275-3.278H464.363z"/>
    <path fill="#0B9D49" d="M470.613,266.829h-2.057c-0.754,0-1.369-0.613-1.369-1.367v-2.058c0-0.755,0.615-1.368,1.369-1.368h2.057
	c0.752,0,1.371,0.613,1.371,1.368v2.058C471.984,266.216,471.365,266.829,470.613,266.829"/>
    <path fill="#0B9D49" d="M482.605,266.829h-2.057c-0.752,0-1.369-0.613-1.369-1.367v-12.159c0-0.752,0.617-1.371,1.369-1.371h2.057
	c0.754,0,1.371,0.618,1.371,1.371v12.159C483.977,266.216,483.359,266.829,482.605,266.829"/>
    <path fill="#0B9D49" d="M494.6,266.829h-2.059c-0.752,0-1.367-0.613-1.367-1.367v-4.976c0-0.751,0.615-1.368,1.367-1.368h2.059
	c0.752,0,1.369,0.617,1.369,1.368v4.976C495.969,266.216,495.352,266.829,494.6,266.829"/>
    <path fill="#0B9D49" d="M518.586,266.829h-2.059c-0.752,0-1.367-0.613-1.367-1.367v-12.159c0-0.752,0.615-1.371,1.367-1.371h2.059
	c0.75,0,1.369,0.618,1.369,1.371v12.159C519.955,266.216,519.336,266.829,518.586,266.829"/>
    <path fill="#0B9D49" d="M506.592,266.829h-2.057c-0.752,0-1.369-0.613-1.369-1.367v-12.159c0-0.752,0.617-1.371,1.369-1.371h2.057
	c0.752,0,1.369,0.618,1.369,1.371v12.159C507.961,266.216,507.344,266.829,506.592,266.829"/>
    <path fill="#B1D465" d="M575.604,259.381c0,4.076-3.305,7.376-7.377,7.376s-7.375-3.301-7.375-7.376
	c0-4.072,3.303-7.374,7.375-7.374S575.604,255.309,575.604,259.381"/>
    <path fill="#0B9D49" d="M573.164,259.381c0,2.726-2.211,4.938-4.936,4.938c-2.729,0-4.938-2.213-4.938-4.938
	c0-2.725,2.209-4.938,4.938-4.938C570.953,254.443,573.164,256.656,573.164,259.381"/>
    <path fill="#B1D465" d="M551.746,259.381c0,4.076-3.303,7.376-7.375,7.376s-7.375-3.301-7.375-7.376
	c0-4.072,3.303-7.374,7.375-7.374S551.746,255.309,551.746,259.381"/>
    <path fill="#0B9D49" d="M549.309,259.381c0,2.726-2.211,4.938-4.938,4.938c-2.729,0-4.936-2.213-4.936-4.938
	c0-2.725,2.207-4.938,4.936-4.938C547.098,254.443,549.309,256.656,549.309,259.381"/>
    <path fill="#2887C8" d="M634.551,268.446h-3.291c-0.416,0-0.754-0.338-0.754-0.751v-17.514c0-0.415,0.338-0.752,0.754-0.752h3.291
	c0.412,0,0.752,0.338,0.752,0.752v17.514C635.303,268.108,634.963,268.446,634.551,268.446"/>
    <path fill="#2887C8" d="M652.529,268.446h-3.289c-0.416,0-0.754-0.338-0.754-0.751v-17.514c0-0.415,0.338-0.752,0.754-0.752h3.289
	c0.414,0,0.752,0.338,0.752,0.752v17.514C653.281,268.108,652.943,268.446,652.529,268.446"/>
    <path fill="#2887C8" d="M670.506,268.446h-3.285c-0.416,0-0.754-0.338-0.754-0.751v-17.514c0-0.415,0.338-0.752,0.754-0.752h3.285
	c0.414,0,0.758,0.338,0.758,0.752v17.514C671.264,268.108,670.92,268.446,670.506,268.446"/>
    <line fill="none" stroke="#2887C8" stroke-linecap="round" stroke-linejoin="round" stroke-miterlimit="10"
          x1="410.585" y1="566.083" x2="721.732" y2="566.083"/>
    <line fill="none" stroke="#2887C8" stroke-linecap="round" stroke-linejoin="round" stroke-miterlimit="10" x1="740.73"
          y1="566.083" x2="756.291" y2="566.083"/>
    <line fill="none" stroke="#2887C8" stroke-linecap="round" stroke-linejoin="round" stroke-miterlimit="10"
          x1="773.258" y1="566.083" x2="775" y2="566.083"/>
    <line fill="none" stroke="#2887C8" stroke-linecap="round" stroke-linejoin="round" stroke-miterlimit="10"
          x1="391.584" y1="566.083" x2="376.026" y2="566.083"/>
    <line fill="none" stroke="#2887C8" stroke-linecap="round" stroke-linejoin="round" stroke-miterlimit="10"
          x1="356.889" y1="566.083" x2="355.146" y2="566.083"/>
    <rect x="127.641" y="259.383" fill="#B6DDF5" width="216.74" height="306.705"/>
    <rect x="127.641" y="259.383" fill="none" stroke="#2887C8" stroke-linecap="round" stroke-linejoin="round"
          stroke-miterlimit="10" width="216.74" height="306.705"/>
    <path fill="#FFFFFF" d="M358.111,502.869V549.4c0,2.406-1.95,4.336-4.336,4.336h-72.258c-0.044-2.36-1.953-4.27-4.335-4.27H194.84
	c-2.382,0-4.29,1.909-4.335,4.27h-72.258c-2.386,0-4.336-1.93-4.336-4.336v-46.531c0-2.386,1.95-4.331,4.336-4.331h235.528
	C356.161,498.538,358.111,500.483,358.111,502.869"/>
    <path fill="none" stroke="#2887C8" stroke-miterlimit="10" d="M358.111,502.869V549.4c0,2.406-1.95,4.336-4.336,4.336h-72.258
	c-0.044-2.36-1.953-4.27-4.335-4.27H194.84c-2.382,0-4.29,1.909-4.335,4.27h-72.258c-2.386,0-4.336-1.93-4.336-4.336v-46.531
	c0-2.386,1.95-4.331,4.336-4.331h235.528C356.161,498.538,358.111,500.483,358.111,502.869z"/>
    <path fill="#B1D465" d="M345.792,523.97c0,4.074-3.303,7.371-7.375,7.371c-4.074,0-7.375-3.297-7.375-7.371
	c0-4.075,3.302-7.377,7.375-7.377C342.49,516.593,345.792,519.895,345.792,523.97"/>
    <path fill="#0B9D49" d="M343.354,523.97c0,2.723-2.21,4.935-4.936,4.935c-2.729,0-4.938-2.212-4.938-4.935
	c0-2.729,2.209-4.94,4.938-4.94C341.143,519.029,343.354,521.241,343.354,523.97"/>
    <path fill="#B1D465" d="M321.937,523.97c0,4.074-3.302,7.371-7.375,7.371c-4.073,0-7.375-3.297-7.375-7.371
	c0-4.075,3.302-7.377,7.375-7.377C318.635,516.593,321.937,519.895,321.937,523.97"/>
    <path fill="#0B9D49" d="M319.498,523.97c0,2.723-2.21,4.935-4.936,4.935c-2.729,0-4.937-2.212-4.937-4.935
	c0-2.729,2.208-4.94,4.937-4.94C317.288,519.029,319.498,521.241,319.498,523.97"/>
    <path fill="#2887C8" d="M136.85,517.228c0,2.396-1.941,4.336-4.334,4.336s-4.334-1.94-4.334-4.336s1.941-4.336,4.334-4.336
	S136.85,514.832,136.85,517.228 M132.515,525.904c-2.393,0-4.334,1.94-4.334,4.336s1.941,4.336,4.334,4.336s4.334-1.94,4.334-4.336
	S134.908,525.904,132.515,525.904"/>
    <path fill="#2887C8" d="M154.922,517.228c0,2.396-1.941,4.336-4.334,4.336s-4.336-1.94-4.336-4.336s1.943-4.336,4.336-4.336
	S154.922,514.832,154.922,517.228 M150.588,525.904c-2.393,0-4.336,1.94-4.336,4.336s1.943,4.336,4.336,4.336
	s4.334-1.94,4.334-4.336S152.981,525.904,150.588,525.904"/>
    <path fill="#2887C8" d="M172.995,517.228c0,2.396-1.942,4.336-4.334,4.336c-2.393,0-4.335-1.94-4.335-4.336s1.942-4.336,4.335-4.336
	C171.052,512.892,172.995,514.832,172.995,517.228 M168.66,525.904c-2.393,0-4.335,1.94-4.335,4.336s1.942,4.336,4.335,4.336
	c2.392,0,4.334-1.94,4.334-4.336S171.052,525.904,168.66,525.904"/>
    <path fill="#2887C8" d="M191.067,517.228c0,2.396-1.943,4.336-4.334,4.336c-2.393,0-4.336-1.94-4.336-4.336s1.943-4.336,4.336-4.336
	C189.125,512.892,191.067,514.832,191.067,517.228 M186.733,525.904c-2.393,0-4.336,1.94-4.336,4.336s1.943,4.336,4.336,4.336
	c2.392,0,4.334-1.94,4.334-4.336S189.125,525.904,186.733,525.904"/>
    <path fill="#2887C8" d="M209.14,517.228c0,2.396-1.943,4.336-4.336,4.336s-4.334-1.94-4.334-4.336s1.941-4.336,4.334-4.336
	S209.14,514.832,209.14,517.228 M204.804,525.904c-2.393,0-4.334,1.94-4.334,4.336s1.941,4.336,4.334,4.336s4.336-1.94,4.336-4.336
	S207.197,525.904,204.804,525.904"/>
    <path fill="#2887C8" d="M227.212,517.228c0,2.396-1.942,4.336-4.335,4.336s-4.334-1.94-4.334-4.336s1.941-4.336,4.334-4.336
	S227.212,514.832,227.212,517.228 M222.877,525.904c-2.393,0-4.334,1.94-4.334,4.336s1.941,4.336,4.334,4.336
	s4.335-1.94,4.335-4.336S225.27,525.904,222.877,525.904"/>
    <path fill="#2887C8" d="M245.284,517.228c0,2.396-1.941,4.336-4.334,4.336s-4.334-1.94-4.334-4.336s1.941-4.336,4.334-4.336
	S245.284,514.832,245.284,517.228 M240.949,525.904c-2.393,0-4.334,1.94-4.334,4.336s1.941,4.336,4.334,4.336
	s4.334-1.94,4.334-4.336S243.342,525.904,240.949,525.904"/>
    <path fill="#FFFFFF" d="M358.111,435.32v46.53c0,2.405-1.95,4.336-4.336,4.336h-72.258c-0.044-2.36-1.953-4.27-4.335-4.27H194.84
	c-2.382,0-4.29,1.909-4.335,4.27h-72.258c-2.386,0-4.336-1.931-4.336-4.336v-46.53c0-2.386,1.95-4.333,4.336-4.333h235.528
	C356.161,430.987,358.111,432.935,358.111,435.32"/>
    <path fill="none" stroke="#2887C8" stroke-miterlimit="10" d="M358.111,435.32v46.53c0,2.405-1.95,4.336-4.336,4.336h-72.258
	c-0.044-2.36-1.953-4.27-4.335-4.27H194.84c-2.382,0-4.29,1.909-4.335,4.27h-72.258c-2.386,0-4.336-1.931-4.336-4.336v-46.53
	c0-2.386,1.95-4.333,4.336-4.333h235.528C356.161,430.987,358.111,432.935,358.111,435.32z"/>
    <path fill="#B1D465" d="M345.792,456.419c0,4.075-3.303,7.372-7.375,7.372c-4.074,0-7.375-3.297-7.375-7.372
	c0-4.074,3.302-7.376,7.375-7.376C342.49,449.043,345.792,452.345,345.792,456.419"/>
    <path fill="#0B9D49" d="M343.354,456.419c0,2.724-2.21,4.935-4.936,4.935c-2.729,0-4.938-2.211-4.938-4.935
	c0-2.729,2.209-4.939,4.938-4.939C341.143,451.479,343.354,453.69,343.354,456.419"/>
    <path fill="#B1D465" d="M321.937,456.419c0,4.075-3.302,7.372-7.375,7.372c-4.073,0-7.375-3.297-7.375-7.372
	c0-4.074,3.302-7.376,7.375-7.376C318.635,449.043,321.937,452.345,321.937,456.419"/>
    <path fill="#0B9D49" d="M319.498,456.419c0,2.724-2.21,4.935-4.936,4.935c-2.729,0-4.937-2.211-4.937-4.935
	c0-2.729,2.208-4.939,4.937-4.939C317.288,451.479,319.498,453.69,319.498,456.419"/>
    <path fill="#2887C8" d="M136.85,449.678c0,2.396-1.941,4.336-4.334,4.336s-4.334-1.94-4.334-4.336s1.941-4.336,4.334-4.336
	S136.85,447.282,136.85,449.678 M132.515,458.354c-2.393,0-4.334,1.939-4.334,4.336c0,2.396,1.941,4.335,4.334,4.335
	s4.334-1.939,4.334-4.335C136.85,460.294,134.908,458.354,132.515,458.354"/>
    <path fill="#2887C8" d="M154.922,449.678c0,2.396-1.941,4.336-4.334,4.336s-4.336-1.94-4.336-4.336s1.943-4.336,4.336-4.336
	S154.922,447.282,154.922,449.678 M150.588,458.354c-2.393,0-4.336,1.939-4.336,4.336c0,2.396,1.943,4.335,4.336,4.335
	s4.334-1.939,4.334-4.335C154.922,460.294,152.981,458.354,150.588,458.354"/>
    <path fill="#2887C8" d="M172.995,449.678c0,2.396-1.942,4.336-4.334,4.336c-2.393,0-4.335-1.94-4.335-4.336s1.942-4.336,4.335-4.336
	C171.052,445.342,172.995,447.282,172.995,449.678 M168.66,458.354c-2.393,0-4.335,1.939-4.335,4.336
	c0,2.396,1.942,4.335,4.335,4.335c2.392,0,4.334-1.939,4.334-4.335C172.995,460.294,171.052,458.354,168.66,458.354"/>
    <path fill="#2887C8" d="M191.067,449.678c0,2.396-1.943,4.336-4.334,4.336c-2.393,0-4.336-1.94-4.336-4.336s1.943-4.336,4.336-4.336
	C189.125,445.342,191.067,447.282,191.067,449.678 M186.733,458.354c-2.393,0-4.336,1.939-4.336,4.336
	c0,2.396,1.943,4.335,4.336,4.335c2.392,0,4.334-1.939,4.334-4.335C191.067,460.294,189.125,458.354,186.733,458.354"/>
    <path fill="#2887C8" d="M209.14,449.678c0,2.396-1.943,4.336-4.336,4.336s-4.334-1.94-4.334-4.336s1.941-4.336,4.334-4.336
	S209.14,447.282,209.14,449.678 M204.804,458.354c-2.393,0-4.334,1.939-4.334,4.336c0,2.396,1.941,4.335,4.334,4.335
	s4.336-1.939,4.336-4.335C209.14,460.294,207.197,458.354,204.804,458.354"/>
    <path fill="#2887C8" d="M227.212,449.678c0,2.396-1.942,4.336-4.335,4.336s-4.334-1.94-4.334-4.336s1.941-4.336,4.334-4.336
	S227.212,447.282,227.212,449.678 M222.877,458.354c-2.393,0-4.334,1.939-4.334,4.336c0,2.396,1.941,4.335,4.334,4.335
	s4.335-1.939,4.335-4.335C227.212,460.294,225.27,458.354,222.877,458.354"/>
    <path fill="#2887C8" d="M245.284,449.678c0,2.396-1.941,4.336-4.334,4.336s-4.334-1.94-4.334-4.336s1.941-4.336,4.334-4.336
	S245.284,447.282,245.284,449.678 M240.949,458.354c-2.393,0-4.334,1.939-4.334,4.336c0,2.396,1.941,4.335,4.334,4.335
	s4.334-1.939,4.334-4.335C245.284,460.294,243.342,458.354,240.949,458.354"/>
    <path fill="#FFFFFF" d="M358.111,367.771v46.53c0,2.408-1.95,4.336-4.336,4.336h-72.258c-0.044-2.362-1.953-4.27-4.335-4.27H194.84
	c-2.382,0-4.29,1.907-4.335,4.27h-72.258c-2.386,0-4.336-1.928-4.336-4.336v-46.53c0-2.386,1.95-4.336,4.336-4.336h235.528
	C356.161,363.436,358.111,365.386,358.111,367.771"/>
    <path fill="none" stroke="#2887C8" stroke-miterlimit="10" d="M358.111,367.771v46.53c0,2.408-1.95,4.336-4.336,4.336h-72.258
	c-0.044-2.362-1.953-4.27-4.335-4.27H194.84c-2.382,0-4.29,1.907-4.335,4.27h-72.258c-2.386,0-4.336-1.928-4.336-4.336v-46.53
	c0-2.386,1.95-4.336,4.336-4.336h235.528C356.161,363.436,358.111,365.386,358.111,367.771z"/>
    <path fill="#B1D465" d="M345.792,388.868c0,4.074-3.303,7.374-7.375,7.374c-4.074,0-7.375-3.299-7.375-7.374
	c0-4.075,3.302-7.374,7.375-7.374C342.49,381.494,345.792,384.793,345.792,388.868"/>
    <path fill="#0B9D49" d="M343.354,388.868c0,2.726-2.21,4.937-4.936,4.937c-2.729,0-4.938-2.211-4.938-4.937
	c0-2.726,2.209-4.938,4.938-4.938C341.143,383.931,343.354,386.142,343.354,388.868"/>
    <path fill="#B1D465" d="M321.937,388.868c0,4.074-3.302,7.374-7.375,7.374c-4.073,0-7.375-3.299-7.375-7.374
	c0-4.075,3.302-7.374,7.375-7.374C318.635,381.494,321.937,384.793,321.937,388.868"/>
    <path fill="#0B9D49" d="M319.498,388.868c0,2.726-2.21,4.937-4.936,4.937c-2.729,0-4.937-2.211-4.937-4.937
	c0-2.726,2.208-4.938,4.937-4.938C317.288,383.931,319.498,386.142,319.498,388.868"/>
    <path fill="#2887C8" d="M136.85,382.129c0,2.396-1.941,4.333-4.334,4.333s-4.334-1.938-4.334-4.333c0-2.396,1.941-4.336,4.334-4.336
	S136.85,379.733,136.85,382.129 M132.515,390.806c-2.393,0-4.334,1.94-4.334,4.335c0,2.393,1.941,4.336,4.334,4.336
	s4.334-1.943,4.334-4.336C136.85,392.746,134.908,390.806,132.515,390.806"/>
    <path fill="#2887C8" d="M154.922,382.129c0,2.396-1.941,4.333-4.334,4.333s-4.336-1.938-4.336-4.333
	c0-2.396,1.943-4.336,4.336-4.336S154.922,379.733,154.922,382.129 M150.588,390.806c-2.393,0-4.336,1.94-4.336,4.335
	c0,2.393,1.943,4.336,4.336,4.336s4.334-1.943,4.334-4.336C154.922,392.746,152.981,390.806,150.588,390.806"/>
    <path fill="#2887C8" d="M172.995,382.129c0,2.396-1.942,4.333-4.334,4.333c-2.393,0-4.335-1.938-4.335-4.333
	c0-2.396,1.942-4.336,4.335-4.336C171.052,377.793,172.995,379.733,172.995,382.129 M168.66,390.806
	c-2.393,0-4.335,1.94-4.335,4.335c0,2.393,1.942,4.336,4.335,4.336c2.392,0,4.334-1.943,4.334-4.336
	C172.995,392.746,171.052,390.806,168.66,390.806"/>
    <path fill="#2887C8" d="M191.067,382.129c0,2.396-1.943,4.333-4.334,4.333c-2.393,0-4.336-1.938-4.336-4.333
	c0-2.396,1.943-4.336,4.336-4.336C189.125,377.793,191.067,379.733,191.067,382.129 M186.733,390.806
	c-2.393,0-4.336,1.94-4.336,4.335c0,2.393,1.943,4.336,4.336,4.336c2.392,0,4.334-1.943,4.334-4.336
	C191.067,392.746,189.125,390.806,186.733,390.806"/>
    <path fill="#2887C8" d="M209.14,382.129c0,2.396-1.943,4.333-4.336,4.333s-4.334-1.938-4.334-4.333c0-2.396,1.941-4.336,4.334-4.336
	S209.14,379.733,209.14,382.129 M204.804,390.806c-2.393,0-4.334,1.94-4.334,4.335c0,2.393,1.941,4.336,4.334,4.336
	s4.336-1.943,4.336-4.336C209.14,392.746,207.197,390.806,204.804,390.806"/>
    <path fill="#2887C8" d="M227.212,382.129c0,2.396-1.942,4.333-4.335,4.333s-4.334-1.938-4.334-4.333
	c0-2.396,1.941-4.336,4.334-4.336S227.212,379.733,227.212,382.129 M222.877,390.806c-2.393,0-4.334,1.94-4.334,4.335
	c0,2.393,1.941,4.336,4.334,4.336s4.335-1.943,4.335-4.336C227.212,392.746,225.27,390.806,222.877,390.806"/>
    <path fill="#2887C8" d="M245.284,382.129c0,2.396-1.941,4.333-4.334,4.333s-4.334-1.938-4.334-4.333
	c0-2.396,1.941-4.336,4.334-4.336S245.284,379.733,245.284,382.129 M240.949,390.806c-2.393,0-4.334,1.94-4.334,4.335
	c0,2.393,1.941,4.336,4.334,4.336s4.334-1.943,4.334-4.336C245.284,392.746,243.342,390.806,240.949,390.806"/>
    <path fill="#FFFFFF" d="M358.111,300.22v46.533c0,2.406-1.95,4.334-4.336,4.334h-72.258c-0.044-2.361-1.953-4.27-4.335-4.27H194.84
	c-2.382,0-4.29,1.908-4.335,4.27h-72.258c-2.386,0-4.336-1.929-4.336-4.334V300.22c0-2.384,1.95-4.334,4.336-4.334h235.528
	C356.161,295.885,358.111,297.836,358.111,300.22"/>
    <path fill="none" stroke="#2887C8" stroke-miterlimit="10" d="M358.111,300.22v46.533c0,2.406-1.95,4.334-4.336,4.334h-72.258
	c-0.044-2.361-1.953-4.27-4.335-4.27H194.84c-2.382,0-4.29,1.908-4.335,4.27h-72.258c-2.386,0-4.336-1.929-4.336-4.334V300.22
	c0-2.384,1.95-4.334,4.336-4.334h235.528C356.161,295.885,358.111,297.836,358.111,300.22z"/>
    <path fill="#B1D465" d="M345.792,321.318c0,4.073-3.303,7.374-7.375,7.374c-4.074,0-7.375-3.301-7.375-7.374
	c0-4.075,3.302-7.374,7.375-7.374C342.49,313.944,345.792,317.243,345.792,321.318"/>
    <path fill="#0B9D49" d="M343.354,321.318c0,2.726-2.21,4.936-4.936,4.936c-2.729,0-4.938-2.21-4.938-4.936
	c0-2.725,2.209-4.938,4.938-4.938C341.143,316.38,343.354,318.593,343.354,321.318"/>
    <path fill="#B1D465" d="M321.937,321.318c0,4.073-3.302,7.374-7.375,7.374c-4.073,0-7.375-3.301-7.375-7.374
	c0-4.075,3.302-7.374,7.375-7.374C318.635,313.944,321.937,317.243,321.937,321.318"/>
    <path fill="#0B9D49" d="M319.498,321.318c0,2.726-2.21,4.936-4.936,4.936c-2.729,0-4.937-2.21-4.937-4.936
	c0-2.725,2.208-4.938,4.937-4.938C317.288,316.38,319.498,318.593,319.498,321.318"/>
    <path fill="#2887C8" d="M136.85,314.579c0,2.396-1.941,4.334-4.334,4.334s-4.334-1.938-4.334-4.334c0-2.396,1.941-4.335,4.334-4.335
	S136.85,312.183,136.85,314.579 M132.515,323.255c-2.393,0-4.334,1.94-4.334,4.333c0,2.396,1.941,4.337,4.334,4.337
	s4.334-1.941,4.334-4.337C136.85,325.195,134.908,323.255,132.515,323.255"/>
    <path fill="#2887C8" d="M154.922,314.579c0,2.396-1.941,4.334-4.334,4.334s-4.336-1.938-4.336-4.334
	c0-2.396,1.943-4.335,4.336-4.335S154.922,312.183,154.922,314.579 M150.588,323.255c-2.393,0-4.336,1.94-4.336,4.333
	c0,2.396,1.943,4.337,4.336,4.337s4.334-1.941,4.334-4.337C154.922,325.195,152.981,323.255,150.588,323.255"/>
    <path fill="#2887C8" d="M172.995,314.579c0,2.396-1.942,4.334-4.334,4.334c-2.393,0-4.335-1.938-4.335-4.334
	c0-2.396,1.942-4.335,4.335-4.335C171.052,310.243,172.995,312.183,172.995,314.579 M168.66,323.255
	c-2.393,0-4.335,1.94-4.335,4.333c0,2.396,1.942,4.337,4.335,4.337c2.392,0,4.334-1.941,4.334-4.337
	C172.995,325.195,171.052,323.255,168.66,323.255"/>
    <path fill="#2887C8" d="M191.067,314.579c0,2.396-1.943,4.334-4.334,4.334c-2.393,0-4.336-1.938-4.336-4.334
	c0-2.396,1.943-4.335,4.336-4.335C189.125,310.243,191.067,312.183,191.067,314.579 M186.733,323.255
	c-2.393,0-4.336,1.94-4.336,4.333c0,2.396,1.943,4.337,4.336,4.337c2.392,0,4.334-1.941,4.334-4.337
	C191.067,325.195,189.125,323.255,186.733,323.255"/>
    <path fill="#2887C8" d="M209.14,314.579c0,2.396-1.943,4.334-4.336,4.334s-4.334-1.938-4.334-4.334c0-2.396,1.941-4.335,4.334-4.335
	S209.14,312.183,209.14,314.579 M204.804,323.255c-2.393,0-4.334,1.94-4.334,4.333c0,2.396,1.941,4.337,4.334,4.337
	s4.336-1.941,4.336-4.337C209.14,325.195,207.197,323.255,204.804,323.255"/>
    <path fill="#2887C8" d="M227.212,314.579c0,2.396-1.942,4.334-4.335,4.334s-4.334-1.938-4.334-4.334
	c0-2.396,1.941-4.335,4.334-4.335S227.212,312.183,227.212,314.579 M222.877,323.255c-2.393,0-4.334,1.94-4.334,4.333
	c0,2.396,1.941,4.337,4.334,4.337s4.335-1.941,4.335-4.337C227.212,325.195,225.27,323.255,222.877,323.255"/>
    <path fill="#2887C8" d="M245.284,314.579c0,2.396-1.941,4.334-4.334,4.334s-4.334-1.938-4.334-4.334
	c0-2.396,1.941-4.335,4.334-4.335S245.284,312.183,245.284,314.579 M240.949,323.255c-2.393,0-4.334,1.94-4.334,4.333
	c0,2.396,1.941,4.337,4.334,4.337s4.334-1.941,4.334-4.337C245.284,325.195,243.342,323.255,240.949,323.255"/>
    <path fill="#FFFFFF" d="M354.396,283.537H117.625c-2.05,0-3.714-1.664-3.714-3.714v-41.768c0-2.053,1.664-3.714,3.714-3.714h236.771
	c2.053,0,3.714,1.661,3.714,3.714v41.768C358.11,281.874,356.449,283.537,354.396,283.537"/>
    <path fill="none" stroke="#2887C8" stroke-miterlimit="10" d="M354.396,283.537H117.625c-2.05,0-3.714-1.664-3.714-3.714v-41.768
	c0-2.053,1.664-3.714,3.714-3.714h236.771c2.053,0,3.714,1.661,3.714,3.714v41.768C358.11,281.874,356.449,283.537,354.396,283.537z
	"/>
    <path fill="#E4F0CC" d="M192.417,273.038h-60.074c-1.374,0-2.495-1.121-2.495-2.494v-22.325c0-1.371,1.121-2.496,2.495-2.496h60.074
	c1.373,0,2.498,1.125,2.498,2.496v22.325C194.915,271.917,193.79,273.038,192.417,273.038"/>
    <path fill="#2887C8" d="M190.54,274.132h-56.323c-3.011,0-5.464-2.451-5.464-5.462v-18.576c0-3.011,2.453-5.464,5.464-5.464h56.323
	c3.015,0,5.466,2.453,5.466,5.464v18.576C196.006,271.682,193.555,274.132,190.54,274.132 M134.217,246.816
	c-1.808,0-3.279,1.47-3.279,3.278v18.576c0,1.806,1.471,3.276,3.279,3.276h56.323c1.81,0,3.28-1.47,3.28-3.276v-18.576
	c0-1.808-1.471-3.278-3.28-3.278H134.217z"/>
    <path fill="#0B9D49" d="M140.466,266.829h-2.057c-0.752,0-1.368-0.613-1.368-1.367v-2.058c0-0.755,0.616-1.368,1.368-1.368h2.057
	c0.752,0,1.372,0.613,1.372,1.368v2.058C141.838,266.216,141.219,266.829,140.466,266.829"/>
    <path fill="#0B9D49" d="M152.46,266.829h-2.058c-0.752,0-1.368-0.613-1.368-1.367v-12.159c0-0.752,0.616-1.371,1.368-1.371h2.058
	c0.751,0,1.371,0.618,1.371,1.371v12.159C153.831,266.216,153.211,266.829,152.46,266.829"/>
    <path fill="#0B9D49" d="M164.453,266.829h-2.058c-0.752,0-1.368-0.613-1.368-1.367v-4.976c0-0.751,0.615-1.368,1.368-1.368h2.058
	c0.751,0,1.371,0.617,1.371,1.368v4.976C165.823,266.216,165.204,266.829,164.453,266.829"/>
    <path fill="#0B9D49" d="M188.438,266.829h-2.058c-0.751,0-1.368-0.613-1.368-1.367v-12.159c0-0.752,0.617-1.371,1.368-1.371h2.058
	c0.752,0,1.371,0.618,1.371,1.371v12.159C189.808,266.216,189.19,266.829,188.438,266.829"/>
    <path fill="#0B9D49" d="M176.445,266.829h-2.058c-0.752,0-1.368-0.613-1.368-1.367v-12.159c0-0.752,0.616-1.371,1.368-1.371h2.058
	c0.753,0,1.371,0.618,1.371,1.371v12.159C177.816,266.216,177.198,266.829,176.445,266.829"/>
    <path fill="#B1D465" d="M245.456,259.381c0,4.076-3.302,7.376-7.375,7.376c-4.072,0-7.375-3.301-7.375-7.376
	c0-4.072,3.303-7.374,7.375-7.374C242.154,252.007,245.456,255.309,245.456,259.381"/>
    <path fill="#0B9D49" d="M243.016,259.381c0,2.726-2.209,4.938-4.935,4.938c-2.729,0-4.938-2.213-4.938-4.938
	c0-2.725,2.21-4.938,4.938-4.938C240.807,254.443,243.016,256.656,243.016,259.381"/>
    <path fill="#B1D465" d="M221.6,259.381c0,4.076-3.302,7.376-7.375,7.376c-4.072,0-7.375-3.301-7.375-7.376
	c0-4.072,3.303-7.374,7.375-7.374C218.298,252.007,221.6,255.309,221.6,259.381"/>
    <path fill="#0B9D49" d="M219.161,259.381c0,2.726-2.209,4.938-4.935,4.938c-2.728,0-4.938-2.213-4.938-4.938
	c0-2.725,2.21-4.938,4.938-4.938C216.952,254.443,219.161,256.656,219.161,259.381"/>
    <path fill="#2887C8" d="M304.403,268.446h-3.29c-0.414,0-0.751-0.338-0.751-0.751v-17.514c0-0.415,0.337-0.752,0.751-0.752h3.29
	c0.414,0,0.755,0.338,0.755,0.752v17.514C305.158,268.108,304.816,268.446,304.403,268.446"/>
    <path fill="#2887C8" d="M322.382,268.446h-3.289c-0.415,0-0.752-0.338-0.752-0.751v-17.514c0-0.415,0.338-0.752,0.752-0.752h3.289
	c0.415,0,0.752,0.338,0.752,0.752v17.514C323.135,268.108,322.797,268.446,322.382,268.446"/>
    <path fill="#2887C8" d="M340.361,268.446h-3.289c-0.415,0-0.752-0.338-0.752-0.751v-17.514c0-0.415,0.338-0.752,0.752-0.752h3.289
	c0.414,0,0.755,0.338,0.755,0.752v17.514C341.116,268.108,340.775,268.446,340.361,268.446"/>
    <line fill="none" stroke="#2887C8" stroke-linecap="round" stroke-linejoin="round" stroke-miterlimit="10" x1="80.437"
          y1="566.083" x2="391.585" y2="566.083"/>
    <line fill="none" stroke="#2887C8" stroke-linecap="round" stroke-linejoin="round" stroke-miterlimit="10"
          x1="410.585" y1="566.083" x2="426.141" y2="566.083"/>
    <line fill="none" stroke="#2887C8" stroke-linecap="round" stroke-linejoin="round" stroke-miterlimit="10"
          x1="443.111" y1="566.083" x2="444.854" y2="566.083"/>
    <line fill="none" stroke="#2887C8" stroke-linecap="round" stroke-linejoin="round" stroke-miterlimit="10" x1="61.438"
          y1="566.083" x2="45.88" y2="566.083"/>
    <line fill="none" stroke="#2887C8" stroke-linecap="round" stroke-linejoin="round" stroke-miterlimit="10" x1="26.743"
          y1="566.083" x2="25" y2="566.083"/>
    <rect x="282.13" y="164.899" fill="#B6DDF5" width="216.741" height="497.405"/>
    <rect x="282.13" y="164.899" fill="none" stroke="#2887C8" stroke-linecap="round" stroke-linejoin="round"
          stroke-miterlimit="10" width="216.741" height="497.405"/>
    <path fill="#FFFFFF" d="M512.6,599.091v46.531c0,2.406-1.949,4.336-4.334,4.336h-72.258c-0.045-2.365-1.953-4.27-4.336-4.27H349.33
	c-2.381,0-4.29,1.904-4.334,4.27h-72.259c-2.384,0-4.334-1.93-4.334-4.336v-46.531c0-2.386,1.95-4.336,4.334-4.336h235.53
	C510.65,594.755,512.6,596.705,512.6,599.091"/>
    <path fill="none" stroke="#2887C8" stroke-miterlimit="10" d="M512.6,599.091v46.531c0,2.406-1.949,4.336-4.334,4.336h-72.258
	c-0.045-2.365-1.953-4.27-4.336-4.27H349.33c-2.381,0-4.29,1.904-4.334,4.27h-72.259c-2.384,0-4.334-1.93-4.334-4.336v-46.531
	c0-2.386,1.95-4.336,4.334-4.336h235.53C510.65,594.755,512.6,596.705,512.6,599.091z"/>
    <path fill="#B1D465" d="M500.281,620.186c0,4.075-3.303,7.377-7.375,7.377s-7.375-3.302-7.375-7.377
	c0-4.074,3.303-7.371,7.375-7.371S500.281,616.111,500.281,620.186"/>
    <path fill="#0B9D49" d="M497.842,620.186c0,2.729-2.209,4.94-4.936,4.94c-2.729,0-4.938-2.212-4.938-4.94
	c0-2.723,2.209-4.935,4.938-4.935C495.633,615.251,497.842,617.463,497.842,620.186"/>
    <path fill="#B1D465" d="M476.426,620.186c0,4.075-3.303,7.377-7.375,7.377s-7.375-3.302-7.375-7.377
	c0-4.074,3.303-7.371,7.375-7.371S476.426,616.111,476.426,620.186"/>
    <path fill="#0B9D49" d="M473.986,620.186c0,2.729-2.209,4.94-4.936,4.94c-2.729,0-4.938-2.212-4.938-4.94
	c0-2.723,2.209-4.935,4.938-4.935C471.777,615.251,473.986,617.463,473.986,620.186"/>
    <path fill="#2887C8" d="M291.339,613.449c0,2.396-1.943,4.336-4.334,4.336c-2.393,0-4.336-1.94-4.336-4.336s1.943-4.336,4.336-4.336
	C289.396,609.113,291.339,611.054,291.339,613.449 M287.005,622.126c-2.393,0-4.336,1.94-4.336,4.336
	c0,2.391,1.943,4.336,4.336,4.336c2.392,0,4.334-1.945,4.334-4.336C291.339,624.066,289.396,622.126,287.005,622.126"/>
    <path fill="#2887C8" d="M309.412,613.449c0,2.396-1.943,4.336-4.334,4.336c-2.394,0-4.336-1.94-4.336-4.336s1.942-4.336,4.336-4.336
	C307.469,609.113,309.412,611.054,309.412,613.449 M305.078,622.126c-2.394,0-4.336,1.94-4.336,4.336
	c0,2.391,1.942,4.336,4.336,4.336c2.392,0,4.334-1.945,4.334-4.336C309.412,624.066,307.469,622.126,305.078,622.126"/>
    <path fill="#2887C8" d="M327.484,613.449c0,2.396-1.942,4.336-4.335,4.336c-2.394,0-4.335-1.94-4.335-4.336s1.941-4.336,4.335-4.336
	C325.542,609.113,327.484,611.054,327.484,613.449 M323.149,622.126c-2.394,0-4.335,1.94-4.335,4.336
	c0,2.391,1.941,4.336,4.335,4.336c2.393,0,4.335-1.945,4.335-4.336C327.484,624.066,325.542,622.126,323.149,622.126"/>
    <path fill="#2887C8" d="M345.556,613.449c0,2.396-1.941,4.336-4.334,4.336s-4.334-1.94-4.334-4.336s1.941-4.336,4.334-4.336
	S345.556,611.054,345.556,613.449 M341.221,622.126c-2.393,0-4.334,1.94-4.334,4.336c0,2.391,1.941,4.336,4.334,4.336
	s4.334-1.945,4.334-4.336C345.556,624.066,343.614,622.126,341.221,622.126"/>
    <path fill="#2887C8" d="M363.628,613.449c0,2.396-1.941,4.336-4.334,4.336s-4.334-1.94-4.334-4.336s1.941-4.336,4.334-4.336
	S363.628,611.054,363.628,613.449 M359.294,622.126c-2.393,0-4.334,1.94-4.334,4.336c0,2.391,1.941,4.336,4.334,4.336
	s4.334-1.945,4.334-4.336C363.628,624.066,361.687,622.126,359.294,622.126"/>
    <path fill="#2887C8" d="M381.701,613.449c0,2.396-1.941,4.336-4.334,4.336s-4.335-1.94-4.335-4.336s1.942-4.336,4.335-4.336
	S381.701,611.054,381.701,613.449 M377.366,622.126c-2.393,0-4.335,1.94-4.335,4.336c0,2.391,1.942,4.336,4.335,4.336
	s4.334-1.945,4.334-4.336C381.701,624.066,379.759,622.126,377.366,622.126"/>
    <path fill="#2887C8" d="M399.773,613.449c0,2.396-1.941,4.336-4.334,4.336s-4.336-1.94-4.336-4.336s1.943-4.336,4.336-4.336
	S399.773,611.054,399.773,613.449 M395.439,622.126c-2.393,0-4.336,1.94-4.336,4.336c0,2.391,1.943,4.336,4.336,4.336
	s4.334-1.945,4.334-4.336C399.773,624.066,397.832,622.126,395.439,622.126"/>
    <path fill="#FFFFFF" d="M512.6,531.54v46.532c0,2.405-1.949,4.335-4.334,4.335h-72.258c-0.045-2.364-1.953-4.269-4.336-4.269H349.33
	c-2.381,0-4.29,1.904-4.334,4.269h-72.259c-2.384,0-4.334-1.93-4.334-4.335V531.54c0-2.385,1.95-4.336,4.334-4.336h235.53
	C510.65,527.204,512.6,529.155,512.6,531.54"/>
    <path fill="none" stroke="#2887C8" stroke-miterlimit="10" d="M512.6,531.54v46.532c0,2.405-1.949,4.335-4.334,4.335h-72.258
	c-0.045-2.364-1.953-4.269-4.336-4.269H349.33c-2.381,0-4.29,1.904-4.334,4.269h-72.259c-2.384,0-4.334-1.93-4.334-4.335V531.54
	c0-2.385,1.95-4.336,4.334-4.336h235.53C510.65,527.204,512.6,529.155,512.6,531.54z"/>
    <path fill="#B1D465" d="M500.281,552.636c0,4.074-3.303,7.376-7.375,7.376s-7.375-3.302-7.375-7.376
	c0-4.075,3.303-7.371,7.375-7.371S500.281,548.561,500.281,552.636"/>
    <path fill="#0B9D49" d="M497.842,552.636c0,2.729-2.209,4.939-4.936,4.939c-2.729,0-4.938-2.211-4.938-4.939
	c0-2.724,2.209-4.935,4.938-4.935C495.633,547.701,497.842,549.912,497.842,552.636"/>
    <path fill="#B1D465" d="M476.426,552.636c0,4.074-3.303,7.376-7.375,7.376s-7.375-3.302-7.375-7.376
	c0-4.075,3.303-7.371,7.375-7.371S476.426,548.561,476.426,552.636"/>
    <path fill="#0B9D49" d="M473.986,552.636c0,2.729-2.209,4.939-4.936,4.939c-2.729,0-4.938-2.211-4.938-4.939
	c0-2.724,2.209-4.935,4.938-4.935C471.777,547.701,473.986,549.912,473.986,552.636"/>
    <path fill="#2887C8" d="M291.339,545.899c0,2.396-1.943,4.336-4.334,4.336c-2.393,0-4.336-1.94-4.336-4.336
	c0-2.396,1.943-4.336,4.336-4.336C289.396,541.563,291.339,543.503,291.339,545.899 M287.005,554.576
	c-2.393,0-4.336,1.939-4.336,4.335c0,2.391,1.943,4.336,4.336,4.336c2.392,0,4.334-1.945,4.334-4.336
	C291.339,556.516,289.396,554.576,287.005,554.576"/>
    <path fill="#2887C8" d="M309.412,545.899c0,2.396-1.943,4.336-4.334,4.336c-2.394,0-4.336-1.94-4.336-4.336
	c0-2.396,1.942-4.336,4.336-4.336C307.469,541.563,309.412,543.503,309.412,545.899 M305.078,554.576
	c-2.394,0-4.336,1.939-4.336,4.335c0,2.391,1.942,4.336,4.336,4.336c2.392,0,4.334-1.945,4.334-4.336
	C309.412,556.516,307.469,554.576,305.078,554.576"/>
    <path fill="#2887C8" d="M327.484,545.899c0,2.396-1.942,4.336-4.335,4.336c-2.394,0-4.335-1.94-4.335-4.336
	c0-2.396,1.941-4.336,4.335-4.336C325.542,541.563,327.484,543.503,327.484,545.899 M323.149,554.576
	c-2.394,0-4.335,1.939-4.335,4.335c0,2.391,1.941,4.336,4.335,4.336c2.393,0,4.335-1.945,4.335-4.336
	C327.484,556.516,325.542,554.576,323.149,554.576"/>
    <path fill="#2887C8" d="M345.556,545.899c0,2.396-1.941,4.336-4.334,4.336s-4.334-1.94-4.334-4.336c0-2.396,1.941-4.336,4.334-4.336
	S345.556,543.503,345.556,545.899 M341.221,554.576c-2.393,0-4.334,1.939-4.334,4.335c0,2.391,1.941,4.336,4.334,4.336
	s4.334-1.945,4.334-4.336C345.556,556.516,343.614,554.576,341.221,554.576"/>
    <path fill="#2887C8" d="M363.628,545.899c0,2.396-1.941,4.336-4.334,4.336s-4.334-1.94-4.334-4.336c0-2.396,1.941-4.336,4.334-4.336
	S363.628,543.503,363.628,545.899 M359.294,554.576c-2.393,0-4.334,1.939-4.334,4.335c0,2.391,1.941,4.336,4.334,4.336
	s4.334-1.945,4.334-4.336C363.628,556.516,361.687,554.576,359.294,554.576"/>
    <path fill="#2887C8" d="M381.701,545.899c0,2.396-1.941,4.336-4.334,4.336s-4.335-1.94-4.335-4.336c0-2.396,1.942-4.336,4.335-4.336
	S381.701,543.503,381.701,545.899 M377.366,554.576c-2.393,0-4.335,1.939-4.335,4.335c0,2.391,1.942,4.336,4.335,4.336
	s4.334-1.945,4.334-4.336C381.701,556.516,379.759,554.576,377.366,554.576"/>
    <path fill="#2887C8" d="M399.773,545.899c0,2.396-1.941,4.336-4.334,4.336s-4.336-1.94-4.336-4.336c0-2.396,1.943-4.336,4.336-4.336
	S399.773,543.503,399.773,545.899 M395.439,554.576c-2.393,0-4.336,1.939-4.336,4.335c0,2.391,1.943,4.336,4.336,4.336
	s4.334-1.945,4.334-4.336C399.773,556.516,397.832,554.576,395.439,554.576"/>
    <path fill="#FFFFFF" d="M512.6,463.99v46.531c0,2.406-1.949,4.336-4.334,4.336h-72.258c-0.045-2.365-1.953-4.27-4.336-4.27H349.33
	c-2.381,0-4.29,1.904-4.334,4.27h-72.259c-2.384,0-4.334-1.93-4.334-4.336V463.99c0-2.386,1.95-4.336,4.334-4.336h235.53
	C510.65,459.654,512.6,461.604,512.6,463.99"/>
    <path fill="none" stroke="#2887C8" stroke-miterlimit="10" d="M512.6,463.99v46.531c0,2.406-1.949,4.336-4.334,4.336h-72.258
	c-0.045-2.365-1.953-4.27-4.336-4.27H349.33c-2.381,0-4.29,1.904-4.334,4.27h-72.259c-2.384,0-4.334-1.93-4.334-4.336V463.99
	c0-2.386,1.95-4.336,4.334-4.336h235.53C510.65,459.654,512.6,461.604,512.6,463.99z"/>
    <path fill="#B1D465" d="M500.281,485.086c0,4.074-3.303,7.376-7.375,7.376s-7.375-3.302-7.375-7.376
	c0-4.075,3.303-7.372,7.375-7.372S500.281,481.011,500.281,485.086"/>
    <path fill="#0B9D49" d="M497.842,485.086c0,2.729-2.209,4.939-4.936,4.939c-2.729,0-4.938-2.211-4.938-4.939
	c0-2.724,2.209-4.935,4.938-4.935C495.633,480.151,497.842,482.362,497.842,485.086"/>
    <path fill="#B1D465" d="M476.426,485.086c0,4.074-3.303,7.376-7.375,7.376s-7.375-3.302-7.375-7.376
	c0-4.075,3.303-7.372,7.375-7.372S476.426,481.011,476.426,485.086"/>
    <path fill="#0B9D49" d="M473.986,485.086c0,2.729-2.209,4.939-4.936,4.939c-2.729,0-4.938-2.211-4.938-4.939
	c0-2.724,2.209-4.935,4.938-4.935C471.777,480.151,473.986,482.362,473.986,485.086"/>
    <path fill="#2887C8" d="M291.339,478.349c0,2.396-1.943,4.331-4.334,4.331c-2.393,0-4.336-1.935-4.336-4.331
	c0-2.396,1.943-4.335,4.336-4.335C289.396,474.014,291.339,475.953,291.339,478.349 M287.005,487.025
	c-2.393,0-4.336,1.94-4.336,4.336c0,2.391,1.943,4.336,4.336,4.336c2.392,0,4.334-1.945,4.334-4.336
	C291.339,488.966,289.396,487.025,287.005,487.025"/>
    <path fill="#2887C8" d="M309.412,478.349c0,2.396-1.943,4.331-4.334,4.331c-2.394,0-4.336-1.935-4.336-4.331
	c0-2.396,1.942-4.335,4.336-4.335C307.469,474.014,309.412,475.953,309.412,478.349 M305.078,487.025
	c-2.394,0-4.336,1.94-4.336,4.336c0,2.391,1.942,4.336,4.336,4.336c2.392,0,4.334-1.945,4.334-4.336
	C309.412,488.966,307.469,487.025,305.078,487.025"/>
    <path fill="#2887C8" d="M327.484,478.349c0,2.396-1.942,4.331-4.335,4.331c-2.394,0-4.335-1.935-4.335-4.331
	c0-2.396,1.941-4.335,4.335-4.335C325.542,474.014,327.484,475.953,327.484,478.349 M323.149,487.025
	c-2.394,0-4.335,1.94-4.335,4.336c0,2.391,1.941,4.336,4.335,4.336c2.393,0,4.335-1.945,4.335-4.336
	C327.484,488.966,325.542,487.025,323.149,487.025"/>
    <path fill="#2887C8" d="M345.556,478.349c0,2.396-1.941,4.331-4.334,4.331s-4.334-1.935-4.334-4.331
	c0-2.396,1.941-4.335,4.334-4.335S345.556,475.953,345.556,478.349 M341.221,487.025c-2.393,0-4.334,1.94-4.334,4.336
	c0,2.391,1.941,4.336,4.334,4.336s4.334-1.945,4.334-4.336C345.556,488.966,343.614,487.025,341.221,487.025"/>
    <path fill="#2887C8" d="M363.628,478.349c0,2.396-1.941,4.331-4.334,4.331s-4.334-1.935-4.334-4.331
	c0-2.396,1.941-4.335,4.334-4.335S363.628,475.953,363.628,478.349 M359.294,487.025c-2.393,0-4.334,1.94-4.334,4.336
	c0,2.391,1.941,4.336,4.334,4.336s4.334-1.945,4.334-4.336C363.628,488.966,361.687,487.025,359.294,487.025"/>
    <path fill="#2887C8" d="M381.701,478.349c0,2.396-1.941,4.331-4.334,4.331s-4.335-1.935-4.335-4.331
	c0-2.396,1.942-4.335,4.335-4.335S381.701,475.953,381.701,478.349 M377.366,487.025c-2.393,0-4.335,1.94-4.335,4.336
	c0,2.391,1.942,4.336,4.335,4.336s4.334-1.945,4.334-4.336C381.701,488.966,379.759,487.025,377.366,487.025"/>
    <path fill="#2887C8" d="M399.773,478.349c0,2.396-1.941,4.331-4.334,4.331s-4.336-1.935-4.336-4.331
	c0-2.396,1.943-4.335,4.336-4.335S399.773,475.953,399.773,478.349 M395.439,487.025c-2.393,0-4.336,1.94-4.336,4.336
	c0,2.391,1.943,4.336,4.336,4.336s4.334-1.945,4.334-4.336C399.773,488.966,397.832,487.025,395.439,487.025"/>
    <path fill="#FFFFFF" d="M512.6,396.439v46.533c0,2.406-1.949,4.336-4.334,4.336h-72.258c-0.045-2.365-1.953-4.27-4.336-4.27H349.33
	c-2.381,0-4.29,1.904-4.334,4.27h-72.259c-2.384,0-4.334-1.93-4.334-4.336v-46.533c0-2.385,1.95-4.336,4.334-4.336h235.53
	C510.65,392.103,512.6,394.054,512.6,396.439"/>
    <path fill="none" stroke="#2887C8" stroke-miterlimit="10" d="M512.6,396.439v46.533c0,2.406-1.949,4.336-4.334,4.336h-72.258
	c-0.045-2.365-1.953-4.27-4.336-4.27H349.33c-2.381,0-4.29,1.904-4.334,4.27h-72.259c-2.384,0-4.334-1.93-4.334-4.336v-46.533
	c0-2.385,1.95-4.336,4.334-4.336h235.53C510.65,392.103,512.6,394.054,512.6,396.439z"/>
    <path fill="#B1D465" d="M500.281,417.537c0,4.072-3.303,7.374-7.375,7.374s-7.375-3.302-7.375-7.374
	c0-4.075,3.303-7.374,7.375-7.374S500.281,413.462,500.281,417.537"/>
    <path fill="#0B9D49" d="M497.842,417.537c0,2.726-2.209,4.935-4.936,4.935c-2.729,0-4.938-2.209-4.938-4.935
	c0-2.727,2.209-4.938,4.938-4.938C495.633,412.6,497.842,414.811,497.842,417.537"/>
    <path fill="#B1D465" d="M476.426,417.537c0,4.072-3.303,7.374-7.375,7.374s-7.375-3.302-7.375-7.374
	c0-4.075,3.303-7.374,7.375-7.374S476.426,413.462,476.426,417.537"/>
    <path fill="#0B9D49" d="M473.986,417.537c0,2.726-2.209,4.935-4.936,4.935c-2.729,0-4.938-2.209-4.938-4.935
	c0-2.727,2.209-4.938,4.938-4.938C471.777,412.6,473.986,414.811,473.986,417.537"/>
    <path fill="#2887C8" d="M291.339,410.798c0,2.396-1.943,4.336-4.334,4.336c-2.393,0-4.336-1.94-4.336-4.336s1.943-4.336,4.336-4.336
	C289.396,406.462,291.339,408.402,291.339,410.798 M287.005,419.475c-2.393,0-4.336,1.939-4.336,4.336
	c0,2.393,1.943,4.335,4.336,4.335c2.392,0,4.334-1.942,4.334-4.335C291.339,421.414,289.396,419.475,287.005,419.475"/>
    <path fill="#2887C8" d="M309.412,410.798c0,2.396-1.943,4.336-4.334,4.336c-2.394,0-4.336-1.94-4.336-4.336s1.942-4.336,4.336-4.336
	C307.469,406.462,309.412,408.402,309.412,410.798 M305.078,419.475c-2.394,0-4.336,1.939-4.336,4.336
	c0,2.393,1.942,4.335,4.336,4.335c2.392,0,4.334-1.942,4.334-4.335C309.412,421.414,307.469,419.475,305.078,419.475"/>
    <path fill="#2887C8" d="M327.484,410.798c0,2.396-1.942,4.336-4.335,4.336c-2.394,0-4.335-1.94-4.335-4.336s1.941-4.336,4.335-4.336
	C325.542,406.462,327.484,408.402,327.484,410.798 M323.149,419.475c-2.394,0-4.335,1.939-4.335,4.336
	c0,2.393,1.941,4.335,4.335,4.335c2.393,0,4.335-1.942,4.335-4.335C327.484,421.414,325.542,419.475,323.149,419.475"/>
    <path fill="#2887C8" d="M345.556,410.798c0,2.396-1.941,4.336-4.334,4.336s-4.334-1.94-4.334-4.336s1.941-4.336,4.334-4.336
	S345.556,408.402,345.556,410.798 M341.221,419.475c-2.393,0-4.334,1.939-4.334,4.336c0,2.393,1.941,4.335,4.334,4.335
	s4.334-1.942,4.334-4.335C345.556,421.414,343.614,419.475,341.221,419.475"/>
    <path fill="#2887C8" d="M363.628,410.798c0,2.396-1.941,4.336-4.334,4.336s-4.334-1.94-4.334-4.336s1.941-4.336,4.334-4.336
	S363.628,408.402,363.628,410.798 M359.294,419.475c-2.393,0-4.334,1.939-4.334,4.336c0,2.393,1.941,4.335,4.334,4.335
	s4.334-1.942,4.334-4.335C363.628,421.414,361.687,419.475,359.294,419.475"/>
    <path fill="#2887C8" d="M381.701,410.798c0,2.396-1.941,4.336-4.334,4.336s-4.335-1.94-4.335-4.336s1.942-4.336,4.335-4.336
	S381.701,408.402,381.701,410.798 M377.366,419.475c-2.393,0-4.335,1.939-4.335,4.336c0,2.393,1.942,4.335,4.335,4.335
	s4.334-1.942,4.334-4.335C381.701,421.414,379.759,419.475,377.366,419.475"/>
    <path fill="#2887C8" d="M399.773,410.798c0,2.396-1.941,4.336-4.334,4.336s-4.336-1.94-4.336-4.336s1.943-4.336,4.336-4.336
	S399.773,408.402,399.773,410.798 M395.439,419.475c-2.393,0-4.336,1.939-4.336,4.336c0,2.393,1.943,4.335,4.336,4.335
	s4.334-1.942,4.334-4.335C399.773,421.414,397.832,419.475,395.439,419.475"/>
    <path fill="#FFFFFF" d="M508.887,379.756H272.115c-2.05,0-3.713-1.664-3.713-3.713v-41.769c0-2.053,1.664-3.714,3.713-3.714h236.772
	c2.051,0,3.713,1.661,3.713,3.714v41.769C512.6,378.092,510.938,379.756,508.887,379.756"/>
    <path fill="none" stroke="#2887C8" stroke-miterlimit="10" d="M508.887,379.756H272.115c-2.05,0-3.713-1.664-3.713-3.713v-41.769
	c0-2.053,1.664-3.714,3.713-3.714h236.772c2.051,0,3.713,1.661,3.713,3.714v41.769C512.6,378.092,510.938,379.756,508.887,379.756z"
    />
    <path fill="#FFFFFF" d="M508.887,318.142H272.115c-2.05,0-3.713-1.664-3.713-3.714v-45.955c0-2.05,1.664-3.714,3.713-3.714h236.772
	c2.051,0,3.713,1.664,3.713,3.714v45.955C512.6,316.478,510.938,318.142,508.887,318.142"/>
    <path fill="none" stroke="#2887C8" stroke-miterlimit="10" d="M508.887,318.142H272.115c-2.05,0-3.713-1.664-3.713-3.714v-45.955
	c0-2.05,1.664-3.714,3.713-3.714h236.772c2.051,0,3.713,1.664,3.713,3.714v45.955C512.6,316.478,510.938,318.142,508.887,318.142z"
    />
    <path fill="#E4F0CC" d="M346.906,369.26h-60.075c-1.373,0-2.494-1.124-2.494-2.497v-22.325c0-1.371,1.121-2.495,2.494-2.495h60.075
	c1.373,0,2.497,1.125,2.497,2.495v22.325C349.403,368.136,348.279,369.26,346.906,369.26"/>
    <path fill="#2887C8" d="M345.032,370.353h-56.325c-3.013,0-5.463-2.452-5.463-5.463v-18.574c0-3.011,2.451-5.464,5.463-5.464h56.325
	c3.011,0,5.462,2.453,5.462,5.464v18.574C350.494,367.9,348.043,370.353,345.032,370.353 M288.707,343.036
	c-1.81,0-3.28,1.471-3.28,3.279v18.574c0,1.806,1.471,3.276,3.28,3.276h56.325c1.806,0,3.276-1.47,3.276-3.276v-18.574
	c0-1.808-1.471-3.279-3.276-3.279H288.707z"/>
    <path fill="#0B9D49" d="M294.956,363.05h-2.058c-0.752,0-1.368-0.616-1.368-1.369v-2.058c0-0.752,0.616-1.368,1.368-1.368h2.058
	c0.752,0,1.371,0.616,1.371,1.368v2.058C296.327,362.435,295.708,363.05,294.956,363.05"/>
    <path fill="#0B9D49" d="M306.948,363.05h-2.058c-0.751,0-1.368-0.616-1.368-1.369v-12.159c0-0.752,0.617-1.371,1.368-1.371h2.058
	c0.752,0,1.371,0.618,1.371,1.371v12.159C308.319,362.435,307.701,363.05,306.948,363.05"/>
    <path fill="#0B9D49" d="M318.941,363.05h-2.057c-0.752,0-1.368-0.616-1.368-1.369v-4.976c0-0.751,0.616-1.368,1.368-1.368h2.057
	c0.752,0,1.372,0.617,1.372,1.368v4.976C320.313,362.435,319.693,363.05,318.941,363.05"/>
    <path fill="#0B9D49" d="M342.927,363.05h-2.058c-0.752,0-1.368-0.616-1.368-1.369v-12.159c0-0.752,0.615-1.371,1.368-1.371h2.058
	c0.752,0,1.371,0.618,1.371,1.371v12.159C344.298,362.435,343.68,363.05,342.927,363.05"/>
    <path fill="#0B9D49" d="M330.935,363.05h-2.058c-0.752,0-1.368-0.616-1.368-1.369v-12.159c0-0.752,0.616-1.371,1.368-1.371h2.058
	c0.751,0,1.371,0.618,1.371,1.371v12.159C332.305,362.435,331.686,363.05,330.935,363.05"/>
    <path fill="#B1D465" d="M399.945,355.6c0,4.076-3.303,7.376-7.375,7.376c-4.073,0-7.375-3.3-7.375-7.376
	c0-4.072,3.302-7.371,7.375-7.371C396.642,348.229,399.945,351.527,399.945,355.6"/>
    <path fill="#0B9D49" d="M397.506,355.6c0,2.726-2.209,4.938-4.938,4.938c-2.726,0-4.936-2.212-4.936-4.938
	c0-2.725,2.21-4.935,4.936-4.935C395.297,350.665,397.506,352.875,397.506,355.6"/>
    <path fill="#B1D465" d="M376.089,355.6c0,4.076-3.302,7.376-7.375,7.376c-4.073,0-7.375-3.3-7.375-7.376
	c0-4.072,3.302-7.371,7.375-7.371C372.788,348.229,376.089,351.527,376.089,355.6"/>
    <path fill="#0B9D49" d="M373.65,355.6c0,2.726-2.21,4.938-4.935,4.938c-2.729,0-4.938-2.212-4.938-4.938
	c0-2.725,2.21-4.935,4.938-4.935C371.44,350.665,373.65,352.875,373.65,355.6"/>
    <path fill="#2887C8" d="M458.893,364.666h-3.289c-0.414,0-0.754-0.338-0.754-0.751v-17.513c0-0.412,0.34-0.752,0.754-0.752h3.289
	c0.414,0,0.754,0.34,0.754,0.752v17.513C459.646,364.328,459.307,364.666,458.893,364.666"/>
    <rect x="412.945" y="264.759" fill="#2887C8" width="4.797" height="53.382"/>
    <path fill="#2887C8" d="M476.871,364.666h-3.289c-0.414,0-0.752-0.338-0.752-0.751v-17.513c0-0.412,0.338-0.752,0.752-0.752h3.289
	c0.414,0,0.754,0.34,0.754,0.752v17.513C477.625,364.328,477.285,364.666,476.871,364.666"/>
    <path fill="#2887C8" d="M494.852,364.666h-3.291c-0.414,0-0.752-0.338-0.752-0.751v-17.513c0-0.412,0.338-0.752,0.752-0.752h3.291
	c0.412,0,0.75,0.34,0.75,0.752v17.513C495.602,364.328,495.264,364.666,494.852,364.666"/>
    <path fill="#2887C8" d="M439.27,276.702c-3.758,0-6.816,3.059-6.816,6.817v15.867c0,3.759,3.059,6.82,6.816,6.82
	c3.762,0,6.82-3.061,6.82-6.82V283.52C446.09,279.761,443.031,276.702,439.27,276.702 M443.904,299.387
	c0,2.558-2.076,4.634-4.635,4.634c-2.555,0-4.631-2.076-4.631-4.634V283.52c0-2.556,2.076-4.632,4.631-4.632
	c2.559,0,4.635,2.076,4.635,4.632V299.387z"/>
    <path fill="#B6DDF5" d="M443.904,283.079v6.689c-0.176,0.242-0.373,0.48-0.59,0.698c-1.049,1.051-2.469,1.433-4.045,1.433
	c-1.9,0-3.582-0.688-4.631-2.131v-6.689c0.174-0.241,0.371-0.481,0.59-0.699c1.049-1.049,2.469-1.683,4.041-1.683
	c1.576,0,2.996,0.634,4.045,1.683C443.531,282.598,443.729,282.838,443.904,283.079"/>
    <path fill="#FFFFFF" d="M441.729,289.25h-4.914c-1.801,0-3.273-1.472-3.273-3.272v-4.914c0-1.801,1.473-3.273,3.273-3.273h4.914
	c1.801,0,3.273,1.473,3.273,3.273v4.914C445.002,287.778,443.529,289.25,441.729,289.25"/>
    <path fill="#2887C8" d="M439.271,290.343c-3.764,0-6.822-3.061-6.822-6.821c0-3.765,3.059-6.824,6.822-6.824
	s6.824,3.059,6.824,6.824C446.096,287.282,443.035,290.343,439.271,290.343 M439.271,278.884c-2.559,0-4.637,2.083-4.637,4.638
	c0,2.554,2.078,4.635,4.637,4.635s4.639-2.081,4.639-4.635C443.91,280.966,441.83,278.884,439.271,278.884"/>
    <path fill="#2887C8" d="M489.357,276.702c-3.76,0-6.818,3.059-6.818,6.817v15.867c0,3.759,3.059,6.82,6.818,6.82
	s6.818-3.061,6.818-6.82V283.52C496.176,279.761,493.117,276.702,489.357,276.702 M493.99,299.387c0,2.558-2.076,4.634-4.633,4.634
	s-4.633-2.076-4.633-4.634V283.52c0-2.556,2.076-4.632,4.633-4.632s4.633,2.076,4.633,4.632V299.387z"/>
    <path fill="#B6DDF5" d="M493.99,283.079v6.689c-0.176,0.242-0.371,0.48-0.59,0.698c-1.047,1.051-2.469,1.433-4.043,1.433
	c-1.9,0-3.584-0.688-4.633-2.131v-6.689c0.174-0.241,0.371-0.481,0.592-0.699c1.047-1.049,2.467-1.683,4.041-1.683
	s2.996,0.634,4.043,1.683C493.619,282.598,493.814,282.838,493.99,283.079"/>
    <path fill="#FFFFFF" d="M491.814,289.25H486.9c-1.801,0-3.273-1.472-3.273-3.272v-4.914c0-1.801,1.473-3.273,3.273-3.273h4.914
	c1.801,0,3.275,1.473,3.275,3.273v4.914C495.09,287.778,493.615,289.25,491.814,289.25"/>
    <path fill="#2887C8" d="M489.357,290.343c-3.764,0-6.822-3.061-6.822-6.821c0-3.765,3.059-6.824,6.822-6.824
	s6.824,3.059,6.824,6.824C496.182,287.282,493.121,290.343,489.357,290.343 M489.357,278.884c-2.557,0-4.637,2.083-4.637,4.638
	c0,2.554,2.08,4.635,4.637,4.635c2.559,0,4.639-2.081,4.639-4.635C493.996,280.966,491.916,278.884,489.357,278.884"/>
    <path fill="#2887C8" d="M471.85,299.38v-15.864c0-3.758-3.059-6.817-6.82-6.817c-3.758,0-6.816,3.059-6.816,6.817v15.864
	c0,3.763,3.059,6.821,6.816,6.821C468.791,306.202,471.85,303.143,471.85,299.38 M469.662,299.38c0,2.558-2.074,4.634-4.633,4.634
	c-2.557,0-4.631-2.076-4.631-4.634v-15.864c0-2.556,2.074-4.631,4.631-4.631c2.559,0,4.633,2.076,4.633,4.631V299.38z"/>
    <path fill="#B6DDF5" d="M469.662,299.821v-6.688c-0.174-0.238-0.371-0.478-0.59-0.698c-1.047-1.05-2.469-1.433-4.043-1.433
	c-1.9,0-3.584,0.69-4.631,2.131v6.688c0.172,0.242,0.369,0.482,0.59,0.7c1.047,1.05,2.469,1.683,4.041,1.683
	c1.574,0,2.996-0.633,4.043-1.683C469.291,300.303,469.488,300.063,469.662,299.821"/>
    <path fill="#FFFFFF" d="M467.488,293.65h-4.914c-1.801,0-3.275,1.474-3.275,3.273v4.914c0,1.802,1.475,3.274,3.275,3.274h4.914
	c1.799,0,3.273-1.472,3.273-3.274v-4.914C470.762,295.124,469.287,293.65,467.488,293.65"/>
    <path fill="#2887C8" d="M471.854,299.38c0,3.765-3.061,6.826-6.824,6.826c-3.762,0-6.822-3.061-6.822-6.826
	c0-3.762,3.061-6.824,6.822-6.824C468.793,292.557,471.854,295.618,471.854,299.38 M469.668,299.38c0-2.557-2.08-4.638-4.639-4.638
	c-2.557,0-4.637,2.081-4.637,4.638c0,2.558,2.08,4.641,4.637,4.641C467.588,304.021,469.668,301.938,469.668,299.38"/>
    <path fill="#2887C8" d="M292.016,284.945c0,2.395-1.941,4.334-4.334,4.334s-4.334-1.94-4.334-4.334c0-2.396,1.941-4.335,4.334-4.335
	S292.016,282.549,292.016,284.945 M287.682,293.622c-2.393,0-4.334,1.94-4.334,4.336c0,2.393,1.941,4.334,4.334,4.334
	s4.334-1.941,4.334-4.334C292.016,295.562,290.075,293.622,287.682,293.622"/>
    <path fill="#2887C8" d="M310.089,284.945c0,2.395-1.941,4.334-4.334,4.334s-4.336-1.94-4.336-4.334c0-2.396,1.943-4.335,4.336-4.335
	S310.089,282.549,310.089,284.945 M305.754,293.622c-2.393,0-4.336,1.94-4.336,4.336c0,2.393,1.943,4.334,4.336,4.334
	s4.334-1.941,4.334-4.334C310.089,295.562,308.147,293.622,305.754,293.622"/>
    <path fill="#2887C8" d="M328.162,284.945c0,2.395-1.943,4.334-4.334,4.334c-2.393,0-4.336-1.94-4.336-4.334
	c0-2.396,1.943-4.335,4.336-4.335C326.219,280.609,328.162,282.549,328.162,284.945 M323.827,293.622
	c-2.393,0-4.336,1.94-4.336,4.336c0,2.393,1.943,4.334,4.336,4.334c2.392,0,4.334-1.941,4.334-4.334
	C328.162,295.562,326.219,293.622,323.827,293.622"/>
    <path fill="#2887C8" d="M346.234,284.945c0,2.395-1.942,4.334-4.335,4.334c-2.392,0-4.334-1.94-4.334-4.334
	c0-2.396,1.942-4.335,4.334-4.335C344.292,280.609,346.234,282.549,346.234,284.945 M341.898,293.622
	c-2.392,0-4.334,1.94-4.334,4.336c0,2.393,1.942,4.334,4.334,4.334c2.393,0,4.335-1.941,4.335-4.334
	C346.234,295.562,344.292,293.622,341.898,293.622"/>
    <path fill="#2887C8" d="M364.307,284.945c0,2.395-1.943,4.334-4.336,4.334c-2.392,0-4.334-1.94-4.334-4.334
	c0-2.396,1.943-4.335,4.334-4.335C362.364,280.609,364.307,282.549,364.307,284.945 M359.971,293.622
	c-2.392,0-4.334,1.94-4.334,4.336c0,2.393,1.943,4.334,4.334,4.334c2.393,0,4.336-1.941,4.336-4.334
	C364.307,295.562,362.364,293.622,359.971,293.622"/>
    <path fill="#2887C8" d="M382.379,284.945c0,2.395-1.943,4.334-4.336,4.334s-4.334-1.94-4.334-4.334c0-2.396,1.941-4.335,4.334-4.335
	S382.379,282.549,382.379,284.945 M378.043,293.622c-2.393,0-4.334,1.94-4.334,4.336c0,2.393,1.941,4.334,4.334,4.334
	s4.336-1.941,4.336-4.334C382.379,295.562,380.437,293.622,378.043,293.622"/>
    <path fill="#2887C8" d="M400.451,284.945c0,2.395-1.941,4.334-4.335,4.334c-2.393,0-4.334-1.94-4.334-4.334
	c0-2.396,1.941-4.335,4.334-4.335C398.509,280.609,400.451,282.549,400.451,284.945 M396.116,293.622
	c-2.393,0-4.334,1.94-4.334,4.336c0,2.393,1.941,4.334,4.334,4.334c2.394,0,4.335-1.941,4.335-4.334
	C400.451,295.562,398.509,293.622,396.116,293.622"/>
    <path fill="#FFFFFF" d="M508.887,252.411H272.115c-2.05,0-3.713-1.661-3.713-3.714v-43.493c0-2.05,1.664-3.714,3.713-3.714h236.772
	c2.051,0,3.713,1.664,3.713,3.714v43.493C512.6,250.75,510.938,252.411,508.887,252.411"/>
    <path fill="none" stroke="#2887C8" stroke-miterlimit="10" d="M508.887,252.411H272.115c-2.05,0-3.713-1.661-3.713-3.714v-43.493
	c0-2.05,1.664-3.714,3.713-3.714h236.772c2.051,0,3.713,1.664,3.713,3.714v43.493C512.6,250.75,510.938,252.411,508.887,252.411z"/>
    <path fill="#FFFFFF" d="M508.887,189.043H272.115c-2.05,0-3.713-1.664-3.713-3.716v-43.494c0-2.05,1.664-3.714,3.713-3.714h236.772
	c2.051,0,3.713,1.664,3.713,3.714v43.494C512.6,187.38,510.938,189.043,508.887,189.043"/>
    <path fill="none" stroke="#2887C8" stroke-miterlimit="10" d="M508.887,189.043H272.115c-2.05,0-3.713-1.664-3.713-3.716v-43.494
	c0-2.05,1.664-3.714,3.713-3.714h236.772c2.051,0,3.713,1.664,3.713,3.714v43.494C512.6,187.38,510.938,189.043,508.887,189.043z"/>
    <rect x="412.945" y="201.49" fill="#2887C8" width="4.797" height="50.921"/>
    <path fill="#2887C8" d="M292.016,220.446c0,2.396-1.941,4.334-4.334,4.334s-4.334-1.939-4.334-4.334
	c0-2.396,1.941-4.336,4.334-4.336S292.016,218.05,292.016,220.446 M287.682,229.124c-2.393,0-4.334,1.939-4.334,4.334
	c0,2.394,1.941,4.336,4.334,4.336s4.334-1.942,4.334-4.336C292.016,231.063,290.075,229.124,287.682,229.124"/>
    <path fill="#2887C8" d="M310.089,220.446c0,2.396-1.941,4.334-4.334,4.334s-4.336-1.939-4.336-4.334
	c0-2.396,1.943-4.336,4.336-4.336S310.089,218.05,310.089,220.446 M305.754,229.124c-2.393,0-4.336,1.939-4.336,4.334
	c0,2.394,1.943,4.336,4.336,4.336s4.334-1.942,4.334-4.336C310.089,231.063,308.147,229.124,305.754,229.124"/>
    <path fill="#2887C8" d="M328.162,220.446c0,2.396-1.943,4.334-4.334,4.334c-2.393,0-4.336-1.939-4.336-4.334
	c0-2.396,1.943-4.336,4.336-4.336C326.219,216.11,328.162,218.05,328.162,220.446 M323.827,229.124
	c-2.393,0-4.336,1.939-4.336,4.334c0,2.394,1.943,4.336,4.336,4.336c2.392,0,4.334-1.942,4.334-4.336
	C328.162,231.063,326.219,229.124,323.827,229.124"/>
    <path fill="#2887C8" d="M346.234,220.446c0,2.396-1.942,4.334-4.335,4.334c-2.392,0-4.334-1.939-4.334-4.334
	c0-2.396,1.942-4.336,4.334-4.336C344.292,216.11,346.234,218.05,346.234,220.446 M341.898,229.124
	c-2.392,0-4.334,1.939-4.334,4.334c0,2.394,1.942,4.336,4.334,4.336c2.393,0,4.335-1.942,4.335-4.336
	C346.234,231.063,344.292,229.124,341.898,229.124"/>
    <path fill="#2887C8" d="M364.307,220.446c0,2.396-1.943,4.334-4.336,4.334c-2.392,0-4.334-1.939-4.334-4.334
	c0-2.396,1.943-4.336,4.334-4.336C362.364,216.11,364.307,218.05,364.307,220.446 M359.971,229.124
	c-2.392,0-4.334,1.939-4.334,4.334c0,2.394,1.943,4.336,4.334,4.336c2.393,0,4.336-1.942,4.336-4.336
	C364.307,231.063,362.364,229.124,359.971,229.124"/>
    <path fill="#2887C8" d="M382.379,220.446c0,2.396-1.943,4.334-4.336,4.334s-4.334-1.939-4.334-4.334
	c0-2.396,1.941-4.336,4.334-4.336S382.379,218.05,382.379,220.446 M378.043,229.124c-2.393,0-4.334,1.939-4.334,4.334
	c0,2.394,1.941,4.336,4.334,4.336s4.336-1.942,4.336-4.336C382.379,231.063,380.437,229.124,378.043,229.124"/>
    <path fill="#2887C8" d="M400.451,220.446c0,2.396-1.941,4.334-4.335,4.334c-2.393,0-4.334-1.939-4.334-4.334
	c0-2.396,1.941-4.336,4.334-4.336C398.509,216.11,400.451,218.05,400.451,220.446 M396.116,229.124
	c-2.393,0-4.334,1.939-4.334,4.334c0,2.394,1.941,4.336,4.334,4.336c2.394,0,4.335-1.942,4.335-4.336
	C400.451,231.063,398.509,229.124,396.116,229.124"/>
    <path fill="#E4F0CC" d="M494.365,240.609h-60.076c-1.373,0-2.494-1.124-2.494-2.494V215.79c0-1.373,1.121-2.498,2.494-2.498h60.076
	c1.373,0,2.496,1.125,2.496,2.498v22.325C496.861,239.486,495.738,240.609,494.365,240.609"/>
    <path fill="#2887C8" d="M492.49,241.704h-56.324c-3.012,0-5.463-2.453-5.463-5.464v-18.574c0-3.012,2.451-5.462,5.463-5.462h56.324
	c3.012,0,5.463,2.45,5.463,5.462v18.574C497.953,239.25,495.502,241.704,492.49,241.704 M436.166,214.385
	c-1.809,0-3.279,1.475-3.279,3.28v18.574c0,1.806,1.471,3.278,3.279,3.278h56.324c1.807,0,3.277-1.473,3.277-3.278v-18.574
	c0-1.806-1.471-3.28-3.277-3.28H436.166z"/>
    <path fill="#0B9D49" d="M442.414,234.4h-2.057c-0.752,0-1.367-0.615-1.367-1.368v-2.06c0-0.752,0.615-1.368,1.367-1.368h2.057
	c0.754,0,1.371,0.615,1.371,1.368v2.06C443.785,233.785,443.168,234.4,442.414,234.4"/>
    <path fill="#0B9D49" d="M454.408,234.4h-2.057c-0.754,0-1.369-0.615-1.369-1.368v-12.16c0-0.753,0.615-1.371,1.369-1.371h2.057
	c0.752,0,1.371,0.618,1.371,1.371v12.16C455.779,233.785,455.16,234.4,454.408,234.4"/>
    <path fill="#0B9D49" d="M466.4,234.4h-2.057c-0.754,0-1.369-0.615-1.369-1.368v-4.975c0-0.752,0.615-1.368,1.369-1.368h2.057
	c0.754,0,1.371,0.616,1.371,1.368v4.975C467.771,233.785,467.154,234.4,466.4,234.4"/>
    <path fill="#0B9D49" d="M490.387,234.4h-2.057c-0.754,0-1.369-0.615-1.369-1.368v-12.16c0-0.753,0.615-1.371,1.369-1.371h2.057
	c0.752,0,1.369,0.618,1.369,1.371v12.16C491.756,233.785,491.139,234.4,490.387,234.4"/>
    <path fill="#0B9D49" d="M478.393,234.4h-2.057c-0.752,0-1.369-0.615-1.369-1.368v-12.16c0-0.753,0.617-1.371,1.369-1.371h2.057
	c0.754,0,1.371,0.618,1.371,1.371v12.16C479.764,233.785,479.146,234.4,478.393,234.4"/>
    <path fill="#E4F0CC" d="M414.174,177.746h-57.96c-1.373,0-2.496-1.124-2.496-2.497v-23.333c0-1.375,1.123-2.498,2.496-2.498h57.96
	c1.373,0,2.496,1.124,2.496,2.498v23.333C416.67,176.622,415.547,177.746,414.174,177.746"/>
    <path fill="#2887C8" d="M412.44,178.879h-54.494c-2.914,0-5.287-2.542-5.287-5.667v-19.262c0-3.126,2.373-5.667,5.287-5.667h54.494
	c2.915,0,5.286,2.541,5.286,5.667v19.262C417.727,176.337,415.355,178.879,412.44,178.879 M357.946,150.552
	c-1.748,0-3.171,1.526-3.171,3.399v19.262c0,1.874,1.423,3.399,3.171,3.399h54.494c1.748,0,3.171-1.525,3.171-3.399v-19.262
	c0-1.873-1.423-3.399-3.171-3.399H357.946z"/>
    <path fill="#0B9D49" d="M363.993,171.306h-1.99c-0.728,0-1.326-0.597-1.326-1.326v-2.322c0-0.729,0.598-1.323,1.326-1.323h1.99
	c0.728,0,1.326,0.594,1.326,1.323v2.322C365.319,170.709,364.721,171.306,363.993,171.306"/>
    <path fill="#0B9D49" d="M375.597,171.306h-1.99c-0.728,0-1.326-0.597-1.326-1.326v-12.8c0-0.727,0.598-1.323,1.326-1.323h1.99
	c0.728,0,1.326,0.596,1.326,1.323v12.8C376.922,170.709,376.325,171.306,375.597,171.306"/>
    <path fill="#0B9D49" d="M387.199,171.306h-1.989c-0.728,0-1.326-0.597-1.326-1.326v-5.347c0-0.728,0.598-1.326,1.326-1.326h1.989
	c0.729,0,1.327,0.598,1.327,1.326v5.347C388.526,170.709,387.928,171.306,387.199,171.306"/>
    <path fill="#0B9D49" d="M410.406,171.306h-1.99c-0.729,0-1.326-0.597-1.326-1.326v-12.8c0-0.727,0.598-1.323,1.326-1.323h1.99
	c0.728,0,1.325,0.596,1.325,1.323v12.8C411.731,170.709,411.134,171.306,410.406,171.306"/>
    <path fill="#0B9D49" d="M398.802,171.306h-1.989c-0.729,0-1.327-0.597-1.327-1.326v-12.8c0-0.727,0.598-1.323,1.327-1.323h1.989
	c0.728,0,1.326,0.596,1.326,1.323v12.8C400.128,170.709,399.53,171.306,398.802,171.306"/>
    <path fill="#2887C8" d="M495.977,158.985h-67.93c-0.488,0-0.886-0.396-0.886-0.886v-2.891c0-0.49,0.397-0.885,0.886-0.885h67.93
	c0.49,0,0.885,0.395,0.885,0.885v2.891C496.861,158.589,496.467,158.985,495.977,158.985"/>
    <path fill="#2887C8" d="M443.568,165.787h-15.871c-0.246,0-0.447-0.2-0.447-0.449v-2.872c0-0.245,0.201-0.446,0.447-0.446h15.871
	c0.246,0,0.447,0.201,0.447,0.446v2.872C444.016,165.587,443.814,165.787,443.568,165.787"/>
    <path fill="#2887C8" d="M443.568,172.84h-15.871c-0.246,0-0.447-0.2-0.447-0.449v-2.872c0-0.247,0.201-0.445,0.447-0.445h15.871
	c0.246,0,0.447,0.198,0.447,0.445v2.872C444.016,172.641,443.814,172.84,443.568,172.84"/>
    <path fill="#2887C8" d="M496.25,165.787h-15.867c-0.248,0-0.449-0.2-0.449-0.449v-2.872c0-0.245,0.201-0.446,0.449-0.446h15.867
	c0.248,0,0.449,0.201,0.449,0.446v2.872C496.699,165.587,496.498,165.787,496.25,165.787"/>
    <path fill="#2887C8" d="M496.25,172.84h-15.867c-0.248,0-0.449-0.2-0.449-0.449v-2.872c0-0.247,0.201-0.445,0.449-0.445h15.867
	c0.248,0,0.449,0.198,0.449,0.445v2.872C496.699,172.641,496.498,172.84,496.25,172.84"/>
    <path fill="#2887C8" d="M469.945,165.787h-15.869c-0.246,0-0.449-0.2-0.449-0.449v-2.872c0-0.245,0.203-0.446,0.449-0.446h15.869
	c0.248,0,0.449,0.201,0.449,0.446v2.872C470.395,165.587,470.193,165.787,469.945,165.787"/>
    <path fill="#2887C8" d="M469.945,172.84h-15.869c-0.246,0-0.449-0.2-0.449-0.449v-2.872c0-0.247,0.203-0.445,0.449-0.445h15.869
	c0.248,0,0.449,0.198,0.449,0.445v2.872C470.395,172.641,470.193,172.84,469.945,172.84"/>
    <path fill="#2887C8" d="M286.224,148.559c-3.759,0-6.817,3.061-6.817,6.817v15.866c0,3.762,3.059,6.821,6.817,6.821
	c3.761,0,6.82-3.059,6.82-6.821v-15.866C293.044,151.62,289.985,148.559,286.224,148.559 M290.858,171.242
	c0,2.558-2.076,4.634-4.634,4.634c-2.556,0-4.631-2.076-4.631-4.634v-15.866c0-2.556,2.076-4.632,4.631-4.632
	c2.558,0,4.634,2.076,4.634,4.632V171.242z"/>
    <path fill="#B6DDF5" d="M290.858,154.938v6.687c-0.176,0.24-0.372,0.479-0.59,0.697c-1.048,1.051-2.469,1.436-4.044,1.436
	c-1.9,0-3.583-0.689-4.631-2.133v-6.687c0.173-0.241,0.37-0.481,0.59-0.701c1.048-1.047,2.469-1.68,4.042-1.68
	c1.575,0,2.996,0.633,4.044,1.68C290.486,154.457,290.682,154.697,290.858,154.938"/>
    <path fill="#FFFFFF" d="M288.683,161.109h-4.914c-1.801,0-3.274-1.472-3.274-3.272v-4.915c0-1.803,1.473-3.273,3.274-3.273h4.914
	c1.801,0,3.273,1.47,3.273,3.273v4.915C291.956,159.637,290.483,161.109,288.683,161.109"/>
    <path fill="#2887C8" d="M286.224,162.202c-3.762,0-6.822-3.062-6.822-6.821c0-3.764,3.06-6.826,6.822-6.826
	c3.764,0,6.825,3.063,6.825,6.826C293.049,159.141,289.988,162.202,286.224,162.202 M286.224,150.741
	c-2.554,0-4.635,2.082-4.635,4.64c0,2.554,2.081,4.635,4.635,4.635c2.558,0,4.639-2.081,4.639-4.635
	C290.863,152.823,288.782,150.741,286.224,150.741"/>
    <path fill="#2887C8" d="M336.311,148.559c-3.759,0-6.817,3.061-6.817,6.817v15.866c0,3.762,3.059,6.821,6.817,6.821
	c3.761,0,6.819-3.059,6.819-6.821v-15.866C343.13,151.62,340.072,148.559,336.311,148.559 M340.945,171.242
	c0,2.558-2.076,4.634-4.634,4.634c-2.556,0-4.631-2.076-4.631-4.634v-15.866c0-2.556,2.076-4.632,4.631-4.632
	c2.558,0,4.634,2.076,4.634,4.632V171.242z"/>
    <path fill="#B6DDF5" d="M340.945,154.938v6.687c-0.177,0.24-0.373,0.479-0.59,0.697c-1.048,1.051-2.469,1.436-4.044,1.436
	c-1.9,0-3.583-0.689-4.631-2.133v-6.687c0.172-0.241,0.37-0.481,0.59-0.701c1.048-1.047,2.469-1.68,4.042-1.68
	c1.575,0,2.996,0.633,4.044,1.68C340.572,154.457,340.768,154.697,340.945,154.938"/>
    <path fill="#FFFFFF" d="M338.769,161.109h-4.914c-1.801,0-3.273-1.472-3.273-3.272v-4.915c0-1.803,1.473-3.273,3.273-3.273h4.914
	c1.801,0,3.272,1.47,3.272,3.273v4.915C342.042,159.637,340.57,161.109,338.769,161.109"/>
    <path fill="#2887C8" d="M336.311,162.202c-3.764,0-6.822-3.062-6.822-6.821c0-3.764,3.059-6.826,6.822-6.826
	s6.825,3.063,6.825,6.826C343.136,159.141,340.075,162.202,336.311,162.202 M336.311,150.741c-2.556,0-4.637,2.082-4.637,4.64
	c0,2.554,2.081,4.635,4.637,4.635c2.558,0,4.639-2.081,4.639-4.635C340.95,152.823,338.869,150.741,336.311,150.741"/>
    <path fill="#2887C8" d="M318.803,171.239v-15.866c0-3.756-3.059-6.817-6.82-6.817c-3.759,0-6.817,3.061-6.817,6.817v15.866
	c0,3.759,3.059,6.821,6.817,6.821C315.744,178.061,318.803,174.998,318.803,171.239 M316.617,171.239
	c0,2.559-2.076,4.634-4.634,4.634c-2.556,0-4.631-2.076-4.631-4.634v-15.866c0-2.556,2.076-4.631,4.631-4.631
	c2.558,0,4.634,2.076,4.634,4.631V171.239z"/>
    <path fill="#B6DDF5" d="M316.617,171.68v-6.688c-0.175-0.241-0.372-0.48-0.59-0.697c-1.048-1.051-2.469-1.436-4.044-1.436
	c-1.9,0-3.583,0.69-4.631,2.133v6.688c0.173,0.242,0.37,0.48,0.59,0.7c1.048,1.049,2.469,1.68,4.042,1.68
	c1.575,0,2.996-0.631,4.044-1.68C316.245,172.16,316.441,171.922,316.617,171.68"/>
    <path fill="#FFFFFF" d="M314.441,165.506h-4.915c-1.8,0-3.273,1.474-3.273,3.273v4.914c0,1.805,1.473,3.274,3.273,3.274h4.915
	c1.8,0,3.273-1.469,3.273-3.274v-4.914C317.715,166.98,316.242,165.506,314.441,165.506"/>
    <path fill="#2887C8" d="M318.808,171.237c0,3.765-3.061,6.826-6.825,6.826c-3.761,0-6.822-3.061-6.822-6.826
	c0-3.762,3.061-6.821,6.822-6.821C315.747,164.416,318.808,167.475,318.808,171.237 M316.622,171.237
	c0-2.557-2.081-4.638-4.639-4.638c-2.556,0-4.637,2.081-4.637,4.638c0,2.558,2.081,4.641,4.637,4.641
	C314.541,175.877,316.622,173.795,316.622,171.237"/>
    <line fill="none" stroke="#2887C8" stroke-linecap="round" stroke-linejoin="round" stroke-miterlimit="10"
          x1="234.927" y1="662.305" x2="546.074" y2="662.305"/>
    <line fill="none" stroke="#2887C8" stroke-linecap="round" stroke-linejoin="round" stroke-miterlimit="10"
          x1="565.072" y1="662.305" x2="580.633" y2="662.305"/>
    <line fill="none" stroke="#2887C8" stroke-linecap="round" stroke-linejoin="round" stroke-miterlimit="10" x1="597.6"
          y1="662.305" x2="599.342" y2="662.305"/>
    <line fill="none" stroke="#2887C8" stroke-linecap="round" stroke-linejoin="round" stroke-miterlimit="10"
          x1="215.928" y1="662.305" x2="200.37" y2="662.305"/>
    <line fill="none" stroke="#2887C8" stroke-linecap="round" stroke-linejoin="round" stroke-miterlimit="10"
          x1="181.232" y1="662.305" x2="179.49" y2="662.305"/>
</svg>
