<?xml version="1.0" encoding="utf-8"?>
<!-- Generator: Adobe Illustrator 16.0.0, SVG Export Plug-In . SVG Version: 6.00 Build 0)  -->
<!DOCTYPE svg PUBLIC "-//W3C//DTD SVG 1.0//EN" "http://www.w3.org/TR/2001/REC-SVG-20010904/DTD/svg10.dtd">
<svg version="1.0" id="Layer_1" xmlns="http://www.w3.org/2000/svg" x="0px" y="0px"
     width="800px" height="800px" viewBox="0 0 800 800" enable-background="new 0 0 800 800" xml:space="preserve">
<g>
</g>
    <rect x="208.352" y="99.297" fill="#B6DDF5" width="387.17" height="646.336"/>
    <rect x="208.352" y="99.297" fill="none" stroke="#2887C8" stroke-linecap="round" stroke-linejoin="round"
          stroke-miterlimit="10" width="387.17" height="646.336"/>
    <path fill="#FFFFFF" d="M620.049,632.704v83.128c0,4.298-3.484,7.745-7.745,7.745H483.226c-0.08-4.216-3.488-7.626-7.743-7.626
	h-147.09c-4.256,0-7.665,3.41-7.74,7.626H191.569c-4.261,0-7.745-3.447-7.745-7.745v-83.128c0-4.257,3.484-7.736,7.745-7.736
	h420.734C616.564,624.968,620.049,628.447,620.049,632.704"/>
    <path fill="none" stroke="#2887C8" stroke-miterlimit="10" d="M620.049,632.704v83.128c0,4.298-3.484,7.745-7.745,7.745H483.226
	c-0.08-4.216-3.488-7.626-7.743-7.626h-147.09c-4.256,0-7.665,3.41-7.74,7.626H191.569c-4.261,0-7.745-3.447-7.745-7.745v-83.128
	c0-4.257,3.484-7.736,7.745-7.736h420.734C616.564,624.968,620.049,628.447,620.049,632.704z"/>
    <path fill="#B1D465" d="M598.043,670.395c0,7.278-5.898,13.177-13.175,13.177c-7.274,0-13.174-5.898-13.174-13.177
	c0-7.279,5.899-13.168,13.174-13.168C592.145,657.227,598.043,663.115,598.043,670.395"/>
    <path fill="#0B9D49" d="M593.686,670.395c0,4.874-3.945,8.824-8.815,8.824c-4.873,0-8.821-3.95-8.821-8.824s3.948-8.815,8.821-8.815
	C589.74,661.579,593.686,665.521,593.686,670.395"/>
    <path fill="#B1D465" d="M555.429,670.395c0,7.278-5.898,13.177-13.175,13.177c-7.274,0-13.175-5.898-13.175-13.177
	c0-7.279,5.9-13.168,13.175-13.168C549.53,657.227,555.429,663.115,555.429,670.395"/>
    <path fill="#0B9D49" d="M551.071,670.395c0,4.874-3.945,8.824-8.819,8.824c-4.87,0-8.815-3.95-8.815-8.824s3.945-8.815,8.815-8.815
	C547.126,661.579,551.071,665.521,551.071,670.395"/>
    <path fill="#2887C8" d="M224.802,658.352c0,4.288-3.47,7.745-7.743,7.745c-4.275,0-7.745-3.457-7.745-7.745
	c0-4.271,3.47-7.736,7.745-7.736C221.332,650.615,224.802,654.081,224.802,658.352 M217.059,673.86
	c-4.275,0-7.745,3.466-7.745,7.735c0,4.28,3.47,7.755,7.745,7.755c4.273,0,7.743-3.475,7.743-7.755
	C224.802,677.326,221.332,673.86,217.059,673.86"/>
    <path fill="#2887C8" d="M257.086,658.352c0,4.288-3.47,7.745-7.745,7.745s-7.743-3.457-7.743-7.745c0-4.271,3.468-7.736,7.743-7.736
	S257.086,654.081,257.086,658.352 M249.341,673.86c-4.275,0-7.743,3.466-7.743,7.735c0,4.28,3.468,7.755,7.743,7.755
	s7.745-3.475,7.745-7.755C257.086,677.326,253.616,673.86,249.341,673.86"/>
    <path fill="#2887C8" d="M289.367,658.352c0,4.288-3.468,7.745-7.743,7.745s-7.743-3.457-7.743-7.745
	c0-4.271,3.468-7.736,7.743-7.736S289.367,654.081,289.367,658.352 M281.625,673.86c-4.275,0-7.743,3.466-7.743,7.735
	c0,4.28,3.468,7.755,7.743,7.755s7.743-3.475,7.743-7.755C289.367,677.326,285.899,673.86,281.625,673.86"/>
    <path fill="#2887C8" d="M321.651,658.352c0,4.288-3.468,7.745-7.743,7.745s-7.743-3.457-7.743-7.745
	c0-4.271,3.468-7.736,7.743-7.736S321.651,654.081,321.651,658.352 M313.908,673.86c-4.275,0-7.743,3.466-7.743,7.735
	c0,4.28,3.468,7.755,7.743,7.755s7.743-3.475,7.743-7.755C321.651,677.326,318.183,673.86,313.908,673.86"/>
    <path fill="#2887C8" d="M353.935,658.352c0,4.288-3.468,7.745-7.743,7.745s-7.745-3.457-7.745-7.745c0-4.271,3.47-7.736,7.745-7.736
	S353.935,654.081,353.935,658.352 M346.192,673.86c-4.275,0-7.745,3.466-7.745,7.735c0,4.28,3.47,7.755,7.745,7.755
	s7.743-3.475,7.743-7.755C353.935,677.326,350.467,673.86,346.192,673.86"/>
    <path fill="#2887C8" d="M386.219,658.352c0,4.288-3.468,7.745-7.743,7.745c-4.275,0-7.745-3.457-7.745-7.745
	c0-4.271,3.47-7.736,7.745-7.736C382.751,650.615,386.219,654.081,386.219,658.352 M378.476,673.86
	c-4.275,0-7.745,3.466-7.745,7.735c0,4.28,3.47,7.755,7.745,7.755c4.275,0,7.743-3.475,7.743-7.755
	C386.219,677.326,382.751,673.86,378.476,673.86"/>
    <path fill="#2887C8" d="M418.502,658.352c0,4.288-3.47,7.745-7.742,7.745c-4.275,0-7.745-3.457-7.745-7.745
	c0-4.271,3.47-7.736,7.745-7.736C415.032,650.615,418.502,654.081,418.502,658.352 M410.76,673.86c-4.275,0-7.745,3.466-7.745,7.735
	c0,4.28,3.47,7.755,7.745,7.755c4.272,0,7.742-3.475,7.742-7.755C418.502,677.326,415.032,673.86,410.76,673.86"/>
    <path fill="#FFFFFF" d="M620.049,512.036v83.126c0,4.298-3.484,7.745-7.745,7.745H483.226c-0.08-4.215-3.488-7.631-7.743-7.631
	h-147.09c-4.256,0-7.665,3.416-7.74,7.631H191.569c-4.261,0-7.745-3.447-7.745-7.745v-83.126c0-4.256,3.484-7.735,7.745-7.735
	h420.734C616.564,504.301,620.049,507.78,620.049,512.036"/>
    <path fill="none" stroke="#2887C8" stroke-miterlimit="10" d="M620.049,512.036v83.126c0,4.298-3.484,7.745-7.745,7.745H483.226
	c-0.08-4.215-3.488-7.631-7.743-7.631h-147.09c-4.256,0-7.665,3.416-7.74,7.631H191.569c-4.261,0-7.745-3.447-7.745-7.745v-83.126
	c0-4.256,3.484-7.735,7.745-7.735h420.734C616.564,504.301,620.049,507.78,620.049,512.036z"/>
    <path fill="#B1D465" d="M598.043,549.725c0,7.283-5.898,13.177-13.175,13.177c-7.274,0-13.174-5.894-13.174-13.177
	c0-7.274,5.899-13.168,13.174-13.168C592.145,536.557,598.043,542.45,598.043,549.725"/>
    <path fill="#0B9D49" d="M593.686,549.725c0,4.869-3.945,8.824-8.815,8.824c-4.873,0-8.821-3.955-8.821-8.824
	s3.948-8.815,8.821-8.815C589.74,540.909,593.686,544.855,593.686,549.725"/>
    <path fill="#B1D465" d="M555.429,549.725c0,7.283-5.898,13.177-13.175,13.177c-7.274,0-13.175-5.894-13.175-13.177
	c0-7.274,5.9-13.168,13.175-13.168C549.53,536.557,555.429,542.45,555.429,549.725"/>
    <path fill="#0B9D49" d="M551.071,549.725c0,4.869-3.945,8.824-8.819,8.824c-4.87,0-8.815-3.955-8.815-8.824s3.945-8.815,8.815-8.815
	C547.126,540.909,551.071,544.855,551.071,549.725"/>
    <path fill="#2887C8" d="M224.802,537.687c0,4.284-3.47,7.749-7.743,7.749c-4.275,0-7.745-3.465-7.745-7.749
	c0-4.275,3.47-7.741,7.745-7.741C221.332,529.945,224.802,533.411,224.802,537.687 M217.059,553.19c-4.275,0-7.745,3.466-7.745,7.74
	c0,4.279,3.47,7.75,7.745,7.75c4.273,0,7.743-3.471,7.743-7.75C224.802,556.656,221.332,553.19,217.059,553.19"/>
    <path fill="#2887C8" d="M257.086,537.687c0,4.284-3.47,7.749-7.745,7.749s-7.743-3.465-7.743-7.749c0-4.275,3.468-7.741,7.743-7.741
	S257.086,533.411,257.086,537.687 M249.341,553.19c-4.275,0-7.743,3.466-7.743,7.74c0,4.279,3.468,7.75,7.743,7.75
	s7.745-3.471,7.745-7.75C257.086,556.656,253.616,553.19,249.341,553.19"/>
    <path fill="#2887C8" d="M289.367,537.687c0,4.284-3.468,7.749-7.743,7.749s-7.743-3.465-7.743-7.749
	c0-4.275,3.468-7.741,7.743-7.741S289.367,533.411,289.367,537.687 M281.625,553.19c-4.275,0-7.743,3.466-7.743,7.74
	c0,4.279,3.468,7.75,7.743,7.75s7.743-3.471,7.743-7.75C289.367,556.656,285.899,553.19,281.625,553.19"/>
    <path fill="#2887C8" d="M321.651,537.687c0,4.284-3.468,7.749-7.743,7.749s-7.743-3.465-7.743-7.749
	c0-4.275,3.468-7.741,7.743-7.741S321.651,533.411,321.651,537.687 M313.908,553.19c-4.275,0-7.743,3.466-7.743,7.74
	c0,4.279,3.468,7.75,7.743,7.75s7.743-3.471,7.743-7.75C321.651,556.656,318.183,553.19,313.908,553.19"/>
    <path fill="#2887C8" d="M353.935,537.687c0,4.284-3.468,7.749-7.743,7.749s-7.745-3.465-7.745-7.749c0-4.275,3.47-7.741,7.745-7.741
	S353.935,533.411,353.935,537.687 M346.192,553.19c-4.275,0-7.745,3.466-7.745,7.74c0,4.279,3.47,7.75,7.745,7.75
	s7.743-3.471,7.743-7.75C353.935,556.656,350.467,553.19,346.192,553.19"/>
    <path fill="#2887C8" d="M386.219,537.687c0,4.284-3.468,7.749-7.743,7.749c-4.275,0-7.745-3.465-7.745-7.749
	c0-4.275,3.47-7.741,7.745-7.741C382.751,529.945,386.219,533.411,386.219,537.687 M378.476,553.19c-4.275,0-7.745,3.466-7.745,7.74
	c0,4.279,3.47,7.75,7.745,7.75c4.275,0,7.743-3.471,7.743-7.75C386.219,556.656,382.751,553.19,378.476,553.19"/>
    <path fill="#2887C8" d="M418.502,537.687c0,4.284-3.47,7.749-7.742,7.749c-4.275,0-7.745-3.465-7.745-7.749
	c0-4.275,3.47-7.741,7.745-7.741C415.032,529.945,418.502,533.411,418.502,537.687 M410.76,553.19c-4.275,0-7.745,3.466-7.745,7.74
	c0,4.279,3.47,7.75,7.745,7.75c4.272,0,7.742-3.471,7.742-7.75C418.502,556.656,415.032,553.19,410.76,553.19"/>
    <path fill="#FFFFFF" d="M613.414,485.463H190.458c-3.66,0-6.634-2.972-6.634-6.639v-74.607c0-3.671,2.975-6.634,6.634-6.634h422.956
	c3.665,0,6.635,2.963,6.635,6.634v74.607C620.049,482.491,617.079,485.463,613.414,485.463"/>
    <path fill="none" stroke="#2887C8" stroke-miterlimit="10" d="M613.414,485.463H190.458c-3.66,0-6.634-2.972-6.634-6.639v-74.607
	c0-3.671,2.975-6.634,6.634-6.634h422.956c3.665,0,6.635,2.963,6.635,6.634v74.607C620.049,482.491,617.079,485.463,613.414,485.463
	z"/>
    <path fill="#FFFFFF" d="M613.414,375.394H190.458c-3.66,0-6.634-2.967-6.634-6.634v-82.088c0-3.658,2.975-6.629,6.634-6.629h422.956
	c3.665,0,6.635,2.972,6.635,6.629v82.088C620.049,372.427,617.079,375.394,613.414,375.394"/>
    <path fill="none" stroke="#2887C8" stroke-miterlimit="10" d="M613.414,375.394H190.458c-3.66,0-6.634-2.967-6.634-6.634v-82.088
	c0-3.658,2.975-6.629,6.634-6.629h422.956c3.665,0,6.635,2.972,6.635,6.629v82.088C620.049,372.427,617.079,375.394,613.414,375.394
	z"/>
    <path fill="#E4F0CC" d="M324.061,466.709H216.748c-2.453,0-4.458-2.008-4.458-4.458v-39.878c0-2.455,2.005-4.463,4.458-4.463
	h107.313c2.455,0,4.462,2.008,4.462,4.463v39.878C328.523,464.701,326.516,466.709,324.061,466.709"/>
    <path fill="#2887C8" d="M320.711,468.661H220.1c-5.381,0-9.764-4.381-9.764-9.762v-33.181c0-5.376,4.382-9.756,9.764-9.756h100.612
	c5.384,0,9.762,4.38,9.762,9.756v33.181C330.473,464.28,326.095,468.661,320.711,468.661 M220.1,419.862
	c-3.232,0-5.859,2.634-5.859,5.856v33.181c0,3.228,2.627,5.856,5.859,5.856h100.612c3.23,0,5.857-2.629,5.857-5.856v-33.181
	c0-3.223-2.626-5.856-5.857-5.856H220.1z"/>
    <path fill="#0B9D49" d="M231.263,455.616h-3.676c-1.342,0-2.444-1.097-2.444-2.441v-3.681c0-1.344,1.102-2.445,2.444-2.445h3.676
	c1.344,0,2.448,1.102,2.448,2.445v3.681C233.711,454.52,232.606,455.616,231.263,455.616"/>
    <path fill="#0B9D49" d="M252.685,455.616h-3.676c-1.342,0-2.444-1.097-2.444-2.441v-21.727c0-1.34,1.102-2.446,2.444-2.446h3.676
	c1.344,0,2.449,1.106,2.449,2.446v21.727C255.134,454.52,254.029,455.616,252.685,455.616"/>
    <path fill="#0B9D49" d="M274.108,455.616h-3.674c-1.344,0-2.444-1.097-2.444-2.441v-8.888c0-1.345,1.1-2.441,2.444-2.441h3.674
	c1.344,0,2.448,1.097,2.448,2.441v8.888C276.556,454.52,275.452,455.616,274.108,455.616"/>
    <path fill="#0B9D49" d="M316.956,455.616h-3.676c-1.344,0-2.443-1.097-2.443-2.441v-21.727c0-1.34,1.1-2.446,2.443-2.446h3.676
	c1.344,0,2.448,1.106,2.448,2.446v21.727C319.404,454.52,318.3,455.616,316.956,455.616"/>
    <path fill="#0B9D49" d="M295.533,455.616h-3.676c-1.344,0-2.444-1.097-2.444-2.441v-21.727c0-1.34,1.1-2.446,2.444-2.446h3.676
	c1.342,0,2.449,1.106,2.449,2.446v21.727C297.981,454.52,296.875,455.616,295.533,455.616"/>
    <path fill="#B1D465" d="M418.809,442.312c0,7.278-5.9,13.173-13.174,13.173c-7.277,0-13.175-5.895-13.175-13.173
	s5.898-13.173,13.175-13.173C412.908,429.139,418.809,435.033,418.809,442.312"/>
    <path fill="#0B9D49" d="M414.451,442.312c0,4.869-3.947,8.819-8.816,8.819c-4.875,0-8.82-3.95-8.82-8.819s3.945-8.819,8.82-8.819
	C410.504,433.492,414.451,437.442,414.451,442.312"/>
    <path fill="#B1D465" d="M376.194,442.312c0,7.278-5.9,13.173-13.175,13.173c-7.276,0-13.174-5.895-13.174-13.173
	s5.898-13.173,13.174-13.173C370.294,429.139,376.194,435.033,376.194,442.312"/>
    <path fill="#0B9D49" d="M371.837,442.312c0,4.869-3.948,8.819-8.817,8.819c-4.874,0-8.819-3.95-8.819-8.819s3.946-8.819,8.819-8.819
	C367.889,433.492,371.837,437.442,371.837,442.312"/>
    <path fill="#2887C8" d="M524.106,458.506h-5.875c-0.74,0-1.344-0.607-1.344-1.349v-31.278c0-0.74,0.604-1.344,1.344-1.344h5.875
	c0.741,0,1.35,0.604,1.35,1.344v31.278C525.456,457.898,524.848,458.506,524.106,458.506"/>
    <rect x="442.032" y="280.038" fill="#2887C8" width="8.568" height="95.356"/>
    <path fill="#2887C8" d="M556.227,458.506h-5.878c-0.738,0-1.344-0.607-1.344-1.349v-31.278c0-0.74,0.605-1.344,1.344-1.344h5.878
	c0.738,0,1.342,0.604,1.342,1.344v31.278C557.568,457.898,556.965,458.506,556.227,458.506"/>
    <path fill="#2887C8" d="M588.343,458.506h-5.877c-0.738,0-1.345-0.607-1.345-1.349v-31.278c0-0.74,0.606-1.344,1.345-1.344h5.877
	c0.738,0,1.347,0.604,1.347,1.344v31.278C589.689,457.898,589.081,458.506,588.343,458.506"/>
    <path fill="#2887C8" d="M489.058,301.371c-6.715,0-12.178,5.469-12.178,12.176v28.343c0,6.721,5.463,12.185,12.178,12.185
	c6.719,0,12.182-5.464,12.182-12.185v-28.343C501.239,306.84,495.776,301.371,489.058,301.371 M497.335,341.89
	c0,4.572-3.708,8.28-8.277,8.28c-4.565,0-8.273-3.708-8.273-8.28v-28.343c0-4.563,3.708-8.271,8.273-8.271
	c4.569,0,8.277,3.708,8.277,8.271V341.89z"/>
    <path fill="#B6DDF5" d="M497.335,312.765v11.947c-0.315,0.43-0.665,0.855-1.054,1.248c-1.872,1.875-4.41,2.561-7.224,2.561
	c-3.396,0-6.401-1.23-8.273-3.809v-11.947c0.309-0.43,0.66-0.86,1.054-1.253c1.872-1.87,4.409-3.004,7.22-3.004
	c2.813,0,5.352,1.134,7.224,3.004C496.67,311.905,497.02,312.335,497.335,312.765"/>
    <path fill="#FFFFFF" d="M493.448,323.789h-8.777c-3.217,0-5.849-2.629-5.849-5.848v-8.778c0-3.219,2.632-5.848,5.849-5.848h8.777
	c3.217,0,5.848,2.629,5.848,5.848v8.778C499.296,321.159,496.665,323.789,493.448,323.789"/>
    <path fill="#2887C8" d="M489.06,325.741c-6.726,0-12.189-5.468-12.189-12.185c0-6.726,5.464-12.194,12.189-12.194
	c6.721,0,12.189,5.468,12.189,12.194C501.249,320.272,495.78,325.741,489.06,325.741 M489.06,305.267
	c-4.565,0-8.285,3.717-8.285,8.29c0,4.563,3.72,8.28,8.285,8.28c4.567,0,8.285-3.717,8.285-8.28
	C497.345,308.984,493.627,305.267,489.06,305.267"/>
    <path fill="#2887C8" d="M578.529,301.371c-6.714,0-12.178,5.469-12.178,12.176v28.343c0,6.721,5.464,12.185,12.178,12.185
	c6.719,0,12.183-5.464,12.183-12.185v-28.343C590.712,306.84,585.248,301.371,578.529,301.371 M586.807,341.89
	c0,4.572-3.71,8.28-8.277,8.28c-4.565,0-8.273-3.708-8.273-8.28v-28.343c0-4.563,3.708-8.271,8.273-8.271
	c4.567,0,8.277,3.708,8.277,8.271V341.89z"/>
    <path fill="#B6DDF5" d="M586.807,312.765v11.947c-0.315,0.43-0.665,0.855-1.054,1.248c-1.872,1.875-4.412,2.561-7.224,2.561
	c-3.396,0-6.401-1.23-8.273-3.809v-11.947c0.309-0.43,0.658-0.86,1.052-1.253c1.874-1.87,4.412-3.004,7.222-3.004
	c2.812,0,5.352,1.134,7.224,3.004C586.142,311.905,586.491,312.335,586.807,312.765"/>
    <path fill="#FFFFFF" d="M582.921,323.789h-8.778c-3.22,0-5.849-2.629-5.849-5.848v-8.778c0-3.219,2.629-5.848,5.849-5.848h8.778
	c3.214,0,5.846,2.629,5.846,5.848v8.778C588.767,321.159,586.135,323.789,582.921,323.789"/>
    <path fill="#2887C8" d="M578.529,325.741c-6.724,0-12.188-5.468-12.188-12.185c0-6.726,5.464-12.194,12.188-12.194
	s12.191,5.468,12.191,12.194C590.721,320.272,585.253,325.741,578.529,325.741 M578.529,305.267c-4.565,0-8.282,3.717-8.282,8.29
	c0,4.563,3.717,8.28,8.282,8.28c4.569,0,8.287-3.717,8.287-8.28C586.816,308.984,583.099,305.267,578.529,305.267"/>
    <path fill="#2887C8" d="M547.254,341.885v-28.342c0-6.708-5.464-12.176-12.183-12.176c-6.715,0-12.178,5.468-12.178,12.176v28.342
	c0,6.717,5.463,12.185,12.178,12.185C541.79,354.069,547.254,348.602,547.254,341.885 M543.349,341.885
	c0,4.572-3.708,8.28-8.277,8.28c-4.565,0-8.273-3.708-8.273-8.28v-28.342c0-4.563,3.708-8.271,8.273-8.271
	c4.569,0,8.277,3.708,8.277,8.271V341.885z"/>
    <path fill="#B6DDF5" d="M543.349,342.671v-11.947c-0.315-0.43-0.665-0.855-1.054-1.244c-1.872-1.879-4.409-2.564-7.224-2.564
	c-3.395,0-6.401,1.229-8.273,3.809v11.947c0.309,0.434,0.66,0.864,1.054,1.252c1.872,1.87,4.41,3,7.22,3
	c2.814,0,5.352-1.129,7.224-3C542.684,343.535,543.033,343.105,543.349,342.671"/>
    <path fill="#FFFFFF" d="M539.463,331.644h-8.778c-3.217,0-5.848,2.633-5.848,5.848v8.778c0,3.224,2.631,5.848,5.848,5.848h8.778
	c3.216,0,5.848-2.624,5.848-5.848v-8.778C545.311,334.277,542.679,331.644,539.463,331.644"/>
    <path fill="#2887C8" d="M547.263,341.88c0,6.726-5.469,12.194-12.191,12.194c-6.719,0-12.188-5.468-12.188-12.194
	c0-6.721,5.469-12.185,12.188-12.185C541.794,329.696,547.263,335.159,547.263,341.88 M543.358,341.88
	c0-4.568-3.718-8.285-8.287-8.285c-4.565,0-8.283,3.717-8.283,8.285c0,4.572,3.718,8.289,8.283,8.289
	C539.641,350.169,543.358,346.453,543.358,341.88"/>
    <path fill="#2887C8" d="M226.011,316.094c0,4.284-3.47,7.75-7.743,7.75c-4.275,0-7.745-3.465-7.745-7.75
	c0-4.275,3.47-7.741,7.745-7.741C222.541,308.353,226.011,311.818,226.011,316.094 M218.269,331.593
	c-4.275,0-7.745,3.471-7.745,7.746s3.47,7.75,7.745,7.75c4.272,0,7.743-3.475,7.743-7.75S222.541,331.593,218.269,331.593"/>
    <path fill="#2887C8" d="M258.295,316.094c0,4.284-3.47,7.75-7.743,7.75c-4.275,0-7.745-3.465-7.745-7.75
	c0-4.275,3.47-7.741,7.745-7.741C254.825,308.353,258.295,311.818,258.295,316.094 M250.552,331.593
	c-4.275,0-7.745,3.471-7.745,7.746s3.47,7.75,7.745,7.75c4.273,0,7.743-3.475,7.743-7.75S254.825,331.593,250.552,331.593"/>
    <path fill="#2887C8" d="M290.579,316.094c0,4.284-3.47,7.75-7.745,7.75c-4.273,0-7.743-3.465-7.743-7.75
	c0-4.275,3.47-7.741,7.743-7.741C287.109,308.353,290.579,311.818,290.579,316.094 M282.834,331.593
	c-4.273,0-7.743,3.471-7.743,7.746s3.47,7.75,7.743,7.75c4.275,0,7.745-3.475,7.745-7.75S287.109,331.593,282.834,331.593"/>
    <path fill="#2887C8" d="M322.863,316.094c0,4.284-3.47,7.75-7.745,7.75c-4.273,0-7.743-3.465-7.743-7.75
	c0-4.275,3.47-7.741,7.743-7.741C319.393,308.353,322.863,311.818,322.863,316.094 M315.118,331.593
	c-4.273,0-7.743,3.471-7.743,7.746s3.47,7.75,7.743,7.75c4.275,0,7.745-3.475,7.745-7.75S319.393,331.593,315.118,331.593"/>
    <path fill="#2887C8" d="M355.146,316.094c0,4.284-3.47,7.75-7.745,7.75s-7.743-3.465-7.743-7.75c0-4.275,3.468-7.741,7.743-7.741
	S355.146,311.818,355.146,316.094 M347.401,331.593c-4.275,0-7.743,3.471-7.743,7.746s3.468,7.75,7.743,7.75s7.745-3.475,7.745-7.75
	S351.676,331.593,347.401,331.593"/>
    <path fill="#2887C8" d="M387.428,316.094c0,4.284-3.468,7.75-7.743,7.75s-7.745-3.465-7.745-7.75c0-4.275,3.47-7.741,7.745-7.741
	S387.428,311.818,387.428,316.094 M379.685,331.593c-4.275,0-7.745,3.471-7.745,7.746s3.47,7.75,7.745,7.75s7.743-3.475,7.743-7.75
	S383.96,331.593,379.685,331.593"/>
    <path fill="#2887C8" d="M419.712,316.094c0,4.284-3.468,7.75-7.743,7.75s-7.745-3.465-7.745-7.75c0-4.275,3.47-7.741,7.745-7.741
	S419.712,311.818,419.712,316.094 M411.969,331.593c-4.275,0-7.745,3.471-7.745,7.746s3.47,7.75,7.745,7.75s7.743-3.475,7.743-7.75
	S416.244,331.593,411.969,331.593"/>
    <path fill="#FFFFFF" d="M613.414,257.982H190.458c-3.66,0-6.634-2.972-6.634-6.634v-77.694c0-3.667,2.975-6.634,6.634-6.634h422.956
	c3.665,0,6.635,2.967,6.635,6.634v77.694C620.049,255.01,617.079,257.982,613.414,257.982"/>
    <path fill="none" stroke="#2887C8" stroke-miterlimit="10" d="M613.414,257.982H190.458c-3.66,0-6.634-2.972-6.634-6.634v-77.694
	c0-3.667,2.975-6.634,6.634-6.634h422.956c3.665,0,6.635,2.967,6.635,6.634v77.694C620.049,255.01,617.079,257.982,613.414,257.982z
	"/>
    <path fill="#FFFFFF" d="M613.414,144.781H190.458c-3.66,0-6.634-2.972-6.634-6.634V60.452c0-3.667,2.975-6.634,6.634-6.634h422.956
	c3.665,0,6.635,2.967,6.635,6.634v77.694C620.049,141.809,617.079,144.781,613.414,144.781"/>
    <path fill="none" stroke="#2887C8" stroke-miterlimit="10" d="M613.414,144.781H190.458c-3.66,0-6.634-2.972-6.634-6.634V60.452
	c0-3.667,2.975-6.634,6.634-6.634h422.956c3.665,0,6.635,2.967,6.635,6.634v77.694C620.049,141.809,617.079,144.781,613.414,144.781
	z"/>
    <rect x="442.032" y="167.02" fill="#2887C8" width="8.568" height="90.962"/>
    <path fill="#2887C8" d="M226.011,200.876c0,4.284-3.47,7.748-7.743,7.748c-4.275,0-7.745-3.463-7.745-7.748
	c0-4.275,3.47-7.741,7.745-7.741C222.541,193.135,226.011,196.601,226.011,200.876 M218.269,216.382
	c-4.275,0-7.745,3.463-7.745,7.738s3.47,7.75,7.745,7.75c4.272,0,7.743-3.475,7.743-7.75S222.541,216.382,218.269,216.382"/>
    <path fill="#2887C8" d="M258.295,200.876c0,4.284-3.47,7.748-7.743,7.748c-4.275,0-7.745-3.463-7.745-7.748
	c0-4.275,3.47-7.741,7.745-7.741C254.825,193.135,258.295,196.601,258.295,200.876 M250.552,216.382
	c-4.275,0-7.745,3.463-7.745,7.738s3.47,7.75,7.745,7.75c4.273,0,7.743-3.475,7.743-7.75S254.825,216.382,250.552,216.382"/>
    <path fill="#2887C8" d="M290.579,200.876c0,4.284-3.47,7.748-7.745,7.748c-4.273,0-7.743-3.463-7.743-7.748
	c0-4.275,3.47-7.741,7.743-7.741C287.109,193.135,290.579,196.601,290.579,200.876 M282.834,216.382
	c-4.273,0-7.743,3.463-7.743,7.738s3.47,7.75,7.743,7.75c4.275,0,7.745-3.475,7.745-7.75S287.109,216.382,282.834,216.382"/>
    <path fill="#2887C8" d="M322.863,200.876c0,4.284-3.47,7.748-7.745,7.748c-4.273,0-7.743-3.463-7.743-7.748
	c0-4.275,3.47-7.741,7.743-7.741C319.393,193.135,322.863,196.601,322.863,200.876 M315.118,216.382
	c-4.273,0-7.743,3.463-7.743,7.738s3.47,7.75,7.743,7.75c4.275,0,7.745-3.475,7.745-7.75S319.393,216.382,315.118,216.382"/>
    <path fill="#2887C8" d="M355.146,200.876c0,4.284-3.47,7.748-7.745,7.748s-7.743-3.463-7.743-7.748c0-4.275,3.468-7.741,7.743-7.741
	S355.146,196.601,355.146,200.876 M347.401,216.382c-4.275,0-7.743,3.463-7.743,7.738s3.468,7.75,7.743,7.75s7.745-3.475,7.745-7.75
	S351.676,216.382,347.401,216.382"/>
    <path fill="#2887C8" d="M387.428,200.876c0,4.284-3.468,7.748-7.743,7.748s-7.745-3.463-7.745-7.748c0-4.275,3.47-7.741,7.745-7.741
	S387.428,196.601,387.428,200.876 M379.685,216.382c-4.275,0-7.745,3.463-7.745,7.738s3.47,7.75,7.745,7.75s7.743-3.475,7.743-7.75
	S383.96,216.382,379.685,216.382"/>
    <path fill="#2887C8" d="M419.712,200.876c0,4.284-3.468,7.748-7.743,7.748s-7.745-3.463-7.745-7.748c0-4.275,3.47-7.741,7.745-7.741
	S419.712,196.601,419.712,200.876 M411.969,216.382c-4.275,0-7.745,3.463-7.745,7.738s3.47,7.75,7.745,7.75s7.743-3.475,7.743-7.75
	S416.244,216.382,411.969,216.382"/>
    <path fill="#E4F0CC" d="M587.475,236.9H480.159c-2.452,0-4.455-2.007-4.455-4.462V192.56c0-2.449,2.003-4.458,4.455-4.458h107.315
	c2.453,0,4.46,2.009,4.46,4.458v39.878C591.935,234.893,589.928,236.9,587.475,236.9"/>
    <path fill="#2887C8" d="M584.128,238.848H483.509c-5.379,0-9.757-4.376-9.757-9.757v-33.178c0-5.379,4.378-9.764,9.757-9.764
	h100.619c5.379,0,9.757,4.384,9.757,9.764v33.178C593.885,234.472,589.507,238.848,584.128,238.848 M483.509,190.054
	c-3.23,0-5.857,2.629-5.857,5.859v33.178c0,3.228,2.627,5.852,5.857,5.852h100.619c3.226,0,5.852-2.625,5.852-5.852v-33.178
	c0-3.23-2.626-5.859-5.852-5.859H483.509z"/>
    <path fill="#0B9D49" d="M494.674,225.808h-3.676c-1.345,0-2.444-1.1-2.444-2.446v-3.676c0-1.344,1.1-2.443,2.444-2.443h3.676
	c1.345,0,2.448,1.1,2.448,2.443v3.676C497.122,224.708,496.019,225.808,494.674,225.808"/>
    <path fill="#0B9D49" d="M516.097,225.808h-3.676c-1.342,0-2.443-1.1-2.443-2.446v-21.72c0-1.344,1.102-2.448,2.443-2.448h3.676
	c1.344,0,2.448,1.104,2.448,2.448v21.72C518.545,224.708,517.44,225.808,516.097,225.808"/>
    <path fill="#0B9D49" d="M537.52,225.808h-3.674c-1.345,0-2.444-1.1-2.444-2.446v-8.888c0-1.342,1.1-2.444,2.444-2.444h3.674
	c1.344,0,2.448,1.102,2.448,2.444v8.888C539.968,224.708,538.863,225.808,537.52,225.808"/>
    <path fill="#0B9D49" d="M580.367,225.808h-3.676c-1.342,0-2.444-1.1-2.444-2.446v-21.72c0-1.344,1.103-2.448,2.444-2.448h3.676
	c1.344,0,2.448,1.104,2.448,2.448v21.72C582.815,224.708,581.711,225.808,580.367,225.808"/>
    <path fill="#0B9D49" d="M558.944,225.808h-3.676c-1.345,0-2.444-1.1-2.444-2.446v-21.72c0-1.344,1.1-2.448,2.444-2.448h3.676
	c1.344,0,2.448,1.104,2.448,2.448v21.72C561.393,224.708,560.288,225.808,558.944,225.808"/>
    <path fill="#E4F0CC" d="M444.223,124.599H340.689c-2.453,0-4.458-2.007-4.458-4.456V78.459c0-2.458,2.005-4.464,4.458-4.464h103.533
	c2.453,0,4.463,2.007,4.463,4.464v41.684C448.686,122.592,446.676,124.599,444.223,124.599"/>
    <path fill="#2887C8" d="M441.13,126.629h-97.345c-5.208,0-9.444-4.542-9.444-10.127V82.095c0-5.581,4.236-10.118,9.444-10.118
	h97.345c5.205,0,9.443,4.538,9.443,10.118v34.407C450.573,122.087,446.335,126.629,441.13,126.629 M343.785,76.022
	c-3.123,0-5.665,2.725-5.665,6.072v34.407c0,3.352,2.542,6.072,5.665,6.072h97.345c3.123,0,5.665-2.72,5.665-6.072V82.095
	c0-3.347-2.542-6.072-5.665-6.072H343.785z"/>
    <path fill="#0B9D49" d="M354.586,113.096h-3.555c-1.301,0-2.369-1.065-2.369-2.364v-4.151c0-1.303,1.068-2.364,2.369-2.364h3.555
	c1.301,0,2.369,1.061,2.369,2.364v4.151C356.955,112.03,355.887,113.096,354.586,113.096"/>
    <path fill="#0B9D49" d="M375.312,113.096h-3.553c-1.301,0-2.368-1.065-2.368-2.364V87.867c0-1.303,1.067-2.368,2.368-2.368h3.553
	c1.303,0,2.371,1.065,2.371,2.368v22.865C377.683,112.03,376.615,113.096,375.312,113.096"/>
    <path fill="#0B9D49" d="M396.04,113.096h-3.552c-1.303,0-2.369-1.065-2.369-2.364v-9.556c0-1.296,1.065-2.364,2.369-2.364h3.552
	c1.303,0,2.369,1.067,2.369,2.364v9.556C398.408,112.03,397.343,113.096,396.04,113.096"/>
    <path fill="#0B9D49" d="M437.495,113.096h-3.555c-1.301,0-2.369-1.065-2.369-2.364V87.867c0-1.303,1.068-2.368,2.369-2.368h3.555
	c1.301,0,2.368,1.065,2.368,2.368v22.865C439.863,112.03,438.796,113.096,437.495,113.096"/>
    <path fill="#0B9D49" d="M416.768,113.096h-3.555c-1.301,0-2.369-1.065-2.369-2.364V87.867c0-1.303,1.068-2.368,2.369-2.368h3.555
	c1.301,0,2.368,1.065,2.368,2.368v22.865C419.136,112.03,418.068,113.096,416.768,113.096"/>
    <path fill="#2887C8" d="M590.353,91.085H469.006c-0.868,0-1.581-0.702-1.581-1.577v-5.165c0-0.875,0.713-1.582,1.581-1.582h121.347
	c0.876,0,1.582,0.707,1.582,1.582v5.165C591.935,90.384,591.229,91.085,590.353,91.085"/>
    <path fill="#2887C8" d="M496.733,103.238h-28.35c-0.443,0-0.8-0.359-0.8-0.8v-5.13c0-0.441,0.356-0.795,0.8-0.795h28.35
	c0.439,0,0.801,0.354,0.801,0.795v5.13C497.534,102.879,497.173,103.238,496.733,103.238"/>
    <path fill="#2887C8" d="M496.733,115.839h-28.35c-0.443,0-0.8-0.359-0.8-0.8v-5.13c0-0.441,0.356-0.796,0.8-0.796h28.35
	c0.439,0,0.801,0.354,0.801,0.796v5.13C497.534,115.48,497.173,115.839,496.733,115.839"/>
    <path fill="#2887C8" d="M590.844,103.238h-28.347c-0.446,0-0.801-0.359-0.801-0.8v-5.13c0-0.441,0.354-0.795,0.801-0.795h28.347
	c0.441,0,0.803,0.354,0.803,0.795v5.13C591.646,102.879,591.285,103.238,590.844,103.238"/>
    <path fill="#2887C8" d="M590.844,115.839h-28.347c-0.446,0-0.801-0.359-0.801-0.8v-5.13c0-0.441,0.354-0.796,0.801-0.796h28.347
	c0.441,0,0.803,0.354,0.803,0.796v5.13C591.646,115.48,591.285,115.839,590.844,115.839"/>
    <path fill="#2887C8" d="M543.854,103.238h-28.348c-0.445,0-0.803-0.359-0.803-0.8v-5.13c0-0.441,0.357-0.795,0.803-0.795h28.348
	c0.44,0,0.802,0.354,0.802,0.795v5.13C544.656,102.879,544.295,103.238,543.854,103.238"/>
    <path fill="#2887C8" d="M543.854,115.839h-28.348c-0.445,0-0.803-0.359-0.803-0.8v-5.13c0-0.441,0.357-0.796,0.803-0.796h28.348
	c0.44,0,0.802,0.354,0.802,0.796v5.13C544.656,115.48,544.295,115.839,543.854,115.839"/>
    <path fill="#2887C8" d="M215.665,72.466c-6.714,0-12.178,5.463-12.178,12.178v28.345c0,6.714,5.464,12.183,12.178,12.183
	c6.716,0,12.18-5.468,12.18-12.183V84.644C227.845,77.929,222.381,72.466,215.665,72.466 M223.94,112.988
	c0,4.57-3.708,8.278-8.276,8.278c-4.565,0-8.273-3.708-8.273-8.278V84.644c0-4.565,3.708-8.273,8.273-8.273
	c4.568,0,8.276,3.708,8.276,8.273V112.988z"/>
    <path fill="#B6DDF5" d="M223.94,83.857v11.949c-0.313,0.432-0.663,0.857-1.052,1.246c-1.875,1.877-4.412,2.56-7.224,2.56
	c-3.395,0-6.401-1.229-8.273-3.806V83.857c0.309-0.43,0.661-0.859,1.054-1.248c1.872-1.875,4.41-3.006,7.219-3.006
	c2.812,0,5.35,1.132,7.224,3.006C223.277,82.998,223.627,83.427,223.94,83.857"/>
    <path fill="#FFFFFF" d="M220.056,94.88h-8.778c-3.216,0-5.848-2.629-5.848-5.845v-8.779c0-3.216,2.632-5.848,5.848-5.848h8.778
	c3.216,0,5.848,2.631,5.848,5.848v8.779C225.904,92.251,223.272,94.88,220.056,94.88"/>
    <path fill="#2887C8" d="M215.665,96.833c-6.723,0-12.187-5.469-12.187-12.185c0-6.726,5.464-12.189,12.187-12.189
	s12.192,5.463,12.192,12.189C227.856,91.364,222.388,96.833,215.665,96.833 M215.665,76.363c-4.565,0-8.282,3.72-8.282,8.285
	c0,4.563,3.717,8.28,8.282,8.28c4.57,0,8.287-3.717,8.287-8.28C223.952,80.083,220.234,76.363,215.665,76.363"/>
    <path fill="#2887C8" d="M305.134,72.466c-6.714,0-12.178,5.463-12.178,12.178v28.345c0,6.714,5.463,12.183,12.178,12.183
	c6.719,0,12.183-5.468,12.183-12.183V84.644C317.317,77.929,311.853,72.466,305.134,72.466 M313.412,112.988
	c0,4.57-3.708,8.278-8.278,8.278c-4.565,0-8.273-3.708-8.273-8.278V84.644c0-4.565,3.708-8.273,8.273-8.273
	c4.57,0,8.278,3.708,8.278,8.273V112.988z"/>
    <path fill="#B6DDF5" d="M313.412,83.857v11.949c-0.313,0.432-0.665,0.857-1.054,1.246c-1.873,1.877-4.41,2.56-7.224,2.56
	c-3.395,0-6.399-1.229-8.273-3.806V83.857c0.311-0.43,0.66-0.859,1.054-1.248c1.872-1.875,4.41-3.006,7.219-3.006
	c2.814,0,5.352,1.132,7.224,3.006C312.747,82.998,313.099,83.427,313.412,83.857"/>
    <path fill="#FFFFFF" d="M309.526,94.88h-8.779c-3.216,0-5.848-2.629-5.848-5.845v-8.779c0-3.216,2.631-5.848,5.848-5.848h8.779
	c3.216,0,5.848,2.631,5.848,5.848v8.779C315.374,92.251,312.742,94.88,309.526,94.88"/>
    <path fill="#2887C8" d="M305.137,96.833c-6.724,0-12.187-5.469-12.187-12.185c0-6.726,5.463-12.189,12.187-12.189
	c6.723,0,12.191,5.463,12.191,12.189C317.328,91.364,311.86,96.833,305.137,96.833 M305.137,76.363c-4.565,0-8.282,3.72-8.282,8.285
	c0,4.563,3.717,8.28,8.282,8.28c4.57,0,8.287-3.717,8.287-8.28C313.424,80.083,309.707,76.363,305.137,76.363"/>
    <path fill="#2887C8" d="M273.861,112.977V84.639c0-6.714-5.463-12.178-12.182-12.178c-6.714,0-12.178,5.464-12.178,12.178v28.338
	c0,6.721,5.463,12.185,12.178,12.185C268.397,125.162,273.861,119.698,273.861,112.977 M269.957,112.977
	c0,4.57-3.708,8.278-8.278,8.278c-4.565,0-8.273-3.708-8.273-8.278V84.639c0-4.565,3.708-8.273,8.273-8.273
	c4.57,0,8.278,3.708,8.278,8.273V112.977z"/>
    <path fill="#B6DDF5" d="M269.957,113.763v-11.947c-0.313-0.425-0.666-0.853-1.054-1.246c-1.872-1.877-4.41-2.561-7.224-2.561
	c-3.395,0-6.401,1.232-8.273,3.807v11.947c0.309,0.432,0.661,0.862,1.054,1.25c1.873,1.875,4.41,3.006,7.22,3.006
	c2.814,0,5.352-1.132,7.224-3.006C269.291,114.625,269.643,114.195,269.957,113.763"/>
    <path fill="#FFFFFF" d="M266.07,102.74h-8.779c-3.216,0-5.848,2.634-5.848,5.848v8.778c0,3.219,2.631,5.848,5.848,5.848h8.779
	c3.216,0,5.848-2.629,5.848-5.848v-8.778C271.918,105.374,269.287,102.74,266.07,102.74"/>
    <path fill="#2887C8" d="M273.87,112.977c0,6.726-5.468,12.194-12.191,12.194c-6.719,0-12.187-5.468-12.187-12.194
	c0-6.721,5.468-12.189,12.187-12.189C268.402,100.788,273.87,106.256,273.87,112.977 M269.966,112.977
	c0-4.568-3.717-8.285-8.287-8.285c-4.565,0-8.283,3.717-8.283,8.285c0,4.57,3.717,8.289,8.283,8.289
	C266.249,121.266,269.966,117.547,269.966,112.977"/>
    <line fill="none" stroke="#2887C8" stroke-linecap="round" stroke-linejoin="round" stroke-miterlimit="10" x1="124.03"
          y1="745.633" x2="679.845" y2="745.633"/>
    <line fill="none" stroke="#2887C8" stroke-linecap="round" stroke-linejoin="round" stroke-miterlimit="10"
          x1="713.784" y1="745.633" x2="741.575" y2="745.633"/>
    <line fill="none" stroke="#2887C8" stroke-linecap="round" stroke-linejoin="round" stroke-miterlimit="10"
          x1="771.887" y1="745.633" x2="775" y2="745.633"/>
    <line fill="none" stroke="#2887C8" stroke-linecap="round" stroke-linejoin="round" stroke-miterlimit="10" x1="90.091"
          y1="745.633" x2="62.3" y2="745.633"/>
    <line fill="none" stroke="#2887C8" stroke-linecap="round" stroke-linejoin="round" stroke-miterlimit="10" x1="28.114"
          y1="745.633" x2="25" y2="745.633"/>
</svg>
