<svg xmlns="http://www.w3.org/2000/svg" id="Layer_1" width="800" height="800" x="0" y="0" enable-background="new 0 0 800 800" version="1.0" viewBox="0 0 800 800" xml:space="preserve"><rect width="310.111" height="711.691" x="241.724" y="63.311" fill="#B6DDF5"/><rect width="310.111" height="711.691" x="241.724" y="63.311" fill="none" stroke="#2887C8" stroke-linecap="round" stroke-linejoin="round" stroke-miterlimit="10"/><path fill="#FFF" d="M571.479,684.547v66.586c0,3.441-2.79,6.203-6.203,6.203H461.889c-0.064-3.377-2.795-6.109-6.204-6.109	H337.871c-3.408,0-6.138,2.732-6.202,6.109H228.281c-3.412,0-6.202-2.762-6.202-6.203v-66.586c0-3.404,2.79-6.195,6.202-6.195	h336.995C568.688,678.352,571.479,681.143,571.479,684.547"/><path fill="none" stroke="#2887C8" stroke-miterlimit="10" d="M571.479,684.547v66.586c0,3.441-2.79,6.203-6.203,6.203H461.889	c-0.064-3.377-2.795-6.109-6.204-6.109H337.871c-3.408,0-6.138,2.732-6.202,6.109H228.281c-3.412,0-6.202-2.762-6.202-6.203v-66.586	c0-3.404,2.79-6.195,6.202-6.195h336.995C568.688,678.352,571.479,681.143,571.479,684.547z"/><path fill="#B1D465" d="M553.854,714.738c0,5.83-4.727,10.555-10.553,10.555c-5.828,0-10.553-4.725-10.553-10.555	s4.725-10.547,10.553-10.547C549.127,704.191,553.854,708.908,553.854,714.738"/><path fill="#0B9D49" d="M550.363,714.738c0,3.904-3.162,7.068-7.063,7.068c-3.902,0-7.064-3.164-7.064-7.068	s3.162-7.061,7.064-7.061C547.201,707.678,550.363,710.834,550.363,714.738"/><path fill="#B1D465" d="M519.721,714.738c0,5.83-4.727,10.555-10.553,10.555c-5.828,0-10.554-4.725-10.554-10.555	s4.726-10.547,10.554-10.547C514.994,704.191,519.721,708.908,519.721,714.738"/><path fill="#0B9D49" d="M516.23,714.738c0,3.904-3.162,7.068-7.063,7.068c-3.903,0-7.064-3.164-7.064-7.068s3.161-7.061,7.064-7.061	C513.068,707.678,516.23,710.834,516.23,714.738"/><path fill="#2887C8" d="M254.898,705.092c0,3.436-2.777,6.203-6.202,6.203c-3.424,0-6.204-2.768-6.204-6.203	c0-3.42,2.78-6.195,6.204-6.195C252.121,698.896,254.898,701.672,254.898,705.092 M248.697,717.514	c-3.424,0-6.204,2.775-6.204,6.197c0,3.428,2.78,6.211,6.204,6.211c3.424,0,6.202-2.783,6.202-6.211	C254.898,720.289,252.121,717.514,248.697,717.514"/><path fill="#2887C8" d="M280.757,705.092c0,3.436-2.778,6.203-6.202,6.203c-3.424,0-6.204-2.768-6.204-6.203	c0-3.42,2.779-6.195,6.204-6.195C277.979,698.896,280.757,701.672,280.757,705.092 M274.555,717.514	c-3.424,0-6.204,2.775-6.204,6.197c0,3.428,2.779,6.211,6.204,6.211c3.424,0,6.202-2.783,6.202-6.211	C280.757,720.289,277.979,717.514,274.555,717.514"/><path fill="#2887C8" d="M306.615,705.092c0,3.436-2.78,6.203-6.202,6.203c-3.424,0-6.204-2.768-6.204-6.203	c0-3.42,2.78-6.195,6.204-6.195C303.835,698.896,306.615,701.672,306.615,705.092 M300.413,717.514	c-3.424,0-6.204,2.775-6.204,6.197c0,3.428,2.78,6.211,6.204,6.211c3.422,0,6.202-2.783,6.202-6.211	C306.615,720.289,303.835,717.514,300.413,717.514"/><path fill="#2887C8" d="M332.473,705.092c0,3.436-2.78,6.203-6.202,6.203c-3.424,0-6.204-2.768-6.204-6.203	c0-3.42,2.779-6.195,6.204-6.195C329.693,698.896,332.473,701.672,332.473,705.092 M326.271,717.514	c-3.424,0-6.204,2.775-6.204,6.197c0,3.428,2.779,6.211,6.204,6.211c3.422,0,6.202-2.783,6.202-6.211	C332.473,720.289,329.693,717.514,326.271,717.514"/><path fill="#2887C8" d="M358.331,705.092c0,3.436-2.779,6.203-6.203,6.203c-3.424,0-6.202-2.768-6.202-6.203	c0-3.42,2.778-6.195,6.202-6.195C355.552,698.896,358.331,701.672,358.331,705.092 M352.128,717.514	c-3.424,0-6.202,2.775-6.202,6.197c0,3.428,2.778,6.211,6.202,6.211c3.424,0,6.203-2.783,6.203-6.211	C358.331,720.289,355.552,717.514,352.128,717.514"/><path fill="#2887C8" d="M384.188,705.092c0,3.436-2.777,6.203-6.202,6.203s-6.202-2.768-6.202-6.203c0-3.42,2.777-6.195,6.202-6.195	S384.188,701.672,384.188,705.092 M377.986,717.514c-3.424,0-6.202,2.775-6.202,6.197c0,3.428,2.777,6.211,6.202,6.211	s6.202-2.783,6.202-6.211C384.188,720.289,381.41,717.514,377.986,717.514"/><path fill="#2887C8" d="M410.046,705.092c0,3.436-2.778,6.203-6.202,6.203s-6.202-2.768-6.202-6.203c0-3.42,2.778-6.195,6.202-6.195	S410.046,701.672,410.046,705.092 M403.844,717.514c-3.424,0-6.202,2.775-6.202,6.197c0,3.428,2.778,6.211,6.202,6.211	s6.202-2.783,6.202-6.211C410.046,720.289,407.268,717.514,403.844,717.514"/><path fill="#FFF" d="M571.479,587.898v66.584c0,3.441-2.79,6.203-6.203,6.203H461.889c-0.064-3.377-2.795-6.115-6.204-6.115	H337.871c-3.408,0-6.138,2.738-6.202,6.115H228.281c-3.412,0-6.202-2.762-6.202-6.203v-66.584c0-3.408,2.79-6.195,6.202-6.195	h336.995C568.688,581.703,571.479,584.49,571.479,587.898"/><path fill="none" stroke="#2887C8" stroke-miterlimit="10" d="M571.479,587.898v66.584c0,3.441-2.79,6.203-6.203,6.203H461.889	c-0.064-3.377-2.795-6.115-6.204-6.115H337.871c-3.408,0-6.138,2.738-6.202,6.115H228.281c-3.412,0-6.202-2.762-6.202-6.203v-66.584	c0-3.408,2.79-6.195,6.202-6.195h336.995C568.688,581.703,571.479,584.49,571.479,587.898z"/><path fill="#B1D465" d="M553.854,618.086c0,5.834-4.727,10.555-10.553,10.555c-5.828,0-10.553-4.721-10.553-10.555	c0-5.826,4.725-10.547,10.553-10.547C549.127,607.539,553.854,612.26,553.854,618.086"/><path fill="#0B9D49" d="M550.363,618.086c0,3.9-3.162,7.068-7.063,7.068c-3.902,0-7.064-3.168-7.064-7.068s3.162-7.061,7.064-7.061	C547.201,611.025,550.363,614.186,550.363,618.086"/><path fill="#B1D465" d="M519.721,618.086c0,5.834-4.727,10.555-10.553,10.555c-5.828,0-10.554-4.721-10.554-10.555	c0-5.826,4.726-10.547,10.554-10.547C514.994,607.539,519.721,612.26,519.721,618.086"/><path fill="#0B9D49" d="M516.23,618.086c0,3.9-3.162,7.068-7.063,7.068c-3.903,0-7.064-3.168-7.064-7.068s3.161-7.061,7.064-7.061	C513.068,611.025,516.23,614.186,516.23,618.086"/><path fill="#2887C8" d="M254.898,608.443c0,3.432-2.777,6.207-6.202,6.207c-3.424,0-6.204-2.775-6.204-6.207	c0-3.424,2.78-6.199,6.204-6.199C252.121,602.244,254.898,605.02,254.898,608.443 M248.697,620.861	c-3.424,0-6.204,2.775-6.204,6.201s2.78,6.209,6.204,6.209c3.424,0,6.202-2.783,6.202-6.209S252.121,620.861,248.697,620.861"/><path fill="#2887C8" d="M280.757,608.443c0,3.432-2.778,6.207-6.202,6.207c-3.424,0-6.204-2.775-6.204-6.207	c0-3.424,2.779-6.199,6.204-6.199C277.979,602.244,280.757,605.02,280.757,608.443 M274.555,620.861	c-3.424,0-6.204,2.775-6.204,6.201s2.779,6.209,6.204,6.209c3.424,0,6.202-2.783,6.202-6.209S277.979,620.861,274.555,620.861"/><path fill="#2887C8" d="M306.615,608.443c0,3.432-2.78,6.207-6.202,6.207c-3.424,0-6.204-2.775-6.204-6.207	c0-3.424,2.78-6.199,6.204-6.199C303.835,602.244,306.615,605.02,306.615,608.443 M300.413,620.861	c-3.424,0-6.204,2.775-6.204,6.201s2.78,6.209,6.204,6.209c3.422,0,6.202-2.783,6.202-6.209S303.835,620.861,300.413,620.861"/><path fill="#2887C8" d="M332.473,608.443c0,3.432-2.78,6.207-6.202,6.207c-3.424,0-6.204-2.775-6.204-6.207	c0-3.424,2.779-6.199,6.204-6.199C329.693,602.244,332.473,605.02,332.473,608.443 M326.271,620.861	c-3.424,0-6.204,2.775-6.204,6.201s2.779,6.209,6.204,6.209c3.422,0,6.202-2.783,6.202-6.209S329.693,620.861,326.271,620.861"/><path fill="#2887C8" d="M358.331,608.443c0,3.432-2.779,6.207-6.203,6.207c-3.424,0-6.202-2.775-6.202-6.207	c0-3.424,2.778-6.199,6.202-6.199C355.552,602.244,358.331,605.02,358.331,608.443 M352.128,620.861	c-3.424,0-6.202,2.775-6.202,6.201s2.778,6.209,6.202,6.209c3.424,0,6.203-2.783,6.203-6.209S355.552,620.861,352.128,620.861"/><path fill="#2887C8" d="M384.188,608.443c0,3.432-2.777,6.207-6.202,6.207s-6.202-2.775-6.202-6.207	c0-3.424,2.777-6.199,6.202-6.199S384.188,605.02,384.188,608.443 M377.986,620.861c-3.424,0-6.202,2.775-6.202,6.201	s2.777,6.209,6.202,6.209s6.202-2.783,6.202-6.209S381.41,620.861,377.986,620.861"/><path fill="#2887C8" d="M410.046,608.443c0,3.432-2.778,6.207-6.202,6.207s-6.202-2.775-6.202-6.207	c0-3.424,2.778-6.199,6.202-6.199S410.046,605.02,410.046,608.443 M403.844,620.861c-3.424,0-6.202,2.775-6.202,6.201	s2.778,6.209,6.202,6.209s6.202-2.783,6.202-6.209S407.268,620.861,403.844,620.861"/><path fill="#FFF" d="M571.479,491.248v66.582c0,3.441-2.79,6.203-6.203,6.203H461.889c-0.064-3.377-2.795-6.111-6.204-6.111	H337.871c-3.408,0-6.138,2.734-6.202,6.111H228.281c-3.412,0-6.202-2.762-6.202-6.203v-66.582c0-3.408,2.79-6.195,6.202-6.195	h336.995C568.688,485.053,571.479,487.84,571.479,491.248"/><path fill="none" stroke="#2887C8" stroke-miterlimit="10" d="M571.479,491.248v66.582c0,3.441-2.79,6.203-6.203,6.203H461.889	c-0.064-3.377-2.795-6.111-6.204-6.111H337.871c-3.408,0-6.138,2.734-6.202,6.111H228.281c-3.412,0-6.202-2.762-6.202-6.203v-66.582	c0-3.408,2.79-6.195,6.202-6.195h336.995C568.688,485.053,571.479,487.84,571.479,491.248z"/><path fill="#B1D465" d="M553.854,521.436c0,5.834-4.727,10.555-10.553,10.555c-5.828,0-10.553-4.721-10.553-10.555	c0-5.826,4.725-10.547,10.553-10.547C549.127,510.889,553.854,515.609,553.854,521.436"/><path fill="#0B9D49" d="M550.363,521.436c0,3.9-3.162,7.064-7.063,7.064c-3.902,0-7.064-3.164-7.064-7.064s3.162-7.061,7.064-7.061	C547.201,514.375,550.363,517.535,550.363,521.436"/><path fill="#B1D465" d="M519.721,521.436c0,5.834-4.727,10.555-10.553,10.555c-5.828,0-10.554-4.721-10.554-10.555	c0-5.826,4.726-10.547,10.554-10.547C514.994,510.889,519.721,515.609,519.721,521.436"/><path fill="#0B9D49" d="M516.23,521.436c0,3.9-3.162,7.064-7.063,7.064c-3.903,0-7.064-3.164-7.064-7.064s3.161-7.061,7.064-7.061	C513.068,514.375,516.23,517.535,516.23,521.436"/><path fill="#2887C8" d="M254.898,511.793c0,3.432-2.777,6.207-6.202,6.207c-3.424,0-6.204-2.775-6.204-6.207	c0-3.424,2.78-6.199,6.204-6.199C252.121,505.594,254.898,508.369,254.898,511.793 M248.697,524.211	c-3.424,0-6.204,2.775-6.204,6.201c0,3.424,2.78,6.207,6.204,6.207c3.424,0,6.202-2.783,6.202-6.207	C254.898,526.986,252.121,524.211,248.697,524.211"/><path fill="#2887C8" d="M280.757,511.793c0,3.432-2.778,6.207-6.202,6.207c-3.424,0-6.204-2.775-6.204-6.207	c0-3.424,2.779-6.199,6.204-6.199C277.979,505.594,280.757,508.369,280.757,511.793 M274.555,524.211	c-3.424,0-6.204,2.775-6.204,6.201c0,3.424,2.779,6.207,6.204,6.207c3.424,0,6.202-2.783,6.202-6.207	C280.757,526.986,277.979,524.211,274.555,524.211"/><path fill="#2887C8" d="M306.615,511.793c0,3.432-2.78,6.207-6.202,6.207c-3.424,0-6.204-2.775-6.204-6.207	c0-3.424,2.78-6.199,6.204-6.199C303.835,505.594,306.615,508.369,306.615,511.793 M300.413,524.211	c-3.424,0-6.204,2.775-6.204,6.201c0,3.424,2.78,6.207,6.204,6.207c3.422,0,6.202-2.783,6.202-6.207	C306.615,526.986,303.835,524.211,300.413,524.211"/><path fill="#2887C8" d="M332.473,511.793c0,3.432-2.78,6.207-6.202,6.207c-3.424,0-6.204-2.775-6.204-6.207	c0-3.424,2.779-6.199,6.204-6.199C329.693,505.594,332.473,508.369,332.473,511.793 M326.271,524.211	c-3.424,0-6.204,2.775-6.204,6.201c0,3.424,2.779,6.207,6.204,6.207c3.422,0,6.202-2.783,6.202-6.207	C332.473,526.986,329.693,524.211,326.271,524.211"/><path fill="#2887C8" d="M358.331,511.793c0,3.432-2.779,6.207-6.203,6.207c-3.424,0-6.202-2.775-6.202-6.207	c0-3.424,2.778-6.199,6.202-6.199C355.552,505.594,358.331,508.369,358.331,511.793 M352.128,524.211	c-3.424,0-6.202,2.775-6.202,6.201c0,3.424,2.778,6.207,6.202,6.207c3.424,0,6.203-2.783,6.203-6.207	C358.331,526.986,355.552,524.211,352.128,524.211"/><path fill="#2887C8" d="M384.188,511.793c0,3.432-2.777,6.207-6.202,6.207s-6.202-2.775-6.202-6.207	c0-3.424,2.777-6.199,6.202-6.199S384.188,508.369,384.188,511.793 M377.986,524.211c-3.424,0-6.202,2.775-6.202,6.201	c0,3.424,2.777,6.207,6.202,6.207s6.202-2.783,6.202-6.207C384.188,526.986,381.41,524.211,377.986,524.211"/><path fill="#2887C8" d="M410.046,511.793c0,3.432-2.778,6.207-6.202,6.207s-6.202-2.775-6.202-6.207	c0-3.424,2.778-6.199,6.202-6.199S410.046,508.369,410.046,511.793 M403.844,524.211c-3.424,0-6.202,2.775-6.202,6.201	c0,3.424,2.778,6.207,6.202,6.207s6.202-2.783,6.202-6.207C410.046,526.986,407.268,524.211,403.844,524.211"/><path fill="#FFF" d="M571.479,394.598v66.582c0,3.441-2.79,6.203-6.203,6.203H461.889c-0.064-3.377-2.795-6.111-6.204-6.111	H337.871c-3.408,0-6.138,2.734-6.202,6.111H228.281c-3.412,0-6.202-2.762-6.202-6.203v-66.582c0-3.409,2.79-6.196,6.202-6.196	h336.995C568.688,388.402,571.479,391.189,571.479,394.598"/><path fill="none" stroke="#2887C8" stroke-miterlimit="10" d="M571.479,394.598v66.582c0,3.441-2.79,6.203-6.203,6.203H461.889	c-0.064-3.377-2.795-6.111-6.204-6.111H337.871c-3.408,0-6.138,2.734-6.202,6.111H228.281c-3.412,0-6.202-2.762-6.202-6.203v-66.582	c0-3.409,2.79-6.196,6.202-6.196h336.995C568.688,388.402,571.479,391.189,571.479,394.598z"/><path fill="#B1D465" d="M553.854,424.785c0,5.834-4.727,10.555-10.553,10.555c-5.828,0-10.553-4.721-10.553-10.555	c0-5.826,4.725-10.547,10.553-10.547C549.127,414.238,553.854,418.959,553.854,424.785"/><path fill="#0B9D49" d="M550.363,424.785c0,3.9-3.162,7.068-7.063,7.068c-3.902,0-7.064-3.168-7.064-7.068s3.162-7.061,7.064-7.061	C547.201,417.725,550.363,420.885,550.363,424.785"/><path fill="#B1D465" d="M519.721,424.785c0,5.834-4.727,10.555-10.553,10.555c-5.828,0-10.554-4.721-10.554-10.555	c0-5.826,4.726-10.547,10.554-10.547C514.994,414.238,519.721,418.959,519.721,424.785"/><path fill="#0B9D49" d="M516.23,424.785c0,3.9-3.162,7.068-7.063,7.068c-3.903,0-7.064-3.168-7.064-7.068s3.161-7.061,7.064-7.061	C513.068,417.725,516.23,420.885,516.23,424.785"/><path fill="#2887C8" d="M254.898,415.143c0,3.432-2.777,6.207-6.202,6.207c-3.424,0-6.204-2.775-6.204-6.207	c0-3.424,2.78-6.199,6.204-6.199C252.121,408.943,254.898,411.719,254.898,415.143 M248.697,427.561	c-3.424,0-6.204,2.775-6.204,6.201c0,3.424,2.78,6.207,6.204,6.207c3.424,0,6.202-2.783,6.202-6.207	C254.898,430.336,252.121,427.561,248.697,427.561"/><path fill="#2887C8" d="M280.757,415.143c0,3.432-2.778,6.207-6.202,6.207c-3.424,0-6.204-2.775-6.204-6.207	c0-3.424,2.779-6.199,6.204-6.199C277.979,408.943,280.757,411.719,280.757,415.143 M274.555,427.561	c-3.424,0-6.204,2.775-6.204,6.201c0,3.424,2.779,6.207,6.204,6.207c3.424,0,6.202-2.783,6.202-6.207	C280.757,430.336,277.979,427.561,274.555,427.561"/><path fill="#2887C8" d="M306.615,415.143c0,3.432-2.78,6.207-6.202,6.207c-3.424,0-6.204-2.775-6.204-6.207	c0-3.424,2.78-6.199,6.204-6.199C303.835,408.943,306.615,411.719,306.615,415.143 M300.413,427.561	c-3.424,0-6.204,2.775-6.204,6.201c0,3.424,2.78,6.207,6.204,6.207c3.422,0,6.202-2.783,6.202-6.207	C306.615,430.336,303.835,427.561,300.413,427.561"/><path fill="#2887C8" d="M332.473,415.143c0,3.432-2.78,6.207-6.202,6.207c-3.424,0-6.204-2.775-6.204-6.207	c0-3.424,2.779-6.199,6.204-6.199C329.693,408.943,332.473,411.719,332.473,415.143 M326.271,427.561	c-3.424,0-6.204,2.775-6.204,6.201c0,3.424,2.779,6.207,6.204,6.207c3.422,0,6.202-2.783,6.202-6.207	C332.473,430.336,329.693,427.561,326.271,427.561"/><path fill="#2887C8" d="M358.331,415.143c0,3.432-2.779,6.207-6.203,6.207c-3.424,0-6.202-2.775-6.202-6.207	c0-3.424,2.778-6.199,6.202-6.199C355.552,408.943,358.331,411.719,358.331,415.143 M352.128,427.561	c-3.424,0-6.202,2.775-6.202,6.201c0,3.424,2.778,6.207,6.202,6.207c3.424,0,6.203-2.783,6.203-6.207	C358.331,430.336,355.552,427.561,352.128,427.561"/><path fill="#2887C8" d="M384.188,415.143c0,3.432-2.777,6.207-6.202,6.207s-6.202-2.775-6.202-6.207	c0-3.424,2.777-6.199,6.202-6.199S384.188,411.719,384.188,415.143 M377.986,427.561c-3.424,0-6.202,2.775-6.202,6.201	c0,3.424,2.777,6.207,6.202,6.207s6.202-2.783,6.202-6.207C384.188,430.336,381.41,427.561,377.986,427.561"/><path fill="#2887C8" d="M410.046,415.143c0,3.432-2.778,6.207-6.202,6.207s-6.202-2.775-6.202-6.207	c0-3.424,2.778-6.199,6.202-6.199S410.046,411.719,410.046,415.143 M403.844,427.561c-3.424,0-6.202,2.775-6.202,6.201	c0,3.424,2.778,6.207,6.202,6.207s6.202-2.783,6.202-6.207C410.046,430.336,407.268,427.561,403.844,427.561"/><path fill="#FFF" d="M566.163,370.732H227.393c-2.934,0-5.313-2.38-5.313-5.317v-59.758c0-2.937,2.38-5.315,5.313-5.315h338.771	c2.938,0,5.313,2.378,5.313,5.315v59.758C571.477,368.352,569.101,370.732,566.163,370.732"/><path fill="none" stroke="#2887C8" stroke-miterlimit="10" d="M566.163,370.732H227.393c-2.934,0-5.313-2.38-5.313-5.317v-59.758	c0-2.937,2.38-5.315,5.313-5.315h338.771c2.938,0,5.313,2.378,5.313,5.315v59.758C571.477,368.352,569.101,370.732,566.163,370.732z"/><path fill="#FFF" d="M566.163,282.573H227.393c-2.934,0-5.313-2.379-5.313-5.314v-65.75c0-2.932,2.38-5.313,5.313-5.313h338.771	c2.938,0,5.313,2.382,5.313,5.313v65.75C571.477,280.194,569.101,282.573,566.163,282.573"/><path fill="none" stroke="#2887C8" stroke-miterlimit="10" d="M566.163,282.573H227.393c-2.934,0-5.313-2.379-5.313-5.314v-65.75	c0-2.932,2.38-5.313,5.313-5.313h338.771c2.938,0,5.313,2.382,5.313,5.313v65.75C571.477,280.194,569.101,282.573,566.163,282.573z"/><path fill="#E4F0CC" d="M334.403,355.71h-85.956c-1.964,0-3.569-1.607-3.569-3.569v-31.943c0-1.964,1.604-3.574,3.569-3.574h85.956	c1.964,0,3.572,1.61,3.572,3.574v31.943C337.976,354.103,336.368,355.71,334.403,355.71"/><path fill="#2887C8" d="M331.723,357.276h-80.59c-4.311,0-7.815-3.51-7.815-7.818v-26.576c0-4.309,3.504-7.815,7.815-7.815h80.59	c4.308,0,7.814,3.506,7.814,7.815v26.576C339.537,353.766,336.031,357.276,331.723,357.276 M251.132,318.188	c-2.589,0-4.691,2.109-4.691,4.693v26.576c0,2.583,2.102,4.691,4.691,4.691h80.59c2.583,0,4.688-2.107,4.688-4.691v-26.576	c0-2.583-2.104-4.693-4.688-4.693H251.132z"/><path fill="#0B9D49" d="M260.073,346.826h-2.942c-1.077,0-1.958-0.881-1.958-1.958v-2.946c0-1.076,0.881-1.957,1.958-1.957h2.942	c1.077,0,1.961,0.881,1.961,1.957v2.946C262.034,345.945,261.15,346.826,260.073,346.826"/><path fill="#0B9D49" d="M277.234,346.826h-2.944c-1.077,0-1.958-0.881-1.958-1.958V327.47c0-1.077,0.881-1.961,1.958-1.961h2.944	c1.075,0,1.961,0.884,1.961,1.961v17.398C279.195,345.945,278.309,346.826,277.234,346.826"/><path fill="#0B9D49" d="M294.393,346.826h-2.944c-1.077,0-1.957-0.881-1.957-1.958v-7.117c0-1.077,0.88-1.958,1.957-1.958h2.944	c1.077,0,1.961,0.881,1.961,1.958v7.117C296.354,345.945,295.469,346.826,294.393,346.826"/><path fill="#0B9D49" d="M328.71,346.826h-2.944c-1.075,0-1.956-0.881-1.956-1.958V327.47c0-1.077,0.881-1.961,1.956-1.961h2.944	c1.077,0,1.961,0.884,1.961,1.961v17.398C330.671,345.945,329.787,346.826,328.71,346.826"/><path fill="#0B9D49" d="M311.552,346.826h-2.944c-1.075,0-1.958-0.881-1.958-1.958V327.47c0-1.077,0.882-1.961,1.958-1.961h2.944	c1.076,0,1.961,0.884,1.961,1.961v17.398C313.513,345.945,312.628,346.826,311.552,346.826"/><path fill="#B1D465" d="M410.291,336.169c0,5.828-4.725,10.551-10.552,10.551c-5.827,0-10.552-4.723-10.552-10.551	c0-5.83,4.726-10.552,10.552-10.552C405.566,325.617,410.291,330.339,410.291,336.169"/><path fill="#0B9D49" d="M406.801,336.169c0,3.9-3.16,7.063-7.06,7.063c-3.904,0-7.066-3.162-7.066-7.063s3.162-7.064,7.066-7.064	C403.641,329.105,406.801,332.269,406.801,336.169"/><path fill="#B1D465" d="M376.158,336.169c0,5.828-4.724,10.551-10.552,10.551c-5.826,0-10.552-4.723-10.552-10.551	c0-5.83,4.726-10.552,10.552-10.552C371.435,325.617,376.158,330.339,376.158,336.169"/><path fill="#0B9D49" d="M372.668,336.169c0,3.9-3.161,7.063-7.061,7.063c-3.904,0-7.066-3.162-7.066-7.063s3.162-7.064,7.066-7.064	C369.508,329.105,372.668,332.269,372.668,336.169"/><path fill="#2887C8" d="M494.633,349.141h-4.705c-0.594,0-1.077-0.487-1.077-1.079v-25.054c0-0.593,0.483-1.077,1.077-1.077h4.705	c0.592,0,1.081,0.483,1.081,1.077v25.054C495.714,348.654,495.225,349.141,494.633,349.141"/><rect width="6.863" height="76.375" x="428.895" y="206.198" fill="#2887C8"/><path fill="#2887C8" d="M520.357,349.141h-4.705c-0.594,0-1.077-0.487-1.077-1.079v-25.054c0-0.593,0.483-1.077,1.077-1.077h4.705	c0.592,0,1.077,0.483,1.077,1.077v25.054C521.435,348.654,520.949,349.141,520.357,349.141"/><path fill="#2887C8" d="M546.082,349.141h-4.706c-0.593,0-1.076-0.487-1.076-1.079v-25.054c0-0.593,0.483-1.077,1.076-1.077h4.706	c0.594,0,1.08,0.483,1.08,1.077v25.054C547.162,348.654,546.676,349.141,546.082,349.141"/><path fill="#2887C8" d="M466.558,223.279c-5.378,0-9.754,4.38-9.754,9.754v22.701c0,5.383,4.376,9.76,9.754,9.76	c5.382,0,9.758-4.376,9.758-9.76v-22.701C476.315,227.659,471.939,223.279,466.558,223.279 M473.188,255.735	c0,3.66-2.97,6.63-6.63,6.63c-3.656,0-6.627-2.97-6.627-6.63v-22.701c0-3.657,2.971-6.627,6.627-6.627c3.66,0,6.63,2.97,6.63,6.627	V255.735z"/><path fill="#B6DDF5" d="M473.188,232.407v9.567c-0.25,0.344-0.532,0.687-0.844,1.001c-1.5,1.5-3.532,2.051-5.786,2.051	c-2.719,0-5.125-0.985-6.627-3.052v-9.567c0.249-0.344,0.529-0.688,0.845-1.003c1.499-1.498,3.532-2.404,5.782-2.404	c2.254,0,4.286,0.906,5.786,2.404C472.655,231.719,472.938,232.063,473.188,232.407"/><path fill="#FFF" d="M470.075,241.237h-7.031c-2.576,0-4.684-2.106-4.684-4.682v-7.031c0-2.58,2.107-4.684,4.684-4.684h7.031	c2.576,0,4.684,2.104,4.684,4.684v7.031C474.759,239.131,472.651,241.237,470.075,241.237"/><path fill="#2887C8" d="M466.56,242.802c-5.386,0-9.762-4.382-9.762-9.762c0-5.385,4.376-9.765,9.762-9.765	c5.385,0,9.765,4.38,9.765,9.765C476.324,238.42,471.944,242.802,466.56,242.802 M466.56,226.403c-3.66,0-6.634,2.977-6.634,6.637	c0,3.655,2.974,6.632,6.634,6.632s6.638-2.977,6.638-6.632C473.197,229.38,470.22,226.403,466.56,226.403"/><path fill="#2887C8" d="M538.222,223.279c-5.378,0-9.754,4.38-9.754,9.754v22.701c0,5.383,4.376,9.76,9.754,9.76	c5.381,0,9.758-4.376,9.758-9.76v-22.701C547.979,227.659,543.603,223.279,538.222,223.279 M544.852,255.735	c0,3.66-2.97,6.63-6.63,6.63c-3.657,0-6.627-2.97-6.627-6.63v-22.701c0-3.657,2.97-6.627,6.627-6.627c3.66,0,6.63,2.97,6.63,6.627	V255.735z"/><path fill="#B6DDF5" d="M544.852,232.407v9.567c-0.253,0.344-0.533,0.687-0.844,1.001c-1.5,1.5-3.532,2.051-5.786,2.051	c-2.72,0-5.127-0.985-6.627-3.052v-9.567c0.247-0.344,0.529-0.688,0.845-1.003c1.499-1.498,3.531-2.404,5.782-2.404	c2.254,0,4.286,0.906,5.786,2.404C544.318,231.719,544.599,232.063,544.852,232.407"/><path fill="#FFF" d="M541.739,241.237h-7.031c-2.577,0-4.685-2.106-4.685-4.682v-7.031c0-2.58,2.107-4.684,4.685-4.684h7.031	c2.576,0,4.684,2.104,4.684,4.684v7.031C546.423,239.131,544.315,241.237,541.739,241.237"/><path fill="#2887C8" d="M538.222,242.802c-5.386,0-9.762-4.382-9.762-9.762c0-5.385,4.376-9.765,9.762-9.765	c5.385,0,9.765,4.38,9.765,9.765C547.986,238.42,543.606,242.802,538.222,242.802 M538.222,226.403	c-3.657,0-6.634,2.977-6.634,6.637c0,3.655,2.977,6.632,6.634,6.632c3.66,0,6.638-2.977,6.638-6.632	C544.859,229.38,541.882,226.403,538.222,226.403"/><path fill="#2887C8" d="M513.171,255.731V233.03c0-5.374-4.376-9.754-9.758-9.754c-5.378,0-9.754,4.38-9.754,9.754v22.701	c0,5.378,4.376,9.758,9.754,9.758C508.795,265.489,513.171,261.109,513.171,255.731 M510.043,255.731c0,3.661-2.97,6.63-6.63,6.63	c-3.656,0-6.627-2.97-6.627-6.63V233.03c0-3.657,2.971-6.626,6.627-6.626c3.66,0,6.63,2.97,6.63,6.626V255.731z"/><path fill="#B6DDF5" d="M510.043,256.361v-9.569c-0.25-0.344-0.532-0.687-0.844-0.998c-1.5-1.503-3.532-2.054-5.786-2.054	c-2.719,0-5.125,0.987-6.627,3.052v9.569c0.249,0.346,0.529,0.69,0.845,1.002c1.499,1.501,3.532,2.404,5.782,2.404	c2.254,0,4.286-0.903,5.786-2.404C509.511,257.051,509.793,256.707,510.043,256.361"/><path fill="#FFF" d="M506.931,247.532h-7.031c-2.576,0-4.684,2.109-4.684,4.68v7.031c0,2.582,2.107,4.684,4.684,4.684h7.031	c2.576,0,4.684-2.103,4.684-4.684v-7.031C511.614,249.641,509.507,247.532,506.931,247.532"/><path fill="#2887C8" d="M513.178,255.729c0,5.385-4.38,9.765-9.763,9.765c-5.382,0-9.764-4.38-9.764-9.765s4.382-9.761,9.764-9.761	C508.798,245.968,513.178,250.344,513.178,255.729 M510.051,255.729c0-3.661-2.978-6.638-6.636-6.638	c-3.657,0-6.634,2.977-6.634,6.638c0,3.66,2.977,6.637,6.634,6.637C507.073,262.367,510.051,259.39,510.051,255.729"/><path fill="#2887C8" d="M255.869,235.073c0,3.431-2.779,6.206-6.204,6.206c-3.422,0-6.202-2.774-6.202-6.206	c0-3.424,2.779-6.2,6.202-6.2C253.09,228.874,255.869,231.649,255.869,235.073 M249.666,247.488c-3.422,0-6.202,2.779-6.202,6.204	s2.779,6.206,6.202,6.206c3.424,0,6.204-2.781,6.204-6.206S253.09,247.488,249.666,247.488"/><path fill="#2887C8" d="M281.726,235.073c0,3.431-2.778,6.206-6.202,6.206c-3.424,0-6.202-2.774-6.202-6.206	c0-3.424,2.778-6.2,6.202-6.2C278.948,228.874,281.726,231.649,281.726,235.073 M275.523,247.488c-3.424,0-6.202,2.779-6.202,6.204	s2.778,6.206,6.202,6.206c3.424,0,6.202-2.781,6.202-6.206S278.948,247.488,275.523,247.488"/><path fill="#2887C8" d="M307.583,235.073c0,3.431-2.778,6.206-6.202,6.206s-6.202-2.774-6.202-6.206c0-3.424,2.778-6.2,6.202-6.2	S307.583,231.649,307.583,235.073 M301.382,247.488c-3.424,0-6.202,2.779-6.202,6.204s2.778,6.206,6.202,6.206	s6.202-2.781,6.202-6.206S304.806,247.488,301.382,247.488"/><path fill="#2887C8" d="M333.442,235.073c0,3.431-2.78,6.206-6.202,6.206c-3.424,0-6.204-2.774-6.204-6.206	c0-3.424,2.78-6.2,6.204-6.2C330.662,228.874,333.442,231.649,333.442,235.073 M327.24,247.488c-3.424,0-6.204,2.779-6.204,6.204	s2.78,6.206,6.204,6.206c3.422,0,6.202-2.781,6.202-6.206S330.662,247.488,327.24,247.488"/><path fill="#2887C8" d="M359.3,235.073c0,3.431-2.777,6.206-6.202,6.206s-6.204-2.774-6.204-6.206c0-3.424,2.779-6.2,6.204-6.2	S359.3,231.649,359.3,235.073 M353.098,247.488c-3.424,0-6.204,2.779-6.204,6.204s2.779,6.206,6.204,6.206s6.202-2.781,6.202-6.206	S356.522,247.488,353.098,247.488"/><path fill="#2887C8" d="M385.158,235.073c0,3.431-2.78,6.206-6.204,6.206c-3.424,0-6.202-2.774-6.202-6.206	c0-3.424,2.777-6.2,6.202-6.2C382.378,228.874,385.158,231.649,385.158,235.073 M378.955,247.488c-3.424,0-6.202,2.779-6.202,6.204	s2.777,6.206,6.202,6.206c3.424,0,6.204-2.781,6.204-6.206S382.378,247.488,378.955,247.488"/><path fill="#2887C8" d="M411.016,235.073c0,3.431-2.779,6.206-6.203,6.206s-6.202-2.774-6.202-6.206c0-3.424,2.778-6.2,6.202-6.2	S411.016,231.649,411.016,235.073 M404.813,247.488c-3.424,0-6.202,2.779-6.202,6.204s2.778,6.206,6.202,6.206	s6.203-2.781,6.203-6.206S408.236,247.488,404.813,247.488"/><path fill="#FFF" d="M566.163,188.528H227.393c-2.934,0-5.313-2.38-5.313-5.313v-62.23c0-2.937,2.38-5.313,5.313-5.313h338.771	c2.938,0,5.313,2.376,5.313,5.313v62.23C571.477,186.147,569.101,188.528,566.163,188.528"/><path fill="none" stroke="#2887C8" stroke-miterlimit="10" d="M566.163,188.528H227.393c-2.934,0-5.313-2.38-5.313-5.313v-62.23	c0-2.937,2.38-5.313,5.313-5.313h338.771c2.938,0,5.313,2.376,5.313,5.313v62.23C571.477,186.147,569.101,188.528,566.163,188.528z"/><path fill="#FFF" d="M566.163,97.858H227.393c-2.934,0-5.313-2.381-5.313-5.314v-62.23c0-2.938,2.38-5.314,5.313-5.314h338.771	c2.938,0,5.313,2.376,5.313,5.314v62.23C571.477,95.477,569.101,97.858,566.163,97.858"/><path fill="none" stroke="#2887C8" stroke-miterlimit="10" d="M566.163,97.858H227.393c-2.934,0-5.313-2.381-5.313-5.314v-62.23	c0-2.938,2.38-5.314,5.313-5.314h338.771c2.938,0,5.313,2.376,5.313,5.314v62.23C571.477,95.477,569.101,97.858,566.163,97.858z"/><rect width="6.863" height="72.86" x="428.895" y="115.672" fill="#2887C8"/><path fill="#2887C8" d="M255.869,142.788c0,3.431-2.779,6.206-6.204,6.206c-3.422,0-6.202-2.774-6.202-6.206	c0-3.424,2.779-6.2,6.202-6.2C253.09,136.588,255.869,139.364,255.869,142.788 M249.666,155.207c-3.422,0-6.202,2.775-6.202,6.2	c0,3.428,2.779,6.206,6.202,6.206c3.424,0,6.204-2.778,6.204-6.206C255.869,157.982,253.09,155.207,249.666,155.207"/><path fill="#2887C8" d="M281.726,142.788c0,3.431-2.778,6.206-6.202,6.206c-3.424,0-6.202-2.774-6.202-6.206	c0-3.424,2.778-6.2,6.202-6.2C278.948,136.588,281.726,139.364,281.726,142.788 M275.523,155.207c-3.424,0-6.202,2.775-6.202,6.2	c0,3.428,2.778,6.206,6.202,6.206c3.424,0,6.202-2.778,6.202-6.206C281.726,157.982,278.948,155.207,275.523,155.207"/><path fill="#2887C8" d="M307.583,142.788c0,3.431-2.778,6.206-6.202,6.206s-6.202-2.774-6.202-6.206c0-3.424,2.778-6.2,6.202-6.2	S307.583,139.364,307.583,142.788 M301.382,155.207c-3.424,0-6.202,2.775-6.202,6.2c0,3.428,2.778,6.206,6.202,6.206	s6.202-2.778,6.202-6.206C307.583,157.982,304.806,155.207,301.382,155.207"/><path fill="#2887C8" d="M333.442,142.788c0,3.431-2.78,6.206-6.202,6.206c-3.424,0-6.204-2.774-6.204-6.206	c0-3.424,2.78-6.2,6.204-6.2C330.662,136.588,333.442,139.364,333.442,142.788 M327.24,155.207c-3.424,0-6.204,2.775-6.204,6.2	c0,3.428,2.78,6.206,6.204,6.206c3.422,0,6.202-2.778,6.202-6.206C333.442,157.982,330.662,155.207,327.24,155.207"/><path fill="#2887C8" d="M359.3,142.788c0,3.431-2.777,6.206-6.202,6.206s-6.204-2.774-6.204-6.206c0-3.424,2.779-6.2,6.204-6.2	S359.3,139.364,359.3,142.788 M353.098,155.207c-3.424,0-6.204,2.775-6.204,6.2c0,3.428,2.779,6.206,6.204,6.206	s6.202-2.778,6.202-6.206C359.3,157.982,356.522,155.207,353.098,155.207"/><path fill="#2887C8" d="M385.158,142.788c0,3.431-2.78,6.206-6.204,6.206c-3.424,0-6.202-2.774-6.202-6.206	c0-3.424,2.777-6.2,6.202-6.2C382.378,136.588,385.158,139.364,385.158,142.788 M378.955,155.207c-3.424,0-6.202,2.775-6.202,6.2	c0,3.428,2.777,6.206,6.202,6.206c3.424,0,6.204-2.778,6.204-6.206C385.158,157.982,382.378,155.207,378.955,155.207"/><path fill="#2887C8" d="M411.016,142.788c0,3.431-2.779,6.206-6.203,6.206s-6.202-2.774-6.202-6.206c0-3.424,2.778-6.2,6.202-6.2	S411.016,139.364,411.016,142.788 M404.813,155.207c-3.424,0-6.202,2.775-6.202,6.2c0,3.428,2.778,6.206,6.202,6.206	s6.203-2.778,6.203-6.206C411.016,157.982,408.236,155.207,404.813,155.207"/><path fill="#E4F0CC" d="M545.387,171.642h-85.954c-1.963,0-3.57-1.608-3.57-3.573v-31.943c0-1.961,1.607-3.57,3.57-3.57h85.954	c1.965,0,3.572,1.609,3.572,3.57v31.943C548.959,170.034,547.352,171.642,545.387,171.642"/><path fill="#2887C8" d="M542.707,173.204h-80.592c-4.309,0-7.814-3.506-7.814-7.815v-26.576c0-4.309,3.506-7.819,7.814-7.819h80.592	c4.309,0,7.815,3.51,7.815,7.819v26.576C550.522,169.697,547.016,173.204,542.707,173.204 M462.115,134.122	c-2.587,0-4.691,2.104-4.691,4.691v26.576c0,2.583,2.104,4.688,4.691,4.688h80.592c2.584,0,4.688-2.104,4.688-4.688v-26.576	c0-2.587-2.104-4.691-4.688-4.691H462.115z"/><path fill="#0B9D49" d="M471.057,162.757h-2.942c-1.077,0-1.958-0.88-1.958-1.959v-2.944c0-1.077,0.881-1.958,1.958-1.958h2.942	c1.076,0,1.963,0.881,1.963,1.958v2.944C473.02,161.877,472.133,162.757,471.057,162.757"/><path fill="#0B9D49" d="M488.217,162.757h-2.944c-1.076,0-1.957-0.88-1.957-1.959v-17.397c0-1.077,0.881-1.961,1.957-1.961h2.944	c1.077,0,1.961,0.884,1.961,1.961v17.397C490.178,161.877,489.294,162.757,488.217,162.757"/><path fill="#0B9D49" d="M505.376,162.757h-2.944c-1.075,0-1.957-0.88-1.957-1.959v-7.115c0-1.079,0.882-1.961,1.957-1.961h2.944	c1.077,0,1.961,0.883,1.961,1.961v7.115C507.337,161.877,506.453,162.757,505.376,162.757"/><path fill="#0B9D49" d="M539.695,162.757h-2.944c-1.076,0-1.957-0.88-1.957-1.959v-17.397c0-1.077,0.881-1.961,1.957-1.961h2.944	c1.075,0,1.959,0.884,1.959,1.961v17.397C541.654,161.877,540.771,162.757,539.695,162.757"/><path fill="#0B9D49" d="M522.535,162.757h-2.944c-1.075,0-1.956-0.88-1.956-1.959v-17.397c0-1.077,0.881-1.961,1.956-1.961h2.944	c1.076,0,1.961,0.884,1.961,1.961v17.397C524.496,161.877,523.611,162.757,522.535,162.757"/><path fill="#E4F0CC" d="M430.648,81.693H347.72c-1.964,0-3.57-1.607-3.57-3.568V44.739c0-1.97,1.606-3.578,3.57-3.578h82.928	c1.965,0,3.572,1.608,3.572,3.578v33.386C434.221,80.085,432.613,81.693,430.648,81.693"/><path fill="#2887C8" d="M428.17,83.317H350.2c-4.169,0-7.563-3.637-7.563-8.11V47.648c0-4.47,3.393-8.104,7.563-8.104h77.97	c4.171,0,7.563,3.635,7.563,8.104v27.559C435.733,79.681,432.341,83.317,428.17,83.317 M350.2,42.783	c-2.501,0-4.538,2.183-4.538,4.865v27.559c0,2.685,2.036,4.863,4.538,4.863h77.97c2.501,0,4.537-2.179,4.537-4.863V47.648	c0-2.683-2.036-4.865-4.537-4.865H350.2z"/><path fill="#0B9D49" d="M358.852,72.483h-2.846c-1.044,0-1.899-0.854-1.899-1.897v-3.325c0-1.043,0.855-1.893,1.899-1.893h2.846	c1.042,0,1.898,0.85,1.898,1.893v3.325C360.75,71.629,359.893,72.483,358.852,72.483"/><path fill="#0B9D49" d="M375.454,72.483h-2.846c-1.043,0-1.899-0.854-1.899-1.897V52.272c0-1.044,0.855-1.897,1.899-1.897h2.846	c1.042,0,1.897,0.854,1.897,1.897v18.314C377.351,71.629,376.495,72.483,375.454,72.483"/><path fill="#0B9D49" d="M392.054,72.483h-2.845c-1.042,0-1.897-0.854-1.897-1.897v-7.654c0-1.038,0.855-1.894,1.897-1.894h2.845	c1.044,0,1.899,0.855,1.899,1.894v7.654C393.953,71.629,393.098,72.483,392.054,72.483"/><path fill="#0B9D49" d="M425.258,72.483h-2.847c-1.042,0-1.897-0.854-1.897-1.897V52.272c0-1.044,0.855-1.897,1.897-1.897h2.847	c1.042,0,1.897,0.854,1.897,1.897v18.314C427.155,71.629,426.3,72.483,425.258,72.483"/><path fill="#0B9D49" d="M408.656,72.483h-2.846c-1.044,0-1.898-0.854-1.898-1.897V52.272c0-1.044,0.854-1.897,1.898-1.897h2.846	c1.041,0,1.898,0.854,1.898,1.897v18.314C410.555,71.629,409.697,72.483,408.656,72.483"/><path fill="#2887C8" d="M547.691,54.85h-97.192c-0.697,0-1.267-0.563-1.267-1.264v-4.135c0-0.703,0.569-1.269,1.267-1.269h97.192	c0.701,0,1.268,0.565,1.268,1.269v4.135C548.959,54.288,548.393,54.85,547.691,54.85"/><path fill="#2887C8" d="M472.706,64.583H450c-0.352,0-0.642-0.287-0.642-0.641v-4.109c0-0.354,0.29-0.637,0.642-0.637h22.706	c0.354,0,0.642,0.284,0.642,0.637v4.109C473.348,64.296,473.06,64.583,472.706,64.583"/><path fill="#2887C8" d="M472.706,74.676H450c-0.352,0-0.642-0.287-0.642-0.641v-4.109c0-0.354,0.29-0.637,0.642-0.637h22.706	c0.354,0,0.642,0.284,0.642,0.637v4.109C473.348,74.389,473.06,74.676,472.706,74.676"/><path fill="#2887C8" d="M548.087,64.583H525.38c-0.352,0-0.641-0.287-0.641-0.641v-4.109c0-0.354,0.289-0.637,0.641-0.637h22.707	c0.352,0,0.642,0.284,0.642,0.637v4.109C548.729,64.296,548.438,64.583,548.087,64.583"/><path fill="#2887C8" d="M548.087,74.676H525.38c-0.352,0-0.641-0.287-0.641-0.641v-4.109c0-0.354,0.289-0.637,0.641-0.637h22.707	c0.352,0,0.642,0.284,0.642,0.637v4.109C548.729,74.389,548.438,74.676,548.087,74.676"/><path fill="#2887C8" d="M510.45,64.583h-22.707c-0.354,0-0.642-0.287-0.642-0.641v-4.109c0-0.354,0.288-0.637,0.642-0.637h22.707	c0.352,0,0.641,0.284,0.641,0.637v4.109C511.091,64.296,510.802,64.583,510.45,64.583"/><path fill="#2887C8" d="M510.45,74.676h-22.707c-0.354,0-0.642-0.287-0.642-0.641v-4.109c0-0.354,0.288-0.637,0.642-0.637h22.707	c0.352,0,0.641,0.284,0.641,0.637v4.109C511.091,74.389,510.802,74.676,510.45,74.676"/><path fill="#2887C8" d="M247.58,39.936c-5.378,0-9.754,4.376-9.754,9.754v22.701c0,5.378,4.376,9.76,9.754,9.76	c5.381,0,9.758-4.382,9.758-9.76V49.69C257.338,44.312,252.961,39.936,247.58,39.936 M254.21,72.391c0,3.661-2.97,6.63-6.63,6.63	c-3.657,0-6.627-2.97-6.627-6.63V49.69c0-3.657,2.97-6.626,6.627-6.626c3.66,0,6.63,2.97,6.63,6.626V72.391z"/><path fill="#B6DDF5" d="M254.21,49.06v9.571c-0.25,0.344-0.533,0.687-0.844,0.998c-1.5,1.503-3.532,2.051-5.786,2.051	c-2.719,0-5.125-0.987-6.627-3.049V49.06c0.248-0.344,0.529-0.688,0.844-1c1.5-1.501,3.532-2.408,5.783-2.408	c2.254,0,4.286,0.907,5.786,2.408C253.677,48.372,253.959,48.716,254.21,49.06"/><path fill="#FFF" d="M251.098,57.889h-7.031c-2.577,0-4.684-2.105-4.684-4.682v-7.031c0-2.576,2.107-4.684,4.684-4.684h7.031	c2.576,0,4.684,2.108,4.684,4.684v7.031C255.781,55.784,253.674,57.889,251.098,57.889"/><path fill="#2887C8" d="M247.582,59.453c-5.385,0-9.762-4.38-9.762-9.761c0-5.385,4.376-9.762,9.762-9.762	c5.385,0,9.765,4.376,9.765,9.762C257.347,55.073,252.967,59.453,247.582,59.453 M247.582,43.058c-3.657,0-6.634,2.977-6.634,6.634	c0,3.656,2.978,6.634,6.634,6.634c3.66,0,6.637-2.978,6.637-6.634C254.219,46.035,251.242,43.058,247.582,43.058"/><path fill="#2887C8" d="M319.244,39.936c-5.377,0-9.754,4.376-9.754,9.754v22.701c0,5.378,4.376,9.76,9.754,9.76	c5.381,0,9.758-4.382,9.758-9.76V49.69C329.001,44.312,324.625,39.936,319.244,39.936 M325.874,72.391c0,3.661-2.97,6.63-6.63,6.63	c-3.657,0-6.626-2.97-6.626-6.63V49.69c0-3.657,2.97-6.626,6.626-6.626c3.661,0,6.63,2.97,6.63,6.626V72.391z"/><path fill="#B6DDF5" d="M325.874,49.06v9.571c-0.251,0.344-0.533,0.687-0.844,0.998c-1.5,1.503-3.532,2.051-5.786,2.051	c-2.719,0-5.127-0.987-6.626-3.049V49.06c0.247-0.344,0.529-0.688,0.844-1c1.5-1.501,3.532-2.408,5.782-2.408	c2.254,0,4.287,0.907,5.786,2.408C325.341,48.372,325.623,48.716,325.874,49.06"/><path fill="#FFF" d="M322.761,57.889h-7.031c-2.576,0-4.684-2.105-4.684-4.682v-7.031c0-2.576,2.108-4.684,4.684-4.684h7.031	c2.576,0,4.684,2.108,4.684,4.684v7.031C327.445,55.784,325.337,57.889,322.761,57.889"/><path fill="#2887C8" d="M319.244,59.453c-5.383,0-9.759-4.38-9.759-9.761c0-5.385,4.376-9.762,9.759-9.762	c5.385,0,9.765,4.376,9.765,9.762C329.009,55.073,324.629,59.453,319.244,59.453 M319.244,43.058c-3.658,0-6.632,2.977-6.632,6.634	c0,3.656,2.974,6.634,6.632,6.634c3.661,0,6.638-2.978,6.638-6.634C325.881,46.035,322.904,43.058,319.244,43.058"/><path fill="#2887C8" d="M294.193,72.386v-22.7c0-5.377-4.376-9.754-9.758-9.754c-5.376,0-9.752,4.376-9.752,9.754v22.7	c0,5.381,4.376,9.758,9.752,9.758C289.817,82.144,294.193,77.767,294.193,72.386 M291.065,72.386c0,3.661-2.97,6.634-6.63,6.634	c-3.655,0-6.625-2.974-6.625-6.634v-22.7c0-3.656,2.97-6.626,6.625-6.626c3.66,0,6.63,2.97,6.63,6.626V72.386z"/><path fill="#B6DDF5" d="M291.065,73.014v-9.569c-0.25-0.341-0.533-0.683-0.844-0.998c-1.5-1.503-3.532-2.051-5.786-2.051	c-2.717,0-5.125,0.987-6.625,3.049v9.569c0.247,0.346,0.527,0.69,0.842,1.001c1.501,1.501,3.534,2.408,5.783,2.408	c2.254,0,4.286-0.906,5.786-2.408C290.533,73.704,290.815,73.36,291.065,73.014"/><path fill="#FFF" d="M287.953,64.185h-7.031c-2.577,0-4.684,2.107-4.684,4.684V75.9c0,2.576,2.107,4.684,4.684,4.684h7.031	c2.576,0,4.684-2.107,4.684-4.684v-7.031C292.637,66.292,290.529,64.185,287.953,64.185"/><path fill="#2887C8" d="M294.202,72.386c0,5.385-4.382,9.765-9.767,9.765c-5.38,0-9.76-4.38-9.76-9.765s4.38-9.765,9.76-9.765	C289.82,62.621,294.202,67,294.202,72.386 M291.075,72.386c0-3.66-2.979-6.637-6.639-6.637c-3.655,0-6.632,2.977-6.632,6.637	c0,3.661,2.978,6.638,6.632,6.638C288.096,79.023,291.075,76.046,291.075,72.386"/><line x1="174.184" x2="619.372" y1="775.002" y2="775.002" fill="none" stroke="#2887C8" stroke-linecap="round" stroke-linejoin="round" stroke-miterlimit="10"/><line x1="646.556" x2="668.814" y1="775.002" y2="775.002" fill="none" stroke="#2887C8" stroke-linecap="round" stroke-linejoin="round" stroke-miterlimit="10"/><line x1="693.094" x2="695.592" y1="775.002" y2="775.002" fill="none" stroke="#2887C8" stroke-linecap="round" stroke-linejoin="round" stroke-miterlimit="10"/><line x1="147" x2="124.74" y1="775.002" y2="775.002" fill="none" stroke="#2887C8" stroke-linecap="round" stroke-linejoin="round" stroke-miterlimit="10"/><line x1="97.358" x2="94.864" y1="775.002" y2="775.002" fill="none" stroke="#2887C8" stroke-linecap="round" stroke-linejoin="round" stroke-miterlimit="10"/></svg>