<svg xmlns="http://www.w3.org/2000/svg" id="Layer_1" width="800" height="800" x="0" y="0" enable-background="new 0 0 800 800" version="1.0" viewBox="0 0 800 800" xml:space="preserve"><path fill="#B6DDF5" d="M178.652,730.037h-13.408c-22.919,0-41.495-18.58-41.495-41.488V473.121	c0-22.92,18.576-41.498,41.495-41.498h13.408c22.912,0,41.488,18.578,41.488,41.498v215.428	C220.141,711.457,201.564,730.037,178.652,730.037"/><path fill="none" stroke="#2887C8" stroke-linecap="round" stroke-linejoin="round" stroke-miterlimit="10" stroke-width="1.5" d="M178.652,730.037h-13.408c-22.919,0-41.495-18.58-41.495-41.488V473.121c0-22.92,18.576-41.498,41.495-41.498h13.408	c22.912,0,41.488,18.578,41.488,41.498v215.428C220.141,711.457,201.564,730.037,178.652,730.037z"/><path fill="#FFF" d="M742.178,268.267C763.092,289.177,776,318.014,776,349.944c0,31.927-12.908,60.765-33.822,81.681"/><path fill="none" stroke="#2887C8" stroke-linecap="round" stroke-linejoin="round" stroke-miterlimit="10" stroke-width="1.5" d="M742.178,268.267C763.092,289.177,776,318.014,776,349.944c0,31.927-12.908,60.765-33.822,81.681"/><path fill="none" stroke="#2887C8" stroke-linecap="round" stroke-linejoin="round" stroke-miterlimit="10" stroke-width="1.5" d="M728.783,349.944c0,18.853-7.686,35.89-20.041,48.249v0.073c-12.362,12.362-29.393,20.048-48.249,20.048	c-37.712,0-68.297-30.658-68.297-68.37c0-37.708,30.585-68.29,68.297-68.29c18.856,0,35.887,7.686,48.249,20.045	C721.098,314.058,728.783,331.088,728.783,349.944z"/><path fill="#E4F0CC" d="M36.257,421.245h48.702c5.661,0,10.25-4.589,10.25-10.251V289.17c0-5.661-4.589-10.25-10.25-10.25H36.257	c-5.662,0-10.257,4.589-10.257,10.25v121.824C26,416.656,30.596,421.245,36.257,421.245"/><path fill="none" stroke="#0B9D49" stroke-linecap="round" stroke-linejoin="round" stroke-miterlimit="10" stroke-width="1.5" d="M36.257,421.245h48.702c5.661,0,10.25-4.589,10.25-10.251V289.17c0-5.661-4.589-10.25-10.25-10.25H36.257	c-5.662,0-10.257,4.589-10.257,10.25v121.824C26,416.656,30.596,421.245,36.257,421.245z"/><path fill="none" stroke="#2887C8" stroke-linecap="round" stroke-linejoin="round" stroke-miterlimit="10" stroke-width="1.5" d="M555.523,83.833v532.542l-241.956-107.98c0,0-28.034-10.621-28.034-23.688V215.419c0-13.068,28.034-23.605,28.034-23.605	L555.523,83.833z"/><path fill="none" stroke="#2887C8" stroke-linecap="round" stroke-linejoin="round" stroke-miterlimit="10" stroke-width="1.5" d="M322.473,337.443v-64.551c0-26.592-1.192-40.033,28.047-51.519"/><line x1="322.473" x2="322.473" y1="381.941" y2="359.379" fill="none" stroke="#2887C8" stroke-linecap="round" stroke-linejoin="round" stroke-miterlimit="10" stroke-width="1.5"/><path fill="#B6DDF5" d="M660.493,73.134v553.938c0,13.066-14.5,29.389-28.04,23.688l-76.93-34.389V83.831l76.93-34.382	C647.105,42.875,660.493,60.059,660.493,73.134"/><path fill="none" stroke="#2887C8" stroke-linecap="round" stroke-linejoin="round" stroke-miterlimit="10" stroke-width="1.5" d="M660.493,73.134v553.938c0,13.066-14.5,29.389-28.04,23.688l-76.93-34.389V83.831l76.93-34.382	C647.105,42.875,660.493,60.059,660.493,73.134z"/><path fill="#FFF" d="M87.437,457.133l182.078,15.854c8.839,0,16.012-7.166,16.012-16.008V243.19	c0-8.845-7.173-16.009-16.012-16.009L87.437,243.033c-8.845,0-16.012,7.167-16.012,16.009v182.081	C71.425,449.962,78.591,457.133,87.437,457.133"/><path fill="none" stroke="#2887C8" stroke-linecap="round" stroke-linejoin="round" stroke-miterlimit="10" stroke-width="1.5" d="M87.437,457.133l182.078,15.854c8.839,0,16.012-7.166,16.012-16.008V243.19c0-8.845-7.173-16.009-16.012-16.009L87.437,243.033	c-8.845,0-16.012,7.167-16.012,16.009v182.081C71.425,449.962,78.591,457.133,87.437,457.133z"/><line x1="123.75" x2="161.481" y1="506.254" y2="506.254" fill="none" stroke="#2887C8" stroke-linecap="round" stroke-linejoin="round" stroke-miterlimit="10" stroke-width="1.5"/><line x1="123.75" x2="161.481" y1="543.18" y2="543.18" fill="none" stroke="#2887C8" stroke-linecap="round" stroke-linejoin="round" stroke-miterlimit="10" stroke-width="1.5"/><line x1="123.75" x2="161.481" y1="580.105" y2="580.105" fill="none" stroke="#2887C8" stroke-linecap="round" stroke-linejoin="round" stroke-miterlimit="10" stroke-width="1.5"/><line x1="123.75" x2="161.481" y1="617.031" y2="617.031" fill="none" stroke="#2887C8" stroke-linecap="round" stroke-linejoin="round" stroke-miterlimit="10" stroke-width="1.5"/><line x1="123.75" x2="161.481" y1="653.957" y2="653.957" fill="none" stroke="#2887C8" stroke-linecap="round" stroke-linejoin="round" stroke-miterlimit="10" stroke-width="1.5"/><path fill="#FFF" d="M711.833,573.725c0,86.33-69.982,156.309-156.31,156.309c-86.333,0-156.315-69.979-156.315-156.309	c0-86.328,69.982-156.309,156.315-156.309C641.851,417.416,711.833,487.396,711.833,573.725"/><path fill="none" stroke="#2887C8" stroke-miterlimit="10" stroke-width="1.142" d="M711.833,573.725	c0,86.33-69.982,156.309-156.31,156.309c-86.333,0-156.315-69.979-156.315-156.309c0-86.328,69.982-156.309,156.315-156.309	C641.851,417.416,711.833,487.396,711.833,573.725z"/><path fill="#E4F0CC" d="M675.007,573.725c0,65.984-53.49,119.482-119.489,119.482c-65.986,0-119.477-53.498-119.477-119.482	c0-65.99,53.49-119.486,119.477-119.486C621.517,454.238,675.007,507.734,675.007,573.725"/><path fill="#0B9D49" d="M616.787,611.07c0,2.744-0.959,5.088-2.884,7.014l-14.027,14.014c-1.925,1.932-4.263,2.893-7.014,2.893	c-2.757,0-5.095-0.961-7.02-2.893l-30.319-30.322l-30.325,30.322c-1.925,1.932-4.263,2.893-7.014,2.893	c-2.75,0-5.088-0.961-7.013-2.893l-14.034-14.014c-1.918-1.926-2.884-4.27-2.884-7.014c0-2.748,0.966-5.1,2.884-7.023l30.325-30.322	l-30.325-30.326c-1.918-1.928-2.884-4.256-2.884-7.01s0.966-5.082,2.884-7.01l14.034-14.037c1.925-1.926,4.263-2.887,7.013-2.887	c2.751,0,5.089,0.961,7.014,2.887l30.325,30.328l30.319-30.328c1.925-1.926,4.263-2.887,7.02-2.887c2.751,0,5.089,0.961,7.014,2.887	l14.027,14.037c1.925,1.928,2.884,4.256,2.884,7.01s-0.959,5.082-2.884,7.01l-30.325,30.326l30.325,30.322	C615.828,605.971,616.787,608.322,616.787,611.07"/></svg>