<?xml version="1.0" encoding="utf-8"?>
<!-- Generator: Adobe Illustrator 16.0.0, SVG Export Plug-In . SVG Version: 6.00 Build 0)  -->
<!DOCTYPE svg PUBLIC "-//W3C//DTD SVG 1.0//EN" "http://www.w3.org/TR/2001/REC-SVG-20010904/DTD/svg10.dtd">
<svg version="1.0" id="Layer_1" xmlns="http://www.w3.org/2000/svg" x="0px" y="0px"
     width="800px" height="800px" viewBox="0 0 800 800" enable-background="new 0 0 800 800" xml:space="preserve">
<g>
	<path fill="#E4F2FC" d="M419.708,50.003c-86.553,67.755-181.653,91.543-268.282,98.283v285.022
		c0,142.219,268.282,320.408,268.282,320.408s268.285-178.189,268.285-320.408V148.287
		C601.363,141.546,506.261,117.758,419.708,50.003"/>
</g>
    <g>
	<path fill="#2887C8" d="M388.423,736.789c-0.142,0-0.284-0.04-0.408-0.12c-0.671-0.435-67.889-44.157-134.237-104.262
		c-38.983-35.314-70.048-69.296-92.332-100.999c-27.906-39.702-42.056-75.948-42.056-107.73v-61.635c0-0.414,0.336-0.75,0.75-0.75
		s0.75,0.336,0.75,0.75v61.635c0,31.466,14.056,67.419,41.777,106.86c22.218,31.611,53.206,65.507,92.103,100.744
		c63.562,57.583,127.925,100.11,133.652,103.861c7.231-4.738,107.41-70.998,182.55-151.896c0.282-0.303,0.757-0.319,1.061-0.039
		c0.303,0.282,0.32,0.757,0.039,1.061c-77.733,83.689-182.196,151.723-183.242,152.4
		C388.707,736.749,388.564,736.789,388.423,736.789z M588.309,565.678c-0.172,0-0.345-0.059-0.486-0.179
		c-0.315-0.269-0.354-0.742-0.085-1.058c3.389-3.977,6.463-7.686,9.401-11.337c0.258-0.322,0.732-0.376,1.054-0.114
		c0.323,0.259,0.374,0.731,0.114,1.054c-2.946,3.663-6.03,7.383-9.427,11.37C588.731,565.588,588.521,565.678,588.309,565.678z
		 M614.711,530.885c-0.141,0-0.283-0.04-0.41-0.123c-0.347-0.228-0.443-0.692-0.216-1.038
		c26.837-40.898,34.305-63.367,41.859-106.111V146.509c-106.246-8.155-193.765-39.422-267.521-95.566
		c-73.758,56.145-161.28,87.412-267.532,95.566v51.257c0,0.414-0.336,0.75-0.75,0.75s-0.75-0.336-0.75-0.75v-51.952
		c0-0.392,0.302-0.718,0.693-0.748C226.568,137,314.193,105.708,387.968,49.404c0.269-0.205,0.642-0.205,0.91,0
		c73.773,56.304,161.396,87.595,267.873,95.662c0.392,0.03,0.693,0.356,0.693,0.748v277.864c0,0.044-0.004,0.088-0.012,0.131
		c-7.599,43.01-15.1,65.601-42.094,106.737C615.195,530.766,614.955,530.885,614.711,530.885z M120.141,330.487
		c-0.414,0-0.75-0.336-0.75-0.75V272.15c0-0.414,0.336-0.75,0.75-0.75s0.75,0.336,0.75,0.75v57.587
		C120.891,330.151,120.555,330.487,120.141,330.487z M120.141,240.593c-0.414,0-0.75-0.336-0.75-0.75v-16.985
		c0-0.414,0.336-0.75,0.75-0.75s0.75,0.336,0.75,0.75v16.985C120.891,240.257,120.555,240.593,120.141,240.593z"/>
</g>
    <g>
	<path fill="#179BD7" d="M297.508,600.961l8.426-11.99c5.078,5.293,12.964,9.83,22.903,9.83c8.534,0,12.531-3.781,12.531-7.994
		c0-12.531-41.484-3.781-41.484-30.896c0-11.992,10.371-21.932,27.333-21.932c11.451,0,20.958,3.457,28.088,10.047l-8.535,11.451
		c-5.833-5.4-13.612-7.885-20.958-7.885c-6.481,0-10.155,2.809-10.155,7.129c0,11.344,41.376,3.674,41.376,30.574
		c0,13.18-9.507,23.119-28.845,23.119C314.253,612.414,304.314,607.768,297.508,600.961z"/>
        <path fill="#179BD7" d="M362.329,600.961l8.426-11.99c5.078,5.293,12.964,9.83,22.903,9.83c8.534,0,12.531-3.781,12.531-7.994
		c0-12.531-41.484-3.781-41.484-30.896c0-11.992,10.371-21.932,27.333-21.932c11.451,0,20.958,3.457,28.088,10.047l-8.534,11.451
		c-5.834-5.4-13.612-7.885-20.959-7.885c-6.481,0-10.155,2.809-10.155,7.129c0,11.344,41.376,3.674,41.376,30.574
		c0,13.18-9.507,23.119-28.845,23.119C379.074,612.414,369.135,607.768,362.329,600.961z"/>
        <path fill="#179BD7" d="M431.471,611.117v-72.059h15.448v58.555h30.465v13.504H431.471z"/>
</g>
    <g>
	<path fill="#179BD7" d="M429.359,211.797c-9.554-35.654-46.338-56.893-82.009-47.38c-35.654,9.554-56.893,46.338-47.339,81.996
		l6.029,22.494l-0.446,0.115c-9.418,2.521-15.021,12.239-12.497,21.661l25.218,94.113c2.528,9.425,12.239,15.025,21.661,12.504
		l131.269-35.176c9.415-2.521,15.022-12.236,12.505-21.654l-25.211-94.071c-2.524-9.425-12.239-15.032-21.657-12.504l-1.492,0.401
		L429.359,211.797z M379.416,314.526c-5.206-2.001-8.543-5.827-9.99-11.242c-2.001-7.818,1.733-15.517,9.104-19.188
		c6.618-3.285,15.123-1.318,19.966,4.606c4.976,6.071,5.021,14.505,0.007,20.803c-0.987,1.259-1.05,2.263-0.673,3.672
		c1.9,6.897,3.751,13.812,5.6,20.723l0.014,0.042c1.534,5.722-3.34,11.649-10.195,10.186c-2.901-0.593-5.108-3.013-5.743-5.914
		c-1.848-6.911-3.693-13.78-5.492-20.702C381.599,315.966,380.999,315.14,379.416,314.526 M407.082,241.876l-72.721,19.492
		l-6.029-22.498c-5.37-20.029,6.542-40.724,26.616-46.104c20.032-5.37,40.728,6.541,46.104,26.615L407.082,241.876z"/>
</g>
    <g>
	<path fill="#E4F0CC" d="M767,489.938H52.714c-3.94,0-7.142-3.201-7.142-7.141V348.455c0-3.951,3.201-7.142,7.142-7.142H767
		c3.94,0,7.142,3.19,7.142,7.142v134.342C774.142,486.736,770.94,489.938,767,489.938"/>
</g>
    <g>
	<line fill="#E4F0CC" x1="210.205" y1="341.31" x2="171.999" y2="341.31"/>
</g>
    <g>
	<path fill="#0B9D49" d="M210.205,342.06h-38.207c-0.414,0-0.75-0.336-0.75-0.75s0.336-0.75,0.75-0.75h38.207
		c0.414,0,0.75,0.336,0.75,0.75S210.619,342.06,210.205,342.06z"/>
</g>
    <g>
	<line fill="#E4F0CC" x1="311.1" y1="341.31" x2="231.252" y2="341.31"/>
</g>
    <g>
	<path fill="#0B9D49" d="M311.1,342.06h-79.848c-0.414,0-0.75-0.336-0.75-0.75s0.336-0.75,0.75-0.75H311.1
		c0.414,0,0.75,0.336,0.75,0.75S311.514,342.06,311.1,342.06z"/>
</g>
    <g>
	<path fill="#0B9D49" d="M752.704,492.801H574.682c-0.414,0-0.75-0.336-0.75-0.75s0.336-0.75,0.75-0.75h177.272V342.056H331.927
		c-0.414,0-0.75-0.336-0.75-0.75s0.336-0.75,0.75-0.75h420.777c0.414,0,0.75,0.336,0.75,0.75v150.745
		C753.454,492.465,753.118,492.801,752.704,492.801z"/>
</g>
    <g>
	<line fill="#E4F0CC" x1="475.429" y1="492.051" x2="552.665" y2="492.051"/>
</g>
    <g>
	<path fill="#0B9D49" d="M552.665,492.801h-77.236c-0.414,0-0.75-0.336-0.75-0.75s0.336-0.75,0.75-0.75h77.236
		c0.414,0,0.75,0.336,0.75,0.75S553.079,492.801,552.665,492.801z"/>
</g>
    <g>
	<path fill="#0B9D49" d="M454.145,492.805H24.142c-0.414,0-0.75-0.336-0.75-0.75V341.31c0-0.414,0.336-0.75,0.75-0.75h126.241
		c0.414,0,0.75,0.336,0.75,0.75s-0.336,0.75-0.75,0.75H24.892v149.245h429.253c0.414,0,0.75,0.336,0.75,0.75
		S454.559,492.805,454.145,492.805z"/>
</g>
    <g>
	<path fill="#0B9D49" d="M323.233,444.859v-24.535c0-5.591-2.92-7.344-7.427-7.344c-4.173,0-7.427,2.337-9.18,4.674v27.205h-10.682
		v-55.662h10.682v20.529c2.587-3.004,7.511-6.176,14.103-6.176c8.846,0,13.102,4.84,13.102,12.685v28.624H323.233z"/>
        <path fill="#0B9D49" d="M346.518,434.762v-20.946h-6.676v-9.263h6.676v-11.016h10.598v11.016h8.178v9.263h-8.178v18.108
		c0,2.588,1.335,4.506,3.672,4.506c1.585,0,3.087-0.584,3.672-1.251l2.253,8.095c-1.585,1.418-4.423,2.587-8.846,2.587
		C350.44,445.86,346.518,442.021,346.518,434.762z"/>
        <path fill="#0B9D49" d="M374.726,434.762v-20.946h-6.676v-9.263h6.676v-11.016h10.598v11.016h8.178v9.263h-8.178v18.108
		c0,2.588,1.335,4.506,3.672,4.506c1.585,0,3.087-0.584,3.671-1.251l2.253,8.095c-1.585,1.418-4.423,2.587-8.846,2.587
		C378.647,445.86,374.726,442.021,374.726,434.762z"/>
        <path fill="#0B9D49" d="M411.362,439.686v20.528h-10.599v-55.661h10.599v5.09c3.087-3.922,7.51-6.092,12.434-6.092
		c10.348,0,17.858,7.678,17.858,21.113s-7.511,21.196-17.858,21.196C419.039,445.86,414.7,443.857,411.362,439.686z
		 M430.723,424.664c0-6.927-4.173-11.684-10.265-11.684c-3.422,0-7.26,1.92-9.096,4.59v14.188c1.752,2.586,5.674,4.672,9.096,4.672
		C426.55,436.43,430.723,431.674,430.723,424.664z"/>
        <path fill="#0B9D49" d="M445.913,439.602l4.589-7.678c3.005,2.838,8.93,5.592,13.937,5.592c4.59,0,6.76-1.753,6.76-4.256
		c0-6.594-23.867-1.169-23.867-17.024c0-6.759,5.842-12.685,16.523-12.685c6.76,0,12.184,2.337,16.189,5.508l-4.256,7.511
		c-2.42-2.503-7.01-4.673-11.934-4.673c-3.839,0-6.343,1.668-6.343,3.922c0,5.925,23.951,0.918,23.951,17.19
		c0,7.427-6.343,12.852-17.525,12.852C456.928,445.86,450.169,443.523,445.913,439.602z"/>
</g>
    <g>
	<path fill="#0B9D49" d="M487.891,410.728c0-3.672,3.088-6.759,6.76-6.759s6.76,3.087,6.76,6.759s-3.088,6.76-6.76,6.76
		S487.891,414.399,487.891,410.728z M487.891,439.018c0-3.672,3.088-6.76,6.76-6.76s6.76,3.088,6.76,6.76s-3.088,6.76-6.76,6.76
		S487.891,442.689,487.891,439.018z"/>
</g>
    <g>
	<path fill="#0B9D49" d="M508.258,446.527l19.777-58.999h10.432l-19.777,58.999H508.258z"/>
</g>
    <g>
	<path fill="#0B9D49" d="M531.789,446.527l19.777-58.999h10.432l-19.777,58.999H531.789z"/>
</g>
    <g>
	<path fill="#0B9D49" d="M272.911,409.855c-0.991-0.99-2.208-1.492-3.627-1.492h-1.705v-10.237c0-6.548-2.35-12.163-7.043-16.856
		c-4.693-4.697-10.311-7.04-16.853-7.04s-12.163,2.343-16.852,7.04c-4.693,4.693-7.044,10.308-7.044,16.856v10.237h-1.705
		c-1.423,0-2.629,0.502-3.63,1.492c-0.99,1.002-1.492,2.207-1.492,3.631v30.72c0,1.423,0.502,2.636,1.492,3.63
		c1.001,0.997,2.207,1.492,3.63,1.492h51.202c1.419,0,2.636-0.495,3.627-1.492c0.993-0.994,1.492-2.207,1.492-3.63v-30.72
		C274.403,412.063,273.904,410.857,272.911,409.855 M257.338,408.363h-27.31v-10.237c0-3.773,1.335-6.992,4-9.655
		c2.671-2.664,5.893-4,9.655-4c3.77,0,6.992,1.335,9.656,4c2.664,2.664,3.999,5.882,3.999,9.655V408.363z"/>
</g>
</svg>
