<?xml version="1.0" encoding="utf-8"?>
<!-- Generator: Adobe Illustrator 16.0.0, SVG Export Plug-In . SVG Version: 6.00 Build 0)  -->
<!DOCTYPE svg PUBLIC "-//W3C//DTD SVG 1.0//EN" "http://www.w3.org/TR/2001/REC-SVG-20010904/DTD/svg10.dtd">
<svg version="1.0" id="Layer_1" xmlns="http://www.w3.org/2000/svg" x="0px" y="0px"
     width="800px" height="800px" viewBox="0 0 800 800" enable-background="new 0 0 800 800" xml:space="preserve">
<g>
	<path fill="#E4F2FC" d="M620.009,395.155c0,121.477-98.478,219.947-219.947,219.947c-121.477,0-219.947-98.471-219.947-219.947
		c0-121.473,98.471-219.943,219.947-219.943C521.531,175.212,620.009,273.683,620.009,395.155"/>
</g>
    <g>
	<path fill="#B1D465" d="M170.15,296.254c0.994-2.311,1.988-4.615,3.116-6.862c-0.06,0-0.06-0.06-0.126-0.06
		c-6.477-4.922-10.654-12.708-10.654-21.44c0-14.89,12.026-26.923,26.923-26.923c4.11,0,7.975,0.876,11.462,2.56
		c0.06,0,0.06,0.063,0.134,0.063c2.863,1.369,5.416,3.175,7.597,5.486l0.066,0.059c4.793,4.8,7.724,11.403,7.724,18.755
		c0,14.838-12.086,26.986-26.982,26.986c-2.686,0-5.297-0.434-7.79-1.247h-0.067c-1.053,2.248-2.055,4.488-3.056,6.732
		c-2.426,5.672-4.667,11.47-6.67,17.386c-2.797,8.42-5.23,17.019-7.159,25.862c0,0-1.811,1.814-4.614,1.502
		c-2.931-0.312-4.674-2.56-4.674-2.56c1.996-9.786,4.733-19.378,7.849-28.67C165.291,307.906,167.599,301.982,170.15,296.254"/>
</g>
    <g>
	<path fill="#B1D465" d="M373.88,401.013c2.441,10.409,10.906,18.454,21.44,20.324v94.042h-51.286c-3.428,0-6.239,2.8-6.239,6.228
		s2.812,6.235,6.239,6.235h51.286v86.441c1.492-0.252,3.116-0.435,4.741-0.435c1.617,0,3.242,0.183,4.8,0.435V411.551
		c-1.558,0.431-3.123,0.623-4.8,0.623c-1.685,0-3.249-0.192-4.741-0.623c-5.297-1.498-9.6-5.486-11.528-10.661
		c-0.749-1.87-1.12-3.924-1.12-6.105s0.371-4.24,1.12-6.11c1.929-5.174,6.231-9.162,11.528-10.657
		c1.492-0.371,3.057-0.623,4.741-0.623c1.677,0,3.242,0.252,4.8,0.623V176.032c-1.625,0.312-3.183,0.438-4.8,0.438
		c-1.625,0-3.249-0.126-4.741-0.5v85.754h-51.286c-3.428,0-6.239,2.804-6.239,6.236c0,3.427,2.812,6.231,6.239,6.231h51.286v94.109
		c-10.534,1.803-18.999,9.908-21.44,20.253 M462.937,261.723h-32.65c-3.428,0-6.239,2.804-6.239,6.236
		c0,3.427,2.812,6.231,6.239,6.231h32.65c-0.489-1.999-0.742-4.117-0.742-6.231C462.194,265.841,462.447,263.723,462.937,261.723
		 M404.861,368.299v9.718c-1.558-0.371-3.123-0.623-4.8-0.623c-1.685,0-3.249,0.252-4.741,0.623
		c-5.297,1.495-9.6,5.483-11.528,10.657c-0.749,1.87-1.12,3.929-1.12,6.11s0.371,4.236,1.12,6.105
		c1.929,5.174,6.231,9.163,11.528,10.661c1.492,0.431,3.057,0.623,4.741,0.623c1.677,0,3.242-0.192,4.8-0.623v9.786
		c12.582-2.252,22.183-13.272,22.183-26.552C427.044,381.571,417.443,370.48,404.861,368.299 M649.098,368.796
		c-3.865-36.52-15.579-70.735-33.399-100.837c-0.066-0.126-0.134-0.189-0.192-0.249l-3.673-5.987
		c-39.884-63.071-107.195-107.191-185.042-115.482v-0.06c-1.617-13.339-13.02-23.625-26.729-23.625
		c-13.718,0-25.062,10.286-26.679,23.625v0.06c-1.743,0.193-3.553,0.375-5.363,0.623c-4.919,0.623-9.778,1.369-14.578,2.304
		c-4.801,0.872-9.541,1.936-14.274,3.123c-4.666,1.176-9.348,2.489-13.962,3.98c-4.607,1.436-9.096,3.001-13.584,4.678
		c-4.488,1.68-8.91,3.55-13.272,5.486c-4.37,1.929-8.665,3.987-12.835,6.168c-4.243,2.181-8.361,4.489-12.471,6.922
		c-4.051,2.371-8.035,4.915-11.959,7.534c-3.933,2.623-7.798,5.364-11.537,8.228c-3.798,2.805-7.471,5.798-11.032,8.851
		c-3.613,2.994-7.1,6.169-10.527,9.415c-3.436,3.234-6.729,6.54-9.912,9.975c0,0-0.252,2.863,1.491,4.54
		c1.691,1.688,5.742,1.247,5.742,1.247h0.06c1.684-1.74,3.361-3.546,5.111-5.234c3.361-3.365,6.848-6.54,10.35-9.723
		c3.546-3.116,7.219-6.102,10.958-9.032c3.687-2.935,7.485-5.739,11.41-8.409c3.857-2.682,7.856-5.305,11.907-7.734
		c4.051-2.493,8.228-4.863,12.396-7.044c4.236-2.24,8.48-4.358,12.842-6.358c4.355-1.992,8.784-3.858,13.28-5.545
		c4.481-1.748,9.028-3.365,13.577-4.792c4.674-1.499,9.288-2.812,14.028-3.988c4.733-1.187,9.474-2.251,14.333-3.187
		c4.793-0.872,9.652-1.617,14.578-2.241c1.247-0.122,2.434-0.312,3.68-0.378v0.066c0.809,3.428,2.308,6.603,4.363,9.415
		c-18.14,19.879-46.25,54.028-68.93,96.594h-67.741c-3.428,0-6.232,2.804-6.232,6.236c0,3.427,2.804,6.231,6.232,6.231h61.45
		c-16.707,34.275-29.237,73.354-30.351,114.362h-67.809c-3.427,0-6.231,2.804-6.231,6.232c0,3.424,2.804,6.228,6.231,6.228h67.809
		c1.113,41.319,13.77,80.65,30.662,115.178h-61.762c-3.428,0-6.232,2.801-6.232,6.229c0,3.427,2.804,6.239,6.232,6.239h68.112
		c22.561,42.495,50.553,76.593,68.625,96.471c-2.122,2.805-3.621,6.047-4.43,9.475v0.06
		c-103.144-11.158-186.903-87.751-209.034-187.278c-1.306-6.047-2.426-12.216-3.361-18.443c-0.312-2.434-0.623-4.805-0.875-7.234
		h0.126c11.848-2.804,20.691-13.461,20.691-26.173c0-12.783-8.91-23.496-20.817-26.237h-0.06c-1.996-0.5-3.991-0.753-6.113-0.753
		c-1.12,0-2.174,0.067-3.301,0.252h-0.06c-13.272,1.617-23.562,12.968-23.562,26.737c0,13.777,10.349,25.109,23.688,26.667h0.059
		c0.252,2.5,0.497,4.989,0.875,7.481c0.935,6.358,2.055,12.59,3.368,18.759c22.62,104.083,110.185,184.162,217.937,195.572v0.123
		c1.617,13.272,12.961,23.618,26.679,23.618c13.71,0,25.112-10.346,26.729-23.618v-0.066
		c78.529-8.351,146.404-53.216,186.096-117.223c1.002-1.558,1.937-3.061,2.812-4.618c17.761-29.909,29.416-63.813,33.274-100.028
		h0.066c13.272-1.559,23.621-12.891,23.621-26.667C672.66,381.765,662.371,370.48,649.098,368.796 M517.97,401.013
		c-0.935,33.593-9.786,65.813-22.376,95.165c-2.055-0.43-4.169-0.741-6.417-0.741c-12.396,0-22.932,8.476-25.988,19.942h-32.902
		c-3.428,0-6.239,2.8-6.239,6.228s2.812,6.235,6.239,6.235h32.531c1.188,5.92,4.362,11.154,8.792,14.961
		c-19.764,32.839-41.576,59.262-56.532,75.717c-2.989-2.118-6.477-3.554-10.216-4.236V421.337
		c12.582-2.252,22.183-13.272,22.183-26.552c0-13.213-9.601-24.304-22.183-26.485V176.032c3.799-0.687,7.353-2.181,10.408-4.303
		c11.403,12.531,26.85,30.792,42.251,53.227c4.733,6.852,9.593,14.333,14.4,22.313c-4.362,3.676-7.604,8.721-8.984,14.456h-32.65
		c-3.428,0-6.239,2.804-6.239,6.236c0,3.427,2.812,6.231,6.239,6.231h32.65c2.812,11.904,13.532,20.691,26.24,20.691
		c2.308,0,4.548-0.249,6.67-0.813c12.159,28.604,21.129,60.769,22.123,94.483 M373.88,401.013
		c2.441,10.409,10.906,18.454,21.44,20.324v94.042h-51.286c-3.428,0-6.239,2.8-6.239,6.228s2.812,6.235,6.239,6.235h51.286v86.441
		c-3.798,0.683-7.285,2.118-10.342,4.236c-17.271-19.066-43.815-51.417-65.561-91.672c-1.936-3.494-3.806-7.04-5.615-10.657
		c-17.45-34.716-30.722-74.601-31.657-116.483v-9.845c0.935-42.195,14.519-82.138,31.286-115.672
		c1.81-3.739,3.738-7.355,5.675-10.909c7.597-14.144,15.698-26.986,23.37-38.137c15.453-22.564,30.974-40.885,42.443-53.416
		c3.115,2.122,6.535,3.617,10.4,4.24v85.754h-51.286c-3.428,0-6.239,2.804-6.239,6.236c0,3.427,2.812,6.231,6.239,6.231h51.286
		v94.109c-10.534,1.803-18.999,9.908-21.44,20.253 M608.896,515.379h-66.614c-3.428,0-6.239,2.8-6.239,6.228
		s2.812,6.235,6.239,6.235h58.891c-38.637,58.331-101.957,98.968-174.937,106.884v-0.122c-0.809-3.428-2.248-6.732-4.37-9.541
		c15.335-16.759,37.711-43.813,57.897-77.468c2.938,1.187,6.112,1.811,9.414,1.811c14.897,0,26.982-12.156,26.982-27.046
		c0-9.222-4.733-17.449-11.893-22.313c13.332-31.104,22.747-65.501,23.37-101.397c0.059-1.313,0.059-2.56,0.059-3.865
		c0-1.306,0-2.623-0.059-3.869c-0.623-35.703-9.979-69.86-23.125-100.771c7.041-4.863,11.647-12.961,11.647-22.186
		c0-14.834-12.085-26.99-26.982-26.99c-3.175,0-6.291,0.624-9.162,1.625c-20.254-33.593-42.688-60.579-58.082-77.464
		c2.055-2.812,3.494-5.987,4.303-9.415v-0.122c72.475,7.849,135.483,47.985,174.121,105.696h-58.075
		c-3.428,0-6.239,2.805-6.239,6.232c0,3.424,2.812,6.228,6.239,6.228h65.932c16.767,28.611,27.857,61.017,31.537,95.548h-0.186
		c-9.659,2.241-17.33,9.656-19.882,19.256h-55.842c-3.428,0-6.232,2.804-6.232,6.232c0,3.424,2.805,6.228,6.232,6.228h55.463
		c2.122,10.228,10.038,18.325,20.194,20.694h0.126C635.885,455.553,625.172,487.268,608.896,515.379 M344.034,261.723
		c-3.428,0-6.239,2.804-6.239,6.236c0,3.427,2.812,6.231,6.239,6.231h51.286v-12.467H344.034z M373.88,401.013
		c2.441,10.409,10.906,18.454,21.44,20.324v-9.786c-5.297-1.498-9.6-5.486-11.528-10.661c-0.749-1.87-1.12-3.924-1.12-6.105
		s0.371-4.24,1.12-6.11c1.929-5.174,6.231-9.162,11.528-10.657v-9.718c-10.534,1.803-18.999,9.908-21.44,20.253 M344.034,515.379
		c-3.428,0-6.239,2.8-6.239,6.228s2.812,6.235,6.239,6.235h51.286v-12.463H344.034z"/>
</g>
    <g>
	<path fill="#2887C8" d="M208.669,249.137l-0.066-0.067c-2.174-2.304-4.733-4.11-7.604-5.479c-0.06,0-0.06-0.067-0.119-0.067
		c-3.494-1.68-7.359-2.552-11.469-2.552c-14.897,0-26.923,12.026-26.923,26.923c0,8.721,4.177,16.515,10.654,21.437
		c0.066,0,0.066,0.063,0.126,0.063c2.493,1.929,5.304,3.365,8.287,4.24h0.067c2.493,0.813,5.104,1.243,7.79,1.243
		c14.896,0,26.982-12.148,26.982-26.983C216.393,260.54,213.469,253.941,208.669,249.137 M189.41,285.286
		c-1.188,0-2.374-0.13-3.487-0.312c-0.066,0-0.066,0-0.133-0.063c-3.175-0.69-6.046-2.181-8.287-4.299l-0.06-0.067
		c-3.302-3.175-5.423-7.667-5.423-12.649c0-9.596,7.797-17.39,17.39-17.39c1.988,0,3.924,0.312,5.675,0.935
		c0.06,0,0.06,0,0.119,0.059c2.997,1.064,5.675,2.934,7.664,5.305l0.067,0.059c2.426,3.053,3.925,6.852,3.925,11.032
		C206.859,277.492,199.002,285.286,189.41,285.286"/>
</g>
    <g>
	<path fill="#2887C8" d="M471.913,247.264c-4.362,3.676-7.597,8.729-8.97,14.463h5.23c1.625,0,3.116,0.623,4.244,1.68
		c0.742-2.923,2.307-5.605,4.422-7.727C475.215,252.81,473.598,250.005,471.913,247.264 M489.185,240.973
		c-3.19,0-6.299,0.623-9.17,1.621c-2.989,1.054-5.735,2.678-8.102,4.67c-4.362,3.676-7.597,8.729-8.97,14.463
		c-0.496,1.992-0.749,4.11-0.749,6.232c0,2.118,0.253,4.24,0.749,6.228c2.797,11.904,13.518,20.695,26.241,20.695
		c2.3,0,4.548-0.252,6.662-0.813c3.183-0.812,6.046-2.122,8.665-3.928c7.041-4.856,11.655-12.961,11.655-22.183
		C516.167,253.121,504.082,240.973,489.185,240.973 M500.521,281.231c-2.366,1.996-5.364,3.431-8.599,3.865
		c-0.875,0.189-1.811,0.252-2.737,0.252c-8.05,0-14.778-5.427-16.767-12.838c-0.438-1.436-0.623-2.994-0.623-4.551
		c0-1.558,0.186-3.116,0.623-4.552c0.742-2.923,2.307-5.605,4.422-7.727c2.181-2.181,4.984-3.865,8.101-4.611
		c1.365-0.312,2.745-0.501,4.244-0.501c9.651,0,17.449,7.793,17.449,17.39C506.634,273.252,504.26,277.993,500.521,281.231"/>
</g>
    <g>
	<path fill="#2887C8" d="M489.177,495.437c-12.404,0-22.932,8.476-25.988,19.942h4.985c1.685,0,3.242,0.682,4.37,1.746
		c2.3-6.98,8.851-12.155,16.633-12.155c0.816,0,1.685,0.06,2.434,0.188c1.365-2.93,2.745-5.924,3.991-8.98
		C493.539,495.748,491.418,495.437,489.177,495.437 M504.26,500.047c-2.611-1.747-5.482-3.115-8.658-3.869
		c-2.063-0.43-4.184-0.741-6.425-0.741c-12.404,0-22.932,8.476-25.988,19.942c-0.683,2.24-0.994,4.547-0.994,6.98
		c0,1.869,0.186,3.739,0.623,5.486c1.188,5.916,4.362,11.15,8.792,14.957c2.426,2.117,5.163,3.738,8.16,4.792
		c2.931,1.187,6.105,1.811,9.407,1.811c14.897,0,26.982-12.156,26.982-27.046C516.159,513.131,511.434,504.91,504.26,500.047
		 M489.177,539.868c-1.558,0-3.108-0.182-4.548-0.62c-3.115-0.805-5.92-2.555-8.102-4.862c-2.055-2.182-3.553-4.985-4.295-8.038
		c-0.312-1.313-0.445-2.623-0.445-3.988c0-1.811,0.252-3.554,0.757-5.175v-0.06c2.3-6.98,8.851-12.155,16.633-12.155
		c0.816,0,1.685,0.06,2.434,0.188c3.302,0.435,6.231,1.804,8.657,3.799c3.873,3.238,6.366,8.039,6.366,13.402
		C506.634,532.016,498.836,539.868,489.177,539.868"/>
</g>
    <g>
	<path fill="#2887C8" d="M160.551,369.29h-0.06c-1.996-0.493-3.991-0.742-6.113-0.742c-1.12,0-2.174,0.059-3.301,0.249h-0.06
		c-13.272,1.617-23.562,12.96-23.562,26.734c0,13.772,10.349,25.116,23.688,26.675h0.059c1.061,0.189,2.122,0.248,3.175,0.248
		c2.122,0,4.244-0.248,6.173-0.749h0.126c11.848-2.805,20.691-13.454,20.691-26.174C181.368,382.751,172.458,372.035,160.551,369.29
		 M159.809,412.049h-0.126c-1.685,0.56-3.494,0.871-5.305,0.871c-1.432,0-2.737-0.189-4.043-0.501h-0.06
		c-7.671-1.869-13.28-8.784-13.28-16.889c0-8.165,5.609-15.079,13.213-16.889h0.067c1.365-0.371,2.671-0.56,4.103-0.56
		c1.811,0,3.62,0.312,5.238,0.746c0.067,0.067,0.067,0.067,0.126,0.067c6.981,2.303,12.093,8.91,12.093,16.637
		C171.834,403.257,166.79,409.805,159.809,412.049"/>
</g>
    <g>
	<path fill="#2887C8" d="M639.564,369.293c-9.659,2.241-17.33,9.663-19.882,19.256h4.926c0.312,0,0.683,0,0.994,0.13
		c0.186,0,0.312,0,0.438,0.063c0.564,0.119,1.054,0.308,1.559,0.62c0.185,0.063,0.43,0.193,0.623,0.375
		c0.186,0.13,0.371,0.249,0.563,0.441l0.245,0.241h0.066c1.677-5.486,5.854-9.722,11.276-11.525
		C640.188,375.651,639.936,372.469,639.564,369.293 M639.564,369.293c-9.659,2.241-17.33,9.663-19.882,19.256h4.926
		c0.312,0,0.683,0,0.994,0.13c0.186,0,0.312,0,0.438,0.063c0.564,0.119,1.054,0.308,1.559,0.62c0.185,0.063,0.43,0.193,0.623,0.375
		c0.186,0.13,0.371,0.249,0.563,0.441l0.245,0.241h0.066c1.677-5.486,5.854-9.722,11.276-11.525
		C640.188,375.651,639.936,372.469,639.564,369.293 M639.564,369.293c-9.659,2.241-17.33,9.663-19.882,19.256h4.926
		c0.312,0,0.683,0,0.994,0.13c0.186,0,0.312,0,0.438,0.063c0.564,0.119,1.054,0.308,1.559,0.62c0.185,0.063,0.43,0.193,0.623,0.375
		c0.186,0.13,0.371,0.249,0.563,0.441l0.245,0.241h0.066c1.677-5.486,5.854-9.722,11.276-11.525
		C640.188,375.651,639.936,372.469,639.564,369.293 M639.564,369.293c-9.659,2.241-17.33,9.663-19.882,19.256h4.926
		c0.312,0,0.683,0,0.994,0.13c0.186,0,0.312,0,0.438,0.063c0.564,0.119,1.054,0.308,1.559,0.62c0.185,0.063,0.43,0.193,0.623,0.375
		c0.186,0.13,0.371,0.249,0.563,0.441l0.245,0.241h0.066c1.677-5.486,5.854-9.722,11.276-11.525
		C640.188,375.651,639.936,372.469,639.564,369.293 M639.564,369.293c-9.659,2.241-17.33,9.663-19.882,19.256h4.926
		c0.312,0,0.683,0,0.994,0.13c0.186,0,0.312,0,0.438,0.063c0.564,0.119,1.054,0.308,1.559,0.62c0.185,0.063,0.43,0.193,0.623,0.375
		c0.186,0.13,0.371,0.249,0.563,0.441l0.245,0.241h0.066c1.677-5.486,5.854-9.722,11.276-11.525
		C640.188,375.651,639.936,372.469,639.564,369.293 M639.564,369.293c-9.659,2.241-17.33,9.663-19.882,19.256h4.926
		c0.312,0,0.683,0,0.994,0.13c0.186,0,0.312,0,0.438,0.063c0.564,0.119,1.054,0.308,1.559,0.62c0.185,0.063,0.43,0.193,0.623,0.375
		c0.186,0.13,0.371,0.249,0.563,0.441l0.245,0.241h0.066c1.677-5.486,5.854-9.722,11.276-11.525
		C640.188,375.651,639.936,372.469,639.564,369.293 M639.564,369.293c-9.659,2.241-17.33,9.663-19.882,19.256h4.926
		c0.312,0,0.683,0,0.994,0.13c0.186,0,0.312,0,0.438,0.063c0.564,0.119,1.054,0.308,1.559,0.62c0.185,0.063,0.43,0.193,0.623,0.375
		c0.186,0.13,0.371,0.249,0.563,0.441l0.245,0.241h0.066c1.677-5.486,5.854-9.722,11.276-11.525
		C640.188,375.651,639.936,372.469,639.564,369.293 M639.75,369.293h-0.186c-9.659,2.241-17.33,9.663-19.882,19.256h4.926
		c0.312,0,0.683,0,0.994,0.13c0.186,0,0.312,0,0.438,0.063c0.564,0.119,1.054,0.308,1.559,0.62c0.185,0.063,0.43,0.193,0.623,0.375
		c0.186,0.13,0.371,0.249,0.563,0.441l0.245,0.241h0.066c1.677-5.486,5.854-9.722,11.276-11.525c0.067,0,0.127-0.067,0.186-0.067
		C640.373,375.651,640.063,372.469,639.75,369.293 M639.75,369.293h-0.186c-9.659,2.241-17.33,9.663-19.882,19.256h4.926
		c0.312,0,0.683,0,0.994,0.13c0.186,0,0.312,0,0.438,0.063c0.564,0.119,1.054,0.308,1.559,0.62c0.185,0.063,0.43,0.193,0.623,0.375
		c0.186,0.13,0.371,0.249,0.563,0.441l0.245,0.241h0.066c1.677-5.486,5.854-9.722,11.276-11.525c0.067,0,0.127-0.067,0.186-0.067
		C640.373,375.651,640.063,372.469,639.75,369.293 M639.75,369.293h-0.186c-9.659,2.241-17.33,9.663-19.882,19.256h4.926
		c0.312,0,0.683,0,0.994,0.13c0.186,0,0.312,0,0.438,0.063c0.564,0.119,1.054,0.308,1.559,0.62c0.185,0.063,0.43,0.193,0.623,0.375
		c0.186,0.13,0.371,0.249,0.563,0.441l0.245,0.241h0.066c1.677-5.486,5.854-9.722,11.276-11.525c0.067,0,0.127-0.067,0.186-0.067
		C640.373,375.651,640.063,372.469,639.75,369.293 M649.098,368.8c-1.053-0.13-2.24-0.252-3.367-0.252
		c-2.048,0-4.044,0.252-5.98,0.745h-0.186c-9.659,2.241-17.33,9.663-19.882,19.256c-0.624,2.252-0.935,4.552-0.935,6.985
		c0,1.866,0.192,3.736,0.563,5.483c2.122,10.22,10.03,18.324,20.194,20.688h0.118c1.929,0.501,3.991,0.753,6.106,0.753
		c1.068,0,2.121-0.063,3.242-0.252h0.066c13.272-1.559,23.614-12.902,23.614-26.671C672.653,381.757,662.371,370.477,649.098,368.8
		 M649.848,412.419c-1.313,0.312-2.679,0.501-4.117,0.501c-1.803,0-3.487-0.312-5.172-0.813c-0.059,0-0.186-0.059-0.252-0.059
		c-5.728-1.87-10.156-6.67-11.462-12.657v-0.052c-0.371-1.254-0.505-2.5-0.505-3.806c0-1.75,0.253-3.427,0.757-5.044v-0.071
		c1.677-5.486,5.854-9.722,11.276-11.525c0.067,0,0.127-0.067,0.186-0.067c1.617-0.434,3.369-0.746,5.172-0.746
		c1.438,0,2.863,0.189,4.176,0.563c7.612,1.807,13.213,8.721,13.213,16.889C663.119,403.639,657.444,410.55,649.848,412.419
		 M639.75,369.293h-0.186c-9.659,2.241-17.33,9.663-19.882,19.256h4.926c0.312,0,0.683,0,0.994,0.13c0.186,0,0.312,0,0.438,0.063
		c0.564,0.119,1.054,0.308,1.559,0.62c0.185,0.063,0.43,0.193,0.623,0.375c0.186,0.13,0.371,0.249,0.563,0.441l0.245,0.241h0.066
		c1.677-5.486,5.854-9.722,11.276-11.525c0.067,0,0.127-0.067,0.186-0.067C640.373,375.651,640.063,372.469,639.75,369.293
		 M639.75,369.293h-0.186c-9.659,2.241-17.33,9.663-19.882,19.256h4.926c0.312,0,0.683,0,0.994,0.13c0.186,0,0.312,0,0.438,0.063
		c0.564,0.119,1.054,0.308,1.559,0.62c0.185,0.063,0.43,0.193,0.623,0.375c0.186,0.13,0.371,0.249,0.563,0.441l0.245,0.241h0.066
		c1.677-5.486,5.854-9.722,11.276-11.525c0.067,0,0.127-0.067,0.186-0.067C640.373,375.651,640.063,372.469,639.75,369.293
		 M639.75,369.293h-0.186c-9.659,2.241-17.33,9.663-19.882,19.256h4.926c0.312,0,0.683,0,0.994,0.13c0.186,0,0.312,0,0.438,0.063
		c0.564,0.119,1.054,0.308,1.559,0.62c0.185,0.063,0.43,0.193,0.623,0.375c0.186,0.13,0.371,0.249,0.563,0.441l0.245,0.241h0.066
		c1.677-5.486,5.854-9.722,11.276-11.525c0.067,0,0.127-0.067,0.186-0.067C640.373,375.651,640.063,372.469,639.75,369.293
		 M639.564,369.293c-9.659,2.241-17.33,9.663-19.882,19.256h4.926c0.312,0,0.683,0,0.994,0.13c0.186,0,0.312,0,0.438,0.063
		c0.564,0.119,1.054,0.308,1.559,0.62c0.185,0.063,0.43,0.193,0.623,0.375c0.186,0.13,0.371,0.249,0.563,0.441l0.245,0.241h0.066
		c1.677-5.486,5.854-9.722,11.276-11.525C640.188,375.651,639.936,372.469,639.564,369.293 M639.564,369.293
		c-9.659,2.241-17.33,9.663-19.882,19.256h4.926c0.312,0,0.683,0,0.994,0.13c0.186,0,0.312,0,0.438,0.063
		c0.564,0.119,1.054,0.308,1.559,0.62c0.185,0.063,0.43,0.193,0.623,0.375c0.186,0.13,0.371,0.249,0.563,0.441l0.245,0.241h0.066
		c1.677-5.486,5.854-9.722,11.276-11.525C640.188,375.651,639.936,372.469,639.564,369.293 M639.564,369.293
		c-9.659,2.241-17.33,9.663-19.882,19.256h4.926c0.312,0,0.683,0,0.994,0.13c0.186,0,0.312,0,0.438,0.063
		c0.564,0.119,1.054,0.308,1.559,0.62c0.185,0.063,0.43,0.193,0.623,0.375c0.186,0.13,0.371,0.249,0.563,0.441l0.245,0.241h0.066
		c1.677-5.486,5.854-9.722,11.276-11.525C640.188,375.651,639.936,372.469,639.564,369.293 M639.564,369.293
		c-9.659,2.241-17.33,9.663-19.882,19.256h4.926c0.312,0,0.683,0,0.994,0.13c0.186,0,0.312,0,0.438,0.063
		c0.564,0.119,1.054,0.308,1.559,0.62c0.185,0.063,0.43,0.193,0.623,0.375c0.186,0.13,0.371,0.249,0.563,0.441l0.245,0.241h0.066
		c1.677-5.486,5.854-9.722,11.276-11.525C640.188,375.651,639.936,372.469,639.564,369.293 M639.564,369.293
		c-9.659,2.241-17.33,9.663-19.882,19.256h4.926c0.312,0,0.683,0,0.994,0.13c0.186,0,0.312,0,0.438,0.063
		c0.564,0.119,1.054,0.308,1.559,0.62c0.185,0.063,0.43,0.193,0.623,0.375c0.186,0.13,0.371,0.249,0.563,0.441l0.245,0.241h0.066
		c1.677-5.486,5.854-9.722,11.276-11.525C640.188,375.651,639.936,372.469,639.564,369.293 M639.564,369.293
		c-9.659,2.241-17.33,9.663-19.882,19.256h4.926c0.312,0,0.683,0,0.994,0.13c0.186,0,0.312,0,0.438,0.063
		c0.564,0.119,1.054,0.308,1.559,0.62c0.185,0.063,0.43,0.193,0.623,0.375c0.186,0.13,0.371,0.249,0.563,0.441l0.245,0.241h0.066
		c1.677-5.486,5.854-9.722,11.276-11.525C640.188,375.651,639.936,372.469,639.564,369.293 M639.564,369.293
		c-9.659,2.241-17.33,9.663-19.882,19.256h4.926c0.312,0,0.683,0,0.994,0.13c0.186,0,0.312,0,0.438,0.063
		c0.564,0.119,1.054,0.308,1.559,0.62c0.185,0.063,0.43,0.193,0.623,0.375c0.186,0.13,0.371,0.249,0.563,0.441l0.245,0.241h0.066
		c1.677-5.486,5.854-9.722,11.276-11.525C640.188,375.651,639.936,372.469,639.564,369.293 M639.564,369.293
		c-9.659,2.241-17.33,9.663-19.882,19.256h4.926c0.312,0,0.683,0,0.994,0.13c0.186,0,0.312,0,0.438,0.063
		c0.564,0.119,1.054,0.308,1.559,0.62c0.185,0.063,0.43,0.193,0.623,0.375c0.186,0.13,0.371,0.249,0.563,0.441l0.312,0.312v-0.071
		c1.677-5.486,5.854-9.722,11.276-11.525C640.188,375.651,639.936,372.469,639.564,369.293"/>
</g>
    <g>
	<path fill="#2887C8" d="M408.593,164.688c-1.179,0.687-2.426,1.187-3.731,1.558c-1.558,0.434-3.115,0.687-4.808,0.687
		c-1.677,0-3.234-0.252-4.733-0.687c-1.372-0.371-2.618-0.872-3.806-1.558c-2.797-1.554-5.104-3.924-6.662-6.729
		c-0.556-1.001-1.001-1.999-1.372-3.116c-3.234,0.182-6.484,0.494-9.66,0.868c0.809,3.431,2.308,6.61,4.363,9.411
		c1.743,2.623,4.109,4.863,6.736,6.61c3.108,2.118,6.535,3.609,10.4,4.24c1.499,0.371,3.116,0.494,4.733,0.494
		c1.632,0,3.183-0.123,4.808-0.434c3.799-0.69,7.353-2.181,10.401-4.299C412.837,169.11,410.596,166.81,408.593,164.688
		 M408.593,164.688c-1.179,0.687-2.426,1.187-3.731,1.558c-1.558,0.434-3.115,0.687-4.808,0.687c-1.677,0-3.234-0.252-4.733-0.687
		c-1.372-0.371-2.618-0.872-3.806-1.558c-2.797-1.554-5.104-3.924-6.662-6.729c-0.556-1.001-1.001-1.999-1.372-3.116
		c-3.234,0.182-6.484,0.494-9.66,0.868c0.809,3.431,2.308,6.61,4.363,9.411c1.743,2.623,4.109,4.863,6.736,6.61
		c3.108,2.118,6.535,3.609,10.4,4.24c1.499,0.371,3.116,0.494,4.733,0.494c1.632,0,3.183-0.123,4.808-0.434
		c3.799-0.69,7.353-2.181,10.401-4.299C412.837,169.11,410.596,166.81,408.593,164.688 M408.593,164.688
		c-1.179,0.687-2.426,1.187-3.731,1.558c-1.558,0.434-3.115,0.687-4.808,0.687c-1.677,0-3.234-0.252-4.733-0.687
		c-1.372-0.371-2.618-0.872-3.806-1.558c-2.797-1.554-5.104-3.924-6.662-6.729c-0.556-1.001-1.001-1.999-1.372-3.116
		c-3.234,0.182-6.484,0.494-9.66,0.868c0.809,3.431,2.308,6.61,4.363,9.411c1.743,2.623,4.109,4.863,6.736,6.61
		c3.108,2.118,6.535,3.609,10.4,4.24c1.499,0.371,3.116,0.494,4.733,0.494c1.632,0,3.183-0.123,4.808-0.434
		c3.799-0.69,7.353-2.181,10.401-4.299C412.837,169.11,410.596,166.81,408.593,164.688 M408.593,164.688
		c-1.179,0.687-2.426,1.187-3.731,1.558c-1.558,0.434-3.115,0.687-4.808,0.687c-1.677,0-3.234-0.252-4.733-0.687
		c-1.372-0.371-2.618-0.872-3.806-1.558c-2.797-1.554-5.104-3.924-6.662-6.729c-0.556-1.001-1.001-1.999-1.372-3.116
		c-3.234,0.182-6.484,0.494-9.66,0.868c0.809,3.431,2.308,6.61,4.363,9.411c1.743,2.623,4.109,4.863,6.736,6.61
		c3.108,2.118,6.535,3.609,10.4,4.24c1.499,0.371,3.116,0.494,4.733,0.494c1.632,0,3.183-0.123,4.808-0.434
		c3.799-0.69,7.353-2.181,10.401-4.299C412.837,169.11,410.596,166.81,408.593,164.688 M408.593,164.688
		c-1.179,0.687-2.426,1.187-3.731,1.558c-1.558,0.434-3.115,0.687-4.808,0.687c-1.677,0-3.234-0.252-4.733-0.687
		c-1.372-0.371-2.618-0.872-3.806-1.558c-2.797-1.554-5.104-3.924-6.662-6.729c-0.556-1.001-1.001-1.999-1.372-3.116
		c-3.234,0.182-6.484,0.494-9.66,0.868c0.809,3.431,2.308,6.61,4.363,9.411c1.743,2.623,4.109,4.863,6.736,6.61
		c3.108,2.118,6.535,3.609,10.4,4.24c1.499,0.371,3.116,0.494,4.733,0.494c1.632,0,3.183-0.123,4.808-0.434
		c3.799-0.69,7.353-2.181,10.401-4.299C412.837,169.11,410.596,166.81,408.593,164.688 M408.593,164.688
		c-1.179,0.687-2.426,1.187-3.731,1.558c-1.558,0.434-3.115,0.687-4.808,0.687c-1.677,0-3.234-0.252-4.733-0.687
		c-1.372-0.371-2.618-0.872-3.806-1.558c-2.797-1.554-5.104-3.924-6.662-6.729c-0.556-1.001-1.001-1.999-1.372-3.116
		c-3.234,0.182-6.484,0.494-9.66,0.868c0.809,3.431,2.308,6.61,4.363,9.411c1.743,2.623,4.109,4.863,6.736,6.61
		c3.108,2.118,6.535,3.609,10.4,4.24c1.499,0.371,3.116,0.494,4.733,0.494c1.632,0,3.183-0.123,4.808-0.434
		c3.799-0.69,7.353-2.181,10.401-4.299C412.837,169.11,410.596,166.81,408.593,164.688 M408.593,164.688
		c-1.179,0.687-2.426,1.187-3.731,1.558c-1.558,0.434-3.115,0.687-4.808,0.687c-1.677,0-3.234-0.252-4.733-0.687
		c-1.372-0.371-2.618-0.872-3.806-1.558c-2.797-1.554-5.104-3.924-6.662-6.729c-0.556-1.001-1.001-1.999-1.372-3.116
		c-3.234,0.182-6.484,0.494-9.66,0.868c0.809,3.431,2.308,6.61,4.363,9.411c1.743,2.623,4.109,4.863,6.736,6.61
		c3.108,2.118,6.535,3.609,10.4,4.24c1.499,0.371,3.116,0.494,4.733,0.494c1.632,0,3.183-0.123,4.808-0.434
		c3.799-0.69,7.353-2.181,10.401-4.299C412.837,169.11,410.596,166.81,408.593,164.688 M408.593,164.688
		c-1.179,0.687-2.426,1.187-3.731,1.558c-1.558,0.434-3.115,0.687-4.808,0.687c-1.677,0-3.234-0.252-4.733-0.687
		c-1.372-0.371-2.618-0.872-3.806-1.558c-1.988,2.122-4.169,4.422-6.595,7.044c3.108,2.118,6.535,3.609,10.4,4.24
		c1.499,0.371,3.116,0.494,4.733,0.494c1.632,0,3.183-0.123,4.808-0.434c3.799-0.69,7.353-2.181,10.401-4.299
		C412.837,169.11,410.596,166.81,408.593,164.688 M408.593,164.688c-1.179,0.687-2.426,1.187-3.731,1.558
		c-1.558,0.434-3.115,0.687-4.808,0.687c-1.677,0-3.234-0.252-4.733-0.687c-1.372-0.371-2.618-0.872-3.806-1.558
		c-2.797-1.554-5.104-3.924-6.662-6.729c-0.556-1.001-1.001-1.999-1.372-3.116c-3.234,0.182-6.484,0.494-9.66,0.868
		c0.809,3.431,2.308,6.61,4.363,9.411c1.743,2.623,4.109,4.863,6.736,6.61c3.108,2.118,6.535,3.609,10.4,4.24
		c1.499,0.371,3.116,0.494,4.733,0.494c1.632,0,3.183-0.123,4.808-0.434c3.799-0.69,7.353-2.181,10.401-4.299
		C412.837,169.11,410.596,166.81,408.593,164.688 M408.593,164.688c-1.179,0.687-2.426,1.187-3.731,1.558
		c-1.558,0.434-3.115,0.687-4.808,0.687c-1.677,0-3.234-0.252-4.733-0.687c-1.372-0.371-2.618-0.872-3.806-1.558
		c-2.797-1.554-5.104-3.924-6.662-6.729c-0.556-1.001-1.001-1.999-1.372-3.116c-3.234,0.182-6.484,0.494-9.66,0.868
		c0.809,3.431,2.308,6.61,4.363,9.411c1.743,2.623,4.109,4.863,6.736,6.61c3.108,2.118,6.535,3.609,10.4,4.24
		c1.499,0.371,3.116,0.494,4.733,0.494c1.632,0,3.183-0.123,4.808-0.434c3.799-0.69,7.353-2.181,10.401-4.299
		C412.837,169.11,410.596,166.81,408.593,164.688 M408.593,164.688c-1.179,0.687-2.426,1.187-3.731,1.558
		c-1.558,0.434-3.115,0.687-4.808,0.687c-1.677,0-3.234-0.252-4.733-0.687c-1.372-0.371-2.618-0.872-3.806-1.558
		c-2.797-1.554-5.104-3.924-6.662-6.729c-0.556-1.001-1.001-1.999-1.372-3.116c-3.234,0.182-6.484,0.494-9.66,0.868
		c0.809,3.431,2.308,6.61,4.363,9.411c1.743,2.623,4.109,4.863,6.736,6.61c3.108,2.118,6.535,3.609,10.4,4.24
		c1.499,0.371,3.116,0.494,4.733,0.494c1.632,0,3.183-0.123,4.808-0.434c3.799-0.69,7.353-2.181,10.401-4.299
		C412.837,169.11,410.596,166.81,408.593,164.688 M408.593,164.688c-1.179,0.687-2.426,1.187-3.731,1.558
		c-1.558,0.434-3.115,0.687-4.808,0.687c-1.677,0-3.234-0.252-4.733-0.687c-1.372-0.371-2.618-0.872-3.806-1.558
		c-2.797-1.554-5.104-3.924-6.662-6.729c-0.556-1.001-1.001-1.999-1.372-3.116c-3.234,0.182-6.484,0.494-9.66,0.868
		c0.809,3.431,2.308,6.61,4.363,9.411c1.743,2.623,4.109,4.863,6.736,6.61c3.108,2.118,6.535,3.609,10.4,4.24
		c1.499,0.371,3.116,0.494,4.733,0.494c1.632,0,3.183-0.123,4.808-0.434c3.799-0.69,7.353-2.181,10.401-4.299
		C412.837,169.11,410.596,166.81,408.593,164.688 M408.593,164.688c-1.179,0.687-2.426,1.187-3.731,1.558
		c-1.558,0.434-3.115,0.687-4.808,0.687c-1.677,0-3.234-0.252-4.733-0.687c-1.372-0.371-2.618-0.872-3.806-1.558
		c-2.797-1.554-5.104-3.924-6.662-6.729c-0.556-1.001-1.001-1.999-1.372-3.116c-3.234,0.182-6.484,0.494-9.66,0.868
		c0.809,3.431,2.308,6.61,4.363,9.411c1.743,2.623,4.109,4.863,6.736,6.61c3.108,2.118,6.535,3.609,10.4,4.24
		c1.499,0.371,3.116,0.494,4.733,0.494c1.632,0,3.183-0.123,4.808-0.434c3.799-0.69,7.353-2.181,10.401-4.299
		C412.837,169.11,410.596,166.81,408.593,164.688 M408.593,164.688c-1.179,0.687-2.426,1.187-3.731,1.558
		c-1.558,0.434-3.115,0.687-4.808,0.687c-1.677,0-3.234-0.252-4.733-0.687c-1.372-0.371-2.618-0.872-3.806-1.558
		c-2.797-1.554-5.104-3.924-6.662-6.729c-0.556-1.001-1.001-1.999-1.372-3.116c-3.234,0.182-6.484,0.494-9.66,0.868
		c0.809,3.431,2.308,6.61,4.363,9.411c1.743,2.623,4.109,4.863,6.736,6.61c3.108,2.118,6.535,3.609,10.4,4.24
		c1.499,0.371,3.116,0.494,4.733,0.494c1.632,0,3.183-0.123,4.808-0.434c3.799-0.69,7.353-2.181,10.401-4.299
		C412.837,169.11,410.596,166.81,408.593,164.688 M408.593,164.688c-1.179,0.687-2.426,1.187-3.731,1.558
		c-1.558,0.434-3.115,0.687-4.808,0.687c-1.677,0-3.234-0.252-4.733-0.687c-1.372-0.371-2.618-0.872-3.806-1.558
		c-2.797-1.554-5.104-3.924-6.662-6.729c-0.556-1.001-1.001-1.999-1.372-3.116c-3.234,0.182-6.484,0.494-9.66,0.868
		c0.809,3.431,2.308,6.61,4.363,9.411c1.743,2.623,4.109,4.863,6.736,6.61c3.108,2.118,6.535,3.609,10.4,4.24
		c1.499,0.371,3.116,0.494,4.733,0.494c1.632,0,3.183-0.123,4.808-0.434c3.799-0.69,7.353-2.181,10.401-4.299
		C412.837,169.11,410.596,166.81,408.593,164.688 M408.593,164.688c-1.179,0.687-2.426,1.187-3.731,1.558
		c-1.558,0.434-3.115,0.687-4.808,0.687c-1.677,0-3.234-0.252-4.733-0.687c-1.372-0.371-2.618-0.872-3.806-1.558
		c-2.797-1.554-5.104-3.924-6.662-6.729c-0.556-1.001-1.001-1.999-1.372-3.116c-3.234,0.182-6.484,0.494-9.66,0.868
		c0.809,3.431,2.308,6.61,4.363,9.411c1.743,2.623,4.109,4.863,6.736,6.61c3.108,2.118,6.535,3.609,10.4,4.24
		c1.499,0.371,3.116,0.494,4.733,0.494c1.632,0,3.183-0.123,4.808-0.434c3.799-0.69,7.353-2.181,10.401-4.299
		C412.837,169.11,410.596,166.81,408.593,164.688 M408.593,164.688c-1.179,0.687-2.426,1.187-3.731,1.558
		c-1.558,0.434-3.115,0.687-4.808,0.687c-1.677,0-3.234-0.252-4.733-0.687c-1.372-0.371-2.618-0.872-3.806-1.558
		c-1.988,2.122-4.169,4.422-6.595,7.044c3.108,2.118,6.535,3.609,10.4,4.24c1.499,0.371,3.116,0.494,4.733,0.494
		c1.632,0,3.183-0.123,4.808-0.434c3.799-0.69,7.353-2.181,10.401-4.299C412.837,169.11,410.596,166.81,408.593,164.688
		 M408.593,164.688c-1.179,0.687-2.426,1.187-3.731,1.558c-1.558,0.434-3.115,0.687-4.808,0.687c-1.677,0-3.234-0.252-4.733-0.687
		c-1.372-0.371-2.618-0.872-3.806-1.558c-1.988,2.122-4.169,4.422-6.595,7.044c3.108,2.118,6.535,3.609,10.4,4.24
		c1.499,0.371,3.116,0.494,4.733,0.494c1.632,0,3.183-0.123,4.808-0.434c3.799-0.69,7.353-2.181,10.401-4.299
		C412.837,169.11,410.596,166.81,408.593,164.688 M408.593,164.688c-1.179,0.687-2.426,1.187-3.731,1.558
		c-1.558,0.434-3.115,0.687-4.808,0.687c-1.677,0-3.234-0.252-4.733-0.687c-1.372-0.371-2.618-0.872-3.806-1.558
		c-1.988,2.122-4.169,4.422-6.595,7.044c3.108,2.118,6.535,3.609,10.4,4.24c1.499,0.371,3.116,0.494,4.733,0.494
		c1.632,0,3.183-0.123,4.808-0.434c3.799-0.69,7.353-2.181,10.401-4.299C412.837,169.11,410.596,166.81,408.593,164.688
		 M426.799,146.237v-0.06c-1.625-13.335-13.027-23.621-26.745-23.621c-13.71,0-25.054,10.286-26.671,23.621v0.06
		c-0.252,1.064-0.252,2.125-0.252,3.242c0,2.181,0.252,4.181,0.689,6.169v0.063c0.809,3.431,2.308,6.61,4.363,9.411
		c1.743,2.623,4.109,4.863,6.736,6.61c3.108,2.118,6.535,3.609,10.4,4.24c1.499,0.371,3.116,0.494,4.733,0.494
		c1.632,0,3.183-0.123,4.808-0.434c3.799-0.69,7.353-2.181,10.401-4.299c2.619-1.747,4.866-3.988,6.677-6.61
		c2.048-2.801,3.487-5.979,4.296-9.411v-0.123c0.563-1.929,0.809-3.988,0.809-6.109
		C427.044,148.363,426.977,147.302,426.799,146.237 M416.702,154.843c-0.445,1.117-0.876,2.181-1.439,3.175
		c-1.558,2.745-3.865,5.115-6.67,6.669c-1.179,0.687-2.426,1.187-3.731,1.558c-1.558,0.434-3.115,0.687-4.808,0.687
		c-1.677,0-3.234-0.252-4.733-0.687c-1.372-0.371-2.618-0.872-3.806-1.558c-2.797-1.554-5.104-3.924-6.662-6.729
		c-0.556-1.001-1.001-1.999-1.372-3.116v-0.13c-0.564-1.617-0.816-3.424-0.816-5.234c0-1.428,0.193-2.741,0.505-4.11v-0.066
		c1.869-7.597,8.725-13.213,16.885-13.213c8.169,0,15.023,5.616,16.894,13.213v0.066c0.311,1.369,0.556,2.682,0.556,4.11
		c0,1.81-0.312,3.617-0.801,5.234V154.843z M408.593,164.688c-1.179,0.687-2.426,1.187-3.731,1.558
		c-1.558,0.434-3.115,0.687-4.808,0.687c-1.677,0-3.234-0.252-4.733-0.687c-1.372-0.371-2.618-0.872-3.806-1.558
		c-1.988,2.122-4.169,4.422-6.595,7.044c3.108,2.118,6.535,3.609,10.4,4.24c1.499,0.371,3.116,0.494,4.733,0.494
		c1.632,0,3.183-0.123,4.808-0.434c3.799-0.69,7.353-2.181,10.401-4.299C412.837,169.11,410.596,166.81,408.593,164.688
		 M408.593,164.688c-1.179,0.687-2.426,1.187-3.731,1.558c-1.558,0.434-3.115,0.687-4.808,0.687c-1.677,0-3.234-0.252-4.733-0.687
		c-1.372-0.371-2.618-0.872-3.806-1.558c-1.988,2.122-4.169,4.422-6.595,7.044c3.108,2.118,6.535,3.609,10.4,4.24
		c1.499,0.371,3.116,0.494,4.733,0.494c1.632,0,3.183-0.123,4.808-0.434c3.799-0.69,7.353-2.181,10.401-4.299
		C412.837,169.11,410.596,166.81,408.593,164.688 M408.593,164.688c-1.179,0.687-2.426,1.187-3.731,1.558
		c-1.558,0.434-3.115,0.687-4.808,0.687c-1.677,0-3.234-0.252-4.733-0.687c-1.372-0.371-2.618-0.872-3.806-1.558
		c-1.988,2.122-4.169,4.422-6.595,7.044c3.108,2.118,6.535,3.609,10.4,4.24c1.499,0.371,3.116,0.494,4.733,0.494
		c1.632,0,3.183-0.123,4.808-0.434c3.799-0.69,7.353-2.181,10.401-4.299C412.837,169.11,410.596,166.81,408.593,164.688
		 M408.593,164.688c-1.179,0.687-2.426,1.187-3.731,1.558c-1.558,0.434-3.115,0.687-4.808,0.687c-1.677,0-3.234-0.252-4.733-0.687
		c-1.372-0.371-2.618-0.872-3.806-1.558c-2.797-1.554-5.104-3.924-6.662-6.729c-0.556-1.001-1.001-1.999-1.372-3.116
		c-3.234,0.182-6.484,0.494-9.66,0.868c0.809,3.431,2.308,6.61,4.363,9.411c1.743,2.623,4.109,4.863,6.736,6.61
		c3.108,2.118,6.535,3.609,10.4,4.24c1.499,0.371,3.116,0.494,4.733,0.494c1.632,0,3.183-0.123,4.808-0.434
		c3.799-0.69,7.353-2.181,10.401-4.299C412.837,169.11,410.596,166.81,408.593,164.688 M408.593,164.688
		c-1.179,0.687-2.426,1.187-3.731,1.558c-1.558,0.434-3.115,0.687-4.808,0.687c-1.677,0-3.234-0.252-4.733-0.687
		c-1.372-0.371-2.618-0.872-3.806-1.558c-2.797-1.554-5.104-3.924-6.662-6.729c-0.556-1.001-1.001-1.999-1.372-3.116
		c-3.234,0.182-6.484,0.494-9.66,0.868c0.809,3.431,2.308,6.61,4.363,9.411c1.743,2.623,4.109,4.863,6.736,6.61
		c3.108,2.118,6.535,3.609,10.4,4.24c1.499,0.371,3.116,0.494,4.733,0.494c1.632,0,3.183-0.123,4.808-0.434
		c3.799-0.69,7.353-2.181,10.401-4.299C412.837,169.11,410.596,166.81,408.593,164.688 M408.593,164.688
		c-1.179,0.687-2.426,1.187-3.731,1.558c-1.558,0.434-3.115,0.687-4.808,0.687c-1.677,0-3.234-0.252-4.733-0.687
		c-1.372-0.371-2.618-0.872-3.806-1.558c-2.797-1.554-5.104-3.924-6.662-6.729c-0.556-1.001-1.001-1.999-1.372-3.116
		c-3.234,0.182-6.484,0.494-9.66,0.868c0.809,3.431,2.308,6.61,4.363,9.411c1.743,2.623,4.109,4.863,6.736,6.61
		c3.108,2.118,6.535,3.609,10.4,4.24c1.499,0.371,3.116,0.494,4.733,0.494c1.632,0,3.183-0.123,4.808-0.434
		c3.799-0.69,7.353-2.181,10.401-4.299C412.837,169.11,410.596,166.81,408.593,164.688 M408.593,164.688
		c-1.179,0.687-2.426,1.187-3.731,1.558c-1.558,0.434-3.115,0.687-4.808,0.687c-1.677,0-3.234-0.252-4.733-0.687
		c-1.372-0.371-2.618-0.872-3.806-1.558c-2.797-1.554-5.104-3.924-6.662-6.729c-0.556-1.001-1.001-1.999-1.372-3.116
		c-3.234,0.182-6.484,0.494-9.66,0.868c0.809,3.431,2.308,6.61,4.363,9.411c1.743,2.623,4.109,4.863,6.736,6.61
		c3.108,2.118,6.535,3.609,10.4,4.24c1.499,0.371,3.116,0.494,4.733,0.494c1.632,0,3.183-0.123,4.808-0.434
		c3.799-0.69,7.353-2.181,10.401-4.299C412.837,169.11,410.596,166.81,408.593,164.688 M408.593,164.688
		c-1.179,0.687-2.426,1.187-3.731,1.558c-1.558,0.434-3.115,0.687-4.808,0.687c-1.677,0-3.234-0.252-4.733-0.687
		c-1.372-0.371-2.618-0.872-3.806-1.558c-2.797-1.554-5.104-3.924-6.662-6.729c-0.556-1.001-1.001-1.999-1.372-3.116
		c-3.234,0.182-6.484,0.494-9.66,0.868c0.809,3.431,2.308,6.61,4.363,9.411c1.743,2.623,4.109,4.863,6.736,6.61
		c3.108,2.118,6.535,3.609,10.4,4.24c1.499,0.371,3.116,0.494,4.733,0.494c1.632,0,3.183-0.123,4.808-0.434
		c3.799-0.69,7.353-2.181,10.401-4.299C412.837,169.11,410.596,166.81,408.593,164.688 M408.593,164.688
		c-1.179,0.687-2.426,1.187-3.731,1.558c-1.558,0.434-3.115,0.687-4.808,0.687c-1.677,0-3.234-0.252-4.733-0.687
		c-1.372-0.371-2.618-0.872-3.806-1.558c-2.797-1.554-5.104-3.924-6.662-6.729c-0.556-1.001-1.001-1.999-1.372-3.116
		c-3.234,0.182-6.484,0.494-9.66,0.868c0.809,3.431,2.308,6.61,4.363,9.411c1.743,2.623,4.109,4.863,6.736,6.61
		c3.108,2.118,6.535,3.609,10.4,4.24c1.499,0.371,3.116,0.494,4.733,0.494c1.632,0,3.183-0.123,4.808-0.434
		c3.799-0.69,7.353-2.181,10.401-4.299C412.837,169.11,410.596,166.81,408.593,164.688 M408.593,164.688
		c-1.179,0.687-2.426,1.187-3.731,1.558c-1.558,0.434-3.115,0.687-4.808,0.687c-1.677,0-3.234-0.252-4.733-0.687
		c-1.372-0.371-2.618-0.872-3.806-1.558c-2.797-1.554-5.104-3.924-6.662-6.729c-0.556-1.001-1.001-1.999-1.372-3.116
		c-3.234,0.182-6.484,0.494-9.66,0.868c0.809,3.431,2.308,6.61,4.363,9.411c1.743,2.623,4.109,4.863,6.736,6.61
		c3.108,2.118,6.535,3.609,10.4,4.24c1.499,0.371,3.116,0.494,4.733,0.494c1.632,0,3.183-0.123,4.808-0.434
		c3.799-0.69,7.353-2.181,10.401-4.299C412.837,169.11,410.596,166.81,408.593,164.688 M408.593,164.688
		c-1.179,0.687-2.426,1.187-3.731,1.558c-1.558,0.434-3.115,0.687-4.808,0.687c-1.677,0-3.234-0.252-4.733-0.687
		c-1.372-0.371-2.618-0.872-3.806-1.558c-1.988,2.122-4.169,4.422-6.595,7.044c3.108,2.118,6.535,3.609,10.4,4.24
		c1.499,0.371,3.116,0.494,4.733,0.494c1.632,0,3.183-0.123,4.808-0.434c3.799-0.69,7.353-2.181,10.401-4.299
		C412.837,169.11,410.596,166.81,408.593,164.688 M408.593,164.688c-1.179,0.687-2.426,1.187-3.731,1.558
		c-1.558,0.434-3.115,0.687-4.808,0.687c-1.677,0-3.234-0.252-4.733-0.687c-1.372-0.371-2.618-0.872-3.806-1.558
		c-1.988,2.122-4.169,4.422-6.595,7.044c3.108,2.118,6.535,3.609,10.4,4.24c1.499,0.371,3.116,0.494,4.733,0.494
		c1.632,0,3.183-0.123,4.808-0.434c3.799-0.69,7.353-2.181,10.401-4.299C412.837,169.11,410.596,166.81,408.593,164.688
		 M408.593,164.688c-1.179,0.687-2.426,1.187-3.731,1.558c-1.558,0.434-3.115,0.687-4.808,0.687c-1.677,0-3.234-0.252-4.733-0.687
		c-1.372-0.371-2.618-0.872-3.806-1.558c-2.797-1.554-5.104-3.924-6.662-6.729c-0.556-1.001-1.001-1.999-1.372-3.116
		c-3.234,0.182-6.484,0.494-9.66,0.868c0.809,3.431,2.308,6.61,4.363,9.411c1.743,2.623,4.109,4.863,6.736,6.61
		c3.108,2.118,6.535,3.609,10.4,4.24c1.499,0.371,3.116,0.494,4.733,0.494c1.632,0,3.183-0.123,4.808-0.434
		c3.799-0.69,7.353-2.181,10.401-4.299C412.837,169.11,410.596,166.81,408.593,164.688 M408.593,164.688
		c-1.179,0.687-2.426,1.187-3.731,1.558c-1.558,0.434-3.115,0.687-4.808,0.687c-1.677,0-3.234-0.252-4.733-0.687
		c-1.372-0.371-2.618-0.872-3.806-1.558c-2.797-1.554-5.104-3.924-6.662-6.729c-0.556-1.001-1.001-1.999-1.372-3.116
		c-3.234,0.182-6.484,0.494-9.66,0.868c0.809,3.431,2.308,6.61,4.363,9.411c1.743,2.623,4.109,4.863,6.736,6.61
		c3.108,2.118,6.535,3.609,10.4,4.24c1.499,0.371,3.116,0.494,4.733,0.494c1.632,0,3.183-0.123,4.808-0.434
		c3.799-0.69,7.353-2.181,10.401-4.299C412.837,169.11,410.596,166.81,408.593,164.688 M408.593,164.688
		c-1.179,0.687-2.426,1.187-3.731,1.558c-1.558,0.434-3.115,0.687-4.808,0.687c-1.677,0-3.234-0.252-4.733-0.687
		c-1.372-0.371-2.618-0.872-3.806-1.558c-2.797-1.554-5.104-3.924-6.662-6.729c-0.556-1.001-1.001-1.999-1.372-3.116
		c-3.234,0.182-6.484,0.494-9.66,0.868c0.809,3.431,2.308,6.61,4.363,9.411c1.743,2.623,4.109,4.863,6.736,6.61
		c3.108,2.118,6.535,3.609,10.4,4.24c1.499,0.371,3.116,0.494,4.733,0.494c1.632,0,3.183-0.123,4.808-0.434
		c3.799-0.69,7.353-2.181,10.401-4.299C412.837,169.11,410.596,166.81,408.593,164.688 M408.593,164.688
		c-1.179,0.687-2.426,1.187-3.731,1.558c-1.558,0.434-3.115,0.687-4.808,0.687c-1.677,0-3.234-0.252-4.733-0.687
		c-1.372-0.371-2.618-0.872-3.806-1.558c-2.797-1.554-5.104-3.924-6.662-6.729c-0.556-1.001-1.001-1.999-1.372-3.116
		c-3.234,0.182-6.484,0.494-9.66,0.868c0.809,3.431,2.308,6.61,4.363,9.411c1.743,2.623,4.109,4.863,6.736,6.61
		c3.108,2.118,6.535,3.609,10.4,4.24c1.499,0.371,3.116,0.494,4.733,0.494c1.632,0,3.183-0.123,4.808-0.434
		c3.799-0.69,7.353-2.181,10.401-4.299C412.837,169.11,410.596,166.81,408.593,164.688 M408.593,164.688
		c-1.179,0.687-2.426,1.187-3.731,1.558c-1.558,0.434-3.115,0.687-4.808,0.687c-1.677,0-3.234-0.252-4.733-0.687
		c-1.372-0.371-2.618-0.872-3.806-1.558c-2.797-1.554-5.104-3.924-6.662-6.729c-0.556-1.001-1.001-1.999-1.372-3.116
		c-3.234,0.182-6.484,0.494-9.66,0.868c0.809,3.431,2.308,6.61,4.363,9.411c1.743,2.623,4.109,4.863,6.736,6.61
		c3.108,2.118,6.535,3.609,10.4,4.24c1.499,0.371,3.116,0.494,4.733,0.494c1.632,0,3.183-0.123,4.808-0.434
		c3.799-0.69,7.353-2.181,10.401-4.299C412.837,169.11,410.596,166.81,408.593,164.688 M408.593,164.688
		c-1.179,0.687-2.426,1.187-3.731,1.558c-1.558,0.434-3.115,0.687-4.808,0.687c-1.677,0-3.234-0.252-4.733-0.687
		c-1.372-0.371-2.618-0.872-3.806-1.558c-2.797-1.554-5.104-3.924-6.662-6.729c-0.556-1.001-1.001-1.999-1.372-3.116
		c-3.234,0.182-6.484,0.494-9.66,0.868c0.809,3.431,2.308,6.61,4.363,9.411c1.743,2.623,4.109,4.863,6.736,6.61
		c3.108,2.118,6.535,3.609,10.4,4.24c1.499,0.371,3.116,0.494,4.733,0.494c1.632,0,3.183-0.123,4.808-0.434
		c3.799-0.69,7.353-2.181,10.401-4.299C412.837,169.11,410.596,166.81,408.593,164.688"/>
</g>
    <g>
	<path fill="#2887C8" d="M404.854,368.299c-1.617-0.312-3.175-0.438-4.8-0.438c-1.617,0-3.234,0.126-4.733,0.438
		c-10.534,1.803-19.007,9.908-21.44,20.253c-0.497,1.992-0.749,4.11-0.749,6.232c0,2.118,0.252,4.236,0.749,6.228
		c2.434,10.409,10.906,18.454,21.44,20.324c1.499,0.248,3.116,0.37,4.733,0.37c1.625,0,3.183-0.122,4.8-0.37
		c12.59-2.252,22.19-13.272,22.19-26.552C427.044,381.571,417.443,370.48,404.854,368.299 M404.854,411.551
		c-1.558,0.431-3.107,0.623-4.8,0.623c-1.677,0-3.234-0.192-4.733-0.623c-5.297-1.498-9.592-5.486-11.528-10.661
		c-0.749-1.87-1.12-3.924-1.12-6.105s0.371-4.24,1.12-6.11c1.937-5.174,6.231-9.162,11.528-10.657
		c1.499-0.371,3.057-0.623,4.733-0.623c1.692,0,3.242,0.252,4.8,0.623c7.234,2.059,12.657,8.788,12.657,16.767
		C417.511,402.76,412.088,409.492,404.854,411.551"/>
</g>
    <g>
	<path fill="#2887C8" d="M404.854,614.279c-1.558-0.248-3.175-0.431-4.8-0.431c-1.617,0-3.234,0.183-4.733,0.431
		c-3.798,0.687-7.292,2.122-10.342,4.24c2.426,2.622,4.667,4.985,6.67,7.104c1.113-0.623,2.367-1.184,3.672-1.559
		c1.499-0.43,3.057-0.623,4.733-0.623c1.692,0,3.242,0.193,4.8,0.623c1.247,0.375,2.493,0.876,3.621,1.499
		c2.055-2.122,4.236-4.422,6.603-7.044C412.088,616.401,408.593,614.966,404.854,614.279 M404.854,614.279
		c-1.558-0.248-3.175-0.431-4.8-0.431c-1.617,0-3.234,0.183-4.733,0.431c-3.798,0.687-7.292,2.122-10.342,4.24
		c2.426,2.622,4.667,4.985,6.67,7.104c1.113-0.623,2.367-1.184,3.672-1.559c1.499-0.43,3.057-0.623,4.733-0.623
		c1.692,0,3.242,0.193,4.8,0.623c1.247,0.375,2.493,0.876,3.621,1.499c2.055-2.122,4.236-4.422,6.603-7.044
		C412.088,616.401,408.593,614.966,404.854,614.279 M404.854,614.279c-1.558-0.248-3.175-0.431-4.8-0.431
		c-1.617,0-3.234,0.183-4.733,0.431c-3.798,0.687-7.292,2.122-10.342,4.24c2.426,2.622,4.667,4.985,6.67,7.104
		c1.113-0.623,2.367-1.184,3.672-1.559c1.499-0.43,3.057-0.623,4.733-0.623c1.692,0,3.242,0.193,4.8,0.623
		c1.247,0.375,2.493,0.876,3.621,1.499c2.055-2.122,4.236-4.422,6.603-7.044C412.088,616.401,408.593,614.966,404.854,614.279
		 M404.854,614.279c-1.558-0.248-3.175-0.431-4.8-0.431c-1.617,0-3.234,0.183-4.733,0.431c-3.798,0.687-7.292,2.122-10.342,4.24
		c2.426,2.622,4.667,4.985,6.67,7.104c1.113-0.623,2.367-1.184,3.672-1.559c1.499-0.43,3.057-0.623,4.733-0.623
		c1.692,0,3.242,0.193,4.8,0.623c1.247,0.375,2.493,0.876,3.621,1.499c2.055-2.122,4.236-4.422,6.603-7.044
		C412.088,616.401,408.593,614.966,404.854,614.279 M404.854,614.279v9.785c1.247,0.375,2.493,0.876,3.621,1.499
		c2.055-2.122,4.236-4.422,6.603-7.044C412.088,616.401,408.593,614.966,404.854,614.279 M404.854,614.279
		c-1.558-0.248-3.175-0.431-4.8-0.431c-1.617,0-3.234,0.183-4.733,0.431c-3.798,0.687-7.292,2.122-10.342,4.24
		c2.426,2.622,4.667,4.985,6.67,7.104c1.113-0.623,2.367-1.184,3.672-1.559c1.499-0.43,3.057-0.623,4.733-0.623
		c1.692,0,3.242,0.193,4.8,0.623c1.247,0.375,2.493,0.876,3.621,1.499c2.055-2.122,4.236-4.422,6.603-7.044
		C412.088,616.401,408.593,614.966,404.854,614.279 M404.854,614.279c-1.558-0.248-3.175-0.431-4.8-0.431
		c-1.617,0-3.234,0.183-4.733,0.431c-3.798,0.687-7.292,2.122-10.342,4.24c2.426,2.622,4.667,4.985,6.67,7.104
		c1.113-0.623,2.367-1.184,3.672-1.559c1.499-0.43,3.057-0.623,4.733-0.623c1.692,0,3.242,0.193,4.8,0.623
		c1.247,0.375,2.493,0.876,3.621,1.499c2.055-2.122,4.236-4.422,6.603-7.044C412.088,616.401,408.593,614.966,404.854,614.279
		 M404.854,614.279c-1.558-0.248-3.175-0.431-4.8-0.431c-1.617,0-3.234,0.183-4.733,0.431c-3.798,0.687-7.292,2.122-10.342,4.24
		c2.426,2.622,4.667,4.985,6.67,7.104c1.113-0.623,2.367-1.184,3.672-1.559c1.499-0.43,3.057-0.623,4.733-0.623
		c1.692,0,3.242,0.193,4.8,0.623c1.247,0.375,2.493,0.876,3.621,1.499c2.055-2.122,4.236-4.422,6.603-7.044
		C412.088,616.401,408.593,614.966,404.854,614.279 M404.854,614.279c-1.558-0.248-3.175-0.431-4.8-0.431
		c-1.617,0-3.234,0.183-4.733,0.431c-3.798,0.687-7.292,2.122-10.342,4.24c2.426,2.622,4.667,4.985,6.67,7.104
		c1.113-0.623,2.367-1.184,3.672-1.559c1.499-0.43,3.057-0.623,4.733-0.623c1.692,0,3.242,0.193,4.8,0.623
		c1.247,0.375,2.493,0.876,3.621,1.499c2.055-2.122,4.236-4.422,6.603-7.044C412.088,616.401,408.593,614.966,404.854,614.279
		 M404.854,614.279c-1.558-0.248-3.175-0.431-4.8-0.431c-1.617,0-3.234,0.183-4.733,0.431c-3.798,0.687-7.292,2.122-10.342,4.24
		c2.426,2.622,4.667,4.985,6.67,7.104c1.113-0.623,2.367-1.184,3.672-1.559c1.499-0.43,3.057-0.623,4.733-0.623
		c1.692,0,3.242,0.193,4.8,0.623c1.247,0.375,2.493,0.876,3.621,1.499c2.055-2.122,4.236-4.422,6.603-7.044
		C412.088,616.401,408.593,614.966,404.854,614.279 M404.854,614.279c-1.558-0.248-3.175-0.431-4.8-0.431
		c-1.617,0-3.234,0.183-4.733,0.431c-3.798,0.687-7.292,2.122-10.342,4.24c2.426,2.622,4.667,4.985,6.67,7.104
		c1.113-0.623,2.367-1.184,3.672-1.559c1.499-0.43,3.057-0.623,4.733-0.623c1.692,0,3.242,0.193,4.8,0.623
		c1.247,0.375,2.493,0.876,3.621,1.499c2.055-2.122,4.236-4.422,6.603-7.044C412.088,616.401,408.593,614.966,404.854,614.279
		 M404.854,614.279c-1.558-0.248-3.175-0.431-4.8-0.431c-1.617,0-3.234,0.183-4.733,0.431c-3.798,0.687-7.292,2.122-10.342,4.24
		c2.426,2.622,4.667,4.985,6.67,7.104c1.113-0.623,2.367-1.184,3.672-1.559c1.499-0.43,3.057-0.623,4.733-0.623
		c1.692,0,3.242,0.193,4.8,0.623c1.247,0.375,2.493,0.876,3.621,1.499c2.055-2.122,4.236-4.422,6.603-7.044
		C412.088,616.401,408.593,614.966,404.854,614.279 M404.854,614.279c-1.558-0.248-3.175-0.431-4.8-0.431
		c-1.617,0-3.234,0.183-4.733,0.431c-3.798,0.687-7.292,2.122-10.342,4.24c2.426,2.622,4.667,4.985,6.67,7.104
		c1.113-0.623,2.367-1.184,3.672-1.559c1.499-0.43,3.057-0.623,4.733-0.623c1.692,0,3.242,0.193,4.8,0.623
		c1.247,0.375,2.493,0.876,3.621,1.499c2.055-2.122,4.236-4.422,6.603-7.044C412.088,616.401,408.593,614.966,404.854,614.279
		 M404.854,614.279v9.785c1.247,0.375,2.493,0.876,3.621,1.499c2.055-2.122,4.236-4.422,6.603-7.044
		C412.088,616.401,408.593,614.966,404.854,614.279 M404.854,614.279v9.785c1.247,0.375,2.493,0.876,3.621,1.499
		c2.055-2.122,4.236-4.422,6.603-7.044C412.088,616.401,408.593,614.966,404.854,614.279 M404.854,614.279v9.785
		c1.247,0.375,2.493,0.876,3.621,1.499c2.055-2.122,4.236-4.422,6.603-7.044C412.088,616.401,408.593,614.966,404.854,614.279
		 M426.235,634.726v-0.122c-0.816-3.428-2.241-6.732-4.362-9.541c-1.811-2.556-4.117-4.796-6.796-6.543
		c-2.989-2.118-6.484-3.554-10.224-4.24c-1.558-0.248-3.175-0.431-4.8-0.431c-1.617,0-3.234,0.183-4.733,0.431
		c-3.798,0.687-7.292,2.122-10.342,4.24c-2.619,1.747-4.926,3.987-6.736,6.609c-2.121,2.805-3.613,6.047-4.422,9.475v0.06
		c-0.438,2.059-0.689,3.987-0.689,6.169c0,1.057,0,2.181,0.252,3.182v0.123c1.625,13.272,12.961,23.618,26.671,23.618
		s25.12-10.346,26.745-23.618v-0.066c0.178-1.058,0.245-2.115,0.245-3.238C427.044,638.713,426.799,636.722,426.235,634.726
		 M416.954,645.005c-1.877,7.604-8.731,13.217-16.9,13.217c-8.16,0-15.016-5.612-16.885-13.217v-0.123
		c-0.312-1.246-0.497-2.682-0.497-4.05c0-1.87,0.244-3.613,0.809-5.294v-0.063c0.371-1.061,0.875-2.117,1.432-3.119
		c1.498-2.863,3.865-5.175,6.736-6.732c1.113-0.623,2.367-1.184,3.672-1.559c1.499-0.43,3.057-0.623,4.733-0.623
		c1.692,0,3.242,0.193,4.8,0.623c1.247,0.375,2.493,0.876,3.621,1.499v0.06c2.805,1.498,5.171,3.869,6.788,6.669
		c0.563,0.998,0.994,2.122,1.439,3.183v0.123c0.497,1.621,0.809,3.428,0.809,5.234c0,1.436-0.245,2.804-0.557,4.117V645.005z
		 M404.854,614.279v9.785c1.247,0.375,2.493,0.876,3.621,1.499c2.055-2.122,4.236-4.422,6.603-7.044
		C412.088,616.401,408.593,614.966,404.854,614.279 M404.854,614.279v9.785c1.247,0.375,2.493,0.876,3.621,1.499
		c2.055-2.122,4.236-4.422,6.603-7.044C412.088,616.401,408.593,614.966,404.854,614.279 M404.854,614.279v9.785
		c1.247,0.375,2.493,0.876,3.621,1.499c2.055-2.122,4.236-4.422,6.603-7.044C412.088,616.401,408.593,614.966,404.854,614.279
		 M404.854,614.279c-1.558-0.248-3.175-0.431-4.8-0.431c-1.617,0-3.234,0.183-4.733,0.431c-3.798,0.687-7.292,2.122-10.342,4.24
		c2.426,2.622,4.667,4.985,6.67,7.104c1.113-0.623,2.367-1.184,3.672-1.559c1.499-0.43,3.057-0.623,4.733-0.623
		c1.692,0,3.242,0.193,4.8,0.623c1.247,0.375,2.493,0.876,3.621,1.499c2.055-2.122,4.236-4.422,6.603-7.044
		C412.088,616.401,408.593,614.966,404.854,614.279 M404.854,614.279c-1.558-0.248-3.175-0.431-4.8-0.431
		c-1.617,0-3.234,0.183-4.733,0.431c-3.798,0.687-7.292,2.122-10.342,4.24c2.426,2.622,4.667,4.985,6.67,7.104
		c1.113-0.623,2.367-1.184,3.672-1.559c1.499-0.43,3.057-0.623,4.733-0.623c1.692,0,3.242,0.193,4.8,0.623
		c1.247,0.375,2.493,0.876,3.621,1.499c2.055-2.122,4.236-4.422,6.603-7.044C412.088,616.401,408.593,614.966,404.854,614.279
		 M404.854,614.279c-1.558-0.248-3.175-0.431-4.8-0.431c-1.617,0-3.234,0.183-4.733,0.431c-3.798,0.687-7.292,2.122-10.342,4.24
		c2.426,2.622,4.667,4.985,6.67,7.104c1.113-0.623,2.367-1.184,3.672-1.559c1.499-0.43,3.057-0.623,4.733-0.623
		c1.692,0,3.242,0.193,4.8,0.623c1.247,0.375,2.493,0.876,3.621,1.499c2.055-2.122,4.236-4.422,6.603-7.044
		C412.088,616.401,408.593,614.966,404.854,614.279 M404.854,614.279c-1.558-0.248-3.175-0.431-4.8-0.431
		c-1.617,0-3.234,0.183-4.733,0.431c-3.798,0.687-7.292,2.122-10.342,4.24c2.426,2.622,4.667,4.985,6.67,7.104
		c1.113-0.623,2.367-1.184,3.672-1.559c1.499-0.43,3.057-0.623,4.733-0.623c1.692,0,3.242,0.193,4.8,0.623
		c1.247,0.375,2.493,0.876,3.621,1.499c2.055-2.122,4.236-4.422,6.603-7.044C412.088,616.401,408.593,614.966,404.854,614.279
		 M404.854,614.279c-1.558-0.248-3.175-0.431-4.8-0.431c-1.617,0-3.234,0.183-4.733,0.431c-3.798,0.687-7.292,2.122-10.342,4.24
		c2.426,2.622,4.667,4.985,6.67,7.104c1.113-0.623,2.367-1.184,3.672-1.559c1.499-0.43,3.057-0.623,4.733-0.623
		c1.692,0,3.242,0.193,4.8,0.623c1.247,0.375,2.493,0.876,3.621,1.499c2.055-2.122,4.236-4.422,6.603-7.044
		C412.088,616.401,408.593,614.966,404.854,614.279 M404.854,614.279c-1.558-0.248-3.175-0.431-4.8-0.431
		c-1.617,0-3.234,0.183-4.733,0.431c-3.798,0.687-7.292,2.122-10.342,4.24c2.426,2.622,4.667,4.985,6.67,7.104
		c1.113-0.623,2.367-1.184,3.672-1.559c1.499-0.43,3.057-0.623,4.733-0.623c1.692,0,3.242,0.193,4.8,0.623
		c1.247,0.375,2.493,0.876,3.621,1.499c2.055-2.122,4.236-4.422,6.603-7.044C412.088,616.401,408.593,614.966,404.854,614.279
		 M404.854,614.279c-1.558-0.248-3.175-0.431-4.8-0.431c-1.617,0-3.234,0.183-4.733,0.431c-3.798,0.687-7.292,2.122-10.342,4.24
		c2.426,2.622,4.667,4.985,6.67,7.104c1.113-0.623,2.367-1.184,3.672-1.559c1.499-0.43,3.057-0.623,4.733-0.623
		c1.692,0,3.242,0.193,4.8,0.623c1.247,0.375,2.493,0.876,3.621,1.499c2.055-2.122,4.236-4.422,6.603-7.044
		C412.088,616.401,408.593,614.966,404.854,614.279 M404.854,614.279v9.785c1.247,0.375,2.493,0.876,3.621,1.499
		c2.055-2.122,4.236-4.422,6.603-7.044C412.088,616.401,408.593,614.966,404.854,614.279 M404.854,614.279v9.785
		c1.247,0.375,2.493,0.876,3.621,1.499c2.055-2.122,4.236-4.422,6.603-7.044C412.088,616.401,408.593,614.966,404.854,614.279
		 M404.854,614.279c-1.558-0.248-3.175-0.431-4.8-0.431c-1.617,0-3.234,0.183-4.733,0.431c-3.798,0.687-7.292,2.122-10.342,4.24
		c2.426,2.622,4.667,4.985,6.67,7.104c1.113-0.623,2.367-1.184,3.672-1.559c1.499-0.43,3.057-0.623,4.733-0.623
		c1.692,0,3.242,0.193,4.8,0.623c1.247,0.375,2.493,0.876,3.621,1.499c2.055-2.122,4.236-4.422,6.603-7.044
		C412.088,616.401,408.593,614.966,404.854,614.279 M404.854,614.279c-1.558-0.248-3.175-0.431-4.8-0.431
		c-1.617,0-3.234,0.183-4.733,0.431c-3.798,0.687-7.292,2.122-10.342,4.24c2.426,2.622,4.667,4.985,6.67,7.104
		c1.113-0.623,2.367-1.184,3.672-1.559c1.499-0.43,3.057-0.623,4.733-0.623c1.692,0,3.242,0.193,4.8,0.623
		c1.247,0.375,2.493,0.876,3.621,1.499c2.055-2.122,4.236-4.422,6.603-7.044C412.088,616.401,408.593,614.966,404.854,614.279
		 M404.854,614.279c-1.558-0.248-3.175-0.431-4.8-0.431c-1.617,0-3.234,0.183-4.733,0.431c-3.798,0.687-7.292,2.122-10.342,4.24
		c2.426,2.622,4.667,4.985,6.67,7.104c1.113-0.623,2.367-1.184,3.672-1.559c1.499-0.43,3.057-0.623,4.733-0.623
		c1.692,0,3.242,0.193,4.8,0.623c1.247,0.375,2.493,0.876,3.621,1.499c2.055-2.122,4.236-4.422,6.603-7.044
		C412.088,616.401,408.593,614.966,404.854,614.279"/>
</g>
    <g>
	<path fill="#2887C8" d="M391.648,625.627c-2.871,1.554-5.238,3.865-6.736,6.729c-2.055-2.178-4.236-4.552-6.67-7.223
		c-18.072-19.89-46.049-53.979-68.609-96.482c-2.182-4.051-4.303-8.227-6.365-12.46c-16.886-34.527-29.535-73.854-30.655-115.174
		c-0.133-2.055-0.133-4.11-0.133-6.232c0-2.059,0-4.177,0.133-6.236c1.121-41,13.644-80.079,30.344-114.358
		c2.063-4.24,4.184-8.417,6.298-12.467c22.688-42.566,50.798-76.718,68.93-96.601c2.373-2.615,4.614-5.045,6.669-7.163
		c1.558,2.805,3.858,5.171,6.67,6.729c-1.996,2.122-4.177,4.422-6.61,7.044c-11.47,12.527-26.982,30.852-42.443,53.412
		c-7.664,11.154-15.766,23.993-23.369,38.137c-1.93,3.55-3.865,7.174-5.668,10.909c-16.768,33.526-30.351,73.477-31.286,115.672
		v0.063c-0.126,1.617-0.126,3.234-0.126,4.859c0,1.68,0,3.246,0.126,4.863v0.06c0.935,41.883,14.208,81.768,31.664,116.483
		c1.796,3.609,3.673,7.163,5.602,10.661c21.752,40.255,48.304,72.602,65.567,91.672
		C387.404,621.142,389.646,623.505,391.648,625.627"/>
</g>
    <g>
	<path fill="#2887C8" d="M484.629,539.245c-1.558,2.863-3.242,5.675-4.859,8.35c-20.193,33.655-42.569,60.709-57.896,77.468
		c-2.374,2.682-4.615,5.053-6.61,7.229c-1.617-2.8-3.991-5.171-6.796-6.669v-0.06c2.063-2.122,4.244-4.422,6.61-7.044
		c14.964-16.455,36.775-42.878,56.524-75.717c1.684-2.749,3.302-5.617,4.926-8.417C478.709,536.693,481.514,538.439,484.629,539.245
		"/>
</g>
    <g>
	<path fill="#2887C8" d="M484.94,251.07c-3.116,0.742-5.92,2.43-8.101,4.611c-1.625-2.871-3.242-5.676-4.927-8.409
		c-4.792-7.986-9.659-15.461-14.399-22.32c-15.387-22.435-30.841-40.689-42.251-53.219c-2.434-2.619-4.674-4.922-6.67-7.041
		c2.812-1.558,5.112-3.928,6.67-6.669c2.063,2.051,4.303,4.481,6.67,7.104c15.394,16.885,37.828,43.871,58.082,77.464
		C481.699,245.395,483.383,248.206,484.94,251.07"/>
</g>
    <g>
	<path fill="#2887C8" d="M527.695,394.781c0,1.31,0,2.556-0.059,3.869c-0.623,35.896-10.038,70.293-23.37,101.393
		c-1.253,2.994-2.618,5.987-3.999,8.914c-2.418-1.992-5.355-3.364-8.657-3.799c1.372-2.934,2.737-5.92,3.983-8.98
		c12.59-29.352,21.441-61.572,22.376-95.165c0.134-2.051,0.134-4.173,0.134-6.232c0-2.059-0.067-4.177-0.134-6.228
		c-0.994-33.715-9.964-65.88-22.123-94.483c-1.247-3.053-2.552-6.046-3.925-8.973c3.242-0.438,6.239-1.877,8.599-3.865
		c1.372,2.923,2.678,5.924,3.991,8.91c13.146,30.914,22.502,65.067,23.125,100.774C527.695,392.162,527.695,393.475,527.695,394.781
		"/>
</g>
    <g>
	<path fill="#2887C8" d="M404.854,166.246v211.775c-1.558-0.375-3.107-0.623-4.8-0.623c-1.677,0-3.234,0.249-4.733,0.623V166.246
		c1.499,0.434,3.057,0.687,4.733,0.687C401.746,166.933,403.296,166.68,404.854,166.246"/>
</g>
    <g>
	<path fill="#2887C8" d="M404.854,411.551v212.514c-1.558-0.43-3.107-0.623-4.8-0.623c-1.677,0-3.234,0.193-4.733,0.623V411.551
		c1.499,0.431,3.057,0.623,4.733,0.623C401.746,412.174,403.296,411.981,404.854,411.551"/>
</g>
    <g>
	<path fill="#2887C8" d="M382.672,388.553c0.371,0,0.742,0.06,1.12,0.126c-0.749,1.87-1.12,3.921-1.12,6.102s0.371,4.24,1.12,6.117
		c-0.378,0.052-0.749,0.119-1.12,0.119"/>
</g>
    <g>
	<path fill="#2887C8" d="M404.854,264.027v7.919c-1.18,1.373-2.863,2.241-4.8,2.241h-56.027c-3.427,0-6.231-2.804-6.231-6.232
		c0-3.424,2.805-6.228,6.231-6.228h56.027C401.99,261.727,403.733,262.603,404.854,264.027"/>
</g>
    <g>
	<path fill="#2887C8" d="M472.418,263.404v9.103c-1.128,1.057-2.619,1.68-4.244,1.68h-37.896c-3.42,0-6.225-2.804-6.225-6.232
		c0-3.424,2.805-6.228,6.225-6.228h37.896C469.799,261.727,471.29,262.35,472.418,263.404"/>
</g>
    <g>
	<path fill="#2887C8" d="M472.536,517.122v0.063l-0.312,9.163c-1.12,0.934-2.492,1.494-4.051,1.494h-37.888
		c-3.428,0-6.232-2.805-6.232-6.235c0-3.428,2.805-6.231,6.232-6.231h37.888C469.858,515.375,471.416,516.061,472.536,517.122"/>
</g>
    <g>
	<path fill="#2887C8" d="M404.854,517.686v7.916c-1.18,1.365-2.863,2.24-4.8,2.24h-56.027c-3.427,0-6.231-2.805-6.231-6.231
		c0-3.432,2.805-6.235,6.231-6.235h56.027C401.99,515.375,403.733,516.25,404.854,517.686"/>
</g>
    <g>
	<path fill="#2887C8" d="M282.146,389.858v9.849c-1.061,0.813-2.433,1.306-3.865,1.306h-73.477c-3.427,0-6.231-2.804-6.231-6.228
		c0-3.428,2.804-6.232,6.231-6.232h73.477C279.712,388.553,281.085,389.046,282.146,389.858"/>
</g>
    <g>
	<path fill="#2887C8" d="M319.1,263.285c-1.93,3.546-3.865,7.163-5.676,10.909h-71.919c-3.427,0-6.224-2.812-6.224-6.239
		c0-3.424,2.797-6.228,6.224-6.228h73.477C316.547,261.727,317.979,262.287,319.1,263.285"/>
</g>
    <g>
	<path fill="#2887C8" d="M319.411,526.848c-1.12,1.117-2.737,1.807-4.43,1.807h-73.477c-3.427,0-6.224-2.805-6.224-6.235
		c0-3.428,2.797-6.231,6.224-6.231h72.305C315.612,519.804,317.482,523.361,319.411,526.848"/>
</g>
    <g>
	<path fill="#2887C8" d="M629.097,390.481c-0.504,1.621-0.749,3.309-0.749,5.052c0,1.31,0.126,2.545,0.497,3.798v0.063
		c-1.128,0.994-2.619,1.617-4.243,1.617h-60.761c-3.428,0-6.232-2.804-6.232-6.228c0-3.428,2.805-6.232,6.232-6.232h60.761
		c0.311,0,0.697,0,1.001,0.122c0.186,0,0.312,0,0.438,0.063c0.564,0.126,1.062,0.312,1.559,0.623c0.185,0.06,0.43,0.189,0.623,0.371
		c0.186,0.13,0.371,0.249,0.563,0.441l0.245,0.249h0.066V390.481z"/>
</g>
    <g>
	<path fill="#2887C8" d="M615.691,267.959c-0.179,3.242-2.864,5.794-6.166,5.794h-67.252c-3.428,0-6.225-2.804-6.225-6.235
		c0-3.428,2.797-6.232,6.225-6.232h67.252c0.809,0,1.559,0.193,2.301,0.441l3.687,5.979
		C615.572,267.773,615.632,267.829,615.691,267.959"/>
</g>
    <g>
	<path fill="#2887C8" d="M615.758,521.61c0,0.249,0,0.438-0.06,0.623c-0.875,1.558-1.81,3.053-2.804,4.61
		c-1.002,0.623-2.122,0.994-3.369,0.994h-67.244c-3.428,0-6.232-2.804-6.232-6.228c0-3.428,2.805-6.231,6.232-6.231h67.244
		C612.953,515.379,615.758,518.183,615.758,521.61"/>
</g>
    <g>
	<path fill="#2887C8" d="M160.491,369.293c-0.371,3.176-0.683,6.358-0.875,9.534c-1.618-0.434-3.427-0.746-5.23-0.746
		c-1.439,0-2.745,0.189-4.11,0.563c0.178-3.305,0.43-6.61,0.801-9.845c1.127-0.193,2.181-0.252,3.309-0.252
		C156.5,368.548,158.495,368.8,160.491,369.293"/>
</g>
    <g>
	<path fill="#2887C8" d="M383.48,154.713c-3.242,0.193-6.477,0.504-9.66,0.935c-1.246,0.063-2.433,0.252-3.68,0.375
		c-4.926,0.623-9.785,1.373-14.578,2.248c-4.859,0.935-9.607,1.988-14.333,3.176c-4.74,1.187-9.354,2.493-14.028,3.987
		c-4.549,1.436-9.096,3.053-13.584,4.804c-4.489,1.677-8.91,3.546-13.28,5.542c-4.355,2-8.599,4.11-12.835,6.362
		c-4.169,2.177-8.346,4.541-12.396,7.041c-4.051,2.434-8.042,5.045-11.907,7.727c-3.925,2.682-7.724,5.486-11.403,8.417
		c-3.746,2.927-7.419,5.92-10.972,9.032c-3.495,3.183-6.981,6.358-10.342,9.726c-1.75,1.684-3.427,3.487-5.111,5.234h-0.066
		c0,0-4.044,0.435-5.735-1.246c-1.736-1.681-1.483-4.552-1.483-4.552c3.175-3.427,6.477-6.729,9.904-9.967
		c3.427-3.242,6.914-6.425,10.527-9.411c3.554-3.057,7.233-6.046,11.032-8.851c3.747-2.871,7.604-5.608,11.529-8.228
		c3.932-2.623,7.916-5.175,11.967-7.545c4.11-2.43,8.228-4.733,12.464-6.922c4.184-2.178,8.472-4.229,12.842-6.165
		c4.362-1.933,8.784-3.799,13.272-5.486c4.488-1.681,8.969-3.238,13.592-4.674c4.614-1.495,9.28-2.801,13.954-3.988
		c4.741-1.183,9.474-2.241,14.274-3.116c4.793-0.935,9.659-1.684,14.578-2.308c1.811-0.245,3.62-0.434,5.363-0.623
		c3.176-0.371,6.299-0.623,9.415-0.868h0.371c-0.312,1.369-0.505,2.682-0.505,4.11C382.664,151.29,382.916,153.096,383.48,154.713"
    />
</g>
    <g>
	<path fill="#2887C8" d="M649.906,378.641c-1.305-0.371-2.737-0.56-4.176-0.56c-1.811,0-3.547,0.312-5.164,0.746
		c-0.193-3.175-0.504-6.351-0.816-9.534c-3.672-34.523-14.764-66.94-31.529-95.54c-2.493-4.24-5.112-8.417-7.857-12.467
		c-38.637-57.708-101.646-97.84-174.128-105.697c-3.176-0.371-6.358-0.623-9.533-0.872c0.497-1.618,0.809-3.428,0.809-5.234
		c0-1.436-0.253-2.745-0.563-4.118c3.309,0.249,6.603,0.5,9.844,0.872c77.84,8.294,145.15,52.418,185.042,115.49l3.68,5.979
		c0.06,0.067,0.119,0.126,0.179,0.249c17.82,30.106,29.541,64.318,33.406,100.841C649.41,372.035,649.722,375.34,649.906,378.641"/>
</g>
    <g>
	<path fill="#2887C8" d="M382.672,640.832c0,1.368,0.186,2.804,0.497,4.05c-3.302-0.188-6.544-0.434-9.778-0.871
		c-107.759-11.403-195.332-91.493-217.944-195.569c-1.313-6.169-2.434-12.404-3.375-18.759c-0.371-2.489-0.624-4.981-0.861-7.481
		c-0.386-3.234-0.697-6.54-0.875-9.778c1.306,0.312,2.611,0.493,4.051,0.493c1.803,0,3.612-0.312,5.289-0.871
		c0.193,3.245,0.505,6.421,0.876,9.662c0.252,2.43,0.563,4.801,0.875,7.227c0.935,6.235,2.055,12.404,3.361,18.451
		c22.123,99.527,105.89,176.12,209.034,187.281c3.176,0.431,6.418,0.683,9.66,0.872
		C382.924,637.219,382.672,638.966,382.672,640.832"/>
</g>
    <g>
	<path fill="#2887C8" d="M649.848,412.419c-0.193,3.31-0.497,6.544-0.875,9.786c-3.858,36.207-15.514,70.111-33.281,100.028
		c-0.868,1.558-1.803,3.057-2.805,4.614c-39.691,64.003-107.566,108.88-186.096,117.226c-3.234,0.375-6.543,0.624-9.844,0.876
		c0.311-1.306,0.563-2.682,0.563-4.117c0-1.811-0.312-3.617-0.816-5.234c3.242-0.252,6.417-0.493,9.533-0.876
		c72.987-7.915,136.308-48.545,174.944-106.88c2.679-4.051,5.238-8.228,7.724-12.467c16.27-28.1,26.989-59.826,30.729-93.671
		c0.379-3.175,0.69-6.358,0.935-9.593c1.685,0.493,3.369,0.805,5.179,0.805C647.162,412.916,648.542,412.73,649.848,412.419"/>
</g>
    <g>
	<path fill="#2887C8" d="M185.797,284.907c-1.499,2.867-2.938,5.798-4.244,8.721c-1.053,2.252-2.055,4.492-3.056,6.733
		c-2.426,5.675-4.667,11.473-6.663,17.39c-2.804,8.417-5.238,17.015-7.167,25.866c0,0-1.811,1.81-4.614,1.499
		c-2.931-0.312-4.674-2.56-4.674-2.56c1.996-9.786,4.733-19.382,7.849-28.674c2.063-5.976,4.362-11.896,6.922-17.631
		c0.994-2.311,1.988-4.611,3.116-6.859c1.306-2.986,2.745-5.92,4.236-8.784C179.743,282.73,182.622,284.225,185.797,284.907"/>
</g>
    <g>
	<path fill="#2887C8" d="M208.603,249.074c-1.988,2.552-3.865,5.111-5.735,7.734c-1.988-2.371-4.674-4.248-7.664-5.305
		c1.869-2.682,3.806-5.293,5.794-7.916C203.862,244.957,206.421,246.771,208.603,249.074"/>
</g>
    <g>
	<path fill="#2887C8" d="M210.781,145.05c2.566,2.927,4.101,6.176,4.607,9.749c0.506,3.572-0.089,7.213-1.782,10.924
		c-1.694,3.712-4.424,7.218-8.19,10.519c-3.142,2.755-5.971,4.845-8.488,6.272s-5.408,2.601-8.673,3.522l-9.961-11.362
		c3.525-0.883,6.908-2.126,10.146-3.729c3.239-1.602,5.956-3.365,8.15-5.29c1.894-1.66,2.994-3.205,3.301-4.636
		c0.307-1.429,0.007-2.661-0.898-3.693c-0.566-0.646-1.239-1.055-2.019-1.228c-0.779-0.173-1.779-0.162-2.998,0.031
		c-1.219,0.194-4.199,1.018-8.938,2.47c-4.303,1.299-7.8,1.967-10.489,2.003c-2.689,0.037-5.15-0.47-7.383-1.52
		c-2.232-1.048-4.368-2.735-6.406-5.059c-3.811-4.347-5.2-9.122-4.169-14.328c1.032-5.204,4.312-10.231,9.843-15.08
		c4.884-4.283,10.856-7.52,17.916-9.713l4.726,13.269c-6.185,1.845-10.88,4.173-14.086,6.983c-1.657,1.453-2.607,2.8-2.851,4.041
		c-0.244,1.242,0.011,2.293,0.766,3.154c0.812,0.926,2.016,1.334,3.616,1.226c1.598-0.108,5.366-1.052,11.304-2.832
		c5.671-1.736,10.216-2.25,13.637-1.538C204.882,139.917,207.989,141.865,210.781,145.05z"/>
</g>
    <g>
	<path fill="#2887C8" d="M254.29,117.379c2.054,3.307,3.038,6.762,2.953,10.369c-0.084,3.607-1.266,7.102-3.542,10.487
		c-2.277,3.385-5.543,6.399-9.797,9.041c-3.549,2.205-6.683,3.804-9.398,4.802c-2.716,0.997-5.76,1.683-9.131,2.059l-7.973-12.837
		c3.623-0.295,7.162-0.97,10.619-2.022c3.457-1.052,6.425-2.347,8.905-3.887c2.139-1.329,3.477-2.673,4.013-4.035
		c0.537-1.359,0.442-2.624-0.283-3.79c-0.453-0.729-1.05-1.244-1.791-1.541c-0.74-0.298-1.729-0.45-2.963-0.459
		c-1.235-0.007-4.309,0.318-9.222,0.978c-4.458,0.579-8.017,0.667-10.676,0.263c-2.659-0.403-5.004-1.305-7.035-2.704
		c-2.032-1.4-3.863-3.413-5.494-6.038c-3.05-4.91-3.642-9.849-1.774-14.816c1.868-4.966,5.925-9.39,12.173-13.271
		c5.519-3.427,11.939-5.646,19.262-6.657l2.495,13.861c-6.403,0.811-11.416,2.34-15.038,4.59c-1.872,1.163-3.029,2.337-3.472,3.522
		c-0.444,1.184-0.362,2.264,0.241,3.235c0.65,1.046,1.771,1.647,3.367,1.801c1.595,0.156,5.466-0.162,11.615-0.948
		c5.878-0.788,10.447-0.551,13.706,0.71C249.309,111.352,252.056,113.782,254.29,117.379z"/>
</g>
    <g>
	<path fill="#2887C8"
          d="M270.806,130.6l-23.915-58.023l15.677-6.461l18.697,45.363l22.345-9.209l5.218,12.66L270.806,130.6z"/>
</g>
    <g>
</g>
    <g>
	<path fill="#2887C8" d="M375.135,82.498c0.582,3.849,0.123,7.412-1.379,10.693c-1.5,3.281-3.966,6.026-7.394,8.238
		c-3.429,2.211-7.619,3.691-12.57,4.439c-4.132,0.625-7.642,0.858-10.53,0.703c-2.889-0.157-5.957-0.728-9.202-1.713l-2.259-14.94
		c3.445,1.158,6.964,1.936,10.555,2.333c3.592,0.398,6.83,0.379,9.717-0.058c2.489-0.376,4.249-1.084,5.279-2.123
		c1.029-1.038,1.441-2.237,1.236-3.594c-0.129-0.85-0.474-1.558-1.037-2.123c-0.563-0.567-1.41-1.097-2.541-1.592
		c-1.132-0.494-4.085-1.408-8.859-2.741c-4.324-1.228-7.629-2.551-9.913-3.972c-2.284-1.42-4.083-3.174-5.397-5.263
		c-1.314-2.086-2.202-4.659-2.664-7.716c-0.864-5.715,0.542-10.485,4.219-14.313c3.676-3.826,9.149-6.289,16.422-7.389
		c6.423-0.971,13.198-0.477,20.325,1.485l-3.178,13.722c-6.203-1.782-11.413-2.355-15.629-1.718c-2.18,0.33-3.706,0.951-4.58,1.864
		c-0.876,0.914-1.227,1.937-1.056,3.068c0.184,1.217,0.978,2.211,2.383,2.983c1.403,0.772,5.086,2.01,11.046,3.713
		c5.712,1.598,9.815,3.617,12.313,6.063C372.938,74.994,374.502,78.31,375.135,82.498z"/>
</g>
    <g>
	<path fill="#2887C8" d="M422.591,101.722l-37.256-0.604l1.017-62.75l37.256,0.604l-0.221,13.606l-20.302-0.329l-0.16,9.872
		l18.799,0.305l-0.22,13.605l-18.799-0.305l-0.192,11.847l20.302,0.329L422.591,101.722z"/>
</g>
    <g>
	<path fill="#2887C8" d="M467.445,58.197c-3.972-0.716-7.363,0.353-10.174,3.204c-2.812,2.852-4.732,7.137-5.763,12.854
		c-2.143,11.886,1.307,18.643,10.348,20.272c2.731,0.492,5.448,0.589,8.148,0.291c2.698-0.298,5.441-0.749,8.226-1.352
		l-2.544,14.109c-5.564,1.353-11.601,1.443-18.105,0.271c-9.323-1.681-15.982-5.672-19.979-11.976
		c-3.997-6.304-5.073-14.567-3.23-24.791c1.152-6.393,3.368-11.795,6.65-16.206c3.28-4.41,7.417-7.51,12.406-9.301
		c4.99-1.79,10.541-2.135,16.652-1.033c6.675,1.203,12.793,3.804,18.354,7.801l-7.479,12.217c-2.09-1.481-4.208-2.793-6.356-3.938
		C472.448,59.478,470.065,58.669,467.445,58.197z"/>
</g>
    <g>
	<path fill="#2887C8" d="M557.026,73.826l-13.992,35.088c-3.043,7.629-7.559,12.676-13.548,15.14
		c-5.99,2.464-13.051,2.074-21.186-1.169c-7.948-3.17-13.244-7.639-15.889-13.407c-2.645-5.769-2.445-12.467,0.597-20.096
		l14.136-35.448l15.829,6.312l-13.643,34.211c-1.644,4.121-2.065,7.418-1.265,9.894c0.799,2.476,2.701,4.312,5.706,5.51
		c3.216,1.283,5.917,1.29,8.102,0.02c2.186-1.27,4.116-4.004,5.792-8.205l13.61-34.131L557.026,73.826z"/>
</g>
    <g>
	<path fill="#2887C8" d="M569.299,127.466l-12.585,19.057l-14.149-9.344l34.584-52.37l17.159,11.331
		c14.232,9.398,17.942,19.257,11.13,29.573c-4.006,6.065-10.066,8.803-18.18,8.211l0.19,32.895l-16.047-10.597l1.479-26.39
		L569.299,127.466z M576.324,116.827l2.651,1.75c4.942,3.264,8.856,2.711,11.743-1.659c2.381-3.605,1.147-7.01-3.7-10.211
		l-2.794-1.845L576.324,116.827z"/>
</g>
    <g>
	<path fill="#2887C8" d="M616.255,195.264l-27.083-25.591l43.104-45.616l27.083,25.591l-9.347,9.891l-14.759-13.945l-6.78,7.176
		l13.666,12.913l-9.346,9.891l-13.666-12.913l-8.138,8.612l14.759,13.945L616.255,195.264z"/>
</g>
    <g>
	<path fill="#2887C8" d="M264.479,724.196l-17.18-8.718l6.74-26.048c0.251-1.104,0.855-3.251,1.809-6.438
		c0.952-3.187,1.805-5.822,2.557-7.909c-1.007,1.495-2.33,3.313-3.973,5.456c-1.643,2.144-3.183,4.099-4.618,5.868
		c-1.438,1.769-7.304,8.908-17.599,21.418l-17.181-8.718l13.973-60.544l14.017,7.113l-7.834,29.934
		c-1.698,6.632-3.199,11.838-4.5,15.619c1.587-2.341,3.88-5.447,6.88-9.323c2.999-3.874,5.57-7.042,7.713-9.502l15.069-17.937
		l13.465,6.832l-5.724,22.678c-0.871,3.66-1.984,7.83-3.339,12.508c-1.357,4.679-2.436,8.141-3.235,10.387
		c1.7-2.561,4.966-6.84,9.799-12.839l19.679-24.017l14.017,7.112L264.479,724.196z"/>
</g>
    <g>
	<path fill="#2887C8" d="M331.892,743.835l-34.728-8.732l14.709-58.493l34.728,8.732l-3.189,12.684l-18.925-4.759l-2.313,9.202
		l17.524,4.406l-3.189,12.683l-17.524-4.407l-2.776,11.043l18.924,4.759L331.892,743.835z"/>
</g>
    <g>
	<path fill="#2887C8" d="M355.766,687.07l20.98,1.581c8.172,0.615,14.147,2.285,17.929,5.012c3.779,2.726,5.477,6.652,5.091,11.78
		c-0.254,3.373-1.335,6.188-3.242,8.444c-1.908,2.255-4.3,3.62-7.177,4.092l-0.031,0.412c3.655,1.269,6.232,3.117,7.732,5.547
		c1.499,2.43,2.11,5.482,1.834,9.157c-0.411,5.458-2.784,9.602-7.121,12.433c-4.337,2.832-10.043,3.981-17.118,3.448l-23.407-1.764
		L355.766,687.07z M369.381,723.261l-0.951,12.63l5.719,0.431c5.073,0.382,7.771-1.566,8.094-5.845
		c0.15-2.001-0.412-3.589-1.689-4.761s-3.205-1.854-5.782-2.049L369.381,723.261z M370.276,711.372l4.896,0.369
		c2.33,0.175,4.17-0.168,5.518-1.032c1.349-0.864,2.093-2.242,2.235-4.135c0.254-3.373-2.17-5.251-7.271-5.636l-4.566-0.344
		L370.276,711.372z"/>
</g>
    <g>
	<path fill="#2887C8" d="M454.797,727.817c0.366,3.723-0.253,7.121-1.857,10.193c-1.604,3.073-4.107,5.586-7.507,7.537
		c-3.401,1.95-7.497,3.162-12.287,3.633c-3.996,0.394-7.376,0.442-10.141,0.147c-2.766-0.294-5.681-0.995-8.747-2.104l-1.421-14.451
		c3.249,1.283,6.587,2.206,10.014,2.767c3.427,0.562,6.536,0.704,9.328,0.43c2.408-0.236,4.132-0.827,5.173-1.772
		c1.04-0.945,1.495-2.075,1.366-3.39c-0.081-0.82-0.378-1.517-0.89-2.089c-0.513-0.57-1.299-1.122-2.359-1.653
		c-1.062-0.531-3.85-1.556-8.365-3.074c-4.089-1.394-7.194-2.828-9.315-4.307c-2.121-1.477-3.76-3.25-4.917-5.32
		c-1.157-2.068-1.881-4.581-2.172-7.537c-0.544-5.528,1.044-10.037,4.764-13.526c3.719-3.488,9.095-5.579,16.13-6.271
		c6.213-0.61,12.69,0.203,19.433,2.442l-3.736,13.01c-5.864-2.021-10.835-2.831-14.912-2.43c-2.108,0.207-3.604,0.729-4.49,1.562
		s-1.273,1.797-1.166,2.892c0.115,1.178,0.828,2.171,2.138,2.981c1.31,0.812,4.781,2.183,10.415,4.115
		c5.402,1.818,9.241,3.962,11.516,6.434C453.063,720.506,454.398,723.767,454.797,727.817z"/>
</g>
    <g>
	<path fill="#2887C8" d="M472.389,742.572l-13.612-58.756l15.955-3.697l13.612,58.757L472.389,742.572z"/>
</g>
    <g>
	<path fill="#2887C8" d="M532.457,724.41l-15.254,5.732l-16.528-43.984l-13.787,5.181l-4.687-12.473l42.788-16.079l4.687,12.473
		l-13.747,5.166L532.457,724.41z"/>
</g>
    <g>
	<path fill="#2887C8" d="M592.599,693.726l-31.083,17.779l-29.946-52.354l31.083-17.779l6.493,11.353l-16.938,9.688l4.711,8.235
		l15.685-8.972l6.493,11.352L563.412,682l5.652,9.884l16.938-9.688L592.599,693.726z"/>
</g>
    <g>
	<path fill="#2887C8" d="M648.668,597.224c-0.166,0-0.333-0.055-0.473-0.167c-0.321-0.261-0.371-0.733-0.11-1.056
		c45.892-56.615,71.165-127.943,71.165-200.846c0-56.507-15.075-112.129-43.595-160.852c-0.209-0.357-0.089-0.817,0.269-1.026
		c0.356-0.209,0.816-0.089,1.026,0.269c28.654,48.953,43.8,104.836,43.8,161.609c0,37.397-6.392,74.039-18.996,108.907
		c-12.171,33.668-29.836,64.919-52.503,92.884C649.103,597.129,648.886,597.224,648.668,597.224z"/>
</g>
    <g>
	<path fill="#2887C8" d="M151.448,597.221c-0.218,0-0.435-0.095-0.583-0.277c-22.669-27.96-40.333-59.209-52.503-92.879
		c-12.6-34.862-18.989-71.504-18.989-108.905c0-56.788,15.146-112.674,43.799-161.617c0.21-0.357,0.67-0.476,1.026-0.269
		c0.357,0.209,0.478,0.669,0.269,1.026c-28.52,48.713-43.594,104.338-43.594,160.859c0,72.916,25.271,144.242,71.157,200.839
		c0.261,0.322,0.211,0.794-0.11,1.056C151.781,597.166,151.614,597.221,151.448,597.221z"/>
</g>
    <g>
	<path fill="#FFFFFF" d="M488.45,395.155c0,46.168-37.421,83.593-83.589,83.593s-83.596-37.425-83.596-83.593
		c0-46.164,37.428-83.588,83.596-83.588S488.45,348.992,488.45,395.155"/>
</g>
    <g>
	<path fill="#2887C8" d="M404.861,479.498c-46.508,0-84.346-37.836-84.346-84.343c0-46.504,37.837-84.338,84.346-84.338
		c46.505,0,84.339,37.834,84.339,84.338C489.2,441.662,451.366,479.498,404.861,479.498z M404.861,312.317
		c-45.681,0-82.846,37.161-82.846,82.838c0,45.68,37.165,82.843,82.846,82.843c45.678,0,82.839-37.163,82.839-82.843
		C487.7,349.478,450.539,312.317,404.861,312.317z"/>
</g>
    <g>
	<path fill="#E4F0CC" d="M463.945,395.155c0,32.632-26.455,59.084-59.092,59.084c-32.628,0-59.084-26.452-59.084-59.084
		c0-32.628,26.456-59.08,59.084-59.08C437.49,336.075,463.945,362.527,463.945,395.155"/>
</g>
    <g>
	<path fill="#0B9D49" d="M445.221,376.304c0,1.391-0.49,2.571-1.462,3.542l-37.703,37.702l-7.085,7.09
		c-0.979,0.971-2.145,1.457-3.539,1.457c-1.387,0-2.574-0.486-3.538-1.457l-7.085-7.09l-18.852-18.847
		c-0.973-0.979-1.454-2.151-1.454-3.546c0-1.383,0.481-2.57,1.454-3.542l7.077-7.081c0.972-0.972,2.151-1.458,3.546-1.458
		c1.381,0,2.567,0.486,3.539,1.458l15.313,15.364l34.164-34.219c0.973-0.965,2.159-1.458,3.531-1.458
		c1.395,0,2.582,0.493,3.554,1.458l7.078,7.088C444.73,373.737,445.221,374.917,445.221,376.304"/>
</g>
</svg>
