<svg xmlns="http://www.w3.org/2000/svg" id="Layer_1" width="800" height="800" x="0" y="0" enable-background="new 0 0 800 800" version="1.1" viewBox="0 0 800 800" xml:space="preserve"><path fill="#E4F0CC" d="M522.496,279.122c-8.019-28.137-24.519-51.613-45.986-68.3c-18.563-14.557-40.809-24.063-64.422-27.23	c-17.528-2.33-35.897-1.163-54.006,3.951c-15.005,4.263-28.655,10.925-40.681,19.462l4.848,94.816H262.1	c-1.681,16.298-0.389,33.245,4.402,49.995c6.53,23.159,18.88,43.21,34.989,58.927L186.237,617.382l8.988,31.826l2.519,8.928	l2.007,7.048l47.798-13.587l13.321-23.863l33.438-9.5l-9.503-33.444l5.948-10.738l33.438-9.442l-9.507-33.438l6.011-10.803	l33.444-9.503l-9.507-33.444l18.239-32.659c21.665,5.307,44.955,5.307,67.912-1.229	C501.539,423.483,542.543,349.881,522.496,279.122 M441.324,237.982c0,0,0.065,0,0.065,0.068c7.89,4.07,14.097,11.314,16.75,20.565	c5.041,17.784-5.235,36.285-23.09,41.332c-8.217,2.323-16.561,1.419-23.675-2.007c-5.496-2.652-10.221-6.795-13.581-12.032	c-1.748-2.718-3.17-5.689-4.077-8.991c-5.107-17.851,5.243-36.349,23.023-41.389c2.266-0.648,4.596-1.037,6.86-1.233	C429.873,233.845,435.951,235.204,441.324,237.982 M306.146,215.992c-3.359,2.914-6.466,6.081-9.447,9.316	c-13.773,14.873-23.991,32.79-29.746,52.258c-0.97,3.173-1.814,6.402-2.525,9.702h38.737c1.296,0,2.592-0.518,3.496-1.488	c0.907-0.904,1.425-2.199,1.359-3.489L306.146,215.992z"/><path fill="#0B9D49" d="M225.397,501.916l-24.162,42.909c2.428,1.959,4.807,3.816,7.519,5.385l23.548-42.22	C229.301,506.792,226.159,505.342,225.397,501.916"/><path fill="#0B9D49" d="M288.941,399.486c-15.973-15.458-27.682-35.122-33.826-56.787c-3.875-13.649-5.366-27.422-4.725-40.879	h-9.247c-0.642,14.301,0.97,28.915,5.11,43.398c6.273,22.061,17.919,42.169,33.763,58.407l-20.751,37.192	c3.125-0.507,6.492,0.876,8.653,3.314l21.8-39.088C290.752,403.241,290.43,400.975,288.941,399.486"/><path fill="#0B9D49" d="M253.756,277.57c6.466-26.649,21.345-50.772,42.492-68.43c3.043-2.588,6.213-5.047,9.51-7.313l-0.326-10.733	c-3.293,2.007-6.463,4.203-9.506,6.533c-26.197,19.727-44.37,48.25-51.483,79.943c-0.778,3.17-1.425,6.399-1.877,9.703h9.25	C252.334,284.036,253.045,280.806,253.756,277.57"/><path fill="#0B9D49" d="M343.594,184.04c8.35-2.367,15.591-3.726,23.921-4.38c-1.346-1.694-1.056-3.897-1.056-5.878	c0-1.22,0.247-2.316,0.648-3.306c-8.66,0.733-17.373,2.247-26.032,4.706c-8.739,2.458-17.016,5.761-24.841,9.766l0.515,10.157	C325.093,190.513,334.021,186.761,343.594,184.04"/><path fill="#0B9D49" d="M490.469,244.423c1.488-2.879,4.402-5.047,7.566-5.344c-5.998-10.445-13.242-19.942-21.525-28.258	c-18.379-18.514-41.762-31.452-67.201-37.315c0.008,0.098,0.029,0.18,0.029,0.272c0,3.075,0.549,6.918-2.248,8.562	c2.532,0.524,2.52,0.575,4.998,1.251C444.797,192.485,473.355,214.146,490.469,244.423"/><path fill="#0B9D49" d="M505.689,284.908c-0.229-0.055-0.421-0.158-0.644-0.215c11.688,64.272-27.223,128.294-91.342,146.484	c-21.409,6.081-44.043,6.533-65.522,1.16c-2.003-0.451-4.07,0.459-5.104,2.266l-18.239,32.66c-0.584,1.101-0.777,2.329-0.392,3.496	l8.217,29.041l-29.044,8.214c-1.157,0.39-2.13,1.166-2.712,2.199l-6.021,10.803c-0.582,1.03-0.774,2.326-0.452,3.489l8.287,28.98	l-29.044,8.276c-1.163,0.322-2.136,1.101-2.718,2.193l-6.014,10.673c-0.582,1.036-0.711,2.333-0.389,3.495l8.214,29.045	l-28.978,8.211c-1.163,0.318-2.2,1.1-2.781,2.196l-12.414,22.187l-33.374,9.443l-8.091,2.328l-11.766-41.461l24.543-44.007	c-1.921-0.958-3.84-1.918-5.761-2.883c-0.86-0.433-1.593-1.021-2.206-1.716l-25.568,45.826c-0.582,1.03-0.711,2.326-0.386,3.489	l13.578,47.734c0.654,2.458,3.236,3.878,5.695,3.167l12.48-3.553l35.249-10.028c1.166-0.321,2.136-1.1,2.718-2.198l12.42-22.185	l31.626-8.987c2.462-0.715,3.878-3.235,3.173-5.688l-8.992-31.633l4.137-7.308l31.56-8.991c2.458-0.712,3.884-3.235,3.17-5.694	l-8.925-31.626l4.144-7.438l31.56-8.925c2.459-0.714,3.884-3.299,3.17-5.693l-8.925-31.628l15.587-27.997	c21.993,4.848,45.017,4.134,66.809-2.073c68.732-19.468,110.396-88.119,97.902-156.966	C511.855,284.959,508.316,285.502,505.689,284.908"/><path fill="#0B9D49" d="M411.376,297.938c3.044-0.129,6.077-0.58,9.121-1.422c20.245-5.755,32.013-26.901,26.261-47.081	c-1.168-4.209-3.045-8.021-5.367-11.387c0-0.063-0.065-0.063-0.065-0.063c-9.062-12.938-25.609-19.342-41.658-14.811	c-20.173,5.755-31.945,26.841-26.193,47.081C378.328,287.396,394.3,298.457,411.376,297.938 M402.191,232.034	c7.438-2.133,15.068-1.1,21.411,2.27c6.726,3.553,12.025,9.759,14.291,17.654c4.394,15.328-4.588,31.301-19.923,35.631	c-6.984,2.01-14.095,1.232-20.176-1.675c-7.313-3.366-13.131-9.832-15.46-18.172C377.939,252.406,386.867,236.367,402.191,232.034"/><path fill="#0B9D49" d="M238.697,565.763c-1.141,0.322-2.39,0.212-3.502-0.411c-2.222-1.231-3.018-4.035-1.779-6.264l67.352-120.75	c1.236-2.229,4.045-3.023,6.267-1.78c2.225,1.233,3.015,4.046,1.776,6.266l-67.352,120.753	C240.836,564.688,239.834,565.438,238.697,565.763"/><path fill="#0B9D49" d="M207.661,621.411c-1.141,0.322-2.389,0.212-3.501-0.41c-2.222-1.231-3.019-4.036-1.779-6.264l20.192-36.207	c1.242-2.222,4.045-3.019,6.267-1.775c2.225,1.238,3.021,4.039,1.779,6.261l-20.195,36.209	C209.807,620.337,208.799,621.086,207.661,621.411"/><path fill="#FFF" d="M727.973,665.095H409.158c-10.019,0-18.142-8.122-18.142-18.144V453.473	c0-10.019,8.123-18.141,18.142-18.141h318.813c10.019,0,18.142,8.122,18.142,18.141v193.479	C746.113,656.973,737.99,665.095,727.973,665.095"/><path fill="#E4F2FC" d="M753.854,684.513H435.051c-10.024,0-18.15-8.122-18.15-18.145V472.891c0-10.019,8.126-18.142,18.15-18.142	h318.806c10.02,0,18.145,8.123,18.145,18.142v193.479C772,676.391,763.875,684.513,753.854,684.513"/><path fill="#FFF" d="M707.629,440.256h-57.174c0-129.552-81.883-121.784-81.883-121.784s-81.949-7.768-81.949,121.784h-57.115	c0,0-12.934-174.626,139.064-174.626C720.557,265.63,707.629,440.256,707.629,440.256"/><path fill="#E4F2FC" d="M727.043,453.201h-57.172c0-129.549-81.887-121.791-81.887-121.791s-81.947-7.759-81.947,121.791h-57.115	c0,0-12.932-174.633,139.063-174.633C739.979,278.568,727.043,453.201,727.043,453.201"/><path fill="#2887C8" d="M686.371,344.388c0.307-0.106,0.592-0.236,0.926-0.322c1.262-0.304,2.435-0.724,3.594-1.183	c0.781-0.604,1.656-1.115,2.603-1.51c0.666-0.279,1.356-0.434,2.063-0.513c-6.188-14.182-14.521-28.064-25.823-40.232	c-17.003-18.312-38.675-30.194-64.466-35.877c-0.008,0.025-0.024,0.051-0.03,0.076c0.006,0.683,0.073,1.354-0.029,2.042	c-0.205,1.308-0.644,2.588-1.191,3.824c-0.254,1.179,0.353,2.537-0.321,3.594c24.082,5.224,43.178,16.001,58.899,32.913	C672.936,318.323,680.609,331.17,686.371,344.388"/><path fill="#2887C8" d="M702.885,387.356c1.883-0.041,3.754-0.202,5.64-0.26c-1.683-9.036-3.99-18.577-7.207-28.229	c-3.009,1.357-6.023,2.765-9.229,3.604c2.908,8.9,5.039,17.722,6.615,26.1C699.844,387.859,701.215,387.388,702.885,387.356"/><path fill="#2887C8" d="M711.021,400.207c-1.826,0.765-3.683,1.347-5.65,1.864c-1.508,0.397-2.881,0.362-4.096,0.054	c1.766,14.952,1.846,27.082,1.692,33.282h-47.701c-0.752-47.381-12.598-81.826-35.223-102.416	c-22.492-20.455-47.633-19.665-51.477-19.386c-3.834-0.278-29.015-1.081-51.527,19.41c-6.508,5.917-10.937,11.354-15.639,19.548	c0.618,0.184,0.192,2.216,0.827,2.563c-0.395-0.219,0.898,0.291,1.177,0.357c0.643,0.147,1.289,0.265,1.924,0.426	c1.502,0.377,2.965,0.999,4.35,1.729c3.941-6.613,8.455-12.474,13.729-17.303c20.666-18.925,44.479-17.06,44.705-17.041l0.455,0.044	l0.444-0.038c0.246-0.032,24.031-1.877,44.66,17.016c21.185,19.393,31.93,53.02,31.93,99.938v4.854h66.523l0.338-4.494	C712.574,439.083,713.674,422.624,711.021,400.207"/><path fill="#2887C8" d="M489.496,389.968c-0.959-0.024-1.748-0.291-2.525-0.557c-3.133,13.648-4.893,28.949-5.164,46h-47.645	c-0.439-17.948,0.736-85.524,40.35-128.178c17.604-18.956,40.789-30.447,68.863-34.705c-0.162-1.369-0.234-2.699-0.234-4.008	c-0.014-0.167-0.065-0.325-0.08-0.492c-0.573-1.662-0.696-3.527-0.34-5.313c-30.655,4.466-55.975,17.079-75.321,37.916	c-48.614,52.35-42.992,136.429-42.728,139.982l0.338,4.49h66.461v-4.849c0-18.438,1.72-34.743,5.027-49.021	C494.213,390.58,491.93,390.03,489.496,389.968"/><path fill="#FFF" d="M538.969,613.517l14.744-75.433c-7.785-4.905-12.912-13.546-12.912-23.403	c0-15.347,12.422-27.772,27.769-27.772c15.301,0,27.771,12.427,27.771,27.772c0,9.857-5.176,18.498-12.916,23.403l14.742,75.433	H538.969z"/><path fill="#2887C8" d="M598.166,618.365h-59.201c-1.447,0-2.817-0.646-3.737-1.765c-0.927-1.122-1.296-2.592-1.019-4.021	l14.148-72.352c-7.824-6.129-12.406-15.457-12.406-25.553c0-17.988,14.633-32.622,32.615-32.622c17.985,0,32.62,14.634,32.62,32.622	c0,10.069-4.575,19.394-12.399,25.546l14.143,72.357c0.277,1.429-0.098,2.897-1.018,4.021	C600.986,617.72,599.607,618.365,598.166,618.365 M544.863,608.662h47.412l-13.611-69.649c-0.383-1.959,0.477-3.96,2.162-5.027	c6.678-4.227,10.666-11.45,10.666-19.308c0-12.636-10.285-22.92-22.927-22.92c-12.629,0-22.913,10.284-22.913,22.92	c0,7.882,3.981,15.102,10.647,19.301c1.703,1.068,2.563,3.068,2.18,5.034L544.863,608.662z"/><path fill="#2887C8" d="M750.072,600.345c-0.697,0.132-1.386,0.054-2.076,0.054c-2.246,0.246-4.447,0.181-6.732-0.205v42.361	c0,7.111-5.784,12.893-12.899,12.893H408.77c-7.115,0-12.901-5.78-12.901-12.893V457.878c0-7.113,5.786-12.9,12.901-12.9h319.595	c7.115,0,12.899,5.787,12.899,12.9v50.99c2.228,0.143,4.437,0.37,6.646,0.68c0.938-0.451,1.957-0.768,3.057-0.858v-50.812	c0-12.465-10.139-22.603-22.604-22.603H408.77c-12.458,0-22.604,10.138-22.604,22.603v184.677c0,12.458,10.145,22.595,22.604,22.595	h319.595c12.465,0,22.604-10.137,22.604-22.595v-42.467C750.67,600.171,750.357,600.294,750.072,600.345"/><path fill="#2887C8" d="M741.264,533.703v42.113c1.043-0.104,2.101-0.062,3.154,0.218c0.658,0.171,1.088,0.158,2.064,0	c1.643-0.278,3.125-0.127,4.483,0.221v-43.677C748.268,534.896,744.406,535.221,741.264,533.703"/><path fill="#2887C8" d="M750.967,533.343c0,2.682-2.174,4.85-4.854,4.85c-2.683,0-4.851-2.168-4.851-4.85	c0-2.68,2.168-4.854,4.851-4.854C748.793,528.489,750.967,530.663,750.967,533.343"/><path fill="#2887C8" d="M750.967,575.497c0,2.68-2.174,4.854-4.854,4.854c-2.683,0-4.851-2.175-4.851-4.854s2.168-4.854,4.851-4.854	C748.793,570.643,750.967,572.817,750.967,575.497"/><path fill="#E4F2FC" d="M308.021,282.292c0.063,1.292-0.452,2.582-1.359,3.496c-0.907,0.964-2.193,1.485-3.496,1.485H173.301	l9.696-9.7l34.025-34.091c-5.695-5.689-11.969-10.674-18.627-15.132c-4.662-3.043-9.507-5.821-14.491-8.343	c-58.531-29.563-135.823-22.253-135.823-22.253c1.808-1.808,3.619-3.619,5.496-5.237c4.144-3.941,8.277-7.502,12.421-10.739	c31.237-24.639,62.222-32.856,89.898-32.856c0.711,0,1.422,0,2.07,0.066c41.847,0.584,75.613,19.857,90.101,29.689h0.063	c4.912,3.296,7.566,5.496,7.566,5.496l38.747-37.903l9.443-9.244l1.545,54.065l0.322,10.739l0.389,14.162L308.021,282.292z"/><path fill="#2887C8" d="M81.263,181.392c-5.31,0-10.48,0.126-15.262,0.386c-9.317,0.455-17.528,1.296-24.066,2.136	c13.612-11.592,27.303-19.851,40.779-25.599c-0.664-0.557-1.302-1.163-1.789-1.985c-1.29-2.199-1.308-5.075-0.278-7.452	c-18.985,7.692-38.311,20.034-57.21,38.915c-1.555,1.552-1.871,3.884-0.834,5.761c1.027,1.871,3.164,2.914,5.233,2.459	c0.326-0.063,10.351-2.137,25.742-3.496c33.374-2.977,91.912-2.847,130.327,27.49c1.681,1.359,3.366,2.718,4.984,4.2l-54.849,54.786	c-1.359,1.422-1.814,3.492-1.037,5.3c0.714,1.811,2.525,2.977,4.469,2.977h36.269c-0.259-0.474-0.483-0.977-0.657-1.507	c-0.139-0.4-0.266-0.809-0.405-1.21c-0.809-2.427-0.113-5.003,1.388-6.984h-24.895l50.067-50.059c1.934-1.877,1.934-4.984,0-6.855	C167.281,188.698,118.834,181.392,81.263,181.392"/><path fill="#2887C8" d="M303.883,137.025l-0.455-15.846c-0.063-1.94-1.229-0.625-3.04-1.336c-1.814-0.711-3.878-0.322-5.237,1.037	l-54.72,51.719c-15.088-10.493-73.489-49.723-142.63-29.496c2.939,1.773,3.54,5.578,2.996,8.872	c21.115-6.135,38.895-5.714,57.172-2.984c44.948,6.726,77.551,31.886,80.009,33.757c1.935,1.552,4.652,1.359,6.4-0.389l3.685-3.685	h0.063l45.924-45.984l0.386,13.583l1.22,41.929c1.372-0.246,2.813-0.253,4.213,0.161c1.261-0.385,2.607-0.606,3.948-0.619	c0.55-0.013,1.037,0.069,1.53,0.148L303.883,137.025z"/><path fill="#2887C8" d="M307.379,261.667c-1.097,0.623-2.402-1.059-3.969-1.059h-3.23c-0.92,0-1.729,1.908-2.484,1.682l0.497,15.281	H186.951c0.601,0.784,1.1,1.672,1.422,2.654c0.136,0.401,0.272,0.81,0.408,1.21c0.654,1.976,0.313,4.059-0.642,5.838h115.033	c1.293,0,2.588-0.525,3.492-1.485c0.907-0.914,1.419-2.203,1.356-3.496L307.379,261.667z"/><path fill="#2887C8" d="M301.393,213.716c-0.505,0-0.9-0.186-1.368-0.271c-0.822,0.098-2.023,0.398-2.677,0.474	c-0.325,0.044-0.641,0-0.964-0.013l0.316,11.402l0.557,19.557c0.872-0.319,1.827-0.531,2.926-0.531h3.23	c1.372,0,2.547,0.284,3.559,0.771l-0.828-29.108l-0.057-2.196c-1.005,0.48-2.111-0.085-3.277-0.085H301.393z"/><path fill="#2887C8" d="M701.787,361.194c0,2.681-2.168,4.854-4.854,4.854c-2.674,0-4.848-2.174-4.848-4.854	c0-2.681,2.174-4.849,4.848-4.849C699.619,356.347,701.787,358.515,701.787,361.194"/><path fill="#2887C8" d="M609.811,269.599c0,2.681-2.168,4.854-4.854,4.854c-2.674,0-4.848-2.174-4.848-4.854	c0-2.677,2.174-4.845,4.848-4.845C607.643,264.754,609.811,266.922,609.811,269.599"/><path fill="#2887C8" d="M548.424,267.564c0,2.68-2.17,4.854-4.854,4.854c-2.675,0-4.849-2.174-4.849-4.854	c0-2.678,2.174-4.854,4.849-4.854C546.254,262.709,548.424,264.887,548.424,267.564"/><path fill="#2887C8" d="M695.785,342.302c0,2.681-2.168,4.854-4.854,4.854c-2.674,0-4.848-2.175-4.848-4.854	c0-2.681,2.174-4.854,4.848-4.854C693.617,337.447,695.785,339.621,695.785,342.302"/><path fill="#2887C8" d="M708.514,386.643c0,2.778-2.254,5.031-5.028,5.031c-2.777,0-5.031-2.253-5.031-5.031	c0-2.773,2.254-5.027,5.031-5.027C706.26,381.614,708.514,383.868,708.514,386.643"/><path fill="#2887C8" d="M711.244,402.002c0,2.743-2.229,4.962-4.965,4.962c-2.744,0-4.97-2.219-4.97-4.962	c0-2.746,2.226-4.972,4.97-4.972C709.016,397.03,711.244,399.256,711.244,402.002"/><path fill="#2887C8" d="M510.51,354.887c0,2.681-2.176,4.854-4.854,4.854c-2.674,0-4.849-2.174-4.849-4.854	c0-2.678,2.175-4.854,4.849-4.854C508.334,350.032,510.51,352.209,510.51,354.887"/><path fill="#2887C8" d="M496.639,390.271c0,2.68-2.172,4.854-4.854,4.854c-2.674,0-4.849-2.175-4.849-4.854	c0-2.68,2.175-4.849,4.849-4.849C494.467,385.423,496.639,387.591,496.639,390.271"/><path fill="#2887C8" d="M750.967,508.041c0,2.68-2.174,4.854-4.854,4.854c-2.683,0-4.851-2.175-4.851-4.854	c0-2.681,2.168-4.854,4.851-4.854C748.793,503.188,750.967,505.36,750.967,508.041"/><path fill="#2887C8" d="M750.967,600.818c0,2.68-2.174,4.854-4.854,4.854c-2.683,0-4.851-2.175-4.851-4.854	c0-2.682,2.168-4.854,4.851-4.854C748.793,595.964,750.967,598.138,750.967,600.818"/><path fill="#2887C8" d="M86.958,153.517c0,2.68-2.175,4.854-4.854,4.854c-2.674,0-4.848-2.174-4.848-4.854	c0-2.68,2.174-4.854,4.848-4.854C84.784,148.662,86.958,150.836,86.958,153.517"/><path fill="#2887C8" d="M103.983,147.537c0,2.582-2.099,4.684-4.677,4.684c-2.592,0-4.687-2.102-4.687-4.684	c0-2.585,2.095-4.681,4.687-4.681C101.885,142.856,103.983,144.952,103.983,147.537"/><path fill="#2887C8" d="M305.344,187.295c0,2.68-2.171,4.854-4.848,4.854c-2.68,0-4.854-2.174-4.854-4.854s2.174-4.854,4.854-4.854	C303.172,182.441,305.344,184.615,305.344,187.295"/><path fill="#2887C8" d="M306.086,214.248c0,2.68-2.168,4.854-4.854,4.854c-2.674,0-4.848-2.174-4.848-4.854	c0-2.68,2.174-4.854,4.848-4.854C303.918,209.393,306.086,211.567,306.086,214.248"/><path fill="#2887C8" d="M178.256,282.418c0,2.68-2.174,4.854-4.854,4.854c-2.68,0-4.848-2.176-4.848-4.854	c0-2.677,2.168-4.854,4.848-4.854C176.082,277.564,178.256,279.741,178.256,282.418"/><path fill="#2887C8" d="M193.303,282.418c0,2.68-2.174,4.854-4.854,4.854c-2.673,0-4.848-2.176-4.848-4.854	c0-2.677,2.174-4.854,4.848-4.854C191.129,277.563,193.303,279.741,193.303,282.418"/><path fill="#2887C8" d="M307.423,261.982c0,2.68-2.178,4.854-4.854,4.854c-2.674,0-4.848-2.174-4.848-4.854	c0-2.681,2.174-4.854,4.848-4.854C305.246,257.128,307.423,259.303,307.423,261.982"/><path fill="#2887C8" d="M306.934,244.897c0,2.68-2.168,4.848-4.854,4.848c-2.674,0-4.848-2.168-4.848-4.848	c0-2.678,2.174-4.854,4.848-4.854C304.765,240.043,306.934,242.22,306.934,244.897"/><path fill="#0B9D49" d="M268.376,442.228c0,2.582-2.099,4.685-4.687,4.685c-2.583,0-4.681-2.103-4.681-4.685	c0-2.591,2.098-4.687,4.681-4.687C266.278,437.541,268.376,439.637,268.376,442.228"/><path fill="#0B9D49" d="M233.981,504.324c0,2.591-2.099,4.695-4.693,4.695c-2.588,0-4.693-2.104-4.693-4.695	c0-2.585,2.105-4.69,4.693-4.69C231.883,499.634,233.981,501.739,233.981,504.324"/><path fill="#0B9D49" d="M209.962,546.989c0,2.589-2.098,4.689-4.693,4.689c-2.589,0-4.693-2.102-4.693-4.689	c0-2.591,2.104-4.692,4.693-4.692C207.864,542.297,209.962,544.398,209.962,546.989"/><path fill="#0B9D49" d="M200.402,563.892c0,2.548-2.067,4.605-4.602,4.605c-2.544,0-4.611-2.06-4.611-4.605	c0-2.541,2.067-4.602,4.611-4.602C198.335,559.29,200.402,561.351,200.402,563.892"/><path fill="#0B9D49" d="M371.811,175.064c0,2.541-2.054,4.592-4.589,4.592c-2.538,0-4.589-2.051-4.589-4.592	c0-2.535,2.051-4.589,4.589-4.589C369.756,170.476,371.811,172.53,371.811,175.064"/><path fill="#0B9D49" d="M413.152,178.054c0,2.509-2.032,4.542-4.545,4.542c-2.512,0-4.545-2.032-4.545-4.542	c0-2.513,2.032-4.544,4.545-4.544S413.152,175.542,413.152,178.054"/><path fill="#0B9D49" d="M498.906,241.655c0,2.591-2.099,4.695-4.693,4.695c-2.588,0-4.69-2.104-4.69-4.695	c0-2.585,2.104-4.69,4.69-4.69C496.809,236.965,498.906,239.069,498.906,241.655"/></svg>