<svg xmlns="http://www.w3.org/2000/svg" id="Layer_1" width="800" height="800" x="0" y="0" enable-background="new 0 0 800 800" version="1.0" viewBox="0 0 800 800" xml:space="preserve"><g><path fill="#E4F0CC" d="M719.132,169.635c0,33.149-26.874,60.026-60.02,60.026s-60.02-26.877-60.02-60.026 c0-33.146,26.874-60.016,60.02-60.016S719.132,136.49,719.132,169.635"/></g><g><path fill="#FFF" d="M581.245,430.568c0,23.891-21.059,34.42-32.628,38.362v-23.709c6.458-9.422,11.076-24.507,14.407-42.797 C572.321,406.797,581.245,415.174,581.245,430.568"/></g><g><path fill="#2887C8" d="M526.319,646.887c1.106,0.123,2.278,0.247,3.392,0.43c0.18,0,0.427,0,0.673,0.063 C529.091,647.134,527.738,647.01,526.319,646.887 M440.484,716.407l-20.566-27.096l-2.405-3.199v0.184l22.851,30.111 c0.301,0.43,0.674,0.74,1.047,1.047C441.098,717.147,440.791,716.774,440.484,716.407"/></g><g><path fill="#2887C8" d="M513.144,633.525l-22.292-22.231c-2.092-2.093-5.478-2.463-7.877-0.74l-2.525,1.727v-21.612 c65.642-31.528,68.102-101.419,68.168-102.282v-6.404c17.854-4.987,45.01-20.382,45.01-51.413 c0-22.539-13.981-34.854-28.696-40.889c5.237-36.946,6.158-83.745,6.158-125.68c0-43.104-47.169-58.314-75.065-60.59 c-18.594-1.479-76.165-4.249-83.803-4.558c-3.325-14.472-5.111-29.986-1.419-39.842c0.806-2.216,0.313-4.802-1.353-6.464 c-1.727-1.723-4.191-2.339-6.404-1.6c-0.674,0.184-14.901,5.048-27.463,13.175c-4.002-4.618-10.16-14.102-8.93-28.203 c0.247-2.586-1.23-5.108-3.632-6.218c-2.339-1.046-5.171-0.553-7.021,1.356c-0.676,0.676-16.747,17.424-28.633,43.287 c-3.571,7.884-6.464,15.827-8.437,23.708c-15.641,2.956-66.379,18.163-66.379,91.256c0,35.9,4.495,71,9.42,99.076 c-15.764,5.544-31.958,17.86-31.958,42.185c0,31.278,27.526,46.672,45.443,51.537c2.772,51.787,44.337,87.011,71.616,104.681 v29.002l-7.637-5.234c-2.463-1.723-5.851-1.353-7.944,0.74L309.2,633.525c-121.368,1.906-136.945,139.225-137.069,140.641 c-0.187,1.786,0.37,3.509,1.54,4.802c1.169,1.293,2.832,2.032,4.618,2.032h465.771c1.78,0,3.446-0.739,4.619-2.032 c1.166-1.293,1.779-3.016,1.6-4.802C650.092,772.75,634.512,635.432,513.144,633.525 M485.74,623.732l16.261,16.257l-56.226,62.993 l-25.736-33.867l54.926-37.933h0.061l4.618-3.262L485.74,623.732z M581.245,430.568c0,23.891-21.059,34.42-32.628,38.358v-23.705 c6.458-9.422,11.076-24.51,14.407-42.797C572.321,406.797,581.245,415.174,581.245,430.568 M275.026,468.866 c-11.453-4.001-32.575-14.654-32.575-38.298c0-17.428,11.329-25.741,21.859-29.742c4.618,23.397,9.176,40.208,10.716,45.688 V468.866z M275.333,358.705v26.6c-0.43,0-0.86,0.063-1.293,0.126c-0.86-4.988-1.723-10.163-2.586-15.581 c-0.307-2.156-0.616-4.372-0.923-6.651c-3.202-22.598-5.542-48.029-5.542-73.892c0-37.13,14.225-56.959,28.756-67.548 c8.25-6.035,16.627-9.053,22.538-10.592c-3.389,22.045-0.187,43.474,9.359,63.239c1.046,2.219,3.322,3.572,5.602,3.572 c0.863,0,1.786-0.187,2.649-0.617c3.139-1.54,4.435-5.234,2.956-8.313c-23.768-49.138,3.079-96.491,18.597-117.736 c2.216,9.177,6.65,16.014,10.282,20.322c-5.728,5.358-9.173,10.839-10.346,16.564c-0.677,3.449,1.479,6.651,4.928,7.327 c3.263,0.677,6.588-1.476,7.268-4.802c0.8-4.005,4.248-8.437,9.85-12.808c5.978-4.619,13.302-8.374,19.153-11.022 c-2.219,27.649,12.929,65.702,13.668,67.611c0.986,2.402,3.265,3.878,5.784,3.878c0.807,0,1.54-0.184,2.285-0.49 c3.199-1.233,4.739-4.928,3.446-8.07c-1.666-4.186-3.999-10.776-6.284-18.473c15.154,0.803,63.242,3.205,79.623,4.498 c0.613,0,63.543,5.542,63.543,48.152c0,23.645,0,78.694-5.784,122.045c-0.247,2.096-0.554,4.188-0.866,6.157 c-0.367,2.156-0.674,4.188-0.986,6.158c-0.733,4.312-1.539,8.376-2.393,12.315v-62.07c0-7.018-2.1-12.682-5.425-17.117 c-2.466-3.386-5.604-6.095-8.989-8.25c-6.711-4.312-14.408-6.344-19.947-6.834c-1.539-0.126-3.205,0.43-4.438,1.293 c0,0-0.926,0.676-3.079,1.6c-7.817,3.512-32.268,11.452-93.226,11.452c-78.757,0-100.002-13.178-100.125-13.238 c-1.047-0.74-2.279-1.106-3.509-1.106C285.002,316.404,276.382,343.741,275.333,358.705 M287.771,476.688v-30.049 c0,0.616-0.123,1.169-0.307,1.723v-3.448c0.184,0.492,0.247,0.986,0.307,1.479l-0.06-79.866v-7.327 c0.06-0.307,2.462-28.756,20.629-30.296c7.081,3.756,33.25,14.285,105.173,14.285c69.208,0,94.025-9.913,101.536-14.102 c5.665,0.986,21.125,5.051,21.125,19.52v139.598c-0.065,0.736-2.159,61.577-59.237,90.333l-0.247,2.462 c-0.739-0.307-1.6-0.493-2.459-0.493c-0.866,0-1.732,0.187-2.466,0.493c-0.061,0-0.12,0.061-0.187,0.061 c-2.832,1.293-5.791,2.466-8.93,3.451c1.173-4.005,1.853-7.883,2.032-11.085c0.247-3.449-2.272-6.404-5.664-6.651 c-3.326-0.184-6.404,2.343-6.651,5.728c-0.06,0.8-0.8,9.36-5.544,18.041c-0.061,0-0.061,0-0.061,0.063 c-0.24,0.493-0.492,1.047-0.799,1.477c-0.061,0.063-0.061,0.126-0.121,0.187c-5.357,8.804-14.967,17.24-32.328,17.24 c-18.046,0-28.882-9.05-35.223-18.287c0-0.063-0.063-0.123-0.124-0.187c-0.183-0.246-0.307-0.492-0.493-0.739 c-0.616-0.923-1.106-1.786-1.599-2.646c-1.356-2.34-2.402-4.495-3.143-6.465c-0.676-1.666-1.229-3.079-1.662-4.312 c-0.124-0.37-0.184-0.68-0.307-0.986c-0.123-0.43-0.247-0.8-0.37-1.169c-0.063-0.124-0.063-0.247-0.063-0.37 c-0.12-0.431-0.243-0.86-0.307-1.17c-0.06-0.246-0.123-0.493-0.183-0.677c-0.063-0.186-0.063-0.307-0.063-0.433 c-0.061-0.12-0.061-0.184-0.061-0.246c-0.616-3.326-3.818-5.542-7.204-4.926c-3.388,0.554-5.667,3.819-4.988,7.204 c0.307,1.663,0.737,3.512,1.353,5.418c-2.832-1.723-5.848-3.691-9.113-5.848C324.104,555.874,287.771,522.747,287.771,476.688 M336.603,623.732l11.392,7.88l4.125,2.836h0.063l50.121,34.667l-10.096,13.299l-15.581,20.568l-56.282-62.993L336.603,623.732z M404.957,768.622H185.556c0.553-3.323,1.476-7.697,2.769-12.806c0.31-1.293,0.616-2.589,0.986-3.942 c0.43-1.416,0.8-2.832,1.232-4.248c0.367-1.416,0.86-2.896,1.354-4.436c2.462-7.634,5.604-16.007,9.729-24.567 c0.8-1.723,1.663-3.448,2.586-5.174c1.909-3.692,4.002-7.388,6.344-11.083c0.8-1.293,1.6-2.525,2.463-3.818 c0.736-1.106,1.539-2.216,2.399-3.386c0.986-1.479,2.096-2.893,3.142-4.312c1.416-1.786,2.832-3.509,4.312-5.231 c1.17-1.293,2.339-2.649,3.569-3.942c0.186-0.31,0.493-0.556,0.739-0.803c1.293-1.353,2.586-2.646,3.942-3.938 c2.646-2.586,5.542-5.051,8.557-7.391c1.479-1.169,3.019-2.339,4.618-3.445c0.247-0.187,0.493-0.373,0.803-0.557 c3.262-2.216,6.711-4.309,10.343-6.28c1.909-0.986,3.818-1.97,5.852-2.893c1.969-0.863,4.001-1.727,6.094-2.586 c2.156-0.803,4.251-1.539,6.467-2.219c2.093-0.677,4.309-1.293,6.464-1.847c0.124-0.063,0.247-0.063,0.31-0.063 c2.216-0.554,4.495-1.047,6.834-1.477c0.063-0.063,0.123-0.063,0.247-0.063s0.247-0.06,0.37-0.06c1.54-0.31,3.139-0.557,4.679-0.74 c1.109-0.183,2.279-0.31,3.389-0.43c1.353-0.187,2.709-0.31,4.062-0.433c2.896-0.247,5.851-0.367,8.87-0.43l63.359,70.813 c1.17,1.356,2.836,2.093,4.559,2.093h0.246c1.91-0.06,3.632-0.983,4.742-2.522l20.565-27.096l2.405-3.199V768.622z M359.511,624.409V594.36c4.186,2.402,7.451,4.005,9.297,4.864c8.743,12.132,23.028,22.661,44.706,22.661 c21.486,0,34.728-10.285,42.305-22.229c4.245-1.109,8.311-2.402,12.189-3.758V620.9l-56.833,39.285L359.511,624.409z M560.806,768.622h-67.368v-20.566h67.368V768.622z M573.182,768.622v-26.784c0-3.448-2.772-6.221-6.158-6.221H487.28 c-3.446,0-6.218,2.772-6.218,6.221v26.784h-63.67v-82.51l0.12,0.184v-0.184l2.405,3.199l20.566,27.096 c0.307,0.367,0.613,0.736,0.926,1.047c0.367,0.246,0.674,0.553,1.106,0.739c0.367,0.247,0.8,0.43,1.227,0.554 c0.493,0.123,0.986,0.183,1.479,0.183h0.252c0.367,0,0.795-0.06,1.167-0.123c0.433-0.123,0.86-0.246,1.227-0.43 c0.806-0.31,1.54-0.8,2.099-1.54l63.363-70.813h0.061c1.232,0,2.465,0.063,3.691,0.123c0.927,0,1.853,0.06,2.772,0.123 c0.307,0,0.62,0.061,0.927,0.061c0.492,0.063,0.979,0.063,1.473,0.123c1.359,0.123,2.712,0.246,4.065,0.433 c1.419,0.12,2.771,0.247,4.064,0.493c1.106,0.12,2.22,0.307,3.266,0.553c0.246,0,0.493,0.061,0.739,0.124 c0.121,0,0.247,0.06,0.373,0.06c0.061-0.06,0.12-0.06,0.181,0.063c2.032,0.367,4.065,0.739,6.098,1.229 c0.181,0,0.307,0,0.433,0.123c2.093,0.434,4.125,0.986,6.092,1.604c2.099,0.616,4.191,1.292,6.157,2.029 c2.159,0.739,4.252,1.603,6.224,2.465c2.334,1.047,4.619,2.093,6.892,3.326c2.22,1.169,4.438,2.398,6.591,3.755h0.061 c2.092,1.293,4.125,2.649,6.098,4.125c0.12,0.063,0.186,0.124,0.307,0.184c1.726,1.232,3.325,2.525,4.984,3.882 c0.619,0.43,1.173,0.923,1.792,1.477c1.66,1.419,3.319,2.895,4.925,4.498c1.727,1.6,3.326,3.262,4.926,4.984 c0.926,0.986,1.785,1.973,2.646,2.956c0.739,0.803,1.419,1.603,2.032,2.462c0.986,1.109,1.912,2.279,2.772,3.452 c0.554,0.677,1.112,1.413,1.605,2.093c0.98,1.353,1.967,2.646,2.887,4.064c0.56,0.8,1.112,1.6,1.665,2.46 c0.86,1.232,1.666,2.525,2.46,3.882c1.358,2.155,2.651,4.371,3.885,6.65c12.929,23.581,18.413,47.353,20.379,58.742H573.182z"/></g><g><path fill="#FFF" d="M495.104,215.848c-16.381-1.293-64.469-3.695-79.623-4.495c2.285,7.697,4.618,14.285,6.284,18.473 c1.293,3.142-0.247,6.834-3.446,8.067c-0.745,0.307-1.479,0.493-2.285,0.493c-2.52,0-4.798-1.479-5.784-3.878 c-0.739-1.909-15.888-39.965-13.668-67.614c-5.851,2.648-13.175,6.404-19.153,11.022c-5.604,4.372-9.05,8.807-9.853,12.808 c-0.677,3.326-4.002,5.481-7.265,4.805c-3.448-0.679-5.604-3.878-4.928-7.33c1.173-5.725,4.618-11.206,10.346-16.561 c-3.632-4.312-8.066-11.148-10.282-20.322c-15.518,21.246-42.364,68.598-18.597,117.736c1.477,3.079,0.184,6.774-2.956,8.313 c-0.863,0.43-1.786,0.613-2.649,0.613c-2.279,0-4.555-1.353-5.604-3.572c-9.543-19.766-12.745-41.191-9.356-63.236 c-5.911,1.539-14.288,4.555-22.538,10.589c-14.532,10.592-28.756,30.418-28.756,67.551c0,25.86,2.339,51.291,5.542,73.893 c0.307,2.276,0.616,4.495,0.923,6.647c0.863,5.421,1.726,10.593,2.586,15.581c0.433-0.06,0.863-0.123,1.293-0.123v-26.6 c1.046-14.964,9.669-42.304,34.547-42.304c1.229,0,2.462,0.37,3.509,1.106c0.123,0.063,21.368,13.242,100.125,13.242 c60.958,0,85.408-7.944,93.226-11.456c2.153-0.923,3.079-1.6,3.079-1.6c1.232-0.863,2.898-1.417,4.438-1.293 c5.539,0.493,13.236,2.526,19.947,6.834c3.385,2.155,6.523,4.864,8.989,8.253c3.325,4.432,5.425,10.097,5.425,17.117v62.07 c0.854-3.942,1.659-8.007,2.393-12.315c0.313-1.97,0.619-4.002,0.986-6.158c0.313-1.969,0.619-4.064,0.866-6.157 c5.784-43.351,5.784-98.4,5.784-122.044C558.646,221.39,495.717,215.848,495.104,215.848 M387.404,292.326 c-0.986,3.449-4.312,4.742-7.574,4.251c-10.469-1.54-19.889-5.667-25.986-14.534c-4.495-6.528,6.221-12.746,10.716-6.218 c4.125,6.094,11.699,7.817,18.533,8.927C386.357,285.246,388.204,289.371,387.404,292.326 M395.781,264.493 c-8.317-4.125-15.397-5.971-21.432-13.608c-5.358-6.711-8.497-14.655-11.576-22.535c-2.833-7.451,9.113-10.656,11.885-3.326 c2.462,6.404,5.108,13.175,9.48,18.533c4.865,5.911,11.39,7.081,17.859,10.283C409.082,257.413,402.858,268.005,395.781,264.493 M447.381,278.348c-10.288-0.923-20.259-1.046-29.435-6.218c-6.958-3.942-0.74-14.531,6.218-10.716 c7.144,4.065,15.273,3.881,23.217,4.558C455.265,266.649,455.265,279.024,447.381,278.348 M455.199,248.299 c-7.631,0.063-15.208-0.124-22.785-0.553c-7.938-0.43-7.938-12.745,0-12.315c7.577,0.43,15.154,0.616,22.785,0.553 C463.082,235.921,463.082,248.299,455.199,248.299 M478.723,275.826c-4.371,0.493-8.683,0.247-12.994-0.37 c-3.386-0.43-5.111-4.618-4.372-7.574c0.986-3.449,4.312-4.741,7.577-4.251c3.199,0.433,6.584,0.31,9.789-0.12 c3.326-0.37,6.158,3.139,6.158,6.158C484.881,273.3,482.049,275.456,478.723,275.826"/></g><g><path fill="#FFF" d="M275.026,446.515v22.352c-11.453-4.001-32.575-14.654-32.575-38.302c0-17.424,11.333-25.737,21.862-29.738 C268.932,424.224,273.487,441.034,275.026,446.515"/></g><g><polygon fill="#FFF" points="402.305 669.112 392.209 682.414 376.628 702.979 320.346 639.989 336.603 623.732 347.995 631.612 352.121 634.445 352.184 634.445"/></g><g><path fill="#E4F2FC" d="M404.957,686.112v19.889l-15.395,23.151c-4.131,5.911-10.778,10.04-15.09,10.04 c-4.249,0-12.686-10.04-12.686-10.04l-74.076-81.033c0.124,0,0.247-0.063,0.37-0.063c1.54-0.31,3.139-0.554,4.679-0.74 c1.109-0.183,2.279-0.307,3.385-0.43c1.356-0.187,2.712-0.307,4.065-0.433c2.896-0.247,5.851-0.367,8.867-0.43l63.362,70.813 c1.17,1.356,2.833,2.096,4.559,2.096h0.246c1.91-0.063,3.632-0.986,4.742-2.525l20.565-27.096L404.957,686.112z"/></g><g><path fill="#FFF" d="M404.957,705.998v62.626H185.553c0.556-3.325,1.479-7.696,2.772-12.808 c0.307-1.293,0.616-2.586,0.986-3.942c0.43-1.416,0.8-2.832,1.229-4.248c0.433-1.477,0.863-2.956,1.356-4.436 c2.462-7.634,5.604-16.007,9.729-24.567c0.8-1.723,1.663-3.448,2.586-5.171c1.909-3.695,4.002-7.391,6.341-11.086 c0.803-1.293,1.603-2.525,2.462-3.818c0.74-1.106,1.54-2.216,2.402-3.386c0.986-1.479,2.096-2.893,3.142-4.312 c1.416-1.786,2.832-3.509,4.309-5.231c1.17-1.293,2.342-2.649,3.572-3.942c0.186-0.31,0.493-0.553,0.739-0.799 c1.293-1.356,2.586-2.649,3.942-3.942c2.646-2.586,5.542-5.048,8.557-7.391c1.479-1.169,3.019-2.339,4.618-3.445 c0.247-0.187,0.493-0.37,0.803-0.557c3.262-2.216,6.711-4.309,10.343-6.28c1.909-0.986,3.818-1.97,5.852-2.893 c1.969-0.863,4.001-1.727,6.094-2.586c2.096-0.803,4.251-1.539,6.467-2.219c2.093-0.677,4.249-1.293,6.464-1.847 c0.124-0.06,0.247-0.06,0.31-0.06c2.216-0.557,4.495-1.05,6.834-1.479c0.06-0.061,0.123-0.061,0.247-0.061l74.076,81.033 c0,0,8.437,10.037,12.686,10.037c4.312,0,10.959-4.126,15.09-10.037L404.957,705.998z"/></g><g><polygon fill="#FFF" points="502.001 639.989 445.775 702.982 420.039 669.115 474.965 631.183 475.025 631.183 479.644 627.921 485.74 623.732"/></g><g><rect width="67.368" height="20.568" x="493.443" y="748.056" fill="#FFF"/></g><g><path fill="#FFF" d="M573.182,768.622v-26.784c0-3.448-2.772-6.221-6.158-6.221H487.28c-3.446,0-6.218,2.772-6.218,6.221v26.784 h-63.67v-82.51l0.12,0.184l22.851,30.111c0.301,0.43,0.674,0.736,1.047,1.047c0.301,0.307,0.674,0.613,1.106,0.739 c0.367,0.247,0.8,0.43,1.227,0.554c0.493,0.123,0.986,0.183,1.479,0.183h0.252c0.367,0,0.795-0.06,1.167-0.123 c0.433-0.123,0.86-0.246,1.227-0.43c0.806-0.31,1.54-0.8,2.099-1.54l63.363-70.813h0.061c1.232,0,2.465,0.063,3.691,0.123 c0.927,0,1.853,0.06,2.772,0.123c0.307,0,0.62,0.061,0.927,0.061c0.492,0.063,0.979,0.063,1.473,0.123 c1.359,0.123,2.712,0.246,4.065,0.433c1.419,0.12,2.771,0.247,4.064,0.493c1.106,0.12,2.22,0.307,3.266,0.553 c0.246,0,0.493,0.061,0.739,0.124c0.121,0,0.247,0.06,0.373,0.06c0.061-0.06,0.12-0.06,0.181,0.063 c2.032,0.367,4.065,0.739,6.098,1.229c0.181,0,0.307,0,0.433,0.123c2.093,0.493,4.125,1.047,6.092,1.604 c2.099,0.616,4.131,1.292,6.157,2.029c2.159,0.739,4.252,1.603,6.224,2.465c2.334,1.047,4.619,2.153,6.892,3.326 c2.22,1.169,4.438,2.398,6.591,3.755h0.061c2.092,1.293,4.125,2.649,6.098,4.125c0.12,0.063,0.186,0.124,0.307,0.184 c1.665,1.232,3.325,2.525,4.984,3.882c0.619,0.43,1.173,0.923,1.792,1.477c1.66,1.419,3.319,2.895,4.925,4.498 c1.727,1.6,3.326,3.262,4.926,4.984c0.926,0.986,1.785,1.973,2.646,2.956c0.739,0.803,1.419,1.603,2.032,2.462 c0.986,1.109,1.912,2.279,2.772,3.452c0.554,0.677,1.112,1.413,1.605,2.093c0.98,1.353,1.967,2.646,2.887,4.064 c0.56,0.8,1.112,1.6,1.665,2.46c0.86,1.232,1.666,2.525,2.46,3.882c1.358,2.155,2.651,4.371,3.885,6.65 c12.929,23.581,18.413,47.353,20.379,58.742H573.182z"/></g><g><path fill="#2887C8" d="M476.938,578.532l-0.247,2.466c-0.739-0.307-1.6-0.493-2.459-0.493c-0.866,0-1.732,0.187-2.466,0.493 C473.611,580.198,475.277,579.336,476.938,578.532"/></g><g><path fill="#2887C8" d="M287.774,446.389v0.247c0,0.616-0.126,1.172-0.31,1.726v-3.448 C287.648,445.405,287.711,445.899,287.774,446.389"/></g><g><path fill="#2887C8" d="M379.31,425.648c-1.368,3.104-5.033,4.531-8.136,3.163c-30.061-13.286-42.665,6.086-43.227,6.897 c-1.182,1.864-3.232,2.92-5.277,2.92c-1.118,0-2.24-0.315-3.232-0.929c-2.919-1.805-3.849-5.593-2.05-8.449 c0.189-0.315,18.572-29.565,58.756-11.805C379.31,418.812,380.738,422.477,379.31,425.648"/></g><g><path fill="#2887C8" d="M498.742,439.059c-0.992,0.626-2.117,0.878-3.164,0.878c-2.176,0-4.227-1.062-5.352-2.988 c-13.723-23.038-40.488-10.124-41.601-9.562c-3.114,1.551-6.837,0.307-8.328-2.797c-1.552-3.042-0.247-6.768,2.796-8.318 c13.163-6.521,42.166-11.928,57.759,14.278C502.656,433.538,501.658,437.323,498.742,439.059"/></g><g><path fill="#2887C8" d="M287.774,446.389v0.247c0,0.616-0.126,1.172-0.31,1.726v-3.448 C287.648,445.405,287.711,445.899,287.774,446.389"/></g><g><path fill="#2887C8" d="M395.781,264.49c-8.317-4.125-15.397-5.971-21.432-13.608c-5.358-6.711-8.497-14.654-11.576-22.535 c-2.833-7.45,9.113-10.652,11.882-3.325c2.465,6.404,5.111,13.178,9.483,18.536c4.865,5.911,11.39,7.078,17.859,10.283 C409.082,257.413,402.858,268.002,395.781,264.49"/></g><g><path fill="#2887C8" d="M455.205,248.296c-7.637,0.063-15.214-0.121-22.791-0.553c-7.938-0.43-7.938-12.745,0-12.315 c7.577,0.433,15.154,0.616,22.791,0.553C463.082,235.921,463.082,248.296,455.205,248.296"/></g><g><path fill="#2887C8" d="M447.381,278.345c-10.282-0.92-20.259-1.046-29.435-6.218c-6.958-3.939-0.733-14.532,6.218-10.716 c7.144,4.065,15.273,3.881,23.217,4.558C455.265,266.649,455.265,279.024,447.381,278.345"/></g><g><path fill="#2887C8" d="M484.881,269.668c0,3.632-2.832,5.788-6.158,6.158c-4.371,0.493-8.683,0.247-12.994-0.37 c-3.386-0.43-5.111-4.618-4.372-7.574c0.986-3.449,4.312-4.741,7.577-4.251c3.199,0.433,6.584,0.31,9.789-0.12 C482.049,263.141,484.881,266.649,484.881,269.668"/></g><g><path fill="#2887C8" d="M387.404,292.326c-0.986,3.446-4.312,4.739-7.574,4.249c-10.466-1.54-19.889-5.667-25.983-14.531 c-4.495-6.531,6.218-12.749,10.713-6.221c4.125,6.095,11.699,7.821,18.533,8.927C386.357,285.243,388.204,289.368,387.404,292.326"/></g><g><path fill="#FFF" d="M514.749,354.333c-4.618,0-71.865,17.98-102.841,17.98c-30.908,0-104.984-14.901-104.984-14.901 c-8.313-1.6-14.904,3.755-19.212,9.113l0.06,79.866v30.296c0,46.06,36.33,79.187,62.193,96.983 c3.265,2.156,6.281,4.125,9.113,5.848c-0.616-1.906-1.046-3.755-1.353-5.418c-0.679-3.385,1.6-6.65,4.988-7.204 c3.386-0.616,6.588,1.6,7.204,4.926c0,0.063,0,0.126,0.061,0.246c0.063,0.247,0.123,0.557,0.246,1.109 c0.061,0.31,0.187,0.739,0.307,1.17c0.124,0.493,0.247,0.986,0.433,1.539c0.124,0.307,0.184,0.616,0.307,0.986 c0.433,1.232,0.986,2.646,1.662,4.312c0.74,1.97,1.786,4.125,3.143,6.465c0.493,0.859,0.983,1.723,1.599,2.646 c0.187,0.247,0.307,0.493,0.493,0.739c0.06,0.063,0.124,0.124,0.124,0.187c6.341,9.237,17.177,18.287,35.223,18.287 c17.361,0,26.971-8.437,32.328-17.24c0.061-0.061,0.061-0.124,0.121-0.187c0.186-0.493,0.433-1.047,0.799-1.477 c0-0.063,0-0.063,0.061-0.063c4.744-8.681,5.484-17.241,5.544-18.041c0.247-3.385,3.325-5.911,6.651-5.728 c3.392,0.247,5.911,3.202,5.664,6.651c-0.18,3.202-0.859,7.08-2.032,11.085c3.139-0.985,6.098-2.158,8.93-3.451 c0.066,0,0.126-0.061,0.187-0.061c1.846-0.8,3.512-1.662,5.172-2.462c57.078-28.756,59.172-89.597,59.237-90.333V364.862 C529.584,359.135,518.009,354.333,514.749,354.333 M327.92,435.676c-1.17,1.909-3.202,2.956-5.231,2.956 c-1.11,0-2.279-0.307-3.266-0.924c-2.893-1.785-3.818-5.601-2.032-8.437c0.186-0.307,18.596-29.556,58.744-11.822 c3.202,1.356,4.618,5.049,3.202,8.19s-5.048,4.556-8.19,3.202C341.098,415.54,328.536,434.876,327.92,435.676 M484.881,487.646 c0,0.247-0.066,0.557-0.066,0.927c-0.12,2.032-0.613,6.157-1.779,11.452c-0.247,1.046-0.493,2.093-0.74,3.202 c-1.973,7.881-5.604,17.673-11.889,26.847c-0.613,0.985-1.286,1.909-2.032,2.832c-0.979,1.356-2.093,2.649-3.259,3.942 c-0.613,0.676-1.233,1.353-1.912,2.032c-0.794,0.8-1.6,1.599-2.46,2.399c-1.046,0.986-2.159,1.973-3.386,2.895 c-1.232,0.986-2.525,1.97-3.885,2.833c-1.353,0.923-2.766,1.786-4.245,2.586c-0.926,0.556-1.912,1.049-2.958,1.539 c-0.494,0.247-0.986,0.493-1.414,0.677c-0.799,0.433-1.539,0.803-2.398,1.049c-0.807,0.37-1.6,0.677-2.406,0.983 c-1.72,0.68-3.632,1.232-5.544,1.786c-1.046,0.31-2.153,0.553-3.319,0.8c-0.74,0.187-1.479,0.373-2.346,0.493 c-1.473,0.31-2.952,0.556-4.552,0.739c-2.219,0.307-4.498,0.493-6.837,0.616c-1.786,0.124-3.633,0.247-5.479,0.247 c-2.832,0-5.73-0.184-8.377-0.431c-0.986-0.063-1.912-0.186-2.832-0.31c-15.521-1.909-27.893-7.943-37.129-17.979 c-0.923-0.986-1.786-2.033-2.589-3.143c-0.737-0.922-1.413-1.846-2.03-2.769c-0.679-0.986-1.355-1.97-1.972-3.019 c-0.49-0.736-0.923-1.6-1.293-2.402c-0.493-0.8-0.863-1.6-1.23-2.34c-0.803-1.659-1.54-3.262-2.156-4.984 c-0.43-1.173-0.863-2.343-1.233-3.512c-1.723-4.988-2.709-9.914-3.262-14.225c-0.123-1.17-0.31-2.276-0.37-3.386 c-0.123-1.11-0.183-2.156-0.246-3.142c-0.37-5.972-0.063-9.977,0-10.406c0.307-3.203,3.016-5.602,6.221-5.602h125.246 c1.727,0,3.326,0.676,4.433,1.846c1.173,1.232,1.786,2.832,1.786,4.559C484.881,487.34,484.881,487.464,484.881,487.646 M498.735,439.064c-0.985,0.613-2.093,0.86-3.145,0.86c-2.213,0-4.245-1.047-5.353-2.956 c-13.734-23.092-40.518-10.159-41.624-9.606c-3.079,1.603-6.837,0.31-8.316-2.769c-1.54-3.02-0.247-6.774,2.772-8.314 c13.181-6.527,42.178-11.945,57.758,14.289C502.674,433.521,501.628,437.339,498.735,439.064"/></g><g><path fill="#2887C8" d="M483.155,482.722c-1.125-1.182-2.736-1.858-4.414-1.858H353.471c-3.227,0-5.899,2.417-6.206,5.584 c-0.063,0.436-0.376,4.471,0,10.437c0.061,0.992,0.123,2.05,0.247,3.166c0.06,1.058,0.247,2.174,0.373,3.355 c0.556,4.348,1.554,9.254,3.229,14.225c0.376,1.175,0.806,2.356,1.242,3.541c0.622,1.675,1.368,3.287,2.174,4.961 c0.369,0.813,0.809,1.621,1.238,2.36c0.376,0.812,0.812,1.618,1.305,2.363c0.56,1.053,1.245,2.051,1.928,3.043 c0.622,0.929,1.305,1.864,2.051,2.794c0.809,1.055,1.674,2.113,2.606,3.105c9.191,10.061,21.612,16.089,37.078,18.01 c0.933,0.123,1.864,0.253,2.862,0.315c2.67,0.247,5.526,0.367,8.377,0.367c1.87,0,3.674-0.061,5.467-0.184 c2.356-0.123,4.654-0.313,6.83-0.622c1.624-0.184,3.109-0.437,4.601-0.746c0.806-0.12,1.552-0.307,2.298-0.493 c1.184-0.252,2.297-0.502,3.355-0.812c1.918-0.56,3.782-1.112,5.525-1.798c3.296-1.245,6.398-2.67,9.188-4.225 c1.491-0.806,2.862-1.675,4.228-2.609c1.365-0.93,2.67-1.861,3.909-2.856c1.185-0.93,2.303-1.861,3.355-2.854 c0.872-0.813,1.678-1.617,2.483-2.424c0.686-0.686,1.305-1.367,1.924-2.051c1.119-1.244,2.237-2.549,3.235-3.911 c0.746-0.935,1.432-1.867,2.045-2.856c6.277-9.131,9.874-18.941,11.864-26.834c0.246-1.116,0.499-2.174,0.746-3.166 c1.184-5.34,1.678-9.441,1.797-11.489c0-0.372,0.061-0.686,0.061-0.932c0-0.184,0-0.313,0.072-0.37 C484.959,485.578,484.334,483.966,483.155,482.722 M471.477,495.519c-0.12,0.619-0.246,1.305-0.372,1.987 c-0.373,1.798-0.872,3.788-1.491,5.899c0,0.123-0.061,0.309-0.127,0.436c-0.307,1.115-0.68,2.297-1.172,3.535 c-0.253,0.813-0.565,1.682-0.938,2.49c-0.307,0.989-0.745,2.051-1.245,3.039c-0.427,1.182-1.052,2.367-1.737,3.543 c-0.746,1.551-1.672,3.103-2.67,4.723c-0.746,1.176-1.552,2.297-2.418,3.41c-0.806,1.121-1.737,2.297-2.802,3.418 c-0.68,0.807-1.485,1.675-2.297,2.48c-0.866,0.813-1.732,1.615-2.61,2.363c-3.103,2.73-6.639,5.156-10.739,7.145 c-0.933,0.433-1.925,0.932-2.923,1.305c-2.73,1.179-5.646,2.107-8.756,2.854c-1.112,0.243-2.237,0.496-3.476,0.748h-0.126 c-0.68,0.127-1.306,0.247-1.979,0.311c-1.185,0.183-2.369,0.369-3.608,0.43c-1.178,0.187-2.423,0.252-3.729,0.315 c-1.371,0.061-2.796,0.123-4.287,0.123c-17.072,0-30.241-4.907-39.063-14.595c-0.992-1.058-1.861-2.174-2.667-3.295 c-0.746-0.929-1.429-1.987-2.051-2.979c-0.998-1.614-1.927-3.232-2.673-4.97c-0.37-0.807-0.746-1.611-1.053-2.418 c-1.058-2.489-1.927-5.033-2.549-7.52c-0.06-0.123-0.06-0.31-0.124-0.43c-0.246-1.062-0.499-2.051-0.683-3.049 c-0.246-1.115-0.499-2.297-0.622-3.412c-0.622-3.909-0.869-7.389-0.929-10.124H471.85 C471.724,493.967,471.598,494.71,471.477,495.519"/></g><g><path fill="#FFF" d="M471.85,493.281c-0.12,0.683-0.246,1.429-0.373,2.233c-0.126,0.623-0.252,1.306-0.372,1.988 c-0.373,1.804-0.866,3.788-1.491,5.898c0,0.133-0.061,0.311-0.121,0.439c-0.313,1.115-0.686,2.297-1.184,3.542 c-0.247,0.806-0.56,1.671-0.933,2.48H361.799c-0.252-1.059-0.499-2.051-0.686-3.043c-0.252-1.122-0.496-2.297-0.619-3.419 c-0.622-3.908-0.869-7.387-0.938-10.12H471.85z"/></g><g><path fill="#FFF" d="M468.008,595.899v25.004l-56.833,39.285l-51.667-35.776V594.36c4.188,2.402,7.451,4.005,9.3,4.864 c8.743,12.132,23.028,22.661,44.7,22.661c21.492,0,34.733-10.282,42.311-22.229C460.063,598.548,464.129,597.255,468.008,595.899"/></g><g><rect width="67.368" height="12.932" x="493.443" y="722.688" fill="#B1D465"/></g><g><path fill="#E4F2FC" d="M467.376,509.866c-0.307,0.989-0.745,2.051-1.239,3.039c-0.433,1.182-1.058,2.361-1.743,3.543 c-0.746,1.551-1.672,3.103-2.67,4.717c-0.746,1.182-1.552,2.297-2.418,3.416c-0.806,1.121-1.743,2.297-2.796,3.418 c-0.686,0.807-1.491,1.675-2.297,2.48c-0.872,0.807-1.744,1.615-2.61,2.361c-3.108,2.732-6.645,5.158-10.745,7.146 c-0.933,0.433-1.925,0.932-2.923,1.305c-2.73,1.179-5.652,2.107-8.756,2.854c-1.112,0.246-2.237,0.499-3.476,0.746h-0.12 c-0.686,0.123-1.312,0.249-1.997,0.313c-1.172,0.183-2.356,0.369-3.596,0.43c-1.178,0.187-2.423,0.252-3.729,0.315 c-1.371,0.063-2.796,0.123-4.281,0.123c-17.09,0-30.247-4.907-39.068-14.595c-0.992-1.058-1.858-2.174-2.673-3.295 c-0.746-0.929-1.428-1.987-2.05-2.979c-0.989-1.614-1.921-3.232-2.667-4.97c-0.373-0.807-0.743-1.611-1.059-2.418 c-1.052-2.489-1.921-5.033-2.543-7.52c-0.06-0.123-0.06-0.31-0.124-0.43H467.376z"/></g><g><path fill="#ED2224" d="M370.224,573.181c-0.06-0.246-0.123-0.493-0.183-0.68c-0.063-0.183-0.063-0.307-0.063-0.43 C370.041,572.318,370.101,572.625,370.224,573.181"/></g><g><path fill="#ED2224" d="M370.963,575.887c-0.123-0.43-0.247-0.8-0.37-1.166c-0.063-0.127-0.063-0.247-0.063-0.373 C370.654,574.841,370.777,575.334,370.963,575.887"/></g><g><path fill="#E4F2FC" d="M468.008,595.899v15.641c-10.776,9.116-33.868,26.233-56.833,26.233c-20.938,0-40.828-14.164-51.667-23.708 V594.36c4.188,2.402,7.451,4.005,9.3,4.864c8.743,12.132,23.028,22.661,44.7,22.661c21.492,0,34.733-10.282,42.311-22.229 C460.063,598.548,464.129,597.255,468.008,595.899"/></g><g><path fill="#ED2224" d="M476.938,578.532l-0.247,2.466c-0.739-0.307-1.6-0.493-2.459-0.493c-0.866,0-1.732,0.187-2.466,0.493 C473.611,580.198,475.277,579.336,476.938,578.532"/></g><g><path fill="#E4F2FC" d="M534.762,648.119l-74.085,81.033c0,0-8.431,10.04-12.682,10.04c-4.312,0-10.963-4.125-15.088-10.04 l-15.395-23.151v-19.889l2.405,3.202l20.566,27.093c0.307,0.37,0.613,0.74,0.926,1.047c0.367,0.246,0.674,0.553,1.106,0.739 c0.367,0.247,0.8,0.43,1.227,0.554c0.493,0.123,0.986,0.186,1.479,0.186h0.252c0.367,0,0.795-0.063,1.167-0.123 c0.433-0.063,0.86-0.187,1.227-0.433c0.806-0.307,1.54-0.8,2.099-1.54h0.061l63.363-70.813c1.232,0,2.465,0.063,3.691,0.123 c0.927,0,1.853,0.063,2.772,0.123c0.307,0,0.62,0.063,0.927,0.063c0.492,0.06,0.979,0.06,1.473,0.123 c1.359,0.123,2.712,0.243,4.065,0.43c1.112,0.123,2.284,0.247,3.392,0.433c1.286,0.184,2.646,0.367,3.938,0.613 c0.246,0,0.493,0.063,0.739,0.124C534.51,648.057,534.636,648.119,534.762,648.119"/></g><g><path fill="#E4F2FC" d="M536.175,348.605v16.257c-6.591-5.725-18.166-10.529-21.426-10.529c-4.618,0-71.865,17.983-102.841,17.983 c-30.908,0-104.984-14.904-104.984-14.904c-8.313-1.6-14.904,3.755-19.212,9.113v-7.327c0.06-0.307,2.462-28.756,20.629-30.296 c7.081,3.756,33.25,14.285,105.173,14.285c69.208,0,94.025-9.913,101.536-14.102C520.715,330.072,536.175,334.137,536.175,348.605"/></g><g><path fill="#2887C8" d="M687.502,228.645h-74.38c-3.434,0-6.2-2.772-6.2-6.2c0-3.424,2.767-6.194,6.2-6.194h74.38 c3.421,0,6.193,2.77,6.193,6.194C693.695,225.873,690.923,228.645,687.502,228.645 M693.695,241.041 c0-3.424-2.772-6.197-6.193-6.197h-74.38c-3.434,0-6.2,2.772-6.2,6.197c0,3.431,2.767,6.2,6.2,6.2h74.38 C690.923,247.241,693.695,244.472,693.695,241.041 M681.296,259.638c0-3.431-2.767-6.203-6.194-6.203h-49.586 c-3.428,0-6.199,2.772-6.199,6.203c0,3.421,2.771,6.193,6.199,6.193h49.586C678.529,265.831,681.296,263.059,681.296,259.638 M604.878,208.572c2.537-2.285,2.742-6.209,0.444-8.75c-22.009-24.393-20.746-61.381,2.875-84.202 c23.608-22.833,60.621-22.833,84.229,0c23.62,22.821,24.877,59.809,2.868,84.202c-2.303,2.541-2.093,6.465,0.451,8.75 c2.531,2.291,6.464,2.08,8.749-0.445c26.513-29.384,25.004-73.935-3.451-101.41c-28.432-27.508-73.009-27.508-101.47,0 c-28.455,27.475-29.965,72.025-3.452,101.41c1.221,1.356,2.904,2.044,4.595,2.044C602.195,210.171,603.688,209.636,604.878,208.572 M668.902,278.231c0-3.428-2.772-6.2-6.2-6.2h-24.787c-3.428,0-6.206,2.772-6.206,6.2c0,3.424,2.778,6.197,6.206,6.197h24.787 C666.13,284.428,668.902,281.655,668.902,278.231"/></g><g><path fill="#2887C8" d="M650.309,71.365c-1.942,0-3.506-1.569-3.506-3.506v-33.35c0-1.939,1.563-3.509,3.506-3.509 s3.506,1.569,3.506,3.509v33.35C653.814,69.795,652.251,71.365,650.309,71.365"/></g><g><path fill="#2887C8" d="M603.813,83.813c-1.209,0-2.388-0.625-3.043-1.753l-16.651-28.861c-0.974-1.681-0.396-3.824,1.287-4.792 c1.666-0.965,3.813-0.391,4.787,1.281l16.656,28.87c0.963,1.675,0.397,3.819-1.286,4.79 C605.016,83.662,604.408,83.813,603.813,83.813"/></g><g><path fill="#2887C8" d="M569.826,117.86c-0.596,0-1.197-0.145-1.75-0.466l-28.889-16.693c-1.684-0.968-2.255-3.112-1.287-4.79 c0.963-1.684,3.115-2.255,4.787-1.28l28.895,16.693c1.678,0.965,2.255,3.109,1.287,4.79 C572.213,117.235,571.041,117.86,569.826,117.86"/></g><g><path fill="#2887C8" d="M776.584,164.29h-33.351c-1.937,0-3.5-1.57-3.5-3.503c0-1.939,1.563-3.509,3.5-3.509h33.351 c1.936,0,3.506,1.57,3.506,3.509C780.09,162.72,778.52,164.29,776.584,164.29"/></g><g><path fill="#2887C8" d="M557.384,164.29h-33.35c-1.937,0-3.512-1.57-3.512-3.503c0-1.939,1.575-3.509,3.512-3.509h33.35 c1.937,0,3.506,1.57,3.506,3.509C560.89,162.72,559.32,164.29,557.384,164.29"/></g><g><path fill="#2887C8" d="M730.792,117.824c-1.209,0-2.388-0.625-3.043-1.753c-0.968-1.675-0.391-3.818,1.287-4.784l28.858-16.663 c1.671-0.968,3.813-0.394,4.786,1.287c0.974,1.675,0.397,3.825-1.274,4.79l-28.864,16.657 C731.994,117.68,731.387,117.824,730.792,117.824"/></g><g><path fill="#2887C8" d="M696.768,83.813c-0.595,0-1.196-0.15-1.749-0.466c-1.678-0.971-2.249-3.115-1.287-4.79l16.657-28.87 c0.974-1.672,3.115-2.246,4.793-1.281c1.678,0.968,2.254,3.112,1.286,4.792L699.811,82.06 C699.155,83.187,697.982,83.813,696.768,83.813"/></g><g><line x1="105.395" x2="85.924" y1="395.822" y2="419.109" fill="#FFF"/></g><g><path fill="#2887C8" d="M85.923,419.609c-0.113,0-0.227-0.038-0.32-0.116c-0.212-0.178-0.24-0.492-0.063-0.704l19.471-23.288 c0.177-0.211,0.492-0.24,0.705-0.063c0.212,0.177,0.24,0.493,0.063,0.705L86.308,419.43 C86.208,419.549,86.066,419.609,85.923,419.609z"/></g><g><line x1="84.475" x2="107.629" y1="397.031" y2="417.02" fill="#FFF"/></g><g><path fill="#2887C8" d="M107.629,417.52c-0.116,0-0.232-0.04-0.327-0.121L84.148,397.41c-0.209-0.18-0.232-0.496-0.052-0.705 c0.18-0.21,0.496-0.233,0.705-0.052l23.154,19.988c0.209,0.181,0.232,0.497,0.052,0.706 C107.909,417.461,107.769,417.52,107.629,417.52z"/></g><g><line x1="123.207" x2="125.479" y1="267.04" y2="293.336" fill="#FFF"/></g><g><path fill="#2887C8" d="M125.479,293.836c-0.257,0-0.475-0.196-0.498-0.457l-2.273-26.296c-0.024-0.275,0.18-0.517,0.455-0.541 c0.277-0.034,0.517,0.18,0.541,0.455l2.273,26.296c0.024,0.275-0.18,0.517-0.455,0.541 C125.508,293.836,125.493,293.836,125.479,293.836z"/></g><g><line x1="111.054" x2="137.572" y1="280.606" y2="278.736" fill="#FFF"/></g><g><path fill="#2887C8" d="M111.053,281.106c-0.26,0-0.479-0.201-0.498-0.465c-0.02-0.275,0.188-0.515,0.463-0.534l26.519-1.871 c0.271-0.024,0.514,0.188,0.534,0.463c0.02,0.275-0.188,0.515-0.463,0.534l-26.519,1.871 C111.077,281.106,111.065,281.106,111.053,281.106z"/></g><g><line x1="263.174" x2="265.447" y1="111.228" y2="137.518" fill="#FFF"/></g><g><path fill="#2887C8" d="M265.446,138.018c-0.257,0-0.475-0.196-0.498-0.457l-2.273-26.291c-0.024-0.275,0.18-0.517,0.455-0.541 c0.275-0.035,0.517,0.18,0.541,0.455l2.273,26.291c0.024,0.275-0.18,0.517-0.455,0.541 C265.475,138.018,265.46,138.018,265.446,138.018z"/></g><g><line x1="251.021" x2="277.543" y1="124.794" y2="122.923" fill="#FFF"/></g><g><path fill="#2887C8" d="M251.02,125.294c-0.26,0-0.479-0.201-0.498-0.465c-0.02-0.275,0.188-0.515,0.463-0.534l26.522-1.871 c0.275-0.029,0.514,0.188,0.534,0.463s-0.188,0.515-0.463,0.534l-26.522,1.871C251.044,125.293,251.032,125.294,251.02,125.294z"/></g><g><line x1="158.634" x2="141.644" y1="130.212" y2="150.411" fill="#FFF"/></g><g><path fill="#2887C8" d="M141.643,150.911c-0.113,0-0.228-0.039-0.321-0.117c-0.211-0.178-0.239-0.493-0.061-0.705l16.991-20.199 c0.179-0.21,0.493-0.238,0.705-0.061c0.211,0.178,0.239,0.493,0.061,0.705l-16.991,20.199 C141.927,150.85,141.786,150.911,141.643,150.911z"/></g><g><line x1="140.447" x2="160.52" y1="131.21" y2="148.643" fill="#FFF"/></g><g><path fill="#2887C8" d="M160.52,149.143c-0.116,0-0.233-0.041-0.328-0.123l-20.073-17.433c-0.208-0.181-0.231-0.497-0.05-0.705 c0.181-0.209,0.498-0.23,0.705-0.05l20.073,17.433c0.208,0.181,0.231,0.497,0.05,0.705 C160.798,149.084,160.659,149.143,160.52,149.143z"/></g><g><path fill="#B6DDF5" d="M183.124,396.237c-6.711,3.854-15.283,1.54-19.138-5.174c-3.864-6.711-1.546-15.283,5.171-19.138 c6.711-3.861,15.283-1.545,19.137,5.171C192.15,383.811,189.835,392.383,183.124,396.237"/></g><g><path fill="#B6DDF5" d="M214.035,203.256c-7.904,4.541-17.998,1.813-22.535-6.088c-4.546-7.904-1.818-17.998,6.089-22.541 c7.908-4.54,17.992-1.813,22.538,6.088C224.67,188.625,221.943,198.713,214.035,203.256"/></g><g><path fill="#B6DDF5" d="M45.767,248.892c-7.451,4.282-16.964,1.714-21.246-5.737c-4.279-7.451-1.71-16.963,5.74-21.245 c7.457-4.279,16.964-1.711,21.242,5.74C55.784,235.1,53.217,244.613,45.767,248.892"/></g></svg>