<svg xmlns="http://www.w3.org/2000/svg" id="Layer_1" width="800" height="800" x="0" y="0" enable-background="new 0 0 800 800" version="1.0" viewBox="0 0 800 800" xml:space="preserve"><path fill="#FFF" d="M602.871,362.7c0,27.489-24.229,39.604-37.549,44.14v-27.278c7.438-10.842,12.752-28.198,16.578-49.242	C592.597,335.35,602.871,344.987,602.871,362.7"/><path fill="#2887C8" d="M539.674,611.599c1.273,0.139,2.622,0.276,3.896,0.491c0.214,0,0.498,0,0.782,0.076	C542.856,611.875,541.307,611.737,539.674,611.599 M440.913,691.582l-23.67-31.177l-2.761-3.681v0.214l26.285,34.644	c0.353,0.498,0.781,0.857,1.204,1.203C441.619,692.439,441.259,692.011,440.913,691.582"/><path fill="#2887C8" d="M524.508,596.225l-25.642-25.586c-2.408-2.408-6.311-2.83-9.071-0.844l-2.906,1.979v-24.867	c75.527-36.269,78.357-116.688,78.427-117.681v-7.368c20.55-5.739,51.795-23.452,51.795-59.157	c0-25.933-16.079-40.103-33.017-47.045c6.02-42.51,7.085-96.357,7.085-144.606c0-49.595-54.272-67.097-86.362-69.715	c-21.4-1.702-87.643-4.888-96.43-5.245c-3.826-16.65-5.881-34.501-1.626-45.841c0.913-2.55,0.353-5.525-1.563-7.438	c-1.979-1.982-4.815-2.691-7.361-1.84c-0.789,0.211-17.152,5.808-31.606,15.16c-4.607-5.314-11.693-16.226-10.268-32.45	c0.277-2.975-1.425-5.878-4.179-7.154c-2.698-1.204-5.958-0.637-8.082,1.561c-0.775,0.778-19.276,20.047-32.948,49.806	c-4.11,9.071-7.438,18.211-9.701,27.278c-18.003,3.4-76.378,20.898-76.378,104.998c0,41.307,5.172,81.692,10.839,113.997	c-18.138,6.379-36.771,20.549-36.771,48.536c0,35.989,31.668,53.701,52.286,59.299c3.189,59.586,51.014,100.11,82.397,120.444	v33.371l-8.78-6.02c-2.837-1.986-6.739-1.564-9.147,0.844l-25.642,25.586c-139.648,2.187-157.572,160.188-157.714,161.82	c-0.215,2.049,0.426,4.034,1.771,5.521c1.346,1.488,3.259,2.339,5.313,2.339h535.903c2.063,0,3.972-0.851,5.314-2.339	c1.349-1.487,2.062-3.473,1.847-5.521C682.08,756.412,664.159,598.411,524.508,596.225 M492.984,584.954l18.702,18.702	l-64.685,72.482l-29.613-38.968l63.197-43.645h0.069l5.313-3.75L492.984,584.954z M602.871,362.7	c0,27.489-24.229,39.604-37.556,44.136v-27.274c7.444-10.842,12.759-28.201,16.585-49.242	C592.597,335.35,602.871,344.987,602.871,362.7 M250.535,406.767c-13.177-4.604-37.48-16.861-37.48-44.066	c0-20.051,13.035-29.617,25.15-34.221c5.313,26.921,10.559,46.264,12.33,52.57V406.767z M250.888,280.016v30.605	c-0.495,0-0.993,0.073-1.488,0.146c-0.993-5.739-1.982-11.693-2.975-17.927c-0.356-2.48-0.709-5.03-1.062-7.652	c-3.684-26.002-6.379-55.262-6.379-85.021c0-42.721,16.367-65.536,33.093-77.72c9.493-6.943,19.124-10.417,25.925-12.188	c-3.896,25.365-0.214,50.021,10.773,72.763c1.204,2.553,3.819,4.11,6.449,4.11c0.989,0,2.048-0.214,3.044-0.709	c3.612-1.771,5.1-6.023,3.404-9.565c-27.357-56.538,3.542-111.021,21.394-135.466c2.546,10.558,7.652,18.425,11.831,23.382	c-6.587,6.165-10.559,12.471-11.9,19.058c-0.782,3.968,1.702,7.652,5.667,8.431c3.757,0.778,7.576-1.698,8.358-5.524	c0.92-4.608,4.892-9.708,11.34-14.737c6.871-5.314,15.305-9.635,22.03-12.683c-2.546,31.813,14.876,75.596,15.734,77.793	c1.127,2.764,3.75,4.463,6.655,4.463c0.921,0,1.771-0.211,2.622-0.564c3.688-1.418,5.459-5.67,3.965-9.285	c-1.91-4.816-4.607-12.399-7.224-21.255c17.429,0.924,72.76,3.688,91.607,5.176c0.706,0,73.119,6.376,73.119,55.403	c0,27.205,0,90.545-6.663,140.423c-0.283,2.412-0.637,4.819-0.989,7.085c-0.429,2.48-0.782,4.818-1.135,7.085	c-0.851,4.961-1.771,9.638-2.768,14.17v-71.417c0-8.075-2.407-14.592-6.228-19.695c-2.836-3.896-6.448-7.013-10.35-9.493	c-7.723-4.96-16.578-7.299-22.951-7.863c-1.771-0.145-3.688,0.495-5.099,1.488c0,0-1.065,0.778-3.543,1.84	c-9.001,4.041-37.127,13.177-107.271,13.177c-90.618,0-115.063-15.163-115.201-15.232c-1.204-0.851-2.622-1.273-4.041-1.273	C262.01,231.344,252.091,262.798,250.888,280.016 M265.199,415.765v-34.574c0,0.709-0.142,1.346-0.353,1.982v-3.968	c0.211,0.567,0.283,1.135,0.353,1.702l-0.069-91.894v-8.431c0.069-0.353,2.833-33.086,23.732-34.857	c8.15,4.321,38.262,16.436,121.013,16.436c79.637,0,108.184-11.406,116.833-16.225c6.518,1.135,24.299,5.812,24.299,22.459v160.62	c-0.069,0.848-2.477,70.851-68.151,103.937l-0.291,2.83c-0.844-0.346-1.84-0.567-2.829-0.567s-1.986,0.222-2.837,0.567	c-0.069,0-0.146,0.068-0.215,0.068c-3.252,1.495-6.656,2.838-10.268,3.973c1.342-4.608,2.124-9.064,2.339-12.752	c0.276-3.965-2.63-7.369-6.518-7.652c-3.833-0.215-7.376,2.691-7.652,6.594c-0.069,0.913-0.928,10.766-6.38,20.757	c-0.068,0-0.068,0-0.068,0.069c-0.284,0.566-0.568,1.203-0.928,1.701c-0.069,0.069-0.069,0.139-0.139,0.208	c-6.164,10.13-17.214,19.844-37.195,19.844c-20.758,0-33.226-10.42-40.525-21.048c0-0.068-0.076-0.139-0.145-0.207	c-0.208-0.291-0.353-0.567-0.567-0.858c-0.706-1.059-1.273-2.048-1.841-3.044c-1.557-2.685-2.761-5.169-3.611-7.432	c-0.775-1.923-1.418-3.542-1.91-4.967c-0.146-0.423-0.214-0.775-0.36-1.135c-0.139-0.492-0.277-0.914-0.422-1.343	c-0.076-0.139-0.076-0.284-0.076-0.429c-0.139-0.491-0.277-0.982-0.346-1.343c-0.076-0.283-0.145-0.567-0.221-0.774	c-0.069-0.222-0.069-0.36-0.069-0.498c-0.069-0.139-0.069-0.215-0.069-0.291c-0.706-3.819-4.387-6.372-8.289-5.66	c-3.895,0.637-6.518,4.387-5.742,8.289c0.359,1.91,0.857,4.041,1.563,6.228c-3.259-1.979-6.732-4.248-10.489-6.726	C307.004,506.874,265.199,468.764,265.199,415.765 M321.381,584.954l13.111,9.07l4.747,3.259h0.069l57.669,39.888l-11.617,15.306	l-17.927,23.662l-64.754-72.482L321.381,584.954z M400.029,751.666H147.588c0.64-3.826,1.702-8.856,3.189-14.737	c0.353-1.487,0.709-2.976,1.135-4.539c0.495-1.626,0.92-3.252,1.415-4.885c0.425-1.633,0.993-3.335,1.56-5.106	c2.833-8.779,6.445-18.418,11.195-28.264c0.92-1.985,1.913-3.965,2.975-5.957c2.197-4.248,4.604-8.496,7.296-12.744	c0.92-1.495,1.844-2.906,2.833-4.401c0.851-1.272,1.771-2.546,2.764-3.888c1.134-1.702,2.408-3.336,3.615-4.969	c1.63-2.047,3.259-4.033,4.958-6.02c1.346-1.48,2.691-3.044,4.109-4.531c0.215-0.354,0.567-0.644,0.852-0.92	c1.487-1.564,2.975-3.045,4.531-4.539c3.048-2.976,6.38-5.813,9.85-8.496c1.702-1.35,3.473-2.699,5.313-3.972	c0.284-0.208,0.567-0.429,0.924-0.637c3.753-2.546,7.722-4.954,11.9-7.224c2.197-1.135,4.394-2.27,6.732-3.335	c2.266-0.989,4.604-1.979,7.012-2.976c2.48-0.92,4.888-1.771,7.441-2.546c2.408-0.781,4.958-1.494,7.438-2.131	c0.142-0.069,0.283-0.069,0.353-0.069c2.553-0.637,5.176-1.203,7.867-1.701c0.069-0.07,0.142-0.07,0.283-0.07	c0.142,0,0.284-0.068,0.422-0.068c1.771-0.36,3.615-0.637,5.386-0.852c1.276-0.215,2.619-0.353,3.892-0.491	c1.564-0.222,3.121-0.359,4.677-0.498c3.335-0.29,6.739-0.429,10.205-0.498l72.905,81.478c1.342,1.563,3.259,2.408,5.244,2.408	h0.284c2.193-0.069,4.179-1.135,5.452-2.906l23.669-31.177l2.762-3.681V751.666z M347.742,585.736v-34.581	c4.815,2.768,8.566,4.607,10.697,5.604c10.06,13.955,26.5,26.07,51.436,26.07c24.728,0,39.963-11.832,48.674-25.572	c4.893-1.28,9.569-2.768,14.025-4.332v28.77l-65.391,45.201L347.742,585.736z M579.348,751.666h-77.507v-23.663h77.507V751.666z M593.586,751.666v-30.817c0-3.972-3.183-7.161-7.085-7.161h-91.745c-3.971,0-7.154,3.189-7.154,7.161v30.817h-73.265v-94.941	l0.146,0.214v-0.214l2.761,3.681l23.663,31.177c0.353,0.429,0.713,0.851,1.065,1.203c0.422,0.291,0.781,0.637,1.272,0.858	c0.422,0.276,0.921,0.491,1.419,0.637c0.567,0.139,1.135,0.208,1.702,0.208h0.276c0.429,0,0.927-0.069,1.35-0.139	c0.498-0.146,0.989-0.291,1.418-0.498c0.921-0.36,1.771-0.921,2.408-1.771l72.904-81.478h0.076c1.412,0,2.83,0.069,4.249,0.139	c1.064,0,2.123,0.069,3.182,0.146c0.36,0,0.713,0.068,1.066,0.068c0.567,0.076,1.135,0.076,1.701,0.146	c1.558,0.139,3.114,0.276,4.678,0.498c1.633,0.139,3.183,0.276,4.678,0.567c1.272,0.139,2.546,0.346,3.75,0.637	c0.29,0,0.566,0.069,0.851,0.139c0.146,0,0.284,0.068,0.422,0.068c0.076-0.068,0.146-0.068,0.222,0.07	c2.339,0.429,4.67,0.857,7.009,1.418c0.215,0,0.353,0,0.498,0.145c2.408,0.499,4.747,1.135,7.009,1.841	c2.415,0.706,4.822,1.487,7.085,2.339c2.484,0.844,4.892,1.84,7.161,2.837c2.691,1.204,5.314,2.407,7.937,3.819	c2.546,1.349,5.099,2.768,7.583,4.324h0.069c2.407,1.487,4.746,3.051,7.016,4.746c0.139,0.076,0.208,0.146,0.346,0.215	c1.993,1.411,3.833,2.906,5.743,4.463c0.705,0.491,1.342,1.059,2.055,1.695c1.916,1.633,3.826,3.334,5.667,5.175	c1.985,1.841,3.826,3.757,5.673,5.743c1.059,1.135,2.049,2.27,3.045,3.396c0.844,0.92,1.626,1.848,2.338,2.83	c1.135,1.28,2.193,2.629,3.184,3.972c0.637,0.782,1.279,1.633,1.84,2.407c1.135,1.564,2.27,3.045,3.335,4.678	c0.637,0.927,1.273,1.84,1.909,2.837c0.997,1.411,1.917,2.905,2.838,4.462c1.563,2.484,3.044,5.03,4.462,7.652	c14.883,27.13,21.187,54.487,23.448,67.592H593.586z"/><path fill="#FFF" d="M503.751,115.646c-18.848-1.488-74.179-4.252-91.607-5.172c2.616,8.856,5.313,16.436,7.224,21.255	c1.494,3.615-0.276,7.863-3.965,9.282c-0.851,0.353-1.701,0.567-2.622,0.567c-2.905,0-5.528-1.702-6.655-4.463	c-0.858-2.197-18.28-45.983-15.734-77.796c-6.725,3.048-15.159,7.369-22.03,12.683c-6.449,5.03-10.42,10.133-11.34,14.737	c-0.782,3.826-4.601,6.307-8.358,5.528c-3.964-0.782-6.449-4.463-5.667-8.435c1.342-6.587,5.313-12.894,11.9-19.055	c-4.179-4.961-9.285-12.828-11.831-23.383c-17.851,24.445-48.751,78.928-21.394,135.466c1.695,3.542,0.208,7.794-3.404,9.565	c-0.996,0.495-2.055,0.706-3.044,0.706c-2.63,0-5.245-1.557-6.449-4.11c-10.987-22.743-14.668-47.395-10.773-72.759	c-6.801,1.771-16.433,5.241-25.925,12.184c-16.727,12.188-33.093,35-33.093,77.724c0,29.755,2.695,59.015,6.379,85.02	c0.353,2.619,0.706,5.172,1.062,7.649c0.993,6.237,1.982,12.188,2.975,17.927c0.495-0.069,0.993-0.142,1.488-0.142v-30.606	c1.204-17.218,11.122-48.675,39.746-48.675c1.418,0,2.837,0.426,4.041,1.273c0.139,0.072,24.583,15.235,115.201,15.235	c70.144,0,98.27-9.14,107.271-13.181c2.478-1.062,3.543-1.84,3.543-1.84c1.411-0.993,3.328-1.629,5.099-1.488	c6.373,0.567,15.229,2.906,22.951,7.863c3.901,2.48,7.514,5.598,10.35,9.497c3.82,5.099,6.228,11.617,6.228,19.695v71.417	c0.996-4.535,1.917-9.212,2.768-14.17c0.353-2.266,0.706-4.604,1.135-7.085c0.353-2.266,0.706-4.677,0.989-7.085	c6.663-49.878,6.663-113.218,6.663-140.423C576.87,122.021,504.457,115.646,503.751,115.646 M379.832,203.641	c-1.135,3.968-4.953,5.456-8.711,4.892c-12.045-1.771-22.881-6.521-29.896-16.723c-5.175-7.51,7.154-14.665,12.33-7.154	c4.747,7.012,13.458,8.994,21.325,10.271C378.629,195.493,380.76,200.24,379.832,203.641 M389.471,171.616	c-9.569-4.746-17.713-6.871-24.652-15.658c-6.172-7.721-9.783-16.861-13.326-25.929c-3.252-8.573,10.489-12.26,13.672-3.826	c2.837,7.369,5.881,15.16,10.918,21.324c5.591,6.801,13.104,8.147,20.543,11.832C404.775,163.469,397.614,175.657,389.471,171.616 M448.842,187.558c-11.831-1.063-23.31-1.204-33.861-7.154c-8.012-4.535-0.857-16.72,7.154-12.33	c8.22,4.677,17.567,4.466,26.707,5.245C457.912,174.097,457.912,188.336,448.842,187.558 M457.837,152.983	c-8.78,0.073-17.491-0.142-26.209-0.637c-9.14-0.494-9.14-14.665,0-14.17c8.718,0.495,17.429,0.709,26.209,0.637	C466.914,138.741,466.914,152.983,457.837,152.983 M484.903,184.655c-5.03,0.567-9.991,0.283-14.944-0.426	c-3.902-0.495-5.882-5.313-5.037-8.715c1.135-3.968,4.968-5.455,8.718-4.892c3.681,0.499,7.583,0.356,11.264-0.138	c3.826-0.425,7.085,3.612,7.085,7.085C491.988,181.749,488.729,184.229,484.903,184.655"/><path fill="#FFF" d="M250.535,381.049v25.718c-13.177-4.604-37.48-16.861-37.48-44.07c0-20.048,13.035-29.613,25.15-34.218	C243.519,355.4,248.764,374.743,250.535,381.049"/><polygon fill="#FFF" points="396.978 637.171 385.36 652.477 367.434 676.139 302.679 603.656 321.381 584.954 334.492 594.024 339.239 597.276 339.308 597.276"/><path fill="#E4F2FC" d="M400.021,656.725v22.888L382.31,706.25c-4.747,6.801-12.399,11.555-17.353,11.555	c-4.885,0-14.6-11.555-14.6-11.555l-85.23-93.24c0.142,0,0.283-0.068,0.425-0.068c1.771-0.36,3.615-0.637,5.386-0.852	c1.276-0.215,2.619-0.353,3.892-0.491c1.564-0.222,3.121-0.359,4.677-0.498c3.335-0.29,6.732-0.429,10.205-0.498l72.905,81.478	c1.342,1.563,3.259,2.408,5.244,2.408h0.277c2.2-0.069,4.186-1.135,5.459-2.906l23.669-31.177L400.021,656.725z"/><path fill="#FFF" d="M400.021,679.612v72.054H147.588c0.636-3.826,1.702-8.856,3.189-14.737c0.353-1.487,0.709-2.976,1.131-4.539	c0.499-1.626,0.924-3.252,1.419-4.885c0.494-1.702,0.993-3.404,1.557-5.106c2.837-8.779,6.448-18.418,11.195-28.264	c0.923-1.985,1.913-3.965,2.975-5.95c2.197-4.255,4.608-8.503,7.299-12.751c0.92-1.495,1.84-2.906,2.833-4.401	c0.851-1.272,1.771-2.546,2.764-3.888c1.134-1.702,2.408-3.336,3.612-4.969c1.629-2.047,3.259-4.033,4.961-6.02	c1.346-1.48,2.691-3.044,4.109-4.531c0.211-0.354,0.567-0.637,0.852-0.92c1.487-1.564,2.975-3.045,4.531-4.539	c3.048-2.976,6.38-5.805,9.85-8.496c1.698-1.35,3.47-2.699,5.313-3.972c0.284-0.208,0.567-0.423,0.92-0.637	c3.757-2.546,7.725-4.954,11.904-7.224c2.197-1.135,4.394-2.27,6.732-3.335c2.266-0.989,4.604-1.979,7.012-2.976	c2.408-0.92,4.888-1.771,7.438-2.546c2.411-0.781,4.888-1.494,7.441-2.131c0.142-0.069,0.283-0.069,0.353-0.069	c2.553-0.637,5.172-1.203,7.867-1.701c0.069-0.07,0.138-0.07,0.28-0.07l85.23,93.24c0,0,9.714,11.548,14.6,11.548	c4.954,0,12.605-4.747,17.353-11.548L400.021,679.612z"/><polygon fill="#FFF" points="511.687 603.656 447.002 676.139 417.389 637.171 480.586 593.526 480.655 593.526 485.969 589.776 492.984 584.954"/><rect width="77.507" height="23.663" x="501.841" y="728.003" fill="#FFF"/><path fill="#FFF" d="M593.586,751.666v-30.817c0-3.972-3.183-7.161-7.085-7.161h-91.745c-3.971,0-7.154,3.189-7.154,7.161v30.817	h-73.265v-94.941l0.146,0.214l26.285,34.644c0.353,0.498,0.781,0.851,1.204,1.203c0.353,0.36,0.781,0.706,1.272,0.858	c0.422,0.276,0.921,0.491,1.419,0.637c0.567,0.139,1.135,0.208,1.702,0.208h0.276c0.429,0,0.927-0.069,1.35-0.139	c0.498-0.146,0.989-0.291,1.418-0.498c0.921-0.36,1.771-0.921,2.408-1.771l72.904-81.478h0.076c1.412,0,2.83,0.069,4.249,0.139	c1.064,0,2.123,0.069,3.182,0.146c0.36,0,0.713,0.068,1.066,0.068c0.567,0.076,1.135,0.076,1.701,0.146	c1.558,0.139,3.114,0.276,4.678,0.498c1.633,0.139,3.183,0.276,4.678,0.567c1.272,0.139,2.546,0.346,3.75,0.637	c0.29,0,0.566,0.069,0.851,0.139c0.146,0,0.284,0.068,0.422,0.068c0.076-0.068,0.146-0.068,0.222,0.07	c2.339,0.429,4.67,0.857,7.009,1.418c0.215,0,0.353,0,0.498,0.145c2.408,0.568,4.747,1.205,7.009,1.841	c2.415,0.706,4.746,1.487,7.085,2.339c2.484,0.844,4.892,1.84,7.161,2.837c2.691,1.204,5.314,2.477,7.937,3.819	c2.546,1.349,5.099,2.768,7.583,4.324h0.069c2.407,1.487,4.746,3.051,7.016,4.746c0.139,0.076,0.208,0.146,0.346,0.215	c1.917,1.411,3.833,2.906,5.743,4.463c0.705,0.491,1.342,1.059,2.055,1.695c1.916,1.633,3.826,3.334,5.667,5.175	c1.985,1.841,3.826,3.757,5.673,5.743c1.059,1.135,2.049,2.27,3.045,3.396c0.844,0.92,1.626,1.848,2.338,2.83	c1.135,1.28,2.193,2.629,3.184,3.972c0.637,0.782,1.279,1.633,1.84,2.407c1.135,1.564,2.27,3.045,3.335,4.678	c0.637,0.927,1.273,1.84,1.909,2.837c0.997,1.411,1.917,2.905,2.838,4.462c1.563,2.484,3.044,5.03,4.462,7.652	c14.883,27.13,21.187,54.487,23.448,67.592H593.586z"/><path fill="#2887C8" d="M482.855,532.944l-0.291,2.837c-0.844-0.346-1.84-0.567-2.829-0.567s-1.986,0.222-2.837,0.567	C479.022,534.867,480.939,533.871,482.855,532.944"/><path fill="#2887C8" d="M265.199,380.904v0.284c0,0.709-0.142,1.35-0.353,1.986v-3.968	C265.058,379.772,265.13,380.34,265.199,380.904"/><path fill="#2887C8" d="M370.52,357.041c-1.57,3.57-5.784,5.213-9.354,3.639c-34.595-15.287-49.097,7.002-49.74,7.936	c-1.363,2.145-3.716,3.359-6.068,3.359c-1.294,0-2.581-0.363-3.722-1.069c-3.363-2.076-4.429-6.435-2.359-9.722	c0.214-0.363,21.365-34.017,67.604-13.582C370.52,349.174,372.166,353.391,370.52,357.041"/><path fill="#2887C8" d="M507.937,372.47c-1.142,0.72-2.429,1.01-3.64,1.01c-2.497,0-4.863-1.221-6.15-3.439	c-15.789-26.506-46.592-11.648-47.872-11.001c-3.577,1.785-7.867,0.353-9.583-3.217c-1.785-3.501-0.276-7.788,3.225-9.573	c15.139-7.503,48.516-13.724,66.449,16.43C512.441,366.118,511.293,370.474,507.937,372.47"/><path fill="#2887C8" d="M265.199,380.904v0.284c0,0.709-0.142,1.35-0.353,1.986v-3.968	C265.058,379.772,265.13,380.34,265.199,380.904"/><path fill="#2887C8" d="M389.471,171.613c-9.569-4.747-17.713-6.871-24.652-15.658c-6.172-7.722-9.783-16.861-13.326-25.929	c-3.259-8.572,10.489-12.257,13.672-3.826c2.837,7.369,5.881,15.163,10.918,21.328c5.591,6.801,13.104,8.144,20.543,11.832	C404.775,163.469,397.614,175.653,389.471,171.613"/><path fill="#2887C8" d="M457.844,152.98c-8.787,0.073-17.498-0.138-26.216-0.636c-9.14-0.495-9.14-14.665,0-14.17	c8.718,0.499,17.429,0.709,26.216,0.637C466.914,138.741,466.914,152.98,457.844,152.98"/><path fill="#2887C8" d="M448.842,187.554c-11.831-1.059-23.303-1.204-33.861-7.154c-8.012-4.531-0.857-16.719,7.154-12.329	c8.22,4.677,17.574,4.466,26.707,5.244C457.912,174.097,457.912,188.336,448.842,187.554"/><path fill="#2887C8" d="M491.988,177.57c0,4.179-3.259,6.66-7.085,7.085c-5.03,0.567-9.991,0.283-14.944-0.426	c-3.902-0.495-5.882-5.313-5.037-8.715c1.135-3.968,4.968-5.455,8.718-4.892c3.681,0.499,7.583,0.356,11.264-0.138	C488.729,170.06,491.988,174.097,491.988,177.57"/><path fill="#2887C8" d="M379.832,203.641c-1.135,3.964-4.953,5.452-8.711,4.888c-12.045-1.771-22.881-6.521-29.896-16.72	c-5.175-7.514,7.154-14.668,12.33-7.158c4.747,7.013,13.458,8.998,21.325,10.271C378.629,195.49,380.76,200.236,379.832,203.641"/><path fill="#FFF" d="M526.348,274.985c-5.313,0-82.682,20.688-118.313,20.688c-35.563,0-120.805-17.145-120.805-17.145	c-9.563-1.84-17.142,4.321-22.1,10.486l0.069,91.894v34.857c0,52.999,41.805,91.109,71.556,111.589	c3.757,2.478,7.23,4.746,10.489,6.726c-0.706-2.187-1.204-4.317-1.563-6.228c-0.775-3.902,1.847-7.652,5.742-8.289	c3.902-0.712,7.583,1.841,8.289,5.66c0,0.076,0,0.152,0.069,0.291c0.069,0.276,0.146,0.637,0.291,1.272	c0.069,0.36,0.208,0.852,0.346,1.343c0.146,0.567,0.291,1.135,0.498,1.771c0.146,0.359,0.214,0.712,0.36,1.135	c0.491,1.425,1.134,3.044,1.91,4.967c0.851,2.263,2.055,4.747,3.611,7.432c0.567,0.996,1.135,1.985,1.841,3.044	c0.214,0.291,0.359,0.567,0.567,0.858c0.069,0.068,0.145,0.139,0.145,0.207c7.299,10.628,19.767,21.048,40.525,21.048	c19.981,0,31.031-9.714,37.195-19.844c0.069-0.069,0.069-0.139,0.139-0.208c0.222-0.566,0.498-1.203,0.928-1.701	c0-0.069,0-0.069,0.068-0.069c5.452-9.991,6.311-19.844,6.38-20.757c0.276-3.902,3.819-6.809,7.652-6.594	c3.888,0.283,6.794,3.688,6.518,7.652c-0.215,3.688-0.997,8.144-2.339,12.752c3.611-1.135,7.016-2.478,10.268-3.973	c0.069,0,0.146-0.068,0.215-0.068c2.124-0.914,4.041-1.91,5.957-2.83c65.675-33.086,68.082-103.089,68.151-103.937V287.101	C543.424,280.51,530.111,274.985,526.348,274.985 M311.39,368.578c-1.342,2.196-3.681,3.4-6.02,3.4c-1.273,0-2.622-0.353-3.75-1.062	c-3.335-2.055-4.4-6.445-2.338-9.708c0.207-0.353,21.394-34.007,67.584-13.603c3.688,1.561,5.313,5.809,3.688,9.424	c-1.626,3.615-5.812,5.241-9.424,3.684C326.557,345.41,312.103,367.657,311.39,368.578 M491.988,428.375	c0,0.283-0.068,0.64-0.068,1.065c-0.139,2.339-0.706,7.085-2.056,13.177c-0.283,1.204-0.567,2.408-0.851,3.685	c-2.27,9.067-6.449,20.331-13.672,30.89c-0.706,1.135-1.488,2.2-2.339,3.259c-1.135,1.557-2.407,3.052-3.757,4.532	c-0.706,0.781-1.418,1.563-2.193,2.338c-0.928,0.928-1.841,1.841-2.837,2.768c-1.204,1.135-2.478,2.27-3.896,3.328	c-1.418,1.135-2.906,2.263-4.463,3.259c-1.563,1.065-3.189,2.056-4.885,2.976c-1.065,0.637-2.2,1.204-3.404,1.771	c-0.566,0.283-1.135,0.567-1.633,0.774c-0.92,0.498-1.771,0.927-2.76,1.211c-0.921,0.422-1.848,0.782-2.761,1.128	c-1.986,0.789-4.18,1.426-6.38,2.062c-1.203,0.353-2.477,0.637-3.826,0.913c-0.851,0.222-1.702,0.43-2.691,0.568	c-1.702,0.359-3.404,0.643-5.244,0.857c-2.547,0.346-5.176,0.567-7.86,0.706c-2.062,0.138-4.179,0.283-6.31,0.283	c-3.259,0-6.587-0.214-9.632-0.491c-1.134-0.076-2.2-0.222-3.266-0.359c-17.851-2.2-32.09-9.141-42.717-20.688	c-1.066-1.135-2.055-2.339-2.975-3.612c-0.851-1.065-1.633-2.131-2.339-3.189c-0.782-1.135-1.563-2.263-2.27-3.474	c-0.567-0.851-1.065-1.84-1.487-2.76c-0.567-0.928-0.989-1.841-1.418-2.699c-0.92-1.909-1.771-3.75-2.477-5.729	c-0.498-1.356-0.996-2.698-1.418-4.041c-1.986-5.742-3.121-11.409-3.757-16.37c-0.138-1.346-0.353-2.618-0.422-3.896	c-0.146-1.276-0.214-2.48-0.284-3.615c-0.429-6.87-0.069-11.479,0-11.973c0.353-3.685,3.473-6.445,7.154-6.445h144.107	c1.985,0,3.826,0.778,5.106,2.124c1.342,1.419,2.048,3.259,2.048,5.245C491.988,428.021,491.988,428.164,491.988,428.375 M507.93,372.477c-1.135,0.706-2.408,0.989-3.611,0.989c-2.547,0-4.885-1.204-6.165-3.4c-15.796-26.569-46.62-11.689-47.894-11.053	c-3.542,1.844-7.866,0.356-9.568-3.187c-1.771-3.474-0.276-7.794,3.196-9.565c15.153-7.511,48.53-13.744,66.45,16.439	C512.469,366.098,511.265,370.491,507.93,372.477"/><path fill="#2887C8" d="M443.224,487.515c0,0,3.362,6.794,12.51,9.229c-1.536,1.038-3.072,2.021-4.747,2.92	c-3.21,1.799-6.794,3.438-10.571,4.864c-2.007,0.782-4.151,1.433-6.366,2.075c-1.211,0.354-2.504,0.644-3.854,0.928	c-0.865,0.214-1.723,0.436-2.65,0.574c-1.715,0.359-3.432,0.65-5.285,0.857c-2.505,0.354-5.148,0.567-7.86,0.706	c-2.075,0.152-4.138,0.222-6.289,0.222c-3.286,0-6.573-0.139-9.652-0.43c-1.135-0.068-2.207-0.214-3.286-0.359	c-17.789-2.214-32.083-9.146-42.655-20.715c-1.073-1.148-2.076-2.367-3.003-3.578c-0.858-1.072-1.646-2.145-2.366-3.217	c-0.775-1.148-1.563-2.283-2.207-3.501c-0.574-0.858-1.073-1.785-1.502-2.719c-0.498-0.852-0.996-1.785-1.432-2.713	c-0.928-1.931-1.785-3.784-2.498-5.722c-0.498-1.35-0.996-2.712-1.425-4.068c-1.937-5.715-3.072-11.364-3.722-16.367	c-0.139-1.355-0.353-2.643-0.422-3.854c-0.145-1.29-0.221-2.501-0.291-3.649c-0.422-6.86-0.076-11.499,0-12.001	c0.36-3.643,3.425-6.435,7.147-6.435h144.136c1.93,0,3.784,0.785,5.064,2.145c1.363,1.433,2.075,3.29,2.075,5.217	c-0.069,0.069-0.069,0.222-0.069,0.433c0,0.283-0.068,0.637-0.068,1.069c-0.139,2.359-0.72,7.071-2.076,13.222	c-0.283,1.139-0.567,2.359-0.857,3.64c-0.789,3.134-1.91,6.583-3.197,10.126l-14.627-0.824c0.222-0.55,0.513-1.109,0.679-1.649	c0.429-0.935,0.788-1.935,1.065-2.861c0.581-1.433,1.003-2.784,1.363-4.075c0.076-0.142,0.145-0.353,0.145-0.502	c0.713-2.425,1.28-4.711,1.717-6.787c0.138-0.781,0.276-1.574,0.422-2.283c0.145-0.934,0.29-1.785,0.436-2.577H347.798	c0.069,3.145,0.359,7.147,1.065,11.647c0.152,1.287,0.436,2.644,0.72,3.931c0.221,1.148,0.498,2.29,0.789,3.508	c0.069,0.142,0.069,0.353,0.138,0.498c0.72,2.854,1.723,5.788,2.934,8.638c0.36,0.941,0.789,1.869,1.218,2.796	c0.851,1.993,1.924,3.854,3.072,5.715c0.713,1.148,1.494,2.353,2.353,3.432c0.927,1.287,1.93,2.574,3.079,3.792	c10.143,11.14,25.289,16.785,44.946,16.785c1.716,0,3.355-0.069,4.933-0.139c1.502-0.076,2.92-0.152,4.29-0.359	c1.425-0.069,2.781-0.283,4.138-0.498c0.789-0.076,1.508-0.222,2.29-0.359h0.146c1.425-0.284,2.712-0.575,3.999-0.858	c3.57-0.858,6.933-1.924,10.074-3.286c1.142-0.423,2.29-1.004,3.362-1.502C442.013,488.269,442.602,487.874,443.224,487.515"/><path fill="#FFF" d="M476.995,434.857c-0.139,0.785-0.284,1.644-0.429,2.57c-0.146,0.717-0.284,1.502-0.422,2.287	c-0.437,2.076-1.004,4.359-1.717,6.787c0,0.152-0.076,0.356-0.145,0.506c-0.36,1.283-0.782,2.643-1.363,4.075	c-0.277,0.927-0.644,1.923-1.065,2.854h-121.49c-0.283-1.218-0.56-2.359-0.781-3.501c-0.291-1.29-0.567-2.643-0.713-3.934	c-0.713-4.497-0.996-8.5-1.072-11.645H476.995z"/><path fill="#FFF" d="M472.574,552.926v28.77l-65.391,45.208l-59.441-41.167v-34.581c4.815,2.768,8.566,4.607,10.697,5.604	c10.06,13.955,26.5,26.07,51.436,26.07c24.728,0,39.963-11.832,48.674-25.572C463.441,555.978,468.118,554.49,472.574,552.926"/><rect width="77.507" height="14.883" x="501.841" y="698.813" fill="#B1D465"/><path fill="#E4F2FC" d="M466.485,456.186l0.886-2.245h-117c0.069,0.142,0.069,0.356,0.145,0.498	c0.713,2.854,1.709,5.788,2.927,8.638c0.36,0.928,0.789,1.869,1.218,2.796c0.858,1.999,1.924,3.854,3.065,5.715	c0.712,1.148,1.501,2.353,2.359,3.432c0.927,1.287,1.937,2.574,3.072,3.785c10.15,11.146,25.295,16.792,44.953,16.792	c1.709,0,3.355-0.069,4.933-0.139c1.495-0.076,2.934-0.145,4.283-0.359c1.432-0.069,2.788-0.283,4.145-0.498	c0.789-0.076,1.501-0.222,2.29-0.359h0.146c1.425-0.277,2.712-0.568,3.999-0.858c3.57-0.858,6.933-1.924,10.074-3.286	c1.142-0.423,2.29-1.004,3.362-1.502c0.65-0.318,1.231-0.678,1.854-1.023C443.196,487.57,435.143,459.631,466.485,456.186"/><path fill="#ED2224" d="M360.072,526.786c-0.076-0.276-0.145-0.567-0.221-0.774c-0.069-0.215-0.069-0.36-0.069-0.498	C359.851,525.797,359.927,526.15,360.072,526.786"/><path fill="#ED2224" d="M360.916,529.9c-0.139-0.492-0.277-0.914-0.422-1.343c-0.076-0.139-0.076-0.276-0.076-0.429	C360.563,528.696,360.708,529.264,360.916,529.9"/><path fill="#E4F2FC" d="M472.574,552.926v18.004c-12.398,10.488-38.968,30.18-65.391,30.18c-24.086,0-46.974-16.301-59.441-27.274	v-22.68c4.815,2.768,8.566,4.607,10.697,5.604c10.06,13.955,26.5,26.07,51.436,26.07c24.728,0,39.963-11.832,48.674-25.572	C463.441,555.978,468.118,554.49,472.574,552.926"/><path fill="#ED2224" d="M482.855,532.944l-0.291,2.837c-0.844-0.346-1.84-0.567-2.829-0.567s-1.986,0.222-2.837,0.567	C479.022,534.867,480.939,533.871,482.855,532.944"/><path fill="#E4F2FC" d="M549.381,613.01l-85.234,93.24c0,0-9.707,11.555-14.599,11.555c-4.954,0-12.606-4.746-17.353-11.555	l-17.713-26.638v-22.888l2.761,3.688l23.663,31.17c0.353,0.429,0.713,0.857,1.065,1.203c0.422,0.291,0.781,0.637,1.272,0.858	c0.422,0.276,0.921,0.491,1.419,0.637c0.567,0.139,1.135,0.208,1.702,0.208h0.283c0.422,0,0.92-0.069,1.343-0.139	c0.498-0.069,0.989-0.215,1.418-0.498c0.921-0.354,1.771-0.921,2.408-1.771h0.069l72.911-81.478c1.412,0,2.83,0.069,4.249,0.139	c1.064,0,2.123,0.075,3.182,0.146c0.36,0,0.713,0.076,1.066,0.076c0.567,0.068,1.135,0.068,1.701,0.138	c1.558,0.139,3.114,0.276,4.678,0.498c1.273,0.139,2.622,0.276,3.896,0.498c1.487,0.208,3.052,0.415,4.532,0.706	c0.29,0,0.566,0.069,0.851,0.139C549.098,612.941,549.236,613.01,549.381,613.01"/><path fill="#E4F2FC" d="M551.007,268.395v18.706c-7.583-6.587-20.896-12.115-24.659-12.115c-5.313,0-82.682,20.691-118.313,20.691	c-35.563,0-120.805-17.148-120.805-17.148c-9.563-1.84-17.142,4.321-22.1,10.486v-8.431c0.069-0.353,2.833-33.086,23.732-34.857	c8.15,4.321,38.262,16.436,121.013,16.436c79.637,0,108.184-11.406,116.833-16.225C533.226,247.071,551.007,251.748,551.007,268.395"/><path fill="#2887C8" d="M182.632,454.577c4.145,19.542,9.33,39.316,24.96,52.933c6.856,5.965,16.923-4.013,10.025-10.025	c-13.845-12.06-17.664-29.453-21.314-46.675C194.412,441.881,180.74,445.658,182.632,454.577"/><path fill="#2887C8" d="M223.979,530.094c5.964,9.258,14.537,15.872,24.988,19.346c8.68,2.871,12.398-10.822,3.771-13.68	c-6.846-2.262-12.613-6.76-16.516-12.82C231.29,515.301,219.012,522.4,223.979,530.094"/><path fill="#2887C8" d="M142.578,459.895c0.675,17.532,4.833,34.124,12.323,49.968c3.896,8.248,16.125,1.059,12.243-7.153	c-6.393-13.534-9.808-27.87-10.389-42.814C156.409,450.799,142.226,450.758,142.578,459.895"/><path fill="#2887C8" d="M166.653,540.846c8.822,12.295,17.948,23.773,32.273,29.737c3.563,1.481,7.763-1.604,8.721-4.954	c1.169-4.068-1.432-7.25-4.954-8.718c-10.399-4.331-17.456-14.397-23.798-23.227C173.624,526.337,161.318,533.408,166.653,540.846"/><path fill="#2887C8" d="M99.909,450.993c-1.519,15.951-0.073,31.664,4.145,47.107c2.394,8.801,16.076,5.064,13.672-3.765	c-3.902-14.294-5.037-28.603-3.64-43.343C114.951,441.919,100.764,441.978,99.909,450.993"/><path fill="#2887C8" d="M109.167,520.643c0.418,3.708,1.263,6.967,3.3,10.156c4.913,7.652,17.19,0.554,12.243-7.168	c-0.602-0.94-1.231-1.826-1.366-2.988c-0.426-3.806-2.947-7.085-7.085-7.085C112.758,513.558,108.734,516.81,109.167,520.643"/><path fill="#2887C8" d="M130.681,562.737c6.594,10.974,15.644,20.01,26.617,26.597c7.842,4.711,14.987-7.542,7.158-12.247	c-8.922-5.341-16.17-12.578-21.532-21.504C138.227,547.771,125.962,554.891,130.681,562.737"/><path fill="#2887C8" d="M571.764,484.014h-67.681c-3.909,0-7.085-3.176-7.085-7.085c0-3.916,3.176-7.085,7.085-7.085h67.681	c21.691,0,22.867-17.097,22.874-20.519v-56.535c0-3.909,3.169-7.085,7.085-7.085s7.085,3.176,7.085,7.085v56.514	c0.007,0.522,0.028,14.533-10.019,24.684C592.202,480.637,583.111,484.014,571.764,484.014"/><path fill="#2887C8" d="M495.02,488.939h-30.285c-6.635,0-12.018-5.376-12.018-12.011c0-6.643,5.383-12.019,12.018-12.019h30.285	c6.635,0,12.011,5.376,12.011,12.019C507.03,483.563,501.654,488.939,495.02,488.939"/></svg>