<?xml version="1.0" encoding="utf-8"?>
<!-- Generator: Adobe Illustrator 16.0.0, SVG Export Plug-In . SVG Version: 6.00 Build 0)  -->
<!DOCTYPE svg PUBLIC "-//W3C//DTD SVG 1.0//EN" "http://www.w3.org/TR/2001/REC-SVG-20010904/DTD/svg10.dtd">
<svg version="1.0" id="Layer_1" xmlns="http://www.w3.org/2000/svg" x="0px" y="0px"
     width="549px" height="305px" viewBox="0 0 549 305" enable-background="new 0 0 549 305" xml:space="preserve">
<g>
	<path fill="#FBB040" d="M25.339,214.732c0-23.547,16.134-40.553,39.244-40.553c23.111,0,38.809,16.57,38.809,40.553
		c0,23.111-15.698,40.117-39.245,40.117C41.473,254.85,25.339,237.844,25.339,214.732z"/>
    <path fill="#ED1C24" d="M156.779,41.621l28.78,98.983c5.232,17.878,9.157,34.884,12.209,51.89h1.308
		c3.489-17.441,6.977-33.575,11.773-51.89l27.471-98.983h69.768L228.728,254.85h-66.28L84.831,41.621H156.779z"/>
    <path fill="#ED1C24" d="M338.611,109.645c0-26.599-0.872-49.274-1.744-68.024h57.559l3.053,29.215h1.308
		c8.722-13.518,30.524-34.012,65.843-34.012c43.605,0,76.311,28.779,76.311,91.571V254.85h-66.281V136.68
		c0-27.471-9.592-46.222-33.574-46.222c-18.314,0-29.217,12.646-33.576,24.855c-1.744,3.924-2.617,10.465-2.617,16.57V254.85
		h-66.279V109.645z"/>
</g>
</svg>
