<svg xmlns="http://www.w3.org/2000/svg" id="Layer_1" x="0" y="0" version="1.1" viewBox="0 0 800 800" xml:space="preserve" style="enable-background:new 0 0 800 800"><style type="text/css">.st0{fill:#b6ddf5}.st1{fill:none;stroke:#2887c8;stroke-linecap:round;stroke-linejoin:round;stroke-miterlimit:10}.st2{fill:#fff}.st3{fill:none;stroke:#2887c8;stroke-miterlimit:10}.st4{fill:#e4f0cc}.st5{fill:#2887c8}.st6{fill:#0b9d49}.st7{fill:#e4f2fc}</style><rect width="338.3" height="478.7" x="228.5" y="152.1" class="st0"/><rect width="338.3" height="478.7" x="228.5" y="152.1" class="st1"/><path d="M588.2,532.1v72.6c0,3.8-3,6.8-6.8,6.8H468.6c-0.1-3.7-3-6.7-6.8-6.7H333.4c-3.7,0-6.7,3-6.8,6.7H213.8	c-3.7,0-6.8-3-6.8-6.8v-72.6c0-3.7,3-6.8,6.8-6.8h367.6C585.2,525.4,588.2,528.4,588.2,532.1" class="st2"/><path d="M588.2,532.1v72.6c0,3.8-3,6.8-6.8,6.8H468.6c-0.1-3.7-3-6.7-6.8-6.7H333.4c-3.7,0-6.7,3-6.8,6.7H213.8	c-3.7,0-6.8-3-6.8-6.8v-72.6c0-3.7,3-6.8,6.8-6.8h367.6C585.2,525.4,588.2,528.4,588.2,532.1z" class="st3"/><path d="M569,565.1c0,6.4-5.2,11.5-11.5,11.5s-11.5-5.2-11.5-11.5c0-6.4,5.2-11.5,11.5-11.5S569,558.7,569,565.1" class="st4"/><path d="M565.2,565.1c0,4.3-3.5,7.7-7.7,7.7c-4.3,0-7.7-3.5-7.7-7.7c0-4.3,3.4-7.7,7.7-7.7	C561.7,557.4,565.2,560.8,565.2,565.1" class="st5"/><path d="M531.7,565.1c0,6.4-5.2,11.5-11.5,11.5c-6.4,0-11.5-5.2-11.5-11.5c0-6.4,5.2-11.5,11.5-11.5	C526.6,553.6,531.7,558.7,531.7,565.1" class="st4"/><path d="M527.9,565.1c0,4.3-3.5,7.7-7.7,7.7c-4.3,0-7.7-3.5-7.7-7.7c0-4.3,3.5-7.7,7.7-7.7	C524.5,557.4,527.9,560.8,527.9,565.1" class="st5"/><path d="M242.8,554.6c0,3.7-3,6.8-6.8,6.8s-6.8-3-6.8-6.8s3-6.8,6.8-6.8S242.8,550.8,242.8,554.6 M236.1,568.1	c-3.7,0-6.8,3-6.8,6.8c0,3.7,3,6.8,6.8,6.8s6.8-3,6.8-6.8C242.8,571.1,239.8,568.1,236.1,568.1" class="st5"/><path d="M271.1,554.6c0,3.7-3,6.8-6.8,6.8s-6.8-3-6.8-6.8s3-6.8,6.8-6.8S271.1,550.8,271.1,554.6 M264.3,568.1	c-3.7,0-6.8,3-6.8,6.8c0,3.7,3,6.8,6.8,6.8c3.7,0,6.8-3,6.8-6.8C271.1,571.1,268,568.1,264.3,568.1" class="st5"/><path d="M299.3,554.6c0,3.7-3,6.8-6.8,6.8c-3.7,0-6.8-3-6.8-6.8s3-6.8,6.8-6.8S299.3,550.8,299.3,554.6 M292.5,568.1	c-3.7,0-6.8,3-6.8,6.8c0,3.7,3,6.8,6.8,6.8s6.8-3,6.8-6.8C299.3,571.1,296.2,568.1,292.5,568.1" class="st5"/><path d="M327.5,554.6c0,3.7-3,6.8-6.8,6.8s-6.8-3-6.8-6.8s3-6.8,6.8-6.8S327.5,550.8,327.5,554.6 M320.7,568.1	c-3.7,0-6.8,3-6.8,6.8c0,3.7,3,6.8,6.8,6.8c3.7,0,6.8-3,6.8-6.8C327.5,571.1,324.4,568.1,320.7,568.1" class="st5"/><path d="M355.7,554.6c0,3.7-3,6.8-6.8,6.8s-6.8-3-6.8-6.8s3-6.8,6.8-6.8S355.7,550.8,355.7,554.6 M348.9,568.1	c-3.7,0-6.8,3-6.8,6.8c0,3.7,3,6.8,6.8,6.8s6.8-3,6.8-6.8C355.7,571.1,352.6,568.1,348.9,568.1" class="st5"/><path d="M383.9,554.6c0,3.7-3,6.8-6.8,6.8c-3.7,0-6.8-3-6.8-6.8s3-6.8,6.8-6.8C380.9,547.8,383.9,550.8,383.9,554.6 M377.1,568.1c-3.7,0-6.8,3-6.8,6.8c0,3.7,3,6.8,6.8,6.8s6.8-3,6.8-6.8C383.9,571.1,380.9,568.1,377.1,568.1" class="st5"/><path d="M412.1,554.6c0,3.7-3,6.8-6.8,6.8s-6.8-3-6.8-6.8s3-6.8,6.8-6.8C409.1,547.8,412.1,550.8,412.1,554.6 M405.3,568.1c-3.7,0-6.8,3-6.8,6.8c0,3.7,3,6.8,6.8,6.8c3.7,0,6.8-3,6.8-6.8C412.1,571.1,409.1,568.1,405.3,568.1" class="st5"/><path d="M588.2,426.7v72.6c0,3.8-3,6.8-6.8,6.8H468.6c-0.1-3.7-3-6.7-6.8-6.7H333.4c-3.7,0-6.7,3-6.8,6.7H213.8	c-3.7,0-6.8-3-6.8-6.8v-72.6c0-3.7,3-6.8,6.8-6.8h367.6C585.2,419.9,588.2,423,588.2,426.7" class="st2"/><path d="M588.2,426.7v72.6c0,3.8-3,6.8-6.8,6.8H468.6c-0.1-3.7-3-6.7-6.8-6.7H333.4c-3.7,0-6.7,3-6.8,6.7H213.8	c-3.7,0-6.8-3-6.8-6.8v-72.6c0-3.7,3-6.8,6.8-6.8h367.6C585.2,419.9,588.2,423,588.2,426.7z" class="st3"/><path d="M569,459.6c0,6.4-5.2,11.5-11.5,11.5s-11.5-5.2-11.5-11.5c0-6.4,5.2-11.5,11.5-11.5S569,453.3,569,459.6" class="st4"/><path d="M565.2,459.6c0,4.3-3.5,7.7-7.7,7.7c-4.3,0-7.7-3.5-7.7-7.7c0-4.3,3.4-7.7,7.7-7.7	C561.7,451.9,565.2,455.4,565.2,459.6" class="st6"/><path d="M531.7,459.6c0,6.4-5.2,11.5-11.5,11.5c-6.4,0-11.5-5.2-11.5-11.5c0-6.4,5.2-11.5,11.5-11.5	C526.6,448.1,531.7,453.3,531.7,459.6" class="st4"/><path d="M527.9,459.6c0,4.3-3.5,7.7-7.7,7.7c-4.3,0-7.7-3.5-7.7-7.7c0-4.3,3.5-7.7,7.7-7.7	C524.5,451.9,527.9,455.4,527.9,459.6" class="st6"/><path d="M242.8,449.1c0,3.7-3,6.8-6.8,6.8s-6.8-3-6.8-6.8c0-3.7,3-6.8,6.8-6.8S242.8,445.4,242.8,449.1 M236.1,462.7	c-3.7,0-6.8,3-6.8,6.8c0,3.7,3,6.8,6.8,6.8s6.8-3,6.8-6.8C242.8,465.7,239.8,462.7,236.1,462.7" class="st5"/><path d="M271.1,449.1c0,3.7-3,6.8-6.8,6.8s-6.8-3-6.8-6.8c0-3.7,3-6.8,6.8-6.8C268,442.4,271.1,445.4,271.1,449.1 M264.3,462.7c-3.7,0-6.8,3-6.8,6.8c0,3.7,3,6.8,6.8,6.8c3.7,0,6.8-3,6.8-6.8C271.1,465.7,268,462.7,264.3,462.7" class="st5"/><path d="M299.3,449.1c0,3.7-3,6.8-6.8,6.8c-3.7,0-6.8-3-6.8-6.8c0-3.7,3-6.8,6.8-6.8	C296.2,442.4,299.3,445.4,299.3,449.1 M292.5,462.7c-3.7,0-6.8,3-6.8,6.8c0,3.7,3,6.8,6.8,6.8s6.8-3,6.8-6.8	C299.3,465.7,296.2,462.7,292.5,462.7" class="st5"/><path d="M327.5,449.1c0,3.7-3,6.8-6.8,6.8s-6.8-3-6.8-6.8c0-3.7,3-6.8,6.8-6.8C324.4,442.4,327.5,445.4,327.5,449.1 M320.7,462.7c-3.7,0-6.8,3-6.8,6.8c0,3.7,3,6.8,6.8,6.8c3.7,0,6.8-3,6.8-6.8C327.5,465.7,324.4,462.7,320.7,462.7" class="st5"/><path d="M355.7,449.1c0,3.7-3,6.8-6.8,6.8s-6.8-3-6.8-6.8c0-3.7,3-6.8,6.8-6.8S355.7,445.4,355.7,449.1 M348.9,462.7	c-3.7,0-6.8,3-6.8,6.8c0,3.7,3,6.8,6.8,6.8s6.8-3,6.8-6.8C355.7,465.7,352.6,462.7,348.9,462.7" class="st5"/><path d="M383.9,449.1c0,3.7-3,6.8-6.8,6.8c-3.7,0-6.8-3-6.8-6.8c0-3.7,3-6.8,6.8-6.8	C380.9,442.4,383.9,445.4,383.9,449.1 M377.1,462.7c-3.7,0-6.8,3-6.8,6.8c0,3.7,3,6.8,6.8,6.8s6.8-3,6.8-6.8	C383.9,465.7,380.9,462.7,377.1,462.7" class="st5"/><path d="M412.1,449.1c0,3.7-3,6.8-6.8,6.8s-6.8-3-6.8-6.8c0-3.7,3-6.8,6.8-6.8C409.1,442.4,412.1,445.4,412.1,449.1 M405.3,462.7c-3.7,0-6.8,3-6.8,6.8c0,3.7,3,6.8,6.8,6.8c3.7,0,6.8-3,6.8-6.8C412.1,465.7,409.1,462.7,405.3,462.7" class="st5"/><path d="M588.2,321.3v72.6c0,3.8-3,6.8-6.8,6.8H468.6c-0.1-3.7-3-6.7-6.8-6.7H333.4c-3.7,0-6.7,3-6.8,6.7H213.8	c-3.7,0-6.8-3-6.8-6.8v-72.6c0-3.7,3-6.8,6.8-6.8h367.6C585.2,314.5,588.2,317.5,588.2,321.3" class="st2"/><path d="M588.2,321.3v72.6c0,3.8-3,6.8-6.8,6.8H468.6c-0.1-3.7-3-6.7-6.8-6.7H333.4c-3.7,0-6.7,3-6.8,6.7H213.8	c-3.7,0-6.8-3-6.8-6.8v-72.6c0-3.7,3-6.8,6.8-6.8h367.6C585.2,314.5,588.2,317.5,588.2,321.3z" class="st3"/><path d="M569,354.2c0,6.4-5.2,11.5-11.5,11.5s-11.5-5.2-11.5-11.5c0-6.4,5.2-11.5,11.5-11.5S569,347.8,569,354.2" class="st4"/><path d="M565.2,354.2c0,4.3-3.5,7.7-7.7,7.7c-4.3,0-7.7-3.5-7.7-7.7c0-4.3,3.4-7.7,7.7-7.7	C561.7,346.5,565.2,349.9,565.2,354.2" class="st6"/><path d="M531.7,354.2c0,6.4-5.2,11.5-11.5,11.5c-6.4,0-11.5-5.2-11.5-11.5c0-6.4,5.2-11.5,11.5-11.5	C526.6,342.7,531.7,347.8,531.7,354.2" class="st4"/><path d="M527.9,354.2c0,4.3-3.5,7.7-7.7,7.7c-4.3,0-7.7-3.5-7.7-7.7c0-4.3,3.5-7.7,7.7-7.7	C524.5,346.5,527.9,349.9,527.9,354.2" class="st6"/><path d="M242.8,343.7c0,3.7-3,6.8-6.8,6.8s-6.8-3-6.8-6.8s3-6.8,6.8-6.8S242.8,339.9,242.8,343.7 M236.1,357.2	c-3.7,0-6.8,3-6.8,6.8c0,3.7,3,6.8,6.8,6.8s6.8-3,6.8-6.8C242.8,360.3,239.8,357.2,236.1,357.2" class="st5"/><path d="M271.1,343.7c0,3.7-3,6.8-6.8,6.8s-6.8-3-6.8-6.8s3-6.8,6.8-6.8C268,336.9,271.1,339.9,271.1,343.7 M264.3,357.2c-3.7,0-6.8,3-6.8,6.8c0,3.7,3,6.8,6.8,6.8c3.7,0,6.8-3,6.8-6.8C271.1,360.3,268,357.2,264.3,357.2" class="st5"/><path d="M299.3,343.7c0,3.7-3,6.8-6.8,6.8c-3.7,0-6.8-3-6.8-6.8s3-6.8,6.8-6.8C296.2,336.9,299.3,339.9,299.3,343.7 M292.5,357.2c-3.7,0-6.8,3-6.8,6.8c0,3.7,3,6.8,6.8,6.8s6.8-3,6.8-6.8C299.3,360.3,296.2,357.2,292.5,357.2" class="st5"/><path d="M327.5,343.7c0,3.7-3,6.8-6.8,6.8s-6.8-3-6.8-6.8s3-6.8,6.8-6.8C324.4,336.9,327.5,339.9,327.5,343.7 M320.7,357.2c-3.7,0-6.8,3-6.8,6.8c0,3.7,3,6.8,6.8,6.8c3.7,0,6.8-3,6.8-6.8C327.5,360.3,324.4,357.2,320.7,357.2" class="st5"/><path d="M355.7,343.7c0,3.7-3,6.8-6.8,6.8s-6.8-3-6.8-6.8s3-6.8,6.8-6.8S355.7,339.9,355.7,343.7 M348.9,357.2	c-3.7,0-6.8,3-6.8,6.8c0,3.7,3,6.8,6.8,6.8s6.8-3,6.8-6.8C355.7,360.3,352.6,357.2,348.9,357.2" class="st5"/><path d="M383.9,343.7c0,3.7-3,6.8-6.8,6.8c-3.7,0-6.8-3-6.8-6.8s3-6.8,6.8-6.8C380.9,336.9,383.9,339.9,383.9,343.7 M377.1,357.2c-3.7,0-6.8,3-6.8,6.8c0,3.7,3,6.8,6.8,6.8s6.8-3,6.8-6.8C383.9,360.3,380.9,357.2,377.1,357.2" class="st5"/><path d="M412.1,343.7c0,3.7-3,6.8-6.8,6.8s-6.8-3-6.8-6.8s3-6.8,6.8-6.8C409.1,336.9,412.1,339.9,412.1,343.7 M405.3,357.2c-3.7,0-6.8,3-6.8,6.8c0,3.7,3,6.8,6.8,6.8c3.7,0,6.8-3,6.8-6.8C412.1,360.3,409.1,357.2,405.3,357.2" class="st5"/><path d="M588.2,215.8v72.6c0,3.8-3,6.8-6.8,6.8H468.6c-0.1-3.7-3-6.7-6.8-6.7H333.4c-3.7,0-6.7,3-6.8,6.7H213.8	c-3.7,0-6.8-3-6.8-6.8v-72.6c0-3.7,3-6.8,6.8-6.8h367.6C585.2,209.1,588.2,212.1,588.2,215.8" class="st2"/><path d="M588.2,215.8v72.6c0,3.8-3,6.8-6.8,6.8H468.6c-0.1-3.7-3-6.7-6.8-6.7H333.4c-3.7,0-6.7,3-6.8,6.7H213.8	c-3.7,0-6.8-3-6.8-6.8v-72.6c0-3.7,3-6.8,6.8-6.8h367.6C585.2,209.1,588.2,212.1,588.2,215.8z" class="st3"/><path d="M569,248.8c0,6.4-5.2,11.5-11.5,11.5s-11.5-5.2-11.5-11.5c0-6.4,5.2-11.5,11.5-11.5S569,242.4,569,248.8" class="st4"/><path d="M565.2,248.8c0,4.3-3.5,7.7-7.7,7.7c-4.3,0-7.7-3.4-7.7-7.7c0-4.3,3.4-7.7,7.7-7.7	C561.7,241.1,565.2,244.5,565.2,248.8" class="st6"/><path d="M531.7,248.8c0,6.4-5.2,11.5-11.5,11.5c-6.4,0-11.5-5.2-11.5-11.5c0-6.4,5.2-11.5,11.5-11.5	C526.6,237.2,531.7,242.4,531.7,248.8" class="st4"/><path d="M527.9,248.8c0,4.3-3.5,7.7-7.7,7.7c-4.3,0-7.7-3.4-7.7-7.7c0-4.3,3.5-7.7,7.7-7.7	C524.5,241.1,527.9,244.5,527.9,248.8" class="st6"/><path d="M242.8,238.2c0,3.7-3,6.8-6.8,6.8s-6.8-3-6.8-6.8c0-3.7,3-6.8,6.8-6.8S242.8,234.5,242.8,238.2 M236.1,251.8	c-3.7,0-6.8,3-6.8,6.8c0,3.7,3,6.8,6.8,6.8s6.8-3,6.8-6.8C242.8,254.8,239.8,251.8,236.1,251.8" class="st5"/><path d="M271.1,238.2c0,3.7-3,6.8-6.8,6.8s-6.8-3-6.8-6.8c0-3.7,3-6.8,6.8-6.8S271.1,234.5,271.1,238.2 M264.3,251.8	c-3.7,0-6.8,3-6.8,6.8c0,3.7,3,6.8,6.8,6.8c3.7,0,6.8-3,6.8-6.8C271.1,254.8,268,251.8,264.3,251.8" class="st5"/><path d="M299.3,238.2c0,3.7-3,6.8-6.8,6.8c-3.7,0-6.8-3-6.8-6.8c0-3.7,3-6.8,6.8-6.8S299.3,234.5,299.3,238.2 M292.5,251.8c-3.7,0-6.8,3-6.8,6.8c0,3.7,3,6.8,6.8,6.8s6.8-3,6.8-6.8C299.3,254.8,296.2,251.8,292.5,251.8" class="st5"/><path d="M327.5,238.2c0,3.7-3,6.8-6.8,6.8s-6.8-3-6.8-6.8c0-3.7,3-6.8,6.8-6.8S327.5,234.5,327.5,238.2 M320.7,251.8	c-3.7,0-6.8,3-6.8,6.8c0,3.7,3,6.8,6.8,6.8c3.7,0,6.8-3,6.8-6.8C327.5,254.8,324.4,251.8,320.7,251.8" class="st5"/><path d="M355.7,238.2c0,3.7-3,6.8-6.8,6.8s-6.8-3-6.8-6.8c0-3.7,3-6.8,6.8-6.8S355.7,234.5,355.7,238.2 M348.9,251.8	c-3.7,0-6.8,3-6.8,6.8c0,3.7,3,6.8,6.8,6.8s6.8-3,6.8-6.8C355.7,254.8,352.6,251.8,348.9,251.8" class="st5"/><path d="M383.9,238.2c0,3.7-3,6.8-6.8,6.8c-3.7,0-6.8-3-6.8-6.8c0-3.7,3-6.8,6.8-6.8	C380.9,231.5,383.9,234.5,383.9,238.2 M377.1,251.8c-3.7,0-6.8,3-6.8,6.8c0,3.7,3,6.8,6.8,6.8s6.8-3,6.8-6.8	C383.9,254.8,380.9,251.8,377.1,251.8" class="st5"/><path d="M412.1,238.2c0,3.7-3,6.8-6.8,6.8s-6.8-3-6.8-6.8c0-3.7,3-6.8,6.8-6.8C409.1,231.5,412.1,234.5,412.1,238.2 M405.3,251.8c-3.7,0-6.8,3-6.8,6.8c0,3.7,3,6.8,6.8,6.8c3.7,0,6.8-3,6.8-6.8C412.1,254.8,409.1,251.8,405.3,251.8" class="st5"/><path d="M575.8,189.8H219.5c-6.9,0-12.4-5.6-12.4-12.4v-52c0-6.9,5.6-12.4,12.4-12.4h356.3c6.9,0,12.4,5.6,12.4,12.4v52	C588.2,184.2,582.6,189.8,575.8,189.8" class="st2"/><path d="M575.8,189.8H219.5c-6.9,0-12.4-5.6-12.4-12.4v-52c0-6.9,5.6-12.4,12.4-12.4h356.3c6.9,0,12.4,5.6,12.4,12.4v52	C588.2,184.2,582.6,189.8,575.8,189.8z" class="st3"/><path d="M325.1,173.4h-84.9c-4.6,0-8.3-3.7-8.3-8.3v-25.9c0-4.6,3.8-8.3,8.3-8.3h84.9c4.6,0,8.3,3.8,8.3,8.3v25.9	C333.5,169.7,329.7,173.4,325.1,173.4" class="st4"/><path d="M326.6,175.1h-87.9c-4.7,0-8.5-3.8-8.5-8.5v-29c0-4.7,3.8-8.5,8.5-8.5h87.9c4.7,0,8.5,3.8,8.5,8.5v29	C335.2,171.3,331.4,175.1,326.6,175.1 M238.7,132.5c-2.8,0-5.1,2.3-5.1,5.1v29c0,2.8,2.3,5.1,5.1,5.1h87.9c2.8,0,5.1-2.3,5.1-5.1	v-29c0-2.8-2.3-5.1-5.1-5.1H238.7z" class="st5"/><path d="M247.7,163.7H246c-1.6,0-2.9-1.3-2.9-2.9v-1.7c0-1.6,1.3-2.9,2.9-2.9h1.7c1.6,0,2.9,1.3,2.9,2.9v1.7	C250.6,162.4,249.3,163.7,247.7,163.7" class="st6"/><path d="M266.4,163.7h-1.7c-1.6,0-2.9-1.3-2.9-2.9v-17.4c0-1.6,1.3-2.9,2.9-2.9h1.7c1.6,0,2.9,1.3,2.9,2.9v17.4	C269.3,162.4,268,163.7,266.4,163.7" class="st6"/><path d="M285.2,163.7h-1.7c-1.6,0-2.9-1.3-2.9-2.9v-6.2c0-1.6,1.3-2.9,2.9-2.9h1.7c1.6,0,2.9,1.3,2.9,2.9v6.2	C288.1,162.4,286.8,163.7,285.2,163.7" class="st6"/><path d="M322.6,163.7h-1.7c-1.6,0-2.9-1.3-2.9-2.9v-17.4c0-1.6,1.3-2.9,2.9-2.9h1.7c1.6,0,2.9,1.3,2.9,2.9v17.4	C325.5,162.4,324.2,163.7,322.6,163.7" class="st6"/><path d="M303.9,163.7h-1.7c-1.6,0-2.9-1.3-2.9-2.9v-17.4c0-1.6,1.3-2.9,2.9-2.9h1.7c1.6,0,2.9,1.3,2.9,2.9v17.4	C306.8,162.4,305.5,163.7,303.9,163.7" class="st6"/><path d="M412.4,152.1c0,6.4-5.2,11.5-11.5,11.5c-6.4,0-11.5-5.2-11.5-11.5c0-6.4,5.2-11.5,11.5-11.5	C407.2,140.6,412.4,145.7,412.4,152.1" class="st4"/><path d="M408.6,152.1c0,4.3-3.5,7.7-7.7,7.7s-7.7-3.5-7.7-7.7c0-4.3,3.4-7.7,7.7-7.7S408.6,147.8,408.6,152.1" class="st6"/><path d="M375.1,152.1c0,6.4-5.2,11.5-11.5,11.5s-11.5-5.2-11.5-11.5c0-6.4,5.2-11.5,11.5-11.5S375.1,145.7,375.1,152.1" class="st4"/><path d="M371.3,152.1c0,4.3-3.5,7.7-7.7,7.7c-4.3,0-7.7-3.5-7.7-7.7c0-4.3,3.5-7.7,7.7-7.7	C367.9,144.4,371.3,147.8,371.3,152.1" class="st6"/><path d="M503,166.2h-2.4c-1.4,0-2.5-1.1-2.5-2.5v-24.6c0-1.4,1.1-2.5,2.5-2.5h2.4c1.4,0,2.5,1.1,2.5,2.5v24.6	C505.5,165.1,504.4,166.2,503,166.2" class="st5"/><path d="M531.1,166.2h-2.5c-1.4,0-2.5-1.1-2.5-2.5v-24.6c0-1.4,1.1-2.5,2.5-2.5h2.5c1.4,0,2.5,1.1,2.5,2.5v24.6	C533.6,165.1,532.5,166.2,531.1,166.2" class="st5"/><path d="M559.2,166.2h-2.4c-1.4,0-2.5-1.1-2.5-2.5v-24.6c0-1.4,1.1-2.5,2.5-2.5h2.4c1.4,0,2.5,1.1,2.5,2.5v24.6	C561.7,165.1,560.5,166.2,559.2,166.2" class="st5"/><path d="M31.8,557.6c0,28.1,20.7,54.2,45.5,64.1h336.8c3.4-1.8,6.6-4.1,9.4-6.8c7.6-7.3,12.3-17.5,12.3-28.7	c0-22.1-18.1-40.1-40.3-40.1c-7.2,0-14,1.9-19.8,5.2c0.9-3.7,1.4-7.6,1.4-11.7c0-26.6-21.8-48.3-48.7-48.3c-8,0-15.6,1.9-22.3,5.4	c-11.6-38.2-47.3-66.1-89.5-66.1c-42.2,0-77.9,27.9-89.5,66.1c-8.5-3.9-18-6-27.9-6C62.1,490.7,31.8,520.7,31.8,557.6" class="st4"/><path d="M31.8,557.6c0,28.1,20.7,54.2,45.5,64.1h336.8c3.4-1.8,6.6-4.1,9.4-6.8c7.6-7.3,12.3-17.5,12.3-28.7	c0-22.1-18.1-40.1-40.3-40.1c-7.2,0-14,1.9-19.8,5.2c0.9-3.7,1.4-7.6,1.4-11.7c0-26.6-21.8-48.3-48.7-48.3c-8,0-15.6,1.9-22.3,5.4	c-11.6-38.2-47.3-66.1-89.5-66.1c-42.2,0-77.9,27.9-89.5,66.1c-8.5-3.9-18-6-27.9-6C62.1,490.7,31.8,520.7,31.8,557.6" class="st0"/><path d="M127.2,496.7c0,0,7.7,2.8,15,16" class="st4"/><path d="M149.1,522.3c0,0,6.8,10.2,6.9,12.7" class="st4"/><path d="M640.8,522.8c0,0-9.5,3.4-18.3,19.5" class="st4"/><path d="M613.9,554c0,0-8.3,12.5-8.5,15.5" class="st4"/><path d="M22,572.4c0,28.1,20.7,54.2,45.5,64.1h336.8c3.4-1.8,6.6-4.1,9.4-6.8c7.6-7.3,12.3-17.5,12.3-28.7	c0-22.1-18.1-40.1-40.3-40.1c-7.2,0-14,1.9-19.8,5.2c0.9-3.7,1.4-7.6,1.4-11.7c0-26.6-21.8-48.3-48.7-48.3c-8,0-15.6,1.9-22.3,5.4	c-11.6-38.2-47.3-66.1-89.5-66.1c-42.2,0-77.9,27.9-89.5,66.1c-8.5-3.9-18-6.1-27.9-6.1C52.2,505.5,22,535.5,22,572.4" class="st2"/><path d="M22,572.4c0,20.5,11.4,40.7,26.3,54.3c9.8,8.9,19,9.8,31.1,9.8h28.3h88.7h102.2h80.5h25.2	c3.4-1.8,6.6-4.1,9.4-6.8c7.6-7.3,12.3-17.5,12.3-28.7c0-22.1-18.1-40.1-40.3-40.1c-7.2,0-14,1.9-19.8,5.2c0.9-3.7,1.4-7.6,1.4-11.7	c0-26.6-21.8-48.3-48.7-48.3c-8,0-15.6,1.9-22.3,5.4c-11.6-38.2-47.3-66.1-89.5-66.1c-42.2,0-77.9,27.9-89.5,66.1	c-8.5-3.9-18-6.1-27.9-6.1C52.2,505.5,22,535.5,22,572.4z" class="st1"/><path d="M117.3,511.5c0,0,7.7,2.8,15,16" class="st1"/><path d="M296.3,511.5c0,0-18.1,15.3-21.3,29.4" class="st1"/><path d="M139.3,537.1c0,0,6.8,10.2,6.9,12.7" class="st1"/><path d="M655.6,535.9c0,0-9.5,3.4-18.3,19.5" class="st1"/><path d="M436.9,535.9c0,0,22.1,18.6,26,36" class="st1"/><path d="M628.7,567.1c0,0-8.3,12.5-8.5,15.5" class="st1"/><path d="M507.2,651.4c-2.2-1.5-3.5-2.9-4.3-3.7l2.2,0.9C505.1,648.6,506,649.6,507.2,651.4" class="st2"/><path d="M507.1,646.7c-0.3-0.2-0.6-0.5-0.9-0.6l-4.5-1.9c-0.2,0.9-0.1,1.8,0.5,2.6c0.1,0.1,0.3,0.4,0.8,0.9	c0.7,0.8,2.1,2.1,4.3,3.7c1.3,0.9,2.9,2,4.8,3C510,649.8,507.3,646.9,507.1,646.7" class="st5"/><path d="M498.9,520.1c0,11.2-8.9,20.4-19.9,20.4c-11,0-19.9-9.1-19.9-20.4c0-11.2,8.9-20.4,19.9-20.4	C490,499.7,498.9,508.8,498.9,520.1" class="st7"/><path d="M593.9,658.7c-70,5.2-86.5-15.2-86.8-15.6c-1-1.3-2.9-1.7-4.2-0.7c-0.6,0.4-1,1.1-1.1,1.7	c-0.2,0.9-0.1,1.8,0.5,2.6c0.1,0.1,0.3,0.4,0.8,0.9c0.7,0.8,2.1,2.1,4.3,3.7c1.3,0.9,2.9,2,4.8,3c9.7,5.3,27.8,11.3,60.1,11.3	c6.8,0,14.2-0.2,22.2-0.9c1.7-0.1,2.9-1.6,2.8-3.3C597,659.9,595.6,658.6,593.9,658.7 M593.9,658.7c-70,5.2-86.5-15.2-86.8-15.6	c-1-1.3-2.9-1.7-4.2-0.7c-0.6,0.4-1,1.1-1.1,1.7c-0.2,0.9-0.1,1.8,0.5,2.6c0.1,0.1,0.3,0.4,0.8,0.9c0.7,0.8,2.1,2.1,4.3,3.7	c1.3,0.9,2.9,2,4.8,3c9.7,5.3,27.8,11.3,60.1,11.3c6.8,0,14.2-0.2,22.2-0.9c1.7-0.1,2.9-1.6,2.8-3.3	C597,659.9,595.6,658.6,593.9,658.7 M593.9,658.7c-70,5.2-86.5-15.2-86.8-15.6c-1-1.3-2.9-1.7-4.2-0.7c-0.6,0.4-1,1.1-1.1,1.7	c-0.2,0.9-0.1,1.8,0.5,2.6c0.1,0.1,0.3,0.4,0.8,0.9c0.7,0.8,2.1,2.1,4.3,3.7c1.3,0.9,2.9,2,4.8,3c9.7,5.3,27.8,11.3,60.1,11.3	c6.8,0,14.2-0.2,22.2-0.9c1.7-0.1,2.9-1.6,2.8-3.3C597,659.9,595.6,658.6,593.9,658.7 M593.9,658.7c-70,5.2-86.5-15.2-86.8-15.6	c-1-1.3-2.9-1.7-4.2-0.7c-0.6,0.4-1,1.1-1.1,1.7c-0.2,0.9-0.1,1.8,0.5,2.6c0.1,0.1,0.3,0.4,0.8,0.9c0.7,0.8,2.1,2.1,4.3,3.7	c1.3,0.9,2.9,2,4.8,3c9.7,5.3,27.8,11.3,60.1,11.3c6.8,0,14.2-0.2,22.2-0.9c1.7-0.1,2.9-1.6,2.8-3.3	C597,659.9,595.6,658.6,593.9,658.7 M585.1,432.9c-4.2-0.5-8.5-0.8-12.9-1c0.7,0.3,1.2,0.7,1.6,1c0.5,0.4,0.9,0.9,1.3,1.5	c0.1,0.2,0.3,0.5,0.4,0.8c0.1,0.4,0.2,0.8,0.2,1.2c0,1.9-0.8,3.3-2.4,4.4c-1.6,1-3.4,1.6-5.5,1.6c-0.9,0-1.9-0.1-2.9-0.3	c-3.4-0.6-6.5-2.1-9.4-4.5l-0.1-0.1c-0.2-0.3-0.5-0.4-0.9-0.3c-0.4,0-0.7,0.2-0.9,0.4l-4,4.9c-0.4,0.5-0.3,1,0.1,1.5	c0.1,0.1,0.3,0.4,0.7,0.7c0.3,0.3,0.9,0.7,1.8,1.3c0.9,0.6,1.9,1.2,2.9,1.7c1,0.6,2.3,1.1,3.9,1.6c1.6,0.5,3.2,0.9,5,1.1v6.3	c0,0.3,0.1,0.6,0.4,0.8c0.2,0.2,0.5,0.3,0.9,0.3h5.2c0.4,0,0.7-0.1,0.9-0.3c0.2-0.2,0.3-0.5,0.3-0.8v-6.3c4.1-0.6,7.5-2.2,10-4.9	c2.6-2.6,3.8-5.7,3.9-9.3v-0.2C585.5,434.8,585.4,433.8,585.1,432.9 M593.9,658.7c-70,5.2-86.5-15.2-86.8-15.6	c-1-1.3-2.9-1.7-4.2-0.7c-0.6,0.4-1,1.1-1.1,1.7c-0.2,0.9-0.1,1.8,0.5,2.6c0.1,0.1,0.3,0.4,0.8,0.9c0.7,0.8,2.1,2.1,4.3,3.7	c1.3,0.9,2.9,2,4.8,3c9.7,5.3,27.8,11.3,60.1,11.3c6.8,0,14.2-0.2,22.2-0.9c1.7-0.1,2.9-1.6,2.8-3.3	C597,659.9,595.6,658.6,593.9,658.7 M593.9,658.7c-70,5.2-86.5-15.2-86.8-15.6c-1-1.3-2.9-1.7-4.2-0.7c-0.6,0.4-1,1.1-1.1,1.7	c-0.2,0.9-0.1,1.8,0.5,2.6c0.1,0.1,0.3,0.4,0.8,0.9c0.7,0.8,2.1,2.1,4.3,3.7c1.3,0.9,2.9,2,4.8,3c9.7,5.3,27.8,11.3,60.1,11.3	c6.8,0,14.2-0.2,22.2-0.9c1.7-0.1,2.9-1.6,2.8-3.3C597,659.9,595.6,658.6,593.9,658.7 M593.9,658.7c-70,5.2-86.5-15.2-86.8-15.6	c-1-1.3-2.9-1.7-4.2-0.7c-0.6,0.4-1,1.1-1.1,1.7c-0.2,0.9-0.1,1.8,0.5,2.6c0.1,0.1,0.3,0.4,0.8,0.9c0.7,0.8,2.1,2.1,4.3,3.7	c1.3,0.9,2.9,2,4.8,3c9.7,5.3,27.8,11.3,60.1,11.3c6.8,0,14.2-0.2,22.2-0.9c1.7-0.1,2.9-1.6,2.8-3.3	C597,659.9,595.6,658.6,593.9,658.7 M593.9,658.7c-70,5.2-86.5-15.2-86.8-15.6c-1-1.3-2.9-1.7-4.2-0.7c-0.6,0.4-1,1.1-1.1,1.7	c-0.2,0.9-0.1,1.8,0.5,2.6c0.1,0.1,0.3,0.4,0.8,0.9c0.7,0.8,2.1,2.1,4.3,3.7c1.3,0.9,2.9,2,4.8,3c9.7,5.3,27.8,11.3,60.1,11.3	c6.8,0,14.2-0.2,22.2-0.9c1.7-0.1,2.9-1.6,2.8-3.3C597,659.9,595.6,658.6,593.9,658.7 M704,568.2c0,0.2,0.1,0.4,0.1,0.7	c0-0.8,0.1-1.5,0.1-2.2C704,567.2,703.9,567.7,704,568.2 M593.9,658.7c-70,5.2-86.5-15.2-86.8-15.6c-1-1.3-2.9-1.7-4.2-0.7	c-0.6,0.4-1,1.1-1.1,1.7c-0.2,0.9-0.1,1.8,0.5,2.6c0.1,0.1,0.3,0.4,0.8,0.9c0.7,0.8,2.1,2.1,4.3,3.7c1.3,0.9,2.9,2,4.8,3	c9.7,5.3,27.8,11.3,60.1,11.3c6.8,0,14.2-0.2,22.2-0.9c1.7-0.1,2.9-1.6,2.8-3.3C597,659.9,595.6,658.6,593.9,658.7 M593.9,658.7	c-70,5.2-86.5-15.2-86.8-15.6c-1-1.3-2.9-1.7-4.2-0.7c-0.6,0.4-1,1.1-1.1,1.7c-0.2,0.9-0.1,1.8,0.5,2.6c0.1,0.1,0.3,0.4,0.8,0.9	c0.7,0.8,2.1,2.1,4.3,3.7c1.3,0.9,2.9,2,4.8,3c9.7,5.3,27.8,11.3,60.1,11.3c6.8,0,14.2-0.2,22.2-0.9c1.7-0.1,2.9-1.6,2.8-3.3	C597,659.9,595.6,658.6,593.9,658.7 M593.9,658.7c-70,5.2-86.5-15.2-86.8-15.6c-1-1.3-2.9-1.7-4.2-0.7c-0.6,0.4-1,1.1-1.1,1.7	c-0.2,0.9-0.1,1.8,0.5,2.6c0.1,0.1,0.3,0.4,0.8,0.9c0.7,0.8,2.1,2.1,4.3,3.7c1.3,0.9,2.9,2,4.8,3c9.7,5.3,27.8,11.3,60.1,11.3	c6.8,0,14.2-0.2,22.2-0.9c1.7-0.1,2.9-1.6,2.8-3.3C597,659.9,595.6,658.6,593.9,658.7 M593.9,658.7c-70,5.2-86.5-15.2-86.8-15.6	c-1-1.3-2.9-1.7-4.2-0.7c-0.6,0.4-1,1.1-1.1,1.7c-0.2,0.9-0.1,1.8,0.5,2.6c0.1,0.1,0.3,0.4,0.8,0.9c0.7,0.8,2.1,2.1,4.3,3.7	c1.3,0.9,2.9,2,4.8,3c9.7,5.3,27.8,11.3,60.1,11.3c6.8,0,14.2-0.2,22.2-0.9c1.7-0.1,2.9-1.6,2.8-3.3	C597,659.9,595.6,658.6,593.9,658.7 M593.9,658.7c-70,5.2-86.5-15.2-86.8-15.6c-1-1.3-2.9-1.7-4.2-0.7c-0.6,0.4-1,1.1-1.1,1.7	c-0.2,0.9-0.1,1.8,0.5,2.6c0.1,0.1,0.3,0.4,0.8,0.9c0.7,0.8,2.1,2.1,4.3,3.7c1.3,0.9,2.9,2,4.8,3c9.7,5.3,27.8,11.3,60.1,11.3	c6.8,0,14.2-0.2,22.2-0.9c1.7-0.1,2.9-1.6,2.8-3.3C597,659.9,595.6,658.6,593.9,658.7 M593.9,658.7c-70,5.2-86.5-15.2-86.8-15.6	c-1-1.3-2.9-1.7-4.2-0.7c-0.6,0.4-1,1.1-1.1,1.7c-0.2,0.9-0.1,1.8,0.5,2.6c0.1,0.1,0.3,0.4,0.8,0.9c0.7,0.8,2.1,2.1,4.3,3.7	c1.3,0.9,2.9,2,4.8,3c9.7,5.3,27.8,11.3,60.1,11.3c6.8,0,14.2-0.2,22.2-0.9c1.7-0.1,2.9-1.6,2.8-3.3	C597,659.9,595.6,658.6,593.9,658.7 M593.9,658.7c-70,5.2-86.5-15.2-86.8-15.6c-1-1.3-2.9-1.7-4.2-0.7c-0.6,0.4-1,1.1-1.1,1.7	c-0.2,0.9-0.1,1.8,0.5,2.6c0.1,0.1,0.3,0.4,0.8,0.9c0.7,0.8,2.1,2.1,4.3,3.7c1.3,0.9,2.9,2,4.8,3c9.7,5.3,27.8,11.3,60.1,11.3	c6.8,0,14.2-0.2,22.2-0.9c1.7-0.1,2.9-1.6,2.8-3.3C597,659.9,595.6,658.6,593.9,658.7 M593.9,658.7c-70,5.2-86.5-15.2-86.8-15.6	c-1-1.3-2.9-1.7-4.2-0.7c-0.6,0.4-1,1.1-1.1,1.7c-0.2,0.9-0.1,1.8,0.5,2.6c0.1,0.1,0.3,0.4,0.8,0.9c0.7,0.8,2.1,2.1,4.3,3.7	c1.3,0.9,2.9,2,4.8,3c9.7,5.3,27.8,11.3,60.1,11.3c6.8,0,14.2-0.2,22.2-0.9c1.7-0.1,2.9-1.6,2.8-3.3	C597,659.9,595.6,658.6,593.9,658.7 M593.9,658.7c-70,5.2-86.5-15.2-86.8-15.6c-1-1.3-2.9-1.7-4.2-0.7c-0.6,0.4-1,1.1-1.1,1.7	c-0.2,0.9-0.1,1.8,0.5,2.6c0.1,0.1,0.3,0.4,0.8,0.9c0.7,0.8,2.1,2.1,4.3,3.7c1.3,0.9,2.9,2,4.8,3c9.7,5.3,27.8,11.3,60.1,11.3	c6.8,0,14.2-0.2,22.2-0.9c1.7-0.1,2.9-1.6,2.8-3.3C597,659.9,595.6,658.6,593.9,658.7" class="st2"/><path d="M730.5,517.2c0.4-7.7-0.5-16-2.8-24.5c-0.4-1.7-2.1-2.6-3.7-2.2c-1.6,0.4-2.6,2.2-2.1,3.8	c1.6,6.1,2.5,12,2.6,17.6c-7.5-4.8-15.8-5-17.5-5c-2.2,0-4.7,0.7-7.3,1.9c-14.3-31.2-41.9-56.3-76.4-69.7c0.3-2.4,0.5-4.9,0.5-7.5	c0-31.8-25.3-57.7-56.5-57.7c-31.2,0-56.5,25.9-56.5,57.7c0,2.2,0.1,4.4,0.4,6.6c-8.3,3-16.2,6.8-23.7,11.2	c-25.2-14.9-52.7-10.8-53.9-10.6c-1.1,0.2-2,1-2.4,2.1c-0.4,1.1-0.1,2.3,0.6,3.1l11.2,12.2l9.3,22.2c-10.4,12-18.3,25.3-23.5,39.7	h-15.2c-0.3,0-0.6,0-0.8,0.1c-0.7,0.2-17.6,5.2-17.6,19.6V583c0.9,6.4,6.1,18.5,19.6,18.5H429c0.6,1.7,1.3,3.4,2,5.1	c5.4,13.4,13.2,25.4,23,35.9l-8.7,21.9c-0.1,0.2-0.2,0.5-0.2,0.8c-0.1,0.4-0.9,10.9,5.3,17.7c3.4,3.8,8.3,5.8,14.3,5.8h35.2	c0.2,0,0.3,0,0.5,0c0.9-0.2,5.4-1.4,10.1-10.3c17,5.9,35.8,9,55.7,9c24.8,0,46.6-3.4,65.4-10.1c4.9,9.9,9.6,11.2,10.7,11.4	c0.1,0,0.3,0,0.4,0h35.2c6.1,0,10.9-2,14.3-5.8c6.2-6.9,5.3-17.3,5.3-17.7c0-0.3-0.1-0.6-0.2-0.8l-9.8-25c-0.2-0.4-0.4-0.8-0.8-1.1	c13.6-18.1,21.5-40.8,23.4-67.7c7.3-1.3,17.2-5.4,22.9-14.4c2.8-4.3,4.6-9.8,4.6-16.6C737.5,529.2,734.6,522.1,730.5,517.2 M567.3,380.2c27.8,0,50.4,23.1,50.4,51.5c0,1.8-0.1,3.6-0.3,5.3c-0.1,1-0.2,2.1-0.4,3.1c-0.2,1-0.4,2.1-0.6,3.1	c-2.6,11.9-9.3,22.2-18.4,29.3c-1.6-0.6-3.3-1.1-5.1-1.6c-7.8-2.2-16.7-3.8-26.4-3.8c-9.4,0-17.8,1.4-25.2,3.5	c-1.8,0.5-3.5,1-5.1,1.6c-9.1-7.3-15.7-17.7-18.2-29.7c-0.2-1-0.4-2-0.5-3c-0.2-1-0.3-2.1-0.4-3.1c-0.1-1.5-0.2-3.1-0.2-4.6	C516.9,403.4,539.6,380.2,567.3,380.2 M499.5,683.2h-34.8c-4.5,0-8-1.3-10.3-4c-4-4.4-4-11.5-3.9-13.2l7.6-19.3	c13,12.8,29,22.8,47.1,29.8C502.5,681.6,500.1,682.9,499.5,683.2 M692.1,666.1c0.1,1.7,0.1,8.7-3.9,13.2c-2.4,2.6-5.8,4-10.3,4	h-34.8c-0.7-0.3-3.3-1.8-6.3-7.8C655.7,668,671.2,657,683,643L692.1,666.1z M704.2,566.7c0,0.7-0.1,1.4-0.1,2.2	c-1.3,21.1-7,46.3-23.3,67.4c-0.6,0.8-1.2,1.6-1.9,2.3c-0.6,0.8-1.3,1.5-2,2.3c-10.2,11.7-24,21.9-42.6,29.1c-0.8,0.3-1.7,0.7-2.6,1	c-0.8,0.3-1.7,0.6-2.6,0.9c-17,5.9-37.8,9.3-63.1,9.3c-19,0-36.9-3-53.2-8.5c-0.8-0.3-1.7-0.6-2.6-0.9c-0.9-0.3-1.7-0.6-2.6-0.9	c-17.7-6.7-33.3-16.5-45.8-28.8c-0.8-0.7-1.5-1.5-2.2-2.2c-0.7-0.8-1.5-1.5-2.1-2.3c-10.6-11.5-18.7-25.1-23.7-40.2	c-0.4-1.2-1.6-2.1-2.9-2.1h-16.5c-11,0-13.3-11.3-13.6-13V538c0-8.8,10.8-12.9,12.9-13.5H431c1.3,0,2.5-0.9,2.9-2.1	c5.1-15,13.3-28.8,24.3-41.1c0.8-0.9,1-2.2,0.5-3.3l-10.3-24.5c-0.1-0.3-0.3-0.6-0.6-0.9l-7.2-7.9c9.4-0.3,28.3,0.6,45.3,11.2	c0.9,0.6,2.2,0.6,3.1,0c7.4-4.4,15.1-8.2,23.2-11.3c2.6,11.9,8.9,22.4,17.5,30.2c-13.7,5.8-21.6,13-22.1,13.5	c-1.2,1.1-1.3,3.1-0.2,4.4c1.1,1.2,3,1.3,4.3,0.2c0,0,1-0.9,2.9-2.3c3.7-2.8,10.9-7.5,20.7-11.3c1.1-0.4,2.3-0.9,3.5-1.3h0	c1.3-0.4,2.6-0.9,3.9-1.2c2-0.5,4-1.1,6.1-1.5c5.4-1.1,11.3-1.8,17.6-1.8c6.7,0,13,0.8,18.8,2.1c2.1,0.4,4.2,1,6.1,1.6	c1.3,0.4,2.7,0.8,3.9,1.2c1.2,0.4,2.5,0.8,3.6,1.3h0c9.8,3.8,17,8.3,20.9,11c2,1.4,3.1,2.3,3.2,2.4c0.6,0.5,1.3,0.7,2,0.7	c0.9,0,1.7-0.4,2.3-1.1c1.1-1.3,0.9-3.2-0.4-4.3c-0.6-0.5-8.7-7.4-22.4-13.2c8.6-7.7,14.8-18,17.6-29.7c32.7,13,58.8,36.9,72.2,66.6	c-6.5,4.6-12.1,11.9-12.1,19.3c0,14.7,7.6,22.5,22,22.5h0c0,1.4,0.1,2.8,0.1,4.2C704.5,560.8,704.4,563.7,704.2,566.7 M709.9,546.3	c-1,0.5-2,0.8-2.9,1c-0.9,0.2-1.8,0.3-2.6,0.3h-0.4c-10.8-0.1-15.5-5.2-15.5-16.3c0-4.9,3.9-9.9,8.5-13.5c0.8-0.6,1.7-1.2,2.6-1.8	c0.9-0.6,1.8-1.1,2.7-1.4c1.8-0.9,3.5-1.4,4.8-1.4c2.5,0,11,0.4,17.2,6.4c-0.8,8.1-3.2,15.2-7.1,20.5	C714.9,542.9,712.5,545,709.9,546.3 M725.8,555.6c-4.7,5.3-11.3,7.6-15.4,8.6c0.1-2,0.1-4.1,0.1-6.2c0-1.2,0-2.5-0.1-3.7	c0-0.6,0-1.1-0.1-1.6c4.2-1.4,8.2-4.5,11.5-8.9c3.5-4.7,5.9-10.4,7.3-16.9c1.4,3.3,2.3,7.5,2.3,12.6	C731.5,546.8,729.1,551.9,725.8,555.6" class="st5"/><path d="M704.5,558c0-1.4,0-2.8-0.1-4.2h0c-14.4,0-22-7.8-22-22.5c0-7.4,5.6-14.7,12.1-19.3	c-13.5-29.7-39.5-53.6-72.2-66.6c-2.8,11.7-9,22-17.6,29.7c13.6,5.8,21.8,12.7,22.4,13.2c1.3,1.1,1.5,3,0.4,4.3	c-0.6,0.7-1.5,1.1-2.3,1.1c-0.7,0-1.4-0.2-2-0.7c-0.1,0-1.2-1-3.2-2.4c-3.8-2.7-11.1-7.3-20.9-11h0c-1.1-0.4-2.4-0.9-3.6-1.3	c-1.3-0.4-2.6-0.9-3.9-1.2c-2-0.6-4-1.1-6.1-1.5c-5.8-1.3-12-2.1-18.8-2.1c-6.3,0-12.2,0.7-17.6,1.8c-2.1,0.4-4.1,1-6.1,1.5	c-1.4,0.4-2.7,0.8-3.9,1.2h0c-1.2,0.4-2.4,0.8-3.5,1.3c-9.9,3.8-17,8.5-20.7,11.3c-1.9,1.4-2.9,2.3-2.9,2.3c-1.2,1.1-3.2,1-4.3-0.2	c-1.1-1.3-1-3.2,0.2-4.4c0.5-0.5,8.4-7.7,22.1-13.5c-8.6-7.8-14.8-18.3-17.5-30.2c-8.1,3.1-15.9,6.8-23.2,11.3c-1,0.6-2.2,0.6-3.1,0	c-17-10.6-35.8-11.5-45.3-11.2l7.2,7.9c0.2,0.3,0.4,0.6,0.6,0.9l10.3,24.5c0.5,1.1,0.3,2.4-0.5,3.3c-11.1,12.3-19.2,26.1-24.3,41.1	c-0.4,1.2-1.6,2.1-2.9,2.1H414c-2.1,0.7-12.9,4.8-12.9,13.5v44.4c0.3,1.7,2.6,13,13.6,13h16.5c1.3,0,2.5,0.9,2.9,2.1	c5,15.1,13.1,28.6,23.7,40.2c0.6,0.8,1.3,1.5,2.1,2.3c0.7,0.8,1.5,1.5,2.2,2.2c12.5,12.3,28.1,22.2,45.8,28.8	c0.8,0.3,1.7,0.7,2.6,0.9c0.8,0.3,1.7,0.6,2.6,0.9c16.3,5.5,34.2,8.5,53.2,8.5c25.3,0,46.1-3.4,63.1-9.3c0.9-0.3,1.7-0.6,2.6-0.9	c0.9-0.3,1.7-0.6,2.6-1c18.6-7.2,32.4-17.4,42.6-29.1c0.7-0.8,1.3-1.5,2-2.3c0.6-0.8,1.2-1.5,1.9-2.3c16.3-21.2,21.9-46.3,23.3-67.4	c-0.1-0.2-0.1-0.4-0.1-0.7c-0.1-0.6,0-1.1,0.2-1.6C704.4,563.7,704.5,560.8,704.5,558 M501.7,644.2c0.2-0.7,0.6-1.3,1.1-1.7	c1.3-1,3.2-0.7,4.2,0.7c0.3,0.4,16.8,20.8,86.8,15.6c1.7-0.1,3.1,1.2,3.2,2.9c0.1,1.7-1.1,3.2-2.8,3.3c-8.1,0.6-15.4,0.9-22.2,0.9	c-32.2,0-50.4-6.1-60.1-11.3c-1.9-1-3.5-2.1-4.8-3c-2.2-1.5-3.5-2.9-4.3-3.7c-0.5-0.5-0.7-0.8-0.8-0.9	C501.6,646,501.5,645,501.7,644.2 M479,499.7c11,0,19.9,9.1,19.9,20.4c0,11.2-8.9,20.4-19.9,20.4c-11,0-19.9-9.1-19.9-20.4	C459.1,508.8,468,499.7,479,499.7" class="st2"/><path d="M585.1,432.9c-4.3-0.5-8.5-0.8-12.9-1c0.7,0.3,1.2,0.7,1.6,1c0.5,0.4,0.9,0.9,1.3,1.5c0.1,0.2,0.3,0.5,0.4,0.8	c3.4,0.2,6.7,0.5,10.1,0.9v-0.2C585.5,434.8,585.4,433.8,585.1,432.9 M585.1,432.9c0-0.1-0.1-0.2-0.1-0.4c-0.3-1.1-0.7-2-1.2-2.8	c0,0-0.1-0.1-0.1-0.1c-5.7-0.6-11.6-0.9-17.5-0.9c-0.6,0-1.1,0-1.7,0c0.4,0.2,0.8,0.3,1.3,0.5c1.4,0.5,2.4,0.9,3.1,1.2	c0.7,0.3,1.5,0.7,2.6,1.1c0.2,0.1,0.5,0.2,0.7,0.4h0c0.7,0.3,1.2,0.7,1.6,1c0.5,0.4,0.9,0.9,1.3,1.5c0.1,0.2,0.3,0.5,0.4,0.8	c3.4,0.2,6.7,0.5,10.1,0.9v-0.2C585.5,434.8,585.4,433.8,585.1,432.9" class="st5"/><path d="M704,568.2c0,0.2,0.1,0.4,0.1,0.7c0-0.8,0.1-1.5,0.1-2.2C704,567.2,703.9,567.7,704,568.2" class="st5"/><path d="M724.2,519.6c-0.8,8.1-3.2,15.2-7.2,20.5c-2.1,2.8-4.6,4.9-7.1,6.2c-1,0.5-2,0.8-2.9,1	c-0.9,0.2-1.8,0.3-2.6,0.3h-0.4c-10.8-0.1-15.5-5.2-15.5-16.3c0-4.9,3.9-9.9,8.5-13.5c0.8-0.6,1.7-1.2,2.6-1.8	c0.9-0.6,1.8-1.1,2.7-1.4c1.8-0.9,3.5-1.4,4.8-1.4C709.5,513.2,717.9,513.7,724.2,519.6" class="st2"/><path d="M603.5,661.9c0.2,1.7-0.9,3.3-2.6,3.5c-8,1.1-15.4,1.8-22.1,2.2c-32.2,1.9-50.6-3.1-60.6-7.8	c-2-0.9-3.7-1.9-5-2.7c-2.3-1.4-3.7-2.6-4.5-3.4c-0.5-0.5-0.8-0.8-0.8-0.9c-0.6-0.8-0.8-1.7-0.6-2.6c0.1-0.7,0.5-1.3,1-1.8	c1.3-1.1,3.2-0.9,4.2,0.4c0.3,0.4,17.9,19.8,87.6,10.4C601.9,659,603.3,660.2,603.5,661.9" class="st5"/><path d="M479,499.7c-11,0-19.9,9.1-19.9,20.4c0,11.2,8.9,20.4,19.9,20.4c11,0,19.9-9.1,19.9-20.4	C498.9,508.8,490,499.7,479,499.7 M479,534.2c-7.7,0-13.9-6.3-13.9-14.2c0-7.8,6.2-14.2,13.9-14.2c7.7,0,13.9,6.3,13.9,14.2	C492.9,527.9,486.7,534.2,479,534.2" class="st5"/><path d="M585,432.5c-0.3-1.1-0.7-2-1.2-2.8c0,0-0.1-0.1-0.1-0.1c-0.5-0.8-1.1-1.4-2-2.1c-0.9-0.8-1.7-1.3-2.4-1.8	c-0.7-0.4-1.7-1-2.9-1.5c-1.3-0.6-2.2-1-3-1.3c-0.7-0.3-1.8-0.7-3.1-1.1c-1.2-0.4-2.1-0.8-2.7-1c-0.6-0.2-1.4-0.6-2.4-1	c-0.9-0.4-1.7-0.8-2.2-1.1c-0.5-0.3-1-0.7-1.6-1.2c-0.5-0.5-0.9-1-1.1-1.5c-0.2-0.5-0.3-1.1-0.3-1.7c0-1.6,0.8-3,2.3-4	c1.6-1,3.5-1.5,6-1.5c1.1,0,2.2,0.1,3.3,0.4c1.1,0.3,2.1,0.6,2.9,0.9c0.8,0.3,1.5,0.7,2.3,1.2c0.7,0.4,1.2,0.7,1.5,0.9	c0.3,0.2,0.5,0.4,0.6,0.4c0.3,0.2,0.7,0.3,1,0.2c0.4,0,0.7-0.2,0.9-0.6l3.1-5.3c0.3-0.5,0.2-0.9-0.2-1.4c-0.1-0.1-0.3-0.3-0.6-0.5	c-0.2-0.2-0.7-0.6-1.5-1.1c-0.8-0.5-1.6-0.9-2.5-1.3c-0.9-0.4-2-0.8-3.4-1.2c-1.4-0.4-2.8-0.7-4.3-0.8v-6.3c0-0.3-0.1-0.6-0.3-0.8	c-0.2-0.2-0.5-0.3-0.9-0.3h-5.2c-0.3,0-0.6,0.1-0.9,0.3c-0.3,0.2-0.4,0.5-0.4,0.8v6.5c-4.1,0.7-7.4,2.3-9.9,4.8	c-2.6,2.5-3.8,5.4-3.8,8.7c0,1,0.1,1.9,0.3,2.8c0.2,0.9,0.5,1.7,0.8,2.4c0.3,0.7,0.8,1.4,1.4,2.1c0.6,0.7,1.1,1.3,1.7,1.8	s1.2,1,2.1,1.5c0.8,0.6,1.6,1,2.2,1.3c0.6,0.3,1.4,0.7,2.4,1.1c1,0.4,1.8,0.7,2.4,1c0.3,0.1,0.6,0.2,1,0.4h0	c0.4,0.2,0.8,0.3,1.3,0.5c1.4,0.5,2.4,0.9,3.1,1.2c0.7,0.3,1.5,0.7,2.6,1.1c0.2,0.1,0.5,0.2,0.7,0.4h0c4.3,0.1,8.6,0.5,12.9,1	C585.1,432.7,585,432.6,585,432.5 M585.1,432.9c0-0.1-0.1-0.2-0.1-0.4c-0.3-1.1-0.7-2-1.2-2.8c0,0-0.1-0.1-0.1-0.1	c-0.5-0.8-1.1-1.4-2-2.1c-0.9-0.8-1.7-1.3-2.4-1.8c-0.7-0.4-1.7-1-2.9-1.5c-1.3-0.6-2.2-1-3-1.3c-0.7-0.3-1.8-0.7-3.1-1.1	c-1.2-0.4-2.1-0.8-2.7-1c-0.6-0.2-1.4-0.6-2.4-1c-0.9-0.4-1.7-0.8-2.2-1.1c-0.5-0.3-1-0.7-1.6-1.2c-0.5-0.5-0.9-1-1.1-1.5	c-0.2-0.5-0.3-1.1-0.3-1.7c0-1.6,0.8-3,2.3-4c1.6-1,3.5-1.5,6-1.5c1.1,0,2.2,0.1,3.3,0.4c1.1,0.3,2.1,0.6,2.9,0.9	c0.8,0.3,1.5,0.7,2.3,1.2c0.7,0.4,1.2,0.7,1.5,0.9c0.3,0.2,0.5,0.4,0.6,0.4c0.3,0.2,0.7,0.3,1,0.2c0.4,0,0.7-0.2,0.9-0.6l3.1-5.3	c0.3-0.5,0.2-0.9-0.2-1.4c-0.1-0.1-0.3-0.3-0.6-0.5c-0.2-0.2-0.7-0.6-1.5-1.1c-0.8-0.5-1.6-0.9-2.5-1.3c-0.9-0.4-2-0.8-3.4-1.2	c-1.4-0.4-2.8-0.7-4.3-0.8v-6.3c0-0.3-0.1-0.6-0.3-0.8c-0.2-0.2-0.5-0.3-0.9-0.3h-5.2c-0.3,0-0.6,0.1-0.9,0.3	c-0.3,0.2-0.4,0.5-0.4,0.8v6.5c-4.1,0.7-7.4,2.3-9.9,4.8c-2.6,2.5-3.8,5.4-3.8,8.7c0,1,0.1,1.9,0.3,2.8c0.2,0.9,0.5,1.7,0.8,2.4	c0.3,0.7,0.8,1.4,1.4,2.1c0.6,0.7,1.1,1.3,1.7,1.8s1.2,1,2.1,1.5c0.8,0.6,1.6,1,2.2,1.3c0.6,0.3,1.4,0.7,2.4,1.1	c1,0.4,1.8,0.7,2.4,1c0.3,0.1,0.6,0.2,1,0.4h0c0.4,0.2,0.8,0.3,1.3,0.5c1.4,0.5,2.4,0.9,3.1,1.2c0.7,0.3,1.5,0.7,2.6,1.1	c0.2,0.1,0.5,0.2,0.7,0.4h0c0.7,0.3,1.2,0.7,1.6,1c0.5,0.4,0.9,0.9,1.3,1.5c0.1,0.2,0.3,0.5,0.4,0.8c0.1,0.4,0.2,0.8,0.2,1.2	c0,1.9-0.8,3.3-2.4,4.4c-1.6,1-3.4,1.5-5.5,1.5c-0.9,0-1.9-0.1-2.9-0.3c-3.4-0.6-6.5-2.1-9.4-4.5l-0.1-0.1c-0.2-0.3-0.5-0.4-0.9-0.3	c-0.4,0-0.7,0.2-0.9,0.4l-4,4.9c-0.4,0.5-0.3,1,0.1,1.5c0.1,0.1,0.3,0.4,0.7,0.7c0.3,0.3,0.9,0.7,1.8,1.3c0.9,0.6,1.9,1.2,2.9,1.7	c1,0.5,2.3,1.1,3.9,1.6c1.6,0.5,3.2,0.9,5,1.1v6.3c0,0.3,0.1,0.6,0.4,0.8c0.2,0.2,0.5,0.3,0.9,0.3h5.2c0.4,0,0.7-0.1,0.9-0.3	c0.2-0.2,0.3-0.5,0.3-0.8v-6.3c4.1-0.6,7.5-2.2,10-4.9c2.6-2.6,3.8-5.7,3.9-9.3v-0.2C585.5,434.8,585.4,433.8,585.1,432.9 M585.1,432.9c0-0.1-0.1-0.2-0.1-0.4c-0.3-1.1-0.7-2-1.2-2.8c0,0-0.1-0.1-0.1-0.1c-0.5-0.8-1.1-1.4-2-2.1c-0.9-0.8-1.7-1.3-2.4-1.8	c-0.7-0.4-1.7-1-2.9-1.5c-1.3-0.6-2.2-1-3-1.3c-0.7-0.3-1.8-0.7-3.1-1.1c-1.2-0.4-2.1-0.8-2.7-1c-0.6-0.2-1.4-0.6-2.4-1	c-0.9-0.4-1.7-0.8-2.2-1.1c-0.5-0.3-1-0.7-1.6-1.2c-0.5-0.5-0.9-1-1.1-1.5c-0.2-0.5-0.3-1.1-0.3-1.7c0-1.6,0.8-3,2.3-4	c1.6-1,3.5-1.5,6-1.5c1.1,0,2.2,0.1,3.3,0.4c1.1,0.3,2.1,0.6,2.9,0.9c0.8,0.3,1.5,0.7,2.3,1.2c0.7,0.4,1.2,0.7,1.5,0.9	c0.3,0.2,0.5,0.4,0.6,0.4c0.3,0.2,0.7,0.3,1,0.2c0.4,0,0.7-0.2,0.9-0.6l3.1-5.3c0.3-0.5,0.2-0.9-0.2-1.4c-0.1-0.1-0.3-0.3-0.6-0.5	c-0.2-0.2-0.7-0.6-1.5-1.1c-0.8-0.5-1.6-0.9-2.5-1.3c-0.9-0.4-2-0.8-3.4-1.2c-1.4-0.4-2.8-0.7-4.3-0.8v-6.3c0-0.3-0.1-0.6-0.3-0.8	c-0.2-0.2-0.5-0.3-0.9-0.3h-5.2c-0.3,0-0.6,0.1-0.9,0.3c-0.3,0.2-0.4,0.5-0.4,0.8v6.5c-4.1,0.7-7.4,2.3-9.9,4.8	c-2.6,2.5-3.8,5.4-3.8,8.7c0,1,0.1,1.9,0.3,2.8c0.2,0.9,0.5,1.7,0.8,2.4c0.3,0.7,0.8,1.4,1.4,2.1c0.6,0.7,1.1,1.3,1.7,1.8	s1.2,1,2.1,1.5c0.8,0.6,1.6,1,2.2,1.3c0.6,0.3,1.4,0.7,2.4,1.1c1,0.4,1.8,0.7,2.4,1c0.3,0.1,0.6,0.2,1,0.4h0	c0.4,0.2,0.8,0.3,1.3,0.5c1.4,0.5,2.4,0.9,3.1,1.2c0.7,0.3,1.5,0.7,2.6,1.1c0.2,0.1,0.5,0.2,0.7,0.4h0c0.7,0.3,1.2,0.7,1.6,1	c0.5,0.4,0.9,0.9,1.3,1.5c0.1,0.2,0.3,0.5,0.4,0.8c0.1,0.4,0.2,0.8,0.2,1.2c0,1.9-0.8,3.3-2.4,4.4c-1.6,1-3.4,1.5-5.5,1.5	c-0.9,0-1.9-0.1-2.9-0.3c-3.4-0.6-6.5-2.1-9.4-4.5l-0.1-0.1c-0.2-0.3-0.5-0.4-0.9-0.3c-0.4,0-0.7,0.2-0.9,0.4l-4,4.9	c-0.4,0.5-0.3,1,0.1,1.5c0.1,0.1,0.3,0.4,0.7,0.7c0.3,0.3,0.9,0.7,1.8,1.3c0.9,0.6,1.9,1.2,2.9,1.7c1,0.5,2.3,1.1,3.9,1.6	c1.6,0.5,3.2,0.9,5,1.1v6.3c0,0.3,0.1,0.6,0.4,0.8c0.2,0.2,0.5,0.3,0.9,0.3h5.2c0.4,0,0.7-0.1,0.9-0.3c0.2-0.2,0.3-0.5,0.3-0.8v-6.3	c4.1-0.6,7.5-2.2,10-4.9c2.6-2.6,3.8-5.7,3.9-9.3v-0.2C585.5,434.8,585.4,433.8,585.1,432.9 M585.1,432.9c0-0.1-0.1-0.2-0.1-0.4	c-0.3-1.1-0.7-2-1.2-2.8c0,0-0.1-0.1-0.1-0.1c-0.5-0.8-1.1-1.4-2-2.1c-0.9-0.8-1.7-1.3-2.4-1.8c-0.7-0.4-1.7-1-2.9-1.5	c-1.3-0.6-2.2-1-3-1.3c-0.7-0.3-1.8-0.7-3.1-1.1c-1.2-0.4-2.1-0.8-2.7-1c-0.6-0.2-1.4-0.6-2.4-1c-0.9-0.4-1.7-0.8-2.2-1.1	c-0.5-0.3-1-0.7-1.6-1.2c-0.5-0.5-0.9-1-1.1-1.5c-0.2-0.5-0.3-1.1-0.3-1.7c0-1.6,0.8-3,2.3-4c1.6-1,3.5-1.5,6-1.5	c1.1,0,2.2,0.1,3.3,0.4c1.1,0.3,2.1,0.6,2.9,0.9c0.8,0.3,1.5,0.7,2.3,1.2c0.7,0.4,1.2,0.7,1.5,0.9c0.3,0.2,0.5,0.4,0.6,0.4	c0.3,0.2,0.7,0.3,1,0.2c0.4,0,0.7-0.2,0.9-0.6l3.1-5.3c0.3-0.5,0.2-0.9-0.2-1.4c-0.1-0.1-0.3-0.3-0.6-0.5c-0.2-0.2-0.7-0.6-1.5-1.1	c-0.8-0.5-1.6-0.9-2.5-1.3c-0.9-0.4-2-0.8-3.4-1.2c-1.4-0.4-2.8-0.7-4.3-0.8v-6.3c0-0.3-0.1-0.6-0.3-0.8c-0.2-0.2-0.5-0.3-0.9-0.3	h-5.2c-0.3,0-0.6,0.1-0.9,0.3c-0.3,0.2-0.4,0.5-0.4,0.8v6.5c-4.1,0.7-7.4,2.3-9.9,4.8c-2.6,2.5-3.8,5.4-3.8,8.7c0,1,0.1,1.9,0.3,2.8	c0.2,0.9,0.5,1.7,0.8,2.4c0.3,0.7,0.8,1.4,1.4,2.1c0.6,0.7,1.1,1.3,1.7,1.8s1.2,1,2.1,1.5c0.8,0.6,1.6,1,2.2,1.3	c0.6,0.3,1.4,0.7,2.4,1.1c1,0.4,1.8,0.7,2.4,1c0.3,0.1,0.6,0.2,1,0.4h0c0.4,0.2,0.8,0.3,1.3,0.5c1.4,0.5,2.4,0.9,3.1,1.2	c0.7,0.3,1.5,0.7,2.6,1.1c0.2,0.1,0.5,0.2,0.7,0.4h0c0.7,0.3,1.2,0.7,1.6,1c0.5,0.4,0.9,0.9,1.3,1.5c0.1,0.2,0.3,0.5,0.4,0.8	c0.1,0.4,0.2,0.8,0.2,1.2c0,1.9-0.8,3.3-2.4,4.4c-1.6,1-3.4,1.5-5.5,1.5c-0.9,0-1.9-0.1-2.9-0.3c-3.4-0.6-6.5-2.1-9.4-4.5l-0.1-0.1	c-0.2-0.3-0.5-0.4-0.9-0.3c-0.4,0-0.7,0.2-0.9,0.4l-4,4.9c-0.4,0.5-0.3,1,0.1,1.5c0.1,0.1,0.3,0.4,0.7,0.7c0.3,0.3,0.9,0.7,1.8,1.3	c0.9,0.6,1.9,1.2,2.9,1.7c1,0.5,2.3,1.1,3.9,1.6c1.6,0.5,3.2,0.9,5,1.1v6.3c0,0.3,0.1,0.6,0.4,0.8c0.2,0.2,0.5,0.3,0.9,0.3h5.2	c0.4,0,0.7-0.1,0.9-0.3c0.2-0.2,0.3-0.5,0.3-0.8v-6.3c4.1-0.6,7.5-2.2,10-4.9c2.6-2.6,3.8-5.7,3.9-9.3v-0.2	C585.5,434.8,585.4,433.8,585.1,432.9 M585.1,432.9c0-0.1-0.1-0.2-0.1-0.4c-0.3-1.1-0.7-2-1.2-2.8c0,0-0.1-0.1-0.1-0.1	c-0.5-0.8-1.1-1.4-2-2.1c-0.9-0.8-1.7-1.3-2.4-1.8c-0.7-0.4-1.7-1-2.9-1.5c-1.3-0.6-2.2-1-3-1.3c-0.7-0.3-1.8-0.7-3.1-1.1	c-1.2-0.4-2.1-0.8-2.7-1c-0.6-0.2-1.4-0.6-2.4-1c-0.9-0.4-1.7-0.8-2.2-1.1c-0.5-0.3-1-0.7-1.6-1.2c-0.5-0.5-0.9-1-1.1-1.5	c-0.2-0.5-0.3-1.1-0.3-1.7c0-1.6,0.8-3,2.3-4c1.6-1,3.5-1.5,6-1.5c1.1,0,2.2,0.1,3.3,0.4c1.1,0.3,2.1,0.6,2.9,0.9	c0.8,0.3,1.5,0.7,2.3,1.2c0.7,0.4,1.2,0.7,1.5,0.9c0.3,0.2,0.5,0.4,0.6,0.4c0.3,0.2,0.7,0.3,1,0.2c0.4,0,0.7-0.2,0.9-0.6l3.1-5.3	c0.3-0.5,0.2-0.9-0.2-1.4c-0.1-0.1-0.3-0.3-0.6-0.5c-0.2-0.2-0.7-0.6-1.5-1.1c-0.8-0.5-1.6-0.9-2.5-1.3c-0.9-0.4-2-0.8-3.4-1.2	c-1.4-0.4-2.8-0.7-4.3-0.8v-6.3c0-0.3-0.1-0.6-0.3-0.8c-0.2-0.2-0.5-0.3-0.9-0.3h-5.2c-0.3,0-0.6,0.1-0.9,0.3	c-0.3,0.2-0.4,0.5-0.4,0.8v6.5c-4.1,0.7-7.4,2.3-9.9,4.8c-2.6,2.5-3.8,5.4-3.8,8.7c0,1,0.1,1.9,0.3,2.8c0.2,0.9,0.5,1.7,0.8,2.4	c0.3,0.7,0.8,1.4,1.4,2.1c0.6,0.7,1.1,1.3,1.7,1.8s1.2,1,2.1,1.5c0.8,0.6,1.6,1,2.2,1.3c0.6,0.3,1.4,0.7,2.4,1.1	c1,0.4,1.8,0.7,2.4,1c0.3,0.1,0.6,0.2,1,0.4h0c0.4,0.2,0.8,0.3,1.3,0.5c1.4,0.5,2.4,0.9,3.1,1.2c0.7,0.3,1.5,0.7,2.6,1.1	c0.2,0.1,0.5,0.2,0.7,0.4h0c0.7,0.3,1.2,0.7,1.6,1c0.5,0.4,0.9,0.9,1.3,1.5c0.1,0.2,0.3,0.5,0.4,0.8c0.1,0.4,0.2,0.8,0.2,1.2	c0,1.9-0.8,3.3-2.4,4.4c-1.6,1-3.4,1.5-5.5,1.5c-0.9,0-1.9-0.1-2.9-0.3c-3.4-0.6-6.5-2.1-9.4-4.5l-0.1-0.1c-0.2-0.3-0.5-0.4-0.9-0.3	c-0.4,0-0.7,0.2-0.9,0.4l-4,4.9c-0.4,0.5-0.3,1,0.1,1.5c0.1,0.1,0.3,0.4,0.7,0.7c0.3,0.3,0.9,0.7,1.8,1.3c0.9,0.6,1.9,1.2,2.9,1.7	c1,0.5,2.3,1.1,3.9,1.6c1.6,0.5,3.2,0.9,5,1.1v6.3c0,0.3,0.1,0.6,0.4,0.8c0.2,0.2,0.5,0.3,0.9,0.3h5.2c0.4,0,0.7-0.1,0.9-0.3	c0.2-0.2,0.3-0.5,0.3-0.8v-6.3c4.1-0.6,7.5-2.2,10-4.9c2.6-2.6,3.8-5.7,3.9-9.3v-0.2C585.5,434.8,585.4,433.8,585.1,432.9 M585.1,432.9c0-0.1-0.1-0.2-0.1-0.4c-0.3-1.1-0.7-2-1.2-2.8c0,0-0.1-0.1-0.1-0.1c-0.5-0.8-1.1-1.4-2-2.1c-0.9-0.8-1.7-1.3-2.4-1.8	c-0.7-0.4-1.7-1-2.9-1.5c-1.3-0.6-2.2-1-3-1.3c-0.7-0.3-1.8-0.7-3.1-1.1c-1.2-0.4-2.1-0.8-2.7-1c-0.6-0.2-1.4-0.6-2.4-1	c-0.9-0.4-1.7-0.8-2.2-1.1c-0.5-0.3-1-0.7-1.6-1.2c-0.5-0.5-0.9-1-1.1-1.5c-0.2-0.5-0.3-1.1-0.3-1.7c0-1.6,0.8-3,2.3-4	c1.6-1,3.5-1.5,6-1.5c1.1,0,2.2,0.1,3.3,0.4c1.1,0.3,2.1,0.6,2.9,0.9c0.8,0.3,1.5,0.7,2.3,1.2c0.7,0.4,1.2,0.7,1.5,0.9	c0.3,0.2,0.5,0.4,0.6,0.4c0.3,0.2,0.7,0.3,1,0.2c0.4,0,0.7-0.2,0.9-0.6l3.1-5.3c0.3-0.5,0.2-0.9-0.2-1.4c-0.1-0.1-0.3-0.3-0.6-0.5	c-0.2-0.2-0.7-0.6-1.5-1.1c-0.8-0.5-1.6-0.9-2.5-1.3c-0.9-0.4-2-0.8-3.4-1.2c-1.4-0.4-2.8-0.7-4.3-0.8v-6.3c0-0.3-0.1-0.6-0.3-0.8	c-0.2-0.2-0.5-0.3-0.9-0.3h-5.2c-0.3,0-0.6,0.1-0.9,0.3c-0.3,0.2-0.4,0.5-0.4,0.8v6.5c-4.1,0.7-7.4,2.3-9.9,4.8	c-2.6,2.5-3.8,5.4-3.8,8.7c0,1,0.1,1.9,0.3,2.8c0.2,0.9,0.5,1.7,0.8,2.4c0.3,0.7,0.8,1.4,1.4,2.1c0.6,0.7,1.1,1.3,1.7,1.8	s1.2,1,2.1,1.5c0.8,0.6,1.6,1,2.2,1.3c0.6,0.3,1.4,0.7,2.4,1.1c1,0.4,1.8,0.7,2.4,1c0.3,0.1,0.6,0.2,1,0.4h0	c0.4,0.2,0.8,0.3,1.3,0.5c1.4,0.5,2.4,0.9,3.1,1.2c0.7,0.3,1.5,0.7,2.6,1.1c0.2,0.1,0.5,0.2,0.7,0.4h0c0.7,0.3,1.2,0.7,1.6,1	c0.5,0.4,0.9,0.9,1.3,1.5c0.1,0.2,0.3,0.5,0.4,0.8c0.1,0.4,0.2,0.8,0.2,1.2c0,1.9-0.8,3.3-2.4,4.4c-1.6,1-3.4,1.5-5.5,1.5	c-0.9,0-1.9-0.1-2.9-0.3c-3.4-0.6-6.5-2.1-9.4-4.5l-0.1-0.1c-0.2-0.3-0.5-0.4-0.9-0.3c-0.4,0-0.7,0.2-0.9,0.4l-4,4.9	c-0.4,0.5-0.3,1,0.1,1.5c0.1,0.1,0.3,0.4,0.7,0.7c0.3,0.3,0.9,0.7,1.8,1.3c0.9,0.6,1.9,1.2,2.9,1.7c1,0.5,2.3,1.1,3.9,1.6	c1.6,0.5,3.2,0.9,5,1.1v6.3c0,0.3,0.1,0.6,0.4,0.8c0.2,0.2,0.5,0.3,0.9,0.3h5.2c0.4,0,0.7-0.1,0.9-0.3c0.2-0.2,0.3-0.5,0.3-0.8v-6.3	c4.1-0.6,7.5-2.2,10-4.9c2.6-2.6,3.8-5.7,3.9-9.3v-0.2C585.5,434.8,585.4,433.8,585.1,432.9 M585.1,432.9c0-0.1-0.1-0.2-0.1-0.4	c-0.3-1.1-0.7-2-1.2-2.8c0,0-0.1-0.1-0.1-0.1c-0.5-0.8-1.1-1.4-2-2.1c-0.9-0.8-1.7-1.3-2.4-1.8c-0.7-0.4-1.7-1-2.9-1.5	c-1.3-0.6-2.2-1-3-1.3c-0.7-0.3-1.8-0.7-3.1-1.1c-1.2-0.4-2.1-0.8-2.7-1c-0.6-0.2-1.4-0.6-2.4-1c-0.9-0.4-1.7-0.8-2.2-1.1	c-0.5-0.3-1-0.7-1.6-1.2c-0.5-0.5-0.9-1-1.1-1.5c-0.2-0.5-0.3-1.1-0.3-1.7c0-1.6,0.8-3,2.3-4c1.6-1,3.5-1.5,6-1.5	c1.1,0,2.2,0.1,3.3,0.4c1.1,0.3,2.1,0.6,2.9,0.9c0.8,0.3,1.5,0.7,2.3,1.2c0.7,0.4,1.2,0.7,1.5,0.9c0.3,0.2,0.5,0.4,0.6,0.4	c0.3,0.2,0.7,0.3,1,0.2c0.4,0,0.7-0.2,0.9-0.6l3.1-5.3c0.3-0.5,0.2-0.9-0.2-1.4c-0.1-0.1-0.3-0.3-0.6-0.5c-0.2-0.2-0.7-0.6-1.5-1.1	c-0.8-0.5-1.6-0.9-2.5-1.3c-0.9-0.4-2-0.8-3.4-1.2c-1.4-0.4-2.8-0.7-4.3-0.8v-6.3c0-0.3-0.1-0.6-0.3-0.8c-0.2-0.2-0.5-0.3-0.9-0.3	h-5.2c-0.3,0-0.6,0.1-0.9,0.3c-0.3,0.2-0.4,0.5-0.4,0.8v6.5c-4.1,0.7-7.4,2.3-9.9,4.8c-2.6,2.5-3.8,5.4-3.8,8.7c0,1,0.1,1.9,0.3,2.8	c0.2,0.9,0.5,1.7,0.8,2.4c0.3,0.7,0.8,1.4,1.4,2.1c0.6,0.7,1.1,1.3,1.7,1.8s1.2,1,2.1,1.5c0.8,0.6,1.6,1,2.2,1.3	c0.6,0.3,1.4,0.7,2.4,1.1c1,0.4,1.8,0.7,2.4,1c0.3,0.1,0.6,0.2,1,0.4h0c0.4,0.2,0.8,0.3,1.3,0.5c1.4,0.5,2.4,0.9,3.1,1.2	c0.7,0.3,1.5,0.7,2.6,1.1c0.2,0.1,0.5,0.2,0.7,0.4h0c0.7,0.3,1.2,0.7,1.6,1c0.5,0.4,0.9,0.9,1.3,1.5c0.1,0.2,0.3,0.5,0.4,0.8	c0.1,0.4,0.2,0.8,0.2,1.2c0,1.9-0.8,3.3-2.4,4.4c-1.6,1-3.4,1.5-5.5,1.5c-0.9,0-1.9-0.1-2.9-0.3c-3.4-0.6-6.5-2.1-9.4-4.5l-0.1-0.1	c-0.2-0.3-0.5-0.4-0.9-0.3c-0.4,0-0.7,0.2-0.9,0.4l-4,4.9c-0.4,0.5-0.3,1,0.1,1.5c0.1,0.1,0.3,0.4,0.7,0.7c0.3,0.3,0.9,0.7,1.8,1.3	c0.9,0.6,1.9,1.2,2.9,1.7c1,0.5,2.3,1.1,3.9,1.6c1.6,0.5,3.2,0.9,5,1.1v6.3c0,0.3,0.1,0.6,0.4,0.8c0.2,0.2,0.5,0.3,0.9,0.3h5.2	c0.4,0,0.7-0.1,0.9-0.3c0.2-0.2,0.3-0.5,0.3-0.8v-6.3c4.1-0.6,7.5-2.2,10-4.9c2.6-2.6,3.8-5.7,3.9-9.3v-0.2	C585.5,434.8,585.4,433.8,585.1,432.9 M585.1,432.9c0-0.1-0.1-0.2-0.1-0.4c-0.3-1.1-0.7-2-1.2-2.8c0,0-0.1-0.1-0.1-0.1	c-0.5-0.8-1.1-1.4-2-2.1c-0.9-0.8-1.7-1.3-2.4-1.8c-0.7-0.4-1.7-1-2.9-1.5c-1.3-0.6-2.2-1-3-1.3c-0.7-0.3-1.8-0.7-3.1-1.1	c-1.2-0.4-2.1-0.8-2.7-1c-0.6-0.2-1.4-0.6-2.4-1c-0.9-0.4-1.7-0.8-2.2-1.1c-0.5-0.3-1-0.7-1.6-1.2c-0.5-0.5-0.9-1-1.1-1.5	c-0.2-0.5-0.3-1.1-0.3-1.7c0-1.6,0.8-3,2.3-4c1.6-1,3.5-1.5,6-1.5c1.1,0,2.2,0.1,3.3,0.4c1.1,0.3,2.1,0.6,2.9,0.9	c0.8,0.3,1.5,0.7,2.3,1.2c0.7,0.4,1.2,0.7,1.5,0.9c0.3,0.2,0.5,0.4,0.6,0.4c0.3,0.2,0.7,0.3,1,0.2c0.4,0,0.7-0.2,0.9-0.6l3.1-5.3	c0.3-0.5,0.2-0.9-0.2-1.4c-0.1-0.1-0.3-0.3-0.6-0.5c-0.2-0.2-0.7-0.6-1.5-1.1c-0.8-0.5-1.6-0.9-2.5-1.3c-0.9-0.4-2-0.8-3.4-1.2	c-1.4-0.4-2.8-0.7-4.3-0.8v-6.3c0-0.3-0.1-0.6-0.3-0.8c-0.2-0.2-0.5-0.3-0.9-0.3h-5.2c-0.3,0-0.6,0.1-0.9,0.3	c-0.3,0.2-0.4,0.5-0.4,0.8v6.5c-4.1,0.7-7.4,2.3-9.9,4.8c-2.6,2.5-3.8,5.4-3.8,8.7c0,1,0.1,1.9,0.3,2.8c0.2,0.9,0.5,1.7,0.8,2.4	c0.3,0.7,0.8,1.4,1.4,2.1c0.6,0.7,1.1,1.3,1.7,1.8s1.2,1,2.1,1.5c0.8,0.6,1.6,1,2.2,1.3c0.6,0.3,1.4,0.7,2.4,1.1	c1,0.4,1.8,0.7,2.4,1c0.3,0.1,0.6,0.2,1,0.4h0c0.4,0.2,0.8,0.3,1.3,0.5c1.4,0.5,2.4,0.9,3.1,1.2c0.7,0.3,1.5,0.7,2.6,1.1	c0.2,0.1,0.5,0.2,0.7,0.4h0c0.7,0.3,1.2,0.7,1.6,1c0.5,0.4,0.9,0.9,1.3,1.5c0.1,0.2,0.3,0.5,0.4,0.8c0.1,0.4,0.2,0.8,0.2,1.2	c0,1.9-0.8,3.3-2.4,4.4c-1.6,1-3.4,1.5-5.5,1.5c-0.9,0-1.9-0.1-2.9-0.3c-3.4-0.6-6.5-2.1-9.4-4.5l-0.1-0.1c-0.2-0.3-0.5-0.4-0.9-0.3	c-0.4,0-0.7,0.2-0.9,0.4l-4,4.9c-0.4,0.5-0.3,1,0.1,1.5c0.1,0.1,0.3,0.4,0.7,0.7c0.3,0.3,0.9,0.7,1.8,1.3c0.9,0.6,1.9,1.2,2.9,1.7	c1,0.5,2.3,1.1,3.9,1.6c1.6,0.5,3.2,0.9,5,1.1v6.3c0,0.3,0.1,0.6,0.4,0.8c0.2,0.2,0.5,0.3,0.9,0.3h5.2c0.4,0,0.7-0.1,0.9-0.3	c0.2-0.2,0.3-0.5,0.3-0.8v-6.3c4.1-0.6,7.5-2.2,10-4.9c2.6-2.6,3.8-5.7,3.9-9.3v-0.2C585.5,434.8,585.4,433.8,585.1,432.9 M585.1,432.9c0-0.1-0.1-0.2-0.1-0.4c-0.3-1.1-0.7-2-1.2-2.8c0,0-0.1-0.1-0.1-0.1c-0.5-0.8-1.1-1.4-2-2.1c-0.9-0.8-1.7-1.3-2.4-1.8	c-0.7-0.4-1.7-1-2.9-1.5c-1.3-0.6-2.2-1-3-1.3c-0.7-0.3-1.8-0.7-3.1-1.1c-1.2-0.4-2.1-0.8-2.7-1c-0.6-0.2-1.4-0.6-2.4-1	c-0.9-0.4-1.7-0.8-2.2-1.1c-0.5-0.3-1-0.7-1.6-1.2c-0.5-0.5-0.9-1-1.1-1.5c-0.2-0.5-0.3-1.1-0.3-1.7c0-1.6,0.8-3,2.3-4	c1.6-1,3.5-1.5,6-1.5c1.1,0,2.2,0.1,3.3,0.4c1.1,0.3,2.1,0.6,2.9,0.9c0.8,0.3,1.5,0.7,2.3,1.2c0.7,0.4,1.2,0.7,1.5,0.9	c0.3,0.2,0.5,0.4,0.6,0.4c0.3,0.2,0.7,0.3,1,0.2c0.4,0,0.7-0.2,0.9-0.6l3.1-5.3c0.3-0.5,0.2-0.9-0.2-1.4c-0.1-0.1-0.3-0.3-0.6-0.5	c-0.2-0.2-0.7-0.6-1.5-1.1c-0.8-0.5-1.6-0.9-2.5-1.3c-0.9-0.4-2-0.8-3.4-1.2c-1.4-0.4-2.8-0.7-4.3-0.8v-6.3c0-0.3-0.1-0.6-0.3-0.8	c-0.2-0.2-0.5-0.3-0.9-0.3h-5.2c-0.3,0-0.6,0.1-0.9,0.3c-0.3,0.2-0.4,0.5-0.4,0.8v6.5c-4.1,0.7-7.4,2.3-9.9,4.8	c-2.6,2.5-3.8,5.4-3.8,8.7c0,1,0.1,1.9,0.3,2.8c0.2,0.9,0.5,1.7,0.8,2.4c0.3,0.7,0.8,1.4,1.4,2.1c0.6,0.7,1.1,1.3,1.7,1.8	s1.2,1,2.1,1.5c0.8,0.6,1.6,1,2.2,1.3c0.6,0.3,1.4,0.7,2.4,1.1c1,0.4,1.8,0.7,2.4,1c0.3,0.1,0.6,0.2,1,0.4h0	c0.4,0.2,0.8,0.3,1.3,0.5c1.4,0.5,2.4,0.9,3.1,1.2c0.7,0.3,1.5,0.7,2.6,1.1c0.2,0.1,0.5,0.2,0.7,0.4h0c0.7,0.3,1.2,0.7,1.6,1	c0.5,0.4,0.9,0.9,1.3,1.5c0.1,0.2,0.3,0.5,0.4,0.8c0.1,0.4,0.2,0.8,0.2,1.2c0,1.9-0.8,3.3-2.4,4.4c-1.6,1-3.4,1.5-5.5,1.5	c-0.9,0-1.9-0.1-2.9-0.3c-3.4-0.6-6.5-2.1-9.4-4.5l-0.1-0.1c-0.2-0.3-0.5-0.4-0.9-0.3c-0.4,0-0.7,0.2-0.9,0.4l-4,4.9	c-0.4,0.5-0.3,1,0.1,1.5c0.1,0.1,0.3,0.4,0.7,0.7c0.3,0.3,0.9,0.7,1.8,1.3c0.9,0.6,1.9,1.2,2.9,1.7c1,0.5,2.3,1.1,3.9,1.6	c1.6,0.5,3.2,0.9,5,1.1v6.3c0,0.3,0.1,0.6,0.4,0.8c0.2,0.2,0.5,0.3,0.9,0.3h5.2c0.4,0,0.7-0.1,0.9-0.3c0.2-0.2,0.3-0.5,0.3-0.8v-6.3	c4.1-0.6,7.5-2.2,10-4.9c2.6-2.6,3.8-5.7,3.9-9.3v-0.2C585.5,434.8,585.4,433.8,585.1,432.9 M585.1,432.9c0-0.1-0.1-0.2-0.1-0.4	c-0.3-1.1-0.7-2-1.2-2.8c0,0-0.1-0.1-0.1-0.1c-0.5-0.8-1.1-1.4-2-2.1c-0.9-0.8-1.7-1.3-2.4-1.8c-0.7-0.4-1.7-1-2.9-1.5	c-1.3-0.6-2.2-1-3-1.3c-0.7-0.3-1.8-0.7-3.1-1.1c-1.2-0.4-2.1-0.8-2.7-1c-0.6-0.2-1.4-0.6-2.4-1c-0.9-0.4-1.7-0.8-2.2-1.1	c-0.5-0.3-1-0.7-1.6-1.2c-0.5-0.5-0.9-1-1.1-1.5c-0.2-0.5-0.3-1.1-0.3-1.7c0-1.6,0.8-3,2.3-4c1.6-1,3.5-1.5,6-1.5	c1.1,0,2.2,0.1,3.3,0.4c1.1,0.3,2.1,0.6,2.9,0.9c0.8,0.3,1.5,0.7,2.3,1.2c0.7,0.4,1.2,0.7,1.5,0.9c0.3,0.2,0.5,0.4,0.6,0.4	c0.3,0.2,0.7,0.3,1,0.2c0.4,0,0.7-0.2,0.9-0.6l3.1-5.3c0.3-0.5,0.2-0.9-0.2-1.4c-0.1-0.1-0.3-0.3-0.6-0.5c-0.2-0.2-0.7-0.6-1.5-1.1	c-0.8-0.5-1.6-0.9-2.5-1.3c-0.9-0.4-2-0.8-3.4-1.2c-1.4-0.4-2.8-0.7-4.3-0.8v-6.3c0-0.3-0.1-0.6-0.3-0.8c-0.2-0.2-0.5-0.3-0.9-0.3	h-5.2c-0.3,0-0.6,0.1-0.9,0.3c-0.3,0.2-0.4,0.5-0.4,0.8v6.5c-4.1,0.7-7.4,2.3-9.9,4.8c-2.6,2.5-3.8,5.4-3.8,8.7c0,1,0.1,1.9,0.3,2.8	c0.2,0.9,0.5,1.7,0.8,2.4c0.3,0.7,0.8,1.4,1.4,2.1c0.6,0.7,1.1,1.3,1.7,1.8s1.2,1,2.1,1.5c0.8,0.6,1.6,1,2.2,1.3	c0.6,0.3,1.4,0.7,2.4,1.1c1,0.4,1.8,0.7,2.4,1c0.3,0.1,0.6,0.2,1,0.4h0c0.4,0.2,0.8,0.3,1.3,0.5c1.4,0.5,2.4,0.9,3.1,1.2	c0.7,0.3,1.5,0.7,2.6,1.1c0.2,0.1,0.5,0.2,0.7,0.4h0c0.7,0.3,1.2,0.7,1.6,1c0.5,0.4,0.9,0.9,1.3,1.5c0.1,0.2,0.3,0.5,0.4,0.8	c0.1,0.4,0.2,0.8,0.2,1.2c0,1.9-0.8,3.3-2.4,4.4c-1.6,1-3.4,1.5-5.5,1.5c-0.9,0-1.9-0.1-2.9-0.3c-3.4-0.6-6.5-2.1-9.4-4.5l-0.1-0.1	c-0.2-0.3-0.5-0.4-0.9-0.3c-0.4,0-0.7,0.2-0.9,0.4l-4,4.9c-0.4,0.5-0.3,1,0.1,1.5c0.1,0.1,0.3,0.4,0.7,0.7c0.3,0.3,0.9,0.7,1.8,1.3	c0.9,0.6,1.9,1.2,2.9,1.7c1,0.5,2.3,1.1,3.9,1.6c1.6,0.5,3.2,0.9,5,1.1v6.3c0,0.3,0.1,0.6,0.4,0.8c0.2,0.2,0.5,0.3,0.9,0.3h5.2	c0.4,0,0.7-0.1,0.9-0.3c0.2-0.2,0.3-0.5,0.3-0.8v-6.3c4.1-0.6,7.5-2.2,10-4.9c2.6-2.6,3.8-5.7,3.9-9.3v-0.2	C585.5,434.8,585.4,433.8,585.1,432.9" class="st2"/><path d="M617.8,431.8c0,1.8-0.1,3.6-0.3,5.3c-0.1,1-0.2,2.1-0.4,3.1c-0.2,1-0.4,2.1-0.6,3.1	c-2.6,11.9-9.3,22.2-18.4,29.3c-1.7-0.6-3.3-1.1-5.1-1.6c9.4-6.9,16-17.4,17.8-29.5c0.2-1,0.3-2.1,0.4-3.1c0.1-1,0.1-2.1,0.1-3.1	c0-0.2,0-0.5,0-0.8c0-24.8-19.7-44.9-44-44.9c-24.3,0-44,20.1-44,44.9v0.1c0,1.1,0,2.1,0.1,3.1c0.1,1.1,0.2,2.1,0.3,3.1	c1.7,12.3,8.2,22.9,17.6,29.9c-1.8,0.5-3.5,1-5.1,1.6c-9.1-7.3-15.7-17.7-18.2-29.7c-0.2-1-0.4-2-0.5-3c-0.2-1-0.3-2.1-0.4-3.1	c-0.1-1.5-0.2-3.1-0.2-4.6c0-28.4,22.6-51.5,50.4-51.5C595.2,380.2,617.8,403.4,617.8,431.8" class="st2"/><path d="M567.3,389.5c-24.3,0-44,20.1-44,44.9v0.1c0,1.1,0,2.1,0.1,3.1c0.1,1.1,0.2,2.1,0.3,3.1	c1.7,12.3,8.2,22.9,17.6,29.9c7.4-2.1,15.8-3.5,25.2-3.5c9.8,0,18.7,1.5,26.4,3.8c9.4-6.9,16-17.4,17.8-29.5c0.2-1,0.3-2.1,0.4-3.1	c0.1-1,0.1-2.1,0.1-3.1c0-0.2,0-0.5,0-0.8C611.4,409.6,591.7,389.5,567.3,389.5 M585.5,436.1c0,3.6-1.3,6.7-3.9,9.3	c-2.6,2.7-5.9,4.3-10,4.9v6.3c0,0.3-0.1,0.6-0.3,0.8c-0.2,0.2-0.5,0.3-0.9,0.3h-5.2c-0.3,0-0.6-0.1-0.9-0.3	c-0.3-0.2-0.4-0.5-0.4-0.8v-6.3c-1.7-0.2-3.4-0.6-5-1.1c-1.6-0.5-2.9-1.1-3.9-1.6c-1-0.5-2-1.1-2.9-1.7c-0.9-0.6-1.5-1.1-1.8-1.3	c-0.3-0.3-0.6-0.5-0.7-0.7c-0.4-0.5-0.5-1-0.1-1.5l4-4.9c0.2-0.2,0.5-0.4,0.9-0.4c0.4-0.1,0.7,0,0.9,0.3l0.1,0.1	c2.9,2.4,6.1,3.9,9.4,4.5c0.9,0.2,1.9,0.3,2.9,0.3c2.1,0,3.9-0.5,5.5-1.5c1.6-1,2.4-2.5,2.4-4.4c0-0.4-0.1-0.8-0.2-1.2	c-0.1-0.2-0.2-0.5-0.4-0.8c-0.4-0.6-0.8-1.1-1.3-1.5c-0.4-0.3-0.9-0.6-1.6-1h0c-0.2-0.1-0.4-0.2-0.7-0.4c-1-0.5-1.9-0.9-2.6-1.1	c-0.7-0.3-1.7-0.7-3.1-1.2c-0.5-0.2-0.9-0.3-1.3-0.5h0c-0.4-0.1-0.7-0.3-1-0.4c-0.6-0.2-1.4-0.6-2.4-1c-1-0.4-1.8-0.8-2.4-1.1	c-0.6-0.3-1.4-0.8-2.2-1.3c-0.9-0.5-1.6-1-2.1-1.5c-0.5-0.5-1.1-1.1-1.7-1.8c-0.6-0.7-1.1-1.4-1.4-2.1c-0.3-0.7-0.6-1.5-0.8-2.4	c-0.2-0.9-0.3-1.8-0.3-2.8c0-3.3,1.2-6.2,3.8-8.7c2.5-2.5,5.8-4.1,9.9-4.8v-6.5c0-0.3,0.1-0.6,0.4-0.8c0.2-0.2,0.5-0.3,0.9-0.3h5.2	c0.4,0,0.7,0.1,0.9,0.3c0.2,0.2,0.3,0.5,0.3,0.8v6.3c1.5,0.1,2.9,0.4,4.3,0.8c1.4,0.4,2.5,0.8,3.4,1.2c0.9,0.4,1.7,0.9,2.5,1.3	c0.8,0.5,1.3,0.9,1.5,1.1c0.2,0.2,0.4,0.3,0.6,0.5c0.4,0.4,0.5,0.9,0.2,1.4l-3.1,5.3c-0.2,0.3-0.5,0.6-0.9,0.6c-0.4,0.1-0.7,0-1-0.2	c-0.1-0.1-0.3-0.2-0.6-0.4c-0.3-0.2-0.8-0.5-1.5-0.9c-0.7-0.4-1.4-0.8-2.3-1.2s-1.8-0.7-2.9-0.9c-1.1-0.3-2.2-0.4-3.3-0.4	c-2.5,0-4.5,0.5-6,1.5c-1.5,1-2.3,2.4-2.3,4c0,0.6,0.1,1.2,0.3,1.7c0.2,0.6,0.6,1,1.1,1.5c0.6,0.4,1.1,0.9,1.6,1.2	c0.5,0.3,1.2,0.7,2.2,1.1c1,0.4,1.8,0.8,2.4,1c0.6,0.2,1.5,0.6,2.7,1c1.4,0.5,2.4,0.9,3.1,1.1c0.7,0.3,1.7,0.7,3,1.3	c1.2,0.6,2.2,1.1,2.9,1.5c0.7,0.5,1.5,1.1,2.4,1.8c0.8,0.7,1.5,1.4,2,2.1c0,0,0.1,0.1,0.1,0.1c0.5,0.8,0.9,1.7,1.2,2.8	c0,0.1,0.1,0.2,0.1,0.4c0.3,1,0.4,1.9,0.4,3L585.5,436.1L585.5,436.1z" class="st4"/><path d="M585.5,435.9v0.2c0,3.6-1.3,6.7-3.9,9.3c-2.6,2.7-5.9,4.3-10,4.9v6.3c0,0.3-0.1,0.6-0.3,0.8	c-0.2,0.2-0.5,0.3-0.9,0.3h-5.2c-0.3,0-0.6-0.1-0.9-0.3c-0.3-0.2-0.4-0.5-0.4-0.8v-6.3c-1.7-0.2-3.4-0.6-5-1.1	c-1.6-0.5-2.9-1.1-3.9-1.6c-1-0.5-2-1.1-2.9-1.7c-0.9-0.6-1.5-1.1-1.8-1.3c-0.3-0.3-0.6-0.5-0.7-0.7c-0.4-0.5-0.5-1-0.1-1.5l4-4.9	c0.2-0.2,0.5-0.4,0.9-0.4c0.4-0.1,0.7,0,0.9,0.3l0.1,0.1c2.9,2.4,6.1,3.9,9.4,4.5c0.9,0.2,1.9,0.3,2.9,0.3c2.1,0,3.9-0.5,5.5-1.5	c1.6-1,2.4-2.5,2.4-4.4c0-0.4-0.1-0.8-0.2-1.2c-0.1-0.2-0.2-0.5-0.4-0.8c-0.4-0.6-0.8-1.1-1.3-1.5c-0.4-0.3-0.9-0.6-1.6-1h0	c-0.2-0.1-0.4-0.2-0.7-0.4c-1-0.5-1.9-0.9-2.6-1.1c-0.7-0.3-1.7-0.7-3.1-1.2c-0.5-0.2-0.9-0.3-1.3-0.5h0c-0.4-0.1-0.7-0.3-1-0.4	c-0.6-0.2-1.4-0.6-2.4-1c-1-0.4-1.8-0.8-2.4-1.1c-0.6-0.3-1.4-0.8-2.2-1.3c-0.9-0.5-1.6-1-2.1-1.5c-0.5-0.5-1.1-1.1-1.7-1.8	c-0.6-0.7-1.1-1.4-1.4-2.1c-0.3-0.7-0.6-1.5-0.8-2.4c-0.2-0.9-0.3-1.8-0.3-2.8c0-3.3,1.2-6.2,3.8-8.7c2.5-2.5,5.8-4.1,9.9-4.8v-6.5	c0-0.3,0.1-0.6,0.4-0.8c0.2-0.2,0.5-0.3,0.9-0.3h5.2c0.4,0,0.7,0.1,0.9,0.3c0.2,0.2,0.3,0.5,0.3,0.8v6.3c1.5,0.1,2.9,0.4,4.3,0.8	c1.4,0.4,2.5,0.8,3.4,1.2c0.9,0.4,1.7,0.9,2.5,1.3c0.8,0.5,1.3,0.9,1.5,1.1c0.2,0.2,0.4,0.3,0.6,0.5c0.4,0.4,0.5,0.9,0.2,1.4	l-3.1,5.3c-0.2,0.3-0.5,0.6-0.9,0.6c-0.4,0.1-0.7,0-1-0.2c-0.1-0.1-0.3-0.2-0.6-0.4c-0.3-0.2-0.8-0.5-1.5-0.9	c-0.7-0.4-1.4-0.8-2.3-1.2s-1.8-0.7-2.9-0.9c-1.1-0.3-2.2-0.4-3.3-0.4c-2.5,0-4.5,0.5-6,1.5c-1.5,1-2.3,2.4-2.3,4	c0,0.6,0.1,1.2,0.3,1.7c0.2,0.6,0.6,1,1.1,1.5c0.6,0.4,1.1,0.9,1.6,1.2c0.5,0.3,1.2,0.7,2.2,1.1c1,0.4,1.8,0.8,2.4,1	c0.6,0.2,1.5,0.6,2.7,1c1.4,0.5,2.4,0.9,3.1,1.1c0.7,0.3,1.7,0.7,3,1.3c1.2,0.6,2.2,1.1,2.9,1.5c0.7,0.5,1.5,1.1,2.4,1.8	c0.8,0.7,1.5,1.4,2,2.1c0,0,0.1,0.1,0.1,0.1c0.5,0.8,0.9,1.7,1.2,2.8c0,0.1,0.1,0.2,0.1,0.4C585.4,433.8,585.5,434.8,585.5,435.9" class="st4"/><path d="M585.1,432.9c0-0.1-0.1-0.2-0.1-0.4c-0.3-1.1-0.7-2-1.2-2.8c0,0-0.1-0.1-0.1-0.1c-0.5-0.8-1.1-1.4-2-2.1	c-0.9-0.8-1.7-1.3-2.4-1.8c-0.7-0.4-1.7-1-2.9-1.5c-1.3-0.6-2.2-1-3-1.3c-0.7-0.3-1.8-0.7-3.1-1.1c-1.2-0.4-2.1-0.8-2.7-1	c-0.6-0.2-1.4-0.6-2.4-1c-0.9-0.4-1.7-0.8-2.2-1.1c-0.5-0.3-1-0.7-1.6-1.2c-0.5-0.5-0.9-1-1.1-1.5c-0.2-0.5-0.3-1.1-0.3-1.7	c0-1.6,0.8-3,2.3-4c1.6-1,3.5-1.5,6-1.5c1.1,0,2.2,0.1,3.3,0.4c1.1,0.3,2.1,0.6,2.9,0.9c0.8,0.3,1.5,0.7,2.3,1.2	c0.7,0.4,1.2,0.7,1.5,0.9c0.3,0.2,0.5,0.4,0.6,0.4c0.3,0.2,0.7,0.3,1,0.2c0.4,0,0.7-0.2,0.9-0.6l3.1-5.3c0.3-0.5,0.2-0.9-0.2-1.4	c-0.1-0.1-0.3-0.3-0.6-0.5c-0.2-0.2-0.7-0.6-1.5-1.1c-0.8-0.5-1.6-0.9-2.5-1.3c-0.9-0.4-2-0.8-3.4-1.2c-1.4-0.4-2.8-0.7-4.3-0.8	v-6.3c0-0.3-0.1-0.6-0.3-0.8c-0.2-0.2-0.5-0.3-0.9-0.3h-5.2c-0.3,0-0.6,0.1-0.9,0.3c-0.3,0.2-0.4,0.5-0.4,0.8v6.5	c-4.1,0.7-7.4,2.3-9.9,4.8c-2.6,2.5-3.8,5.4-3.8,8.7c0,1,0.1,1.9,0.3,2.8c0.2,0.9,0.5,1.7,0.8,2.4c0.3,0.7,0.8,1.4,1.4,2.1	c0.6,0.7,1.1,1.3,1.7,1.8s1.2,1,2.1,1.5c0.8,0.6,1.6,1,2.2,1.3c0.6,0.3,1.4,0.7,2.4,1.1c1,0.4,1.8,0.7,2.4,1c0.3,0.1,0.6,0.2,1,0.4	h0c0.4,0.2,0.8,0.3,1.3,0.5c1.4,0.5,2.4,0.9,3.1,1.2c0.7,0.3,1.5,0.7,2.6,1.1c0.2,0.1,0.5,0.2,0.7,0.4h0c0.7,0.3,1.2,0.7,1.6,1	c0.5,0.4,0.9,0.9,1.3,1.5c0.1,0.2,0.3,0.5,0.4,0.8c0.1,0.4,0.2,0.8,0.2,1.2c0,1.9-0.8,3.3-2.4,4.4c-1.6,1-3.4,1.5-5.5,1.5	c-0.9,0-1.9-0.1-2.9-0.3c-3.4-0.6-6.5-2.1-9.4-4.5l-0.1-0.1c-0.2-0.3-0.5-0.4-0.9-0.3c-0.4,0-0.7,0.2-0.9,0.4l-4,4.9	c-0.4,0.5-0.3,1,0.1,1.5c0.1,0.1,0.3,0.4,0.7,0.7c0.3,0.3,0.9,0.7,1.8,1.3c0.9,0.6,1.9,1.2,2.9,1.7c1,0.5,2.3,1.1,3.9,1.6	c1.6,0.5,3.2,0.9,5,1.1v6.3c0,0.3,0.1,0.6,0.4,0.8c0.2,0.2,0.5,0.3,0.9,0.3h5.2c0.4,0,0.7-0.1,0.9-0.3c0.2-0.2,0.3-0.5,0.3-0.8v-6.3	c4.1-0.6,7.5-2.2,10-4.9c2.6-2.6,3.8-5.7,3.9-9.3v-0.2C585.5,434.8,585.4,433.8,585.1,432.9" class="st6"/><path d="M622.9,332.3c-0.5,0-1-0.3-1.3-0.8l-7.5-13.2c-0.4-0.7-0.2-1.7,0.6-2.1c0.7-0.4,1.6-0.2,2.1,0.6l7.5,13.2	c0.4,0.7,0.2,1.7-0.6,2.1C623.4,332.3,623.2,332.3,622.9,332.3" class="st5"/><path d="M612.7,329.8c-0.5,0-1-0.3-1.3-0.8c-0.4-0.7-0.2-1.7,0.6-2.1l13.2-7.5c0.7-0.4,1.7-0.2,2.1,0.6	c0.4,0.7,0.2,1.7-0.6,2.1l-13.2,7.5C613.2,329.7,613,329.8,612.7,329.8" class="st5"/><path d="M679.5,363c-0.1,0-0.3,0-0.4-0.1l-12.6-3.5c-0.8-0.2-1.3-1.1-1.1-1.9c0.2-0.8,1-1.3,1.9-1.1l12.6,3.5	c0.8,0.2,1.3,1.1,1.1,1.9C680.8,362.5,680.2,363,679.5,363" class="st5"/><path d="M671.7,367.8c-0.1,0-0.3,0-0.4-0.1c-0.8-0.2-1.3-1.1-1-1.9l3.6-12.9c0.2-0.8,1-1.3,1.9-1.1	c0.8,0.2,1.3,1.1,1,1.9l-3.6,12.9C672.9,367.3,672.3,367.8,671.7,367.8" class="st5"/><path d="M728,456c-0.1,0-0.3,0-0.4-0.1l-12.6-3.5c-0.8-0.2-1.3-1.1-1.1-1.9c0.2-0.8,1-1.3,1.9-1.1l12.6,3.5	c0.8,0.2,1.3,1.1,1.1,1.9C729.3,455.6,728.7,456,728,456" class="st5"/><path d="M720.2,460.8c-0.1,0-0.3,0-0.4-0.1c-0.8-0.2-1.3-1.1-1-1.9l3.6-12.9c0.2-0.8,1.1-1.3,1.9-1.1	c0.8,0.2,1.3,1.1,1,1.9l-3.6,12.9C721.5,460.4,720.9,460.8,720.2,460.8" class="st5"/><path d="M736.9,403.3c-0.5,0-1-0.3-1.3-0.8l-6.5-11.5c-0.4-0.7-0.2-1.7,0.6-2.1c0.7-0.4,1.7-0.2,2.1,0.6l6.5,11.5	c0.4,0.7,0.2,1.7-0.6,2.1C737.4,403.3,737.1,403.3,736.9,403.3" class="st5"/><path d="M728,401c-0.5,0-1.1-0.3-1.3-0.8c-0.4-0.7-0.1-1.7,0.6-2.1l11.5-6.5c0.7-0.4,1.7-0.1,2.1,0.6	c0.4,0.7,0.1,1.7-0.6,2.1l-11.5,6.5C728.5,401,728.3,401,728,401" class="st5"/><path d="M609.6,367.5c-0.7-3.8,1.9-7.5,5.6-8.2c3.8-0.7,7.3,1.9,8,5.7c0.7,3.8-1.9,7.5-5.6,8.2	C613.8,373.9,610.2,371.3,609.6,367.5" class="st0"/><path d="M693.7,415.4c-0.8-4.5,2.2-8.8,6.6-9.6c4.4-0.8,8.6,2.2,9.4,6.8c0.8,4.5-2.2,8.8-6.6,9.6	C698.7,422.9,694.5,419.9,693.7,415.4" class="st0"/><path d="M701,327.9c-0.7-4.3,2.1-8.3,6.2-9.1c4.2-0.7,8.1,2.1,8.9,6.4c0.7,4.3-2.1,8.3-6.2,9.1	C705.7,335,701.7,332.2,701,327.9" class="st0"/><path d="M469,359.4c-0.3,0-0.5-0.1-0.8-0.2c-0.7-0.4-1-1.4-0.6-2.1l7.5-13.2c0.4-0.7,1.4-1,2.1-0.6	c0.7,0.4,1,1.4,0.6,2.1l-7.5,13.2C470,359.1,469.5,359.4,469,359.4" class="st5"/><path d="M479.2,356.8c-0.3,0-0.5-0.1-0.7-0.2l-13.2-7.5c-0.7-0.4-1-1.4-0.6-2.1c0.4-0.7,1.3-1,2.1-0.6l13.2,7.5	c0.7,0.4,1,1.4,0.6,2.1C480.2,356.5,479.7,356.8,479.2,356.8" class="st5"/><path d="M412.4,390c-0.7,0-1.3-0.5-1.5-1.1c-0.2-0.8,0.3-1.7,1.1-1.9l12.6-3.5c0.8-0.2,1.6,0.3,1.9,1.1	c0.2,0.8-0.3,1.7-1.1,1.9l-12.6,3.5C412.7,390,412.5,390,412.4,390" class="st5"/><path d="M420.2,394.8c-0.7,0-1.3-0.4-1.5-1.1l-3.6-12.9c-0.2-0.8,0.2-1.7,1-1.9c0.8-0.2,1.6,0.2,1.9,1.1l3.6,12.9	c0.2,0.8-0.2,1.7-1,1.9C420.5,394.7,420.4,394.8,420.2,394.8" class="st5"/><path d="M363.9,483c-0.7,0-1.3-0.5-1.5-1.1c-0.2-0.8,0.3-1.7,1.1-1.9l12.6-3.5c0.8-0.2,1.6,0.3,1.9,1.1	c0.2,0.8-0.3,1.7-1.1,1.9l-12.6,3.5C364.1,483,364,483,363.9,483" class="st5"/><path d="M371.7,487.8c-0.7,0-1.3-0.4-1.5-1.1l-3.6-12.9c-0.2-0.8,0.2-1.7,1-1.9c0.8-0.2,1.6,0.2,1.9,1.1l3.6,12.9	c0.2,0.8-0.2,1.7-1,1.9C372,487.8,371.9,487.8,371.7,487.8" class="st5"/><path d="M355,430.3c-0.3,0-0.5-0.1-0.8-0.2c-0.7-0.4-1-1.4-0.6-2.1l6.5-11.5c0.4-0.7,1.3-1,2.1-0.6	c0.7,0.4,1,1.4,0.6,2.1l-6.5,11.5C356.1,430,355.6,430.3,355,430.3" class="st5"/><path d="M363.9,428c-0.2,0-0.5-0.1-0.7-0.2l-11.5-6.5c-0.7-0.4-1-1.4-0.6-2.1c0.4-0.8,1.3-1,2.1-0.6l11.5,6.5	c0.7,0.4,1,1.4,0.6,2.1C364.9,427.7,364.4,428,363.9,428" class="st5"/><path d="M482.3,394.5c0.7-3.8-1.9-7.5-5.6-8.2c-3.8-0.7-7.3,1.9-8,5.7c-0.7,3.8,1.9,7.5,5.6,8.2	C478.1,400.9,481.7,398.3,482.3,394.5" class="st0"/><path d="M398.2,442.4c0.8-4.5-2.2-8.8-6.6-9.6c-4.4-0.8-8.6,2.2-9.4,6.8c-0.8,4.5,2.2,8.8,6.6,9.6	C393.2,449.9,397.4,446.9,398.2,442.4" class="st0"/><path d="M390.9,354.9c0.7-4.3-2.1-8.3-6.2-9.1c-4.2-0.7-8.1,2.1-8.9,6.4c-0.7,4.3,2.1,8.3,6.2,9.1	C386.2,362,390.2,359.2,390.9,354.9" class="st0"/><path d="M505.3,676.6c-2.8,5-5.1,6.3-5.8,6.7h-34.8c-4.5,0-8-1.3-10.3-4c-4-4.4-4-11.5-3.9-13.2l7.6-19.3	C471.1,659.5,487.1,669.6,505.3,676.6" class="st7"/><path d="M688.2,679.3c-2.4,2.6-5.8,4-10.3,4h-34.8c-0.7-0.3-3.3-1.8-6.3-7.8C655.7,668,671.2,657,683,643l9.1,23.1	C692.2,667.8,692.2,674.8,688.2,679.3" class="st7"/><path d="M704.4,553.8l-9.5,25.9c0,0-36.1,92.2-130.4,88.5c-94.3-3.7-116.7-62.6-116.7-62.6l-13.7-8.2	c5,15.1,13.1,28.6,23.7,40.2c0.6,0.8,1.3,1.5,2.1,2.3c0.7,0.8,1.5,1.5,2.2,2.2c12.5,12.3,28.1,22.2,45.8,28.8	c0.8,0.3,1.7,0.7,2.6,0.9c0.8,0.3,1.7,0.6,2.6,0.9c16.3,5.5,34.2,8.5,53.2,8.5c25.3,0,46.1-3.4,63.1-9.3c0.9-0.3,1.7-0.6,2.6-0.9	c0.9-0.3,1.7-0.6,2.6-1c18.6-7.2,32.4-17.4,42.6-29.1c0.7-0.8,1.4-1.6,2-2.3c0.6-0.8,1.2-1.6,1.9-2.3c16.3-21.2,21.9-46.3,23.3-67.4	c0-0.8,0.1-1.5,0.1-2.2c0.2-3,0.2-5.9,0.2-8.6C704.5,556.6,704.4,555.2,704.4,553.8" class="st7"/></svg>