<svg xmlns="http://www.w3.org/2000/svg" xmlns:xlink="http://www.w3.org/1999/xlink" width="100%" height="100%" version="1.1" viewBox="0 0 138 159"><defs><polygon id="path-1" points=".616 .579 178.616 .579 178.616 178.579 .616 178.579"/></defs><g id="Home" fill="none" fill-rule="evenodd" stroke="none" stroke-width="1" opacity=".71"><g id="Home-Version-02---Desktops---12-col" transform="translate(-484.000000, -996.000000)"><g id="Featured-Products" transform="translate(270.000000, 864.000000)"><g id="Item-1_Ads" transform="translate(0.000000, 132.000000)"><g id="Group-3"><g transform="translate(253.274641, 111.836720) scale(-1, 1) rotate(-13.000000) translate(-253.274641, -111.836720) translate(-75.725359, -23.663280) translate(289.205484, 84.021450) rotate(34.000000) translate(-289.205484, -84.021450) translate(199.705484, -5.478550)"><mask id="mask-2" fill="#fff"><use xlink:href="#path-1"/></mask><path id="Fill-1" fill="#FFF" d="M167.715608,46.8817511 C168.099508,49.7143244 168.316082,52.7545644 168.316082,56.0321377 C168.316082,65.0597044 166.622652,75.2122311 161.544736,87.9077844 L134.362043,166.500124 C160.824405,151.073458 178.616098,122.408931 178.616098,89.5768311 C178.616098,74.1021044 174.660213,59.5553511 167.715608,46.8817511 L167.715608,46.8817511 Z M91.1801771,97.3613644 L64.4745402,174.953938 C72.4486127,177.298198 80.8819405,178.579204 89.6160983,178.579204 C99.9825705,178.579204 109.923015,176.790304 119.172797,173.534091 C118.938422,173.151984 118.716508,172.748518 118.536722,172.307078 L91.1801771,97.3613644 Z M149.698441,85.0870777 C149.698441,74.0843044 145.746116,66.4700577 142.360443,60.5432511 C137.849773,53.2084644 133.620945,47.0051644 133.620945,39.6697844 C133.620945,31.4889044 139.820892,23.8746577 148.56395,23.8746577 C148.96031,23.8746577 149.335902,23.9227177 149.716835,23.9470444 C133.884987,9.43885773 112.785944,0.579204401 89.6160983,0.579204401 C58.5226151,0.579204401 31.1690367,16.5339377 15.2535262,40.6903177 C17.3450959,40.7591444 19.3138415,40.8018644 20.9823505,40.8018644 C30.289094,40.8018644 44.7046079,39.6703777 44.7046079,39.6703777 C49.5006811,39.3879511 50.0643665,46.4379377 45.2718535,47.0051644 C45.2718535,47.0051644 40.448486,47.5694244 35.088134,47.8488844 L67.4964876,144.252498 L86.9744902,85.8406111 L73.1090147,47.8482911 C68.3129415,47.5688311 63.7755702,47.0045711 63.7755702,47.0045711 C58.979497,46.7197711 59.5402157,39.3873577 64.3392557,39.6697844 C64.3392557,39.6697844 79.0342389,40.8012711 87.7796704,40.8012711 C97.0870073,40.8012711 111.501928,39.6697844 111.501928,39.6697844 C116.298001,39.3873577 116.865247,46.4373444 112.069173,47.0045711 C112.069173,47.0045711 107.240466,47.5688311 101.886047,47.8482911 L134.047566,143.516171 L142.925315,113.858998 C147.438359,102.292558 149.698441,92.7036977 149.698441,85.0870777 L149.698441,85.0870777 Z M0.616098264,89.5762377 C0.616098264,124.800658 21.0879673,155.248151 50.7799504,169.671491 L8.32316183,53.3579844 C3.38646394,64.4260244 0.616098264,76.6742044 0.616098264,89.5762377 L0.616098264,89.5762377 Z" mask="url(#mask-2)"/></g></g></g></g></g></g></svg>