<?xml version="1.0" encoding="utf-8"?>
<!-- Generator: Adobe Illustrator 23.0.0, SVG Export Plug-In . SVG Version: 6.00 Build 0)  -->
<svg version="1.1" id="Layer_1" xmlns="http://www.w3.org/2000/svg" x="0px" y="0px"
     viewBox="0 0 200 76" style="enable-background:new 0 0 200 76;" xml:space="preserve">
<style type="text/css">
	.st0{fill:#A80030;}
</style>
    <g>
	<path class="st0" d="M44.7,39c-1.1,0,0.2,0.5,1.6,0.6c0.4-0.2,0.8-0.5,1.1-0.7C46.6,39.1,45.7,39.1,44.7,39"/>
        <path class="st0" d="M50.6,37.8c0.7-0.7,1.1-1.5,1.3-2.3c-0.1,0.6-0.5,1.1-0.9,1.6c-2,1-0.2-0.6,0-1.2
		C48.8,38.1,50.7,37.2,50.6,37.8"/>
        <path class="st0" d="M52.8,33.3c0.1-1.6-0.4-1.1-0.6-0.5C52.4,32.9,52.6,33.9,52.8,33.3"/>
        <path class="st0" d="M40.6,11.7c0.6,0.1,1.3,0.1,1.2,0.3C42.4,11.8,42.5,11.7,40.6,11.7"/>
        <path class="st0" d="M41.8,11.9L41.3,12L41.8,11.9L41.8,11.9"/>
        <path class="st0" d="M60,33.9c0.1,1.4-0.5,2.1-1,3.3L58,37.6c-0.8,1.2,0.1,0.8-0.5,1.7c-1.2,0.9-3.7,2.7-4.5,2.9
		c-0.6,0,0.4-0.5,0.5-0.8c-1.6,0.9-1.3,1.3-3.8,1.9l-0.1-0.1c-6.1,2.3-14.6-2.3-14.5-8.5c-0.1,0.4-0.2,0.3-0.3,0.5
		c-0.3-3.2,1.8-6.4,5.5-7.7c3.6-1.4,7.7-0.8,10.3,1.1c-1.4-1.5-4.2-3-7.5-2.9c-3.2,0-6.3,1.7-7.3,3.5c-1.7,0.8-1.9,3.2-2.6,3.7
		c-1,5.7,1.8,8.2,6.6,11.1c0.7,0.4,0.2,0.5,0.3,0.8c-1.6-0.6-3-1.5-4.2-2.6c0.6,0.7,1.3,1.5,2.2,2c-1.5-0.4-3.5-2.9-4.1-3
		c2.6,3.7,10.4,6.5,14.5,5.1c-1.9,0.1-4.3,0-6.4-0.6c-0.9-0.4-2.1-1.1-1.9-1.3c5.6,1.7,11.4,1.3,16.2-1.8c1.2-0.8,2.6-2.1,3-2.1
		c-0.6,0.7,0.1,0.3-0.3,1c1.2-1.6-0.5-0.6,1.3-2.7l0.7,0.7c-0.2-1.3,2-2.9,1.8-5c0.5-0.6,0.6,0.7,0,2.2c0.8-1.6,0.2-1.9,0.4-3.2
		c0.2,0.5,0.5,0.9,0.6,1.4c-0.5-1.6,0.5-2.6,0.8-3.6c-0.3-0.1-0.8,0.7-0.9-1.2c0-0.8,0.3-0.4,0.4-0.6c-0.2-0.1-0.7-0.7-1-1.9
		c0.2-0.3,0.6,0.7,0.9,0.8c-0.2-0.9-0.5-1.7-0.6-2.4c-0.9-1.5-0.3,0.2-1.1-0.7c-1-2.4,0.8-0.6,0.9-1.7c1.5,1.7,2.3,4.3,2.7,5.4
		c-0.3-1.3-0.8-2.6-1.3-3.9c0.4,0.2-0.7-2.7,0.6-0.8c-1.4-4.1-5.9-7.9-10.1-9.7c0.5,0.4,1.2,0.8,0.9,0.9c-2.1-1-1.7-1.1-2-1.5
		c-1.7-0.6-1.8,0-2.9,0c-3.2-1.4-3.8-1.2-6.7-2.1l0.1,0.5c-2.1-0.6-2.5,0.2-4.7,0c-0.1-0.1,0.7-0.3,1.4-0.4c-2,0.2-1.9-0.3-3.9,0.1
		c0.5-0.3,1-0.5,1.5-0.7c-1.7,0.1-4,0.8-3.3,0.1c-2.7,1-7.5,2.3-10.2,4.4l-0.1-0.5c-1.2,1.2-5.4,3.6-5.7,5.1l-0.3,0.1
		c-0.6,0.9-1.1,1.9-1.6,2.8c-0.8,1.2-1.2,0.4-1.1,0.6c-1.7,2.7-2.5,5-3.2,6.8c0.5,0.6,0,3.7,0.2,6.1c-0.8,12.1,10.6,23.8,23,26.5
		c1.8,0.5,4.5,0.5,6.9,0.6c-2.7-0.6-3.1-0.3-5.7-1.1c-1.9-0.7-2.3-1.5-3.7-2.5l0.5,0.8c-2.7-0.8-1.5-0.9-3.7-1.5l0.6-0.6
		c-0.9-0.1-2.3-1.2-2.7-1.8l-0.9,0c-1.1-1.1-1.7-1.9-1.7-2.6l-0.3,0.4c-0.3-0.5-4.2-4.2-2.2-3.3c-0.4-0.3-0.9-0.4-1.4-1.2l0.4-0.4
		c-1-1-1.8-2.2-1.7-2.7c0.5,0.6,0.9,0.7,1.2,0.7c-2.4-4.8-2.5-0.3-4.4-4.9l0.4,0c-0.3-0.4-0.5-0.7-0.7-1.1l0.2-1.3
		c-1.7-1.6-0.5-6.8-0.2-9.7c0.2-1.2,1.4-2.4,2.4-4.4l-0.6-0.1c1.1-1.6,6.5-6.3,8.9-6.1c1.2-1.2-0.2,0-0.5-0.3
		c2.6-2.2,3.4-1.5,5.2-1.9c1.9-0.9-1.6,0.4-0.7-0.3c3.3-0.7,2.3-1.5,6.6-1.9c0.5,0.2-1.1,0.3-1.4,0.6c2.7-1.1,8.7-0.8,12.6,0.6
		c4.5,1.7,9.5,6.6,9.7,11.3l0.2,0c-0.1,1.9,0.4,4-0.5,6L60,33.9"/>
        <path class="st0" d="M32.8,40.2l-0.2,0.6c0.7,0.8,1.3,1.6,2.2,2.2C34.2,42,33.7,41.6,32.8,40.2"/>
        <path class="st0" d="M34.5,40.2c-0.4-0.3-0.6-0.7-0.9-1.1c0.2,0.7,0.7,1.3,1.2,1.9L34.5,40.2"/>
        <path class="st0" d="M64.6,34.9l-0.2,0.3c-0.3,1.7-0.9,3.3-1.9,4.9C63.6,38.5,64.3,36.7,64.6,34.9"/>
        <path class="st0" d="M40.8,11.3c0.7-0.2,1.8-0.1,2.6-0.3c-1,0.1-2,0.1-3.1,0.2L40.8,11.3"/>
        <path class="st0" d="M14.8,22.3c0.2,1.3-1.2,1.8,0.3,0.9C15.9,21.8,14.8,22.9,14.8,22.3"/>
        <path class="st0" d="M13,28.2c0.3-0.8,0.4-1.4,0.5-1.8C12.6,27.3,13.1,27.5,13,28.2"/>
        <path d="M87.4,34.5c0,0,0,7.5-0.1,9.5c-0.1,1.6-0.2,5-3.6,5c-3.4,0-4.3-3.9-4.5-5.7c-0.3-1.9-0.3-3.5-0.3-4.2
		c0-2.2,0.1-8.4,5.4-8.4c1.6,0,2.5,0.5,3.2,0.8L87.4,34.5z M74,40C74,53,81,53,82,53c2.9,0,4.7-1.6,5.5-4.3l0.1,4.1
		c0.9,0,1.8-0.1,3.2-0.1c0.5,0,0.9,0,1.3,0c0.4,0,0.7,0,1.2,0.1c-0.7-1.5-1.3-4.8-1.3-12c0-7,0-19,0.6-22.6
		c-1.7,0.8-3.1,1.3-6.3,1.6c1.3,1.3,1.3,2,1.3,8.2c-0.9-0.3-2-0.6-3.9-0.6C75.3,27.4,74,34.6,74,40"/>
        <path d="M99.1,37.6c0-3.8,0.8-7.3,4.1-7.3c3.6,0,3.9,4,3.8,7.3H99.1z M111.6,38.1c0-5.4-1.1-10.8-7.9-10.8
		c-9.5,0-9.5,10.5-9.5,12.7c0,9.4,4.2,13.1,11.3,13.1c3.1,0,4.7-0.5,5.5-0.7c0-1.7,0.2-2.7,0.5-4.2c-1,0.6-2.2,1.4-5,1.4
		c-7.2,0-7.3-6.6-7.3-8.9h12.3L111.6,38.1"/>
        <path d="M126.7,40.1c0,4.3-0.8,10.1-6.2,10.1c-0.7,0-1.7-0.1-2.3-0.3c-0.1-1.7-0.1-4.5-0.1-7.9c0-4,0.4-6.1,0.7-7.1
		c1-3.3,3.1-3.3,3.6-3.3C126,31.6,126.7,36.5,126.7,40.1z M113.4,45.1c0,3.4,0,5.4-0.6,6.9c1.9,0.7,4.3,1.2,7.1,1.2
		c1.8,0,7,0,9.9-5.8c1.3-2.7,1.8-6.3,1.8-9c0-1.7-0.2-5.3-1.5-7.6c-1.3-2.2-3.4-3.3-5.6-3.3c-4.4,0-5.7,3.7-6.4,5.6
		c0-2.4,0-10.6,0.4-14.8c-3,1.4-4.9,1.6-6.9,1.8c1.8,0.7,1.8,3.8,1.8,13.8L113.4,45.1"/>
        <path d="M140.5,52.9c-0.9-0.1-1.6-0.2-2.9-0.2c-1.5,0-2.5,0.1-3.6,0.2c0.5-0.9,0.6-1.3,0.8-4.3c0.2-4.1,0.2-15.2-0.1-17.5
		c-0.2-1.8-0.6-2-1.3-2.5c3.8-0.4,4.9-0.6,6.6-1.5c-0.4,2-0.4,3.1-0.4,6.2C139.6,49.2,139.5,51,140.5,52.9"/>
        <path d="M155.4,39.7c-0.1,2.9-0.1,5-0.9,6.6c-1,2.1-2.6,2.7-3.8,2.7c-2.8,0-3.4-2.3-3.4-4.6c0-4.4,3.9-4.7,5.7-4.7H155.4z
		 M142.6,45.4c0,2.9,0.9,5.8,3.5,7.1c1.2,0.5,2.3,0.5,2.7,0.5c4.3,0,5.7-3.2,6.6-5.1c0,2,0,3.3,0.1,4.9c0.8,0,1.7-0.1,3.1-0.1
		c0.8,0,1.5,0.1,2.3,0.1c-0.5-0.8-0.8-1.3-0.9-3.1c-0.1-1.8-0.1-3.5-0.1-6l0-9.5c0-3.5-0.9-7-7.9-7c-4.6,0-7.3,1.4-8.6,2.1
		c0.6,1,1,1.9,1.4,3.9c1.8-1.6,4.2-2.4,6.6-2.4c3.8,0,3.8,2.5,3.8,6.2c-0.9,0-1.6-0.1-2.9-0.1C146.5,37,142.6,39.2,142.6,45.4"/>
        <path d="M182.1,48.3c0,1.6,0,3.2,0.7,4.6c-1-0.1-1.6-0.2-3.5-0.2c-1.1,0-1.7,0.1-2.6,0.2c0.2-0.6,0.3-0.8,0.4-1.6
		c0.1-1.1,0.2-4.6,0.2-5.9v-5c0-2.2,0-5.3-0.1-6.4c-0.1-0.8-0.3-2.9-3-2.9c-2.6,0-3.5,1.9-3.8,3.5c-0.4,1.6-0.4,3.4-0.4,10.2
		c0,5.9,0,6.5,0.5,8.1c-0.8-0.1-1.8-0.2-3.1-0.2c-1.1,0-1.9,0-2.8,0.2c0.3-0.7,0.5-1.1,0.6-3.7c0.1-2.5,0.3-15.1-0.1-18
		c-0.2-1.8-0.7-2.2-1.2-2.7c3.8-0.2,5-0.8,6.1-1.4V32c0.6-1.4,1.7-4.6,6.3-4.6c5.8,0,5.8,4.2,5.9,7L182.1,48.3"/>
        <path class="st0" d="M140.9,20.5l-3.8,3.8l-3.8-3.8l3.8-3.8L140.9,20.5"/>
</g>
</svg>
