<svg xmlns="http://www.w3.org/2000/svg" id="Layer_1" x="0" y="0" version="1.1" viewBox="0 0 512 512" xml:space="preserve" style="enable-background:new 0 0 512 512"><style type="text/css">.st0{opacity:.5}.st0,.st1{fill:#fff}.st2{fill:#9bc9ff}.st3{fill:none}.st4{fill:#1e81ce}</style><polygon points="80 80 432 80 432 232.4 298.2 333.9 256 304 213.8 333.9 80 232.4" class="st0"/><g id="Email"><g><path d="M24,200v288l189.8-144L24,200z" class="st1"/><path d="M256,24l-63.3,48h126.6L256,24z" class="st2"/><path d="M298.2,344L298.2,344L256,312l-42.2,32l0,0l0,0L24,488h464L298.2,344L298.2,344z" class="st1"/><path d="M488,488V200L298.2,344L488,488z" class="st1"/></g><circle cx="256" cy="192" r="32" class="st3"/><path d="M24,200l48,36.4v-72.8L24,200z" class="st2"/><path d="M440,163.6v72.8l48-36.4L440,163.6z" class="st2"/><path d="M492.8,193.6l-44.8-34V72c0-4.4-3.6-8-8-8H322l-61.2-46.4c-2.9-2.2-6.8-2.2-9.7,0L190,64H72c-4.4,0-8,3.6-8,8 v87.6l-44.8,34c-2,1.5-3.2,3.9-3.2,6.4v288c0,4.4,3.6,8,8,8h464c4.4,0,8-3.6,8-8V200C496,197.5,494.8,195.1,492.8,193.6z M32,216.1 L200.6,344L32,471.9V216.1z M256,322l208.2,158H47.8L256,322z M311.4,344L480,216.1v255.8L311.4,344z M474.8,200L448,220.3v-40.6 L474.8,200z M256,34l39.5,30h-79L256,34z M432,80v152.4L298.2,333.9l-37.4-28.3c-2.9-2.2-6.8-2.2-9.7,0l-37.3,28.3L80,232.4V80H432 z M64,220.3L37.2,200L64,179.7V220.3z" class="st4"/><path d="M256,264h24c4.4,0,8-3.6,8-8s-3.6-8-8-8h-24c-30.9,0-56-25.1-56-56s25.1-56,56-56s56,25.1,56,56v16 c0,4.4-3.6,8-8,8s-8-3.6-8-8v-16c0.1-22.2-17.8-40.3-40-40.4c-22.2-0.1-40.3,17.8-40.4,40s17.8,40.3,40,40.4 c10.5,0.1,20.6-4,28.1-11.3c7,11.2,21.8,14.6,33,7.6c7-4.4,11.3-12.1,11.3-20.4v-16c0-39.8-32.2-72-72-72s-72,32.2-72,72 S216.2,264,256,264z M256,216c-13.3,0-24-10.7-24-24s10.7-24,24-24c13.3,0,24,10.7,24,24S269.3,216,256,216z" class="st1"/></g></svg>