<svg height="512" viewBox="0 0 512 512" width="512" xmlns="http://www.w3.org/2000/svg">
    <g id="Envelope-5" data-name="Envelope">
        <path d="m112 134.4v147.2l-96-73.6z" fill="#57a4ff"/>
        <path d="m318.61 72h-125.22l62.61-48z" fill="#57a4ff"/>
        <path d="m168 152h176v64h-176z" fill="#57a4ff"/>
        <path d="m496 208-96 73.6v-147.2z" fill="#57a4ff"/>
        <path d="m168 152h176v64h-176z" fill="#57a4ff"/>
        <path d="m168 152h176v64h-176z" fill="#57a4ff"/>
        <g fill="#004fac">
            <path
                d="m500.867 201.651-92.867-71.198v-58.453a8 8 0 0 0 -8-8h-78.676l-60.457-46.349a8 8 0 0 0 -9.734 0l-60.457 46.349h-78.676a8 8 0 0 0 -8 8v58.453l-92.867 71.2a8 8 0 0 0 -3.133 6.347v272a8 8 0 0 0 8 8h480a8 8 0 0 0 8-8v-272a8 8 0 0 0 -3.133-6.349zm-321.29 141.838-155.577 120.219v-239.494zm13.135 10.071 58.421 44.789a8 8 0 0 0 9.734 0l62.43-47.864 150.103 121.515h-433.963zm143.645-13.087 151.643-116.259v239.018zm146.495-132.473-74.852 57.386v-114.772zm-226.852-173.919 39.026 29.919h-78.052zm136 45.919v197.653l-136 104.266-136-104.266v-197.653zm-288 185.386-74.852-57.386 74.852-57.386z"/>
            <path d="m392 448h-80a8 8 0 0 0 0 16h80a8 8 0 0 0 0-16z"/>
            <path d="m424 448h-8a8 8 0 0 0 0 16h8a8 8 0 0 0 0-16z"/>
            <path
                d="m168 224h176a8 8 0 0 0 8-8v-64a8 8 0 0 0 -8-8h-176a8 8 0 0 0 -8 8v64a8 8 0 0 0 8 8zm8-64h160v48h-160z"/>
            <path d="m168 256h176a8 8 0 0 0 0-16h-176a8 8 0 0 0 0 16z"/>
            <path d="m168 280h96a8 8 0 0 0 0-16h-96a8 8 0 0 0 0 16z"/>
            <path d="m296 264h-8a8 8 0 0 0 0 16h8a8 8 0 0 0 0-16z"/>
        </g>
    </g>
</svg>
